<svg xmlns="http://www.w3.org/2000/svg" width="130" height="51" viewBox="0 0 130 51">
    <defs>
        <linearGradient id="a" x1="17.261%" x2="82.257%" y1="12.4%" y2="87.273%">
            <stop offset="0%" stop-color="#21BCC0"/>
            <stop offset="100%" stop-color="#1488CA"/>
        </linearGradient>
    </defs>
    <g fill="none" fill-rule="nonzero">
        <g fill="#1488CA">
            <path d="M73.415 30.018c0 1.478-.508 2.603-1.556 3.44-1.048.835-2.477 1.253-4.318 1.253-1.842 0-3.334-.29-4.51-.868v-2.54c.731.354 1.525.643 2.35.836.826.193 1.62.29 2.319.29 1.047 0 1.841-.193 2.318-.611.508-.418.762-.964.762-1.64 0-.61-.223-1.124-.699-1.574-.445-.418-1.397-.933-2.858-1.511-1.492-.61-2.54-1.286-3.143-2.09-.604-.77-.921-1.703-.921-2.828 0-1.382.476-2.443 1.46-3.246.953-.804 2.255-1.19 3.874-1.19 1.556 0 3.112.354 4.636 1.029l-.857 2.186c-1.46-.611-2.73-.933-3.874-.933-.857 0-1.524.193-1.969.579-.444.386-.666.868-.666 1.51 0 .419.095.804.254 1.094.19.289.476.578.889.867.412.258 1.143.611 2.19 1.061 1.207.514 2.065.964 2.636 1.414.572.45.953.933 1.239 1.479.317.61.444 1.254.444 1.993zM80.845 32.557c.636 0 1.27-.096 1.906-.29v1.994c-.286.128-.667.225-1.112.321-.444.097-.92.129-1.429.129-2.476 0-3.715-1.318-3.715-3.954V24.04h-1.683v-1.157l1.81-.964.89-2.636h1.619v2.764h3.493v1.993H79.13v6.654c0 .643.159 1.093.476 1.414.318.322.73.45 1.238.45zM91.165 21.918c.54 0 1.048.096 1.398.193l-.254 2.25a4.963 4.963 0 0 0-1.207-.129c-1.048 0-1.842.386-2.509 1.093-.635.675-.984 1.575-.984 2.7v6.493h-2.604v-12.44h2.032l.35 1.993h.063c.413-.739.858-1.157 1.524-1.575.73-.482 1.43-.578 2.191-.578zM101.74 34.486l-.54-1.736h-.096c-.603.771-1.206 1.286-1.81 1.575-.603.29-1.175.418-2.127.418-1.207 0-2.16-.322-2.858-.997-.699-.675-1.016-1.414-1.016-2.603 0-1.286.508-2.443 1.429-3.15.889-.675 2.19-1.222 4.128-1.286l2.127-.064v-.45c0-.804-.19-1.414-.54-1.8-.38-.386-.952-.61-1.714-.61-.635 0-1.239.096-1.842.288-.572.193-1.143.418-1.683.675l-.857-1.896c.73-.354 1.46-.643 2.254-.836a9.378 9.378 0 0 1 2.223-.289c1.588 0 2.763.386 3.588 1.093.794.707 1.207 1.8 1.207 3.278v8.454h-1.874v-.064zm-4.16-1.607c.952 0 1.937-.483 2.508-1.029.572-.546.857-1.286.857-2.282v-1.286l-1.587.064c-1.239.033-2.35.45-2.922.836-.571.386-.857.964-.857 1.736 0 .546.19.964.508 1.286.318.289.73.675 1.493.675zM111.202 32.557c.635 0 1.27-.096 1.905-.29v1.994c-.286.128-.667.225-1.111.321-.445.097-.921.129-1.43.129-2.476 0-3.714-1.318-3.714-3.954V24.04h-1.683v-1.157l1.81-.964.889-2.636h1.62v2.764h3.492v1.993h-3.493v6.654c0 .643.159 1.093.477 1.414.317.322.73.45 1.238.45zM115.425 18.736c0-.482.127-.836.381-1.093s.635-.386 1.08-.386c.444 0 .825.129 1.08.386.253.257.38.61.38 1.093 0 .45-.127.803-.38 1.06-.255.258-.604.386-1.08.386-.477 0-.826-.128-1.08-.386-.254-.257-.38-.61-.38-1.06zm2.763 15.75h-2.604v-12.44h2.604v12.44zM129.746 30.918c0 1.221-.445 2.218-1.334 2.86-.889.643-2.19.965-3.81.965-1.651 0-2.89-.29-3.874-.804v-2.282c1.46.675 2.794.964 4.033.964 1.62 0 2.413-.45 2.413-1.446 0-.321-.095-.579-.254-.804-.19-.225-.476-.417-.89-.642-.412-.225-.984-.483-1.714-.772-1.429-.546-2.381-1.125-2.89-1.671-.508-.547-.762-1.286-.762-2.154 0-1.06.445-1.864 1.27-2.475.794-.578 1.938-.932 3.398-.932 1.46 0 2.858.386 4.16.964l-.794 1.897c-1.334-.547-2.54-.836-3.461-.836-1.365 0-2 .514-2 1.286 0 .385.19.675.54.932.349.257 1.142.643 2.35 1.125 1.015.386 1.746.771 2.222 1.093.444.321.794.707 1.016 1.157.286.482.381.996.381 1.575z"/>
        </g>
        <path fill="url(#a)" d="M28.004 50.69L.29 34.979c-.032 0-.032-.065 0-.065l1.188-1.886c0-.033.065-.033.065 0l27.426 15.549h.064l25.692-14.574c.643-.357.964-1.073.964-1.821v-3.969c0-.033-.032-.065-.097-.033L29.996 42.688c-.707.39-1.253.39-1.992 0L2.12 28.017C.77 27.17 0 25.707 0 24.08v-6.897c0-1.008.514-1.334 1.252-1.756L27.972.268a2.102 2.102 0 0 1 2.056 0l27.105 15.387c.546.326.867.976.867 1.66 0 .65-.353 1.333-.867 1.626l-27.17 15.42c-.706.39-1.252.39-1.959 0L2.377 19.818c-.033-.032-.097 0-.097.033v4.196c0 .78.386 1.497 1.06 1.92l25.596 14.508H29l26.11-14.801c.674-.423 1.638-.456 2.28.097.385.358.61.879.61 1.432v4.88c0 1.496-.867 3.155-2.055 3.805L29.963 50.625c-.674.488-1.22.488-1.959.066zM2.826 17.413l26.142 14.834h.064l26.142-14.834c.032-.033.032-.065 0-.098L29.032 2.48h-.064L2.826 17.314c-.032.033-.032.065 0 .098z"/>
    </g>
</svg>
