<svg xmlns="http://www.w3.org/2000/svg" xmlns:xlink="http://www.w3.org/1999/xlink" xmlns:lucid="lucid" width="1382.43" height="440.67"><g transform="translate(-57.57098765432099 1220)" lucid:page-tab-id="EB9cPWbNp51."><path d="M400-1200h340v400H400z" stroke="#000" stroke-width="2" fill="#c1e4f7"/><use xlink:href="#a" transform="matrix(1,0,0,1,405,-1195) translate(0 14.4)"/><use xlink:href="#b" transform="matrix(1,0,0,1,405,-1195) translate(54.85000000000001 14.4)"/><use xlink:href="#c" transform="matrix(1,0,0,1,405,-1195) translate(72.80000000000001 14.4)"/><use xlink:href="#d" transform="matrix(1,0,0,1,405,-1195) translate(164.55 14.4)"/><use xlink:href="#e" transform="matrix(1,0,0,1,405,-1195) translate(238.40000000000003 14.4)"/><use xlink:href="#f" transform="matrix(1,0,0,1,405,-1195) translate(0 36)"/><use xlink:href="#g" transform="matrix(1,0,0,1,405,-1195) translate(0 57.6)"/><use xlink:href="#h" transform="matrix(1,0,0,1,405,-1195) translate(0 79.20000000000002)"/><use xlink:href="#i" transform="matrix(1,0,0,1,405,-1195) translate(46 79.20000000000002)"/><use xlink:href="#j" transform="matrix(1,0,0,1,405,-1195) translate(56 79.20000000000002)"/><use xlink:href="#k" transform="matrix(1,0,0,1,405,-1195) translate(102.95 79.20000000000002)"/><use xlink:href="#l" transform="matrix(1,0,0,1,405,-1195) translate(131.95 79.20000000000002)"/><use xlink:href="#m" transform="matrix(1,0,0,1,405,-1195) translate(179.89999999999998 79.20000000000002)"/><use xlink:href="#n" transform="matrix(1,0,0,1,405,-1195) translate(0 100.80000000000001)"/><use xlink:href="#i" transform="matrix(1,0,0,1,405,-1195) translate(46 100.80000000000001)"/><use xlink:href="#j" transform="matrix(1,0,0,1,405,-1195) translate(56 100.80000000000001)"/><use xlink:href="#o" transform="matrix(1,0,0,1,405,-1195) translate(102.95 100.80000000000001)"/><use xlink:href="#l" transform="matrix(1,0,0,1,405,-1195) translate(131.95 100.80000000000001)"/><use xlink:href="#p" transform="matrix(1,0,0,1,405,-1195) translate(179.89999999999998 100.80000000000001)"/><use xlink:href="#q" transform="matrix(1,0,0,1,405,-1195) translate(0 122.4)"/><use xlink:href="#i" transform="matrix(1,0,0,1,405,-1195) translate(46 122.4)"/><use xlink:href="#j" transform="matrix(1,0,0,1,405,-1195) translate(56 122.4)"/><use xlink:href="#r" transform="matrix(1,0,0,1,405,-1195) translate(102.95 122.4)"/><use xlink:href="#l" transform="matrix(1,0,0,1,405,-1195) translate(131.95 122.4)"/><use xlink:href="#s" transform="matrix(1,0,0,1,405,-1195) translate(179.89999999999998 122.4)"/><use xlink:href="#t" transform="matrix(1,0,0,1,405,-1195) translate(0 143.82222222222222)"/><use xlink:href="#u" transform="matrix(1,0,0,1,405,-1195) translate(0 165.33333333333334)"/><use xlink:href="#i" transform="matrix(1,0,0,1,405,-1195) translate(46 165.33333333333334)"/><use xlink:href="#j" transform="matrix(1,0,0,1,405,-1195) translate(56 165.33333333333334)"/><use xlink:href="#v" transform="matrix(1,0,0,1,405,-1195) translate(102.95 165.33333333333334)"/><use xlink:href="#l" transform="matrix(1,0,0,1,405,-1195) translate(131.95 165.33333333333334)"/><use xlink:href="#w" transform="matrix(1,0,0,1,405,-1195) translate(179.89999999999998 165.33333333333334)"/><use xlink:href="#f" transform="matrix(1,0,0,1,405,-1195) translate(0 186.93333333333334)"/><use xlink:href="#x" transform="matrix(1,0,0,1,405,-1195) translate(0 208.53333333333333)"/><use xlink:href="#g" transform="matrix(1,0,0,1,405,-1195) translate(0 230.13333333333333)"/><use xlink:href="#y" transform="matrix(1,0,0,1,405,-1195) translate(0 251.73333333333332)"/><use xlink:href="#i" transform="matrix(1,0,0,1,405,-1195) translate(41.765 251.73333333333332)"/><use xlink:href="#j" transform="matrix(1,0,0,1,405,-1195) translate(51.765 251.73333333333332)"/><use xlink:href="#z" transform="matrix(1,0,0,1,405,-1195) translate(98.715 251.73333333333332)"/><use xlink:href="#l" transform="matrix(1,0,0,1,405,-1195) translate(123.48 251.73333333333332)"/><use xlink:href="#A" transform="matrix(1,0,0,1,405,-1195) translate(171.43 251.73333333333332)"/><use xlink:href="#t" transform="matrix(1,0,0,1,405,-1195) translate(0 273.15555555555557)"/><use xlink:href="#B" transform="matrix(1,0,0,1,405,-1195) translate(0 294.4888888888889)"/><use xlink:href="#C" transform="matrix(1,0,0,1,405,-1195) translate(0 315.8222222222222)"/><path d="M706.55-1160v283.47h28.85l-57.7 51.93-57.7-51.93h28.85V-1160z" stroke="#000" stroke-width="2" fill="#fff"/><use xlink:href="#D" transform="matrix(-7.47129395224377e-7,0.9999999999997209,-0.9999999999997209,-7.47129395224377e-7,730.4007480259193,-1154.9999175165417) translate(28.30000000000001 45.8)"/><use xlink:href="#E" transform="matrix(-7.47129395224377e-7,0.9999999999997209,-0.9999999999997209,-7.47129395224377e-7,730.4007480259193,-1154.9999175165417) translate(81.15 45.8)"/><use xlink:href="#F" transform="matrix(-7.47129395224377e-7,0.9999999999997209,-0.9999999999997209,-7.47129395224377e-7,730.4007480259193,-1154.9999175165417) translate(107.10000000000002 45.8)"/><use xlink:href="#G" transform="matrix(-7.47129395224377e-7,0.9999999999997209,-0.9999999999997209,-7.47129395224377e-7,730.4007480259193,-1154.9999175165417) translate(211.85000000000002 45.8)"/><use xlink:href="#H" transform="matrix(-7.47129395224377e-7,0.9999999999997209,-0.9999999999997209,-7.47129395224377e-7,730.4007480259193,-1154.9999175165417) translate(13.324999999999989 67.4)"/><use xlink:href="#I" transform="matrix(-7.47129395224377e-7,0.9999999999997209,-0.9999999999997209,-7.47129395224377e-7,730.4007480259193,-1154.9999175165417) translate(50.224999999999994 67.4)"/><use xlink:href="#J" transform="matrix(-7.47129395224377e-7,0.9999999999997209,-0.9999999999997209,-7.47129395224377e-7,730.4007480259193,-1154.9999175165417) translate(144.025 67.4)"/><use xlink:href="#K" transform="matrix(-7.47129395224377e-7,0.9999999999997209,-0.9999999999997209,-7.47129395224377e-7,730.4007480259193,-1154.9999175165417) translate(245.775 67.4)"/><path d="M403-1140h217v80H403z" stroke="#c92d39" stroke-width="2" fill-opacity="0"/><path d="M780-1140h400v340.67H780z" fill="#fff" fill-opacity="0"/><g><use xlink:href="#L" transform="matrix(1,0,0,1,785,-1135) translate(0 17.77777777777778)"/><use xlink:href="#M" transform="matrix(1,0,0,1,785,-1135) translate(61.543209876543216 17.77777777777778)"/><use xlink:href="#N" transform="matrix(1,0,0,1,785,-1135) translate(100.92592592592592 17.77777777777778)"/><use xlink:href="#O" transform="matrix(1,0,0,1,785,-1135) translate(165 17.77777777777778)"/><use xlink:href="#P" transform="matrix(1,0,0,1,785,-1135) translate(187.1604938271605 17.77777777777778)"/><use xlink:href="#Q" transform="matrix(1,0,0,1,785,-1135) translate(0 44.44444444444444)"/><use xlink:href="#R" transform="matrix(1,0,0,1,785,-1135) translate(39.75308641975309 44.44444444444444)"/><use xlink:href="#S" transform="matrix(1,0,0,1,785,-1135) translate(85.30864197530865 44.44444444444444)"/><use xlink:href="#T" transform="matrix(1,0,0,1,785,-1135) translate(0 67.55555555555556)"/><use xlink:href="#U" transform="matrix(1,0,0,1,785,-1135) translate(0 88.8888888888889)"/><use xlink:href="#V" transform="matrix(1,0,0,1,785,-1135) translate(20.69135802469136 88.8888888888889)"/><use xlink:href="#W" transform="matrix(1,0,0,1,785,-1135) translate(67.01234567901236 88.8888888888889)"/><use xlink:href="#X" transform="matrix(1,0,0,1,785,-1135) translate(167.65432098765433 88.8888888888889)"/><use xlink:href="#Y" transform="matrix(1,0,0,1,785,-1135) translate(280.0493827160494 88.8888888888889)"/><use xlink:href="#Z" transform="matrix(1,0,0,1,785,-1135) translate(36.01 110.22222222222223)"/><use xlink:href="#aa" transform="matrix(1,0,0,1,785,-1135) translate(127.76308641975308 110.22222222222223)"/><use xlink:href="#ab" transform="matrix(1,0,0,1,785,-1135) translate(160.3062962962963 110.22222222222223)"/><use xlink:href="#ac" transform="matrix(1,0,0,1,785,-1135) translate(200.75074074074075 110.22222222222223)"/><use xlink:href="#ad" transform="matrix(1,0,0,1,785,-1135) translate(226.38037037037037 110.22222222222223)"/><use xlink:href="#ae" transform="matrix(1,0,0,1,785,-1135) translate(265.88654320987655 110.22222222222223)"/><use xlink:href="#af" transform="matrix(1,0,0,1,785,-1135) translate(0 131.55555555555557)"/><use xlink:href="#ag" transform="matrix(1,0,0,1,785,-1135) translate(20.69135802469136 131.55555555555557)"/><use xlink:href="#ah" transform="matrix(1,0,0,1,785,-1135) translate(63.061728395061735 131.55555555555557)"/><use xlink:href="#ai" transform="matrix(1,0,0,1,785,-1135) translate(97.03703703703704 131.55555555555557)"/><use xlink:href="#aj" transform="matrix(1,0,0,1,785,-1135) translate(148.34567901234567 131.55555555555557)"/><use xlink:href="#ak" transform="matrix(1,0,0,1,785,-1135) translate(212.54320987654322 131.55555555555557)"/><use xlink:href="#al" transform="matrix(1,0,0,1,785,-1135) translate(251.06172839506175 131.55555555555557)"/><use xlink:href="#am" transform="matrix(1,0,0,1,785,-1135) translate(270.81481481481484 131.55555555555557)"/><use xlink:href="#an" transform="matrix(1,0,0,1,785,-1135) translate(309.28395061728395 131.55555555555557)"/><use xlink:href="#al" transform="matrix(1,0,0,1,785,-1135) translate(333.9753086419753 131.55555555555557)"/><use xlink:href="#ao" transform="matrix(1,0,0,1,785,-1135) translate(353.7283950617284 131.55555555555557)"/><use xlink:href="#ap" transform="matrix(1,0,0,1,785,-1135) translate(36.01 152.8888888888889)"/><use xlink:href="#aq" transform="matrix(1,0,0,1,785,-1135) translate(56.256913580246916 152.8888888888889)"/><use xlink:href="#ar" transform="matrix(1,0,0,1,785,-1135) translate(71.56555555555556 152.8888888888889)"/><use xlink:href="#aq" transform="matrix(1,0,0,1,785,-1135) translate(91.81246913580247 152.8888888888889)"/><use xlink:href="#as" transform="matrix(1,0,0,1,785,-1135) translate(107.12111111111112 152.8888888888889)"/><use xlink:href="#at" transform="matrix(1,0,0,1,785,-1135) translate(128.8495061728395 152.8888888888889)"/><use xlink:href="#au" transform="matrix(1,0,0,1,785,-1135) translate(154.52851851851852 152.8888888888889)"/><use xlink:href="#av" transform="matrix(1,0,0,1,785,-1135) translate(0 174.22222222222226)"/><use xlink:href="#aw" transform="matrix(1,0,0,1,785,-1135) translate(0 195.5555555555556)"/><use xlink:href="#ax" transform="matrix(1,0,0,1,785,-1135) translate(20.69135802469136 195.5555555555556)"/><use xlink:href="#ay" transform="matrix(1,0,0,1,785,-1135) translate(50.320987654320994 195.5555555555556)"/><use xlink:href="#az" transform="matrix(1,0,0,1,785,-1135) translate(113.53086419753087 195.5555555555556)"/><use xlink:href="#aA" transform="matrix(1,0,0,1,785,-1135) translate(156.98765432098767 195.5555555555556)"/><use xlink:href="#al" transform="matrix(1,0,0,1,785,-1135) translate(199.4567901234568 195.5555555555556)"/><use xlink:href="#ax" transform="matrix(1,0,0,1,785,-1135) translate(219.2098765432099 195.5555555555556)"/><use xlink:href="#aB" transform="matrix(1,0,0,1,785,-1135) translate(248.83950617283955 195.5555555555556)"/><use xlink:href="#aC" transform="matrix(1,0,0,1,785,-1135) translate(36.01 216.88888888888894)"/><use xlink:href="#aD" transform="matrix(1,0,0,1,785,-1135) translate(106.13345679012346 216.88888888888894)"/><use xlink:href="#aE" transform="matrix(1,0,0,1,785,-1135) translate(121.4420987654321 216.88888888888894)"/><use xlink:href="#aq" transform="matrix(1,0,0,1,785,-1135) translate(141.68901234567903 216.88888888888894)"/><use xlink:href="#ar" transform="matrix(1,0,0,1,785,-1135) translate(156.99765432098766 216.88888888888894)"/><use xlink:href="#aq" transform="matrix(1,0,0,1,785,-1135) translate(177.24456790123457 216.88888888888894)"/><use xlink:href="#as" transform="matrix(1,0,0,1,785,-1135) translate(192.5532098765432 216.88888888888894)"/><use xlink:href="#aF" transform="matrix(1,0,0,1,785,-1135) translate(214.2816049382716 216.88888888888894)"/><use xlink:href="#ao" transform="matrix(1,0,0,1,785,-1135) translate(225.09641975308642 216.88888888888894)"/><use xlink:href="#aG" transform="matrix(1,0,0,1,785,-1135) translate(0 238.22222222222229)"/><use xlink:href="#aH" transform="matrix(1,0,0,1,785,-1135) translate(20.69135802469136 238.22222222222229)"/><use xlink:href="#aI" transform="matrix(1,0,0,1,785,-1135) translate(55.25925925925927 238.22222222222229)"/><use xlink:href="#aJ" transform="matrix(1,0,0,1,785,-1135) translate(79.95061728395063 238.22222222222229)"/><use xlink:href="#aK" transform="matrix(1,0,0,1,785,-1135) translate(194.27160493827165 238.22222222222229)"/><use xlink:href="#aL" transform="matrix(1,0,0,1,785,-1135) translate(230.7160493827161 238.22222222222229)"/><use xlink:href="#aM" transform="matrix(1,0,0,1,785,-1135) translate(256.3456790123457 238.22222222222229)"/><use xlink:href="#aN" transform="matrix(1,0,0,1,785,-1135) translate(280.0493827160494 238.22222222222229)"/><use xlink:href="#aO" transform="matrix(1,0,0,1,785,-1135) translate(343.2592592592593 238.22222222222229)"/><use xlink:href="#aP" transform="matrix(1,0,0,1,785,-1135) translate(363.01234567901236 238.22222222222229)"/><use xlink:href="#aQ" transform="matrix(1,0,0,1,785,-1135) translate(0 259.5555555555556)"/><use xlink:href="#aR" transform="matrix(1,0,0,1,785,-1135) translate(0 280.88888888888897)"/><use xlink:href="#aS" transform="matrix(1,0,0,1,785,-1135) translate(20.69135802469136 280.88888888888897)"/><use xlink:href="#aT" transform="matrix(1,0,0,1,785,-1135) translate(63.061728395061735 280.88888888888897)"/><use xlink:href="#ai" transform="matrix(1,0,0,1,785,-1135) translate(97.03703703703704 280.88888888888897)"/><use xlink:href="#aj" transform="matrix(1,0,0,1,785,-1135) translate(148.34567901234567 280.88888888888897)"/><use xlink:href="#ak" transform="matrix(1,0,0,1,785,-1135) translate(212.54320987654322 280.88888888888897)"/><use xlink:href="#al" transform="matrix(1,0,0,1,785,-1135) translate(251.06172839506175 280.88888888888897)"/><use xlink:href="#am" transform="matrix(1,0,0,1,785,-1135) translate(270.81481481481484 280.88888888888897)"/><use xlink:href="#an" transform="matrix(1,0,0,1,785,-1135) translate(309.28395061728395 280.88888888888897)"/><use xlink:href="#al" transform="matrix(1,0,0,1,785,-1135) translate(333.9753086419753 280.88888888888897)"/><use xlink:href="#ao" transform="matrix(1,0,0,1,785,-1135) translate(353.7283950617284 280.88888888888897)"/><use xlink:href="#aU" transform="matrix(1,0,0,1,785,-1135) translate(36.01 302.2222222222223)"/><use xlink:href="#at" transform="matrix(1,0,0,1,785,-1135) translate(57.7383950617284 302.2222222222223)"/><use xlink:href="#aV" transform="matrix(1,0,0,1,785,-1135) translate(83.41740740740741 302.2222222222223)"/><use xlink:href="#aW" transform="matrix(1,0,0,1,785,-1135) translate(0 323.5555555555556)"/><use xlink:href="#aX" transform="matrix(1,0,0,1,785,-1135) translate(20.69135802469136 323.5555555555556)"/><use xlink:href="#aY" transform="matrix(1,0,0,1,785,-1135) translate(49.33333333333334 323.5555555555556)"/></g><path d="M80-1000h160l40 60v140H80z" stroke="#000" stroke-width="2" fill="#c7e8ac"/><g><use xlink:href="#aZ" transform="matrix(1,0,0,1,80,-1000) translate(5.01 19.41)"/><use xlink:href="#ba" transform="matrix(1,0,0,1,80,-1000) translate(53.96 19.41)"/><use xlink:href="#bb" transform="matrix(1,0,0,1,80,-1000) translate(5.01 41.01)"/><use xlink:href="#bc" transform="matrix(1,0,0,1,80,-1000) translate(5.01 62.61)"/><use xlink:href="#bd" transform="matrix(1,0,0,1,80,-1000) translate(15.959999999999999 62.61)"/><use xlink:href="#be" transform="matrix(1,0,0,1,80,-1000) translate(46.96 62.61)"/><use xlink:href="#bf" transform="matrix(1,0,0,1,80,-1000) translate(36.01 84.21000000000001)"/><use xlink:href="#bg" transform="matrix(1,0,0,1,80,-1000) translate(46.959999999999994 84.21000000000001)"/><use xlink:href="#bh" transform="matrix(1,0,0,1,80,-1000) translate(117.76 84.21000000000001)"/><use xlink:href="#bf" transform="matrix(1,0,0,1,80,-1000) translate(36.01 105.81)"/><use xlink:href="#bi" transform="matrix(1,0,0,1,80,-1000) translate(46.959999999999994 105.81)"/><use xlink:href="#bj" transform="matrix(1,0,0,1,80,-1000) translate(133.86 105.81)"/><use xlink:href="#bc" transform="matrix(1,0,0,1,80,-1000) translate(5.01 127.41)"/><use xlink:href="#bk" transform="matrix(1,0,0,1,80,-1000) translate(15.959999999999999 127.41)"/><use xlink:href="#bl" transform="matrix(1,0,0,1,80,-1000) translate(46.96 127.41)"/><use xlink:href="#bm" transform="matrix(1,0,0,1,80,-1000) translate(36.01 149.01)"/><use xlink:href="#bn" transform="matrix(1,0,0,1,80,-1000) translate(112.75999999999999 149.01)"/><use xlink:href="#bf" transform="matrix(1,0,0,1,80,-1000) translate(36.01 170.60999999999999)"/><use xlink:href="#bi" transform="matrix(1,0,0,1,80,-1000) translate(46.959999999999994 170.60999999999999)"/><use xlink:href="#bo" transform="matrix(1,0,0,1,80,-1000) translate(133.86 170.60999999999999)"/></g><path d="M160-1160c0 22.1-17.9 40-40 40s-40-17.9-40-40 17.9-40 40-40 40 17.9 40 40z" stroke="#000" stroke-width="2" fill="#c7e8ac"/><g><use xlink:href="#bp" transform="matrix(1,0,0,1,85,-1195) translate(3.549999999999997 27.799999999999997)"/><use xlink:href="#bq" transform="matrix(1,0,0,1,85,-1195) translate(55.45 27.799999999999997)"/><use xlink:href="#br" transform="matrix(1,0,0,1,85,-1195) translate(15 49.4)"/></g><path d="M310-1160c0 22.1-17.9 40-40 40s-40-17.9-40-40 17.9-40 40-40 40 17.9 40 40z" stroke="#000" stroke-width="2" fill="#ffbbb1"/><g><use xlink:href="#bp" transform="matrix(1,0,0,1,235,-1195) translate(3.049999999999997 27.799999999999997)"/><use xlink:href="#bs" transform="matrix(1,0,0,1,235,-1195) translate(54.95 27.799999999999997)"/><use xlink:href="#br" transform="matrix(1,0,0,1,235,-1195) translate(15 49.4)"/></g><path d="M161-1160h49.76" stroke="#000" stroke-width="2" fill="none"/><path d="M161-1159h-1.06l.06-1-.04-1H161zM225.76-1160l-14.26 4.64v-9.28z"/><path d="M229-1160l-18.5 6v-12zm-16.5 3.26l10.03-3.26-10.03-3.26z"/><path d="M160-1120h88l12 12v48H160z" stroke="#d9be60" stroke-width="2" fill="#ffdf71"/><path d="M248-1120v12h12" fill="#d9be60"/><g><use xlink:href="#bt" transform="matrix(1,0,0,1,165,-1115) translate(18.549999999999997 17.799999999999997)"/><use xlink:href="#bu" transform="matrix(1,0,0,1,165,-1115) translate(67.5 17.799999999999997)"/><use xlink:href="#bv" transform="matrix(1,0,0,1,165,-1115) translate(29.025 39.4)"/><use xlink:href="#bw" transform="matrix(1,0,0,1,165,-1115) translate(39.974999999999994 39.4)"/></g><path d="M119.98-1100.76l-.08 99.76" fill="none"/><path d="M119.98-1100.76v3m0 3.98v6m0 3.98v5.98m-.02 4v5.98m0 4v5.97m0 4l-.02 5.98m0 4v6m0 3.98l-.02 5.98m0 4v5.98m0 4v5.98m-.02 4v2.98" stroke="#000" stroke-width="2" fill="none"/><path d="M124.62-1101.5h-9.27l4.65-14.26z"/><path d="M126-1100.5h-12.03L120-1119zm-9.27-2h6.52l-3.26-10.03zM120.9-1001v1h-2v-1z"/><path d="M180.23-1121l.44-39" stroke="#000" stroke-width="2" fill="none"/><path d="M181.23-1121v1h-2v-1z"/><path d="M311-1160l69.77 1.67" stroke="#000" stroke-width="2" fill="none"/><path d="M311.03-1161l-.05 2-1.04-.03.06-.97-.04-1.03zM395.76-1157.97l-14.37 4.3.2-9.28z"/><path d="M399-1157.9l-18.64 5.57.3-12.02zm-16.58 2.87l10.1-3.02-9.94-3.5z"/><path d="M741-1159.3h439.76" stroke="#c92d39" stroke-width="2" fill="none"/><path d="M741-1158.3h-1v-2h1z" fill="#c92d39"/><path d="M1195.76-1159.3l-14.26 4.64v-9.27z" stroke="#c92d39" stroke-width="2" fill="#c92d39"/><path d="M98-1080h40v60H98z" stroke="#000" stroke-opacity="0" stroke-width="2" fill="#fff" fill-opacity="0"/><g><use xlink:href="#bx" transform="matrix(6.123233995736766e-17,-1,1,6.123233995736766e-17,102,-1024) translate(-13.429012345679013 12.444444444444446)"/><use xlink:href="#by" transform="matrix(6.123233995736766e-17,-1,1,6.123233995736766e-17,102,-1024) translate(14.981481481481481 31.111111111111118)"/><use xlink:href="#bz" transform="matrix(6.123233995736766e-17,-1,1,6.123233995736766e-17,102,-1024) translate(28.376543209876544 31.111111111111118)"/></g><path d="M177-1070h91l12 12v48H177z" stroke="#d9be60" stroke-width="2" fill="#ffdf71"/><path d="M268-1070v12h12" fill="#d9be60"/><g><use xlink:href="#bt" transform="matrix(1,0,0,1,182,-1065) translate(20.049999999999997 17.799999999999997)"/><use xlink:href="#bu" transform="matrix(1,0,0,1,182,-1065) translate(69 17.799999999999997)"/><use xlink:href="#bv" transform="matrix(1,0,0,1,182,-1065) translate(30.525 39.4)"/><use xlink:href="#bA" transform="matrix(1,0,0,1,182,-1065) translate(41.474999999999994 39.4)"/></g><path d="M402-1055h217v40H402z" stroke="#fcc438" stroke-width="2" fill-opacity="0"/><path d="M1200-1200h220v204.4h-220z" fill="#c1e4f7"/><path d="M1222-1200h-22v204.4h22" stroke="#000" stroke-width="2" fill="none"/><g><use xlink:href="#bB" transform="matrix(1,0,0,1,1218.75,-1195) translate(0 14.700000000000012)"/><use xlink:href="#bC" transform="matrix(1,0,0,1,1218.75,-1195) translate(32.2 14.700000000000012)"/><use xlink:href="#bD" transform="matrix(1,0,0,1,1218.75,-1195) translate(47.7 14.700000000000012)"/><use xlink:href="#bE" transform="matrix(1,0,0,1,1218.75,-1195) translate(78.60000000000001 14.700000000000012)"/><use xlink:href="#bF" transform="matrix(1,0,0,1,1218.75,-1195) translate(0 36.30000000000001)"/><use xlink:href="#bf" transform="matrix(1,0,0,1,1218.75,-1195) translate(36.01 57.90000000000001)"/><use xlink:href="#bG" transform="matrix(1,0,0,1,1218.75,-1195) translate(46.959999999999994 57.90000000000001)"/><use xlink:href="#bH" transform="matrix(1,0,0,1,1218.75,-1195) translate(36.01 79.50000000000003)"/><use xlink:href="#bI" transform="matrix(1,0,0,1,1218.75,-1195) translate(46.959999999999994 79.50000000000003)"/><use xlink:href="#bH" transform="matrix(1,0,0,1,1218.75,-1195) translate(36.01 101.10000000000002)"/><use xlink:href="#bJ" transform="matrix(1,0,0,1,1218.75,-1195) translate(46.959999999999994 101.10000000000002)"/><use xlink:href="#bK" transform="matrix(1,0,0,1,1218.75,-1195) translate(0 122.70000000000002)"/><use xlink:href="#bf" transform="matrix(1,0,0,1,1218.75,-1195) translate(36.01 144.3)"/><use xlink:href="#bL" transform="matrix(1,0,0,1,1218.75,-1195) translate(46.959999999999994 144.3)"/><use xlink:href="#bh" transform="matrix(1,0,0,1,1218.75,-1195) translate(93.96 144.3)"/><use xlink:href="#bH" transform="matrix(1,0,0,1,1218.75,-1195) translate(36.01 165.9)"/><use xlink:href="#bg" transform="matrix(1,0,0,1,1218.75,-1195) translate(46.959999999999994 165.9)"/><use xlink:href="#bM" transform="matrix(1,0,0,1,1218.75,-1195) translate(117.76 165.9)"/><use xlink:href="#bH" transform="matrix(1,0,0,1,1218.75,-1195) translate(36.01 187.5)"/><use xlink:href="#bi" transform="matrix(1,0,0,1,1218.75,-1195) translate(46.959999999999994 187.5)"/><use xlink:href="#bN" transform="matrix(1,0,0,1,1218.75,-1195) translate(133.86 187.5)"/></g><path d="M1200-974h220v161.2h-220z" fill="#c1e4f7"/><path d="M1222-974h-22v161.2h22" stroke="#000" stroke-width="2" fill="none"/><g><use xlink:href="#bO" transform="matrix(1,0,0,1,1218.75,-969.0000000000001) translate(0 14.800000000000006)"/><use xlink:href="#bC" transform="matrix(1,0,0,1,1218.75,-969.0000000000001) translate(32.2 14.800000000000006)"/><use xlink:href="#bD" transform="matrix(1,0,0,1,1218.75,-969.0000000000001) translate(47.7 14.800000000000006)"/><use xlink:href="#bE" transform="matrix(1,0,0,1,1218.75,-969.0000000000001) translate(78.60000000000001 14.800000000000006)"/><use xlink:href="#bF" transform="matrix(1,0,0,1,1218.75,-969.0000000000001) translate(0 36.400000000000006)"/><use xlink:href="#bf" transform="matrix(1,0,0,1,1218.75,-969.0000000000001) translate(36.01 58.00000000000001)"/><use xlink:href="#bP" transform="matrix(1,0,0,1,1218.75,-969.0000000000001) translate(46.959999999999994 58.00000000000001)"/><use xlink:href="#bK" transform="matrix(1,0,0,1,1218.75,-969.0000000000001) translate(0 79.60000000000002)"/><use xlink:href="#bf" transform="matrix(1,0,0,1,1218.75,-969.0000000000001) translate(36.01 101.20000000000002)"/><use xlink:href="#bQ" transform="matrix(1,0,0,1,1218.75,-969.0000000000001) translate(46.959999999999994 101.20000000000002)"/><use xlink:href="#bn" transform="matrix(1,0,0,1,1218.75,-969.0000000000001) translate(93.96 101.20000000000002)"/><use xlink:href="#bH" transform="matrix(1,0,0,1,1218.75,-969.0000000000001) translate(36.01 122.80000000000001)"/><use xlink:href="#bg" transform="matrix(1,0,0,1,1218.75,-969.0000000000001) translate(46.959999999999994 122.80000000000001)"/><use xlink:href="#bR" transform="matrix(1,0,0,1,1218.75,-969.0000000000001) translate(117.76 122.80000000000001)"/><use xlink:href="#bH" transform="matrix(1,0,0,1,1218.75,-969.0000000000001) translate(36.01 144.4)"/><use xlink:href="#bi" transform="matrix(1,0,0,1,1218.75,-969.0000000000001) translate(46.959999999999994 144.4)"/><use xlink:href="#bS" transform="matrix(1,0,0,1,1218.75,-969.0000000000001) translate(133.86 144.4)"/></g><path d="M741-963.33h439.76" stroke="#fcc438" stroke-width="2" fill="none"/><path d="M741-962.33h-1v-2h1zM1195.76-963.33l-14.26 4.63v-9.27z" fill="#fcc438"/><path d="M1199-963.33l-18.5 6v-12.02zm-16.5 3.26l10.03-3.26-10.03-3.26z" fill="#fcc438"/><defs><path d="M67-125c0 53 21 87 73 88 37 1 54-22 65-47l45 17C233-25 199 4 140 4 58 4 20-42 15-125 8-235 124-281 211-232c18 10 29 29 36 50l-46 12c-8-25-30-41-62-41-52 0-71 34-72 86" id="bT"/><path d="M114-157C55-157 80-60 75 0H25v-261h50l-1 109c12-26 28-41 61-42 86-1 58 113 63 194h-50c-7-57 23-157-34-157" id="bU"/><path d="M133-34C117-15 103 5 69 4 32 3 11-16 11-54c-1-60 55-63 116-61 1-26-3-47-28-47-18 1-26 9-28 27l-52-2c7-38 36-58 82-57s74 22 75 68l1 82c-1 14 12 18 25 15v27c-30 8-71 5-69-32zm-48 3c29 0 43-24 42-57-32 0-66-3-65 30 0 17 8 27 23 27" id="bV"/><path d="M25-224v-37h50v37H25zM25 0v-190h50V0H25" id="bW"/><path d="M135-194c87-1 58 113 63 194h-50c-7-57 23-157-34-157-59 0-34 97-39 157H25l-1-190h47c2 12-1 28 3 38 12-26 28-41 61-42" id="bX"/><g id="a"><use transform="matrix(0.05,0,0,0.05,0,0)" xlink:href="#bT"/><use transform="matrix(0.05,0,0,0.05,12.950000000000001,0)" xlink:href="#bU"/><use transform="matrix(0.05,0,0,0.05,23.900000000000002,0)" xlink:href="#bV"/><use transform="matrix(0.05,0,0,0.05,33.900000000000006,0)" xlink:href="#bW"/><use transform="matrix(0.05,0,0,0.05,38.900000000000006,0)" xlink:href="#bX"/></g><path d="M182-130c37 4 62 22 62 59C244 23 116-4 24 0v-248c84 5 203-23 205 63 0 31-19 50-47 55zM76-148c40-3 101 13 101-30 0-44-60-28-101-31v61zm0 110c48-3 116 14 116-37 0-48-69-32-116-35v72" id="bY"/><use transform="matrix(0.05,0,0,0.05,0,0)" xlink:href="#bY" id="b"/><path d="M121-226c-27-7-43 5-38 36h38v33H83V0H34v-157H6v-33h28c-9-59 32-81 87-68v32" id="bZ"/><path d="M185-48c-13 30-37 53-82 52C43 2 14-33 14-96s30-98 90-98c62 0 83 45 84 108H66c0 31 8 55 39 56 18 0 30-7 34-22zm-45-69c5-46-57-63-70-21-2 6-4 13-4 21h74" id="ca"/><path d="M88-194c31-1 46 15 58 34l-1-101h50l1 261h-48c-2-10 0-23-3-31C134-8 116 4 84 4 32 4 16-41 15-95c0-56 19-97 73-99zm17 164c33 0 40-30 41-66 1-37-9-64-41-64s-38 30-39 65c0 43 13 65 39 65" id="cb"/><path d="M135-150c-39-12-60 13-60 57V0H25l-1-190h47c2 13-1 29 3 40 6-28 27-53 61-41v41" id="cc"/><path d="M115-3C79 11 28 4 28-45v-112H4v-33h27l15-45h31v45h36v33H77v99c-1 23 16 31 38 25v30" id="cd"/><path d="M110-194c64 0 96 36 96 99 0 64-35 99-97 99-61 0-95-36-95-99 0-62 34-99 96-99zm-1 164c35 0 45-28 45-65 0-40-10-65-43-65-34 0-45 26-45 65 0 36 10 65 43 65" id="ce"/><g id="c"><use transform="matrix(0.05,0,0,0.05,0,0)" xlink:href="#bZ"/><use transform="matrix(0.05,0,0,0.05,5.95,0)" xlink:href="#ca"/><use transform="matrix(0.05,0,0,0.05,15.949999999999998,0)" xlink:href="#cb"/><use transform="matrix(0.05,0,0,0.05,26.899999999999995,0)" xlink:href="#ca"/><use transform="matrix(0.05,0,0,0.05,36.9,0)" xlink:href="#cc"/><use transform="matrix(0.05,0,0,0.05,43.9,0)" xlink:href="#bV"/><use transform="matrix(0.05,0,0,0.05,53.900000000000006,0)" xlink:href="#cd"/><use transform="matrix(0.05,0,0,0.05,59.85,0)" xlink:href="#bW"/><use transform="matrix(0.05,0,0,0.05,64.85,0)" xlink:href="#ce"/><use transform="matrix(0.05,0,0,0.05,75.8,0)" xlink:href="#bX"/></g><path d="M220-157c-53 9-28 100-34 157h-49v-107c1-27-5-49-29-50C55-147 81-57 75 0H25l-1-190h47c2 12-1 28 3 38 10-53 101-56 108 0 13-22 24-43 59-42 82 1 51 116 57 194h-49v-107c-1-25-5-48-29-50" id="cf"/><path d="M85 4C-2 5 27-109 22-190h50c7 57-23 150 33 157 60-5 35-97 40-157h50l1 190h-47c-2-12 1-28-3-38-12 25-28 42-61 42" id="cg"/><path d="M25 0v-261h50V0H25" id="ch"/><path d="M137-138c1-29-70-34-71-4 15 46 118 7 119 86 1 83-164 76-172 9l43-7c4 19 20 25 44 25 33 8 57-30 24-41C81-84 22-81 20-136c-2-80 154-74 161-7" id="ci"/><path d="M195-6C206 82 75 100 31 46c-4-6-6-13-8-21l49-6c3 16 16 24 34 25 40 0 42-37 40-79-11 22-30 35-61 35-53 0-70-43-70-97 0-56 18-96 73-97 30 0 46 14 59 34l2-30h47zm-90-29c32 0 41-27 41-63 0-35-9-62-40-62-32 0-39 29-40 63 0 36 9 62 39 62" id="cj"/><g id="d"><use transform="matrix(0.05,0,0,0.05,0,0)" xlink:href="#cf"/><use transform="matrix(0.05,0,0,0.05,16,0)" xlink:href="#cg"/><use transform="matrix(0.05,0,0,0.05,26.950000000000003,0)" xlink:href="#ch"/><use transform="matrix(0.05,0,0,0.05,31.950000000000003,0)" xlink:href="#cd"/><use transform="matrix(0.05,0,0,0.05,37.900000000000006,0)" xlink:href="#bW"/><use transform="matrix(0.05,0,0,0.05,42.900000000000006,0)" xlink:href="#ci"/><use transform="matrix(0.05,0,0,0.05,52.900000000000006,0)" xlink:href="#bW"/><use transform="matrix(0.05,0,0,0.05,57.900000000000006,0)" xlink:href="#cj"/></g><path d="M135-194c52 0 70 43 70 98 0 56-19 99-73 100-30 1-46-15-58-35L72 0H24l1-261h50v104c11-23 29-37 60-37zM114-30c31 0 40-27 40-66 0-37-7-63-39-63s-41 28-41 65c0 36 8 64 40 64" id="ck"/><path d="M190-63c-7 42-38 67-86 67-59 0-84-38-90-98-12-110 154-137 174-36l-49 2c-2-19-15-32-35-32-30 0-35 28-38 64-6 74 65 87 74 30" id="cl"/><g id="e"><use transform="matrix(0.05,0,0,0.05,0,0)" xlink:href="#ck"/><use transform="matrix(0.05,0,0,0.05,10.950000000000001,0)" xlink:href="#bV"/><use transform="matrix(0.05,0,0,0.05,20.950000000000003,0)" xlink:href="#ch"/><use transform="matrix(0.05,0,0,0.05,25.950000000000003,0)" xlink:href="#bV"/><use transform="matrix(0.05,0,0,0.05,35.95,0)" xlink:href="#bX"/><use transform="matrix(0.05,0,0,0.05,46.900000000000006,0)" xlink:href="#cl"/><use transform="matrix(0.05,0,0,0.05,56.900000000000006,0)" xlink:href="#ca"/></g><path d="M84 4C-5 8 30-112 23-190h32v120c0 31 7 50 39 49 72-2 45-101 50-169h31l1 190h-30c-1-10 1-25-2-33-11 22-28 36-60 37" id="cm"/><path d="M59-47c-2 24 18 29 38 22v24C64 9 27 4 27-40v-127H5v-23h24l9-43h21v43h35v23H59v120" id="cn"/><path d="M141 0L90-78 38 0H4l68-98-65-92h35l48 74 47-74h35l-64 92 68 98h-35" id="co"/><path d="M100-194c62-1 85 37 85 99 1 63-27 99-86 99S16-35 15-95c0-66 28-99 85-99zM99-20c44 1 53-31 53-75 0-43-8-75-51-75s-53 32-53 75 10 74 51 75" id="cp"/><path d="M27 0v-27h64v-190l-56 39v-29l58-41h29v221h61V0H27" id="cq"/><g id="h"><use transform="matrix(0.05,0,0,0.05,0,0)" xlink:href="#cm"/><use transform="matrix(0.05,0,0,0.05,10,0)" xlink:href="#cn"/><use transform="matrix(0.05,0,0,0.05,15,0)" xlink:href="#co"/><use transform="matrix(0.05,0,0,0.05,24,0)" xlink:href="#cp"/><use transform="matrix(0.034999999999999996,0,0,0.034999999999999996,34,2.5199999999999996)" xlink:href="#cq"/></g><path d="M33-154v-36h34v36H33zM33 0v-36h34V0H33" id="cr"/><use transform="matrix(0.05,0,0,0.05,0,0)" xlink:href="#cr" id="i"/><path d="M115-194c53 0 69 39 70 98 0 66-23 100-70 100C84 3 66-7 56-30L54 0H23l1-261h32v101c10-23 28-34 59-34zm-8 174c40 0 45-34 45-75 0-40-5-75-45-74-42 0-51 32-51 76 0 43 10 73 51 73" id="cs"/><path d="M24 0v-261h32V0H24" id="ct"/><path d="M96-169c-40 0-48 33-48 73s9 75 48 75c24 0 41-14 43-38l32 2c-6 37-31 61-74 61-59 0-76-41-82-99-10-93 101-131 147-64 4 7 5 14 7 22l-32 3c-4-21-16-35-41-35" id="cu"/><path d="M143 0L79-87 56-68V0H24v-261h32v163l83-92h37l-77 82L181 0h-38" id="cv"/><g id="j"><use transform="matrix(0.05,0,0,0.05,0,0)" xlink:href="#cs"/><use transform="matrix(0.05,0,0,0.05,10,0)" xlink:href="#ct"/><use transform="matrix(0.05,0,0,0.05,13.949999999999998,0)" xlink:href="#cp"/><use transform="matrix(0.05,0,0,0.05,23.95,0)" xlink:href="#cu"/><use transform="matrix(0.05,0,0,0.05,32.95,0)" xlink:href="#cv"/></g><path d="M160-131c35 5 61 23 61 61C221 17 115-2 30 0v-248c76 3 177-17 177 60 0 33-19 50-47 57zm-97-11c50-1 110 9 110-42 0-47-63-36-110-37v79zm0 115c55-2 124 14 124-45 0-56-70-42-124-44v89" id="cw"/><path d="M68-38c1 34 0 65-14 84H32c9-13 17-26 17-46H33v-38h35" id="cx"/><g id="k"><use transform="matrix(0.05,0,0,0.05,0,0)" xlink:href="#cw"/><use transform="matrix(0.034999999999999996,0,0,0.034999999999999996,12,2.5199999999999996)" xlink:href="#cq"/><use transform="matrix(0.05,0,0,0.05,19,0)" xlink:href="#cx"/></g><path d="M108 0H70L1-190h34L89-25l56-165h34" id="cy"/><path d="M141-36C126-15 110 5 73 4 37 3 15-17 15-53c-1-64 63-63 125-63 3-35-9-54-41-54-24 1-41 7-42 31l-33-3c5-37 33-52 76-52 45 0 72 20 72 64v82c-1 20 7 32 28 27v20c-31 9-61-2-59-35zM48-53c0 20 12 33 32 33 41-3 63-29 60-74-43 2-92-5-92 41" id="cz"/><path d="M100-194c63 0 86 42 84 106H49c0 40 14 67 53 68 26 1 43-12 49-29l28 8c-11 28-37 45-77 45C44 4 14-33 15-96c1-61 26-98 85-98zm52 81c6-60-76-77-97-28-3 7-6 17-6 28h103" id="cA"/><g id="l"><use transform="matrix(0.05,0,0,0.05,0,0)" xlink:href="#cy"/><use transform="matrix(0.05,0,0,0.05,9,0)" xlink:href="#cz"/><use transform="matrix(0.05,0,0,0.05,19,0)" xlink:href="#ct"/><use transform="matrix(0.05,0,0,0.05,22.95,0)" xlink:href="#cm"/><use transform="matrix(0.05,0,0,0.05,32.95,0)" xlink:href="#cA"/></g><g id="m"><use transform="matrix(0.05,0,0,0.05,0,0)" xlink:href="#cm"/><use transform="matrix(0.034567901234567905,0,0,0.034567901234567905,10,2.488888888888889)" xlink:href="#cq"/></g><path d="M101-251c82-7 93 87 43 132L82-64C71-53 59-42 53-27h129V0H18c2-99 128-94 128-182 0-28-16-43-45-43s-46 15-49 41l-32-3c6-41 34-60 81-64" id="cB"/><g id="n"><use transform="matrix(0.05,0,0,0.05,0,0)" xlink:href="#cm"/><use transform="matrix(0.05,0,0,0.05,10,0)" xlink:href="#cn"/><use transform="matrix(0.05,0,0,0.05,15,0)" xlink:href="#co"/><use transform="matrix(0.05,0,0,0.05,24,0)" xlink:href="#cp"/><use transform="matrix(0.034999999999999996,0,0,0.034999999999999996,34,2.5199999999999996)" xlink:href="#cB"/></g><g id="o"><use transform="matrix(0.05,0,0,0.05,0,0)" xlink:href="#cw"/><use transform="matrix(0.034999999999999996,0,0,0.034999999999999996,12,2.5199999999999996)" xlink:href="#cB"/><use transform="matrix(0.05,0,0,0.05,19,0)" xlink:href="#cx"/></g><g id="p"><use transform="matrix(0.05,0,0,0.05,0,0)" xlink:href="#cm"/><use transform="matrix(0.034567901234567905,0,0,0.034567901234567905,10,2.488888888888889)" xlink:href="#cB"/></g><path d="M126-127c33 6 58 20 58 59 0 88-139 92-164 29-3-8-5-16-6-25l32-3c6 27 21 44 54 44 32 0 52-15 52-46 0-38-36-46-79-43v-28c39 1 72-4 72-42 0-27-17-43-46-43-28 0-47 15-49 41l-32-3c6-42 35-63 81-64 48-1 79 21 79 65 0 36-21 52-52 59" id="cC"/><g id="q"><use transform="matrix(0.05,0,0,0.05,0,0)" xlink:href="#cm"/><use transform="matrix(0.05,0,0,0.05,10,0)" xlink:href="#cn"/><use transform="matrix(0.05,0,0,0.05,15,0)" xlink:href="#co"/><use transform="matrix(0.05,0,0,0.05,24,0)" xlink:href="#cp"/><use transform="matrix(0.034999999999999996,0,0,0.034999999999999996,34,2.5199999999999996)" xlink:href="#cC"/></g><g id="r"><use transform="matrix(0.05,0,0,0.05,0,0)" xlink:href="#cw"/><use transform="matrix(0.034999999999999996,0,0,0.034999999999999996,12,2.5199999999999996)" xlink:href="#cC"/><use transform="matrix(0.05,0,0,0.05,19,0)" xlink:href="#cx"/></g><g id="s"><use transform="matrix(0.05,0,0,0.05,0,0)" xlink:href="#cm"/><use transform="matrix(0.034567901234567905,0,0,0.034567901234567905,10,2.488888888888889)" xlink:href="#cC"/></g><path d="M155-56V0h-30v-56H8v-25l114-167h33v167h35v25h-35zm-30-156c-27 46-58 90-88 131h88v-131" id="cD"/><g id="u"><use transform="matrix(0.05,0,0,0.05,0,0)" xlink:href="#cm"/><use transform="matrix(0.05,0,0,0.05,10,0)" xlink:href="#cn"/><use transform="matrix(0.05,0,0,0.05,15,0)" xlink:href="#co"/><use transform="matrix(0.05,0,0,0.05,24,0)" xlink:href="#cp"/><use transform="matrix(0.034999999999999996,0,0,0.034999999999999996,34,2.5199999999999996)" xlink:href="#cD"/></g><g id="v"><use transform="matrix(0.05,0,0,0.05,0,0)" xlink:href="#cw"/><use transform="matrix(0.034999999999999996,0,0,0.034999999999999996,12,2.5199999999999996)" xlink:href="#cD"/><use transform="matrix(0.05,0,0,0.05,19,0)" xlink:href="#cx"/></g><g id="w"><use transform="matrix(0.05,0,0,0.05,0,0)" xlink:href="#cm"/><use transform="matrix(0.034567901234567905,0,0,0.034567901234567905,10,2.488888888888889)" xlink:href="#cD"/></g><path d="M33 0v-38h34V0H33" id="cE"/><g id="x"><use transform="matrix(0.05,0,0,0.05,0,0)" xlink:href="#cE"/><use transform="matrix(0.05,0,0,0.05,5,0)" xlink:href="#cE"/><use transform="matrix(0.05,0,0,0.05,10,0)" xlink:href="#cE"/></g><path d="M24-231v-30h32v30H24zM24 0v-190h32V0H24" id="cF"/><g id="y"><use transform="matrix(0.05,0,0,0.05,0,0)" xlink:href="#cm"/><use transform="matrix(0.05,0,0,0.05,10,0)" xlink:href="#cn"/><use transform="matrix(0.05,0,0,0.05,15,0)" xlink:href="#co"/><use transform="matrix(0.05,0,0,0.05,24,0)" xlink:href="#cp"/><use transform="matrix(0.034999999999999996,0,0,0.034999999999999996,34,2.5199999999999996)" xlink:href="#cF"/></g><g id="z"><use transform="matrix(0.05,0,0,0.05,0,0)" xlink:href="#cw"/><use transform="matrix(0.034999999999999996,0,0,0.034999999999999996,12,2.5199999999999996)" xlink:href="#cF"/><use transform="matrix(0.05,0,0,0.05,14.765,0)" xlink:href="#cx"/></g><g id="A"><use transform="matrix(0.05,0,0,0.05,0,0)" xlink:href="#cm"/><use transform="matrix(0.034567901234567905,0,0,0.034567901234567905,10,2.488888888888889)" xlink:href="#cF"/></g><g id="B"><use transform="matrix(0.04938271604938272,0,0,0.04938271604938272,0,0)" xlink:href="#cE"/><use transform="matrix(0.04938271604938272,0,0,0.04938271604938272,4.938271604938272,0)" xlink:href="#cE"/><use transform="matrix(0.04938271604938272,0,0,0.04938271604938272,9.876543209876544,0)" xlink:href="#cE"/></g><path d="M144 0l-44-69L55 0H2l70-98-66-92h53l41 62 40-62h54l-67 91 71 99h-54" id="cG"/><g id="D"><use transform="matrix(0.05,0,0,0.05,0,0)" xlink:href="#cg"/><use transform="matrix(0.05,0,0,0.05,10.950000000000001,0)" xlink:href="#cd"/><use transform="matrix(0.05,0,0,0.05,16.900000000000002,0)" xlink:href="#cG"/><use transform="matrix(0.05,0,0,0.05,26.900000000000002,0)" xlink:href="#ce"/><use transform="matrix(0.05,0,0,0.05,37.85,0)" xlink:href="#ci"/></g><path d="M123 10C108 53 80 86 19 72V37c35 8 53-11 59-39L3-190h52l48 148c12-52 28-100 44-148h51" id="cH"/><g id="E"><use transform="matrix(0.05,0,0,0.05,0,0)" xlink:href="#ck"/><use transform="matrix(0.05,0,0,0.05,10.950000000000001,0)" xlink:href="#cH"/></g><g id="F"><use transform="matrix(0.05,0,0,0.05,0,0)" xlink:href="#cb"/><use transform="matrix(0.05,0,0,0.05,10.950000000000001,0)" xlink:href="#ca"/><use transform="matrix(0.05,0,0,0.05,20.950000000000003,0)" xlink:href="#ci"/><use transform="matrix(0.05,0,0,0.05,30.950000000000003,0)" xlink:href="#cl"/><use transform="matrix(0.05,0,0,0.05,40.95,0)" xlink:href="#ca"/><use transform="matrix(0.05,0,0,0.05,50.95,0)" xlink:href="#bX"/><use transform="matrix(0.05,0,0,0.05,61.900000000000006,0)" xlink:href="#cb"/><use transform="matrix(0.05,0,0,0.05,72.85000000000001,0)" xlink:href="#bW"/><use transform="matrix(0.05,0,0,0.05,77.85000000000001,0)" xlink:href="#bX"/><use transform="matrix(0.05,0,0,0.05,88.80000000000001,0)" xlink:href="#cj"/></g><g id="G"><use transform="matrix(0.05,0,0,0.05,0,0)" xlink:href="#cf"/><use transform="matrix(0.05,0,0,0.05,16,0)" xlink:href="#bV"/><use transform="matrix(0.05,0,0,0.05,26,0)" xlink:href="#cd"/><use transform="matrix(0.05,0,0,0.05,31.950000000000003,0)" xlink:href="#cg"/><use transform="matrix(0.05,0,0,0.05,42.9,0)" xlink:href="#cc"/><use transform="matrix(0.05,0,0,0.05,49.9,0)" xlink:href="#bW"/><use transform="matrix(0.05,0,0,0.05,54.900000000000006,0)" xlink:href="#cd"/><use transform="matrix(0.05,0,0,0.05,60.85,0)" xlink:href="#bW"/><use transform="matrix(0.05,0,0,0.05,65.85,0)" xlink:href="#ca"/><use transform="matrix(0.05,0,0,0.05,75.85,0)" xlink:href="#ci"/></g><g id="H"><use transform="matrix(0.05,0,0,0.05,0,0)" xlink:href="#bV"/><use transform="matrix(0.05,0,0,0.05,10,0)" xlink:href="#bX"/><use transform="matrix(0.05,0,0,0.05,20.950000000000003,0)" xlink:href="#cb"/></g><g id="I"><use transform="matrix(0.05,0,0,0.05,0,0)" xlink:href="#bV"/><use transform="matrix(0.05,0,0,0.05,10,0)" xlink:href="#ci"/><use transform="matrix(0.05,0,0,0.05,20,0)" xlink:href="#cl"/><use transform="matrix(0.05,0,0,0.05,30,0)" xlink:href="#ca"/><use transform="matrix(0.05,0,0,0.05,40,0)" xlink:href="#bX"/><use transform="matrix(0.05,0,0,0.05,50.95,0)" xlink:href="#cb"/><use transform="matrix(0.05,0,0,0.05,61.900000000000006,0)" xlink:href="#bW"/><use transform="matrix(0.05,0,0,0.05,66.9,0)" xlink:href="#bX"/><use transform="matrix(0.05,0,0,0.05,77.85000000000001,0)" xlink:href="#cj"/></g><g id="J"><use transform="matrix(0.05,0,0,0.05,0,0)" xlink:href="#cd"/><use transform="matrix(0.05,0,0,0.05,5.95,0)" xlink:href="#cc"/><use transform="matrix(0.05,0,0,0.05,12.949999999999998,0)" xlink:href="#bV"/><use transform="matrix(0.05,0,0,0.05,22.95,0)" xlink:href="#bX"/><use transform="matrix(0.05,0,0,0.05,33.9,0)" xlink:href="#ci"/><use transform="matrix(0.05,0,0,0.05,43.9,0)" xlink:href="#bV"/><use transform="matrix(0.05,0,0,0.05,53.900000000000006,0)" xlink:href="#cl"/><use transform="matrix(0.05,0,0,0.05,63.900000000000006,0)" xlink:href="#cd"/><use transform="matrix(0.05,0,0,0.05,69.85,0)" xlink:href="#bW"/><use transform="matrix(0.05,0,0,0.05,74.85,0)" xlink:href="#ce"/><use transform="matrix(0.05,0,0,0.05,85.8,0)" xlink:href="#bX"/></g><g id="K"><use transform="matrix(0.05,0,0,0.05,0,0)" xlink:href="#bW"/><use transform="matrix(0.05,0,0,0.05,5,0)" xlink:href="#bX"/><use transform="matrix(0.05,0,0,0.05,15.950000000000001,0)" xlink:href="#cb"/><use transform="matrix(0.05,0,0,0.05,26.900000000000002,0)" xlink:href="#ca"/><use transform="matrix(0.05,0,0,0.05,36.900000000000006,0)" xlink:href="#cG"/><use transform="matrix(0.05,0,0,0.05,46.900000000000006,0)" xlink:href="#ca"/><use transform="matrix(0.05,0,0,0.05,56.900000000000006,0)" xlink:href="#ci"/></g><g id="L"><use transform="matrix(0.06172839506172839,0,0,0.06172839506172839,0,0)" xlink:href="#bY"/><use transform="matrix(0.06172839506172839,0,0,0.06172839506172839,15.987654320987653,0)" xlink:href="#cg"/><use transform="matrix(0.06172839506172839,0,0,0.06172839506172839,29.50617283950617,0)" xlink:href="#bW"/><use transform="matrix(0.06172839506172839,0,0,0.06172839506172839,35.67901234567901,0)" xlink:href="#ch"/><use transform="matrix(0.06172839506172839,0,0,0.06172839506172839,41.851851851851855,0)" xlink:href="#cb"/></g><g id="M"><use transform="matrix(0.06172839506172839,0,0,0.06172839506172839,0,0)" xlink:href="#cd"/><use transform="matrix(0.06172839506172839,0,0,0.06172839506172839,7.345679012345679,0)" xlink:href="#bU"/><use transform="matrix(0.06172839506172839,0,0,0.06172839506172839,20.864197530864196,0)" xlink:href="#ca"/></g><g id="N"><use transform="matrix(0.06172839506172839,0,0,0.06172839506172839,0,0)" xlink:href="#cl"/><use transform="matrix(0.06172839506172839,0,0,0.06172839506172839,12.345679012345679,0)" xlink:href="#bU"/><use transform="matrix(0.06172839506172839,0,0,0.06172839506172839,25.864197530864196,0)" xlink:href="#bV"/><use transform="matrix(0.06172839506172839,0,0,0.06172839506172839,38.20987654320987,0)" xlink:href="#bW"/><use transform="matrix(0.06172839506172839,0,0,0.06172839506172839,44.382716049382715,0)" xlink:href="#bX"/></g><use transform="matrix(0.06172839506172839,0,0,0.06172839506172839,0,0)" xlink:href="#bY" id="O"/><g id="P"><use transform="matrix(0.06172839506172839,0,0,0.06172839506172839,0,0)" xlink:href="#cd"/><use transform="matrix(0.06172839506172839,0,0,0.06172839506172839,7.345679012345679,0)" xlink:href="#cc"/><use transform="matrix(0.06172839506172839,0,0,0.06172839506172839,15.987654320987653,0)" xlink:href="#bV"/><use transform="matrix(0.06172839506172839,0,0,0.06172839506172839,28.333333333333332,0)" xlink:href="#bX"/><use transform="matrix(0.06172839506172839,0,0,0.06172839506172839,41.85185185185185,0)" xlink:href="#ci"/><use transform="matrix(0.06172839506172839,0,0,0.06172839506172839,54.197530864197525,0)" xlink:href="#bV"/><use transform="matrix(0.06172839506172839,0,0,0.06172839506172839,66.5432098765432,0)" xlink:href="#cl"/><use transform="matrix(0.06172839506172839,0,0,0.06172839506172839,78.88888888888889,0)" xlink:href="#cd"/><use transform="matrix(0.06172839506172839,0,0,0.06172839506172839,86.23456790123457,0)" xlink:href="#bW"/><use transform="matrix(0.06172839506172839,0,0,0.06172839506172839,92.4074074074074,0)" xlink:href="#ce"/><use transform="matrix(0.06172839506172839,0,0,0.06172839506172839,105.92592592592592,0)" xlink:href="#bX"/><use transform="matrix(0.06172839506172839,0,0,0.06172839506172839,119.44444444444444,0)" xlink:href="#ci"/></g><path fill="#c92d39" d="M115-3C79 11 28 4 28-45v-112H4v-33h27l15-45h31v45h36v33H77v99c-1 23 16 31 38 25v30" id="cI"/><path fill="#c92d39" d="M144 0l-44-69L55 0H2l70-98-66-92h53l41 62 40-62h54l-67 91 71 99h-54" id="cJ"/><path fill="#c92d39" d="M23 0v-37h61v-169l-59 37v-38l62-41h46v211h57V0H23" id="cK"/><path fill="#c92d39" d="M62-158H24l-5-90h48" id="cL"/><g id="Q"><use transform="matrix(0.06172839506172839,0,0,0.06172839506172839,0,0)" xlink:href="#cI"/><use transform="matrix(0.06172839506172839,0,0,0.06172839506172839,7.345679012345679,0)" xlink:href="#cJ"/><use transform="matrix(0.043209876543209874,0,0,0.043209876543209874,19.691358024691358,3.1111111111111107)" xlink:href="#cK"/><use transform="matrix(0.06172839506172839,0,0,0.06172839506172839,28.333333333333332,0)" xlink:href="#cL"/></g><g id="R"><use transform="matrix(0.06172839506172839,0,0,0.06172839506172839,0,0)" xlink:href="#bV"/><use transform="matrix(0.06172839506172839,0,0,0.06172839506172839,12.345679012345679,0)" xlink:href="#bX"/><use transform="matrix(0.06172839506172839,0,0,0.06172839506172839,25.864197530864196,0)" xlink:href="#cb"/></g><path fill="#ef8d22" d="M115-3C79 11 28 4 28-45v-112H4v-33h27l15-45h31v45h36v33H77v99c-1 23 16 31 38 25v30" id="cM"/><path fill="#ef8d22" d="M144 0l-44-69L55 0H2l70-98-66-92h53l41 62 40-62h54l-67 91 71 99h-54" id="cN"/><path fill="#ef8d22" d="M182-182c0 78-84 86-111 141h115V0H12c-6-101 99-100 120-180 1-22-12-31-33-32-23 0-32 14-35 34l-49-3c5-45 32-70 84-70 51 0 83 22 83 69" id="cO"/><path fill="#ef8d22" d="M62-158H24l-5-90h48" id="cP"/><g id="S"><use transform="matrix(0.06172839506172839,0,0,0.06172839506172839,0,0)" xlink:href="#cM"/><use transform="matrix(0.06172839506172839,0,0,0.06172839506172839,7.345679012345679,0)" xlink:href="#cN"/><use transform="matrix(0.043209876543209874,0,0,0.043209876543209874,19.691358024691358,3.1111111111111107)" xlink:href="#cO"/><use transform="matrix(0.06172839506172839,0,0,0.06172839506172839,28.333333333333332,0)" xlink:href="#cP"/></g><path d="M33-261c38 41 65 92 65 168S71 34 33 75H2C39 34 66-17 66-93S39-220 2-261h31" id="cQ"/><g id="U"><use transform="matrix(0.04938271604938272,0,0,0.04938271604938272,0,0)" xlink:href="#cq"/><use transform="matrix(0.04938271604938272,0,0,0.04938271604938272,9.876543209876544,0)" xlink:href="#cQ"/></g><path d="M114-163C36-179 61-72 57 0H25l-1-190h30c1 12-1 29 2 39 6-27 23-49 58-41v29" id="cR"/><path d="M85-194c31 0 48 13 60 33l-1-100h32l1 261h-30c-2-10 0-23-3-31C134-8 116 4 85 4 32 4 16-35 15-94c0-66 23-100 70-100zm9 24c-40 0-46 34-46 75 0 40 6 74 45 74 42 0 51-32 51-76 0-42-9-74-50-73" id="cS"/><g id="V"><use transform="matrix(0.04938271604938272,0,0,0.04938271604938272,0,0)" xlink:href="#cp"/><use transform="matrix(0.04938271604938272,0,0,0.04938271604938272,9.876543209876544,0)" xlink:href="#cR"/><use transform="matrix(0.04938271604938272,0,0,0.04938271604938272,15.753086419753087,0)" xlink:href="#cS"/><use transform="matrix(0.04938271604938272,0,0,0.04938271604938272,25.629629629629633,0)" xlink:href="#cA"/><use transform="matrix(0.04938271604938272,0,0,0.04938271604938272,35.50617283950618,0)" xlink:href="#cR"/></g><path d="M117-194c89-4 53 116 60 194h-32v-121c0-31-8-49-39-48C34-167 62-67 57 0H25l-1-190h30c1 10-1 24 2 32 11-22 29-35 61-36" id="cT"/><path d="M135-143c-3-34-86-38-87 0 15 53 115 12 119 90S17 21 10-45l28-5c4 36 97 45 98 0-10-56-113-15-118-90-4-57 82-63 122-42 12 7 21 19 24 35" id="cU"/><g id="W"><use transform="matrix(0.04938271604938272,0,0,0.04938271604938272,0,0)" xlink:href="#cn"/><use transform="matrix(0.04938271604938272,0,0,0.04938271604938272,4.938271604938272,0)" xlink:href="#cR"/><use transform="matrix(0.04938271604938272,0,0,0.04938271604938272,10.814814814814817,0)" xlink:href="#cz"/><use transform="matrix(0.04938271604938272,0,0,0.04938271604938272,20.69135802469136,0)" xlink:href="#cT"/><use transform="matrix(0.04938271604938272,0,0,0.04938271604938272,30.567901234567906,0)" xlink:href="#cU"/><use transform="matrix(0.04938271604938272,0,0,0.04938271604938272,39.4567901234568,0)" xlink:href="#cz"/><use transform="matrix(0.04938271604938272,0,0,0.04938271604938272,49.33333333333334,0)" xlink:href="#cu"/><use transform="matrix(0.04938271604938272,0,0,0.04938271604938272,58.22222222222223,0)" xlink:href="#cn"/><use transform="matrix(0.04938271604938272,0,0,0.04938271604938272,63.1604938271605,0)" xlink:href="#cF"/><use transform="matrix(0.04938271604938272,0,0,0.04938271604938272,67.06172839506173,0)" xlink:href="#cp"/><use transform="matrix(0.04938271604938272,0,0,0.04938271604938272,76.93827160493828,0)" xlink:href="#cT"/><use transform="matrix(0.04938271604938272,0,0,0.04938271604938272,86.81481481481482,0)" xlink:href="#cU"/></g><path d="M115-194c55 1 70 41 70 98S169 2 115 4C84 4 66-9 55-30l1 105H24l-1-265h31l2 30c10-21 28-34 59-34zm-8 174c40 0 45-34 45-75s-6-73-45-74c-42 0-51 32-51 76 0 43 10 73 51 73" id="cV"/><path d="M106-169C34-169 62-67 57 0H25v-261h32l-1 103c12-21 28-36 61-36 89 0 53 116 60 194h-32v-121c2-32-8-49-39-48" id="cW"/><path d="M179-190L93 31C79 59 56 82 12 73V49c39 6 53-20 64-50L1-190h34L92-34l54-156h33" id="cX"/><g id="X"><use transform="matrix(0.04938271604938272,0,0,0.04938271604938272,0,0)" xlink:href="#cz"/><use transform="matrix(0.04938271604938272,0,0,0.04938271604938272,9.876543209876544,0)" xlink:href="#ct"/><use transform="matrix(0.04938271604938272,0,0,0.04938271604938272,13.777777777777779,0)" xlink:href="#cV"/><use transform="matrix(0.04938271604938272,0,0,0.04938271604938272,23.654320987654323,0)" xlink:href="#cW"/><use transform="matrix(0.04938271604938272,0,0,0.04938271604938272,33.53086419753087,0)" xlink:href="#cz"/><use transform="matrix(0.04938271604938272,0,0,0.04938271604938272,43.40740740740741,0)" xlink:href="#cs"/><use transform="matrix(0.04938271604938272,0,0,0.04938271604938272,53.283950617283956,0)" xlink:href="#cA"/><use transform="matrix(0.04938271604938272,0,0,0.04938271604938272,63.1604938271605,0)" xlink:href="#cn"/><use transform="matrix(0.04938271604938272,0,0,0.04938271604938272,68.09876543209877,0)" xlink:href="#cF"/><use transform="matrix(0.04938271604938272,0,0,0.04938271604938272,72.00000000000001,0)" xlink:href="#cu"/><use transform="matrix(0.04938271604938272,0,0,0.04938271604938272,80.8888888888889,0)" xlink:href="#cz"/><use transform="matrix(0.04938271604938272,0,0,0.04938271604938272,90.76543209876544,0)" xlink:href="#ct"/><use transform="matrix(0.04938271604938272,0,0,0.04938271604938272,94.66666666666669,0)" xlink:href="#ct"/><use transform="matrix(0.04938271604938272,0,0,0.04938271604938272,98.56790123456793,0)" xlink:href="#cX"/></g><g id="Y"><use transform="matrix(0.04938271604938272,0,0,0.04938271604938272,0,0)" xlink:href="#cs"/><use transform="matrix(0.04938271604938272,0,0,0.04938271604938272,9.876543209876544,0)" xlink:href="#cX"/></g><g id="Z"><use transform="matrix(0.04938271604938272,0,0,0.04938271604938272,0,0)" xlink:href="#cn"/><use transform="matrix(0.04938271604938272,0,0,0.04938271604938272,4.938271604938272,0)" xlink:href="#cR"/><use transform="matrix(0.04938271604938272,0,0,0.04938271604938272,10.814814814814817,0)" xlink:href="#cz"/><use transform="matrix(0.04938271604938272,0,0,0.04938271604938272,20.69135802469136,0)" xlink:href="#cT"/><use transform="matrix(0.04938271604938272,0,0,0.04938271604938272,30.567901234567906,0)" xlink:href="#cU"/><use transform="matrix(0.04938271604938272,0,0,0.04938271604938272,39.4567901234568,0)" xlink:href="#cz"/><use transform="matrix(0.04938271604938272,0,0,0.04938271604938272,49.33333333333334,0)" xlink:href="#cu"/><use transform="matrix(0.04938271604938272,0,0,0.04938271604938272,58.22222222222223,0)" xlink:href="#cn"/><use transform="matrix(0.04938271604938272,0,0,0.04938271604938272,63.1604938271605,0)" xlink:href="#cF"/><use transform="matrix(0.04938271604938272,0,0,0.04938271604938272,67.06172839506173,0)" xlink:href="#cp"/><use transform="matrix(0.04938271604938272,0,0,0.04938271604938272,76.93827160493828,0)" xlink:href="#cT"/></g><g id="aa"><use transform="matrix(0.04938271604938272,0,0,0.04938271604938272,0,0)" xlink:href="#cF"/><use transform="matrix(0.04938271604938272,0,0,0.04938271604938272,3.901234567901235,0)" xlink:href="#cS"/><use transform="matrix(0.04938271604938272,0,0,0.04938271604938272,13.777777777777779,0)" xlink:href="#cU"/><use transform="matrix(0.04938271604938272,0,0,0.04938271604938272,22.666666666666668,0)" xlink:href="#cx"/></g><g id="ab"><use transform="matrix(0.04938271604938272,0,0,0.04938271604938272,0,0)" xlink:href="#cW"/><use transform="matrix(0.04938271604938272,0,0,0.04938271604938272,9.876543209876544,0)" xlink:href="#cA"/><use transform="matrix(0.04938271604938272,0,0,0.04938271604938272,19.75308641975309,0)" xlink:href="#cR"/><use transform="matrix(0.04938271604938272,0,0,0.04938271604938272,25.629629629629633,0)" xlink:href="#cA"/></g><g id="ac"><use transform="matrix(0.04938271604938272,0,0,0.04938271604938272,0,0)" xlink:href="#cF"/><use transform="matrix(0.04938271604938272,0,0,0.04938271604938272,3.901234567901235,0)" xlink:href="#cS"/><use transform="matrix(0.034567901234567905,0,0,0.034567901234567905,13.777777777777779,2.488888888888889)" xlink:href="#cq"/></g><g id="ad"><use transform="matrix(0.04938271604938272,0,0,0.04938271604938272,0,0)" xlink:href="#cn"/><use transform="matrix(0.04938271604938272,0,0,0.04938271604938272,4.938271604938272,0)" xlink:href="#cW"/><use transform="matrix(0.04938271604938272,0,0,0.04938271604938272,14.814814814814817,0)" xlink:href="#cA"/><use transform="matrix(0.04938271604938272,0,0,0.04938271604938272,24.69135802469136,0)" xlink:href="#cT"/></g><g id="ae"><use transform="matrix(0.04938271604938272,0,0,0.04938271604938272,0,0)" xlink:href="#cF"/><use transform="matrix(0.04938271604938272,0,0,0.04938271604938272,3.901234567901235,0)" xlink:href="#cS"/><use transform="matrix(0.034567901234567905,0,0,0.034567901234567905,13.777777777777779,2.488888888888889)" xlink:href="#cB"/><use transform="matrix(0.04938271604938272,0,0,0.04938271604938272,20.69135802469136,0)" xlink:href="#cE"/></g><g id="af"><use transform="matrix(0.04938271604938272,0,0,0.04938271604938272,0,0)" xlink:href="#cB"/><use transform="matrix(0.04938271604938272,0,0,0.04938271604938272,9.876543209876544,0)" xlink:href="#cQ"/></g><g id="ag"><use transform="matrix(0.04938271604938272,0,0,0.04938271604938272,0,0)" xlink:href="#cs"/><use transform="matrix(0.04938271604938272,0,0,0.04938271604938272,9.876543209876544,0)" xlink:href="#cm"/><use transform="matrix(0.04938271604938272,0,0,0.04938271604938272,19.75308641975309,0)" xlink:href="#cF"/><use transform="matrix(0.04938271604938272,0,0,0.04938271604938272,23.654320987654323,0)" xlink:href="#ct"/><use transform="matrix(0.04938271604938272,0,0,0.04938271604938272,27.555555555555557,0)" xlink:href="#cS"/></g><path d="M47-170H22l-4-78h33" id="cY"/><g id="ah"><use transform="matrix(0.04938271604938272,0,0,0.04938271604938272,0,0)" xlink:href="#cn"/><use transform="matrix(0.04938271604938272,0,0,0.04938271604938272,4.938271604938272,0)" xlink:href="#co"/><use transform="matrix(0.034567901234567905,0,0,0.034567901234567905,13.827160493827162,2.488888888888889)" xlink:href="#cq"/><use transform="matrix(0.04938271604938272,0,0,0.04938271604938272,20.74074074074074,0)" xlink:href="#cY"/><use transform="matrix(0.04938271604938272,0,0,0.04938271604938272,24.098765432098766,0)" xlink:href="#cr"/></g><g id="ai"><use transform="matrix(0.04938271604938272,0,0,0.04938271604938272,0,0)" xlink:href="#cU"/><use transform="matrix(0.04938271604938272,0,0,0.04938271604938272,8.88888888888889,0)" xlink:href="#cA"/><use transform="matrix(0.04938271604938272,0,0,0.04938271604938272,18.765432098765434,0)" xlink:href="#ct"/><use transform="matrix(0.04938271604938272,0,0,0.04938271604938272,22.666666666666668,0)" xlink:href="#cA"/><use transform="matrix(0.04938271604938272,0,0,0.04938271604938272,32.543209876543216,0)" xlink:href="#cu"/><use transform="matrix(0.04938271604938272,0,0,0.04938271604938272,41.4320987654321,0)" xlink:href="#cn"/></g><path d="M177-190C167-65 218 103 67 71c-23-6-38-20-44-43l32-5c15 47 100 32 89-28v-30C133-14 115 1 83 1 29 1 15-40 15-95c0-56 16-97 71-98 29-1 48 16 59 35 1-10 0-23 2-32h30zM94-22c36 0 50-32 50-73 0-42-14-75-50-75-39 0-46 34-46 75s6 73 46 73" id="cZ"/><g id="aj"><use transform="matrix(0.04938271604938272,0,0,0.04938271604938272,0,0)" xlink:href="#cA"/><use transform="matrix(0.04938271604938272,0,0,0.04938271604938272,9.876543209876544,0)" xlink:href="#cT"/><use transform="matrix(0.04938271604938272,0,0,0.04938271604938272,19.75308641975309,0)" xlink:href="#cp"/><use transform="matrix(0.04938271604938272,0,0,0.04938271604938272,29.629629629629633,0)" xlink:href="#cm"/><use transform="matrix(0.04938271604938272,0,0,0.04938271604938272,39.50617283950618,0)" xlink:href="#cZ"/><use transform="matrix(0.04938271604938272,0,0,0.04938271604938272,49.38271604938272,0)" xlink:href="#cW"/></g><g id="ak"><use transform="matrix(0.04938271604938272,0,0,0.04938271604938272,0,0)" xlink:href="#cm"/><use transform="matrix(0.04938271604938272,0,0,0.04938271604938272,9.876543209876544,0)" xlink:href="#cn"/><use transform="matrix(0.04938271604938272,0,0,0.04938271604938272,14.814814814814817,0)" xlink:href="#co"/><use transform="matrix(0.04938271604938272,0,0,0.04938271604938272,23.703703703703706,0)" xlink:href="#cp"/></g><g id="al"><use transform="matrix(0.04938271604938272,0,0,0.04938271604938272,0,0)" xlink:href="#cn"/><use transform="matrix(0.04938271604938272,0,0,0.04938271604938272,4.938271604938272,0)" xlink:href="#cp"/></g><path d="M210-169c-67 3-38 105-44 169h-31v-121c0-29-5-50-35-48C34-165 62-65 56 0H25l-1-190h30c1 10-1 24 2 32 10-44 99-50 107 0 11-21 27-35 58-36 85-2 47 119 55 194h-31v-121c0-29-5-49-35-48" id="da"/><g id="am"><use transform="matrix(0.04938271604938272,0,0,0.04938271604938272,0,0)" xlink:href="#cU"/><use transform="matrix(0.04938271604938272,0,0,0.04938271604938272,8.88888888888889,0)" xlink:href="#cm"/><use transform="matrix(0.04938271604938272,0,0,0.04938271604938272,18.765432098765434,0)" xlink:href="#da"/></g><g id="an"><use transform="matrix(0.04938271604938272,0,0,0.04938271604938272,0,0)" xlink:href="#cm"/><use transform="matrix(0.04938271604938272,0,0,0.04938271604938272,9.876543209876544,0)" xlink:href="#cV"/></g><g id="ao"><use transform="matrix(0.04938271604938272,0,0,0.04938271604938272,0,0)" xlink:href="#cy"/><use transform="matrix(0.04938271604938272,0,0,0.04938271604938272,8.88888888888889,0)" xlink:href="#cz"/><use transform="matrix(0.04938271604938272,0,0,0.04938271604938272,18.765432098765434,0)" xlink:href="#ct"/><use transform="matrix(0.034567901234567905,0,0,0.034567901234567905,22.666666666666668,2.488888888888889)" xlink:href="#cq"/></g><g id="ap"><use transform="matrix(0.04938271604938272,0,0,0.04938271604938272,0,0)" xlink:href="#cm"/><use transform="matrix(0.034567901234567905,0,0,0.034567901234567905,9.876543209876544,2.488888888888889)" xlink:href="#cq"/></g><path d="M118-107v75H92v-75H18v-26h74v-75h26v75h74v26h-74" id="db"/><use transform="matrix(0.04938271604938272,0,0,0.04938271604938272,0,0)" xlink:href="#db" id="aq"/><g id="ar"><use transform="matrix(0.04938271604938272,0,0,0.04938271604938272,0,0)" xlink:href="#cm"/><use transform="matrix(0.034567901234567905,0,0,0.034567901234567905,9.876543209876544,2.488888888888889)" xlink:href="#cB"/></g><g id="as"><use transform="matrix(0.04938271604938272,0,0,0.04938271604938272,0,0)" xlink:href="#cm"/><use transform="matrix(0.034567901234567905,0,0,0.034567901234567905,9.876543209876544,2.488888888888889)" xlink:href="#cC"/></g><path d="M18-27v-27l151-64-151-65v-27l175 74v36" id="dc"/><path d="M18-150v-26h174v26H18zm0 90v-26h174v26H18" id="dd"/><g id="at"><use transform="matrix(0.04938271604938272,0,0,0.04938271604938272,0,0)" xlink:href="#dc"/><use transform="matrix(0.04938271604938272,0,0,0.04938271604938272,10.370370370370372,0)" xlink:href="#dd"/></g><g id="au"><use transform="matrix(0.04938271604938272,0,0,0.04938271604938272,0,0)" xlink:href="#cy"/><use transform="matrix(0.04938271604938272,0,0,0.04938271604938272,8.88888888888889,0)" xlink:href="#cz"/><use transform="matrix(0.04938271604938272,0,0,0.04938271604938272,18.765432098765434,0)" xlink:href="#ct"/><use transform="matrix(0.034567901234567905,0,0,0.034567901234567905,22.666666666666668,2.488888888888889)" xlink:href="#cq"/></g><g id="aw"><use transform="matrix(0.04938271604938272,0,0,0.04938271604938272,0,0)" xlink:href="#cC"/><use transform="matrix(0.04938271604938272,0,0,0.04938271604938272,9.876543209876544,0)" xlink:href="#cQ"/></g><g id="ax"><use transform="matrix(0.04938271604938272,0,0,0.04938271604938272,0,0)" xlink:href="#cn"/><use transform="matrix(0.04938271604938272,0,0,0.04938271604938272,4.938271604938272,0)" xlink:href="#cW"/><use transform="matrix(0.04938271604938272,0,0,0.04938271604938272,14.814814814814817,0)" xlink:href="#cA"/></g><g id="ay"><use transform="matrix(0.04938271604938272,0,0,0.04938271604938272,0,0)" xlink:href="#cu"/><use transform="matrix(0.04938271604938272,0,0,0.04938271604938272,8.88888888888889,0)" xlink:href="#cW"/><use transform="matrix(0.04938271604938272,0,0,0.04938271604938272,18.765432098765434,0)" xlink:href="#cz"/><use transform="matrix(0.04938271604938272,0,0,0.04938271604938272,28.641975308641978,0)" xlink:href="#cT"/><use transform="matrix(0.04938271604938272,0,0,0.04938271604938272,38.51851851851852,0)" xlink:href="#cZ"/><use transform="matrix(0.04938271604938272,0,0,0.04938271604938272,48.39506172839506,0)" xlink:href="#cA"/></g><g id="az"><use transform="matrix(0.04938271604938272,0,0,0.04938271604938272,0,0)" xlink:href="#cZ"/><use transform="matrix(0.04938271604938272,0,0,0.04938271604938272,9.876543209876544,0)" xlink:href="#cp"/><use transform="matrix(0.04938271604938272,0,0,0.04938271604938272,19.75308641975309,0)" xlink:href="#cA"/><use transform="matrix(0.04938271604938272,0,0,0.04938271604938272,29.629629629629633,0)" xlink:href="#cU"/></g><g id="aA"><use transform="matrix(0.04938271604938272,0,0,0.04938271604938272,0,0)" xlink:href="#cs"/><use transform="matrix(0.04938271604938272,0,0,0.04938271604938272,9.876543209876544,0)" xlink:href="#cz"/><use transform="matrix(0.04938271604938272,0,0,0.04938271604938272,19.75308641975309,0)" xlink:href="#cu"/><use transform="matrix(0.04938271604938272,0,0,0.04938271604938272,28.641975308641978,0)" xlink:href="#cv"/></g><g id="aB"><use transform="matrix(0.04938271604938272,0,0,0.04938271604938272,0,0)" xlink:href="#da"/><use transform="matrix(0.04938271604938272,0,0,0.04938271604938272,14.765432098765434,0)" xlink:href="#cm"/><use transform="matrix(0.04938271604938272,0,0,0.04938271604938272,24.641975308641978,0)" xlink:href="#ct"/><use transform="matrix(0.04938271604938272,0,0,0.04938271604938272,28.543209876543212,0)" xlink:href="#cn"/><use transform="matrix(0.04938271604938272,0,0,0.04938271604938272,33.48148148148148,0)" xlink:href="#cF"/><use transform="matrix(0.04938271604938272,0,0,0.04938271604938272,37.382716049382715,0)" xlink:href="#cU"/><use transform="matrix(0.04938271604938272,0,0,0.04938271604938272,46.27160493827161,0)" xlink:href="#cF"/><use transform="matrix(0.04938271604938272,0,0,0.04938271604938272,50.17283950617284,0)" xlink:href="#cZ"/></g><g id="aC"><use transform="matrix(0.04938271604938272,0,0,0.04938271604938272,0,0)" xlink:href="#cu"/><use transform="matrix(0.04938271604938272,0,0,0.04938271604938272,8.88888888888889,0)" xlink:href="#cW"/><use transform="matrix(0.04938271604938272,0,0,0.04938271604938272,18.765432098765434,0)" xlink:href="#cz"/><use transform="matrix(0.04938271604938272,0,0,0.04938271604938272,28.641975308641978,0)" xlink:href="#cT"/><use transform="matrix(0.04938271604938272,0,0,0.04938271604938272,38.51851851851852,0)" xlink:href="#cZ"/><use transform="matrix(0.04938271604938272,0,0,0.04938271604938272,48.39506172839506,0)" xlink:href="#cA"/><use transform="matrix(0.034567901234567905,0,0,0.034567901234567905,58.27160493827161,2.488888888888889)" xlink:href="#cq"/></g><use transform="matrix(0.04938271604938272,0,0,0.04938271604938272,0,0)" xlink:href="#dd" id="aD"/><g id="aE"><use transform="matrix(0.04938271604938272,0,0,0.04938271604938272,0,0)" xlink:href="#cm"/><use transform="matrix(0.034567901234567905,0,0,0.034567901234567905,9.876543209876544,2.488888888888889)" xlink:href="#cq"/></g><path d="M16-82v-28h88v28H16" id="de"/><use transform="matrix(0.04938271604938272,0,0,0.04938271604938272,0,0)" xlink:href="#de" id="aF"/><g id="aG"><use transform="matrix(0.04938271604938272,0,0,0.04938271604938272,0,0)" xlink:href="#cD"/><use transform="matrix(0.04938271604938272,0,0,0.04938271604938272,9.876543209876544,0)" xlink:href="#cQ"/></g><g id="aH"><use transform="matrix(0.04938271604938272,0,0,0.04938271604938272,0,0)" xlink:href="#cz"/><use transform="matrix(0.04938271604938272,0,0,0.04938271604938272,9.876543209876544,0)" xlink:href="#cS"/><use transform="matrix(0.04938271604938272,0,0,0.04938271604938272,19.75308641975309,0)" xlink:href="#cS"/></g><g id="aI"><use transform="matrix(0.04938271604938272,0,0,0.04938271604938272,0,0)" xlink:href="#cz"/><use transform="matrix(0.04938271604938272,0,0,0.04938271604938272,9.876543209876544,0)" xlink:href="#cT"/></g><path d="M140-251c81 0 123 46 123 126C263-46 219 4 140 4 59 4 17-45 17-125s42-126 123-126zm0 227c63 0 89-41 89-101s-29-99-89-99c-61 0-89 39-89 99S79-25 140-24" id="df"/><path d="M30-248c87 1 191-15 191 75 0 78-77 80-158 76V0H30v-248zm33 125c57 0 124 11 124-50 0-59-68-47-124-48v98" id="dg"/><path d="M-5 72V49h209v23H-5" id="dh"/><path d="M233-177c-1 41-23 64-60 70L243 0h-38l-65-103H63V0H30v-248c88 3 205-21 203 71zM63-129c60-2 137 13 137-47 0-61-80-42-137-45v92" id="di"/><path d="M30 0v-248h187v28H63v79h144v27H63v87h162V0H30" id="dj"/><path d="M127-220V0H93v-220H8v-28h204v28h-85" id="dk"/><path d="M232-93c-1 65-40 97-104 97C67 4 28-28 28-90v-158h33c8 89-33 224 67 224 102 0 64-133 71-224h33v155" id="dl"/><path d="M190 0L58-211 59 0H30v-248h39L202-35l-2-213h31V0h-41" id="dm"/><g id="aJ"><use transform="matrix(0.04938271604938272,0,0,0.04938271604938272,0,0)" xlink:href="#df"/><use transform="matrix(0.04938271604938272,0,0,0.04938271604938272,13.827160493827162,0)" xlink:href="#dg"/><use transform="matrix(0.04938271604938272,0,0,0.04938271604938272,25.679012345679016,0)" xlink:href="#dh"/><use transform="matrix(0.04938271604938272,0,0,0.04938271604938272,35.55555555555556,0)" xlink:href="#di"/><use transform="matrix(0.04938271604938272,0,0,0.04938271604938272,48.345679012345684,0)" xlink:href="#dj"/><use transform="matrix(0.04938271604938272,0,0,0.04938271604938272,60.19753086419754,0)" xlink:href="#dk"/><use transform="matrix(0.04938271604938272,0,0,0.04938271604938272,71.01234567901236,0)" xlink:href="#dl"/><use transform="matrix(0.04938271604938272,0,0,0.04938271604938272,83.80246913580248,0)" xlink:href="#di"/><use transform="matrix(0.04938271604938272,0,0,0.04938271604938272,96.59259259259261,0)" xlink:href="#dm"/></g><path d="M206 0h-36l-40-164L89 0H53L-1-190h32L70-26l43-164h34l41 164 42-164h31" id="dn"/><g id="aK"><use transform="matrix(0.04938271604938272,0,0,0.04938271604938272,0,0)" xlink:href="#dn"/><use transform="matrix(0.04938271604938272,0,0,0.04938271604938272,12.790123456790125,0)" xlink:href="#cF"/><use transform="matrix(0.04938271604938272,0,0,0.04938271604938272,16.69135802469136,0)" xlink:href="#cn"/><use transform="matrix(0.04938271604938272,0,0,0.04938271604938272,21.629629629629633,0)" xlink:href="#cW"/></g><g id="aL"><use transform="matrix(0.04938271604938272,0,0,0.04938271604938272,0,0)" xlink:href="#cF"/><use transform="matrix(0.04938271604938272,0,0,0.04938271604938272,3.901234567901235,0)" xlink:href="#cS"/><use transform="matrix(0.034567901234567905,0,0,0.034567901234567905,13.777777777777779,2.488888888888889)" xlink:href="#cq"/></g><g id="aM"><use transform="matrix(0.04938271604938272,0,0,0.04938271604938272,0,0)" xlink:href="#cz"/><use transform="matrix(0.04938271604938272,0,0,0.04938271604938272,9.876543209876544,0)" xlink:href="#cU"/></g><g id="aN"><use transform="matrix(0.04938271604938272,0,0,0.04938271604938272,0,0)" xlink:href="#cu"/><use transform="matrix(0.04938271604938272,0,0,0.04938271604938272,8.88888888888889,0)" xlink:href="#cp"/><use transform="matrix(0.04938271604938272,0,0,0.04938271604938272,18.765432098765434,0)" xlink:href="#cT"/><use transform="matrix(0.04938271604938272,0,0,0.04938271604938272,28.641975308641978,0)" xlink:href="#cn"/><use transform="matrix(0.04938271604938272,0,0,0.04938271604938272,33.580246913580254,0)" xlink:href="#cA"/><use transform="matrix(0.04938271604938272,0,0,0.04938271604938272,43.4567901234568,0)" xlink:href="#cT"/><use transform="matrix(0.04938271604938272,0,0,0.04938271604938272,53.333333333333336,0)" xlink:href="#cn"/></g><g id="aO"><use transform="matrix(0.04938271604938272,0,0,0.04938271604938272,0,0)" xlink:href="#cn"/><use transform="matrix(0.04938271604938272,0,0,0.04938271604938272,4.938271604938272,0)" xlink:href="#cp"/></g><g id="aP"><use transform="matrix(0.04938271604938272,0,0,0.04938271604938272,0,0)" xlink:href="#cn"/><use transform="matrix(0.04938271604938272,0,0,0.04938271604938272,4.938271604938272,0)" xlink:href="#co"/><use transform="matrix(0.034567901234567905,0,0,0.034567901234567905,13.827160493827162,2.488888888888889)" xlink:href="#cq"/></g><path d="M54-142c48-35 137-8 131 61C196 18 31 33 14-55l32-4c7 23 22 37 52 37 35-1 51-22 54-58 4-55-73-65-99-34H22l8-134h141v27H59" id="do"/><g id="aR"><use transform="matrix(0.04938271604938272,0,0,0.04938271604938272,0,0)" xlink:href="#do"/><use transform="matrix(0.04938271604938272,0,0,0.04938271604938272,9.876543209876544,0)" xlink:href="#cQ"/></g><g id="aS"><use transform="matrix(0.04938271604938272,0,0,0.04938271604938272,0,0)" xlink:href="#cs"/><use transform="matrix(0.04938271604938272,0,0,0.04938271604938272,9.876543209876544,0)" xlink:href="#cm"/><use transform="matrix(0.04938271604938272,0,0,0.04938271604938272,19.75308641975309,0)" xlink:href="#cF"/><use transform="matrix(0.04938271604938272,0,0,0.04938271604938272,23.654320987654323,0)" xlink:href="#ct"/><use transform="matrix(0.04938271604938272,0,0,0.04938271604938272,27.555555555555557,0)" xlink:href="#cS"/></g><g id="aT"><use transform="matrix(0.04938271604938272,0,0,0.04938271604938272,0,0)" xlink:href="#cn"/><use transform="matrix(0.04938271604938272,0,0,0.04938271604938272,4.938271604938272,0)" xlink:href="#co"/><use transform="matrix(0.034567901234567905,0,0,0.034567901234567905,13.827160493827162,2.488888888888889)" xlink:href="#cB"/><use transform="matrix(0.04938271604938272,0,0,0.04938271604938272,20.74074074074074,0)" xlink:href="#cY"/><use transform="matrix(0.04938271604938272,0,0,0.04938271604938272,24.098765432098766,0)" xlink:href="#cr"/></g><g id="aU"><use transform="matrix(0.04938271604938272,0,0,0.04938271604938272,0,0)" xlink:href="#cm"/><use transform="matrix(0.034567901234567905,0,0,0.034567901234567905,9.876543209876544,2.488888888888889)" xlink:href="#cD"/></g><g id="aV"><use transform="matrix(0.04938271604938272,0,0,0.04938271604938272,0,0)" xlink:href="#cy"/><use transform="matrix(0.04938271604938272,0,0,0.04938271604938272,8.88888888888889,0)" xlink:href="#cz"/><use transform="matrix(0.04938271604938272,0,0,0.04938271604938272,18.765432098765434,0)" xlink:href="#ct"/><use transform="matrix(0.034567901234567905,0,0,0.034567901234567905,22.666666666666668,2.488888888888889)" xlink:href="#cB"/></g><path d="M110-160c48 1 74 30 74 79 0 53-28 85-80 85-65 0-83-55-86-122-5-90 50-162 133-122 14 7 22 21 27 39l-31 6c-5-40-67-38-82-6-9 19-15 44-15 74 11-20 30-34 60-33zm-7 138c34 0 49-23 49-58s-16-56-50-56c-29 0-50 16-49 49 1 36 15 65 50 65" id="dp"/><g id="aW"><use transform="matrix(0.04938271604938272,0,0,0.04938271604938272,0,0)" xlink:href="#dp"/><use transform="matrix(0.04938271604938272,0,0,0.04938271604938272,9.876543209876544,0)" xlink:href="#cQ"/></g><g id="aX"><use transform="matrix(0.04938271604938272,0,0,0.04938271604938272,0,0)" xlink:href="#cA"/><use transform="matrix(0.04938271604938272,0,0,0.04938271604938272,9.876543209876544,0)" xlink:href="#cn"/><use transform="matrix(0.04938271604938272,0,0,0.04938271604938272,14.814814814814817,0)" xlink:href="#cu"/></g><g id="aY"><use transform="matrix(0.04938271604938272,0,0,0.04938271604938272,0,0)" xlink:href="#cE"/><use transform="matrix(0.04938271604938272,0,0,0.04938271604938272,4.938271604938272,0)" xlink:href="#cE"/><use transform="matrix(0.04938271604938272,0,0,0.04938271604938272,9.876543209876544,0)" xlink:href="#cE"/></g><g id="aZ"><use transform="matrix(0.05,0,0,0.05,0,0)" xlink:href="#cw"/><use transform="matrix(0.05,0,0,0.05,12,0)" xlink:href="#ct"/><use transform="matrix(0.05,0,0,0.05,15.949999999999998,0)" xlink:href="#cp"/><use transform="matrix(0.05,0,0,0.05,25.950000000000003,0)" xlink:href="#cu"/><use transform="matrix(0.05,0,0,0.05,34.95,0)" xlink:href="#cv"/></g><use transform="matrix(0.05,0,0,0.05,0,0)" xlink:href="#cF" id="ba"/><use transform="matrix(0.05,0,0,0.05,0,0)" xlink:href="#de" id="bc"/><g id="bd"><use transform="matrix(0.05,0,0,0.05,0,0)" xlink:href="#cn"/><use transform="matrix(0.05,0,0,0.05,5,0)" xlink:href="#co"/><use transform="matrix(0.034999999999999996,0,0,0.034999999999999996,14,2.5199999999999996)" xlink:href="#cq"/><use transform="matrix(0.05,0,0,0.05,21,0)" xlink:href="#cr"/></g><g id="be"><use transform="matrix(0.05,0,0,0.05,0,0)" xlink:href="#cF"/><use transform="matrix(0.05,0,0,0.05,3.95,0)" xlink:href="#cS"/><use transform="matrix(0.034999999999999996,0,0,0.034999999999999996,13.95,2.5199999999999996)" xlink:href="#cq"/></g><use transform="matrix(0.05,0,0,0.05,0,0)" xlink:href="#de" id="bf"/><g id="bg"><use transform="matrix(0.05,0,0,0.05,0,0)" xlink:href="#da"/><use transform="matrix(0.05,0,0,0.05,14.950000000000001,0)" xlink:href="#cm"/><use transform="matrix(0.05,0,0,0.05,24.950000000000003,0)" xlink:href="#ct"/><use transform="matrix(0.05,0,0,0.05,28.900000000000002,0)" xlink:href="#cn"/><use transform="matrix(0.05,0,0,0.05,33.900000000000006,0)" xlink:href="#cF"/><use transform="matrix(0.05,0,0,0.05,37.85000000000001,0)" xlink:href="#cU"/><use transform="matrix(0.05,0,0,0.05,46.85000000000001,0)" xlink:href="#cF"/><use transform="matrix(0.05,0,0,0.05,50.80000000000001,0)" xlink:href="#cZ"/><use transform="matrix(0.05,0,0,0.05,60.80000000000001,0)" xlink:href="#cr"/></g><g id="bh"><use transform="matrix(0.05,0,0,0.05,0,0)" xlink:href="#cy"/><use transform="matrix(0.05,0,0,0.05,9,0)" xlink:href="#cz"/><use transform="matrix(0.05,0,0,0.05,19,0)" xlink:href="#ct"/><use transform="matrix(0.034999999999999996,0,0,0.034999999999999996,22.95,2.5199999999999996)" xlink:href="#cq"/></g><g id="bi"><use transform="matrix(0.05,0,0,0.05,0,0)" xlink:href="#cp"/><use transform="matrix(0.05,0,0,0.05,10,0)" xlink:href="#cV"/><use transform="matrix(0.05,0,0,0.05,20,0)" xlink:href="#dh"/><use transform="matrix(0.05,0,0,0.05,30,0)" xlink:href="#cR"/><use transform="matrix(0.05,0,0,0.05,35.95,0)" xlink:href="#cA"/><use transform="matrix(0.05,0,0,0.05,45.95,0)" xlink:href="#cn"/><use transform="matrix(0.05,0,0,0.05,50.95,0)" xlink:href="#cm"/><use transform="matrix(0.05,0,0,0.05,60.95,0)" xlink:href="#cR"/><use transform="matrix(0.05,0,0,0.05,66.9,0)" xlink:href="#cT"/><use transform="matrix(0.05,0,0,0.05,76.9,0)" xlink:href="#cr"/></g><g id="bj"><use transform="matrix(0.05,0,0,0.05,0,0)" xlink:href="#cz"/><use transform="matrix(0.05,0,0,0.05,10,0)" xlink:href="#cS"/><use transform="matrix(0.05,0,0,0.05,20,0)" xlink:href="#cS"/><use transform="matrix(0.034999999999999996,0,0,0.034999999999999996,30,2.5199999999999996)" xlink:href="#cq"/></g><g id="bk"><use transform="matrix(0.05,0,0,0.05,0,0)" xlink:href="#cn"/><use transform="matrix(0.05,0,0,0.05,5,0)" xlink:href="#co"/><use transform="matrix(0.034999999999999996,0,0,0.034999999999999996,14,2.5199999999999996)" xlink:href="#cB"/><use transform="matrix(0.05,0,0,0.05,21,0)" xlink:href="#cr"/></g><g id="bl"><use transform="matrix(0.05,0,0,0.05,0,0)" xlink:href="#cF"/><use transform="matrix(0.05,0,0,0.05,3.95,0)" xlink:href="#cS"/><use transform="matrix(0.034999999999999996,0,0,0.034999999999999996,13.95,2.5199999999999996)" xlink:href="#cB"/></g><g id="bm"><use transform="matrix(0.05,0,0,0.05,0,0)" xlink:href="#de"/><use transform="matrix(0.05,0,0,0.05,5.95,0)" xlink:href="#da"/><use transform="matrix(0.05,0,0,0.05,20.900000000000002,0)" xlink:href="#cm"/><use transform="matrix(0.05,0,0,0.05,30.900000000000002,0)" xlink:href="#ct"/><use transform="matrix(0.05,0,0,0.05,34.85,0)" xlink:href="#cn"/><use transform="matrix(0.05,0,0,0.05,39.85,0)" xlink:href="#cF"/><use transform="matrix(0.05,0,0,0.05,43.800000000000004,0)" xlink:href="#cU"/><use transform="matrix(0.05,0,0,0.05,52.800000000000004,0)" xlink:href="#cF"/><use transform="matrix(0.05,0,0,0.05,56.75,0)" xlink:href="#cZ"/><use transform="matrix(0.05,0,0,0.05,66.75,0)" xlink:href="#cr"/></g><g id="bn"><use transform="matrix(0.05,0,0,0.05,0,0)" xlink:href="#cy"/><use transform="matrix(0.05,0,0,0.05,9,0)" xlink:href="#cz"/><use transform="matrix(0.05,0,0,0.05,19,0)" xlink:href="#ct"/><use transform="matrix(0.034999999999999996,0,0,0.034999999999999996,22.95,2.5199999999999996)" xlink:href="#cB"/></g><g id="bo"><use transform="matrix(0.05,0,0,0.05,0,0)" xlink:href="#cz"/><use transform="matrix(0.05,0,0,0.05,10,0)" xlink:href="#cS"/><use transform="matrix(0.05,0,0,0.05,20,0)" xlink:href="#cS"/><use transform="matrix(0.034999999999999996,0,0,0.034999999999999996,30,2.5199999999999996)" xlink:href="#cB"/></g><path d="M212-179c-10-28-35-45-73-45-59 0-87 40-87 99 0 60 29 101 89 101 43 0 62-24 78-52l27 14C228-24 195 4 139 4 59 4 22-46 18-125c-6-104 99-153 187-111 19 9 31 26 39 46" id="dq"/><g id="bp"><use transform="matrix(0.05,0,0,0.05,0,0)" xlink:href="#dq"/><use transform="matrix(0.05,0,0,0.05,12.950000000000001,0)" xlink:href="#cW"/><use transform="matrix(0.05,0,0,0.05,22.950000000000003,0)" xlink:href="#cz"/><use transform="matrix(0.05,0,0,0.05,32.95,0)" xlink:href="#cF"/><use transform="matrix(0.05,0,0,0.05,36.900000000000006,0)" xlink:href="#cT"/></g><path d="M205 0l-28-72H64L36 0H1l101-248h38L239 0h-34zm-38-99l-47-123c-12 45-31 82-46 123h93" id="dr"/><use transform="matrix(0.05,0,0,0.05,0,0)" xlink:href="#dr" id="bq"/><g id="br"><use transform="matrix(0.05,0,0,0.05,0,0)" xlink:href="#cT"/><use transform="matrix(0.05,0,0,0.05,10,0)" xlink:href="#cp"/><use transform="matrix(0.05,0,0,0.05,20,0)" xlink:href="#cS"/><use transform="matrix(0.05,0,0,0.05,30,0)" xlink:href="#cA"/></g><use transform="matrix(0.05,0,0,0.05,0,0)" xlink:href="#cw" id="bs"/><g id="bt"><use transform="matrix(0.05,0,0,0.05,0,0)" xlink:href="#cw"/><use transform="matrix(0.05,0,0,0.05,12,0)" xlink:href="#ct"/><use transform="matrix(0.05,0,0,0.05,15.949999999999998,0)" xlink:href="#cp"/><use transform="matrix(0.05,0,0,0.05,25.950000000000003,0)" xlink:href="#cu"/><use transform="matrix(0.05,0,0,0.05,34.95,0)" xlink:href="#cv"/></g><use transform="matrix(0.05,0,0,0.05,0,0)" xlink:href="#cF" id="bu"/><use transform="matrix(0.05,0,0,0.05,0,0)" xlink:href="#de" id="bv"/><g id="bw"><use transform="matrix(0.05,0,0,0.05,0,0)" xlink:href="#cn"/><use transform="matrix(0.05,0,0,0.05,5,0)" xlink:href="#co"/><use transform="matrix(0.034999999999999996,0,0,0.034999999999999996,14,2.5199999999999996)" xlink:href="#cq"/></g><g id="bx"><use transform="matrix(0.04320987654320988,0,0,0.04320987654320988,0,0)" xlink:href="#da"/><use transform="matrix(0.04320987654320988,0,0,0.04320987654320988,12.919753086419755,0)" xlink:href="#cz"/><use transform="matrix(0.04320987654320988,0,0,0.04320987654320988,21.56172839506173,0)" xlink:href="#co"/><use transform="matrix(0.04320987654320988,0,0,0.04320987654320988,29.33950617283951,0)" xlink:href="#di"/><use transform="matrix(0.04320987654320988,0,0,0.04320987654320988,40.53086419753087,0)" xlink:href="#cA"/><use transform="matrix(0.04320987654320988,0,0,0.04320987654320988,49.17283950617284,0)" xlink:href="#cp"/><use transform="matrix(0.04320987654320988,0,0,0.04320987654320988,57.814814814814824,0)" xlink:href="#cR"/><use transform="matrix(0.04320987654320988,0,0,0.04320987654320988,62.956790123456784,0)" xlink:href="#cZ"/><use transform="matrix(0.030246913580246913,0,0,0.030246913580246913,71.59876543209877,2.1777777777777776)" xlink:href="#dr"/></g><use transform="matrix(0.04320987654320988,0,0,0.04320987654320988,0,0)" xlink:href="#db" id="by"/><use transform="matrix(0.04320987654320988,0,0,0.04320987654320988,0,0)" xlink:href="#cq" id="bz"/><g id="bA"><use transform="matrix(0.05,0,0,0.05,0,0)" xlink:href="#cn"/><use transform="matrix(0.05,0,0,0.05,5,0)" xlink:href="#co"/><use transform="matrix(0.034999999999999996,0,0,0.034999999999999996,14,2.5199999999999996)" xlink:href="#cB"/></g><path d="M23 0v-37h61v-169l-59 37v-38l62-41h46v211h57V0H23" id="ds"/><path d="M62-158H24l-5-90h48" id="dt"/><g id="bB"><use transform="matrix(0.05,0,0,0.05,0,0)" xlink:href="#cd"/><use transform="matrix(0.05,0,0,0.05,5.95,0)" xlink:href="#cG"/><use transform="matrix(0.034999999999999996,0,0,0.034999999999999996,15.95,2.5199999999999996)" xlink:href="#ds"/><use transform="matrix(0.05,0,0,0.05,22.95,0)" xlink:href="#dt"/></g><path d="M125-100v72H85v-72H15v-39h70v-72h40v72h71v39h-71" id="du"/><use transform="matrix(0.05,0,0,0.05,0,0)" xlink:href="#du" id="bC"/><path d="M76-208v77h127v40H76V0H24v-248h183v40H76" id="dv"/><path d="M230 0l2-204L168 0h-37L68-204 70 0H24v-248h70l56 185 57-185h69V0h-46" id="dw"/><g id="bD"><use transform="matrix(0.05,0,0,0.05,0,0)" xlink:href="#dv"/><use transform="matrix(0.05,0,0,0.05,10.950000000000001,0)" xlink:href="#dw"/></g><g id="bE"><use transform="matrix(0.05,0,0,0.05,0,0)" xlink:href="#ci"/><use transform="matrix(0.05,0,0,0.05,10,0)" xlink:href="#bW"/><use transform="matrix(0.05,0,0,0.05,15,0)" xlink:href="#cj"/><use transform="matrix(0.05,0,0,0.05,25.950000000000003,0)" xlink:href="#bX"/><use transform="matrix(0.05,0,0,0.05,36.900000000000006,0)" xlink:href="#bV"/><use transform="matrix(0.05,0,0,0.05,46.900000000000006,0)" xlink:href="#cd"/><use transform="matrix(0.05,0,0,0.05,52.85,0)" xlink:href="#cg"/><use transform="matrix(0.05,0,0,0.05,63.80000000000001,0)" xlink:href="#cc"/><use transform="matrix(0.05,0,0,0.05,70.80000000000001,0)" xlink:href="#ca"/></g><path d="M87 75C49 33 22-17 22-94c0-76 28-126 65-167h31c-38 41-64 92-64 168S80 34 118 75H87" id="dx"/><g id="bF"><use transform="matrix(0.05,0,0,0.05,0,0)" xlink:href="#dx"/><use transform="matrix(0.05,0,0,0.05,5.95,0)" xlink:href="#cF"/><use transform="matrix(0.05,0,0,0.05,9.9,0)" xlink:href="#cT"/><use transform="matrix(0.05,0,0,0.05,19.9,0)" xlink:href="#cV"/><use transform="matrix(0.05,0,0,0.05,29.899999999999995,0)" xlink:href="#cm"/><use transform="matrix(0.05,0,0,0.05,39.9,0)" xlink:href="#cn"/><use transform="matrix(0.05,0,0,0.05,44.9,0)" xlink:href="#cU"/><use transform="matrix(0.05,0,0,0.05,53.900000000000006,0)" xlink:href="#cQ"/></g><g id="bG"><use transform="matrix(0.05,0,0,0.05,0,0)" xlink:href="#cm"/><use transform="matrix(0.05,0,0,0.05,10,0)" xlink:href="#cn"/><use transform="matrix(0.05,0,0,0.05,15,0)" xlink:href="#co"/><use transform="matrix(0.05,0,0,0.05,24,0)" xlink:href="#cp"/><use transform="matrix(0.034999999999999996,0,0,0.034999999999999996,34,2.5199999999999996)" xlink:href="#cq"/></g><use transform="matrix(0.05,0,0,0.05,0,0)" xlink:href="#de" id="bH"/><g id="bI"><use transform="matrix(0.05,0,0,0.05,0,0)" xlink:href="#cm"/><use transform="matrix(0.05,0,0,0.05,10,0)" xlink:href="#cn"/><use transform="matrix(0.05,0,0,0.05,15,0)" xlink:href="#co"/><use transform="matrix(0.05,0,0,0.05,24,0)" xlink:href="#cp"/><use transform="matrix(0.034999999999999996,0,0,0.034999999999999996,34,2.5199999999999996)" xlink:href="#cB"/></g><g id="bJ"><use transform="matrix(0.05,0,0,0.05,0,0)" xlink:href="#cm"/><use transform="matrix(0.05,0,0,0.05,10,0)" xlink:href="#cn"/><use transform="matrix(0.05,0,0,0.05,15,0)" xlink:href="#co"/><use transform="matrix(0.05,0,0,0.05,24,0)" xlink:href="#cp"/><use transform="matrix(0.034999999999999996,0,0,0.034999999999999996,34,2.5199999999999996)" xlink:href="#cC"/></g><g id="bK"><use transform="matrix(0.05,0,0,0.05,0,0)" xlink:href="#dx"/><use transform="matrix(0.05,0,0,0.05,5.95,0)" xlink:href="#cp"/><use transform="matrix(0.05,0,0,0.05,15.949999999999998,0)" xlink:href="#cm"/><use transform="matrix(0.05,0,0,0.05,25.950000000000003,0)" xlink:href="#cn"/><use transform="matrix(0.05,0,0,0.05,30.950000000000003,0)" xlink:href="#cV"/><use transform="matrix(0.05,0,0,0.05,40.95,0)" xlink:href="#cm"/><use transform="matrix(0.05,0,0,0.05,50.95,0)" xlink:href="#cn"/><use transform="matrix(0.05,0,0,0.05,55.95,0)" xlink:href="#cU"/><use transform="matrix(0.05,0,0,0.05,64.95,0)" xlink:href="#cQ"/></g><g id="bL"><use transform="matrix(0.05,0,0,0.05,0,0)" xlink:href="#cz"/><use transform="matrix(0.05,0,0,0.05,10,0)" xlink:href="#cS"/><use transform="matrix(0.05,0,0,0.05,20,0)" xlink:href="#cS"/><use transform="matrix(0.034999999999999996,0,0,0.034999999999999996,30,2.5199999999999996)" xlink:href="#cq"/><use transform="matrix(0.05,0,0,0.05,37,0)" xlink:href="#cr"/></g><g id="bM"><use transform="matrix(0.05,0,0,0.05,0,0)" xlink:href="#cu"/><use transform="matrix(0.05,0,0,0.05,9,0)" xlink:href="#cW"/><use transform="matrix(0.05,0,0,0.05,19,0)" xlink:href="#cz"/><use transform="matrix(0.05,0,0,0.05,29,0)" xlink:href="#cT"/><use transform="matrix(0.05,0,0,0.05,39,0)" xlink:href="#cZ"/><use transform="matrix(0.05,0,0,0.05,49,0)" xlink:href="#cA"/><use transform="matrix(0.034999999999999996,0,0,0.034999999999999996,58.99999999999999,2.5199999999999996)" xlink:href="#cq"/></g><g id="bN"><use transform="matrix(0.05,0,0,0.05,0,0)" xlink:href="#cF"/><use transform="matrix(0.05,0,0,0.05,3.95,0)" xlink:href="#cS"/><use transform="matrix(0.034999999999999996,0,0,0.034999999999999996,13.95,2.5199999999999996)" xlink:href="#cq"/></g><path d="M182-182c0 78-84 86-111 141h115V0H12c-6-101 99-100 120-180 1-22-12-31-33-32-23 0-32 14-35 34l-49-3c5-45 32-70 84-70 51 0 83 22 83 69" id="dy"/><g id="bO"><use transform="matrix(0.05,0,0,0.05,0,0)" xlink:href="#cd"/><use transform="matrix(0.05,0,0,0.05,5.95,0)" xlink:href="#cG"/><use transform="matrix(0.034999999999999996,0,0,0.034999999999999996,15.95,2.5199999999999996)" xlink:href="#dy"/><use transform="matrix(0.05,0,0,0.05,22.95,0)" xlink:href="#dt"/></g><g id="bP"><use transform="matrix(0.05,0,0,0.05,0,0)" xlink:href="#cm"/><use transform="matrix(0.05,0,0,0.05,10,0)" xlink:href="#cn"/><use transform="matrix(0.05,0,0,0.05,15,0)" xlink:href="#co"/><use transform="matrix(0.05,0,0,0.05,24,0)" xlink:href="#cp"/><use transform="matrix(0.034999999999999996,0,0,0.034999999999999996,34,2.5199999999999996)" xlink:href="#cD"/></g><g id="bQ"><use transform="matrix(0.05,0,0,0.05,0,0)" xlink:href="#cz"/><use transform="matrix(0.05,0,0,0.05,10,0)" xlink:href="#cS"/><use transform="matrix(0.05,0,0,0.05,20,0)" xlink:href="#cS"/><use transform="matrix(0.034999999999999996,0,0,0.034999999999999996,30,2.5199999999999996)" xlink:href="#cB"/><use transform="matrix(0.05,0,0,0.05,37,0)" xlink:href="#cr"/></g><g id="bR"><use transform="matrix(0.05,0,0,0.05,0,0)" xlink:href="#cu"/><use transform="matrix(0.05,0,0,0.05,9,0)" xlink:href="#cW"/><use transform="matrix(0.05,0,0,0.05,19,0)" xlink:href="#cz"/><use transform="matrix(0.05,0,0,0.05,29,0)" xlink:href="#cT"/><use transform="matrix(0.05,0,0,0.05,39,0)" xlink:href="#cZ"/><use transform="matrix(0.05,0,0,0.05,49,0)" xlink:href="#cA"/><use transform="matrix(0.034999999999999996,0,0,0.034999999999999996,58.99999999999999,2.5199999999999996)" xlink:href="#cB"/></g><g id="bS"><use transform="matrix(0.05,0,0,0.05,0,0)" xlink:href="#cF"/><use transform="matrix(0.05,0,0,0.05,3.95,0)" xlink:href="#cS"/><use transform="matrix(0.034999999999999996,0,0,0.034999999999999996,13.95,2.5199999999999996)" xlink:href="#cB"/></g></defs></g></svg>