<svg xmlns="http://www.w3.org/2000/svg" xmlns:xlink="http://www.w3.org/1999/xlink" xmlns:lucid="lucid" width="1580" height="1201.04"><g transform="translate(0 2.842170943040401e-14)" lucid:page-tab-id="9oqd1x2X~fvN"><path d="M1230 20c16.57 0 30 13.43 30 30v300c0 16.57-13.43 30-30 30H370c-16.57 0-30-13.43-30-30V50c0-16.57 13.43-30 30-30z" stroke="#000" stroke-width="2" fill="#e5e5e5"/><path d="M450 80c0 22.1-17.9 40-40 40s-40-17.9-40-40 17.9-40 40-40 40 17.9 40 40z" stroke="#000" stroke-width="2" fill="#c7e8ac"/><use xlink:href="#a" transform="matrix(1,0,0,1,375,44.99999999999997) translate(3.549999999999997 27.799999999999997)"/><use xlink:href="#b" transform="matrix(1,0,0,1,375,44.99999999999997) translate(55.45 27.799999999999997)"/><use xlink:href="#c" transform="matrix(1,0,0,1,375,44.99999999999997) translate(15 49.4)"/><path d="M859 80c0 22.1-17.9 40-40 40s-40-17.9-40-40 17.9-40 40-40 40 17.9 40 40z" stroke="#000" stroke-width="2" fill="#ffbbb1"/><use xlink:href="#a" transform="matrix(1,0,0,1,783.9993760969041,44.99999999999997) translate(3.049999999999997 27.799999999999997)"/><use xlink:href="#d" transform="matrix(1,0,0,1,783.9993760969041,44.99999999999997) translate(54.95 27.799999999999997)"/><use xlink:href="#c" transform="matrix(1,0,0,1,783.9993760969041,44.99999999999997) translate(15 49.4)"/><path d="M460 268.2c0 6.66-22.4 12.05-50 12.05s-50-5.4-50-12.05v-96.4c0-6.66 22.4-12.05 50-12.05s50 5.4 50 12.05z" stroke="#000" stroke-width="2" fill="#c7e8ac"/><path d="M460 171.8c0 6.66-22.4 12.05-50 12.05s-50-5.4-50-12.05" stroke="#000" stroke-width="2" fill="none"/><use xlink:href="#e" transform="matrix(1,0,0,1,365,188.84999999999997) translate(21.549999999999997 14.69999999999999)"/><use xlink:href="#f" transform="matrix(1,0,0,1,365,188.84999999999997) translate(23.525 36.29999999999999)"/><use xlink:href="#g" transform="matrix(1,0,0,1,365,188.84999999999997) translate(14.524999999999999 57.89999999999999)"/><use xlink:href="#h" transform="matrix(1,0,0,1,365,188.84999999999997) translate(-0.9500000000000028 79.5)"/><path d="M869 286c0 7.73-22.4 14-50 14s-50-6.27-50-14V174c0-7.73 22.4-14 50-14s50 6.27 50 14z" stroke="#000" stroke-width="2" fill="#ffbbb1"/><path d="M869 174c0 7.73-22.4 14-50 14s-50-6.27-50-14" stroke="#000" stroke-width="2" fill="none"/><use xlink:href="#e" transform="matrix(1,0,0,1,773.9993760969041,192.99999999999997) translate(21.549999999999997 22.19999999999999)"/><use xlink:href="#f" transform="matrix(1,0,0,1,773.9993760969041,192.99999999999997) translate(23.525 43.79999999999999)"/><use xlink:href="#g" transform="matrix(1,0,0,1,773.9993760969041,192.99999999999997) translate(14.524999999999999 65.39999999999999)"/><use xlink:href="#h" transform="matrix(1,0,0,1,773.9993760969041,192.99999999999997) translate(-0.9500000000000028 87)"/><path d="M1230 420c16.57 0 30 13.43 30 30v300c0 16.57-13.43 30-30 30H370c-16.57 0-30-13.43-30-30V450c0-16.57 13.43-30 30-30z" stroke="#000" stroke-width="2" fill="#e5e5e5"/><path d="M450 480c0 22.1-17.9 40-40 40s-40-17.9-40-40 17.9-40 40-40 40 17.9 40 40z" stroke="#000" stroke-width="2" fill="#c7e8ac"/><use xlink:href="#a" transform="matrix(1,0,0,1,375,445) translate(3.549999999999997 27.799999999999997)"/><use xlink:href="#b" transform="matrix(1,0,0,1,375,445) translate(55.45 27.799999999999997)"/><use xlink:href="#c" transform="matrix(1,0,0,1,375,445) translate(15 49.4)"/><path d="M870 480c0 22.1-17.9 40-40 40s-40-17.9-40-40 17.9-40 40-40 40 17.9 40 40z" stroke="#000" stroke-width="2" fill="#ffbbb1"/><use xlink:href="#a" transform="matrix(1,0,0,1,795,445) translate(3.049999999999997 27.799999999999997)"/><use xlink:href="#d" transform="matrix(1,0,0,1,795,445) translate(54.95 27.799999999999997)"/><use xlink:href="#c" transform="matrix(1,0,0,1,795,445) translate(15 49.4)"/><path d="M460 668.2c0 6.66-22.4 12.05-50 12.05s-50-5.4-50-12.05v-96.4c0-6.66 22.4-12.05 50-12.05s50 5.4 50 12.05z" stroke="#000" stroke-width="2" fill="#c7e8ac"/><path d="M460 571.8c0 6.66-22.4 12.05-50 12.05s-50-5.4-50-12.05" stroke="#000" stroke-width="2" fill="none"/><use xlink:href="#e" transform="matrix(1,0,0,1,365,588.85) translate(21.549999999999997 14.69999999999999)"/><use xlink:href="#f" transform="matrix(1,0,0,1,365,588.85) translate(23.525 36.29999999999999)"/><use xlink:href="#g" transform="matrix(1,0,0,1,365,588.85) translate(14.524999999999999 57.89999999999999)"/><use xlink:href="#h" transform="matrix(1,0,0,1,365,588.85) translate(-0.9500000000000028 79.5)"/><path d="M880 704c0 8.84-22.4 16-50 16s-50-7.16-50-16V576c0-8.84 22.4-16 50-16s50 7.16 50 16z" stroke="#000" stroke-width="2" fill="#ffbbb1"/><path d="M880 576c0 8.84-22.4 16-50 16s-50-7.16-50-16" stroke="#000" stroke-width="2" fill="none"/><use xlink:href="#e" transform="matrix(1,0,0,1,785,597) translate(21.549999999999997 30.19999999999999)"/><use xlink:href="#f" transform="matrix(1,0,0,1,785,597) translate(23.525 51.79999999999999)"/><use xlink:href="#g" transform="matrix(1,0,0,1,785,597) translate(14.524999999999999 73.39999999999999)"/><use xlink:href="#h" transform="matrix(1,0,0,1,785,597) translate(-0.9500000000000028 95)"/><path d="M1380 1081.04h108l32 30v50h-140z" stroke="#000" stroke-width="2" fill="#ffbbb1"/><path d="M1370 1091.04h108l32 30v50h-140z" stroke="#000" stroke-width="2" fill="#ffbbb1"/><path d="M1360 1101.04h108l32 30v50h-140z" stroke="#000" stroke-width="2" fill="#ffbbb1"/><use xlink:href="#a" transform="matrix(1,0,0,1,1360,1101.0375000000006) translate(38.05 43.6)"/><use xlink:href="#i" transform="matrix(1,0,0,1,1360,1101.0375000000006) translate(89.95 43.6)"/><path d="M1440 1080.04V969.77" stroke="#000" stroke-width="2" fill="none"/><path d="M1441 1081.04h-2v-1h2z"/><path d="M1440 954.77l4.64 14.27h-9.28z" stroke="#000" stroke-width="2"/><path d="M1230 820c16.57 0 30 13.43 30 30v300c0 16.57-13.43 30-30 30H370c-16.57 0-30-13.43-30-30V850c0-16.57 13.43-30 30-30z" stroke="#000" stroke-width="2" fill="#e5e5e5"/><path d="M450 880c0 22.1-17.9 40-40 40s-40-17.9-40-40 17.9-40 40-40 40 17.9 40 40z" stroke="#000" stroke-width="2" fill="#c7e8ac"/><use xlink:href="#a" transform="matrix(1,0,0,1,375,845) translate(3.549999999999997 27.799999999999997)"/><use xlink:href="#b" transform="matrix(1,0,0,1,375,845) translate(55.45 27.799999999999997)"/><use xlink:href="#c" transform="matrix(1,0,0,1,375,845) translate(15 49.4)"/><path d="M870 880c0 22.1-17.9 40-40 40s-40-17.9-40-40 17.9-40 40-40 40 17.9 40 40z" stroke="#000" stroke-width="2" fill="#ffbbb1"/><use xlink:href="#a" transform="matrix(1,0,0,1,795,845) translate(3.049999999999997 27.799999999999997)"/><use xlink:href="#d" transform="matrix(1,0,0,1,795,845) translate(54.95 27.799999999999997)"/><use xlink:href="#c" transform="matrix(1,0,0,1,795,845) translate(15 49.4)"/><path d="M460 1068.2c0 6.66-22.4 12.05-50 12.05s-50-5.4-50-12.05v-96.4c0-6.66 22.4-12.05 50-12.05s50 5.4 50 12.05z" stroke="#000" stroke-width="2" fill="#c7e8ac"/><path d="M460 971.8c0 6.66-22.4 12.05-50 12.05s-50-5.4-50-12.05" stroke="#000" stroke-width="2" fill="none"/><use xlink:href="#e" transform="matrix(1,0,0,1,365,988.8499999999999) translate(21.549999999999997 14.69999999999999)"/><use xlink:href="#f" transform="matrix(1,0,0,1,365,988.8499999999999) translate(23.525 36.29999999999999)"/><use xlink:href="#g" transform="matrix(1,0,0,1,365,988.8499999999999) translate(14.524999999999999 57.89999999999999)"/><use xlink:href="#h" transform="matrix(1,0,0,1,365,988.8499999999999) translate(-0.9500000000000028 79.5)"/><path d="M880 1104c0 8.84-22.4 16-50 16s-50-7.16-50-16V976c0-8.84 22.4-16 50-16s50 7.16 50 16z" stroke="#000" stroke-width="2" fill="#ffbbb1"/><path d="M880 976c0 8.84-22.4 16-50 16s-50-7.16-50-16" stroke="#000" stroke-width="2" fill="none"/><use xlink:href="#e" transform="matrix(1,0,0,1,785,997) translate(21.549999999999997 30.19999999999999)"/><use xlink:href="#f" transform="matrix(1,0,0,1,785,997) translate(23.525 51.79999999999999)"/><use xlink:href="#g" transform="matrix(1,0,0,1,785,997) translate(14.524999999999999 73.39999999999999)"/><use xlink:href="#h" transform="matrix(1,0,0,1,785,997) translate(-0.9500000000000028 95)"/><path d="M819 121v19.76" stroke="#000" stroke-width="2" fill="none"/><path d="M819 120l1-.04V121h-2v-1.06zM819 155.76l-4.64-14.26h9.27z"/><path d="M819 159l-6-18.5h12zm-3.26-16.5l3.26 10.03 3.26-10.03z"/><path d="M830 521v19.76" stroke="#000" stroke-width="2" fill="none"/><path d="M830 520l1-.04V521h-2v-1.06zM830 555.76l-4.64-14.26h9.28z"/><path d="M830 559l-6-18.5h12zm-3.26-16.5l3.26 10.03 3.26-10.03z"/><path d="M830 921v19.76" stroke="#000" stroke-width="2" fill="none"/><path d="M830 920l1-.04V921h-2v-1.06zM830 955.76l-4.64-14.26h9.28z"/><path d="M830 959l-6-18.5h12zm-3.26-16.5l3.26 10.03 3.26-10.03z"/><path d="M1320 20h240v226h-240z" stroke="#000" stroke-opacity="0" stroke-width="2" fill="#fff" fill-opacity="0"/><use xlink:href="#j" transform="matrix(1,0,0,1,1325,24.99999999999997) translate(0 14.4)"/><use xlink:href="#k" transform="matrix(1,0,0,1,1325,24.99999999999997) translate(26 14.4)"/><use xlink:href="#l" transform="matrix(1,0,0,1,1325,24.99999999999997) translate(73.95 14.4)"/><use xlink:href="#m" transform="matrix(1,0,0,1,1325,24.99999999999997) translate(90.95 14.4)"/><use xlink:href="#n" transform="matrix(1,0,0,1,1325,24.99999999999997) translate(184.85000000000002 14.4)"/><use xlink:href="#o" transform="matrix(1,0,0,1,1325,24.99999999999997) translate(0 36)"/><use xlink:href="#p" transform="matrix(1,0,0,1,1325,24.99999999999997) translate(22.95 36)"/><use xlink:href="#q" transform="matrix(1,0,0,1,1325,24.99999999999997) translate(76.9 36)"/><use xlink:href="#r" transform="matrix(1,0,0,1,1325,24.99999999999997) translate(120.9 36)"/><use xlink:href="#s" transform="matrix(1,0,0,1,1325,24.99999999999997) translate(159.9 36)"/><use xlink:href="#t" transform="matrix(1,0,0,1,1325,24.99999999999997) translate(168.85 36)"/><use xlink:href="#u" transform="matrix(1,0,0,1,1325,24.99999999999997) translate(0 57.6)"/><use xlink:href="#v" transform="matrix(1,0,0,1,1325,24.99999999999997) translate(101.25 57.6)"/><use xlink:href="#w" transform="matrix(1,0,0,1,1325,24.99999999999997) translate(145.25 57.6)"/><use xlink:href="#x" transform="matrix(1,0,0,1,1325,24.99999999999997) translate(190.25 57.6)"/><use xlink:href="#y" transform="matrix(1,0,0,1,1325,24.99999999999997) translate(0 79.20000000000002)"/><use xlink:href="#z" transform="matrix(1,0,0,1,1325,24.99999999999997) translate(60 79.20000000000002)"/><use xlink:href="#A" transform="matrix(1,0,0,1,1325,24.99999999999997) translate(90 79.20000000000002)"/><use xlink:href="#B" transform="matrix(1,0,0,1,1325,24.99999999999997) translate(143 79.20000000000002)"/><use xlink:href="#C" transform="matrix(1,0,0,1,1325,24.99999999999997) translate(163 79.20000000000002)"/><use xlink:href="#D" transform="matrix(1,0,0,1,1325,24.99999999999997) translate(0 100.80000000000001)"/><use xlink:href="#E" transform="matrix(1,0,0,1,1325,24.99999999999997) translate(118.85000000000001 100.80000000000001)"/><use xlink:href="#f" transform="matrix(1,0,0,1,1325,24.99999999999997) translate(166.8 100.80000000000001)"/><use xlink:href="#F" transform="matrix(1,0,0,1,1325,24.99999999999997) translate(0 122.4)"/><use xlink:href="#G" transform="matrix(1,0,0,1,1325,24.99999999999997) translate(74.9 122.4)"/><use xlink:href="#H" transform="matrix(1,0,0,1,1325,24.99999999999997) translate(109.9 122.4)"/><use xlink:href="#I" transform="matrix(1,0,0,1,1325,24.99999999999997) translate(154.8 122.4)"/><use xlink:href="#J" transform="matrix(1,0,0,1,1325,24.99999999999997) translate(168.75 122.4)"/><use xlink:href="#K" transform="matrix(1,0,0,1,1325,24.99999999999997) translate(0 144)"/><use xlink:href="#L" transform="matrix(1,0,0,1,1325,24.99999999999997) translate(0 165.6)"/><use xlink:href="#M" transform="matrix(1,0,0,1,1325,24.99999999999997) translate(0 187.2)"/><use xlink:href="#N" transform="matrix(1,0,0,1,1325,24.99999999999997) translate(27.950000000000003 187.2)"/><use xlink:href="#O" transform="matrix(1,0,0,1,1325,24.99999999999997) translate(84.85000000000001 187.2)"/><use xlink:href="#P" transform="matrix(1,0,0,1,1325,24.99999999999997) translate(127.75000000000001 187.2)"/><use xlink:href="#Q" transform="matrix(1,0,0,1,1325,24.99999999999997) translate(157.55 187.2)"/><use xlink:href="#R" transform="matrix(1,0,0,1,1325,24.99999999999997) translate(202.55 187.2)"/><use xlink:href="#S" transform="matrix(1,0,0,1,1325,24.99999999999997) translate(0 208.79999999999998)"/><use xlink:href="#T" transform="matrix(1,0,0,1,1325,24.99999999999997) translate(25 208.79999999999998)"/><use xlink:href="#U" transform="matrix(1,0,0,1,1325,24.99999999999997) translate(70 208.79999999999998)"/><use xlink:href="#V" transform="matrix(1,0,0,1,1325,24.99999999999997) translate(95.95 208.79999999999998)"/><use xlink:href="#W" transform="matrix(1,0,0,1,1325,24.99999999999997) translate(144.95 208.79999999999998)"/><path d="M340 320h240v60H340z" stroke="#000" stroke-opacity="0" stroke-width="2" fill="#fff" fill-opacity="0"/><use xlink:href="#X" transform="matrix(1,0,0,1,345,325) translate(17.69999999999999 28.6)"/><use xlink:href="#Y" transform="matrix(1,0,0,1,345,325) translate(108.55 28.6)"/><use xlink:href="#Z" transform="matrix(1,0,0,1,345,325) translate(179.4 28.6)"/><path d="M340 720h240v60H340z" stroke="#000" stroke-opacity="0" stroke-width="2" fill="#fff" fill-opacity="0"/><use xlink:href="#X" transform="matrix(1,0,0,1,345,725) translate(17.69999999999999 28.6)"/><use xlink:href="#Y" transform="matrix(1,0,0,1,345,725) translate(108.55 28.6)"/><use xlink:href="#aa" transform="matrix(1,0,0,1,345,725) translate(179.4 28.6)"/><path d="M340 1120h240v60H340z" stroke="#000" stroke-opacity="0" stroke-width="2" fill="#fff" fill-opacity="0"/><use xlink:href="#X" transform="matrix(1,0,0,1,345,1125) translate(17.69999999999999 28.6)"/><use xlink:href="#Y" transform="matrix(1,0,0,1,345,1125) translate(108.55 28.6)"/><use xlink:href="#ab" transform="matrix(1,0,0,1,345,1125) translate(179.4 28.6)"/><path d="M40 1081.04h140l40 30v50H40z" stroke="#000" stroke-width="2" fill="#c7e8ac"/><path d="M30 1091.04h140l40 30v50H30z" stroke="#000" stroke-width="2" fill="#c7e8ac"/><path d="M20 1101.04h140l40 30v50H20z" stroke="#000" stroke-width="2" fill="#c7e8ac"/><use xlink:href="#a" transform="matrix(1,0,0,1,20,1101.0375000000006) translate(58.05 43.6)"/><use xlink:href="#ac" transform="matrix(1,0,0,1,20,1101.0375000000006) translate(109.95 43.6)"/><path d="M120 1080.04v-100.8" stroke="#000" stroke-width="2" fill="none"/><path d="M121 1081.04h-2v-1h2zM124.64 978.5h-9.28l4.64-14.26z"/><path d="M126 979.5h-12l6-18.5zm-9.26-2h6.52L120 967.47z"/><path d="M120 719v-49.76" fill="none"/><path d="M120 719v-3m0-3.97v-5.97m0-3.98v-5.97m0-3.97v-5.97m0-3.98v-5.98m0-3.98v-2.98" stroke="#000" stroke-width="2" fill="none"/><path d="M121 720h-2v-1h2zM124.64 668.5h-9.28l4.64-14.26z"/><path d="M126 669.5h-12l6-18.5zm-9.26-2h6.52L120 657.47z"/><path d="M20 550h160l40 30v70H20z" stroke="#000" stroke-width="2" fill="#c7e8ac"/><use xlink:href="#ad" transform="matrix(1,0,0,1,20,550) translate(17.68 55.025)"/><use xlink:href="#ae" transform="matrix(1,0,0,1,20,550) translate(66.63 55.025)"/><use xlink:href="#af" transform="matrix(1,0,0,1,20,550) translate(75.58 55.025)"/><use xlink:href="#ag" transform="matrix(1,0,0,1,20,550) translate(91.08 55.025)"/><path d="M120 549v-49.76" fill="none"/><path d="M120 549v-3m0-3.97v-5.97m0-3.98v-5.97m0-3.97v-5.97m0-4v-5.96m0-3.98v-2.98" stroke="#000" stroke-width="2" fill="none"/><path d="M121 550h-2v-1h2zM124.64 498.5h-9.28l4.64-14.26z"/><path d="M126 499.5h-12l6-18.5zm-9.26-2h6.52L120 487.47z"/><path d="M20 720h160l40 72v168H20z" stroke="#000" stroke-width="2" fill="#c7e8ac"/><g><use xlink:href="#ad" transform="matrix(1,0,0,1,20,720) translate(5.01 19.41)"/><use xlink:href="#ah" transform="matrix(1,0,0,1,20,720) translate(53.96 19.41)"/><use xlink:href="#ai" transform="matrix(1,0,0,1,20,720) translate(5.01 41.01)"/><use xlink:href="#aj" transform="matrix(1,0,0,1,20,720) translate(5.01 62.61)"/><use xlink:href="#ak" transform="matrix(1,0,0,1,20,720) translate(15.959999999999999 62.61)"/><use xlink:href="#al" transform="matrix(1,0,0,1,20,720) translate(36.01 84.21000000000001)"/><use xlink:href="#am" transform="matrix(1,0,0,1,20,720) translate(46.959999999999994 84.21000000000001)"/><use xlink:href="#an" transform="matrix(1,0,0,1,20,720) translate(117.76 84.21000000000001)"/><use xlink:href="#al" transform="matrix(1,0,0,1,20,720) translate(36.01 105.81)"/><use xlink:href="#ao" transform="matrix(1,0,0,1,20,720) translate(46.959999999999994 105.81)"/><use xlink:href="#ap" transform="matrix(1,0,0,1,20,720) translate(107.91 105.81)"/><use xlink:href="#aj" transform="matrix(1,0,0,1,20,720) translate(5.01 127.41)"/><use xlink:href="#aq" transform="matrix(1,0,0,1,20,720) translate(15.959999999999999 127.41)"/><use xlink:href="#ar" transform="matrix(1,0,0,1,20,720) translate(36.01 149.01)"/><use xlink:href="#as" transform="matrix(1,0,0,1,20,720) translate(112.75999999999999 149.01)"/><use xlink:href="#al" transform="matrix(1,0,0,1,20,720) translate(36.01 170.60999999999999)"/><use xlink:href="#ao" transform="matrix(1,0,0,1,20,720) translate(46.959999999999994 170.60999999999999)"/><use xlink:href="#at" transform="matrix(1,0,0,1,20,720) translate(107.91 170.60999999999999)"/><use xlink:href="#au" transform="matrix(1,0,0,1,20,720) translate(5.01 192.20999999999998)"/></g><path d="M1360 515h128l32 30v70h-160z" stroke="#000" stroke-width="2" fill="#ffbbb1"/><g><use xlink:href="#ad" transform="matrix(1,0,0,1,1360,515) translate(27.055 42.525)"/><use xlink:href="#s" transform="matrix(1,0,0,1,1360,515) translate(76.005 42.525)"/><use xlink:href="#af" transform="matrix(1,0,0,1,1360,515) translate(84.955 42.525)"/><use xlink:href="#av" transform="matrix(1,0,0,1,1360,515) translate(100.455 42.525)"/><use xlink:href="#t" transform="matrix(1,0,0,1,1360,515) translate(115.455 42.525)"/><use xlink:href="#aw" transform="matrix(1,0,0,1,1360,515) translate(34.379999999999995 64.125)"/></g><path d="M1440 679.25v-45" fill="none"/><path d="M1440 679.25v-2.7m0-3.6v-5.4m0-3.6v-5.4m0-3.6v-5.4m0-3.6v-5.4m0-3.6v-2.7" stroke="#000" stroke-width="2" fill="none"/><path d="M1441 680.25h-2v-1h2zM1444.64 633.5h-9.28l4.64-14.26z"/><path d="M1446 634.5h-12l6-18.5zm-9.26-2h6.52l-3.26-10.03z"/><path d="M1359 565l-8.3-.17-7.94-.5-7.6-.8-7.34-1.08-7.1-1.36-6.92-1.63-6.78-1.9-6.66-2.16-6.57-2.43-6.54-2.75-6.52-3.07-6.54-3.4-6.6-3.82-6.68-4.25-6.84-4.75-7.04-5.35-7.3-6.04-7.66-6.9-8.13-7.97-8.8-9.37-9.72-11.3-11.2-14.14-13.9-19.2-22.22-33.63-57.42-90-13.9-19.2-11.2-14.15-9.74-11.3-8.8-9.36-8.13-7.97-7.64-6.9-7.3-6.05-7.04-5.34-6.84-4.75-6.7-4.24-6.58-3.8-6.54-3.43-6.52-3.06-6.53-2.75-6.56-2.45-6.66-2.16-6.78-1.88-6.92-1.63-7.1-1.36-7.34-1.08-5.63-.6" fill="none"/><path d="M1359 565l-3.02-.06m-4-.1h-1.3l-4.73-.3m-4-.3l-6-.63m-3.97-.54l-4.16-.6-1.8-.35m-3.94-.75l-1.36-.26-4.5-1.07m-3.9-.97l-5.3-1.48-.5-.17m-3.82-1.23l-2.34-.76-3.34-1.23m-3.76-1.42l-5.55-2.34m-3.64-1.68l-3.32-1.57-2.08-1.08m-3.56-1.87l-.9-.46-4.34-2.5m-3.45-2.07l-5.07-3.23m-3.3-2.28l-3.95-2.73-.98-.75m-3.2-2.43l-2.86-2.17-1.87-1.55m-3.1-2.56l-2.33-1.93-2.22-2m-3-2.7l-2.44-2.2-1.95-1.9m-2.86-2.82l-3.32-3.25-.94-1m-2.74-2.94l-4.12-4.4m-2.67-3l-3.94-4.56m-2.62-3.04l-1.47-1.72-2.33-2.94m-2.5-3.14l-3.73-4.73m-2.5-3.16l-.14-.18-3.4-4.7m-2.35-3.24l-3.54-4.88m-2.36-3.25l-2.26-3.14-1.2-1.8m-2.2-3.36l-3.33-5.02m-2.22-3.36l-3.32-5.02m-2.2-3.36l-3.33-5.02m-2.2-3.36l-2.22-3.33-1.08-1.7m-2.16-3.4l-3.24-5.07m-2.16-3.4l-3.24-5.07m-2.16-3.4l-3.24-5.07m-2.16-3.4l-3.24-5.07m-2.16-3.38l-3.24-5.08m-2.16-3.4l-3.25-5.07m-2.15-3.38l-3.24-5.08m-2.15-3.4l-3.24-5.07m-2.15-3.38l-3.24-5.08m-2.15-3.4l-3.24-5.06m-2.15-3.4l-.17-.25-3.35-4.63m-2.36-3.25l-3.53-4.88m-2.36-3.25l-2.3-3.2-1.3-1.63m-2.5-3.16l-3.74-4.72m-2.5-3.15l-1.17-1.5-2.7-3.1m-2.6-3.06l-3.95-4.55m-2.72-2.95l-4.13-4.4m-2.76-2.9l-4.3-4.23m-2.86-2.8l-.63-.62-3.8-3.45m-3-2.7l-.84-.75-3.76-3.1m-3.1-2.57l-.45-.38-4.33-3.3m-3.2-2.4l-4.96-3.43m-3.35-2.22l-4.7-3-.4-.2m-3.46-2.02l-2.74-1.58-2.54-1.33m-3.56-1.86l-.44-.23-5-2.35m-3.67-1.62l-4.4-1.84-1.2-.45m-3.75-1.4l-1.6-.6-4.1-1.33m-3.84-1.2l-5.5-1.52-.3-.07m-3.9-.92l-2.72-.64-3.18-.6m-3.95-.76l-5.96-.88m-4-.48l-3-.3" stroke="#c92d39" stroke-width="2" fill="none"/><path d="M1360 564.04v2l-1.05-.04.08-2zM939.26 218.16l-14.03-5.32 14.47-3.94z" fill="#c92d39"/><path d="M940.2 219.58l-18.2-6.9 18.77-5.1zM928.45 213l9.87 3.74.3-6.5z" fill="#c92d39"/><path d="M1359 565l-59 1.2-53.26 3.35-56.72 6-242.98 35.5" fill="none"/><path d="M1359 565l-3.04.06m-4.05.08l-6.06.13m-4.05.08l-6.08.12m-4.05.1l-6.07.1m-4.05.1l-6.07.12m-4.04.07l-6.08.12m-4.04.08l-1.33.02-4.75.3m-4.04.25l-6.05.38m-4.04.26l-6.05.37m-4.04.25l-6.05.38m-4.04.26l-6.05.38m-4.04.25l-4.06.25-2 .2m-4 .43l-6.05.64m-4.04.43l-6.03.64m-4.03.4l-6.04.65m-4.03.43l-6.03.64m-4.03.42l-6.04.64m-4.03.43l-.38.05-5.63.82m-4 .58l-6.02.88m-4 .6l-6.02.87m-4 .58l-6 .88m-4.02.58l-6 .88m-4 .6l-6.02.87m-4 .57l-6 .88m-4.02.58l-6 .88m-4.02.6l-6 .88m-4 .58l-6.02.88m-4 .58l-6 .88m-4.02.6l-6 .87m-4 .58l-6.02.88m-4 .58l-6.02.9m-4 .58l-6 .88m-4.02.58l-6 .88m-4 .6l-6.02.86m-4 .6l-6.02.87m-4 .58l-6 .88m-4.02.6l-6 .87m-4 .6l-6.02.87m-4 .58l-6.02.88m-4 .6l-6 .86m-4.02.6l-6 .87m-4 .58l-3.02.45" stroke="#c92d39" stroke-width="2" fill="none"/><path d="M1360 565.98l-.98.02-.05-2 1.03-.02z" fill="#c92d39"/><path d="M932.2 613.22l13.45-6.65 1.34 9.17z" stroke="#c92d39" stroke-width="2" fill="#c92d39"/><path d="M1359 565l-6.25.13-6.02.38-5.84.62-5.7.84-5.58 1.07-5.47 1.28-5.4 1.52-5.35 1.74-5.32 1.98-5.3 2.23-5.35 2.5-5.38 2.82-5.44 3.14-5.53 3.5-5.66 3.95-5.8 4.4-6.03 5-6.27 5.64-6.57 6.44-6.96 7.42-7.44 8.63-8.07 10.2-8.9 12.27-10.12 15.24-12 19.87-15.7 28.65-89.78 180.43-12 19.87-10.1 15.24-8.92 12.27-8.07 10.2-7.44 8.62-6.96 7.4-6.57 6.45-6.27 5.64-6.02 4.98-5.8 4.42-5.67 3.93-5.54 3.52-5.46 3.14-5.37 2.8-5.34 2.52-5.3 2.23-5.33 1.98-5.35 1.74-5.4 1.5-5.48 1.3-5.56 1.05-5.6.83" fill="none"/><path d="M1359 565l-3.02.06m-4.02.12l-5.23.33-.78.1m-4 .4l-1.06.12-4.92.73m-3.95.72l-2.4.46-3.5.8m-3.9 1l-3.48 1-2.3.73m-3.8 1.27l-4.57 1.7-1.06.45m-3.7 1.56l-.55.23-4.92 2.32m-3.57 1.83l-2.23 1.16-3.04 1.75m-3.45 2.06l-4.48 2.85-.6.42m-3.3 2.3l-1.76 1.22-3.07 2.33m-3.2 2.45l-4.63 3.85m-3.02 2.65l-4.18 3.76-.3.3m-2.86 2.8l-3.4 3.34-.87.92m-2.75 2.93l-3.35 3.57-.74.86m-2.63 3.04l-3.93 4.57m-2.5 3.15l-3.75 4.72m-2.46 3.18l-3.54 4.88m-2.37 3.25l-2.5 3.45-.97 1.47m-2.23 3.35l-3.33 5.03m-2.22 3.35l-1.36 2.04-1.85 3.06m-2.1 3.44l-3.1 5.16m-2.08 3.44l-2.88 4.77-.22.4m-1.93 3.54l-2.9 5.28m-1.94 3.53l-2.9 5.3m-1.93 3.5l-2.9 5.3m-1.86 3.56l-2.7 5.4m-1.78 3.6l-2.7 5.4m-1.78 3.6l-2.7 5.4m-1.78 3.6l-2.7 5.4m-1.78 3.6l-2.68 5.4m-1.8 3.6l-2.68 5.4m-1.8 3.6l-2.68 5.4m-1.8 3.6l-2.67 5.38m-1.8 3.6l-2.68 5.4m-1.8 3.6l-2.68 5.4m-1.8 3.6l-2.68 5.4m-1.8 3.6l-2.68 5.4m-1.8 3.6l-2.68 5.4m-1.8 3.6l-2.67 5.38m-1.8 3.6l-2.7 5.4m-1.78 3.6l-2.7 5.4m-1.78 3.6l-2.68 5.4m-1.8 3.6l-2.68 5.4m-1.8 3.6l-2.68 5.4m-1.8 3.58l-2.67 5.4m-1.9 3.54l-3.1 5.17m-2.1 3.44l-3.1 5.15m-2.1 3.44l-.87 1.45-2.4 3.6m-2.2 3.35l-3.35 5.02m-2.2 3.35l-3.55 4.88m-2.36 3.25l-2.96 4.07-.63.8m-2.48 3.14l-3.74 4.74m-2.57 3.1l-3.92 4.56m-2.65 3.02l-4.13 4.4m-2.77 2.9l-4.3 4.23m-2.92 2.77l-4.46 4.04m-3.07 2.6l-3.66 3.02-1 .77m-3.2 2.43l-1.6 1.22-3.3 2.3m-3.34 2.25l-4.57 2.9-.54.3m-3.5 2.02l-1.42.82-3.87 2.02m-3.6 1.78l-3.24 1.52-2.27.95m-3.7 1.53l-4.66 1.73-1.02.33m-3.82 1.24l-.5.17-5.3 1.48m-3.9.92l-1.7.4-4.22.8m-3.97.64l-2.98.45" stroke="#c92d39" stroke-width="2" fill="none"/><path d="M1360 565.95l-.95.05-.1-2 1.05-.05zM947.76 1023.22l-14.53-3.73 13.95-5.53z" fill="#c92d39"/><path d="M948.84 1024.54L930 1019.7l18.1-7.16zm-12.38-5.26l10.2 2.63-.4-6.5z" fill="#c92d39"/><path d="M40 380h140l40 30v50H40z" stroke="#000" stroke-width="2" fill="#c7e8ac"/><path d="M30 390h140l40 30v50H30z" stroke="#000" stroke-width="2" fill="#c7e8ac"/><path d="M20 400h140l40 30v50H20z" stroke="#000" stroke-width="2" fill="#c7e8ac"/><g><use xlink:href="#a" transform="matrix(1,0,0,1,20,400) translate(58.05 43.6)"/><use xlink:href="#ac" transform="matrix(1,0,0,1,20,400) translate(109.95 43.6)"/></g><path d="M1340 680.25h160l40 81.1v189.2h-200z" stroke="#000" stroke-width="2" fill="#ffbbb1"/><g><use xlink:href="#ax" transform="matrix(1,0,0,1,1340,680.25) translate(5.01 31.3375)"/><use xlink:href="#ay" transform="matrix(1,0,0,1,1340,680.25) translate(53.96 31.3375)"/><use xlink:href="#az" transform="matrix(1,0,0,1,1340,680.25) translate(5.01 52.9375)"/><use xlink:href="#aA" transform="matrix(1,0,0,1,1340,680.25) translate(5.01 74.53750000000001)"/><use xlink:href="#aB" transform="matrix(1,0,0,1,1340,680.25) translate(15.959999999999999 74.53750000000001)"/><use xlink:href="#aC" transform="matrix(1,0,0,1,1340,680.25) translate(36.01 96.13750000000002)"/><use xlink:href="#aD" transform="matrix(1,0,0,1,1340,680.25) translate(46.959999999999994 96.13750000000002)"/><use xlink:href="#aE" transform="matrix(1,0,0,1,1340,680.25) translate(133.86 96.13750000000002)"/><use xlink:href="#aC" transform="matrix(1,0,0,1,1340,680.25) translate(36.01 117.73750000000001)"/><use xlink:href="#aF" transform="matrix(1,0,0,1,1340,680.25) translate(46.959999999999994 117.73750000000001)"/><use xlink:href="#aG" transform="matrix(1,0,0,1,1340,680.25) translate(93.96 117.73750000000001)"/><use xlink:href="#aC" transform="matrix(1,0,0,1,1340,680.25) translate(36.01 139.3375)"/><use xlink:href="#aH" transform="matrix(1,0,0,1,1340,680.25) translate(46.959999999999994 139.3375)"/><use xlink:href="#aI" transform="matrix(1,0,0,1,1340,680.25) translate(117.76 139.3375)"/><use xlink:href="#aJ" transform="matrix(1,0,0,1,1340,680.25) translate(5.01 160.9375)"/><use xlink:href="#aK" transform="matrix(1,0,0,1,1340,680.25) translate(15.959999999999999 160.9375)"/><use xlink:href="#aL" transform="matrix(1,0,0,1,1340,680.25) translate(36.01 182.5375)"/><use xlink:href="#aM" transform="matrix(1,0,0,1,1340,680.25) translate(128.86 182.5375)"/><use xlink:href="#aN" transform="matrix(1,0,0,1,1340,680.25) translate(36.01 204.1375)"/><use xlink:href="#aO" transform="matrix(1,0,0,1,1340,680.25) translate(46.959999999999994 204.1375)"/><use xlink:href="#aP" transform="matrix(1,0,0,1,1340,680.25) translate(93.96 204.1375)"/><use xlink:href="#aN" transform="matrix(1,0,0,1,1340,680.25) translate(36.01 225.73749999999998)"/><use xlink:href="#aQ" transform="matrix(1,0,0,1,1340,680.25) translate(46.959999999999994 225.73749999999998)"/><use xlink:href="#aR" transform="matrix(1,0,0,1,1340,680.25) translate(117.76 225.73749999999998)"/><use xlink:href="#aS" transform="matrix(1,0,0,1,1340,680.25) translate(5.01 247.33749999999998)"/></g><path d="M869 1007h52.05l5.95 5.95v23.8h-58z" stroke="#d9be60" stroke-width="2" fill="#ffdf71"/><path d="M921.05 1007v5.95H927" fill="#d9be60"/><g><use xlink:href="#aT" transform="matrix(1,0,0,1,873.9987521938083,1012) translate(9.05 14.4)"/></g><path d="M869 1039.52h52.05l5.95 5.95v23.8h-58z" stroke="#d9be60" stroke-width="2" fill="#ffdf71"/><path d="M921.05 1039.52v5.95H927" fill="#d9be60"/><g><use xlink:href="#aU" transform="matrix(1,0,0,1,873.9987521938083,1044.5249999999999) translate(9.05 14.4)"/></g><path d="M869 600h52.05l5.95 5.95v23.8h-58z" stroke="#d9be60" stroke-width="2" fill="#ffdf71"/><path d="M921.05 600v5.95H927" fill="#d9be60"/><g><use xlink:href="#aT" transform="matrix(1,0,0,1,873.9987521938083,605) translate(9.05 14.4)"/></g><path d="M869 632.52h52.05l5.95 5.95v23.8h-58z" stroke="#d9be60" stroke-width="2" fill="#ffdf71"/><path d="M921.05 632.52v5.95H927" fill="#d9be60"/><g><use xlink:href="#aU" transform="matrix(1,0,0,1,873.9987521938083,637.5249999999999) translate(9.05 14.4)"/></g><path d="M861 200h52.05l5.95 5.95v23.8h-58z" stroke="#d9be60" stroke-width="2" fill="#ffdf71"/><path d="M913.05 200v5.95H919" fill="#d9be60"/><g><use xlink:href="#aT" transform="matrix(1,0,0,1,865.9987521938081,205) translate(9.05 14.4)"/></g><path d="M861 232.52h52.05l5.95 5.95v23.8h-58z" stroke="#d9be60" stroke-width="2" fill="#ffdf71"/><path d="M913.05 232.52v5.95H919" fill="#d9be60"/><g><use xlink:href="#aU" transform="matrix(1,0,0,1,865.9987521938081,237.52499999999986) translate(9.05 14.4)"/></g><path d="M921 212.7c0 10.86-13.43 19.68-30 19.68s-30-8.82-30-19.7c0-10.87 13.43-19.68 30-19.68s30 8.8 30 19.7zm-51.22-13.94l42.43 27.85m-42.42 0l42.43-27.84" fill-opacity="0"/><path d="M919.26 219.3v.03l-1.6 2.38-2.05 2.2m-3.08 2.45l-.54.4-4.62 2.44m-3.76 1.23l-2.22.73-3.53.55m-3.9.57l-2.95.1-2.95-.24m-3.92-.32l-.6-.04-5.15-1.3m-3.68-1.37l-2.88-1.27-2.32-1.52m-3.08-2.43l-1.2-1.12-1.88-2.42-.56-1.06m-1.44-3.65l-.3-2-.04-.93.18-2.2.2-.74m1.35-3.68l.02-.04 1.58-2.37 2.06-2.2m3.08-2.45l.54-.4 4.62-2.44m3.75-1.24l2.22-.73 3.53-.53m3.9-.57l2.95-.1 2.94.24m3.93.33l.6.05 5.15 1.3m3.68 1.36l2.88 1.27 2.3 1.52m3.1 2.43l1.2 1.12 1.88 2.43.56 1.05m1.43 3.66l.32 2 .03.93-.18 2.17-.2.74m-50.84-16.84l2.55 1.68m3.4 2.22l5.1 3.34m3.38 2.23l5.1 3.34m3.4 2.23l5.1 3.34m3.38 2.23l5.1 3.34m3.4 2.24l2.53 1.67m-42.42 0l2.55-1.66m3.4-2.23l5.1-3.33m3.38-2.23l5.1-3.34m3.4-2.23l5.1-3.34m3.38-2.23l5.1-3.34m3.4-2.22l2.53-1.68" stroke="#c92d39" stroke-width="2" fill="none"/><path d="M891 192v-53.76" stroke="#000" stroke-width="2" fill="none"/><path d="M892 193.08l-1-.08-1 .04V192h2z"/><path d="M891 123.24l4.63 14.26h-9.27z" stroke="#000" stroke-width="2"/><path d="M919 249.44c0 10.87-13.43 19.7-30 19.7s-30-8.83-30-19.7c0-10.88 13.43-19.7 30-19.7s30 8.82 30 19.7zm-51.22-13.93l42.44 27.86m-42.44 0l42.44-27.85" fill-opacity="0"/><path d="M917.26 256.05v.03l-1.6 2.38-2.05 2.2m-3.08 2.44l-.54.4-4.62 2.44m-3.76 1.24l-2.22.73-3.53.56m-3.9.56l-2.95.1-2.95-.24m-3.92-.32l-.6-.05-5.15-1.3m-3.68-1.36l-2.88-1.26-2.32-1.52m-3.08-2.44l-1.2-1.12-1.88-2.42-.56-1.06m-1.44-3.65l-.3-2-.04-.93.18-2.2.2-.73m1.35-3.67l.02-.04 1.58-2.38 2.06-2.2m3.08-2.45l.54-.4 4.62-2.44m3.76-1.24l2.22-.74 3.53-.54m3.9-.57l2.95-.1 2.94.24m3.93.32l.6.05 5.15 1.3m3.68 1.36l2.88 1.27 2.3 1.52m3.1 2.43l1.2 1.12 1.88 2.43.56 1.05m1.43 3.66l.32 2 .03.94-.18 2.18-.2.74M867.8 235.5l2.55 1.7m3.4 2.2l5.1 3.35m3.38 2.23l5.1 3.34m3.4 2.23l5.1 3.34m3.38 2.22l5.1 3.34m3.4 2.23l2.54 1.66m-42.44 0l2.55-1.67m3.4-2.24l5.1-3.34m3.38-2.23l5.1-3.35m3.4-2.23l5.1-3.34m3.38-2.23l5.1-3.34m3.4-2.2l2.54-1.7" stroke="#c92d39" stroke-width="2" fill="none"/><path d="M1359 565l-9.33-.2-8.86-.55-8.43-.9-8.1-1.18-7.83-1.5-7.58-1.77-7.4-2.07-7.24-2.35-7.14-2.66-7.07-2.97-7.03-3.3-7.05-3.7-7.1-4.1-7.24-4.6-7.38-5.13-7.63-5.8-7.97-6.6-8.43-7.6-9.1-8.9-10.08-10.75-11.7-13.57-14.93-18.88-84.67-116.28-11.7-13.57-10.07-10.75-9.1-8.9-8.43-7.6-7.97-6.6-7.63-5.8-7.38-5.14-7.23-4.58-7.12-4.1-7.05-3.7-7.04-3.3-7.08-3-7.14-2.64-7.24-2.36-7.4-2.06-7.58-1.78-7.82-1.5-8.1-1.2-8.42-.87" fill="none"/><path d="M1359 565l-3-.06m-4-.1l-2.33-.03-3.63-.22m-3.98-.25l-1.25-.08-4.7-.5m-3.96-.42l-5.92-.87m-3.93-.67l-5.86-1.12h-.03m-3.87-.92l-3.67-.86-2.13-.6m-3.85-1.07l-1.42-.4-4.28-1.4m-3.8-1.26l-5.6-2.08m-3.68-1.53l-4.1-1.72-1.4-.66m-3.6-1.7l-2.03-.96-3.3-1.73m-3.55-1.84l-.2-.1-4.98-2.9m-3.42-2.04l-5.05-3.2m-3.3-2.24l-4.92-3.42m-3.17-2.4l-4.5-3.43-.26-.2m-3.07-2.55l-4.6-3.82m-2.98-2.67l-4.44-4m-2.9-2.76l-4.26-4.2m-2.85-2.78l-.15-.14-3.95-4.22m-2.73-2.9l-3.4-3.63-.67-.77m-2.6-3.02l-3.9-4.53m-2.6-3.02l-1.93-2.23-1.9-2.4m-2.46-3.12l-3.7-4.7m-2.5-3.12l-3.7-4.7m-2.38-3.2l-3.52-4.83m-2.35-3.22l-3.53-4.83m-2.35-3.22l-3.52-4.84m-2.35-3.22l-3.52-4.83m-2.35-3.23l-3.52-4.83m-2.35-3.24l-3.5-4.83m-2.36-3.23l-3.52-4.84m-2.35-3.22l-3.52-4.84m-2.35-3.22l-3.52-4.84m-2.35-3.22l-3.52-4.84m-2.34-3.22l-3.52-4.84m-2.35-3.22l-3.53-4.84m-2.35-3.22l-3.52-4.84m-2.34-3.23l-3.53-4.83m-2.34-3.23l-.8-1.06-3.03-3.53m-2.6-3l-3.9-4.54m-2.64-3l-4.1-4.37m-2.72-2.92l-2.77-2.96-1.37-1.34m-2.85-2.8l-4.26-4.18m-2.94-2.7l-4.45-4m-3-2.62l-4.62-3.8m-3.1-2.5l-4.77-3.63m-3.22-2.35l-4.9-3.42m-3.35-2.18l-4.9-3.1-.17-.1m-3.45-2l-3.5-2-1.72-.9m-3.54-1.86l-1.8-.94-3.57-1.7m-3.6-1.68l-5.53-2.32m-3.7-1.45l-4.84-1.8-.8-.25m-3.8-1.23l-2.64-.87-3.07-.85m-3.85-1.08l-.48-.13-5.34-1.25m-3.9-.85l-5.87-1.12m-3.94-.6l-4.47-.66-1.47-.15m-3.97-.42l-2.98-.3" stroke="#c92d39" stroke-width="2" fill="none"/><path d="M1360 564.04v2l-1.04-.04.07-2zM937.3 254.8l-14.07-5.23 14.45-4.04z" fill="#c92d39"/><path d="M938.24 256.2L920 249.45l18.73-5.25zm-11.77-6.5l9.88 3.67.27-6.5z" fill="#c92d39"/><path d="M929 1019.7c0 10.86-13.43 19.67-30 19.67s-30-8.8-30-19.68c0-10.9 13.43-19.7 30-19.7s30 8.8 30 19.7zm-51.22-13.94l42.43 27.85m-42.42 0l42.43-27.84" fill-opacity="0"/><path d="M927.26 1026.3v.03l-1.6 2.38-2.05 2.2m-3.08 2.45l-.54.4-4.62 2.44m-3.76 1.23l-2.22.73-3.53.55m-3.9.57l-2.95.1-2.95-.24m-3.92-.32l-.6-.04-5.15-1.3m-3.68-1.37l-2.88-1.27-2.32-1.52m-3.08-2.43l-1.2-1.12-1.88-2.42-.56-1.06m-1.44-3.65l-.3-2-.04-.93.18-2.2.2-.74m1.35-3.68l.02-.04 1.58-2.37 2.06-2.2m3.08-2.45l.54-.4 4.62-2.44m3.75-1.24l2.22-.73 3.53-.53m3.9-.57l2.95-.1 2.94.24m3.93.33l.6.05 5.15 1.3m3.68 1.36l2.88 1.27 2.3 1.52m3.1 2.43l1.2 1.12 1.88 2.43.56 1.05m1.43 3.66l.32 2 .03.93-.18 2.17-.2.74m-50.84-16.84l2.55 1.68m3.4 2.22l5.1 3.34m3.38 2.23l5.1 3.34m3.4 2.23l5.1 3.34m3.38 2.23l5.1 3.34m3.4 2.24l2.53 1.67m-42.42 0l2.55-1.66m3.4-2.23l5.1-3.33m3.38-2.23l5.1-3.34m3.4-2.23l5.1-3.34m3.38-2.23l5.1-3.34m3.4-2.22l2.53-1.68" stroke="#c92d39" stroke-width="2" fill="none"/><path d="M927 1056.44c0 10.87-13.43 19.68-30 19.68s-30-8.8-30-19.68c0-10.88 13.43-19.7 30-19.7s30 8.82 30 19.7zm-51.22-13.93l42.44 27.86m-42.44 0l42.44-27.85" fill-opacity="0"/><path d="M925.26 1063.05v.03l-1.6 2.38-2.05 2.2m-3.08 2.44l-.54.4-4.62 2.44m-3.76 1.24l-2.22.73-3.53.56m-3.9.56l-2.95.1-2.95-.24m-3.92-.32l-.6-.05-5.15-1.3m-3.68-1.36l-2.88-1.26-2.32-1.52m-3.08-2.44l-1.2-1.12-1.88-2.42-.56-1.06m-1.44-3.65l-.3-2-.04-.93.18-2.2.2-.73m1.35-3.67l.02-.04 1.58-2.38 2.06-2.2m3.08-2.45l.54-.4 4.62-2.44m3.76-1.24l2.22-.74 3.53-.54m3.9-.57l2.95-.1 2.94.24m3.93.32l.6.05 5.15 1.3m3.68 1.36l2.88 1.27 2.3 1.52m3.1 2.43l1.2 1.12 1.88 2.43.56 1.05m1.43 3.66l.32 2 .03.94-.18 2.18-.2.74m-50.84-16.85l2.55 1.7m3.4 2.2l5.1 3.35m3.38 2.23l5.1 3.34m3.4 2.23l5.1 3.34m3.38 2.22l5.1 3.34m3.4 2.23l2.54 1.66m-42.44 0l2.55-1.67m3.4-2.24l5.1-3.34m3.38-2.23l5.1-3.35m3.4-2.23l5.1-3.34m3.38-2.23l5.1-3.34m3.4-2.2l2.54-1.7" stroke="#c92d39" stroke-width="2" fill="none"/><path d="M1359 565l-32 .65-26.64 1.66-22.96 2.4-20.45 3.03-18.9 3.6-18.2 4.27-18.76 5.24-22.13 7.2-93.06 33.52-18.74 5.24-18.22 4.28-18.9 3.6-20.44 3-22.96 2.4-26.64 1.67-13.77.28" fill="none"/><path d="M1359 565l-3.03.06m-4.04.08l-6.05.13m-4.03.08l-6.05.12m-4.04.08l-4.76.1-1.3.08m-4 .25l-6.05.38m-4.03.25l-6.04.38m-4.03.25l-1.2.08-4.82.5m-4.02.43l-6 .63m-4.02.42l-4.08.43-1.93.3m-4 .58l-5.98.9m-4 .57l-4.55.68-1.43.27m-3.96.75l-5.94 1.14m-3.97.74l-3.6.68-2.32.55m-3.93.92l-5.9 1.38m-3.92.92l-2.14.5-3.7 1.04m-3.9 1.08l-5.83 1.63m-3.87 1.1l-1.44.4-4.35 1.4m-3.83 1.26l-5.76 1.88m-3.83 1.25l-4.36 1.42-1.38.5m-3.8 1.37l-5.7 2.05m-3.8 1.37l-5.7 2.05m-3.8 1.35l-5.7 2.05m-3.78 1.37l-5.7 2.05m-3.8 1.37l-5.7 2.04m-3.78 1.36l-5.7 2.05m-3.8 1.37l-5.7 2.05m-3.8 1.37l-5.68 2.05m-3.8 1.36l-5.7 2.05m-3.8 1.37l-2.45.9-3.3.9m-3.88 1.1l-5.83 1.63m-3.9 1.1l-1.84.5-4.03.95m-3.93.92l-5.9 1.38m-3.92.92l-.44.1-5.5 1.05m-3.97.76l-5.94 1.13m-3.97.75l-6 .88m-3.98.6l-6 .87m-3.98.6l-6.02.62m-4 .42l-6.03.63m-4 .42l-2.9.3-3.14.2m-4.02.24l-6.04.37m-4.03.26l-6.03.38m-4.03.23l-6.05.12m-4.04.07l-3.03.06" stroke="#c92d39" stroke-width="2" fill="none"/><path d="M1360 565.98l-1 .02-.03-2 1.03-.02zM945.6 651.68l-14.37-4.35 14.17-4.92z" fill="#c92d39"/><path d="M946.62 653.04L928 647.4l18.38-6.4zm-12.15-5.77l10.1 3.05-.14-6.5z" fill="#c92d39"/><path d="M1359 565l-5.84.12-5.65.36-5.48.57-5.37.8-5.25 1-5.18 1.2-5.12 1.44-5.08 1.65-5.07 1.88-5.07 2.13-5.1 2.4-5.13 2.7-5.22 3-5.3 3.37-5.44 3.78-5.6 4.25-5.78 4.8-6 5.4-6.32 6.2-6.66 7.1-7.1 8.23-7.67 9.68-8.4 11.56-9.38 14.15-10.84 17.92-13.22 24.1-18.56 37.58-79.92 174.25-13.22 24.12-10.83 17.92-9.38 14.14-8.4 11.58-7.65 9.68-7.1 8.24-6.67 7.1-6.3 6.18-6.02 5.42-5.8 4.8-5.57 4.23-5.43 3.78-5.3 3.38-5.22 3-5.14 2.7-5.08 2.4-5.07 2.13-5.07 1.9-5.08 1.64-5.12 1.43-5.18 1.22-5.25 1-4.17.6" fill="none"/><path d="M1359 565l-3.02.06m-4.02.14l-4.45.28-1.56.16m-4 .43l-5.3.78-.66.12m-3.95.76l-.63.12-5.18 1.2-.07.03m-3.87 1.08l-1.18.33-4.58 1.48m-3.77 1.38l-1.8.67-3.8 1.6m-3.66 1.66l-2.7 1.26-2.7 1.4m-3.55 1.92l-4.12 2.38-1.07.68m-3.4 2.16l-.83.53-4.14 2.88m-3.26 2.4l-3.63 2.75-1.12.93m-3.1 2.57l-1.56 1.3-2.98 2.67m-3 2.7l-.03.04-4.26 4.18m-2.83 2.85l-4.12 4.38m-2.7 2.98l-3.95 4.57m-2.6 3.06l-3.75 4.72m-2.5 3.16l-1 1.28-2.6 3.56m-2.36 3.25l-3.44 4.75-.1.14m-2.22 3.35l-3.33 5.04m-2.23 3.35l-1.5 2.27-1.7 2.82m-2.1 3.43l-3.1 5.17m-2.1 3.44l-1.84 3.05-1.2 2.15m-1.92 3.53l-2.9 5.3m-1.93 3.52l-2.9 5.3m-1.93 3.5l-.43.8-2.27 4.6m-1.78 3.6l-2.7 5.42m-1.77 3.6l-2.67 5.42m-1.78 3.6l-2.67 5.4m-1.77 3.62l-1.15 2.32-1.44 3.13m-1.67 3.66l-2.52 5.5m-1.67 3.64l-2.52 5.5m-1.68 3.64l-2.5 5.5m-1.7 3.64l-2.5 5.5m-1.68 3.64l-2.5 5.5m-1.7 3.64l-2.5 5.5m-1.68 3.64l-2.52 5.5m-1.67 3.64l-2.52 5.5m-1.67 3.64l-2.5 5.5m-1.7 3.64l-2.5 5.5m-1.68 3.64l-2.52 5.48m-1.67 3.66l-2.52 5.48m-1.67 3.66l-2.52 5.48m-1.68 3.66l-2.5 5.48m-1.7 3.66l-2.5 5.48m-1.68 3.66l-2.52 5.48m-1.68 3.66l-2.52 5.48m-1.67 3.66l-2.5 5.48m-1.68 3.66l-1.36 2.95-1.34 2.44m-1.93 3.53l-2.9 5.3m-1.94 3.52l-2.9 5.3m-1.94 3.5l-.28.53-2.82 4.66m-2.08 3.45l-3.12 5.16m-2.08 3.46l-.73 1.2-2.54 3.86m-2.23 3.35l-3.33 5.02m-2.3 3.3l-3.53 4.9m-2.36 3.24l-1.47 2.04-2.18 2.76m-2.5 3.15l-2.98 3.76-.8.93m-2.63 3.03l-3.68 4.27-.27.3m-2.76 2.92l-3.64 3.88-.5.5m-2.9 2.82l-2.9 2.86-1.45 1.3m-3 2.7l-1.57 1.42-3 2.5m-3.12 2.54l-4.8 3.65m-3.3 2.3l-2.6 1.8-2.4 1.55m-3.42 2.13l-4.7 2.7-.53.3m-3.56 1.86l-1.03.54-4.4 2.07m-3.7 1.6l-2.05.86-3.56 1.33m-3.8 1.3l-2.8.9-3 .85m-3.88 1l-3.42.8-2.48.48m-3.96.7l-2.98.45" stroke="#c92d39" stroke-width="2" fill="none"/><path d="M1360 565.94l-.95.06-.1-2 1.05-.06zM945.78 1059.88l-14.55-3.66 13.92-5.6z" fill="#c92d39"/><path d="M946.87 1061.2l-18.87-4.76 18.05-7.25zm-12.4-5.2l10.2 2.57-.43-6.5z" fill="#c92d39"/><path d="M928 613.7c0 10.86-13.43 19.67-30 19.67s-30-8.8-30-19.68c0-10.9 13.43-19.7 30-19.7s30 8.8 30 19.7zm-51.22-13.94l42.44 27.85m-42.44 0l42.44-27.84" fill-opacity="0"/><path d="M926.26 620.3v.03l-1.6 2.38-2.05 2.2m-3.08 2.45l-.54.4-4.62 2.44m-3.76 1.23l-2.22.73-3.53.55m-3.9.57l-2.95.1-2.95-.24m-3.92-.32l-.6-.04-5.15-1.3m-3.68-1.37l-2.88-1.27-2.32-1.52m-3.08-2.43l-1.2-1.12-1.88-2.42-.56-1.06m-1.44-3.65l-.3-2-.04-.93.18-2.2.2-.74m1.35-3.68l.02-.04 1.58-2.37 2.06-2.2m3.08-2.45l.54-.4 4.62-2.44m3.76-1.24l2.22-.73 3.53-.53m3.9-.57l2.95-.1 2.94.24m3.93.33l.6.05 5.15 1.3m3.68 1.36l2.88 1.27 2.3 1.52m3.1 2.43l1.2 1.12 1.88 2.43.56 1.05m1.43 3.66l.32 2 .03.93-.18 2.17-.2.74m-50.84-16.84l2.55 1.68m3.4 2.22l5.1 3.34m3.38 2.23l5.1 3.34m3.4 2.23l5.1 3.34m3.38 2.23l5.1 3.34m3.4 2.24l2.54 1.67m-42.44 0l2.55-1.66m3.4-2.23l5.1-3.33m3.38-2.23l5.1-3.34m3.4-2.23l5.1-3.34m3.38-2.23l5.1-3.34m3.4-2.22l2.54-1.68" stroke="#c92d39" stroke-width="2" fill="none"/><path d="M926 650.44c0 10.87-13.43 19.68-30 19.68s-30-8.8-30-19.68c0-10.88 13.43-19.7 30-19.7s30 8.82 30 19.7zm-51.22-13.93l42.44 27.86m-42.44 0l42.44-27.85" fill-opacity="0"/><path d="M924.26 657.05v.03l-1.6 2.38-2.05 2.2m-3.08 2.44l-.54.4-4.62 2.44m-3.76 1.24l-2.22.73-3.53.56m-3.9.56l-2.95.1-2.95-.24m-3.92-.32l-.6-.05-5.15-1.3m-3.68-1.36l-2.88-1.26-2.32-1.52m-3.08-2.44l-1.2-1.12-1.88-2.42-.56-1.06m-1.44-3.65l-.3-2-.04-.93.18-2.2.2-.73m1.36-3.67v-.04l1.6-2.38 2.05-2.2m3.08-2.45l.54-.4 4.62-2.44m3.76-1.24l2.22-.74 3.53-.54m3.9-.57l2.95-.1 2.95.24m3.92.32l.6.05 5.15 1.3m3.68 1.36l2.88 1.27 2.32 1.52m3.08 2.43l1.2 1.12 1.88 2.43.56 1.05m1.44 3.66l.3 2 .04.94-.18 2.18-.2.74M874.8 636.5l2.55 1.7m3.4 2.2l5.1 3.35m3.38 2.23l5.1 3.34m3.4 2.23l5.1 3.34m3.38 2.22l5.1 3.34m3.4 2.23l2.54 1.66m-42.44 0l2.55-1.67m3.4-2.24l5.1-3.34m3.38-2.23l5.1-3.35m3.4-2.23l5.1-3.34m3.38-2.23l5.1-3.34m3.4-2.2l2.54-1.7" stroke="#c92d39" stroke-width="2" fill="none"/><defs><path d="M212-179c-10-28-35-45-73-45-59 0-87 40-87 99 0 60 29 101 89 101 43 0 62-24 78-52l27 14C228-24 195 4 139 4 59 4 22-46 18-125c-6-104 99-153 187-111 19 9 31 26 39 46" id="aV"/><path d="M106-169C34-169 62-67 57 0H25v-261h32l-1 103c12-21 28-36 61-36 89 0 53 116 60 194h-32v-121c2-32-8-49-39-48" id="aW"/><path d="M141-36C126-15 110 5 73 4 37 3 15-17 15-53c-1-64 63-63 125-63 3-35-9-54-41-54-24 1-41 7-42 31l-33-3c5-37 33-52 76-52 45 0 72 20 72 64v82c-1 20 7 32 28 27v20c-31 9-61-2-59-35zM48-53c0 20 12 33 32 33 41-3 63-29 60-74-43 2-92-5-92 41" id="aX"/><path d="M24-231v-30h32v30H24zM24 0v-190h32V0H24" id="aY"/><path d="M117-194c89-4 53 116 60 194h-32v-121c0-31-8-49-39-48C34-167 62-67 57 0H25l-1-190h30c1 10-1 24 2 32 11-22 29-35 61-36" id="aZ"/><g id="a"><use transform="matrix(0.05,0,0,0.05,0,0)" xlink:href="#aV"/><use transform="matrix(0.05,0,0,0.05,12.950000000000001,0)" xlink:href="#aW"/><use transform="matrix(0.05,0,0,0.05,22.950000000000003,0)" xlink:href="#aX"/><use transform="matrix(0.05,0,0,0.05,32.95,0)" xlink:href="#aY"/><use transform="matrix(0.05,0,0,0.05,36.900000000000006,0)" xlink:href="#aZ"/></g><path d="M205 0l-28-72H64L36 0H1l101-248h38L239 0h-34zm-38-99l-47-123c-12 45-31 82-46 123h93" id="ba"/><use transform="matrix(0.05,0,0,0.05,0,0)" xlink:href="#ba" id="b"/><path d="M100-194c62-1 85 37 85 99 1 63-27 99-86 99S16-35 15-95c0-66 28-99 85-99zM99-20c44 1 53-31 53-75 0-43-8-75-51-75s-53 32-53 75 10 74 51 75" id="bb"/><path d="M85-194c31 0 48 13 60 33l-1-100h32l1 261h-30c-2-10 0-23-3-31C134-8 116 4 85 4 32 4 16-35 15-94c0-66 23-100 70-100zm9 24c-40 0-46 34-46 75 0 40 6 74 45 74 42 0 51-32 51-76 0-42-9-74-50-73" id="bc"/><path d="M100-194c63 0 86 42 84 106H49c0 40 14 67 53 68 26 1 43-12 49-29l28 8c-11 28-37 45-77 45C44 4 14-33 15-96c1-61 26-98 85-98zm52 81c6-60-76-77-97-28-3 7-6 17-6 28h103" id="bd"/><g id="c"><use transform="matrix(0.05,0,0,0.05,0,0)" xlink:href="#aZ"/><use transform="matrix(0.05,0,0,0.05,10,0)" xlink:href="#bb"/><use transform="matrix(0.05,0,0,0.05,20,0)" xlink:href="#bc"/><use transform="matrix(0.05,0,0,0.05,30,0)" xlink:href="#bd"/></g><path d="M160-131c35 5 61 23 61 61C221 17 115-2 30 0v-248c76 3 177-17 177 60 0 33-19 50-47 57zm-97-11c50-1 110 9 110-42 0-47-63-36-110-37v79zm0 115c55-2 124 14 124-45 0-56-70-42-124-44v89" id="be"/><use transform="matrix(0.05,0,0,0.05,0,0)" xlink:href="#be" id="d"/><path d="M114-163C36-179 61-72 57 0H25l-1-190h30c1 12-1 29 2 39 6-27 23-49 58-41v29" id="bf"/><path d="M135-143c-3-34-86-38-87 0 15 53 115 12 119 90S17 21 10-45l28-5c4 36 97 45 98 0-10-56-113-15-118-90-4-57 82-63 122-42 12 7 21 19 24 35" id="bg"/><g id="e"><use transform="matrix(0.05,0,0,0.05,0,0)" xlink:href="#aV"/><use transform="matrix(0.05,0,0,0.05,12.950000000000001,0)" xlink:href="#bf"/><use transform="matrix(0.05,0,0,0.05,18.900000000000002,0)" xlink:href="#bb"/><use transform="matrix(0.05,0,0,0.05,28.900000000000002,0)" xlink:href="#bg"/><use transform="matrix(0.05,0,0,0.05,37.900000000000006,0)" xlink:href="#bg"/></g><path d="M96-169c-40 0-48 33-48 73s9 75 48 75c24 0 41-14 43-38l32 2c-6 37-31 61-74 61-59 0-76-41-82-99-10-93 101-131 147-64 4 7 5 14 7 22l-32 3c-4-21-16-35-41-35" id="bh"/><g id="f"><use transform="matrix(0.05,0,0,0.05,0,0)" xlink:href="#bh"/><use transform="matrix(0.05,0,0,0.05,9,0)" xlink:href="#aW"/><use transform="matrix(0.05,0,0,0.05,19,0)" xlink:href="#aX"/><use transform="matrix(0.05,0,0,0.05,29,0)" xlink:href="#aY"/><use transform="matrix(0.05,0,0,0.05,32.95,0)" xlink:href="#aZ"/></g><g id="g"><use transform="matrix(0.05,0,0,0.05,0,0)" xlink:href="#bg"/><use transform="matrix(0.05,0,0,0.05,9,0)" xlink:href="#bd"/><use transform="matrix(0.05,0,0,0.05,19,0)" xlink:href="#bg"/><use transform="matrix(0.05,0,0,0.05,28,0)" xlink:href="#bg"/><use transform="matrix(0.05,0,0,0.05,37,0)" xlink:href="#aY"/><use transform="matrix(0.05,0,0,0.05,40.95,0)" xlink:href="#bb"/><use transform="matrix(0.05,0,0,0.05,50.95,0)" xlink:href="#aZ"/></g><path d="M115-194c55 1 70 41 70 98S169 2 115 4C84 4 66-9 55-30l1 105H24l-1-265h31l2 30c10-21 28-34 59-34zm-8 174c40 0 45-34 45-75s-6-73-45-74c-42 0-51 32-51 76 0 43 10 73 51 73" id="bi"/><path d="M59-47c-2 24 18 29 38 22v24C64 9 27 4 27-40v-127H5v-23h24l9-43h21v43h35v23H59v120" id="bj"/><g id="h"><use transform="matrix(0.05,0,0,0.05,0,0)" xlink:href="#bi"/><use transform="matrix(0.05,0,0,0.05,10,0)" xlink:href="#bd"/><use transform="matrix(0.05,0,0,0.05,20,0)" xlink:href="#bf"/><use transform="matrix(0.05,0,0,0.05,25.950000000000003,0)" xlink:href="#bg"/><use transform="matrix(0.05,0,0,0.05,34.95,0)" xlink:href="#aY"/><use transform="matrix(0.05,0,0,0.05,38.900000000000006,0)" xlink:href="#bg"/><use transform="matrix(0.05,0,0,0.05,47.900000000000006,0)" xlink:href="#bj"/><use transform="matrix(0.05,0,0,0.05,52.900000000000006,0)" xlink:href="#bd"/><use transform="matrix(0.05,0,0,0.05,62.900000000000006,0)" xlink:href="#aZ"/><use transform="matrix(0.05,0,0,0.05,72.9,0)" xlink:href="#bh"/><use transform="matrix(0.05,0,0,0.05,81.9,0)" xlink:href="#bd"/></g><use transform="matrix(0.05,0,0,0.05,0,0)" xlink:href="#be" id="i"/><g id="j"><use transform="matrix(0.05,0,0,0.05,0,0)" xlink:href="#ba"/><use transform="matrix(0.05,0,0,0.05,12,0)" xlink:href="#bg"/></g><g id="k"><use transform="matrix(0.05,0,0,0.05,0,0)" xlink:href="#bh"/><use transform="matrix(0.05,0,0,0.05,9,0)" xlink:href="#aW"/><use transform="matrix(0.05,0,0,0.05,19,0)" xlink:href="#aX"/><use transform="matrix(0.05,0,0,0.05,29,0)" xlink:href="#aY"/><use transform="matrix(0.05,0,0,0.05,32.95,0)" xlink:href="#aZ"/></g><use transform="matrix(0.05,0,0,0.05,0,0)" xlink:href="#be" id="l"/><path d="M177-190C167-65 218 103 67 71c-23-6-38-20-44-43l32-5c15 47 100 32 89-28v-30C133-14 115 1 83 1 29 1 15-40 15-95c0-56 16-97 71-98 29-1 48 16 59 35 1-10 0-23 2-32h30zM94-22c36 0 50-32 50-73 0-42-14-75-50-75-39 0-46 34-46 75s6 73 46 73" id="bk"/><g id="m"><use transform="matrix(0.05,0,0,0.05,0,0)" xlink:href="#bi"/><use transform="matrix(0.05,0,0,0.05,10,0)" xlink:href="#bf"/><use transform="matrix(0.05,0,0,0.05,15.949999999999998,0)" xlink:href="#bb"/><use transform="matrix(0.05,0,0,0.05,25.950000000000003,0)" xlink:href="#bk"/><use transform="matrix(0.05,0,0,0.05,35.95,0)" xlink:href="#bf"/><use transform="matrix(0.05,0,0,0.05,41.900000000000006,0)" xlink:href="#bd"/><use transform="matrix(0.05,0,0,0.05,51.900000000000006,0)" xlink:href="#bg"/><use transform="matrix(0.05,0,0,0.05,60.900000000000006,0)" xlink:href="#bg"/><use transform="matrix(0.05,0,0,0.05,69.9,0)" xlink:href="#bd"/><use transform="matrix(0.05,0,0,0.05,79.9,0)" xlink:href="#bg"/></g><g id="n"><use transform="matrix(0.05,0,0,0.05,0,0)" xlink:href="#aX"/><use transform="matrix(0.05,0,0,0.05,10,0)" xlink:href="#aZ"/><use transform="matrix(0.05,0,0,0.05,20,0)" xlink:href="#bc"/></g><g id="o"><use transform="matrix(0.05,0,0,0.05,0,0)" xlink:href="#aY"/><use transform="matrix(0.05,0,0,0.05,3.95,0)" xlink:href="#bj"/><use transform="matrix(0.05,0,0,0.05,8.95,0)" xlink:href="#bg"/></g><g id="p"><use transform="matrix(0.05,0,0,0.05,0,0)" xlink:href="#aW"/><use transform="matrix(0.05,0,0,0.05,10,0)" xlink:href="#bd"/><use transform="matrix(0.05,0,0,0.05,20,0)" xlink:href="#aY"/><use transform="matrix(0.05,0,0,0.05,23.95,0)" xlink:href="#bk"/><use transform="matrix(0.05,0,0,0.05,33.95,0)" xlink:href="#aW"/><use transform="matrix(0.05,0,0,0.05,43.95,0)" xlink:href="#bj"/></g><g id="q"><use transform="matrix(0.05,0,0,0.05,0,0)" xlink:href="#bk"/><use transform="matrix(0.05,0,0,0.05,10,0)" xlink:href="#bb"/><use transform="matrix(0.05,0,0,0.05,20,0)" xlink:href="#bd"/><use transform="matrix(0.05,0,0,0.05,30,0)" xlink:href="#bg"/></g><g id="r"><use transform="matrix(0.05,0,0,0.05,0,0)" xlink:href="#bi"/><use transform="matrix(0.05,0,0,0.05,10,0)" xlink:href="#aX"/><use transform="matrix(0.05,0,0,0.05,20,0)" xlink:href="#bg"/><use transform="matrix(0.05,0,0,0.05,29,0)" xlink:href="#bj"/></g><path d="M24-231v-30h32v30H24zM-9 49c24 4 33-6 33-30v-209h32V24c2 40-23 58-65 49V49" id="bl"/><use transform="matrix(0.05,0,0,0.05,0,0)" xlink:href="#bl" id="s"/><path d="M118-107v75H92v-75H18v-26h74v-75h26v75h74v26h-74" id="bm"/><use transform="matrix(0.05,0,0,0.05,0,0)" xlink:href="#bm" id="t"/><path d="M210-169c-67 3-38 105-44 169h-31v-121c0-29-5-50-35-48C34-165 62-65 56 0H25l-1-190h30c1 10-1 24 2 32 10-44 99-50 107 0 11-21 27-35 58-36 85-2 47 119 55 194h-31v-121c0-29-5-49-35-48" id="bn"/><path d="M141 0L90-78 38 0H4l68-98-65-92h35l48 74 47-74h35l-64 92 68 98h-35" id="bo"/><path d="M233-177c-1 41-23 64-60 70L243 0h-38l-65-103H63V0H30v-248c88 3 205-21 203 71zM63-129c60-2 137 13 137-47 0-61-80-42-137-45v92" id="bp"/><path d="M68-38c1 34 0 65-14 84H32c9-13 17-26 17-46H33v-38h35" id="bq"/><g id="u"><use transform="matrix(0.05,0,0,0.05,0,0)" xlink:href="#bn"/><use transform="matrix(0.05,0,0,0.05,14.950000000000001,0)" xlink:href="#aX"/><use transform="matrix(0.05,0,0,0.05,24.950000000000003,0)" xlink:href="#bo"/><use transform="matrix(0.05,0,0,0.05,33.95,0)" xlink:href="#bp"/><use transform="matrix(0.05,0,0,0.05,46.900000000000006,0)" xlink:href="#bd"/><use transform="matrix(0.05,0,0,0.05,56.900000000000006,0)" xlink:href="#bb"/><use transform="matrix(0.05,0,0,0.05,66.9,0)" xlink:href="#bf"/><use transform="matrix(0.05,0,0,0.05,72.85000000000001,0)" xlink:href="#bk"/><use transform="matrix(0.034999999999999996,0,0,0.034999999999999996,82.85000000000001,2.5199999999999996)" xlink:href="#be"/><use transform="matrix(0.05,0,0,0.05,91.25,0)" xlink:href="#bq"/></g><g id="v"><use transform="matrix(0.05,0,0,0.05,0,0)" xlink:href="#bd"/><use transform="matrix(0.05,0,0,0.05,10,0)" xlink:href="#aX"/><use transform="matrix(0.05,0,0,0.05,20,0)" xlink:href="#bh"/><use transform="matrix(0.05,0,0,0.05,29,0)" xlink:href="#aW"/></g><g id="w"><use transform="matrix(0.05,0,0,0.05,0,0)" xlink:href="#aZ"/><use transform="matrix(0.05,0,0,0.05,10,0)" xlink:href="#bb"/><use transform="matrix(0.05,0,0,0.05,20,0)" xlink:href="#bc"/><use transform="matrix(0.05,0,0,0.05,30,0)" xlink:href="#bd"/></g><path d="M206 0h-36l-40-164L89 0H53L-1-190h32L70-26l43-164h34l41 164 42-164h31" id="br"/><path d="M24 0v-261h32V0H24" id="bs"/><g id="x"><use transform="matrix(0.05,0,0,0.05,0,0)" xlink:href="#br"/><use transform="matrix(0.05,0,0,0.05,12.950000000000001,0)" xlink:href="#aY"/><use transform="matrix(0.05,0,0,0.05,16.900000000000002,0)" xlink:href="#bs"/><use transform="matrix(0.05,0,0,0.05,20.85,0)" xlink:href="#bs"/></g><path d="M84 4C-5 8 30-112 23-190h32v120c0 31 7 50 39 49 72-2 45-101 50-169h31l1 190h-30c-1-10 1-25-2-33-11 22-28 36-60 37" id="bt"/><g id="y"><use transform="matrix(0.05,0,0,0.05,0,0)" xlink:href="#bt"/><use transform="matrix(0.05,0,0,0.05,10,0)" xlink:href="#bi"/><use transform="matrix(0.05,0,0,0.05,20,0)" xlink:href="#bc"/><use transform="matrix(0.05,0,0,0.05,30,0)" xlink:href="#aX"/><use transform="matrix(0.05,0,0,0.05,40,0)" xlink:href="#bj"/><use transform="matrix(0.05,0,0,0.05,45,0)" xlink:href="#bd"/></g><g id="z"><use transform="matrix(0.05,0,0,0.05,0,0)" xlink:href="#bj"/><use transform="matrix(0.05,0,0,0.05,5,0)" xlink:href="#aW"/><use transform="matrix(0.05,0,0,0.05,15,0)" xlink:href="#bd"/></g><g id="A"><use transform="matrix(0.05,0,0,0.05,0,0)" xlink:href="#bg"/><use transform="matrix(0.05,0,0,0.05,9,0)" xlink:href="#bj"/><use transform="matrix(0.05,0,0,0.05,14,0)" xlink:href="#aX"/><use transform="matrix(0.05,0,0,0.05,24,0)" xlink:href="#bj"/><use transform="matrix(0.05,0,0,0.05,29,0)" xlink:href="#bt"/><use transform="matrix(0.05,0,0,0.05,39,0)" xlink:href="#bg"/></g><path d="M101-234c-31-9-42 10-38 44h38v23H63V0H32v-167H5v-23h27c-7-52 17-82 69-68v24" id="bu"/><g id="B"><use transform="matrix(0.05,0,0,0.05,0,0)" xlink:href="#bb"/><use transform="matrix(0.05,0,0,0.05,10,0)" xlink:href="#bu"/></g><g id="C"><use transform="matrix(0.05,0,0,0.05,0,0)" xlink:href="#bj"/><use transform="matrix(0.05,0,0,0.05,5,0)" xlink:href="#aW"/><use transform="matrix(0.05,0,0,0.05,15,0)" xlink:href="#bd"/></g><g id="D"><use transform="matrix(0.05,0,0,0.05,0,0)" xlink:href="#bh"/><use transform="matrix(0.05,0,0,0.05,9,0)" xlink:href="#bb"/><use transform="matrix(0.05,0,0,0.05,19,0)" xlink:href="#bf"/><use transform="matrix(0.05,0,0,0.05,24.95,0)" xlink:href="#bf"/><use transform="matrix(0.05,0,0,0.05,30.899999999999995,0)" xlink:href="#bd"/><use transform="matrix(0.05,0,0,0.05,40.9,0)" xlink:href="#bg"/><use transform="matrix(0.05,0,0,0.05,49.9,0)" xlink:href="#bi"/><use transform="matrix(0.05,0,0,0.05,59.900000000000006,0)" xlink:href="#bb"/><use transform="matrix(0.05,0,0,0.05,69.9,0)" xlink:href="#aZ"/><use transform="matrix(0.05,0,0,0.05,79.9,0)" xlink:href="#bc"/><use transform="matrix(0.05,0,0,0.05,89.9,0)" xlink:href="#aY"/><use transform="matrix(0.05,0,0,0.05,93.85000000000001,0)" xlink:href="#aZ"/><use transform="matrix(0.05,0,0,0.05,103.85000000000001,0)" xlink:href="#bk"/></g><g id="E"><use transform="matrix(0.05,0,0,0.05,0,0)" xlink:href="#bh"/><use transform="matrix(0.05,0,0,0.05,9,0)" xlink:href="#bf"/><use transform="matrix(0.05,0,0,0.05,14.949999999999998,0)" xlink:href="#bb"/><use transform="matrix(0.05,0,0,0.05,24.95,0)" xlink:href="#bg"/><use transform="matrix(0.05,0,0,0.05,33.95,0)" xlink:href="#bg"/></g><g id="F"><use transform="matrix(0.05,0,0,0.05,0,0)" xlink:href="#bj"/><use transform="matrix(0.05,0,0,0.05,5,0)" xlink:href="#bf"/><use transform="matrix(0.05,0,0,0.05,10.95,0)" xlink:href="#aX"/><use transform="matrix(0.05,0,0,0.05,20.95,0)" xlink:href="#aZ"/><use transform="matrix(0.05,0,0,0.05,30.950000000000003,0)" xlink:href="#bg"/><use transform="matrix(0.05,0,0,0.05,39.95,0)" xlink:href="#bu"/><use transform="matrix(0.05,0,0,0.05,44.95,0)" xlink:href="#bd"/><use transform="matrix(0.05,0,0,0.05,54.95,0)" xlink:href="#bf"/><use transform="matrix(0.05,0,0,0.05,60.900000000000006,0)" xlink:href="#bg"/></g><g id="G"><use transform="matrix(0.05,0,0,0.05,0,0)" xlink:href="#aX"/><use transform="matrix(0.05,0,0,0.05,10,0)" xlink:href="#aZ"/><use transform="matrix(0.05,0,0,0.05,20,0)" xlink:href="#bc"/></g><path d="M143 0L79-87 56-68V0H24v-261h32v163l83-92h37l-77 82L181 0h-38" id="bv"/><g id="H"><use transform="matrix(0.05,0,0,0.05,0,0)" xlink:href="#bn"/><use transform="matrix(0.05,0,0,0.05,14.950000000000001,0)" xlink:href="#aX"/><use transform="matrix(0.05,0,0,0.05,24.950000000000003,0)" xlink:href="#bf"/><use transform="matrix(0.05,0,0,0.05,30.900000000000002,0)" xlink:href="#bv"/></g><g id="I"><use transform="matrix(0.05,0,0,0.05,0,0)" xlink:href="#aY"/><use transform="matrix(0.05,0,0,0.05,3.95,0)" xlink:href="#bj"/></g><g id="J"><use transform="matrix(0.05,0,0,0.05,0,0)" xlink:href="#aX"/><use transform="matrix(0.05,0,0,0.05,10,0)" xlink:href="#bg"/></g><path d="M33 0v-38h34V0H33" id="bw"/><g id="K"><use transform="matrix(0.05,0,0,0.05,0,0)" xlink:href="#bh"/><use transform="matrix(0.05,0,0,0.05,9,0)" xlink:href="#bb"/><use transform="matrix(0.05,0,0,0.05,19,0)" xlink:href="#bn"/><use transform="matrix(0.05,0,0,0.05,33.95,0)" xlink:href="#bi"/><use transform="matrix(0.05,0,0,0.05,43.95,0)" xlink:href="#bs"/><use transform="matrix(0.05,0,0,0.05,47.900000000000006,0)" xlink:href="#bd"/><use transform="matrix(0.05,0,0,0.05,57.900000000000006,0)" xlink:href="#bj"/><use transform="matrix(0.05,0,0,0.05,62.900000000000006,0)" xlink:href="#bd"/><use transform="matrix(0.05,0,0,0.05,72.9,0)" xlink:href="#bc"/><use transform="matrix(0.05,0,0,0.05,82.9,0)" xlink:href="#bw"/></g><path d="M190 0L58-211 59 0H30v-248h39L202-35l-2-213h31V0h-41" id="bx"/><g id="M"><use transform="matrix(0.05,0,0,0.05,0,0)" xlink:href="#bx"/><use transform="matrix(0.05,0,0,0.05,12.950000000000001,0)" xlink:href="#bb"/></g><g id="N"><use transform="matrix(0.05,0,0,0.05,0,0)" xlink:href="#bu"/><use transform="matrix(0.05,0,0,0.05,5,0)" xlink:href="#bt"/><use transform="matrix(0.05,0,0,0.05,15,0)" xlink:href="#bf"/><use transform="matrix(0.05,0,0,0.05,20.95,0)" xlink:href="#bj"/><use transform="matrix(0.05,0,0,0.05,25.950000000000003,0)" xlink:href="#aW"/><use transform="matrix(0.05,0,0,0.05,35.95,0)" xlink:href="#bd"/><use transform="matrix(0.05,0,0,0.05,45.95,0)" xlink:href="#bf"/></g><g id="O"><use transform="matrix(0.05,0,0,0.05,0,0)" xlink:href="#br"/><use transform="matrix(0.05,0,0,0.05,12.950000000000001,0)" xlink:href="#bb"/><use transform="matrix(0.05,0,0,0.05,22.950000000000003,0)" xlink:href="#bf"/><use transform="matrix(0.05,0,0,0.05,28.900000000000002,0)" xlink:href="#bv"/></g><g id="P"><use transform="matrix(0.05,0,0,0.05,0,0)" xlink:href="#br"/><use transform="matrix(0.05,0,0,0.05,12.950000000000001,0)" xlink:href="#aY"/><use transform="matrix(0.05,0,0,0.05,16.900000000000002,0)" xlink:href="#bs"/><use transform="matrix(0.05,0,0,0.05,20.85,0)" xlink:href="#bs"/></g><g id="Q"><use transform="matrix(0.05,0,0,0.05,0,0)" xlink:href="#aZ"/><use transform="matrix(0.05,0,0,0.05,10,0)" xlink:href="#bd"/><use transform="matrix(0.05,0,0,0.05,20,0)" xlink:href="#bd"/><use transform="matrix(0.05,0,0,0.05,30,0)" xlink:href="#bc"/></g><g id="R"><use transform="matrix(0.05,0,0,0.05,0,0)" xlink:href="#bj"/><use transform="matrix(0.05,0,0,0.05,5,0)" xlink:href="#bb"/></g><path d="M115-194c53 0 69 39 70 98 0 66-23 100-70 100C84 3 66-7 56-30L54 0H23l1-261h32v101c10-23 28-34 59-34zm-8 174c40 0 45-34 45-75 0-40-5-75-45-74-42 0-51 32-51 76 0 43 10 73 51 73" id="by"/><g id="S"><use transform="matrix(0.05,0,0,0.05,0,0)" xlink:href="#by"/><use transform="matrix(0.05,0,0,0.05,10,0)" xlink:href="#bd"/></g><g id="T"><use transform="matrix(0.05,0,0,0.05,0,0)" xlink:href="#bc"/><use transform="matrix(0.05,0,0,0.05,10,0)" xlink:href="#bb"/><use transform="matrix(0.05,0,0,0.05,20,0)" xlink:href="#aZ"/><use transform="matrix(0.05,0,0,0.05,30,0)" xlink:href="#bd"/></g><g id="U"><use transform="matrix(0.05,0,0,0.05,0,0)" xlink:href="#bu"/><use transform="matrix(0.05,0,0,0.05,5,0)" xlink:href="#bb"/><use transform="matrix(0.05,0,0,0.05,15,0)" xlink:href="#bf"/></g><g id="V"><use transform="matrix(0.05,0,0,0.05,0,0)" xlink:href="#bj"/><use transform="matrix(0.05,0,0,0.05,5,0)" xlink:href="#aW"/><use transform="matrix(0.05,0,0,0.05,15,0)" xlink:href="#bd"/><use transform="matrix(0.05,0,0,0.05,25,0)" xlink:href="#bg"/><use transform="matrix(0.05,0,0,0.05,34,0)" xlink:href="#bd"/></g><g id="W"><use transform="matrix(0.05,0,0,0.05,0,0)" xlink:href="#bj"/><use transform="matrix(0.05,0,0,0.05,5,0)" xlink:href="#bf"/><use transform="matrix(0.05,0,0,0.05,10.95,0)" xlink:href="#aX"/><use transform="matrix(0.05,0,0,0.05,20.95,0)" xlink:href="#aZ"/><use transform="matrix(0.05,0,0,0.05,30.950000000000003,0)" xlink:href="#bg"/><use transform="matrix(0.05,0,0,0.05,39.95,0)" xlink:href="#bu"/><use transform="matrix(0.05,0,0,0.05,44.95,0)" xlink:href="#bd"/><use transform="matrix(0.05,0,0,0.05,54.95,0)" xlink:href="#bf"/><use transform="matrix(0.05,0,0,0.05,60.900000000000006,0)" xlink:href="#bg"/><use transform="matrix(0.05,0,0,0.05,69.9,0)" xlink:href="#bw"/></g><path d="M63-220v92h138v28H63V0H30v-248h175v28H63" id="bz"/><g id="X"><use transform="matrix(0.05,0,0,0.05,0,0)" xlink:href="#bz"/><use transform="matrix(0.05,0,0,0.05,10.950000000000001,0)" xlink:href="#bd"/><use transform="matrix(0.05,0,0,0.05,20.950000000000003,0)" xlink:href="#bc"/><use transform="matrix(0.05,0,0,0.05,30.950000000000003,0)" xlink:href="#bd"/><use transform="matrix(0.05,0,0,0.05,40.95,0)" xlink:href="#bf"/><use transform="matrix(0.05,0,0,0.05,46.900000000000006,0)" xlink:href="#aX"/><use transform="matrix(0.05,0,0,0.05,56.900000000000006,0)" xlink:href="#bj"/><use transform="matrix(0.05,0,0,0.05,61.900000000000006,0)" xlink:href="#aY"/><use transform="matrix(0.05,0,0,0.05,65.85000000000001,0)" xlink:href="#bb"/><use transform="matrix(0.05,0,0,0.05,75.85000000000001,0)" xlink:href="#aZ"/></g><path d="M240 0l2-218c-23 76-54 145-80 218h-23L58-218 59 0H30v-248h44l77 211c21-75 51-140 76-211h43V0h-30" id="bA"/><g id="Y"><use transform="matrix(0.05,0,0,0.05,0,0)" xlink:href="#bA"/><use transform="matrix(0.05,0,0,0.05,14.950000000000001,0)" xlink:href="#bd"/><use transform="matrix(0.05,0,0,0.05,24.950000000000003,0)" xlink:href="#bn"/><use transform="matrix(0.05,0,0,0.05,39.900000000000006,0)" xlink:href="#by"/><use transform="matrix(0.05,0,0,0.05,49.900000000000006,0)" xlink:href="#bd"/><use transform="matrix(0.05,0,0,0.05,59.900000000000006,0)" xlink:href="#bf"/></g><path d="M27 0v-27h64v-190l-56 39v-29l58-41h29v221h61V0H27" id="bB"/><g id="Z"><use transform="matrix(0.05,0,0,0.05,0,0)" xlink:href="#bz"/><use transform="matrix(0.05,0,0,0.05,10.950000000000001,0)" xlink:href="#bA"/><use transform="matrix(0.034999999999999996,0,0,0.034999999999999996,25.900000000000002,2.5199999999999996)" xlink:href="#bB"/></g><path d="M101-251c82-7 93 87 43 132L82-64C71-53 59-42 53-27h129V0H18c2-99 128-94 128-182 0-28-16-43-45-43s-46 15-49 41l-32-3c6-41 34-60 81-64" id="bC"/><g id="aa"><use transform="matrix(0.05,0,0,0.05,0,0)" xlink:href="#bz"/><use transform="matrix(0.05,0,0,0.05,10.950000000000001,0)" xlink:href="#bA"/><use transform="matrix(0.034999999999999996,0,0,0.034999999999999996,25.900000000000002,2.5199999999999996)" xlink:href="#bC"/></g><path d="M126-127c33 6 58 20 58 59 0 88-139 92-164 29-3-8-5-16-6-25l32-3c6 27 21 44 54 44 32 0 52-15 52-46 0-38-36-46-79-43v-28c39 1 72-4 72-42 0-27-17-43-46-43-28 0-47 15-49 41l-32-3c6-42 35-63 81-64 48-1 79 21 79 65 0 36-21 52-52 59" id="bD"/><g id="ab"><use transform="matrix(0.05,0,0,0.05,0,0)" xlink:href="#bz"/><use transform="matrix(0.05,0,0,0.05,10.950000000000001,0)" xlink:href="#bA"/><use transform="matrix(0.034999999999999996,0,0,0.034999999999999996,25.900000000000002,2.5199999999999996)" xlink:href="#bD"/></g><use transform="matrix(0.05,0,0,0.05,0,0)" xlink:href="#ba" id="ac"/><g id="ad"><use transform="matrix(0.05,0,0,0.05,0,0)" xlink:href="#be"/><use transform="matrix(0.05,0,0,0.05,12,0)" xlink:href="#bs"/><use transform="matrix(0.05,0,0,0.05,15.949999999999998,0)" xlink:href="#bb"/><use transform="matrix(0.05,0,0,0.05,25.950000000000003,0)" xlink:href="#bh"/><use transform="matrix(0.05,0,0,0.05,34.95,0)" xlink:href="#bv"/></g><use transform="matrix(0.05,0,0,0.05,0,0)" xlink:href="#aY" id="ae"/><use transform="matrix(0.05,0,0,0.05,0,0)" xlink:href="#bm" id="af"/><g id="ag"><use transform="matrix(0.05,0,0,0.05,0,0)" xlink:href="#bn"/><use transform="matrix(0.05,0,0,0.05,14.950000000000001,0)" xlink:href="#aX"/><use transform="matrix(0.05,0,0,0.05,24.950000000000003,0)" xlink:href="#bo"/><use transform="matrix(0.05,0,0,0.05,33.95,0)" xlink:href="#bp"/><use transform="matrix(0.05,0,0,0.05,46.900000000000006,0)" xlink:href="#bd"/><use transform="matrix(0.05,0,0,0.05,56.900000000000006,0)" xlink:href="#bb"/><use transform="matrix(0.05,0,0,0.05,66.9,0)" xlink:href="#bf"/><use transform="matrix(0.05,0,0,0.05,72.85000000000001,0)" xlink:href="#bk"/><use transform="matrix(0.034999999999999996,0,0,0.034999999999999996,82.85000000000001,2.5199999999999996)" xlink:href="#ba"/></g><use transform="matrix(0.05,0,0,0.05,0,0)" xlink:href="#aY" id="ah"/><path d="M16-82v-28h88v28H16" id="bE"/><use transform="matrix(0.05,0,0,0.05,0,0)" xlink:href="#bE" id="aj"/><g id="ak"><use transform="matrix(0.05,0,0,0.05,0,0)" xlink:href="#bj"/><use transform="matrix(0.05,0,0,0.05,5,0)" xlink:href="#bo"/><use transform="matrix(0.034999999999999996,0,0,0.034999999999999996,14,2.5199999999999996)" xlink:href="#bB"/></g><use transform="matrix(0.05,0,0,0.05,0,0)" xlink:href="#bE" id="al"/><path d="M33-154v-36h34v36H33zM33 0v-36h34V0H33" id="bF"/><g id="am"><use transform="matrix(0.05,0,0,0.05,0,0)" xlink:href="#bn"/><use transform="matrix(0.05,0,0,0.05,14.950000000000001,0)" xlink:href="#bt"/><use transform="matrix(0.05,0,0,0.05,24.950000000000003,0)" xlink:href="#bs"/><use transform="matrix(0.05,0,0,0.05,28.900000000000002,0)" xlink:href="#bj"/><use transform="matrix(0.05,0,0,0.05,33.900000000000006,0)" xlink:href="#aY"/><use transform="matrix(0.05,0,0,0.05,37.85000000000001,0)" xlink:href="#bg"/><use transform="matrix(0.05,0,0,0.05,46.85000000000001,0)" xlink:href="#aY"/><use transform="matrix(0.05,0,0,0.05,50.80000000000001,0)" xlink:href="#bk"/><use transform="matrix(0.05,0,0,0.05,60.80000000000001,0)" xlink:href="#bF"/></g><path d="M108 0H70L1-190h34L89-25l56-165h34" id="bG"/><g id="an"><use transform="matrix(0.05,0,0,0.05,0,0)" xlink:href="#bG"/><use transform="matrix(0.05,0,0,0.05,9,0)" xlink:href="#aX"/><use transform="matrix(0.05,0,0,0.05,19,0)" xlink:href="#bs"/><use transform="matrix(0.034999999999999996,0,0,0.034999999999999996,22.95,2.5199999999999996)" xlink:href="#bB"/></g><path d="M-5 72V49h209v23H-5" id="bH"/><g id="ao"><use transform="matrix(0.05,0,0,0.05,0,0)" xlink:href="#bb"/><use transform="matrix(0.05,0,0,0.05,10,0)" xlink:href="#bi"/><use transform="matrix(0.05,0,0,0.05,20,0)" xlink:href="#bH"/><use transform="matrix(0.05,0,0,0.05,30,0)" xlink:href="#bf"/><use transform="matrix(0.05,0,0,0.05,35.95,0)" xlink:href="#bd"/><use transform="matrix(0.05,0,0,0.05,45.95,0)" xlink:href="#bj"/><use transform="matrix(0.05,0,0,0.05,50.95,0)" xlink:href="#bF"/></g><g id="ap"><use transform="matrix(0.05,0,0,0.05,0,0)" xlink:href="#aX"/><use transform="matrix(0.05,0,0,0.05,10,0)" xlink:href="#bc"/><use transform="matrix(0.05,0,0,0.05,20,0)" xlink:href="#bc"/><use transform="matrix(0.034999999999999996,0,0,0.034999999999999996,30,2.5199999999999996)" xlink:href="#bB"/></g><g id="aq"><use transform="matrix(0.05,0,0,0.05,0,0)" xlink:href="#bj"/><use transform="matrix(0.05,0,0,0.05,5,0)" xlink:href="#bo"/><use transform="matrix(0.034999999999999996,0,0,0.034999999999999996,14,2.5199999999999996)" xlink:href="#bC"/></g><g id="ar"><use transform="matrix(0.05,0,0,0.05,0,0)" xlink:href="#bE"/><use transform="matrix(0.05,0,0,0.05,5.95,0)" xlink:href="#bn"/><use transform="matrix(0.05,0,0,0.05,20.900000000000002,0)" xlink:href="#bt"/><use transform="matrix(0.05,0,0,0.05,30.900000000000002,0)" xlink:href="#bs"/><use transform="matrix(0.05,0,0,0.05,34.85,0)" xlink:href="#bj"/><use transform="matrix(0.05,0,0,0.05,39.85,0)" xlink:href="#aY"/><use transform="matrix(0.05,0,0,0.05,43.800000000000004,0)" xlink:href="#bg"/><use transform="matrix(0.05,0,0,0.05,52.800000000000004,0)" xlink:href="#aY"/><use transform="matrix(0.05,0,0,0.05,56.75,0)" xlink:href="#bk"/><use transform="matrix(0.05,0,0,0.05,66.75,0)" xlink:href="#bF"/></g><g id="as"><use transform="matrix(0.05,0,0,0.05,0,0)" xlink:href="#bG"/><use transform="matrix(0.05,0,0,0.05,9,0)" xlink:href="#aX"/><use transform="matrix(0.05,0,0,0.05,19,0)" xlink:href="#bs"/><use transform="matrix(0.034999999999999996,0,0,0.034999999999999996,22.95,2.5199999999999996)" xlink:href="#bC"/></g><g id="at"><use transform="matrix(0.05,0,0,0.05,0,0)" xlink:href="#aX"/><use transform="matrix(0.05,0,0,0.05,10,0)" xlink:href="#bc"/><use transform="matrix(0.05,0,0,0.05,20,0)" xlink:href="#bc"/><use transform="matrix(0.034999999999999996,0,0,0.034999999999999996,30,2.5199999999999996)" xlink:href="#bC"/></g><g id="au"><use transform="matrix(0.05,0,0,0.05,0,0)" xlink:href="#bw"/><use transform="matrix(0.05,0,0,0.05,5,0)" xlink:href="#bw"/><use transform="matrix(0.05,0,0,0.05,10,0)" xlink:href="#bw"/></g><use transform="matrix(0.05,0,0,0.05,0,0)" xlink:href="#bB" id="av"/><g id="aw"><use transform="matrix(0.05,0,0,0.05,0,0)" xlink:href="#bn"/><use transform="matrix(0.05,0,0,0.05,14.950000000000001,0)" xlink:href="#aX"/><use transform="matrix(0.05,0,0,0.05,24.950000000000003,0)" xlink:href="#bo"/><use transform="matrix(0.05,0,0,0.05,33.95,0)" xlink:href="#bp"/><use transform="matrix(0.05,0,0,0.05,46.900000000000006,0)" xlink:href="#bd"/><use transform="matrix(0.05,0,0,0.05,56.900000000000006,0)" xlink:href="#bb"/><use transform="matrix(0.05,0,0,0.05,66.9,0)" xlink:href="#bf"/><use transform="matrix(0.05,0,0,0.05,72.85000000000001,0)" xlink:href="#bk"/><use transform="matrix(0.034999999999999996,0,0,0.034999999999999996,82.85000000000001,2.5199999999999996)" xlink:href="#be"/></g><g id="ax"><use transform="matrix(0.05,0,0,0.05,0,0)" xlink:href="#be"/><use transform="matrix(0.05,0,0,0.05,12,0)" xlink:href="#bs"/><use transform="matrix(0.05,0,0,0.05,15.949999999999998,0)" xlink:href="#bb"/><use transform="matrix(0.05,0,0,0.05,25.950000000000003,0)" xlink:href="#bh"/><use transform="matrix(0.05,0,0,0.05,34.95,0)" xlink:href="#bv"/></g><use transform="matrix(0.05,0,0,0.05,0,0)" xlink:href="#bl" id="ay"/><path fill="#0c7cba" d="M16-82v-28h88v28H16" id="bI"/><use transform="matrix(0.05,0,0,0.05,0,0)" xlink:href="#bI" id="aA"/><path fill="#0c7cba" d="M59-47c-2 24 18 29 38 22v24C64 9 27 4 27-40v-127H5v-23h24l9-43h21v43h35v23H59v120" id="bJ"/><path fill="#0c7cba" d="M141 0L90-78 38 0H4l68-98-65-92h35l48 74 47-74h35l-64 92 68 98h-35" id="bK"/><path fill="#0c7cba" d="M27 0v-27h64v-190l-56 39v-29l58-41h29v221h61V0H27" id="bL"/><path fill="#0c7cba" d="M47-170H22l-4-78h33" id="bM"/><g id="aB"><use transform="matrix(0.05,0,0,0.05,0,0)" xlink:href="#bJ"/><use transform="matrix(0.05,0,0,0.05,5,0)" xlink:href="#bK"/><use transform="matrix(0.034999999999999996,0,0,0.034999999999999996,14,2.5199999999999996)" xlink:href="#bL"/><use transform="matrix(0.05,0,0,0.05,21,0)" xlink:href="#bM"/></g><use transform="matrix(0.05,0,0,0.05,0,0)" xlink:href="#bI" id="aC"/><path fill="#0c7cba" d="M100-194c62-1 85 37 85 99 1 63-27 99-86 99S16-35 15-95c0-66 28-99 85-99zM99-20c44 1 53-31 53-75 0-43-8-75-51-75s-53 32-53 75 10 74 51 75" id="bN"/><path fill="#0c7cba" d="M115-194c55 1 70 41 70 98S169 2 115 4C84 4 66-9 55-30l1 105H24l-1-265h31l2 30c10-21 28-34 59-34zm-8 174c40 0 45-34 45-75s-6-73-45-74c-42 0-51 32-51 76 0 43 10 73 51 73" id="bO"/><path fill="#0c7cba" d="M-5 72V49h209v23H-5" id="bP"/><path fill="#0c7cba" d="M114-163C36-179 61-72 57 0H25l-1-190h30c1 12-1 29 2 39 6-27 23-49 58-41v29" id="bQ"/><path fill="#0c7cba" d="M100-194c63 0 86 42 84 106H49c0 40 14 67 53 68 26 1 43-12 49-29l28 8c-11 28-37 45-77 45C44 4 14-33 15-96c1-61 26-98 85-98zm52 81c6-60-76-77-97-28-3 7-6 17-6 28h103" id="bR"/><path fill="#0c7cba" d="M84 4C-5 8 30-112 23-190h32v120c0 31 7 50 39 49 72-2 45-101 50-169h31l1 190h-30c-1-10 1-25-2-33-11 22-28 36-60 37" id="bS"/><path fill="#0c7cba" d="M117-194c89-4 53 116 60 194h-32v-121c0-31-8-49-39-48C34-167 62-67 57 0H25l-1-190h30c1 10-1 24 2 32 11-22 29-35 61-36" id="bT"/><path fill="#0c7cba" d="M33-154v-36h34v36H33zM33 0v-36h34V0H33" id="bU"/><g id="aD"><use transform="matrix(0.05,0,0,0.05,0,0)" xlink:href="#bN"/><use transform="matrix(0.05,0,0,0.05,10,0)" xlink:href="#bO"/><use transform="matrix(0.05,0,0,0.05,20,0)" xlink:href="#bP"/><use transform="matrix(0.05,0,0,0.05,30,0)" xlink:href="#bQ"/><use transform="matrix(0.05,0,0,0.05,35.95,0)" xlink:href="#bR"/><use transform="matrix(0.05,0,0,0.05,45.95,0)" xlink:href="#bJ"/><use transform="matrix(0.05,0,0,0.05,50.95,0)" xlink:href="#bS"/><use transform="matrix(0.05,0,0,0.05,60.95,0)" xlink:href="#bQ"/><use transform="matrix(0.05,0,0,0.05,66.9,0)" xlink:href="#bT"/><use transform="matrix(0.05,0,0,0.05,76.9,0)" xlink:href="#bU"/></g><path fill="#0c7cba" d="M24-231v-30h32v30H24zM24 0v-190h32V0H24" id="bV"/><path fill="#0c7cba" d="M85-194c31 0 48 13 60 33l-1-100h32l1 261h-30c-2-10 0-23-3-31C134-8 116 4 85 4 32 4 16-35 15-94c0-66 23-100 70-100zm9 24c-40 0-46 34-46 75 0 40 6 74 45 74 42 0 51-32 51-76 0-42-9-74-50-73" id="bW"/><g id="aE"><use transform="matrix(0.05,0,0,0.05,0,0)" xlink:href="#bV"/><use transform="matrix(0.05,0,0,0.05,3.95,0)" xlink:href="#bW"/><use transform="matrix(0.034999999999999996,0,0,0.034999999999999996,13.95,2.5199999999999996)" xlink:href="#bL"/></g><path fill="#0c7cba" d="M141-36C126-15 110 5 73 4 37 3 15-17 15-53c-1-64 63-63 125-63 3-35-9-54-41-54-24 1-41 7-42 31l-33-3c5-37 33-52 76-52 45 0 72 20 72 64v82c-1 20 7 32 28 27v20c-31 9-61-2-59-35zM48-53c0 20 12 33 32 33 41-3 63-29 60-74-43 2-92-5-92 41" id="bX"/><g id="aF"><use transform="matrix(0.05,0,0,0.05,0,0)" xlink:href="#bX"/><use transform="matrix(0.05,0,0,0.05,10,0)" xlink:href="#bW"/><use transform="matrix(0.05,0,0,0.05,20,0)" xlink:href="#bW"/><use transform="matrix(0.034999999999999996,0,0,0.034999999999999996,30,2.5199999999999996)" xlink:href="#bL"/><use transform="matrix(0.05,0,0,0.05,37,0)" xlink:href="#bU"/></g><path fill="#0c7cba" d="M108 0H70L1-190h34L89-25l56-165h34" id="bY"/><path fill="#0c7cba" d="M24 0v-261h32V0H24" id="bZ"/><g id="aG"><use transform="matrix(0.05,0,0,0.05,0,0)" xlink:href="#bY"/><use transform="matrix(0.05,0,0,0.05,9,0)" xlink:href="#bX"/><use transform="matrix(0.05,0,0,0.05,19,0)" xlink:href="#bZ"/><use transform="matrix(0.034999999999999996,0,0,0.034999999999999996,22.95,2.5199999999999996)" xlink:href="#bL"/></g><path fill="#0c7cba" d="M210-169c-67 3-38 105-44 169h-31v-121c0-29-5-50-35-48C34-165 62-65 56 0H25l-1-190h30c1 10-1 24 2 32 10-44 99-50 107 0 11-21 27-35 58-36 85-2 47 119 55 194h-31v-121c0-29-5-49-35-48" id="ca"/><path fill="#0c7cba" d="M135-143c-3-34-86-38-87 0 15 53 115 12 119 90S17 21 10-45l28-5c4 36 97 45 98 0-10-56-113-15-118-90-4-57 82-63 122-42 12 7 21 19 24 35" id="cb"/><path fill="#0c7cba" d="M177-190C167-65 218 103 67 71c-23-6-38-20-44-43l32-5c15 47 100 32 89-28v-30C133-14 115 1 83 1 29 1 15-40 15-95c0-56 16-97 71-98 29-1 48 16 59 35 1-10 0-23 2-32h30zM94-22c36 0 50-32 50-73 0-42-14-75-50-75-39 0-46 34-46 75s6 73 46 73" id="cc"/><g id="aH"><use transform="matrix(0.05,0,0,0.05,0,0)" xlink:href="#ca"/><use transform="matrix(0.05,0,0,0.05,14.950000000000001,0)" xlink:href="#bS"/><use transform="matrix(0.05,0,0,0.05,24.950000000000003,0)" xlink:href="#bZ"/><use transform="matrix(0.05,0,0,0.05,28.900000000000002,0)" xlink:href="#bJ"/><use transform="matrix(0.05,0,0,0.05,33.900000000000006,0)" xlink:href="#bV"/><use transform="matrix(0.05,0,0,0.05,37.85000000000001,0)" xlink:href="#cb"/><use transform="matrix(0.05,0,0,0.05,46.85000000000001,0)" xlink:href="#bV"/><use transform="matrix(0.05,0,0,0.05,50.80000000000001,0)" xlink:href="#cc"/><use transform="matrix(0.05,0,0,0.05,60.80000000000001,0)" xlink:href="#bU"/></g><path fill="#0c7cba" d="M96-169c-40 0-48 33-48 73s9 75 48 75c24 0 41-14 43-38l32 2c-6 37-31 61-74 61-59 0-76-41-82-99-10-93 101-131 147-64 4 7 5 14 7 22l-32 3c-4-21-16-35-41-35" id="cd"/><path fill="#0c7cba" d="M106-169C34-169 62-67 57 0H25v-261h32l-1 103c12-21 28-36 61-36 89 0 53 116 60 194h-32v-121c2-32-8-49-39-48" id="ce"/><g id="aI"><use transform="matrix(0.05,0,0,0.05,0,0)" xlink:href="#cd"/><use transform="matrix(0.05,0,0,0.05,9,0)" xlink:href="#ce"/><use transform="matrix(0.05,0,0,0.05,19,0)" xlink:href="#bX"/><use transform="matrix(0.05,0,0,0.05,29,0)" xlink:href="#bT"/><use transform="matrix(0.05,0,0,0.05,39,0)" xlink:href="#cc"/><use transform="matrix(0.05,0,0,0.05,49,0)" xlink:href="#bR"/><use transform="matrix(0.034999999999999996,0,0,0.034999999999999996,58.99999999999999,2.5199999999999996)" xlink:href="#bL"/></g><path fill="#834187" d="M16-82v-28h88v28H16" id="cf"/><use transform="matrix(0.05,0,0,0.05,0,0)" xlink:href="#cf" id="aJ"/><path fill="#834187" d="M59-47c-2 24 18 29 38 22v24C64 9 27 4 27-40v-127H5v-23h24l9-43h21v43h35v23H59v120" id="cg"/><path fill="#834187" d="M141 0L90-78 38 0H4l68-98-65-92h35l48 74 47-74h35l-64 92 68 98h-35" id="ch"/><path fill="#834187" d="M101-251c82-7 93 87 43 132L82-64C71-53 59-42 53-27h129V0H18c2-99 128-94 128-182 0-28-16-43-45-43s-46 15-49 41l-32-3c6-41 34-60 81-64" id="ci"/><path fill="#834187" d="M47-170H22l-4-78h33" id="cj"/><g id="aK"><use transform="matrix(0.05,0,0,0.05,0,0)" xlink:href="#cg"/><use transform="matrix(0.05,0,0,0.05,5,0)" xlink:href="#ch"/><use transform="matrix(0.034999999999999996,0,0,0.034999999999999996,14,2.5199999999999996)" xlink:href="#ci"/><use transform="matrix(0.05,0,0,0.05,21,0)" xlink:href="#cj"/></g><path fill="#834187" d="M100-194c62-1 85 37 85 99 1 63-27 99-86 99S16-35 15-95c0-66 28-99 85-99zM99-20c44 1 53-31 53-75 0-43-8-75-51-75s-53 32-53 75 10 74 51 75" id="ck"/><path fill="#834187" d="M115-194c55 1 70 41 70 98S169 2 115 4C84 4 66-9 55-30l1 105H24l-1-265h31l2 30c10-21 28-34 59-34zm-8 174c40 0 45-34 45-75s-6-73-45-74c-42 0-51 32-51 76 0 43 10 73 51 73" id="cl"/><path fill="#834187" d="M-5 72V49h209v23H-5" id="cm"/><path fill="#834187" d="M114-163C36-179 61-72 57 0H25l-1-190h30c1 12-1 29 2 39 6-27 23-49 58-41v29" id="cn"/><path fill="#834187" d="M100-194c63 0 86 42 84 106H49c0 40 14 67 53 68 26 1 43-12 49-29l28 8c-11 28-37 45-77 45C44 4 14-33 15-96c1-61 26-98 85-98zm52 81c6-60-76-77-97-28-3 7-6 17-6 28h103" id="co"/><path fill="#834187" d="M84 4C-5 8 30-112 23-190h32v120c0 31 7 50 39 49 72-2 45-101 50-169h31l1 190h-30c-1-10 1-25-2-33-11 22-28 36-60 37" id="cp"/><path fill="#834187" d="M117-194c89-4 53 116 60 194h-32v-121c0-31-8-49-39-48C34-167 62-67 57 0H25l-1-190h30c1 10-1 24 2 32 11-22 29-35 61-36" id="cq"/><path fill="#834187" d="M33-154v-36h34v36H33zM33 0v-36h34V0H33" id="cr"/><g id="aL"><use transform="matrix(0.05,0,0,0.05,0,0)" xlink:href="#cf"/><use transform="matrix(0.05,0,0,0.05,5.95,0)" xlink:href="#ck"/><use transform="matrix(0.05,0,0,0.05,15.949999999999998,0)" xlink:href="#cl"/><use transform="matrix(0.05,0,0,0.05,25.950000000000003,0)" xlink:href="#cm"/><use transform="matrix(0.05,0,0,0.05,35.95,0)" xlink:href="#cn"/><use transform="matrix(0.05,0,0,0.05,41.900000000000006,0)" xlink:href="#co"/><use transform="matrix(0.05,0,0,0.05,51.900000000000006,0)" xlink:href="#cg"/><use transform="matrix(0.05,0,0,0.05,56.900000000000006,0)" xlink:href="#cp"/><use transform="matrix(0.05,0,0,0.05,66.9,0)" xlink:href="#cn"/><use transform="matrix(0.05,0,0,0.05,72.85000000000001,0)" xlink:href="#cq"/><use transform="matrix(0.05,0,0,0.05,82.85000000000001,0)" xlink:href="#cr"/></g><path fill="#834187" d="M24-231v-30h32v30H24zM24 0v-190h32V0H24" id="cs"/><path fill="#834187" d="M85-194c31 0 48 13 60 33l-1-100h32l1 261h-30c-2-10 0-23-3-31C134-8 116 4 85 4 32 4 16-35 15-94c0-66 23-100 70-100zm9 24c-40 0-46 34-46 75 0 40 6 74 45 74 42 0 51-32 51-76 0-42-9-74-50-73" id="ct"/><g id="aM"><use transform="matrix(0.05,0,0,0.05,0,0)" xlink:href="#cs"/><use transform="matrix(0.05,0,0,0.05,3.95,0)" xlink:href="#ct"/><use transform="matrix(0.034999999999999996,0,0,0.034999999999999996,13.95,2.5199999999999996)" xlink:href="#ci"/></g><use transform="matrix(0.05,0,0,0.05,0,0)" xlink:href="#cf" id="aN"/><path fill="#834187" d="M141-36C126-15 110 5 73 4 37 3 15-17 15-53c-1-64 63-63 125-63 3-35-9-54-41-54-24 1-41 7-42 31l-33-3c5-37 33-52 76-52 45 0 72 20 72 64v82c-1 20 7 32 28 27v20c-31 9-61-2-59-35zM48-53c0 20 12 33 32 33 41-3 63-29 60-74-43 2-92-5-92 41" id="cu"/><g id="aO"><use transform="matrix(0.05,0,0,0.05,0,0)" xlink:href="#cu"/><use transform="matrix(0.05,0,0,0.05,10,0)" xlink:href="#ct"/><use transform="matrix(0.05,0,0,0.05,20,0)" xlink:href="#ct"/><use transform="matrix(0.034999999999999996,0,0,0.034999999999999996,30,2.5199999999999996)" xlink:href="#ci"/><use transform="matrix(0.05,0,0,0.05,37,0)" xlink:href="#cr"/></g><path fill="#834187" d="M108 0H70L1-190h34L89-25l56-165h34" id="cv"/><path fill="#834187" d="M24 0v-261h32V0H24" id="cw"/><g id="aP"><use transform="matrix(0.05,0,0,0.05,0,0)" xlink:href="#cv"/><use transform="matrix(0.05,0,0,0.05,9,0)" xlink:href="#cu"/><use transform="matrix(0.05,0,0,0.05,19,0)" xlink:href="#cw"/><use transform="matrix(0.034999999999999996,0,0,0.034999999999999996,22.95,2.5199999999999996)" xlink:href="#ci"/></g><path fill="#834187" d="M210-169c-67 3-38 105-44 169h-31v-121c0-29-5-50-35-48C34-165 62-65 56 0H25l-1-190h30c1 10-1 24 2 32 10-44 99-50 107 0 11-21 27-35 58-36 85-2 47 119 55 194h-31v-121c0-29-5-49-35-48" id="cx"/><path fill="#834187" d="M135-143c-3-34-86-38-87 0 15 53 115 12 119 90S17 21 10-45l28-5c4 36 97 45 98 0-10-56-113-15-118-90-4-57 82-63 122-42 12 7 21 19 24 35" id="cy"/><path fill="#834187" d="M177-190C167-65 218 103 67 71c-23-6-38-20-44-43l32-5c15 47 100 32 89-28v-30C133-14 115 1 83 1 29 1 15-40 15-95c0-56 16-97 71-98 29-1 48 16 59 35 1-10 0-23 2-32h30zM94-22c36 0 50-32 50-73 0-42-14-75-50-75-39 0-46 34-46 75s6 73 46 73" id="cz"/><g id="aQ"><use transform="matrix(0.05,0,0,0.05,0,0)" xlink:href="#cx"/><use transform="matrix(0.05,0,0,0.05,14.950000000000001,0)" xlink:href="#cp"/><use transform="matrix(0.05,0,0,0.05,24.950000000000003,0)" xlink:href="#cw"/><use transform="matrix(0.05,0,0,0.05,28.900000000000002,0)" xlink:href="#cg"/><use transform="matrix(0.05,0,0,0.05,33.900000000000006,0)" xlink:href="#cs"/><use transform="matrix(0.05,0,0,0.05,37.85000000000001,0)" xlink:href="#cy"/><use transform="matrix(0.05,0,0,0.05,46.85000000000001,0)" xlink:href="#cs"/><use transform="matrix(0.05,0,0,0.05,50.80000000000001,0)" xlink:href="#cz"/><use transform="matrix(0.05,0,0,0.05,60.80000000000001,0)" xlink:href="#cr"/></g><path fill="#834187" d="M96-169c-40 0-48 33-48 73s9 75 48 75c24 0 41-14 43-38l32 2c-6 37-31 61-74 61-59 0-76-41-82-99-10-93 101-131 147-64 4 7 5 14 7 22l-32 3c-4-21-16-35-41-35" id="cA"/><path fill="#834187" d="M106-169C34-169 62-67 57 0H25v-261h32l-1 103c12-21 28-36 61-36 89 0 53 116 60 194h-32v-121c2-32-8-49-39-48" id="cB"/><g id="aR"><use transform="matrix(0.05,0,0,0.05,0,0)" xlink:href="#cA"/><use transform="matrix(0.05,0,0,0.05,9,0)" xlink:href="#cB"/><use transform="matrix(0.05,0,0,0.05,19,0)" xlink:href="#cu"/><use transform="matrix(0.05,0,0,0.05,29,0)" xlink:href="#cq"/><use transform="matrix(0.05,0,0,0.05,39,0)" xlink:href="#cz"/><use transform="matrix(0.05,0,0,0.05,49,0)" xlink:href="#co"/><use transform="matrix(0.034999999999999996,0,0,0.034999999999999996,58.99999999999999,2.5199999999999996)" xlink:href="#ci"/></g><g id="aT"><use transform="matrix(0.05,0,0,0.05,0,0)" xlink:href="#aY"/><use transform="matrix(0.05,0,0,0.05,3.95,0)" xlink:href="#bE"/><use transform="matrix(0.05,0,0,0.05,9.9,0)" xlink:href="#bj"/><use transform="matrix(0.05,0,0,0.05,14.9,0)" xlink:href="#bo"/><use transform="matrix(0.034999999999999996,0,0,0.034999999999999996,23.9,2.5199999999999996)" xlink:href="#bB"/></g><g id="aU"><use transform="matrix(0.05,0,0,0.05,0,0)" xlink:href="#aY"/><use transform="matrix(0.05,0,0,0.05,3.95,0)" xlink:href="#bE"/><use transform="matrix(0.05,0,0,0.05,9.9,0)" xlink:href="#bj"/><use transform="matrix(0.05,0,0,0.05,14.9,0)" xlink:href="#bo"/><use transform="matrix(0.034999999999999996,0,0,0.034999999999999996,23.9,2.5199999999999996)" xlink:href="#bC"/></g></defs></g></svg>