<svg xmlns="http://www.w3.org/2000/svg" xmlns:xlink="http://www.w3.org/1999/xlink" xmlns:lucid="lucid" width="1580" height="1201.04"><g transform="translate(0 2.842170943040401e-14)" lucid:page-tab-id="9oqd1x2X~fvN"><path d="M1230 20c16.57 0 30 13.43 30 30v300c0 16.57-13.43 30-30 30H370c-16.57 0-30-13.43-30-30V50c0-16.57 13.43-30 30-30z" stroke="#000" stroke-width="2" fill="#e5e5e5"/><path d="M450 80c0 22.1-17.9 40-40 40s-40-17.9-40-40 17.9-40 40-40 40 17.9 40 40z" stroke="#000" stroke-width="2" fill="#c7e8ac"/><use xlink:href="#a" transform="matrix(1,0,0,1,375,44.99999999999997) translate(3.549999999999997 27.799999999999997)"/><use xlink:href="#b" transform="matrix(1,0,0,1,375,44.99999999999997) translate(55.45 27.799999999999997)"/><use xlink:href="#c" transform="matrix(1,0,0,1,375,44.99999999999997) translate(15 49.4)"/><path d="M859 80c0 22.1-17.9 40-40 40s-40-17.9-40-40 17.9-40 40-40 40 17.9 40 40z" stroke="#000" stroke-width="2" fill="#ffbbb1"/><use xlink:href="#a" transform="matrix(1,0,0,1,783.9993760969041,44.99999999999997) translate(3.049999999999997 27.799999999999997)"/><use xlink:href="#d" transform="matrix(1,0,0,1,783.9993760969041,44.99999999999997) translate(54.95 27.799999999999997)"/><use xlink:href="#c" transform="matrix(1,0,0,1,783.9993760969041,44.99999999999997) translate(15 49.4)"/><path d="M460 268.2c0 6.66-22.4 12.05-50 12.05s-50-5.4-50-12.05v-96.4c0-6.66 22.4-12.05 50-12.05s50 5.4 50 12.05z" stroke="#000" stroke-width="2" fill="#c7e8ac"/><path d="M460 171.8c0 6.66-22.4 12.05-50 12.05s-50-5.4-50-12.05" stroke="#000" stroke-width="2" fill="none"/><use xlink:href="#e" transform="matrix(1,0,0,1,365,188.84999999999997) translate(21.549999999999997 14.69999999999999)"/><use xlink:href="#f" transform="matrix(1,0,0,1,365,188.84999999999997) translate(23.525 36.29999999999999)"/><use xlink:href="#g" transform="matrix(1,0,0,1,365,188.84999999999997) translate(14.524999999999999 57.89999999999999)"/><use xlink:href="#h" transform="matrix(1,0,0,1,365,188.84999999999997) translate(-0.9500000000000028 79.5)"/><path d="M869 286c0 7.73-22.4 14-50 14s-50-6.27-50-14V174c0-7.73 22.4-14 50-14s50 6.27 50 14z" stroke="#000" stroke-width="2" fill="#ffbbb1"/><path d="M869 174c0 7.73-22.4 14-50 14s-50-6.27-50-14" stroke="#000" stroke-width="2" fill="none"/><use xlink:href="#e" transform="matrix(1,0,0,1,773.9993760969041,192.99999999999997) translate(21.549999999999997 22.19999999999999)"/><use xlink:href="#f" transform="matrix(1,0,0,1,773.9993760969041,192.99999999999997) translate(23.525 43.79999999999999)"/><use xlink:href="#g" transform="matrix(1,0,0,1,773.9993760969041,192.99999999999997) translate(14.524999999999999 65.39999999999999)"/><use xlink:href="#h" transform="matrix(1,0,0,1,773.9993760969041,192.99999999999997) translate(-0.9500000000000028 87)"/><path d="M1230 420c16.57 0 30 13.43 30 30v300c0 16.57-13.43 30-30 30H370c-16.57 0-30-13.43-30-30V450c0-16.57 13.43-30 30-30z" stroke="#000" stroke-width="2" fill="#e5e5e5"/><path d="M450 480c0 22.1-17.9 40-40 40s-40-17.9-40-40 17.9-40 40-40 40 17.9 40 40z" stroke="#000" stroke-width="2" fill="#c7e8ac"/><use xlink:href="#a" transform="matrix(1,0,0,1,375,445) translate(3.549999999999997 27.799999999999997)"/><use xlink:href="#b" transform="matrix(1,0,0,1,375,445) translate(55.45 27.799999999999997)"/><use xlink:href="#c" transform="matrix(1,0,0,1,375,445) translate(15 49.4)"/><path d="M870 480c0 22.1-17.9 40-40 40s-40-17.9-40-40 17.9-40 40-40 40 17.9 40 40z" stroke="#000" stroke-width="2" fill="#ffbbb1"/><use xlink:href="#a" transform="matrix(1,0,0,1,795,445) translate(3.049999999999997 27.799999999999997)"/><use xlink:href="#d" transform="matrix(1,0,0,1,795,445) translate(54.95 27.799999999999997)"/><use xlink:href="#c" transform="matrix(1,0,0,1,795,445) translate(15 49.4)"/><path d="M460 668.2c0 6.66-22.4 12.05-50 12.05s-50-5.4-50-12.05v-96.4c0-6.66 22.4-12.05 50-12.05s50 5.4 50 12.05z" stroke="#000" stroke-width="2" fill="#c7e8ac"/><path d="M460 571.8c0 6.66-22.4 12.05-50 12.05s-50-5.4-50-12.05" stroke="#000" stroke-width="2" fill="none"/><use xlink:href="#e" transform="matrix(1,0,0,1,365,588.85) translate(21.549999999999997 14.69999999999999)"/><use xlink:href="#f" transform="matrix(1,0,0,1,365,588.85) translate(23.525 36.29999999999999)"/><use xlink:href="#g" transform="matrix(1,0,0,1,365,588.85) translate(14.524999999999999 57.89999999999999)"/><use xlink:href="#h" transform="matrix(1,0,0,1,365,588.85) translate(-0.9500000000000028 79.5)"/><path d="M880 668.45c0 6.66-22.4 12.05-50 12.05s-50-5.4-50-12.05v-96.4c0-6.66 22.4-12.05 50-12.05s50 5.4 50 12.05z" stroke="#000" stroke-width="2" fill="#ffbbb1"/><path d="M880 572.05c0 6.66-22.4 12.05-50 12.05s-50-5.4-50-12.05" stroke="#000" stroke-width="2" fill="none"/><use xlink:href="#e" transform="matrix(1,0,0,1,785,589.1) translate(21.549999999999997 14.69999999999999)"/><use xlink:href="#f" transform="matrix(1,0,0,1,785,589.1) translate(23.525 36.29999999999999)"/><use xlink:href="#g" transform="matrix(1,0,0,1,785,589.1) translate(14.524999999999999 57.89999999999999)"/><use xlink:href="#h" transform="matrix(1,0,0,1,785,589.1) translate(-0.9500000000000028 79.5)"/><path d="M1380 1081.04h108l32 30v50h-140z" stroke="#000" stroke-width="2" fill="#ffbbb1"/><path d="M1370 1091.04h108l32 30v50h-140z" stroke="#000" stroke-width="2" fill="#ffbbb1"/><path d="M1360 1101.04h108l32 30v50h-140z" stroke="#000" stroke-width="2" fill="#ffbbb1"/><use xlink:href="#a" transform="matrix(1,0,0,1,1360,1101.0375000000006) translate(38.05 43.6)"/><use xlink:href="#i" transform="matrix(1,0,0,1,1360,1101.0375000000006) translate(89.95 43.6)"/><path d="M1360 750.54h128l32 60v140h-160z" stroke="#000" stroke-width="2" fill="#ffbbb1"/><use xlink:href="#j" transform="matrix(1,0,0,1,1360,750.5375000000004) translate(5.01 58.15)"/><use xlink:href="#k" transform="matrix(1,0,0,1,1360,750.5375000000004) translate(53.96 58.15)"/><use xlink:href="#l" transform="matrix(1,0,0,1,1360,750.5375000000004) translate(5.01 79.75)"/><use xlink:href="#m" transform="matrix(1,0,0,1,1360,750.5375000000004) translate(15.959999999999999 79.75)"/><use xlink:href="#n" transform="matrix(1,0,0,1,1360,750.5375000000004) translate(36.01 101.35)"/><use xlink:href="#o" transform="matrix(1,0,0,1,1360,750.5375000000004) translate(46.959999999999994 101.35)"/><use xlink:href="#p" transform="matrix(1,0,0,1,1360,750.5375000000004) translate(133.86 101.35)"/><use xlink:href="#n" transform="matrix(1,0,0,1,1360,750.5375000000004) translate(36.01 122.94999999999999)"/><use xlink:href="#q" transform="matrix(1,0,0,1,1360,750.5375000000004) translate(46.959999999999994 122.94999999999999)"/><use xlink:href="#r" transform="matrix(1,0,0,1,1360,750.5375000000004) translate(93.96 122.94999999999999)"/><use xlink:href="#n" transform="matrix(1,0,0,1,1360,750.5375000000004) translate(36.01 144.54999999999998)"/><use xlink:href="#s" transform="matrix(1,0,0,1,1360,750.5375000000004) translate(46.959999999999994 144.54999999999998)"/><use xlink:href="#t" transform="matrix(1,0,0,1,1360,750.5375000000004) translate(93.96 144.54999999999998)"/><path d="M1440 1080.04V969.77" stroke="#000" stroke-width="2" fill="none"/><path d="M1441 1081.04h-2v-1h2zM1444.64 969.04h-9.28l4.64-14.27z"/><path d="M1446 970.04h-12l6-18.5zm-9.26-2h6.52L1440 958z"/><path d="M1230 820c16.57 0 30 13.43 30 30v300c0 16.57-13.43 30-30 30H370c-16.57 0-30-13.43-30-30V850c0-16.57 13.43-30 30-30z" stroke="#000" stroke-width="2" fill="#e5e5e5"/><path d="M450 880c0 22.1-17.9 40-40 40s-40-17.9-40-40 17.9-40 40-40 40 17.9 40 40z" stroke="#000" stroke-width="2" fill="#c7e8ac"/><use xlink:href="#a" transform="matrix(1,0,0,1,375,845) translate(3.549999999999997 27.799999999999997)"/><use xlink:href="#b" transform="matrix(1,0,0,1,375,845) translate(55.45 27.799999999999997)"/><use xlink:href="#c" transform="matrix(1,0,0,1,375,845) translate(15 49.4)"/><path d="M870 880c0 22.1-17.9 40-40 40s-40-17.9-40-40 17.9-40 40-40 40 17.9 40 40z" stroke="#000" stroke-width="2" fill="#ffbbb1"/><use xlink:href="#a" transform="matrix(1,0,0,1,795,845) translate(3.049999999999997 27.799999999999997)"/><use xlink:href="#d" transform="matrix(1,0,0,1,795,845) translate(54.95 27.799999999999997)"/><use xlink:href="#c" transform="matrix(1,0,0,1,795,845) translate(15 49.4)"/><path d="M460 1068.2c0 6.66-22.4 12.05-50 12.05s-50-5.4-50-12.05v-96.4c0-6.66 22.4-12.05 50-12.05s50 5.4 50 12.05z" stroke="#000" stroke-width="2" fill="#c7e8ac"/><path d="M460 971.8c0 6.66-22.4 12.05-50 12.05s-50-5.4-50-12.05" stroke="#000" stroke-width="2" fill="none"/><use xlink:href="#e" transform="matrix(1,0,0,1,365,988.8499999999999) translate(21.549999999999997 14.69999999999999)"/><use xlink:href="#f" transform="matrix(1,0,0,1,365,988.8499999999999) translate(23.525 36.29999999999999)"/><use xlink:href="#g" transform="matrix(1,0,0,1,365,988.8499999999999) translate(14.524999999999999 57.89999999999999)"/><use xlink:href="#h" transform="matrix(1,0,0,1,365,988.8499999999999) translate(-0.9500000000000028 79.5)"/><path d="M880 1068.45c0 6.66-22.4 12.05-50 12.05s-50-5.4-50-12.05v-96.4c0-6.66 22.4-12.05 50-12.05s50 5.4 50 12.05z" stroke="#000" stroke-width="2" fill="#ffbbb1"/><path d="M880 972.05c0 6.66-22.4 12.05-50 12.05s-50-5.4-50-12.05" stroke="#000" stroke-width="2" fill="none"/><use xlink:href="#e" transform="matrix(1,0,0,1,785,989.1) translate(21.549999999999997 14.69999999999999)"/><use xlink:href="#f" transform="matrix(1,0,0,1,785,989.1) translate(23.525 36.29999999999999)"/><use xlink:href="#g" transform="matrix(1,0,0,1,785,989.1) translate(14.524999999999999 57.89999999999999)"/><use xlink:href="#h" transform="matrix(1,0,0,1,785,989.1) translate(-0.9500000000000028 79.5)"/><path d="M819 121v19.76" stroke="#000" stroke-width="2" fill="none"/><path d="M819 120l1-.04V121h-2v-1.06zM819 155.76l-4.64-14.26h9.27z"/><path d="M819 159l-6-18.5h12zm-3.26-16.5l3.26 10.03 3.26-10.03z"/><path d="M830 521v19.76" stroke="#000" stroke-width="2" fill="none"/><path d="M830 520l1-.04V521h-2v-1.06zM830 555.76l-4.64-14.26h9.28z"/><path d="M830 559l-6-18.5h12zm-3.26-16.5l3.26 10.03 3.26-10.03z"/><path d="M830 921v19.76" stroke="#000" stroke-width="2" fill="none"/><path d="M830 920l1-.04V921h-2v-1.06zM830 955.76l-4.64-14.26h9.28z"/><path d="M830 959l-6-18.5h12zm-3.26-16.5l3.26 10.03 3.26-10.03z"/><path d="M1320 20h240v226h-240z" stroke="#000" stroke-opacity="0" stroke-width="2" fill="#fff" fill-opacity="0"/><use xlink:href="#u" transform="matrix(1,0,0,1,1325,24.99999999999997) translate(0 14.4)"/><use xlink:href="#v" transform="matrix(1,0,0,1,1325,24.99999999999997) translate(26 14.4)"/><use xlink:href="#w" transform="matrix(1,0,0,1,1325,24.99999999999997) translate(73.95 14.4)"/><use xlink:href="#x" transform="matrix(1,0,0,1,1325,24.99999999999997) translate(90.95 14.4)"/><use xlink:href="#y" transform="matrix(1,0,0,1,1325,24.99999999999997) translate(184.85000000000002 14.4)"/><use xlink:href="#z" transform="matrix(1,0,0,1,1325,24.99999999999997) translate(0 36)"/><use xlink:href="#A" transform="matrix(1,0,0,1,1325,24.99999999999997) translate(22.95 36)"/><use xlink:href="#B" transform="matrix(1,0,0,1,1325,24.99999999999997) translate(76.9 36)"/><use xlink:href="#C" transform="matrix(1,0,0,1,1325,24.99999999999997) translate(120.9 36)"/><use xlink:href="#D" transform="matrix(1,0,0,1,1325,24.99999999999997) translate(159.9 36)"/><use xlink:href="#E" transform="matrix(1,0,0,1,1325,24.99999999999997) translate(168.85 36)"/><use xlink:href="#F" transform="matrix(1,0,0,1,1325,24.99999999999997) translate(0 57.6)"/><use xlink:href="#G" transform="matrix(1,0,0,1,1325,24.99999999999997) translate(101.25 57.6)"/><use xlink:href="#H" transform="matrix(1,0,0,1,1325,24.99999999999997) translate(145.25 57.6)"/><use xlink:href="#I" transform="matrix(1,0,0,1,1325,24.99999999999997) translate(190.25 57.6)"/><use xlink:href="#J" transform="matrix(1,0,0,1,1325,24.99999999999997) translate(0 79.20000000000002)"/><use xlink:href="#K" transform="matrix(1,0,0,1,1325,24.99999999999997) translate(60 79.20000000000002)"/><use xlink:href="#L" transform="matrix(1,0,0,1,1325,24.99999999999997) translate(90 79.20000000000002)"/><use xlink:href="#M" transform="matrix(1,0,0,1,1325,24.99999999999997) translate(143 79.20000000000002)"/><use xlink:href="#N" transform="matrix(1,0,0,1,1325,24.99999999999997) translate(163 79.20000000000002)"/><use xlink:href="#O" transform="matrix(1,0,0,1,1325,24.99999999999997) translate(0 100.80000000000001)"/><use xlink:href="#P" transform="matrix(1,0,0,1,1325,24.99999999999997) translate(118.85000000000001 100.80000000000001)"/><use xlink:href="#f" transform="matrix(1,0,0,1,1325,24.99999999999997) translate(166.8 100.80000000000001)"/><use xlink:href="#Q" transform="matrix(1,0,0,1,1325,24.99999999999997) translate(0 122.4)"/><use xlink:href="#R" transform="matrix(1,0,0,1,1325,24.99999999999997) translate(65.95 122.4)"/><use xlink:href="#S" transform="matrix(1,0,0,1,1325,24.99999999999997) translate(100.95 122.4)"/><use xlink:href="#T" transform="matrix(1,0,0,1,1325,24.99999999999997) translate(145.85000000000002 122.4)"/><use xlink:href="#U" transform="matrix(1,0,0,1,1325,24.99999999999997) translate(159.8 122.4)"/><use xlink:href="#V" transform="matrix(1,0,0,1,1325,24.99999999999997) translate(0 144)"/><use xlink:href="#W" transform="matrix(1,0,0,1,1325,24.99999999999997) translate(0 165.6)"/><use xlink:href="#X" transform="matrix(1,0,0,1,1325,24.99999999999997) translate(0 187.2)"/><use xlink:href="#Y" transform="matrix(1,0,0,1,1325,24.99999999999997) translate(27.950000000000003 187.2)"/><use xlink:href="#Z" transform="matrix(1,0,0,1,1325,24.99999999999997) translate(84.85000000000001 187.2)"/><use xlink:href="#aa" transform="matrix(1,0,0,1,1325,24.99999999999997) translate(127.75000000000001 187.2)"/><use xlink:href="#ab" transform="matrix(1,0,0,1,1325,24.99999999999997) translate(157.55 187.2)"/><use xlink:href="#ac" transform="matrix(1,0,0,1,1325,24.99999999999997) translate(202.55 187.2)"/><use xlink:href="#ad" transform="matrix(1,0,0,1,1325,24.99999999999997) translate(0 208.79999999999998)"/><use xlink:href="#ae" transform="matrix(1,0,0,1,1325,24.99999999999997) translate(25 208.79999999999998)"/><use xlink:href="#af" transform="matrix(1,0,0,1,1325,24.99999999999997) translate(70 208.79999999999998)"/><use xlink:href="#ag" transform="matrix(1,0,0,1,1325,24.99999999999997) translate(95.95 208.79999999999998)"/><use xlink:href="#ah" transform="matrix(1,0,0,1,1325,24.99999999999997) translate(130.95 208.79999999999998)"/><path d="M880 1000.25h32.1l7.9 7.9v31.6h-40z" stroke="#d9be60" stroke-width="2" fill="#ffdf71"/><path d="M912.1 1000.25v7.9h7.9" fill="#d9be60"/><g><use xlink:href="#ai" transform="matrix(1,0,0,1,885,1005.2499999999999) translate(3.0250000000000004 18.6)"/><use xlink:href="#aj" transform="matrix(1,0,0,1,885,1005.2499999999999) translate(11.975 18.6)"/></g><path d="M930 1020c0 16.36-13.43 29.63-30 29.63s-30-13.27-30-29.63 13.43-29.63 30-29.63 30 13.27 30 29.63zm-51.22-20.95l42.44 41.9m-42.44 0l42.44-41.9" fill-opacity="0"/><path d="M929.2 1026.48l-.8 3.1-.98 2.2m-1.7 3.33l-2.02 3.06-1.33 1.43m-2.63 2.64l-3.4 2.6-1.18.63m-3.3 1.75l-4.7 1.55-.66.1m-3.7.58l-.62.1-2.18.08-2.8-.24m-3.7-.56l-3.43-.88-1.88-.83m-3.37-1.63l-3.5-2.32-1.04-.96m-2.73-2.57l-2.92-3.8-.4-.73m-1.74-3.3l-.15-.3-1.53-4.6-.06-.42m-.58-3.7l-.1-.7-.08-2.1.23-2.8m.58-3.68l.8-3.1.98-2.2m1.7-3.33l2.02-3.06 1.33-1.43m2.63-2.64l3.4-2.6 1.18-.63m3.3-1.75l4.7-1.55.66-.1m3.7-.58l.62-.1 2.18-.08 2.8.24m3.7.56l3.43.88 1.88.83m3.37 1.63l3.5 2.32 1.04.96m2.73 2.57l2.92 3.8.4.73m1.74 3.3l.15.3 1.53 4.6.06.42m.58 3.7l.1.7.08 2.1-.23 2.8m-51-23.75l2.14 2.1m2.83 2.8l4.25 4.18m2.83 2.8l4.25 4.18m2.83 2.8l4.24 4.2m2.83 2.8l4.24 4.18m2.82 2.8l4.25 4.18m2.82 2.8l2.12 2.1m-42.44 0l2.13-2.1m2.83-2.8l4.25-4.2m2.83-2.78l4.25-4.2m2.83-2.78l4.24-4.2m2.83-2.8l4.24-4.18m2.82-2.8l4.25-4.18m2.82-2.8l2.12-2.1" stroke="#c92d39" stroke-width="2" fill="none"/><path d="M879 600.25h32.1l7.9 7.9v31.6h-40z" stroke="#d9be60" stroke-width="2" fill="#ffdf71"/><path d="M911.1 600.25v7.9h7.9" fill="#d9be60"/><g><use xlink:href="#ai" transform="matrix(1,0,0,1,883.9993760969041,605.25) translate(3.0250000000000004 18.6)"/><use xlink:href="#aj" transform="matrix(1,0,0,1,883.9993760969041,605.25) translate(11.975 18.6)"/></g><path d="M929 620c0 16.36-13.43 29.63-30 29.63s-30-13.27-30-29.63 13.43-29.63 30-29.63 30 13.27 30 29.63zm-51.22-20.95l42.44 41.9m-42.44 0l42.44-41.9" fill-opacity="0"/><path d="M928.2 626.48l-.8 3.1-.98 2.2m-1.7 3.33l-2.02 3.06-1.33 1.43m-2.63 2.64l-3.4 2.6-1.18.63m-3.3 1.75l-4.7 1.55-.66.1m-3.7.58l-.62.1-2.18.08-2.8-.24m-3.7-.56l-3.43-.88-1.88-.83m-3.37-1.63l-3.5-2.32-1.04-.96m-2.73-2.57l-2.93-3.8-.38-.73m-1.75-3.3l-.15-.3-1.53-4.6-.06-.42m-.58-3.7l-.1-.7-.08-2.1.23-2.8m.58-3.68l.8-3.1.98-2.2m1.7-3.33l2.02-3.06 1.33-1.43m2.63-2.64l3.4-2.6 1.18-.63m3.3-1.75l4.7-1.55.66-.1m3.7-.58l.62-.1 2.18-.08 2.8.24m3.7.56l3.43.88 1.88.83m3.37 1.63l3.5 2.32 1.04.96m2.73 2.57l2.92 3.8.38.73m1.76 3.3l.15.3 1.53 4.6.06.42m.58 3.7l.1.7.08 2.1-.23 2.8m-51-23.75l2.13 2.1m2.83 2.8l4.25 4.18m2.83 2.8l4.25 4.18m2.83 2.8l4.24 4.2m2.83 2.8l4.24 4.18m2.82 2.8l4.24 4.18m2.83 2.8l2.12 2.1m-42.44 0l2.12-2.1m2.83-2.8l4.25-4.2m2.83-2.78l4.25-4.2m2.83-2.78l4.24-4.2m2.83-2.8l4.24-4.18m2.82-2.8l4.24-4.18m2.83-2.8l2.12-2.1" stroke="#c92d39" stroke-width="2" fill="none"/><path d="M870 209.88h32.1l7.9 7.9v31.6h-40z" stroke="#d9be60" stroke-width="2" fill="#ffdf71"/><path d="M902.1 209.88v7.9h7.9" fill="#d9be60"/><g><use xlink:href="#ai" transform="matrix(1,0,0,1,875,214.875) translate(3.0250000000000004 18.6)"/><use xlink:href="#aj" transform="matrix(1,0,0,1,875,214.875) translate(11.975 18.6)"/></g><path d="M920 229.63c0 16.36-13.43 29.62-30 29.62s-30-13.26-30-29.63c0-16.36 13.43-29.62 30-29.62s30 13.26 30 29.63zm-51.22-20.96l42.44 41.9m-42.44 0l42.44-41.9" fill-opacity="0"/><path d="M919.2 236.1l-.8 3.1-.98 2.22m-1.7 3.32l-2.02 3.05-1.33 1.42m-2.63 2.65l-3.4 2.6-1.18.63m-3.3 1.74l-4.7 1.56-.66.1m-3.7.58l-.62.1-2.18.07-2.8-.23m-3.7-.55l-3.43-.88-1.88-.85m-3.37-1.63l-3.5-2.3-1.04-.97m-2.73-2.57l-2.92-3.8-.4-.73m-1.74-3.3l-.15-.3-1.53-4.6-.06-.43m-.58-3.7l-.1-.7-.08-2.1.23-2.8m.58-3.68l.8-3.1.98-2.2m1.7-3.33l2.02-3.04 1.33-1.43m2.63-2.65l3.4-2.6 1.18-.63m3.3-1.74l4.7-1.55.66-.1m3.7-.58l.62-.1L890 200l2.8.23m3.7.55l3.43.88 1.88.84m3.37 1.63l3.5 2.3 1.04.97m2.73 2.57l2.92 3.8.4.73m1.74 3.3l.15.3 1.53 4.6.06.43m.58 3.7l.1.7.08 2.1-.23 2.8m-51-23.76l2.14 2.1m2.83 2.8l4.25 4.18m2.83 2.8l4.25 4.2m2.83 2.78l4.24 4.2m2.83 2.78l4.24 4.2m2.82 2.8l4.25 4.2m2.82 2.78l2.12 2.1m-42.44 0l2.13-2.1m2.83-2.8l4.25-4.18m2.83-2.8l4.25-4.2m2.83-2.78l4.24-4.2m2.83-2.78l4.24-4.2m2.82-2.8l4.25-4.18m2.82-2.8l2.12-2.1" stroke="#c92d39" stroke-width="2" fill="none"/><path d="M340 320h240v60H340z" stroke="#000" stroke-opacity="0" stroke-width="2" fill="#fff" fill-opacity="0"/><g><use xlink:href="#ak" transform="matrix(1,0,0,1,345,325) translate(17.69999999999999 28.6)"/><use xlink:href="#al" transform="matrix(1,0,0,1,345,325) translate(108.55 28.6)"/><use xlink:href="#am" transform="matrix(1,0,0,1,345,325) translate(179.4 28.6)"/></g><path d="M340 720h240v60H340z" stroke="#000" stroke-opacity="0" stroke-width="2" fill="#fff" fill-opacity="0"/><g><use xlink:href="#ak" transform="matrix(1,0,0,1,345,725) translate(17.69999999999999 28.6)"/><use xlink:href="#al" transform="matrix(1,0,0,1,345,725) translate(108.55 28.6)"/><use xlink:href="#an" transform="matrix(1,0,0,1,345,725) translate(179.4 28.6)"/></g><path d="M340 1120h240v60H340z" stroke="#000" stroke-opacity="0" stroke-width="2" fill="#fff" fill-opacity="0"/><g><use xlink:href="#ak" transform="matrix(1,0,0,1,345,1125) translate(17.69999999999999 28.6)"/><use xlink:href="#al" transform="matrix(1,0,0,1,345,1125) translate(108.55 28.6)"/><use xlink:href="#ao" transform="matrix(1,0,0,1,345,1125) translate(179.4 28.6)"/></g><path d="M40 1081.04h140l40 30v50H40z" stroke="#000" stroke-width="2" fill="#c7e8ac"/><path d="M30 1091.04h140l40 30v50H30z" stroke="#000" stroke-width="2" fill="#c7e8ac"/><path d="M20 1101.04h140l40 30v50H20z" stroke="#000" stroke-width="2" fill="#c7e8ac"/><g><use xlink:href="#a" transform="matrix(1,0,0,1,20,1101.0375000000006) translate(58.05 43.6)"/><use xlink:href="#ap" transform="matrix(1,0,0,1,20,1101.0375000000006) translate(109.95 43.6)"/></g><path d="M120 1080.04v-100.8" stroke="#000" stroke-width="2" fill="none"/><path d="M121 1081.04h-2v-1h2zM124.64 978.5h-9.28l4.64-14.26z"/><path d="M126 979.5h-12l6-18.5zm-9.26-2h6.52L120 967.47z"/><path d="M120 719v-49.76" fill="none"/><path d="M120 719v-3m0-3.97v-5.97m0-3.98v-5.97m0-3.97v-5.97m0-3.98v-5.98m0-3.98v-2.98" stroke="#000" stroke-width="2" fill="none"/><path d="M121 720h-2v-1h2zM124.64 668.5h-9.28l4.64-14.26z"/><path d="M126 669.5h-12l6-18.5zm-9.26-2h6.52L120 657.47z"/><path d="M20 550h160l40 30v70H20z" stroke="#000" stroke-width="2" fill="#c7e8ac"/><g><use xlink:href="#j" transform="matrix(1,0,0,1,20,550) translate(17.68 55.025)"/><use xlink:href="#aq" transform="matrix(1,0,0,1,20,550) translate(66.63 55.025)"/><use xlink:href="#ar" transform="matrix(1,0,0,1,20,550) translate(75.58 55.025)"/><use xlink:href="#as" transform="matrix(1,0,0,1,20,550) translate(91.08 55.025)"/></g><path d="M120 549v-49.76" fill="none"/><path d="M120 549v-3m0-3.97v-5.97m0-3.98v-5.97m0-3.97v-5.97m0-4v-5.96m0-3.98v-2.98" stroke="#000" stroke-width="2" fill="none"/><path d="M121 550h-2v-1h2zM124.64 498.5h-9.28l4.64-14.26z"/><path d="M126 499.5h-12l6-18.5zm-9.26-2h6.52L120 487.47z"/><path d="M20 720h160l40 72v168H20z" stroke="#000" stroke-width="2" fill="#c7e8ac"/><g><use xlink:href="#j" transform="matrix(1,0,0,1,20,720) translate(5.01 19.41)"/><use xlink:href="#p" transform="matrix(1,0,0,1,20,720) translate(53.96 19.41)"/><use xlink:href="#at" transform="matrix(1,0,0,1,20,720) translate(5.01 41.01)"/><use xlink:href="#l" transform="matrix(1,0,0,1,20,720) translate(5.01 62.61)"/><use xlink:href="#au" transform="matrix(1,0,0,1,20,720) translate(15.959999999999999 62.61)"/><use xlink:href="#n" transform="matrix(1,0,0,1,20,720) translate(36.01 84.21000000000001)"/><use xlink:href="#av" transform="matrix(1,0,0,1,20,720) translate(46.959999999999994 84.21000000000001)"/><use xlink:href="#r" transform="matrix(1,0,0,1,20,720) translate(117.76 84.21000000000001)"/><use xlink:href="#n" transform="matrix(1,0,0,1,20,720) translate(36.01 105.81)"/><use xlink:href="#aw" transform="matrix(1,0,0,1,20,720) translate(46.959999999999994 105.81)"/><use xlink:href="#ax" transform="matrix(1,0,0,1,20,720) translate(107.91 105.81)"/><use xlink:href="#l" transform="matrix(1,0,0,1,20,720) translate(5.01 127.41)"/><use xlink:href="#ay" transform="matrix(1,0,0,1,20,720) translate(15.959999999999999 127.41)"/><use xlink:href="#az" transform="matrix(1,0,0,1,20,720) translate(36.01 149.01)"/><use xlink:href="#aA" transform="matrix(1,0,0,1,20,720) translate(112.75999999999999 149.01)"/><use xlink:href="#n" transform="matrix(1,0,0,1,20,720) translate(36.01 170.60999999999999)"/><use xlink:href="#aw" transform="matrix(1,0,0,1,20,720) translate(46.959999999999994 170.60999999999999)"/><use xlink:href="#aB" transform="matrix(1,0,0,1,20,720) translate(107.91 170.60999999999999)"/><use xlink:href="#aC" transform="matrix(1,0,0,1,20,720) translate(5.01 192.20999999999998)"/></g><path d="M1360 515h128l32 30v70h-160z" stroke="#000" stroke-width="2" fill="#ffbbb1"/><g><use xlink:href="#j" transform="matrix(1,0,0,1,1360,515) translate(27.055 42.525)"/><use xlink:href="#D" transform="matrix(1,0,0,1,1360,515) translate(76.005 42.525)"/><use xlink:href="#ar" transform="matrix(1,0,0,1,1360,515) translate(84.955 42.525)"/><use xlink:href="#aD" transform="matrix(1,0,0,1,1360,515) translate(100.455 42.525)"/><use xlink:href="#E" transform="matrix(1,0,0,1,1360,515) translate(115.455 42.525)"/><use xlink:href="#aE" transform="matrix(1,0,0,1,1360,515) translate(34.379999999999995 64.125)"/></g><path d="M1440 749.54v-115.3" fill="none"/><path d="M1440 749.54v-2.9m0-3.83v-5.76m0-3.84v-5.76m0-3.85v-5.77m0-3.85v-5.76m0-3.84v-5.77m0-3.83V689m0-3.84v-5.77m0-3.85v-5.76m0-3.86v-5.76m0-3.84v-5.77m0-3.84v-5.77m0-3.84v-2.88" stroke="#000" stroke-width="2" fill="none"/><path d="M1441 750.54h-2v-1h2zM1444.64 633.5h-9.28l4.64-14.26z"/><path d="M1446 634.5h-12l6-18.5zm-9.26-2h6.52l-3.26-10.03z"/><path d="M1359 565l-8.76-.18-8.33-.53-7.97-.84-7.67-1.14-7.42-1.4-7.22-1.7-7.05-1.97-6.92-2.25-6.83-2.54-6.77-2.85-6.75-3.16-6.76-3.54-6.83-3.94-6.9-4.4-7.1-4.92-7.28-5.54-7.6-6.28-7.97-7.2-8.53-8.35-9.3-9.9-10.46-12.15-12.43-15.72-16.85-23.26-75.4-111.12-12.44-15.72-10.46-12.13-9.3-9.9-8.53-8.37-7.98-7.2-7.6-6.28-7.28-5.53-7.1-4.94-6.9-4.4-6.84-3.93-6.76-3.54-6.75-3.2-6.77-2.84-6.83-2.54-6.92-2.24-7.05-1.97-7.2-1.68-7.44-1.42-7.67-1.13-6.86-.72" fill="none"/><path d="M1359 565l-3-.06m-4.02-.1l-1.74-.02-4.26-.27m-4-.25h-.07l-5.9-.63m-3.98-.5l-5.76-.85-.2-.03m-3.93-.76l-3.3-.63-2.58-.6m-3.9-.9l-.73-.18-5.07-1.42m-3.84-1.16l-5.05-1.64-.65-.24m-3.76-1.4l-2.42-.9-3.16-1.33m-3.7-1.56l-5.43-2.56m-3.58-1.8l-4.4-2.3-.9-.52m-3.48-2l-2.46-1.42-2.67-1.7m-3.38-2.15l-.86-.54-4.1-2.85m-3.3-2.3l-4.78-3.63m-3.16-2.46l-4.64-3.83m-3.04-2.6l-4.47-4.03m-2.95-2.7l-4.3-4.2m-2.86-2.82l-.88-.85-3.28-3.5m-2.74-2.92l-3.28-3.5-.8-.92m-2.6-3.03l-3.94-4.56m-2.62-3.04l-.5-.58-3.25-4.1m-2.48-3.15l-3.73-4.72m-2.5-3.14l-.47-.6-3.08-4.25m-2.35-3.24l-3.52-4.86m-2.36-3.25l-3.52-4.88m-2.34-3.26l-3.37-4.97m-2.27-3.33l-3.37-4.98m-2.25-3.32l-3.37-4.98m-2.25-3.32l-3.38-4.97m-2.25-3.3l-3.38-4.98m-2.25-3.32l-3.37-4.98m-2.26-3.3l-3.38-5m-2.25-3.3l-3.38-4.98m-2.26-3.32l-3.38-4.97m-2.25-3.32l-3.37-4.97m-2.25-3.32l-3.37-4.98m-2.24-3.3l-3.38-5m-2.25-3.3l-3.38-4.98m-2.25-3.32l-1.93-2.84-1.6-2.02m-2.5-3.15l-3.72-4.7m-2.48-3.16l-2.13-2.7-1.7-1.95m-2.6-3.04l-3.93-4.54m-2.63-3.02l-4.1-4.4m-2.75-2.9l-2.04-2.18-2.17-2.13m-2.85-2.8l-3.5-3.43-.83-.75m-2.98-2.68l-4.17-3.77-.3-.25m-3.1-2.55l-4.2-3.48-.44-.34m-3.2-2.42l-3.64-2.77-1.18-.83m-3.3-2.3l-2.6-1.8-2.4-1.52m-3.38-2.15l-1.15-.73-4.04-2.33m-3.5-1.97l-5.32-2.8m-3.6-1.73l-3.9-1.83-1.58-.65m-3.7-1.56l-1.48-.64-4.12-1.53m-3.78-1.35l-5.7-1.86m-3.87-1.08l-3.32-.93-2.5-.58m-3.9-.9l-.8-.2-5.1-.97m-3.94-.7l-5.95-.86m-4-.44l-3-.3" stroke="#c92d39" stroke-width="2" fill="none"/><path d="M1360 564.04v2l-1.04-.04.07-2zM938.28 235.05l-14.05-5.28 14.46-4z" fill="#c92d39"/><path d="M939.2 236.47l-18.2-6.84 18.76-5.18zm-11.73-6.55l9.87 3.7.3-6.5z" fill="#c92d39"/><path d="M1359 565l-45.4.9-35.26 2.2-29.43 3.08-26.57 3.92-27.1 5.18-128.56 29.62-26.58 3.92-29.44 3.08-35.26 2.2-27.17.54" fill="none"/><path d="M1359 565l-2.97.06m-3.96.08l-5.94.12m-3.96.08l-5.93.1m-3.96.1l-5.94.1m-3.96.1l-5.93.1m-3.96.13l-5.94.37m-3.95.25l-5.9.36m-3.97.24l-5.92.37m-3.94.25l-4.52.28-1.4.14m-3.94.42l-5.9.6m-3.95.43l-5.9.6m-3.94.42l-4.4.46-1.5.22m-3.9.58l-5.88.86m-3.9.58l-5.9.87m-3.9.56l-1.6.24-4.25.8m-3.9.76l-5.82 1.1m-3.9.75l-5.82 1.13m-3.9.76l-5.77 1.32m-3.86.9l-5.8 1.33m-3.84.9l-5.8 1.32m-3.85.9l-5.77 1.32m-3.86.88l-5.8 1.33m-3.85.9l-5.78 1.34m-3.86.88l-5.8 1.34m-3.84.9l-5.8 1.32m-3.85.9l-5.8 1.32m-3.85.9l-5.8 1.32m-3.85.9l-5.78 1.33m-3.86.9l-5.8 1.32m-3.84.9l-5.8 1.32m-3.85.88l-2.7.62-3.13.46m-3.92.58l-5.87.87m-3.92.6l-5.87.85m-3.92.58l-5.9.62m-3.94.4l-5.9.63m-3.95.4l-5.9.63m-3.94.4l-5.92.38m-3.95.25l-5.93.36m-3.95.24l-5.92.37m-3.95.25l-5.48.34h-.45m-3.96.08l-5.95.12m-3.95.08l-5.94.12m-3.96.08l-2.97.06" stroke="#c92d39" stroke-width="2" fill="none"/><path d="M1360 565.98l-1 .02-.03-2 1.03-.02zM947.6 624.3l-14.36-4.36 14.17-4.92z" fill="#c92d39"/><path d="M948.62 625.64L930 620l18.38-6.38zm-12.15-5.77l10.1 3.06-.14-6.52z" fill="#c92d39"/><path d="M1359 565l-6.2.13-6 .38-5.82.62-5.66.83-5.55 1.06-5.44 1.3-5.38 1.5-5.32 1.72-5.3 1.97-5.3 2.22-5.3 2.5-5.36 2.8-5.42 3.13-5.5 3.5-5.65 3.92-5.8 4.4-6 4.96-6.23 5.62-6.55 6.42-6.92 7.38-7.4 8.6-8.04 10.13-8.86 12.22-10.05 15.15-11.92 19.72-15.5 28.32-35.3 72.24-39.75 81.77-15.5 28.33-11.92 19.72L1070 932.7l-8.86 12.22-8.03 10.14-7.4 8.6-6.92 7.37-6.55 6.42-6.24 5.62-6 4.96-5.8 4.4-5.64 3.92-5.5 3.5-5.43 3.13-5.36 2.8-5.3 2.5-5.3 2.23-5.3 1.98-5.32 1.73-5.38 1.5-5.44 1.3-5.55 1.05-5.5.8" fill="none"/><path d="M1359 565l-3.02.06m-4 .12l-5.2.33-.82.1m-4 .4l-.98.12-4.98.73m-3.95.73l-2.28.43-3.6.86m-3.9 1l-3.32.93-2.45.8m-3.8 1.27l-4.37 1.62-1.26.52m-3.7 1.56l-.33.14-5.13 2.4m-3.56 1.87l-1.97 1.02-3.3 1.9m-3.43 2.06l-4.2 2.67-.86.6m-3.3 2.3l-1.48 1.02-3.37 2.55m-3.17 2.47l-4.64 3.83m-3 2.66l-3.85 3.45-.6.6m-2.88 2.8l-3.08 3.02-1.18 1.26m-2.75 2.93l-3 3.2-1.08 1.24m-2.62 3.04l-3.7 4.3-.22.27m-2.5 3.16l-3.74 4.73m-2.44 3.17l-3.54 4.88m-2.36 3.25l-2.1 2.9-1.35 2.04m-2.22 3.34l-3.33 5.02m-2.22 3.35l-.93 1.4-2.25 3.72m-2.08 3.44l-3.1 5.16m-2.1 3.44l-2.4 3.97-.66 1.22m-1.93 3.5l-2.9 5.3m-1.92 3.52l-2.9 5.28m-1.92 3.53l-2.9 5.28m-1.78 3.6l-2.65 5.42m-1.76 3.6l-2.65 5.42m-1.77 3.6l-2.64 5.42m-1.76 3.6l-2.65 5.43m-1.76 3.6l-2.64 5.4m-1.77 3.62l-2.64 5.42m-1.76 3.6l-2.64 5.42m-1.77 3.6l-2.64 5.42m-1.75 3.6l-2.63 5.43m-1.76 3.63l-2.63 5.4m-1.76 3.63l-2.63 5.42m-1.76 3.6l-2.64 5.43m-1.75 3.62l-2.65 5.42m-1.75 3.6l-2.64 5.43m-1.75 3.6l-2.63 5.43m-1.75 3.6l-2.64 5.43m-1.76 3.6l-2.63 5.43m-1.88 3.56l-2.9 5.28m-1.92 3.52l-2.9 5.3m-1.93 3.5l-2.9 5.3m-1.94 3.5l-3.12 5.16m-2.06 3.44l-3.12 5.16m-2.08 3.44l-1.28 2.13-1.96 2.94m-2.22 3.34l-3.33 5.02m-2.22 3.35l-.33.5-3.2 4.4m-2.35 3.25l-3.3 4.57-.25.3m-2.5 3.15l-3.73 4.72m-2.54 3.1l-3.94 4.56m-2.64 3.04l-4.12 4.4m-2.75 2.92l-4.32 4.22m-2.9 2.78l-4.47 4.03m-3.05 2.6l-3.96 3.28-.7.54m-3.2 2.43l-1.9 1.43-3 2.1m-3.32 2.25l-4.83 3.07-.26.15m-3.5 2l-1.67.98-3.62 1.9m-3.58 1.78l-3.46 1.62-2.03.86m-3.7 1.54l-4.86 1.8-.8.27m-3.83 1.24l-.7.2-5.1 1.44m-3.9.93l-1.8.42-4.1.77m-3.97.65l-2.98.44" stroke="#c92d39" stroke-width="2" fill="none"/><path d="M1360 565.95l-.95.05-.1-2 1.05-.06zM948.76 1023.53l-14.53-3.73 13.95-5.52z" fill="#c92d39"/><path d="M949.84 1024.84L931 1020l18.1-7.16zm-12.38-5.25l10.2 2.62-.4-6.5z" fill="#c92d39"/><path d="M40 380h140l40 30v50H40z" stroke="#000" stroke-width="2" fill="#c7e8ac"/><path d="M30 390h140l40 30v50H30z" stroke="#000" stroke-width="2" fill="#c7e8ac"/><path d="M20 400h140l40 30v50H20z" stroke="#000" stroke-width="2" fill="#c7e8ac"/><g><use xlink:href="#a" transform="matrix(1,0,0,1,20,400) translate(58.05 43.6)"/><use xlink:href="#ap" transform="matrix(1,0,0,1,20,400) translate(109.95 43.6)"/></g><defs><path d="M212-179c-10-28-35-45-73-45-59 0-87 40-87 99 0 60 29 101 89 101 43 0 62-24 78-52l27 14C228-24 195 4 139 4 59 4 22-46 18-125c-6-104 99-153 187-111 19 9 31 26 39 46" id="aF"/><path d="M106-169C34-169 62-67 57 0H25v-261h32l-1 103c12-21 28-36 61-36 89 0 53 116 60 194h-32v-121c2-32-8-49-39-48" id="aG"/><path d="M141-36C126-15 110 5 73 4 37 3 15-17 15-53c-1-64 63-63 125-63 3-35-9-54-41-54-24 1-41 7-42 31l-33-3c5-37 33-52 76-52 45 0 72 20 72 64v82c-1 20 7 32 28 27v20c-31 9-61-2-59-35zM48-53c0 20 12 33 32 33 41-3 63-29 60-74-43 2-92-5-92 41" id="aH"/><path d="M24-231v-30h32v30H24zM24 0v-190h32V0H24" id="aI"/><path d="M117-194c89-4 53 116 60 194h-32v-121c0-31-8-49-39-48C34-167 62-67 57 0H25l-1-190h30c1 10-1 24 2 32 11-22 29-35 61-36" id="aJ"/><g id="a"><use transform="matrix(0.05,0,0,0.05,0,0)" xlink:href="#aF"/><use transform="matrix(0.05,0,0,0.05,12.950000000000001,0)" xlink:href="#aG"/><use transform="matrix(0.05,0,0,0.05,22.950000000000003,0)" xlink:href="#aH"/><use transform="matrix(0.05,0,0,0.05,32.95,0)" xlink:href="#aI"/><use transform="matrix(0.05,0,0,0.05,36.900000000000006,0)" xlink:href="#aJ"/></g><path d="M205 0l-28-72H64L36 0H1l101-248h38L239 0h-34zm-38-99l-47-123c-12 45-31 82-46 123h93" id="aK"/><use transform="matrix(0.05,0,0,0.05,0,0)" xlink:href="#aK" id="b"/><path d="M100-194c62-1 85 37 85 99 1 63-27 99-86 99S16-35 15-95c0-66 28-99 85-99zM99-20c44 1 53-31 53-75 0-43-8-75-51-75s-53 32-53 75 10 74 51 75" id="aL"/><path d="M85-194c31 0 48 13 60 33l-1-100h32l1 261h-30c-2-10 0-23-3-31C134-8 116 4 85 4 32 4 16-35 15-94c0-66 23-100 70-100zm9 24c-40 0-46 34-46 75 0 40 6 74 45 74 42 0 51-32 51-76 0-42-9-74-50-73" id="aM"/><path d="M100-194c63 0 86 42 84 106H49c0 40 14 67 53 68 26 1 43-12 49-29l28 8c-11 28-37 45-77 45C44 4 14-33 15-96c1-61 26-98 85-98zm52 81c6-60-76-77-97-28-3 7-6 17-6 28h103" id="aN"/><g id="c"><use transform="matrix(0.05,0,0,0.05,0,0)" xlink:href="#aJ"/><use transform="matrix(0.05,0,0,0.05,10,0)" xlink:href="#aL"/><use transform="matrix(0.05,0,0,0.05,20,0)" xlink:href="#aM"/><use transform="matrix(0.05,0,0,0.05,30,0)" xlink:href="#aN"/></g><path d="M160-131c35 5 61 23 61 61C221 17 115-2 30 0v-248c76 3 177-17 177 60 0 33-19 50-47 57zm-97-11c50-1 110 9 110-42 0-47-63-36-110-37v79zm0 115c55-2 124 14 124-45 0-56-70-42-124-44v89" id="aO"/><use transform="matrix(0.05,0,0,0.05,0,0)" xlink:href="#aO" id="d"/><path d="M114-163C36-179 61-72 57 0H25l-1-190h30c1 12-1 29 2 39 6-27 23-49 58-41v29" id="aP"/><path d="M135-143c-3-34-86-38-87 0 15 53 115 12 119 90S17 21 10-45l28-5c4 36 97 45 98 0-10-56-113-15-118-90-4-57 82-63 122-42 12 7 21 19 24 35" id="aQ"/><g id="e"><use transform="matrix(0.05,0,0,0.05,0,0)" xlink:href="#aF"/><use transform="matrix(0.05,0,0,0.05,12.950000000000001,0)" xlink:href="#aP"/><use transform="matrix(0.05,0,0,0.05,18.900000000000002,0)" xlink:href="#aL"/><use transform="matrix(0.05,0,0,0.05,28.900000000000002,0)" xlink:href="#aQ"/><use transform="matrix(0.05,0,0,0.05,37.900000000000006,0)" xlink:href="#aQ"/></g><path d="M96-169c-40 0-48 33-48 73s9 75 48 75c24 0 41-14 43-38l32 2c-6 37-31 61-74 61-59 0-76-41-82-99-10-93 101-131 147-64 4 7 5 14 7 22l-32 3c-4-21-16-35-41-35" id="aR"/><g id="f"><use transform="matrix(0.05,0,0,0.05,0,0)" xlink:href="#aR"/><use transform="matrix(0.05,0,0,0.05,9,0)" xlink:href="#aG"/><use transform="matrix(0.05,0,0,0.05,19,0)" xlink:href="#aH"/><use transform="matrix(0.05,0,0,0.05,29,0)" xlink:href="#aI"/><use transform="matrix(0.05,0,0,0.05,32.95,0)" xlink:href="#aJ"/></g><g id="g"><use transform="matrix(0.05,0,0,0.05,0,0)" xlink:href="#aQ"/><use transform="matrix(0.05,0,0,0.05,9,0)" xlink:href="#aN"/><use transform="matrix(0.05,0,0,0.05,19,0)" xlink:href="#aQ"/><use transform="matrix(0.05,0,0,0.05,28,0)" xlink:href="#aQ"/><use transform="matrix(0.05,0,0,0.05,37,0)" xlink:href="#aI"/><use transform="matrix(0.05,0,0,0.05,40.95,0)" xlink:href="#aL"/><use transform="matrix(0.05,0,0,0.05,50.95,0)" xlink:href="#aJ"/></g><path d="M115-194c55 1 70 41 70 98S169 2 115 4C84 4 66-9 55-30l1 105H24l-1-265h31l2 30c10-21 28-34 59-34zm-8 174c40 0 45-34 45-75s-6-73-45-74c-42 0-51 32-51 76 0 43 10 73 51 73" id="aS"/><path d="M59-47c-2 24 18 29 38 22v24C64 9 27 4 27-40v-127H5v-23h24l9-43h21v43h35v23H59v120" id="aT"/><g id="h"><use transform="matrix(0.05,0,0,0.05,0,0)" xlink:href="#aS"/><use transform="matrix(0.05,0,0,0.05,10,0)" xlink:href="#aN"/><use transform="matrix(0.05,0,0,0.05,20,0)" xlink:href="#aP"/><use transform="matrix(0.05,0,0,0.05,25.950000000000003,0)" xlink:href="#aQ"/><use transform="matrix(0.05,0,0,0.05,34.95,0)" xlink:href="#aI"/><use transform="matrix(0.05,0,0,0.05,38.900000000000006,0)" xlink:href="#aQ"/><use transform="matrix(0.05,0,0,0.05,47.900000000000006,0)" xlink:href="#aT"/><use transform="matrix(0.05,0,0,0.05,52.900000000000006,0)" xlink:href="#aN"/><use transform="matrix(0.05,0,0,0.05,62.900000000000006,0)" xlink:href="#aJ"/><use transform="matrix(0.05,0,0,0.05,72.9,0)" xlink:href="#aR"/><use transform="matrix(0.05,0,0,0.05,81.9,0)" xlink:href="#aN"/></g><use transform="matrix(0.05,0,0,0.05,0,0)" xlink:href="#aO" id="i"/><path d="M24 0v-261h32V0H24" id="aU"/><path d="M143 0L79-87 56-68V0H24v-261h32v163l83-92h37l-77 82L181 0h-38" id="aV"/><g id="j"><use transform="matrix(0.05,0,0,0.05,0,0)" xlink:href="#aO"/><use transform="matrix(0.05,0,0,0.05,12,0)" xlink:href="#aU"/><use transform="matrix(0.05,0,0,0.05,15.949999999999998,0)" xlink:href="#aL"/><use transform="matrix(0.05,0,0,0.05,25.950000000000003,0)" xlink:href="#aR"/><use transform="matrix(0.05,0,0,0.05,34.95,0)" xlink:href="#aV"/></g><path d="M24-231v-30h32v30H24zM-9 49c24 4 33-6 33-30v-209h32V24c2 40-23 58-65 49V49" id="aW"/><use transform="matrix(0.05,0,0,0.05,0,0)" xlink:href="#aW" id="k"/><path d="M16-82v-28h88v28H16" id="aX"/><use transform="matrix(0.05,0,0,0.05,0,0)" xlink:href="#aX" id="l"/><path d="M141 0L90-78 38 0H4l68-98-65-92h35l48 74 47-74h35l-64 92 68 98h-35" id="aY"/><g id="m"><use transform="matrix(0.05,0,0,0.05,0,0)" xlink:href="#aT"/><use transform="matrix(0.05,0,0,0.05,5,0)" xlink:href="#aY"/></g><use transform="matrix(0.05,0,0,0.05,0,0)" xlink:href="#aX" id="n"/><path d="M-5 72V49h209v23H-5" id="aZ"/><path d="M84 4C-5 8 30-112 23-190h32v120c0 31 7 50 39 49 72-2 45-101 50-169h31l1 190h-30c-1-10 1-25-2-33-11 22-28 36-60 37" id="ba"/><path d="M33-154v-36h34v36H33zM33 0v-36h34V0H33" id="bb"/><g id="o"><use transform="matrix(0.05,0,0,0.05,0,0)" xlink:href="#aL"/><use transform="matrix(0.05,0,0,0.05,10,0)" xlink:href="#aS"/><use transform="matrix(0.05,0,0,0.05,20,0)" xlink:href="#aZ"/><use transform="matrix(0.05,0,0,0.05,30,0)" xlink:href="#aP"/><use transform="matrix(0.05,0,0,0.05,35.95,0)" xlink:href="#aN"/><use transform="matrix(0.05,0,0,0.05,45.95,0)" xlink:href="#aT"/><use transform="matrix(0.05,0,0,0.05,50.95,0)" xlink:href="#ba"/><use transform="matrix(0.05,0,0,0.05,60.95,0)" xlink:href="#aP"/><use transform="matrix(0.05,0,0,0.05,66.9,0)" xlink:href="#aJ"/><use transform="matrix(0.05,0,0,0.05,76.9,0)" xlink:href="#bb"/></g><use transform="matrix(0.05,0,0,0.05,0,0)" xlink:href="#aI" id="p"/><path d="M27 0v-27h64v-190l-56 39v-29l58-41h29v221h61V0H27" id="bc"/><g id="q"><use transform="matrix(0.05,0,0,0.05,0,0)" xlink:href="#aH"/><use transform="matrix(0.05,0,0,0.05,10,0)" xlink:href="#aM"/><use transform="matrix(0.05,0,0,0.05,20,0)" xlink:href="#aM"/><use transform="matrix(0.034999999999999996,0,0,0.034999999999999996,30,2.5199999999999996)" xlink:href="#bc"/><use transform="matrix(0.05,0,0,0.05,37,0)" xlink:href="#bb"/></g><path d="M108 0H70L1-190h34L89-25l56-165h34" id="bd"/><g id="r"><use transform="matrix(0.05,0,0,0.05,0,0)" xlink:href="#bd"/><use transform="matrix(0.05,0,0,0.05,9,0)" xlink:href="#aH"/><use transform="matrix(0.05,0,0,0.05,19,0)" xlink:href="#aU"/><use transform="matrix(0.034999999999999996,0,0,0.034999999999999996,22.95,2.5199999999999996)" xlink:href="#bc"/></g><path d="M101-251c82-7 93 87 43 132L82-64C71-53 59-42 53-27h129V0H18c2-99 128-94 128-182 0-28-16-43-45-43s-46 15-49 41l-32-3c6-41 34-60 81-64" id="be"/><g id="s"><use transform="matrix(0.05,0,0,0.05,0,0)" xlink:href="#aH"/><use transform="matrix(0.05,0,0,0.05,10,0)" xlink:href="#aM"/><use transform="matrix(0.05,0,0,0.05,20,0)" xlink:href="#aM"/><use transform="matrix(0.034999999999999996,0,0,0.034999999999999996,30,2.5199999999999996)" xlink:href="#be"/><use transform="matrix(0.05,0,0,0.05,37,0)" xlink:href="#bb"/></g><g id="t"><use transform="matrix(0.05,0,0,0.05,0,0)" xlink:href="#bd"/><use transform="matrix(0.05,0,0,0.05,9,0)" xlink:href="#aH"/><use transform="matrix(0.05,0,0,0.05,19,0)" xlink:href="#aU"/><use transform="matrix(0.034999999999999996,0,0,0.034999999999999996,22.95,2.5199999999999996)" xlink:href="#be"/></g><g id="u"><use transform="matrix(0.05,0,0,0.05,0,0)" xlink:href="#aK"/><use transform="matrix(0.05,0,0,0.05,12,0)" xlink:href="#aQ"/></g><g id="v"><use transform="matrix(0.05,0,0,0.05,0,0)" xlink:href="#aR"/><use transform="matrix(0.05,0,0,0.05,9,0)" xlink:href="#aG"/><use transform="matrix(0.05,0,0,0.05,19,0)" xlink:href="#aH"/><use transform="matrix(0.05,0,0,0.05,29,0)" xlink:href="#aI"/><use transform="matrix(0.05,0,0,0.05,32.95,0)" xlink:href="#aJ"/></g><use transform="matrix(0.05,0,0,0.05,0,0)" xlink:href="#aO" id="w"/><path d="M177-190C167-65 218 103 67 71c-23-6-38-20-44-43l32-5c15 47 100 32 89-28v-30C133-14 115 1 83 1 29 1 15-40 15-95c0-56 16-97 71-98 29-1 48 16 59 35 1-10 0-23 2-32h30zM94-22c36 0 50-32 50-73 0-42-14-75-50-75-39 0-46 34-46 75s6 73 46 73" id="bf"/><g id="x"><use transform="matrix(0.05,0,0,0.05,0,0)" xlink:href="#aS"/><use transform="matrix(0.05,0,0,0.05,10,0)" xlink:href="#aP"/><use transform="matrix(0.05,0,0,0.05,15.949999999999998,0)" xlink:href="#aL"/><use transform="matrix(0.05,0,0,0.05,25.950000000000003,0)" xlink:href="#bf"/><use transform="matrix(0.05,0,0,0.05,35.95,0)" xlink:href="#aP"/><use transform="matrix(0.05,0,0,0.05,41.900000000000006,0)" xlink:href="#aN"/><use transform="matrix(0.05,0,0,0.05,51.900000000000006,0)" xlink:href="#aQ"/><use transform="matrix(0.05,0,0,0.05,60.900000000000006,0)" xlink:href="#aQ"/><use transform="matrix(0.05,0,0,0.05,69.9,0)" xlink:href="#aN"/><use transform="matrix(0.05,0,0,0.05,79.9,0)" xlink:href="#aQ"/></g><g id="y"><use transform="matrix(0.05,0,0,0.05,0,0)" xlink:href="#aH"/><use transform="matrix(0.05,0,0,0.05,10,0)" xlink:href="#aJ"/><use transform="matrix(0.05,0,0,0.05,20,0)" xlink:href="#aM"/></g><g id="z"><use transform="matrix(0.05,0,0,0.05,0,0)" xlink:href="#aI"/><use transform="matrix(0.05,0,0,0.05,3.95,0)" xlink:href="#aT"/><use transform="matrix(0.05,0,0,0.05,8.95,0)" xlink:href="#aQ"/></g><g id="A"><use transform="matrix(0.05,0,0,0.05,0,0)" xlink:href="#aG"/><use transform="matrix(0.05,0,0,0.05,10,0)" xlink:href="#aN"/><use transform="matrix(0.05,0,0,0.05,20,0)" xlink:href="#aI"/><use transform="matrix(0.05,0,0,0.05,23.95,0)" xlink:href="#bf"/><use transform="matrix(0.05,0,0,0.05,33.95,0)" xlink:href="#aG"/><use transform="matrix(0.05,0,0,0.05,43.95,0)" xlink:href="#aT"/></g><g id="B"><use transform="matrix(0.05,0,0,0.05,0,0)" xlink:href="#bf"/><use transform="matrix(0.05,0,0,0.05,10,0)" xlink:href="#aL"/><use transform="matrix(0.05,0,0,0.05,20,0)" xlink:href="#aN"/><use transform="matrix(0.05,0,0,0.05,30,0)" xlink:href="#aQ"/></g><g id="C"><use transform="matrix(0.05,0,0,0.05,0,0)" xlink:href="#aS"/><use transform="matrix(0.05,0,0,0.05,10,0)" xlink:href="#aH"/><use transform="matrix(0.05,0,0,0.05,20,0)" xlink:href="#aQ"/><use transform="matrix(0.05,0,0,0.05,29,0)" xlink:href="#aT"/></g><use transform="matrix(0.05,0,0,0.05,0,0)" xlink:href="#aW" id="D"/><path d="M118-107v75H92v-75H18v-26h74v-75h26v75h74v26h-74" id="bg"/><use transform="matrix(0.05,0,0,0.05,0,0)" xlink:href="#bg" id="E"/><path d="M210-169c-67 3-38 105-44 169h-31v-121c0-29-5-50-35-48C34-165 62-65 56 0H25l-1-190h30c1 10-1 24 2 32 10-44 99-50 107 0 11-21 27-35 58-36 85-2 47 119 55 194h-31v-121c0-29-5-49-35-48" id="bh"/><path d="M233-177c-1 41-23 64-60 70L243 0h-38l-65-103H63V0H30v-248c88 3 205-21 203 71zM63-129c60-2 137 13 137-47 0-61-80-42-137-45v92" id="bi"/><path d="M68-38c1 34 0 65-14 84H32c9-13 17-26 17-46H33v-38h35" id="bj"/><g id="F"><use transform="matrix(0.05,0,0,0.05,0,0)" xlink:href="#bh"/><use transform="matrix(0.05,0,0,0.05,14.950000000000001,0)" xlink:href="#aH"/><use transform="matrix(0.05,0,0,0.05,24.950000000000003,0)" xlink:href="#aY"/><use transform="matrix(0.05,0,0,0.05,33.95,0)" xlink:href="#bi"/><use transform="matrix(0.05,0,0,0.05,46.900000000000006,0)" xlink:href="#aN"/><use transform="matrix(0.05,0,0,0.05,56.900000000000006,0)" xlink:href="#aL"/><use transform="matrix(0.05,0,0,0.05,66.9,0)" xlink:href="#aP"/><use transform="matrix(0.05,0,0,0.05,72.85000000000001,0)" xlink:href="#bf"/><use transform="matrix(0.034999999999999996,0,0,0.034999999999999996,82.85000000000001,2.5199999999999996)" xlink:href="#aO"/><use transform="matrix(0.05,0,0,0.05,91.25,0)" xlink:href="#bj"/></g><g id="G"><use transform="matrix(0.05,0,0,0.05,0,0)" xlink:href="#aN"/><use transform="matrix(0.05,0,0,0.05,10,0)" xlink:href="#aH"/><use transform="matrix(0.05,0,0,0.05,20,0)" xlink:href="#aR"/><use transform="matrix(0.05,0,0,0.05,29,0)" xlink:href="#aG"/></g><g id="H"><use transform="matrix(0.05,0,0,0.05,0,0)" xlink:href="#aJ"/><use transform="matrix(0.05,0,0,0.05,10,0)" xlink:href="#aL"/><use transform="matrix(0.05,0,0,0.05,20,0)" xlink:href="#aM"/><use transform="matrix(0.05,0,0,0.05,30,0)" xlink:href="#aN"/></g><path d="M206 0h-36l-40-164L89 0H53L-1-190h32L70-26l43-164h34l41 164 42-164h31" id="bk"/><g id="I"><use transform="matrix(0.05,0,0,0.05,0,0)" xlink:href="#bk"/><use transform="matrix(0.05,0,0,0.05,12.950000000000001,0)" xlink:href="#aI"/><use transform="matrix(0.05,0,0,0.05,16.900000000000002,0)" xlink:href="#aU"/><use transform="matrix(0.05,0,0,0.05,20.85,0)" xlink:href="#aU"/></g><g id="J"><use transform="matrix(0.05,0,0,0.05,0,0)" xlink:href="#ba"/><use transform="matrix(0.05,0,0,0.05,10,0)" xlink:href="#aS"/><use transform="matrix(0.05,0,0,0.05,20,0)" xlink:href="#aM"/><use transform="matrix(0.05,0,0,0.05,30,0)" xlink:href="#aH"/><use transform="matrix(0.05,0,0,0.05,40,0)" xlink:href="#aT"/><use transform="matrix(0.05,0,0,0.05,45,0)" xlink:href="#aN"/></g><g id="K"><use transform="matrix(0.05,0,0,0.05,0,0)" xlink:href="#aT"/><use transform="matrix(0.05,0,0,0.05,5,0)" xlink:href="#aG"/><use transform="matrix(0.05,0,0,0.05,15,0)" xlink:href="#aN"/></g><g id="L"><use transform="matrix(0.05,0,0,0.05,0,0)" xlink:href="#aQ"/><use transform="matrix(0.05,0,0,0.05,9,0)" xlink:href="#aT"/><use transform="matrix(0.05,0,0,0.05,14,0)" xlink:href="#aH"/><use transform="matrix(0.05,0,0,0.05,24,0)" xlink:href="#aT"/><use transform="matrix(0.05,0,0,0.05,29,0)" xlink:href="#ba"/><use transform="matrix(0.05,0,0,0.05,39,0)" xlink:href="#aQ"/></g><path d="M101-234c-31-9-42 10-38 44h38v23H63V0H32v-167H5v-23h27c-7-52 17-82 69-68v24" id="bl"/><g id="M"><use transform="matrix(0.05,0,0,0.05,0,0)" xlink:href="#aL"/><use transform="matrix(0.05,0,0,0.05,10,0)" xlink:href="#bl"/></g><g id="N"><use transform="matrix(0.05,0,0,0.05,0,0)" xlink:href="#aT"/><use transform="matrix(0.05,0,0,0.05,5,0)" xlink:href="#aG"/><use transform="matrix(0.05,0,0,0.05,15,0)" xlink:href="#aN"/></g><g id="O"><use transform="matrix(0.05,0,0,0.05,0,0)" xlink:href="#aR"/><use transform="matrix(0.05,0,0,0.05,9,0)" xlink:href="#aL"/><use transform="matrix(0.05,0,0,0.05,19,0)" xlink:href="#aP"/><use transform="matrix(0.05,0,0,0.05,24.95,0)" xlink:href="#aP"/><use transform="matrix(0.05,0,0,0.05,30.899999999999995,0)" xlink:href="#aN"/><use transform="matrix(0.05,0,0,0.05,40.9,0)" xlink:href="#aQ"/><use transform="matrix(0.05,0,0,0.05,49.9,0)" xlink:href="#aS"/><use transform="matrix(0.05,0,0,0.05,59.900000000000006,0)" xlink:href="#aL"/><use transform="matrix(0.05,0,0,0.05,69.9,0)" xlink:href="#aJ"/><use transform="matrix(0.05,0,0,0.05,79.9,0)" xlink:href="#aM"/><use transform="matrix(0.05,0,0,0.05,89.9,0)" xlink:href="#aI"/><use transform="matrix(0.05,0,0,0.05,93.85000000000001,0)" xlink:href="#aJ"/><use transform="matrix(0.05,0,0,0.05,103.85000000000001,0)" xlink:href="#bf"/></g><g id="P"><use transform="matrix(0.05,0,0,0.05,0,0)" xlink:href="#aR"/><use transform="matrix(0.05,0,0,0.05,9,0)" xlink:href="#aP"/><use transform="matrix(0.05,0,0,0.05,14.949999999999998,0)" xlink:href="#aL"/><use transform="matrix(0.05,0,0,0.05,24.95,0)" xlink:href="#aQ"/><use transform="matrix(0.05,0,0,0.05,33.95,0)" xlink:href="#aQ"/></g><g id="Q"><use transform="matrix(0.05,0,0,0.05,0,0)" xlink:href="#aQ"/><use transform="matrix(0.05,0,0,0.05,9,0)" xlink:href="#aN"/><use transform="matrix(0.05,0,0,0.05,19,0)" xlink:href="#aQ"/><use transform="matrix(0.05,0,0,0.05,28,0)" xlink:href="#aQ"/><use transform="matrix(0.05,0,0,0.05,37,0)" xlink:href="#aI"/><use transform="matrix(0.05,0,0,0.05,40.95,0)" xlink:href="#aL"/><use transform="matrix(0.05,0,0,0.05,50.95,0)" xlink:href="#aJ"/></g><g id="R"><use transform="matrix(0.05,0,0,0.05,0,0)" xlink:href="#aH"/><use transform="matrix(0.05,0,0,0.05,10,0)" xlink:href="#aJ"/><use transform="matrix(0.05,0,0,0.05,20,0)" xlink:href="#aM"/></g><g id="S"><use transform="matrix(0.05,0,0,0.05,0,0)" xlink:href="#bh"/><use transform="matrix(0.05,0,0,0.05,14.950000000000001,0)" xlink:href="#aH"/><use transform="matrix(0.05,0,0,0.05,24.950000000000003,0)" xlink:href="#aP"/><use transform="matrix(0.05,0,0,0.05,30.900000000000002,0)" xlink:href="#aV"/></g><g id="T"><use transform="matrix(0.05,0,0,0.05,0,0)" xlink:href="#aI"/><use transform="matrix(0.05,0,0,0.05,3.95,0)" xlink:href="#aT"/></g><g id="U"><use transform="matrix(0.05,0,0,0.05,0,0)" xlink:href="#aH"/><use transform="matrix(0.05,0,0,0.05,10,0)" xlink:href="#aQ"/></g><path d="M33 0v-38h34V0H33" id="bm"/><g id="V"><use transform="matrix(0.05,0,0,0.05,0,0)" xlink:href="#aR"/><use transform="matrix(0.05,0,0,0.05,9,0)" xlink:href="#aL"/><use transform="matrix(0.05,0,0,0.05,19,0)" xlink:href="#bh"/><use transform="matrix(0.05,0,0,0.05,33.95,0)" xlink:href="#aS"/><use transform="matrix(0.05,0,0,0.05,43.95,0)" xlink:href="#aU"/><use transform="matrix(0.05,0,0,0.05,47.900000000000006,0)" xlink:href="#aN"/><use transform="matrix(0.05,0,0,0.05,57.900000000000006,0)" xlink:href="#aT"/><use transform="matrix(0.05,0,0,0.05,62.900000000000006,0)" xlink:href="#aN"/><use transform="matrix(0.05,0,0,0.05,72.9,0)" xlink:href="#aM"/><use transform="matrix(0.05,0,0,0.05,82.9,0)" xlink:href="#bm"/></g><path d="M190 0L58-211 59 0H30v-248h39L202-35l-2-213h31V0h-41" id="bn"/><g id="X"><use transform="matrix(0.05,0,0,0.05,0,0)" xlink:href="#bn"/><use transform="matrix(0.05,0,0,0.05,12.950000000000001,0)" xlink:href="#aL"/></g><g id="Y"><use transform="matrix(0.05,0,0,0.05,0,0)" xlink:href="#bl"/><use transform="matrix(0.05,0,0,0.05,5,0)" xlink:href="#ba"/><use transform="matrix(0.05,0,0,0.05,15,0)" xlink:href="#aP"/><use transform="matrix(0.05,0,0,0.05,20.95,0)" xlink:href="#aT"/><use transform="matrix(0.05,0,0,0.05,25.950000000000003,0)" xlink:href="#aG"/><use transform="matrix(0.05,0,0,0.05,35.95,0)" xlink:href="#aN"/><use transform="matrix(0.05,0,0,0.05,45.95,0)" xlink:href="#aP"/></g><g id="Z"><use transform="matrix(0.05,0,0,0.05,0,0)" xlink:href="#bk"/><use transform="matrix(0.05,0,0,0.05,12.950000000000001,0)" xlink:href="#aL"/><use transform="matrix(0.05,0,0,0.05,22.950000000000003,0)" xlink:href="#aP"/><use transform="matrix(0.05,0,0,0.05,28.900000000000002,0)" xlink:href="#aV"/></g><g id="aa"><use transform="matrix(0.05,0,0,0.05,0,0)" xlink:href="#bk"/><use transform="matrix(0.05,0,0,0.05,12.950000000000001,0)" xlink:href="#aI"/><use transform="matrix(0.05,0,0,0.05,16.900000000000002,0)" xlink:href="#aU"/><use transform="matrix(0.05,0,0,0.05,20.85,0)" xlink:href="#aU"/></g><g id="ab"><use transform="matrix(0.05,0,0,0.05,0,0)" xlink:href="#aJ"/><use transform="matrix(0.05,0,0,0.05,10,0)" xlink:href="#aN"/><use transform="matrix(0.05,0,0,0.05,20,0)" xlink:href="#aN"/><use transform="matrix(0.05,0,0,0.05,30,0)" xlink:href="#aM"/></g><g id="ac"><use transform="matrix(0.05,0,0,0.05,0,0)" xlink:href="#aT"/><use transform="matrix(0.05,0,0,0.05,5,0)" xlink:href="#aL"/></g><path d="M115-194c53 0 69 39 70 98 0 66-23 100-70 100C84 3 66-7 56-30L54 0H23l1-261h32v101c10-23 28-34 59-34zm-8 174c40 0 45-34 45-75 0-40-5-75-45-74-42 0-51 32-51 76 0 43 10 73 51 73" id="bo"/><g id="ad"><use transform="matrix(0.05,0,0,0.05,0,0)" xlink:href="#bo"/><use transform="matrix(0.05,0,0,0.05,10,0)" xlink:href="#aN"/></g><g id="ae"><use transform="matrix(0.05,0,0,0.05,0,0)" xlink:href="#aM"/><use transform="matrix(0.05,0,0,0.05,10,0)" xlink:href="#aL"/><use transform="matrix(0.05,0,0,0.05,20,0)" xlink:href="#aJ"/><use transform="matrix(0.05,0,0,0.05,30,0)" xlink:href="#aN"/></g><g id="af"><use transform="matrix(0.05,0,0,0.05,0,0)" xlink:href="#bl"/><use transform="matrix(0.05,0,0,0.05,5,0)" xlink:href="#aL"/><use transform="matrix(0.05,0,0,0.05,15,0)" xlink:href="#aP"/></g><g id="ag"><use transform="matrix(0.05,0,0,0.05,0,0)" xlink:href="#aT"/><use transform="matrix(0.05,0,0,0.05,5,0)" xlink:href="#aG"/><use transform="matrix(0.05,0,0,0.05,15,0)" xlink:href="#aH"/><use transform="matrix(0.05,0,0,0.05,25,0)" xlink:href="#aT"/></g><g id="ah"><use transform="matrix(0.05,0,0,0.05,0,0)" xlink:href="#aQ"/><use transform="matrix(0.05,0,0,0.05,9,0)" xlink:href="#aN"/><use transform="matrix(0.05,0,0,0.05,19,0)" xlink:href="#aQ"/><use transform="matrix(0.05,0,0,0.05,28,0)" xlink:href="#aQ"/><use transform="matrix(0.05,0,0,0.05,37,0)" xlink:href="#aI"/><use transform="matrix(0.05,0,0,0.05,40.95,0)" xlink:href="#aL"/><use transform="matrix(0.05,0,0,0.05,50.95,0)" xlink:href="#aJ"/><use transform="matrix(0.05,0,0,0.05,60.95,0)" xlink:href="#bm"/></g><use transform="matrix(0.05,0,0,0.05,0,0)" xlink:href="#aI" id="ai"/><g id="aj"><use transform="matrix(0.05,0,0,0.05,0,0)" xlink:href="#bm"/><use transform="matrix(0.05,0,0,0.05,5,0)" xlink:href="#bm"/><use transform="matrix(0.05,0,0,0.05,10,0)" xlink:href="#bm"/></g><path d="M63-220v92h138v28H63V0H30v-248h175v28H63" id="bp"/><g id="ak"><use transform="matrix(0.05,0,0,0.05,0,0)" xlink:href="#bp"/><use transform="matrix(0.05,0,0,0.05,10.950000000000001,0)" xlink:href="#aN"/><use transform="matrix(0.05,0,0,0.05,20.950000000000003,0)" xlink:href="#aM"/><use transform="matrix(0.05,0,0,0.05,30.950000000000003,0)" xlink:href="#aN"/><use transform="matrix(0.05,0,0,0.05,40.95,0)" xlink:href="#aP"/><use transform="matrix(0.05,0,0,0.05,46.900000000000006,0)" xlink:href="#aH"/><use transform="matrix(0.05,0,0,0.05,56.900000000000006,0)" xlink:href="#aT"/><use transform="matrix(0.05,0,0,0.05,61.900000000000006,0)" xlink:href="#aI"/><use transform="matrix(0.05,0,0,0.05,65.85000000000001,0)" xlink:href="#aL"/><use transform="matrix(0.05,0,0,0.05,75.85000000000001,0)" xlink:href="#aJ"/></g><path d="M240 0l2-218c-23 76-54 145-80 218h-23L58-218 59 0H30v-248h44l77 211c21-75 51-140 76-211h43V0h-30" id="bq"/><g id="al"><use transform="matrix(0.05,0,0,0.05,0,0)" xlink:href="#bq"/><use transform="matrix(0.05,0,0,0.05,14.950000000000001,0)" xlink:href="#aN"/><use transform="matrix(0.05,0,0,0.05,24.950000000000003,0)" xlink:href="#bh"/><use transform="matrix(0.05,0,0,0.05,39.900000000000006,0)" xlink:href="#bo"/><use transform="matrix(0.05,0,0,0.05,49.900000000000006,0)" xlink:href="#aN"/><use transform="matrix(0.05,0,0,0.05,59.900000000000006,0)" xlink:href="#aP"/></g><g id="am"><use transform="matrix(0.05,0,0,0.05,0,0)" xlink:href="#bp"/><use transform="matrix(0.05,0,0,0.05,10.950000000000001,0)" xlink:href="#bq"/><use transform="matrix(0.034999999999999996,0,0,0.034999999999999996,25.900000000000002,2.5199999999999996)" xlink:href="#bc"/></g><g id="an"><use transform="matrix(0.05,0,0,0.05,0,0)" xlink:href="#bp"/><use transform="matrix(0.05,0,0,0.05,10.950000000000001,0)" xlink:href="#bq"/><use transform="matrix(0.034999999999999996,0,0,0.034999999999999996,25.900000000000002,2.5199999999999996)" xlink:href="#be"/></g><path d="M126-127c33 6 58 20 58 59 0 88-139 92-164 29-3-8-5-16-6-25l32-3c6 27 21 44 54 44 32 0 52-15 52-46 0-38-36-46-79-43v-28c39 1 72-4 72-42 0-27-17-43-46-43-28 0-47 15-49 41l-32-3c6-42 35-63 81-64 48-1 79 21 79 65 0 36-21 52-52 59" id="br"/><g id="ao"><use transform="matrix(0.05,0,0,0.05,0,0)" xlink:href="#bp"/><use transform="matrix(0.05,0,0,0.05,10.950000000000001,0)" xlink:href="#bq"/><use transform="matrix(0.034999999999999996,0,0,0.034999999999999996,25.900000000000002,2.5199999999999996)" xlink:href="#br"/></g><use transform="matrix(0.05,0,0,0.05,0,0)" xlink:href="#aK" id="ap"/><use transform="matrix(0.05,0,0,0.05,0,0)" xlink:href="#aI" id="aq"/><use transform="matrix(0.05,0,0,0.05,0,0)" xlink:href="#bg" id="ar"/><g id="as"><use transform="matrix(0.05,0,0,0.05,0,0)" xlink:href="#bh"/><use transform="matrix(0.05,0,0,0.05,14.950000000000001,0)" xlink:href="#aH"/><use transform="matrix(0.05,0,0,0.05,24.950000000000003,0)" xlink:href="#aY"/><use transform="matrix(0.05,0,0,0.05,33.95,0)" xlink:href="#bi"/><use transform="matrix(0.05,0,0,0.05,46.900000000000006,0)" xlink:href="#aN"/><use transform="matrix(0.05,0,0,0.05,56.900000000000006,0)" xlink:href="#aL"/><use transform="matrix(0.05,0,0,0.05,66.9,0)" xlink:href="#aP"/><use transform="matrix(0.05,0,0,0.05,72.85000000000001,0)" xlink:href="#bf"/><use transform="matrix(0.034999999999999996,0,0,0.034999999999999996,82.85000000000001,2.5199999999999996)" xlink:href="#aK"/></g><g id="au"><use transform="matrix(0.05,0,0,0.05,0,0)" xlink:href="#aT"/><use transform="matrix(0.05,0,0,0.05,5,0)" xlink:href="#aY"/><use transform="matrix(0.034999999999999996,0,0,0.034999999999999996,14,2.5199999999999996)" xlink:href="#bc"/></g><g id="av"><use transform="matrix(0.05,0,0,0.05,0,0)" xlink:href="#bh"/><use transform="matrix(0.05,0,0,0.05,14.950000000000001,0)" xlink:href="#ba"/><use transform="matrix(0.05,0,0,0.05,24.950000000000003,0)" xlink:href="#aU"/><use transform="matrix(0.05,0,0,0.05,28.900000000000002,0)" xlink:href="#aT"/><use transform="matrix(0.05,0,0,0.05,33.900000000000006,0)" xlink:href="#aI"/><use transform="matrix(0.05,0,0,0.05,37.85000000000001,0)" xlink:href="#aQ"/><use transform="matrix(0.05,0,0,0.05,46.85000000000001,0)" xlink:href="#aI"/><use transform="matrix(0.05,0,0,0.05,50.80000000000001,0)" xlink:href="#bf"/><use transform="matrix(0.05,0,0,0.05,60.80000000000001,0)" xlink:href="#bb"/></g><g id="aw"><use transform="matrix(0.05,0,0,0.05,0,0)" xlink:href="#aL"/><use transform="matrix(0.05,0,0,0.05,10,0)" xlink:href="#aS"/><use transform="matrix(0.05,0,0,0.05,20,0)" xlink:href="#aZ"/><use transform="matrix(0.05,0,0,0.05,30,0)" xlink:href="#aP"/><use transform="matrix(0.05,0,0,0.05,35.95,0)" xlink:href="#aN"/><use transform="matrix(0.05,0,0,0.05,45.95,0)" xlink:href="#aT"/><use transform="matrix(0.05,0,0,0.05,50.95,0)" xlink:href="#bb"/></g><g id="ax"><use transform="matrix(0.05,0,0,0.05,0,0)" xlink:href="#aH"/><use transform="matrix(0.05,0,0,0.05,10,0)" xlink:href="#aM"/><use transform="matrix(0.05,0,0,0.05,20,0)" xlink:href="#aM"/><use transform="matrix(0.034999999999999996,0,0,0.034999999999999996,30,2.5199999999999996)" xlink:href="#bc"/></g><g id="ay"><use transform="matrix(0.05,0,0,0.05,0,0)" xlink:href="#aT"/><use transform="matrix(0.05,0,0,0.05,5,0)" xlink:href="#aY"/><use transform="matrix(0.034999999999999996,0,0,0.034999999999999996,14,2.5199999999999996)" xlink:href="#be"/></g><g id="az"><use transform="matrix(0.05,0,0,0.05,0,0)" xlink:href="#aX"/><use transform="matrix(0.05,0,0,0.05,5.95,0)" xlink:href="#bh"/><use transform="matrix(0.05,0,0,0.05,20.900000000000002,0)" xlink:href="#ba"/><use transform="matrix(0.05,0,0,0.05,30.900000000000002,0)" xlink:href="#aU"/><use transform="matrix(0.05,0,0,0.05,34.85,0)" xlink:href="#aT"/><use transform="matrix(0.05,0,0,0.05,39.85,0)" xlink:href="#aI"/><use transform="matrix(0.05,0,0,0.05,43.800000000000004,0)" xlink:href="#aQ"/><use transform="matrix(0.05,0,0,0.05,52.800000000000004,0)" xlink:href="#aI"/><use transform="matrix(0.05,0,0,0.05,56.75,0)" xlink:href="#bf"/><use transform="matrix(0.05,0,0,0.05,66.75,0)" xlink:href="#bb"/></g><g id="aA"><use transform="matrix(0.05,0,0,0.05,0,0)" xlink:href="#bd"/><use transform="matrix(0.05,0,0,0.05,9,0)" xlink:href="#aH"/><use transform="matrix(0.05,0,0,0.05,19,0)" xlink:href="#aU"/><use transform="matrix(0.034999999999999996,0,0,0.034999999999999996,22.95,2.5199999999999996)" xlink:href="#be"/></g><g id="aB"><use transform="matrix(0.05,0,0,0.05,0,0)" xlink:href="#aH"/><use transform="matrix(0.05,0,0,0.05,10,0)" xlink:href="#aM"/><use transform="matrix(0.05,0,0,0.05,20,0)" xlink:href="#aM"/><use transform="matrix(0.034999999999999996,0,0,0.034999999999999996,30,2.5199999999999996)" xlink:href="#be"/></g><g id="aC"><use transform="matrix(0.05,0,0,0.05,0,0)" xlink:href="#bm"/><use transform="matrix(0.05,0,0,0.05,5,0)" xlink:href="#bm"/><use transform="matrix(0.05,0,0,0.05,10,0)" xlink:href="#bm"/></g><use transform="matrix(0.05,0,0,0.05,0,0)" xlink:href="#bc" id="aD"/><g id="aE"><use transform="matrix(0.05,0,0,0.05,0,0)" xlink:href="#bh"/><use transform="matrix(0.05,0,0,0.05,14.950000000000001,0)" xlink:href="#aH"/><use transform="matrix(0.05,0,0,0.05,24.950000000000003,0)" xlink:href="#aY"/><use transform="matrix(0.05,0,0,0.05,33.95,0)" xlink:href="#bi"/><use transform="matrix(0.05,0,0,0.05,46.900000000000006,0)" xlink:href="#aN"/><use transform="matrix(0.05,0,0,0.05,56.900000000000006,0)" xlink:href="#aL"/><use transform="matrix(0.05,0,0,0.05,66.9,0)" xlink:href="#aP"/><use transform="matrix(0.05,0,0,0.05,72.85000000000001,0)" xlink:href="#bf"/><use transform="matrix(0.034999999999999996,0,0,0.034999999999999996,82.85000000000001,2.5199999999999996)" xlink:href="#aO"/></g></defs></g></svg>