<svg xmlns="http://www.w3.org/2000/svg" xmlns:xlink="http://www.w3.org/1999/xlink" xmlns:lucid="lucid" width="1540" height="1200"><g transform="translate(0 0)" lucid:page-tab-id="0_0"><path d="M40 1000h140l40 30v50H40z" stroke="#000" stroke-width="2" fill="#c7e8ac"/><path d="M30 1010h140l40 30v50H30z" stroke="#000" stroke-width="2" fill="#c7e8ac"/><path d="M20 1020h140l40 30v50H20z" stroke="#000" stroke-width="2" fill="#c7e8ac"/><use xlink:href="#a" transform="matrix(1,0,0,1,20,1020) translate(58.05 43.6)"/><use xlink:href="#b" transform="matrix(1,0,0,1,20,1020) translate(109.95 43.6)"/><path d="M20 720h160l40 72v168H20z" stroke="#000" stroke-width="2" fill="#c7e8ac"/><use xlink:href="#c" transform="matrix(1,0,0,1,20,720) translate(5.01 19.41)"/><use xlink:href="#d" transform="matrix(1,0,0,1,20,720) translate(53.96 19.41)"/><use xlink:href="#e" transform="matrix(1,0,0,1,20,720) translate(5.01 41.01)"/><use xlink:href="#f" transform="matrix(1,0,0,1,20,720) translate(5.01 62.61)"/><use xlink:href="#g" transform="matrix(1,0,0,1,20,720) translate(15.959999999999999 62.61)"/><use xlink:href="#h" transform="matrix(1,0,0,1,20,720) translate(36.01 84.21000000000001)"/><use xlink:href="#i" transform="matrix(1,0,0,1,20,720) translate(46.959999999999994 84.21000000000001)"/><use xlink:href="#j" transform="matrix(1,0,0,1,20,720) translate(117.76 84.21000000000001)"/><use xlink:href="#h" transform="matrix(1,0,0,1,20,720) translate(36.01 105.81)"/><use xlink:href="#k" transform="matrix(1,0,0,1,20,720) translate(46.959999999999994 105.81)"/><use xlink:href="#l" transform="matrix(1,0,0,1,20,720) translate(107.91 105.81)"/><use xlink:href="#f" transform="matrix(1,0,0,1,20,720) translate(5.01 127.41)"/><use xlink:href="#m" transform="matrix(1,0,0,1,20,720) translate(15.959999999999999 127.41)"/><use xlink:href="#n" transform="matrix(1,0,0,1,20,720) translate(36.01 149.01)"/><use xlink:href="#o" transform="matrix(1,0,0,1,20,720) translate(112.75999999999999 149.01)"/><use xlink:href="#h" transform="matrix(1,0,0,1,20,720) translate(36.01 170.60999999999999)"/><use xlink:href="#k" transform="matrix(1,0,0,1,20,720) translate(46.959999999999994 170.60999999999999)"/><use xlink:href="#p" transform="matrix(1,0,0,1,20,720) translate(107.91 170.60999999999999)"/><use xlink:href="#q" transform="matrix(1,0,0,1,20,720) translate(5.01 192.20999999999998)"/><path d="M120 999v-19.76" stroke="#000" stroke-width="2" fill="none"/><path d="M121 1000h-2v-1h2zM124.64 978.5h-9.28l4.64-14.26z"/><path d="M126 979.5h-12l6-18.5zm-9.26-2h6.52L120 967.47z"/><path d="M1230 20c16.57 0 30 13.43 30 30v300c0 16.57-13.43 30-30 30H370c-16.57 0-30-13.43-30-30V50c0-16.57 13.43-30 30-30z" stroke="#000" stroke-width="2" fill="#e5e5e5"/><path d="M450 80c0 22.1-17.9 40-40 40s-40-17.9-40-40 17.9-40 40-40 40 17.9 40 40z" stroke="#000" stroke-width="2" fill="#c7e8ac"/><use xlink:href="#a" transform="matrix(1,0,0,1,375,45) translate(3.549999999999997 27.799999999999997)"/><use xlink:href="#r" transform="matrix(1,0,0,1,375,45) translate(55.45 27.799999999999997)"/><use xlink:href="#s" transform="matrix(1,0,0,1,375,45) translate(15 49.4)"/><path d="M859 80c0 22.1-17.9 40-40 40s-40-17.9-40-40 17.9-40 40-40 40 17.9 40 40z" stroke="#000" stroke-width="2" fill="#ffbbb1"/><use xlink:href="#a" transform="matrix(1,0,0,1,783.9993760969041,45) translate(3.049999999999997 27.799999999999997)"/><use xlink:href="#t" transform="matrix(1,0,0,1,783.9993760969041,45) translate(54.95 27.799999999999997)"/><use xlink:href="#s" transform="matrix(1,0,0,1,783.9993760969041,45) translate(15 49.4)"/><path d="M460 268.2c0 6.66-22.4 12.05-50 12.05s-50-5.4-50-12.05v-96.4c0-6.66 22.4-12.05 50-12.05s50 5.4 50 12.05z" stroke="#000" stroke-width="2" fill="#c7e8ac"/><path d="M460 171.8c0 6.66-22.4 12.05-50 12.05s-50-5.4-50-12.05" stroke="#000" stroke-width="2" fill="none"/><use xlink:href="#u" transform="matrix(1,0,0,1,365,188.85) translate(21.549999999999997 14.69999999999999)"/><use xlink:href="#v" transform="matrix(1,0,0,1,365,188.85) translate(23.525 36.29999999999999)"/><use xlink:href="#w" transform="matrix(1,0,0,1,365,188.85) translate(14.524999999999999 57.89999999999999)"/><use xlink:href="#x" transform="matrix(1,0,0,1,365,188.85) translate(-0.9500000000000028 79.5)"/><path d="M340 320h240v60H340z" stroke="#000" stroke-opacity="0" stroke-width="2" fill="#fff" fill-opacity="0"/><use xlink:href="#y" transform="matrix(1,0,0,1,345,325) translate(17.69999999999999 28.6)"/><use xlink:href="#z" transform="matrix(1,0,0,1,345,325) translate(108.55 28.6)"/><use xlink:href="#A" transform="matrix(1,0,0,1,345,325) translate(179.4 28.6)"/><path d="M869 286c0 7.73-22.4 14-50 14s-50-6.27-50-14V174c0-7.73 22.4-14 50-14s50 6.27 50 14z" stroke="#000" stroke-width="2" fill="#ffbbb1"/><path d="M869 174c0 7.73-22.4 14-50 14s-50-6.27-50-14" stroke="#000" stroke-width="2" fill="none"/><use xlink:href="#u" transform="matrix(1,0,0,1,773.9993760969041,193) translate(21.549999999999997 22.19999999999999)"/><use xlink:href="#v" transform="matrix(1,0,0,1,773.9993760969041,193) translate(23.525 43.79999999999999)"/><use xlink:href="#w" transform="matrix(1,0,0,1,773.9993760969041,193) translate(14.524999999999999 65.39999999999999)"/><use xlink:href="#x" transform="matrix(1,0,0,1,773.9993760969041,193) translate(-0.9500000000000028 87)"/><path d="M1230 420c16.57 0 30 13.43 30 30v300c0 16.57-13.43 30-30 30H370c-16.57 0-30-13.43-30-30V450c0-16.57 13.43-30 30-30z" stroke="#000" stroke-width="2" fill="#e5e5e5"/><path d="M450 480c0 22.1-17.9 40-40 40s-40-17.9-40-40 17.9-40 40-40 40 17.9 40 40z" stroke="#000" stroke-width="2" fill="#c7e8ac"/><g><use xlink:href="#a" transform="matrix(1,0,0,1,375,445) translate(3.549999999999997 27.799999999999997)"/><use xlink:href="#r" transform="matrix(1,0,0,1,375,445) translate(55.45 27.799999999999997)"/><use xlink:href="#s" transform="matrix(1,0,0,1,375,445) translate(15 49.4)"/></g><path d="M870 480c0 22.1-17.9 40-40 40s-40-17.9-40-40 17.9-40 40-40 40 17.9 40 40z" stroke="#000" stroke-width="2" fill="#ffbbb1"/><g><use xlink:href="#a" transform="matrix(1,0,0,1,794.9999999999999,445) translate(3.049999999999997 27.799999999999997)"/><use xlink:href="#t" transform="matrix(1,0,0,1,794.9999999999999,445) translate(54.95 27.799999999999997)"/><use xlink:href="#s" transform="matrix(1,0,0,1,794.9999999999999,445) translate(15 49.4)"/></g><path d="M460 668.2c0 6.66-22.4 12.05-50 12.05s-50-5.4-50-12.05v-96.4c0-6.66 22.4-12.05 50-12.05s50 5.4 50 12.05z" stroke="#000" stroke-width="2" fill="#c7e8ac"/><path d="M460 571.8c0 6.66-22.4 12.05-50 12.05s-50-5.4-50-12.05" stroke="#000" stroke-width="2" fill="none"/><g><use xlink:href="#u" transform="matrix(1,0,0,1,365,588.85) translate(21.549999999999997 14.69999999999999)"/><use xlink:href="#v" transform="matrix(1,0,0,1,365,588.85) translate(23.525 36.29999999999999)"/><use xlink:href="#w" transform="matrix(1,0,0,1,365,588.85) translate(14.524999999999999 57.89999999999999)"/><use xlink:href="#x" transform="matrix(1,0,0,1,365,588.85) translate(-0.9500000000000028 79.5)"/></g><path d="M340 720h240v60H340z" stroke="#000" stroke-opacity="0" stroke-width="2" fill="#fff" fill-opacity="0"/><g><use xlink:href="#y" transform="matrix(1,0,0,1,345,725) translate(17.69999999999999 28.6)"/><use xlink:href="#z" transform="matrix(1,0,0,1,345,725) translate(108.55 28.6)"/><use xlink:href="#B" transform="matrix(1,0,0,1,345,725) translate(179.4 28.6)"/></g><path d="M880 668.2c0 6.66-22.4 12.05-50 12.05s-50-5.4-50-12.05v-96.4c0-6.66 22.4-12.05 50-12.05s50 5.4 50 12.05z" stroke="#000" stroke-width="2" fill="#ffbbb1"/><path d="M880 571.8c0 6.66-22.4 12.05-50 12.05s-50-5.4-50-12.05" stroke="#000" stroke-width="2" fill="none"/><g><use xlink:href="#u" transform="matrix(1,0,0,1,784.9999999999999,588.85) translate(21.549999999999997 14.69999999999999)"/><use xlink:href="#v" transform="matrix(1,0,0,1,784.9999999999999,588.85) translate(23.525 36.29999999999999)"/><use xlink:href="#w" transform="matrix(1,0,0,1,784.9999999999999,588.85) translate(14.524999999999999 57.89999999999999)"/><use xlink:href="#x" transform="matrix(1,0,0,1,784.9999999999999,588.85) translate(-0.9500000000000028 79.5)"/></g><path d="M1380 930.5h108l32 30v50h-140z" stroke="#000" stroke-width="2" fill="#ffbbb1"/><path d="M1370 940.5h108l32 30v50h-140z" stroke="#000" stroke-width="2" fill="#ffbbb1"/><path d="M1360 950.5h108l32 30v50h-140z" stroke="#000" stroke-width="2" fill="#ffbbb1"/><g><use xlink:href="#a" transform="matrix(1,0,0,1,1360,950.5) translate(38.05 43.6)"/><use xlink:href="#C" transform="matrix(1,0,0,1,1360,950.5) translate(89.95 43.6)"/></g><path d="M1230 820c16.57 0 30 13.43 30 30v300c0 16.57-13.43 30-30 30H370c-16.57 0-30-13.43-30-30V850c0-16.57 13.43-30 30-30z" stroke="#000" stroke-width="2" fill="#e5e5e5"/><path d="M450 880c0 22.1-17.9 40-40 40s-40-17.9-40-40 17.9-40 40-40 40 17.9 40 40z" stroke="#000" stroke-width="2" fill="#c7e8ac"/><g><use xlink:href="#a" transform="matrix(1,0,0,1,375,845) translate(3.549999999999997 27.799999999999997)"/><use xlink:href="#r" transform="matrix(1,0,0,1,375,845) translate(55.45 27.799999999999997)"/><use xlink:href="#s" transform="matrix(1,0,0,1,375,845) translate(15 49.4)"/></g><path d="M870 880c0 22.1-17.9 40-40 40s-40-17.9-40-40 17.9-40 40-40 40 17.9 40 40z" stroke="#000" stroke-width="2" fill="#ffbbb1"/><g><use xlink:href="#a" transform="matrix(1,0,0,1,794.9999999999999,845) translate(3.049999999999997 27.799999999999997)"/><use xlink:href="#t" transform="matrix(1,0,0,1,794.9999999999999,845) translate(54.95 27.799999999999997)"/><use xlink:href="#s" transform="matrix(1,0,0,1,794.9999999999999,845) translate(15 49.4)"/></g><path d="M460 1068.2c0 6.66-22.4 12.05-50 12.05s-50-5.4-50-12.05v-96.4c0-6.66 22.4-12.05 50-12.05s50 5.4 50 12.05z" stroke="#000" stroke-width="2" fill="#c7e8ac"/><path d="M460 971.8c0 6.66-22.4 12.05-50 12.05s-50-5.4-50-12.05" stroke="#000" stroke-width="2" fill="none"/><g><use xlink:href="#u" transform="matrix(1,0,0,1,365,988.8499999999999) translate(21.549999999999997 14.69999999999999)"/><use xlink:href="#v" transform="matrix(1,0,0,1,365,988.8499999999999) translate(23.525 36.29999999999999)"/><use xlink:href="#w" transform="matrix(1,0,0,1,365,988.8499999999999) translate(14.524999999999999 57.89999999999999)"/><use xlink:href="#x" transform="matrix(1,0,0,1,365,988.8499999999999) translate(-0.9500000000000028 79.5)"/></g><path d="M340 1120h240v60H340z" stroke="#000" stroke-opacity="0" stroke-width="2" fill="#fff" fill-opacity="0"/><g><use xlink:href="#y" transform="matrix(1,0,0,1,345,1125) translate(17.69999999999999 28.6)"/><use xlink:href="#z" transform="matrix(1,0,0,1,345,1125) translate(108.55 28.6)"/><use xlink:href="#D" transform="matrix(1,0,0,1,345,1125) translate(179.4 28.6)"/></g><path d="M880 1068.45c0 6.66-22.4 12.05-50 12.05s-50-5.4-50-12.05v-96.4c0-6.66 22.4-12.05 50-12.05s50 5.4 50 12.05z" stroke="#000" stroke-width="2" fill="#ffbbb1"/><path d="M880 972.05c0 6.66-22.4 12.05-50 12.05s-50-5.4-50-12.05" stroke="#000" stroke-width="2" fill="none"/><g><use xlink:href="#u" transform="matrix(1,0,0,1,784.9999999999999,989.1) translate(21.549999999999997 14.69999999999999)"/><use xlink:href="#v" transform="matrix(1,0,0,1,784.9999999999999,989.1) translate(23.525 36.29999999999999)"/><use xlink:href="#w" transform="matrix(1,0,0,1,784.9999999999999,989.1) translate(14.524999999999999 57.89999999999999)"/><use xlink:href="#x" transform="matrix(1,0,0,1,784.9999999999999,989.1) translate(-0.9500000000000028 79.5)"/></g><path d="M20 20h240v463.6H20z" stroke="#000" stroke-opacity="0" stroke-width="2" fill="#fff" fill-opacity="0"/><g><use xlink:href="#E" transform="matrix(1,0,0,1,25,25) translate(0 14.4)"/><use xlink:href="#F" transform="matrix(1,0,0,1,25,25) translate(16 14.4)"/><use xlink:href="#G" transform="matrix(1,0,0,1,25,25) translate(63.95 14.4)"/><use xlink:href="#H" transform="matrix(1,0,0,1,25,25) translate(111.9 14.4)"/><use xlink:href="#I" transform="matrix(1,0,0,1,25,25) translate(177.8 14.4)"/><use xlink:href="#J" transform="matrix(1,0,0,1,25,25) translate(0 36)"/><use xlink:href="#K" transform="matrix(1,0,0,1,25,25) translate(66.85 36)"/><use xlink:href="#L" transform="matrix(1,0,0,1,25,25) translate(91.85 36)"/><use xlink:href="#G" transform="matrix(1,0,0,1,25,25) translate(121.85 36)"/><use xlink:href="#M" transform="matrix(1,0,0,1,25,25) translate(169.8 36)"/><use xlink:href="#N" transform="matrix(1,0,0,1,25,25) translate(185.8 36)"/><use xlink:href="#O" transform="matrix(1,0,0,1,25,25) translate(0 57.6)"/><use xlink:href="#P" transform="matrix(1,0,0,1,25,25) translate(53.95 57.6)"/><use xlink:href="#Q" transform="matrix(1,0,0,1,25,25) translate(62.900000000000006 57.6)"/><use xlink:href="#R" transform="matrix(1,0,0,1,25,25) translate(86.9 57.6)"/><use xlink:href="#S" transform="matrix(1,0,0,1,25,25) translate(154.85000000000002 57.6)"/><use xlink:href="#T" transform="matrix(1,0,0,1,25,25) translate(203.85000000000002 57.6)"/><use xlink:href="#L" transform="matrix(1,0,0,1,25,25) translate(0 79.20000000000002)"/><use xlink:href="#U" transform="matrix(1,0,0,1,25,25) translate(30 79.20000000000002)"/><use xlink:href="#V" transform="matrix(1,0,0,1,25,25) translate(95.80000000000001 79.20000000000002)"/><use xlink:href="#W" transform="matrix(1,0,0,1,25,25) translate(164.75 79.20000000000002)"/><use xlink:href="#X" transform="matrix(1,0,0,1,25,25) translate(184.75 79.20000000000002)"/><use xlink:href="#Y" transform="matrix(1,0,0,1,25,25) translate(0 100.80000000000001)"/><use xlink:href="#Z" transform="matrix(1,0,0,1,25,25) translate(0 122.4)"/><use xlink:href="#aa" transform="matrix(1,0,0,1,25,25) translate(0 144)"/><use xlink:href="#ab" transform="matrix(1,0,0,1,25,25) translate(20 144)"/><use xlink:href="#ac" transform="matrix(1,0,0,1,25,25) translate(65.9 144)"/><use xlink:href="#ad" transform="matrix(1,0,0,1,25,25) translate(122.80000000000001 144)"/><use xlink:href="#e" transform="matrix(1,0,0,1,25,25) translate(0 165.6)"/><use xlink:href="#ae" transform="matrix(1,0,0,1,25,25) translate(0 187.2)"/><use xlink:href="#af" transform="matrix(1,0,0,1,25,25) translate(26 187.2)"/><use xlink:href="#L" transform="matrix(1,0,0,1,25,25) translate(97.95 187.2)"/><use xlink:href="#ag" transform="matrix(1,0,0,1,25,25) translate(127.95 187.2)"/><use xlink:href="#ah" transform="matrix(1,0,0,1,25,25) translate(175.9 187.2)"/><use xlink:href="#T" transform="matrix(1,0,0,1,25,25) translate(210.85000000000002 187.2)"/><use xlink:href="#L" transform="matrix(1,0,0,1,25,25) translate(0 208.79999999999998)"/><use xlink:href="#U" transform="matrix(1,0,0,1,25,25) translate(30 208.79999999999998)"/><use xlink:href="#V" transform="matrix(1,0,0,1,25,25) translate(95.80000000000001 208.79999999999998)"/><use xlink:href="#ai" transform="matrix(1,0,0,1,25,25) translate(164.75 208.79999999999998)"/><use xlink:href="#G" transform="matrix(1,0,0,1,25,25) translate(0 230.39999999999998)"/><use xlink:href="#aj" transform="matrix(1,0,0,1,25,25) translate(47.95 230.39999999999998)"/><use xlink:href="#ak" transform="matrix(1,0,0,1,25,25) translate(0 251.99999999999997)"/><use xlink:href="#al" transform="matrix(1,0,0,1,25,25) translate(26 251.99999999999997)"/><use xlink:href="#am" transform="matrix(1,0,0,1,25,25) translate(63.95 251.99999999999997)"/><use xlink:href="#an" transform="matrix(1,0,0,1,25,25) translate(117.95 251.99999999999997)"/><use xlink:href="#ao" transform="matrix(1,0,0,1,25,25) translate(137.95 251.99999999999997)"/><use xlink:href="#X" transform="matrix(1,0,0,1,25,25) translate(198.89999999999998 251.99999999999997)"/><use xlink:href="#ap" transform="matrix(1,0,0,1,25,25) translate(0 273.59999999999997)"/><use xlink:href="#K" transform="matrix(1,0,0,1,25,25) translate(73.95 273.59999999999997)"/><use xlink:href="#G" transform="matrix(1,0,0,1,25,25) translate(98.95 273.59999999999997)"/><use xlink:href="#aq" transform="matrix(1,0,0,1,25,25) translate(146.9 273.59999999999997)"/><use xlink:href="#ar" transform="matrix(1,0,0,1,25,25) translate(168.9 273.59999999999997)"/><use xlink:href="#L" transform="matrix(1,0,0,1,25,25) translate(0 295.2)"/><use xlink:href="#as" transform="matrix(1,0,0,1,25,25) translate(30 295.2)"/><use xlink:href="#at" transform="matrix(1,0,0,1,25,25) translate(76.95 295.2)"/><use xlink:href="#au" transform="matrix(1,0,0,1,25,25) translate(134.9 295.2)"/><use xlink:href="#av" transform="matrix(1,0,0,1,25,25) translate(0 316.8)"/><use xlink:href="#aw" transform="matrix(1,0,0,1,25,25) translate(96.85000000000001 316.8)"/><use xlink:href="#ax" transform="matrix(1,0,0,1,25,25) translate(135.75 316.8)"/><use xlink:href="#ay" transform="matrix(1,0,0,1,25,25) translate(153.7 316.8)"/><use xlink:href="#az" transform="matrix(1,0,0,1,25,25) translate(198.7 316.8)"/><use xlink:href="#aA" transform="matrix(1,0,0,1,25,25) translate(0 338.40000000000003)"/><use xlink:href="#L" transform="matrix(1,0,0,1,25,25) translate(66.95 338.40000000000003)"/><use xlink:href="#V" transform="matrix(1,0,0,1,25,25) translate(96.95 338.40000000000003)"/><use xlink:href="#aB" transform="matrix(1,0,0,1,25,25) translate(165.9 338.40000000000003)"/><use xlink:href="#aC" transform="matrix(1,0,0,1,25,25) translate(207.9 338.40000000000003)"/><use xlink:href="#aD" transform="matrix(1,0,0,1,25,25) translate(0 360.00000000000006)"/><use xlink:href="#aE" transform="matrix(1,0,0,1,25,25) translate(25 360.00000000000006)"/><use xlink:href="#aF" transform="matrix(1,0,0,1,25,25) translate(140.75 360.00000000000006)"/><use xlink:href="#aG" transform="matrix(1,0,0,1,25,25) translate(195.75 360.00000000000006)"/><use xlink:href="#L" transform="matrix(1,0,0,1,25,25) translate(0 381.6000000000001)"/><use xlink:href="#aH" transform="matrix(1,0,0,1,25,25) translate(30 381.6000000000001)"/><use xlink:href="#aI" transform="matrix(1,0,0,1,25,25) translate(122.9 381.6000000000001)"/><use xlink:href="#e" transform="matrix(1,0,0,1,25,25) translate(0 403.2000000000001)"/><use xlink:href="#aJ" transform="matrix(1,0,0,1,25,25) translate(0 424.8000000000001)"/><use xlink:href="#aK" transform="matrix(1,0,0,1,25,25) translate(35.95 424.8000000000001)"/><use xlink:href="#aL" transform="matrix(1,0,0,1,25,25) translate(84.9 424.8000000000001)"/><use xlink:href="#aM" transform="matrix(1,0,0,1,25,25) translate(128.9 424.8000000000001)"/><use xlink:href="#aN" transform="matrix(1,0,0,1,25,25) translate(154.85 424.8000000000001)"/><use xlink:href="#aO" transform="matrix(1,0,0,1,25,25) translate(0 446.40000000000015)"/></g><defs><path d="M212-179c-10-28-35-45-73-45-59 0-87 40-87 99 0 60 29 101 89 101 43 0 62-24 78-52l27 14C228-24 195 4 139 4 59 4 22-46 18-125c-6-104 99-153 187-111 19 9 31 26 39 46" id="aP"/><path d="M106-169C34-169 62-67 57 0H25v-261h32l-1 103c12-21 28-36 61-36 89 0 53 116 60 194h-32v-121c2-32-8-49-39-48" id="aQ"/><path d="M141-36C126-15 110 5 73 4 37 3 15-17 15-53c-1-64 63-63 125-63 3-35-9-54-41-54-24 1-41 7-42 31l-33-3c5-37 33-52 76-52 45 0 72 20 72 64v82c-1 20 7 32 28 27v20c-31 9-61-2-59-35zM48-53c0 20 12 33 32 33 41-3 63-29 60-74-43 2-92-5-92 41" id="aR"/><path d="M24-231v-30h32v30H24zM24 0v-190h32V0H24" id="aS"/><path d="M117-194c89-4 53 116 60 194h-32v-121c0-31-8-49-39-48C34-167 62-67 57 0H25l-1-190h30c1 10-1 24 2 32 11-22 29-35 61-36" id="aT"/><g id="a"><use transform="matrix(0.05,0,0,0.05,0,0)" xlink:href="#aP"/><use transform="matrix(0.05,0,0,0.05,12.950000000000001,0)" xlink:href="#aQ"/><use transform="matrix(0.05,0,0,0.05,22.950000000000003,0)" xlink:href="#aR"/><use transform="matrix(0.05,0,0,0.05,32.95,0)" xlink:href="#aS"/><use transform="matrix(0.05,0,0,0.05,36.900000000000006,0)" xlink:href="#aT"/></g><path d="M205 0l-28-72H64L36 0H1l101-248h38L239 0h-34zm-38-99l-47-123c-12 45-31 82-46 123h93" id="aU"/><use transform="matrix(0.05,0,0,0.05,0,0)" xlink:href="#aU" id="b"/><path d="M160-131c35 5 61 23 61 61C221 17 115-2 30 0v-248c76 3 177-17 177 60 0 33-19 50-47 57zm-97-11c50-1 110 9 110-42 0-47-63-36-110-37v79zm0 115c55-2 124 14 124-45 0-56-70-42-124-44v89" id="aV"/><path d="M24 0v-261h32V0H24" id="aW"/><path d="M100-194c62-1 85 37 85 99 1 63-27 99-86 99S16-35 15-95c0-66 28-99 85-99zM99-20c44 1 53-31 53-75 0-43-8-75-51-75s-53 32-53 75 10 74 51 75" id="aX"/><path d="M96-169c-40 0-48 33-48 73s9 75 48 75c24 0 41-14 43-38l32 2c-6 37-31 61-74 61-59 0-76-41-82-99-10-93 101-131 147-64 4 7 5 14 7 22l-32 3c-4-21-16-35-41-35" id="aY"/><path d="M143 0L79-87 56-68V0H24v-261h32v163l83-92h37l-77 82L181 0h-38" id="aZ"/><g id="c"><use transform="matrix(0.05,0,0,0.05,0,0)" xlink:href="#aV"/><use transform="matrix(0.05,0,0,0.05,12,0)" xlink:href="#aW"/><use transform="matrix(0.05,0,0,0.05,15.949999999999998,0)" xlink:href="#aX"/><use transform="matrix(0.05,0,0,0.05,25.950000000000003,0)" xlink:href="#aY"/><use transform="matrix(0.05,0,0,0.05,34.95,0)" xlink:href="#aZ"/></g><use transform="matrix(0.05,0,0,0.05,0,0)" xlink:href="#aS" id="d"/><path d="M16-82v-28h88v28H16" id="ba"/><use transform="matrix(0.05,0,0,0.05,0,0)" xlink:href="#ba" id="f"/><path d="M59-47c-2 24 18 29 38 22v24C64 9 27 4 27-40v-127H5v-23h24l9-43h21v43h35v23H59v120" id="bb"/><path d="M141 0L90-78 38 0H4l68-98-65-92h35l48 74 47-74h35l-64 92 68 98h-35" id="bc"/><path d="M27 0v-27h64v-190l-56 39v-29l58-41h29v221h61V0H27" id="bd"/><g id="g"><use transform="matrix(0.05,0,0,0.05,0,0)" xlink:href="#bb"/><use transform="matrix(0.05,0,0,0.05,5,0)" xlink:href="#bc"/><use transform="matrix(0.034999999999999996,0,0,0.034999999999999996,14,2.5199999999999996)" xlink:href="#bd"/></g><use transform="matrix(0.05,0,0,0.05,0,0)" xlink:href="#ba" id="h"/><path d="M210-169c-67 3-38 105-44 169h-31v-121c0-29-5-50-35-48C34-165 62-65 56 0H25l-1-190h30c1 10-1 24 2 32 10-44 99-50 107 0 11-21 27-35 58-36 85-2 47 119 55 194h-31v-121c0-29-5-49-35-48" id="be"/><path d="M84 4C-5 8 30-112 23-190h32v120c0 31 7 50 39 49 72-2 45-101 50-169h31l1 190h-30c-1-10 1-25-2-33-11 22-28 36-60 37" id="bf"/><path d="M135-143c-3-34-86-38-87 0 15 53 115 12 119 90S17 21 10-45l28-5c4 36 97 45 98 0-10-56-113-15-118-90-4-57 82-63 122-42 12 7 21 19 24 35" id="bg"/><path d="M177-190C167-65 218 103 67 71c-23-6-38-20-44-43l32-5c15 47 100 32 89-28v-30C133-14 115 1 83 1 29 1 15-40 15-95c0-56 16-97 71-98 29-1 48 16 59 35 1-10 0-23 2-32h30zM94-22c36 0 50-32 50-73 0-42-14-75-50-75-39 0-46 34-46 75s6 73 46 73" id="bh"/><path d="M33-154v-36h34v36H33zM33 0v-36h34V0H33" id="bi"/><g id="i"><use transform="matrix(0.05,0,0,0.05,0,0)" xlink:href="#be"/><use transform="matrix(0.05,0,0,0.05,14.950000000000001,0)" xlink:href="#bf"/><use transform="matrix(0.05,0,0,0.05,24.950000000000003,0)" xlink:href="#aW"/><use transform="matrix(0.05,0,0,0.05,28.900000000000002,0)" xlink:href="#bb"/><use transform="matrix(0.05,0,0,0.05,33.900000000000006,0)" xlink:href="#aS"/><use transform="matrix(0.05,0,0,0.05,37.85000000000001,0)" xlink:href="#bg"/><use transform="matrix(0.05,0,0,0.05,46.85000000000001,0)" xlink:href="#aS"/><use transform="matrix(0.05,0,0,0.05,50.80000000000001,0)" xlink:href="#bh"/><use transform="matrix(0.05,0,0,0.05,60.80000000000001,0)" xlink:href="#bi"/></g><path d="M108 0H70L1-190h34L89-25l56-165h34" id="bj"/><g id="j"><use transform="matrix(0.05,0,0,0.05,0,0)" xlink:href="#bj"/><use transform="matrix(0.05,0,0,0.05,9,0)" xlink:href="#aR"/><use transform="matrix(0.05,0,0,0.05,19,0)" xlink:href="#aW"/><use transform="matrix(0.034999999999999996,0,0,0.034999999999999996,22.95,2.5199999999999996)" xlink:href="#bd"/></g><path d="M115-194c55 1 70 41 70 98S169 2 115 4C84 4 66-9 55-30l1 105H24l-1-265h31l2 30c10-21 28-34 59-34zm-8 174c40 0 45-34 45-75s-6-73-45-74c-42 0-51 32-51 76 0 43 10 73 51 73" id="bk"/><path d="M-5 72V49h209v23H-5" id="bl"/><path d="M114-163C36-179 61-72 57 0H25l-1-190h30c1 12-1 29 2 39 6-27 23-49 58-41v29" id="bm"/><path d="M100-194c63 0 86 42 84 106H49c0 40 14 67 53 68 26 1 43-12 49-29l28 8c-11 28-37 45-77 45C44 4 14-33 15-96c1-61 26-98 85-98zm52 81c6-60-76-77-97-28-3 7-6 17-6 28h103" id="bn"/><g id="k"><use transform="matrix(0.05,0,0,0.05,0,0)" xlink:href="#aX"/><use transform="matrix(0.05,0,0,0.05,10,0)" xlink:href="#bk"/><use transform="matrix(0.05,0,0,0.05,20,0)" xlink:href="#bl"/><use transform="matrix(0.05,0,0,0.05,30,0)" xlink:href="#bm"/><use transform="matrix(0.05,0,0,0.05,35.95,0)" xlink:href="#bn"/><use transform="matrix(0.05,0,0,0.05,45.95,0)" xlink:href="#bb"/><use transform="matrix(0.05,0,0,0.05,50.95,0)" xlink:href="#bi"/></g><path d="M85-194c31 0 48 13 60 33l-1-100h32l1 261h-30c-2-10 0-23-3-31C134-8 116 4 85 4 32 4 16-35 15-94c0-66 23-100 70-100zm9 24c-40 0-46 34-46 75 0 40 6 74 45 74 42 0 51-32 51-76 0-42-9-74-50-73" id="bo"/><g id="l"><use transform="matrix(0.05,0,0,0.05,0,0)" xlink:href="#aR"/><use transform="matrix(0.05,0,0,0.05,10,0)" xlink:href="#bo"/><use transform="matrix(0.05,0,0,0.05,20,0)" xlink:href="#bo"/><use transform="matrix(0.034999999999999996,0,0,0.034999999999999996,30,2.5199999999999996)" xlink:href="#bd"/></g><path d="M101-251c82-7 93 87 43 132L82-64C71-53 59-42 53-27h129V0H18c2-99 128-94 128-182 0-28-16-43-45-43s-46 15-49 41l-32-3c6-41 34-60 81-64" id="bp"/><g id="m"><use transform="matrix(0.05,0,0,0.05,0,0)" xlink:href="#bb"/><use transform="matrix(0.05,0,0,0.05,5,0)" xlink:href="#bc"/><use transform="matrix(0.034999999999999996,0,0,0.034999999999999996,14,2.5199999999999996)" xlink:href="#bp"/></g><g id="n"><use transform="matrix(0.05,0,0,0.05,0,0)" xlink:href="#ba"/><use transform="matrix(0.05,0,0,0.05,5.95,0)" xlink:href="#be"/><use transform="matrix(0.05,0,0,0.05,20.900000000000002,0)" xlink:href="#bf"/><use transform="matrix(0.05,0,0,0.05,30.900000000000002,0)" xlink:href="#aW"/><use transform="matrix(0.05,0,0,0.05,34.85,0)" xlink:href="#bb"/><use transform="matrix(0.05,0,0,0.05,39.85,0)" xlink:href="#aS"/><use transform="matrix(0.05,0,0,0.05,43.800000000000004,0)" xlink:href="#bg"/><use transform="matrix(0.05,0,0,0.05,52.800000000000004,0)" xlink:href="#aS"/><use transform="matrix(0.05,0,0,0.05,56.75,0)" xlink:href="#bh"/><use transform="matrix(0.05,0,0,0.05,66.75,0)" xlink:href="#bi"/></g><g id="o"><use transform="matrix(0.05,0,0,0.05,0,0)" xlink:href="#bj"/><use transform="matrix(0.05,0,0,0.05,9,0)" xlink:href="#aR"/><use transform="matrix(0.05,0,0,0.05,19,0)" xlink:href="#aW"/><use transform="matrix(0.034999999999999996,0,0,0.034999999999999996,22.95,2.5199999999999996)" xlink:href="#bp"/></g><g id="p"><use transform="matrix(0.05,0,0,0.05,0,0)" xlink:href="#aR"/><use transform="matrix(0.05,0,0,0.05,10,0)" xlink:href="#bo"/><use transform="matrix(0.05,0,0,0.05,20,0)" xlink:href="#bo"/><use transform="matrix(0.034999999999999996,0,0,0.034999999999999996,30,2.5199999999999996)" xlink:href="#bp"/></g><path d="M33 0v-38h34V0H33" id="bq"/><g id="q"><use transform="matrix(0.05,0,0,0.05,0,0)" xlink:href="#bq"/><use transform="matrix(0.05,0,0,0.05,5,0)" xlink:href="#bq"/><use transform="matrix(0.05,0,0,0.05,10,0)" xlink:href="#bq"/></g><use transform="matrix(0.05,0,0,0.05,0,0)" xlink:href="#aU" id="r"/><g id="s"><use transform="matrix(0.05,0,0,0.05,0,0)" xlink:href="#aT"/><use transform="matrix(0.05,0,0,0.05,10,0)" xlink:href="#aX"/><use transform="matrix(0.05,0,0,0.05,20,0)" xlink:href="#bo"/><use transform="matrix(0.05,0,0,0.05,30,0)" xlink:href="#bn"/></g><use transform="matrix(0.05,0,0,0.05,0,0)" xlink:href="#aV" id="t"/><g id="u"><use transform="matrix(0.05,0,0,0.05,0,0)" xlink:href="#aP"/><use transform="matrix(0.05,0,0,0.05,12.950000000000001,0)" xlink:href="#bm"/><use transform="matrix(0.05,0,0,0.05,18.900000000000002,0)" xlink:href="#aX"/><use transform="matrix(0.05,0,0,0.05,28.900000000000002,0)" xlink:href="#bg"/><use transform="matrix(0.05,0,0,0.05,37.900000000000006,0)" xlink:href="#bg"/></g><g id="v"><use transform="matrix(0.05,0,0,0.05,0,0)" xlink:href="#aY"/><use transform="matrix(0.05,0,0,0.05,9,0)" xlink:href="#aQ"/><use transform="matrix(0.05,0,0,0.05,19,0)" xlink:href="#aR"/><use transform="matrix(0.05,0,0,0.05,29,0)" xlink:href="#aS"/><use transform="matrix(0.05,0,0,0.05,32.95,0)" xlink:href="#aT"/></g><g id="w"><use transform="matrix(0.05,0,0,0.05,0,0)" xlink:href="#bg"/><use transform="matrix(0.05,0,0,0.05,9,0)" xlink:href="#bn"/><use transform="matrix(0.05,0,0,0.05,19,0)" xlink:href="#bg"/><use transform="matrix(0.05,0,0,0.05,28,0)" xlink:href="#bg"/><use transform="matrix(0.05,0,0,0.05,37,0)" xlink:href="#aS"/><use transform="matrix(0.05,0,0,0.05,40.95,0)" xlink:href="#aX"/><use transform="matrix(0.05,0,0,0.05,50.95,0)" xlink:href="#aT"/></g><g id="x"><use transform="matrix(0.05,0,0,0.05,0,0)" xlink:href="#bk"/><use transform="matrix(0.05,0,0,0.05,10,0)" xlink:href="#bn"/><use transform="matrix(0.05,0,0,0.05,20,0)" xlink:href="#bm"/><use transform="matrix(0.05,0,0,0.05,25.950000000000003,0)" xlink:href="#bg"/><use transform="matrix(0.05,0,0,0.05,34.95,0)" xlink:href="#aS"/><use transform="matrix(0.05,0,0,0.05,38.900000000000006,0)" xlink:href="#bg"/><use transform="matrix(0.05,0,0,0.05,47.900000000000006,0)" xlink:href="#bb"/><use transform="matrix(0.05,0,0,0.05,52.900000000000006,0)" xlink:href="#bn"/><use transform="matrix(0.05,0,0,0.05,62.900000000000006,0)" xlink:href="#aT"/><use transform="matrix(0.05,0,0,0.05,72.9,0)" xlink:href="#aY"/><use transform="matrix(0.05,0,0,0.05,81.9,0)" xlink:href="#bn"/></g><path d="M63-220v92h138v28H63V0H30v-248h175v28H63" id="br"/><g id="y"><use transform="matrix(0.05,0,0,0.05,0,0)" xlink:href="#br"/><use transform="matrix(0.05,0,0,0.05,10.950000000000001,0)" xlink:href="#bn"/><use transform="matrix(0.05,0,0,0.05,20.950000000000003,0)" xlink:href="#bo"/><use transform="matrix(0.05,0,0,0.05,30.950000000000003,0)" xlink:href="#bn"/><use transform="matrix(0.05,0,0,0.05,40.95,0)" xlink:href="#bm"/><use transform="matrix(0.05,0,0,0.05,46.900000000000006,0)" xlink:href="#aR"/><use transform="matrix(0.05,0,0,0.05,56.900000000000006,0)" xlink:href="#bb"/><use transform="matrix(0.05,0,0,0.05,61.900000000000006,0)" xlink:href="#aS"/><use transform="matrix(0.05,0,0,0.05,65.85000000000001,0)" xlink:href="#aX"/><use transform="matrix(0.05,0,0,0.05,75.85000000000001,0)" xlink:href="#aT"/></g><path d="M240 0l2-218c-23 76-54 145-80 218h-23L58-218 59 0H30v-248h44l77 211c21-75 51-140 76-211h43V0h-30" id="bs"/><path d="M115-194c53 0 69 39 70 98 0 66-23 100-70 100C84 3 66-7 56-30L54 0H23l1-261h32v101c10-23 28-34 59-34zm-8 174c40 0 45-34 45-75 0-40-5-75-45-74-42 0-51 32-51 76 0 43 10 73 51 73" id="bt"/><g id="z"><use transform="matrix(0.05,0,0,0.05,0,0)" xlink:href="#bs"/><use transform="matrix(0.05,0,0,0.05,14.950000000000001,0)" xlink:href="#bn"/><use transform="matrix(0.05,0,0,0.05,24.950000000000003,0)" xlink:href="#be"/><use transform="matrix(0.05,0,0,0.05,39.900000000000006,0)" xlink:href="#bt"/><use transform="matrix(0.05,0,0,0.05,49.900000000000006,0)" xlink:href="#bn"/><use transform="matrix(0.05,0,0,0.05,59.900000000000006,0)" xlink:href="#bm"/></g><g id="A"><use transform="matrix(0.05,0,0,0.05,0,0)" xlink:href="#br"/><use transform="matrix(0.05,0,0,0.05,10.950000000000001,0)" xlink:href="#bs"/><use transform="matrix(0.034999999999999996,0,0,0.034999999999999996,25.900000000000002,2.5199999999999996)" xlink:href="#bd"/></g><g id="B"><use transform="matrix(0.05,0,0,0.05,0,0)" xlink:href="#br"/><use transform="matrix(0.05,0,0,0.05,10.950000000000001,0)" xlink:href="#bs"/><use transform="matrix(0.034999999999999996,0,0,0.034999999999999996,25.900000000000002,2.5199999999999996)" xlink:href="#bp"/></g><use transform="matrix(0.05,0,0,0.05,0,0)" xlink:href="#aV" id="C"/><path d="M126-127c33 6 58 20 58 59 0 88-139 92-164 29-3-8-5-16-6-25l32-3c6 27 21 44 54 44 32 0 52-15 52-46 0-38-36-46-79-43v-28c39 1 72-4 72-42 0-27-17-43-46-43-28 0-47 15-49 41l-32-3c6-42 35-63 81-64 48-1 79 21 79 65 0 36-21 52-52 59" id="bu"/><g id="D"><use transform="matrix(0.05,0,0,0.05,0,0)" xlink:href="#br"/><use transform="matrix(0.05,0,0,0.05,10.950000000000001,0)" xlink:href="#bs"/><use transform="matrix(0.034999999999999996,0,0,0.034999999999999996,25.900000000000002,2.5199999999999996)" xlink:href="#bu"/></g><use transform="matrix(0.05,0,0,0.05,0,0)" xlink:href="#aU" id="E"/><g id="F"><use transform="matrix(0.05,0,0,0.05,0,0)" xlink:href="#aY"/><use transform="matrix(0.05,0,0,0.05,9,0)" xlink:href="#bm"/><use transform="matrix(0.05,0,0,0.05,14.949999999999998,0)" xlink:href="#aX"/><use transform="matrix(0.05,0,0,0.05,24.95,0)" xlink:href="#bg"/><use transform="matrix(0.05,0,0,0.05,33.95,0)" xlink:href="#bg"/></g><g id="G"><use transform="matrix(0.05,0,0,0.05,0,0)" xlink:href="#aY"/><use transform="matrix(0.05,0,0,0.05,9,0)" xlink:href="#aQ"/><use transform="matrix(0.05,0,0,0.05,19,0)" xlink:href="#aR"/><use transform="matrix(0.05,0,0,0.05,29,0)" xlink:href="#aS"/><use transform="matrix(0.05,0,0,0.05,32.95,0)" xlink:href="#aT"/></g><path d="M101-234c-31-9-42 10-38 44h38v23H63V0H32v-167H5v-23h27c-7-52 17-82 69-68v24" id="bv"/><g id="H"><use transform="matrix(0.05,0,0,0.05,0,0)" xlink:href="#bb"/><use transform="matrix(0.05,0,0,0.05,5,0)" xlink:href="#bm"/><use transform="matrix(0.05,0,0,0.05,10.95,0)" xlink:href="#aR"/><use transform="matrix(0.05,0,0,0.05,20.95,0)" xlink:href="#aT"/><use transform="matrix(0.05,0,0,0.05,30.950000000000003,0)" xlink:href="#bg"/><use transform="matrix(0.05,0,0,0.05,39.95,0)" xlink:href="#bv"/><use transform="matrix(0.05,0,0,0.05,44.95,0)" xlink:href="#bn"/><use transform="matrix(0.05,0,0,0.05,54.95,0)" xlink:href="#bm"/></g><g id="I"><use transform="matrix(0.05,0,0,0.05,0,0)" xlink:href="#aS"/><use transform="matrix(0.05,0,0,0.05,3.95,0)" xlink:href="#bg"/></g><g id="J"><use transform="matrix(0.05,0,0,0.05,0,0)" xlink:href="#aS"/><use transform="matrix(0.05,0,0,0.05,3.95,0)" xlink:href="#aT"/><use transform="matrix(0.05,0,0,0.05,13.949999999999998,0)" xlink:href="#aS"/><use transform="matrix(0.05,0,0,0.05,17.9,0)" xlink:href="#bb"/><use transform="matrix(0.05,0,0,0.05,22.9,0)" xlink:href="#aS"/><use transform="matrix(0.05,0,0,0.05,26.849999999999994,0)" xlink:href="#aR"/><use transform="matrix(0.05,0,0,0.05,36.849999999999994,0)" xlink:href="#bb"/><use transform="matrix(0.05,0,0,0.05,41.849999999999994,0)" xlink:href="#bn"/><use transform="matrix(0.05,0,0,0.05,51.849999999999994,0)" xlink:href="#bo"/></g><g id="K"><use transform="matrix(0.05,0,0,0.05,0,0)" xlink:href="#aX"/><use transform="matrix(0.05,0,0,0.05,10,0)" xlink:href="#aT"/></g><g id="L"><use transform="matrix(0.05,0,0,0.05,0,0)" xlink:href="#bb"/><use transform="matrix(0.05,0,0,0.05,5,0)" xlink:href="#aQ"/><use transform="matrix(0.05,0,0,0.05,15,0)" xlink:href="#bn"/></g><use transform="matrix(0.05,0,0,0.05,0,0)" xlink:href="#aU" id="M"/><g id="N"><use transform="matrix(0.05,0,0,0.05,0,0)" xlink:href="#aR"/><use transform="matrix(0.05,0,0,0.05,10,0)" xlink:href="#bb"/></g><g id="O"><use transform="matrix(0.05,0,0,0.05,0,0)" xlink:href="#aQ"/><use transform="matrix(0.05,0,0,0.05,10,0)" xlink:href="#bn"/><use transform="matrix(0.05,0,0,0.05,20,0)" xlink:href="#aS"/><use transform="matrix(0.05,0,0,0.05,23.95,0)" xlink:href="#bh"/><use transform="matrix(0.05,0,0,0.05,33.95,0)" xlink:href="#aQ"/><use transform="matrix(0.05,0,0,0.05,43.95,0)" xlink:href="#bb"/></g><use transform="matrix(0.05,0,0,0.05,0,0)" xlink:href="#aS" id="P"/><path d="M179-190L93 31C79 59 56 82 12 73V49c39 6 53-20 64-50L1-190h34L92-34l54-156h33" id="bw"/><g id="Q"><use transform="matrix(0.05,0,0,0.05,0,0)" xlink:href="#bt"/><use transform="matrix(0.05,0,0,0.05,10,0)" xlink:href="#bw"/></g><g id="R"><use transform="matrix(0.05,0,0,0.05,0,0)" xlink:href="#bg"/><use transform="matrix(0.05,0,0,0.05,9,0)" xlink:href="#bn"/><use transform="matrix(0.05,0,0,0.05,19,0)" xlink:href="#aT"/><use transform="matrix(0.05,0,0,0.05,29,0)" xlink:href="#bo"/><use transform="matrix(0.05,0,0,0.05,39,0)" xlink:href="#aS"/><use transform="matrix(0.05,0,0,0.05,42.95,0)" xlink:href="#aT"/><use transform="matrix(0.05,0,0,0.05,52.95,0)" xlink:href="#bh"/></g><g id="S"><use transform="matrix(0.05,0,0,0.05,0,0)" xlink:href="#bv"/><use transform="matrix(0.05,0,0,0.05,5,0)" xlink:href="#bf"/><use transform="matrix(0.05,0,0,0.05,15,0)" xlink:href="#aT"/><use transform="matrix(0.05,0,0,0.05,25,0)" xlink:href="#bo"/><use transform="matrix(0.05,0,0,0.05,35,0)" xlink:href="#bg"/></g><g id="T"><use transform="matrix(0.05,0,0,0.05,0,0)" xlink:href="#bb"/><use transform="matrix(0.05,0,0,0.05,5,0)" xlink:href="#aX"/></g><g id="U"><use transform="matrix(0.05,0,0,0.05,0,0)" xlink:href="#be"/><use transform="matrix(0.05,0,0,0.05,14.950000000000001,0)" xlink:href="#bf"/><use transform="matrix(0.05,0,0,0.05,24.950000000000003,0)" xlink:href="#aW"/><use transform="matrix(0.05,0,0,0.05,28.900000000000002,0)" xlink:href="#bb"/><use transform="matrix(0.05,0,0,0.05,33.900000000000006,0)" xlink:href="#aS"/><use transform="matrix(0.05,0,0,0.05,37.85000000000001,0)" xlink:href="#bg"/><use transform="matrix(0.05,0,0,0.05,46.85000000000001,0)" xlink:href="#aS"/><use transform="matrix(0.05,0,0,0.05,50.80000000000001,0)" xlink:href="#bh"/></g><g id="V"><use transform="matrix(0.05,0,0,0.05,0,0)" xlink:href="#aR"/><use transform="matrix(0.05,0,0,0.05,10,0)" xlink:href="#bo"/><use transform="matrix(0.05,0,0,0.05,20,0)" xlink:href="#bo"/><use transform="matrix(0.05,0,0,0.05,30,0)" xlink:href="#bm"/><use transform="matrix(0.05,0,0,0.05,35.95,0)" xlink:href="#bn"/><use transform="matrix(0.05,0,0,0.05,45.95,0)" xlink:href="#bg"/><use transform="matrix(0.05,0,0,0.05,54.95,0)" xlink:href="#bg"/></g><g id="W"><use transform="matrix(0.05,0,0,0.05,0,0)" xlink:href="#aX"/><use transform="matrix(0.05,0,0,0.05,10,0)" xlink:href="#bv"/></g><g id="X"><use transform="matrix(0.05,0,0,0.05,0,0)" xlink:href="#bb"/><use transform="matrix(0.05,0,0,0.05,5,0)" xlink:href="#aQ"/><use transform="matrix(0.05,0,0,0.05,15,0)" xlink:href="#bn"/></g><g id="Y"><use transform="matrix(0.05,0,0,0.05,0,0)" xlink:href="#bv"/><use transform="matrix(0.05,0,0,0.05,5,0)" xlink:href="#bn"/><use transform="matrix(0.05,0,0,0.05,15,0)" xlink:href="#bo"/><use transform="matrix(0.05,0,0,0.05,25,0)" xlink:href="#bn"/><use transform="matrix(0.05,0,0,0.05,35,0)" xlink:href="#bm"/><use transform="matrix(0.05,0,0,0.05,40.95,0)" xlink:href="#aR"/><use transform="matrix(0.05,0,0,0.05,50.95,0)" xlink:href="#bb"/><use transform="matrix(0.05,0,0,0.05,55.95,0)" xlink:href="#aS"/><use transform="matrix(0.05,0,0,0.05,59.900000000000006,0)" xlink:href="#aX"/><use transform="matrix(0.05,0,0,0.05,69.9,0)" xlink:href="#aT"/></g><path d="M33 0v-248h34V0H33" id="bx"/><g id="aa"><use transform="matrix(0.05,0,0,0.05,0,0)" xlink:href="#bx"/><use transform="matrix(0.05,0,0,0.05,5,0)" xlink:href="#aT"/></g><g id="ab"><use transform="matrix(0.05,0,0,0.05,0,0)" xlink:href="#be"/><use transform="matrix(0.05,0,0,0.05,14.950000000000001,0)" xlink:href="#aX"/><use transform="matrix(0.05,0,0,0.05,24.950000000000003,0)" xlink:href="#bm"/><use transform="matrix(0.05,0,0,0.05,30.900000000000002,0)" xlink:href="#bn"/></g><g id="ac"><use transform="matrix(0.05,0,0,0.05,0,0)" xlink:href="#bo"/><use transform="matrix(0.05,0,0,0.05,10,0)" xlink:href="#bn"/><use transform="matrix(0.05,0,0,0.05,20,0)" xlink:href="#bb"/><use transform="matrix(0.05,0,0,0.05,25,0)" xlink:href="#aR"/><use transform="matrix(0.05,0,0,0.05,35,0)" xlink:href="#aS"/><use transform="matrix(0.05,0,0,0.05,38.95,0)" xlink:href="#aW"/><use transform="matrix(0.05,0,0,0.05,42.900000000000006,0)" xlink:href="#bg"/></g><use transform="matrix(0.05,0,0,0.05,0,0)" xlink:href="#bi" id="ad"/><g id="ae"><use transform="matrix(0.05,0,0,0.05,0,0)" xlink:href="#bb"/><use transform="matrix(0.05,0,0,0.05,5,0)" xlink:href="#bc"/><use transform="matrix(0.034999999999999996,0,0,0.034999999999999996,14,2.5199999999999996)" xlink:href="#bd"/></g><g id="af"><use transform="matrix(0.05,0,0,0.05,0,0)" xlink:href="#bo"/><use transform="matrix(0.05,0,0,0.05,10,0)" xlink:href="#bn"/><use transform="matrix(0.05,0,0,0.05,20,0)" xlink:href="#bk"/><use transform="matrix(0.05,0,0,0.05,30,0)" xlink:href="#aX"/><use transform="matrix(0.05,0,0,0.05,40,0)" xlink:href="#bg"/><use transform="matrix(0.05,0,0,0.05,49,0)" xlink:href="#aS"/><use transform="matrix(0.05,0,0,0.05,52.95,0)" xlink:href="#bb"/><use transform="matrix(0.05,0,0,0.05,57.95,0)" xlink:href="#bg"/></g><g id="ag"><use transform="matrix(0.05,0,0,0.05,0,0)" xlink:href="#bj"/><use transform="matrix(0.05,0,0,0.05,9,0)" xlink:href="#aR"/><use transform="matrix(0.05,0,0,0.05,19,0)" xlink:href="#aW"/><use transform="matrix(0.05,0,0,0.05,22.95,0)" xlink:href="#bf"/><use transform="matrix(0.05,0,0,0.05,32.95,0)" xlink:href="#bn"/></g><g id="ah"><use transform="matrix(0.05,0,0,0.05,0,0)" xlink:href="#bj"/><use transform="matrix(0.05,0,0,0.05,9,0)" xlink:href="#aR"/><use transform="matrix(0.05,0,0,0.05,19,0)" xlink:href="#aW"/><use transform="matrix(0.034999999999999996,0,0,0.034999999999999996,22.95,2.5199999999999996)" xlink:href="#bd"/></g><g id="ai"><use transform="matrix(0.05,0,0,0.05,0,0)" xlink:href="#bv"/><use transform="matrix(0.05,0,0,0.05,5,0)" xlink:href="#aX"/><use transform="matrix(0.05,0,0,0.05,15,0)" xlink:href="#bm"/></g><g id="aj"><use transform="matrix(0.05,0,0,0.05,0,0)" xlink:href="#aU"/><use transform="matrix(0.05,0,0,0.05,12,0)" xlink:href="#bq"/></g><g id="ak"><use transform="matrix(0.05,0,0,0.05,0,0)" xlink:href="#bb"/><use transform="matrix(0.05,0,0,0.05,5,0)" xlink:href="#bc"/><use transform="matrix(0.034999999999999996,0,0,0.034999999999999996,14,2.5199999999999996)" xlink:href="#bd"/></g><g id="al"><use transform="matrix(0.05,0,0,0.05,0,0)" xlink:href="#aR"/><use transform="matrix(0.05,0,0,0.05,10,0)" xlink:href="#aW"/><use transform="matrix(0.05,0,0,0.05,13.949999999999998,0)" xlink:href="#bg"/><use transform="matrix(0.05,0,0,0.05,22.95,0)" xlink:href="#aX"/></g><g id="am"><use transform="matrix(0.05,0,0,0.05,0,0)" xlink:href="#aT"/><use transform="matrix(0.05,0,0,0.05,10,0)" xlink:href="#bn"/><use transform="matrix(0.05,0,0,0.05,20,0)" xlink:href="#bn"/><use transform="matrix(0.05,0,0,0.05,30,0)" xlink:href="#bo"/><use transform="matrix(0.05,0,0,0.05,40,0)" xlink:href="#bg"/></g><g id="an"><use transform="matrix(0.05,0,0,0.05,0,0)" xlink:href="#bb"/><use transform="matrix(0.05,0,0,0.05,5,0)" xlink:href="#aX"/></g><g id="ao"><use transform="matrix(0.05,0,0,0.05,0,0)" xlink:href="#bg"/><use transform="matrix(0.05,0,0,0.05,9,0)" xlink:href="#bk"/><use transform="matrix(0.05,0,0,0.05,19,0)" xlink:href="#bn"/><use transform="matrix(0.05,0,0,0.05,29,0)" xlink:href="#aY"/><use transform="matrix(0.05,0,0,0.05,38,0)" xlink:href="#aS"/><use transform="matrix(0.05,0,0,0.05,41.95,0)" xlink:href="#bv"/><use transform="matrix(0.05,0,0,0.05,46.95,0)" xlink:href="#bw"/></g><path d="M68-38c1 34 0 65-14 84H32c9-13 17-26 17-46H33v-38h35" id="by"/><g id="ap"><use transform="matrix(0.05,0,0,0.05,0,0)" xlink:href="#aR"/><use transform="matrix(0.05,0,0,0.05,10,0)" xlink:href="#bo"/><use transform="matrix(0.05,0,0,0.05,20,0)" xlink:href="#bo"/><use transform="matrix(0.05,0,0,0.05,30,0)" xlink:href="#bm"/><use transform="matrix(0.05,0,0,0.05,35.95,0)" xlink:href="#bn"/><use transform="matrix(0.05,0,0,0.05,45.95,0)" xlink:href="#bg"/><use transform="matrix(0.05,0,0,0.05,54.95,0)" xlink:href="#bg"/><use transform="matrix(0.05,0,0,0.05,63.95,0)" xlink:href="#by"/></g><g id="aq"><use transform="matrix(0.05,0,0,0.05,0,0)" xlink:href="#aV"/><use transform="matrix(0.05,0,0,0.05,12,0)" xlink:href="#by"/></g><path d="M206 0h-36l-40-164L89 0H53L-1-190h32L70-26l43-164h34l41 164 42-164h31" id="bz"/><g id="ar"><use transform="matrix(0.05,0,0,0.05,0,0)" xlink:href="#bz"/><use transform="matrix(0.05,0,0,0.05,12.950000000000001,0)" xlink:href="#aQ"/><use transform="matrix(0.05,0,0,0.05,22.950000000000003,0)" xlink:href="#bn"/><use transform="matrix(0.05,0,0,0.05,32.95,0)" xlink:href="#bm"/><use transform="matrix(0.05,0,0,0.05,38.900000000000006,0)" xlink:href="#bn"/></g><g id="as"><use transform="matrix(0.05,0,0,0.05,0,0)" xlink:href="#aY"/><use transform="matrix(0.05,0,0,0.05,9,0)" xlink:href="#aX"/><use transform="matrix(0.05,0,0,0.05,19,0)" xlink:href="#aS"/><use transform="matrix(0.05,0,0,0.05,22.95,0)" xlink:href="#aT"/><use transform="matrix(0.05,0,0,0.05,32.95,0)" xlink:href="#bg"/></g><g id="at"><use transform="matrix(0.05,0,0,0.05,0,0)" xlink:href="#bg"/><use transform="matrix(0.05,0,0,0.05,9,0)" xlink:href="#aQ"/><use transform="matrix(0.05,0,0,0.05,19,0)" xlink:href="#aX"/><use transform="matrix(0.05,0,0,0.05,29,0)" xlink:href="#bf"/><use transform="matrix(0.05,0,0,0.05,39,0)" xlink:href="#aW"/><use transform="matrix(0.05,0,0,0.05,42.95,0)" xlink:href="#bo"/></g><g id="au"><use transform="matrix(0.05,0,0,0.05,0,0)" xlink:href="#bt"/><use transform="matrix(0.05,0,0,0.05,10,0)" xlink:href="#bn"/></g><g id="av"><use transform="matrix(0.05,0,0,0.05,0,0)" xlink:href="#bb"/><use transform="matrix(0.05,0,0,0.05,5,0)" xlink:href="#bm"/><use transform="matrix(0.05,0,0,0.05,10.95,0)" xlink:href="#aR"/><use transform="matrix(0.05,0,0,0.05,20.95,0)" xlink:href="#aT"/><use transform="matrix(0.05,0,0,0.05,30.950000000000003,0)" xlink:href="#bg"/><use transform="matrix(0.05,0,0,0.05,39.95,0)" xlink:href="#bv"/><use transform="matrix(0.05,0,0,0.05,44.95,0)" xlink:href="#bn"/><use transform="matrix(0.05,0,0,0.05,54.95,0)" xlink:href="#bm"/><use transform="matrix(0.05,0,0,0.05,60.900000000000006,0)" xlink:href="#bm"/><use transform="matrix(0.05,0,0,0.05,66.85000000000001,0)" xlink:href="#bn"/><use transform="matrix(0.05,0,0,0.05,76.85000000000001,0)" xlink:href="#bo"/><use transform="matrix(0.05,0,0,0.05,86.85000000000001,0)" xlink:href="#bq"/></g><path d="M127-220V0H93v-220H8v-28h204v28h-85" id="bA"/><g id="aw"><use transform="matrix(0.05,0,0,0.05,0,0)" xlink:href="#bA"/><use transform="matrix(0.05,0,0,0.05,10.950000000000001,0)" xlink:href="#aQ"/><use transform="matrix(0.05,0,0,0.05,20.950000000000003,0)" xlink:href="#aS"/><use transform="matrix(0.05,0,0,0.05,24.900000000000002,0)" xlink:href="#bg"/></g><g id="ax"><use transform="matrix(0.05,0,0,0.05,0,0)" xlink:href="#aS"/><use transform="matrix(0.05,0,0,0.05,3.95,0)" xlink:href="#bg"/></g><g id="ay"><use transform="matrix(0.05,0,0,0.05,0,0)" xlink:href="#bo"/><use transform="matrix(0.05,0,0,0.05,10,0)" xlink:href="#aX"/><use transform="matrix(0.05,0,0,0.05,20,0)" xlink:href="#aT"/><use transform="matrix(0.05,0,0,0.05,30,0)" xlink:href="#bn"/></g><g id="az"><use transform="matrix(0.05,0,0,0.05,0,0)" xlink:href="#bt"/><use transform="matrix(0.05,0,0,0.05,10,0)" xlink:href="#bw"/></g><g id="aA"><use transform="matrix(0.05,0,0,0.05,0,0)" xlink:href="#bk"/><use transform="matrix(0.05,0,0,0.05,10,0)" xlink:href="#aR"/><use transform="matrix(0.05,0,0,0.05,20,0)" xlink:href="#bg"/><use transform="matrix(0.05,0,0,0.05,29,0)" xlink:href="#bg"/><use transform="matrix(0.05,0,0,0.05,38,0)" xlink:href="#aS"/><use transform="matrix(0.05,0,0,0.05,41.95,0)" xlink:href="#aT"/><use transform="matrix(0.05,0,0,0.05,51.95,0)" xlink:href="#bh"/></g><g id="aB"><use transform="matrix(0.05,0,0,0.05,0,0)" xlink:href="#aR"/><use transform="matrix(0.05,0,0,0.05,10,0)" xlink:href="#bo"/><use transform="matrix(0.05,0,0,0.05,20,0)" xlink:href="#bo"/><use transform="matrix(0.034999999999999996,0,0,0.034999999999999996,30,2.5199999999999996)" xlink:href="#bd"/></g><g id="aC"><use transform="matrix(0.05,0,0,0.05,0,0)" xlink:href="#aR"/><use transform="matrix(0.05,0,0,0.05,10,0)" xlink:href="#bg"/></g><g id="aD"><use transform="matrix(0.05,0,0,0.05,0,0)" xlink:href="#aR"/><use transform="matrix(0.05,0,0,0.05,10,0)" xlink:href="#aT"/></g><path d="M140-251c81 0 123 46 123 126C263-46 219 4 140 4 59 4 17-45 17-125s42-126 123-126zm0 227c63 0 89-41 89-101s-29-99-89-99c-61 0-89 39-89 99S79-25 140-24" id="bB"/><path d="M30-248c87 1 191-15 191 75 0 78-77 80-158 76V0H30v-248zm33 125c57 0 124 11 124-50 0-59-68-47-124-48v98" id="bC"/><path d="M233-177c-1 41-23 64-60 70L243 0h-38l-65-103H63V0H30v-248c88 3 205-21 203 71zM63-129c60-2 137 13 137-47 0-61-80-42-137-45v92" id="bD"/><path d="M30 0v-248h187v28H63v79h144v27H63v87h162V0H30" id="bE"/><path d="M232-93c-1 65-40 97-104 97C67 4 28-28 28-90v-158h33c8 89-33 224 67 224 102 0 64-133 71-224h33v155" id="bF"/><path d="M190 0L58-211 59 0H30v-248h39L202-35l-2-213h31V0h-41" id="bG"/><g id="aE"><use transform="matrix(0.05,0,0,0.05,0,0)" xlink:href="#bB"/><use transform="matrix(0.05,0,0,0.05,14,0)" xlink:href="#bC"/><use transform="matrix(0.05,0,0,0.05,26,0)" xlink:href="#bl"/><use transform="matrix(0.05,0,0,0.05,36,0)" xlink:href="#bD"/><use transform="matrix(0.05,0,0,0.05,48.95,0)" xlink:href="#bE"/><use transform="matrix(0.05,0,0,0.05,60.95,0)" xlink:href="#bA"/><use transform="matrix(0.05,0,0,0.05,71.9,0)" xlink:href="#bF"/><use transform="matrix(0.05,0,0,0.05,84.85000000000001,0)" xlink:href="#bD"/><use transform="matrix(0.05,0,0,0.05,97.80000000000001,0)" xlink:href="#bG"/></g><g id="aF"><use transform="matrix(0.05,0,0,0.05,0,0)" xlink:href="#aX"/><use transform="matrix(0.05,0,0,0.05,10,0)" xlink:href="#bf"/><use transform="matrix(0.05,0,0,0.05,20,0)" xlink:href="#bb"/><use transform="matrix(0.05,0,0,0.05,25,0)" xlink:href="#bk"/><use transform="matrix(0.05,0,0,0.05,35,0)" xlink:href="#bf"/><use transform="matrix(0.05,0,0,0.05,45,0)" xlink:href="#bb"/></g><g id="aG"><use transform="matrix(0.05,0,0,0.05,0,0)" xlink:href="#aX"/><use transform="matrix(0.05,0,0,0.05,10,0)" xlink:href="#bv"/></g><g id="aH"><use transform="matrix(0.05,0,0,0.05,0,0)" xlink:href="#bb"/><use transform="matrix(0.05,0,0,0.05,5,0)" xlink:href="#bm"/><use transform="matrix(0.05,0,0,0.05,10.95,0)" xlink:href="#aR"/><use transform="matrix(0.05,0,0,0.05,20.95,0)" xlink:href="#aT"/><use transform="matrix(0.05,0,0,0.05,30.950000000000003,0)" xlink:href="#bg"/><use transform="matrix(0.05,0,0,0.05,39.95,0)" xlink:href="#aR"/><use transform="matrix(0.05,0,0,0.05,49.95,0)" xlink:href="#aY"/><use transform="matrix(0.05,0,0,0.05,58.95,0)" xlink:href="#bb"/><use transform="matrix(0.05,0,0,0.05,63.95,0)" xlink:href="#aS"/><use transform="matrix(0.05,0,0,0.05,67.9,0)" xlink:href="#aX"/><use transform="matrix(0.05,0,0,0.05,77.9,0)" xlink:href="#aT"/></g><g id="aI"><use transform="matrix(0.05,0,0,0.05,0,0)" xlink:href="#bb"/><use transform="matrix(0.05,0,0,0.05,5,0)" xlink:href="#bc"/><use transform="matrix(0.034999999999999996,0,0,0.034999999999999996,14,2.5199999999999996)" xlink:href="#bd"/></g><g id="aJ"><use transform="matrix(0.05,0,0,0.05,0,0)" xlink:href="#bA"/><use transform="matrix(0.05,0,0,0.05,10.950000000000001,0)" xlink:href="#aQ"/><use transform="matrix(0.05,0,0,0.05,20.950000000000003,0)" xlink:href="#bn"/></g><g id="aK"><use transform="matrix(0.05,0,0,0.05,0,0)" xlink:href="#bg"/><use transform="matrix(0.05,0,0,0.05,9,0)" xlink:href="#aR"/><use transform="matrix(0.05,0,0,0.05,19,0)" xlink:href="#be"/><use transform="matrix(0.05,0,0,0.05,33.95,0)" xlink:href="#bn"/></g><g id="aL"><use transform="matrix(0.05,0,0,0.05,0,0)" xlink:href="#bh"/><use transform="matrix(0.05,0,0,0.05,10,0)" xlink:href="#aX"/><use transform="matrix(0.05,0,0,0.05,20,0)" xlink:href="#bn"/><use transform="matrix(0.05,0,0,0.05,30,0)" xlink:href="#bg"/></g><g id="aM"><use transform="matrix(0.05,0,0,0.05,0,0)" xlink:href="#bv"/><use transform="matrix(0.05,0,0,0.05,5,0)" xlink:href="#aX"/><use transform="matrix(0.05,0,0,0.05,15,0)" xlink:href="#bm"/></g><g id="aN"><use transform="matrix(0.05,0,0,0.05,0,0)" xlink:href="#bb"/><use transform="matrix(0.05,0,0,0.05,5,0)" xlink:href="#bc"/><use transform="matrix(0.034999999999999996,0,0,0.034999999999999996,14,2.5199999999999996)" xlink:href="#bp"/><use transform="matrix(0.05,0,0,0.05,21,0)" xlink:href="#bq"/></g></defs></g></svg>