<svg xmlns="http://www.w3.org/2000/svg" xmlns:xlink="http://www.w3.org/1999/xlink" xmlns:lucid="lucid" width="1540" height="1200"><g transform="translate(0 7.105427357601002e-15)" lucid:page-tab-id="0_0"><path d="M40 1000h140l40 30v50H40z" stroke="#000" stroke-width="2" fill="#c7e8ac"/><path d="M30 1010h140l40 30v50H30z" stroke="#000" stroke-width="2" fill="#c7e8ac"/><path d="M20 1020h140l40 30v50H20z" stroke="#000" stroke-width="2" fill="#c7e8ac"/><use xlink:href="#a" transform="matrix(1,0,0,1,20,1020) translate(58.05 43.6)"/><use xlink:href="#b" transform="matrix(1,0,0,1,20,1020) translate(109.95 43.6)"/><path d="M20 720h160l40 72v168H20z" stroke="#000" stroke-width="2" fill="#c7e8ac"/><use xlink:href="#c" transform="matrix(1,0,0,1,20,720) translate(5.01 19.41)"/><use xlink:href="#d" transform="matrix(1,0,0,1,20,720) translate(53.96 19.41)"/><use xlink:href="#e" transform="matrix(1,0,0,1,20,720) translate(5.01 41.01)"/><use xlink:href="#f" transform="matrix(1,0,0,1,20,720) translate(5.01 62.61)"/><use xlink:href="#g" transform="matrix(1,0,0,1,20,720) translate(15.959999999999999 62.61)"/><use xlink:href="#h" transform="matrix(1,0,0,1,20,720) translate(36.01 84.21000000000001)"/><use xlink:href="#i" transform="matrix(1,0,0,1,20,720) translate(46.959999999999994 84.21000000000001)"/><use xlink:href="#j" transform="matrix(1,0,0,1,20,720) translate(117.76 84.21000000000001)"/><use xlink:href="#h" transform="matrix(1,0,0,1,20,720) translate(36.01 105.81)"/><use xlink:href="#k" transform="matrix(1,0,0,1,20,720) translate(46.959999999999994 105.81)"/><use xlink:href="#l" transform="matrix(1,0,0,1,20,720) translate(107.91 105.81)"/><use xlink:href="#f" transform="matrix(1,0,0,1,20,720) translate(5.01 127.41)"/><use xlink:href="#m" transform="matrix(1,0,0,1,20,720) translate(15.959999999999999 127.41)"/><use xlink:href="#n" transform="matrix(1,0,0,1,20,720) translate(36.01 149.01)"/><use xlink:href="#o" transform="matrix(1,0,0,1,20,720) translate(112.75999999999999 149.01)"/><use xlink:href="#p" transform="matrix(1,0,0,1,20,720) translate(140.70999999999998 149.01)"/><use xlink:href="#h" transform="matrix(1,0,0,1,20,720) translate(36.01 170.60999999999999)"/><use xlink:href="#k" transform="matrix(1,0,0,1,20,720) translate(46.959999999999994 170.60999999999999)"/><use xlink:href="#q" transform="matrix(1,0,0,1,20,720) translate(107.91 170.60999999999999)"/><use xlink:href="#r" transform="matrix(1,0,0,1,20,720) translate(5.01 192.20999999999998)"/><path d="M120 999v-19.76" stroke="#000" stroke-width="2" fill="none"/><path d="M121 1000h-2v-1h2zM124.64 978.5h-9.28l4.64-14.26z"/><path d="M126 979.5h-12l6-18.5zm-9.26-2h6.52L120 967.47z"/><path d="M1230 20c16.57 0 30 13.43 30 30v300c0 16.57-13.43 30-30 30H370c-16.57 0-30-13.43-30-30V50c0-16.57 13.43-30 30-30z" stroke="#000" stroke-width="2" fill="#e5e5e5"/><path d="M450 80c0 22.1-17.9 40-40 40s-40-17.9-40-40 17.9-40 40-40 40 17.9 40 40z" stroke="#000" stroke-width="2" fill="#c7e8ac"/><use xlink:href="#a" transform="matrix(1,0,0,1,375,45) translate(3.549999999999997 27.799999999999997)"/><use xlink:href="#s" transform="matrix(1,0,0,1,375,45) translate(55.45 27.799999999999997)"/><use xlink:href="#t" transform="matrix(1,0,0,1,375,45) translate(15 49.4)"/><path d="M859 80c0 22.1-17.9 40-40 40s-40-17.9-40-40 17.9-40 40-40 40 17.9 40 40z" stroke="#000" stroke-width="2" fill="#ffbbb1"/><use xlink:href="#a" transform="matrix(1,0,0,1,783.9993760969041,45) translate(3.049999999999997 27.799999999999997)"/><use xlink:href="#u" transform="matrix(1,0,0,1,783.9993760969041,45) translate(54.95 27.799999999999997)"/><use xlink:href="#t" transform="matrix(1,0,0,1,783.9993760969041,45) translate(15 49.4)"/><path d="M460 268.2c0 6.66-22.4 12.05-50 12.05s-50-5.4-50-12.05v-96.4c0-6.66 22.4-12.05 50-12.05s50 5.4 50 12.05z" stroke="#000" stroke-width="2" fill="#c7e8ac"/><path d="M460 171.8c0 6.66-22.4 12.05-50 12.05s-50-5.4-50-12.05" stroke="#000" stroke-width="2" fill="none"/><use xlink:href="#v" transform="matrix(1,0,0,1,365,188.85) translate(21.549999999999997 14.69999999999999)"/><use xlink:href="#w" transform="matrix(1,0,0,1,365,188.85) translate(23.525 36.29999999999999)"/><use xlink:href="#x" transform="matrix(1,0,0,1,365,188.85) translate(14.524999999999999 57.89999999999999)"/><use xlink:href="#y" transform="matrix(1,0,0,1,365,188.85) translate(-0.9500000000000028 79.5)"/><path d="M340 320h240v60H340z" stroke="#000" stroke-opacity="0" stroke-width="2" fill="#fff" fill-opacity="0"/><use xlink:href="#z" transform="matrix(1,0,0,1,345,325) translate(16.19999999999999 28.6)"/><use xlink:href="#A" transform="matrix(1,0,0,1,345,325) translate(107.05 28.6)"/><use xlink:href="#B" transform="matrix(1,0,0,1,345,325) translate(177.9 28.6)"/><path d="M869 286c0 7.73-22.4 14-50 14s-50-6.27-50-14V174c0-7.73 22.4-14 50-14s50 6.27 50 14z" stroke="#000" stroke-width="2" fill="#ffbbb1"/><path d="M869 174c0 7.73-22.4 14-50 14s-50-6.27-50-14" stroke="#000" stroke-width="2" fill="none"/><use xlink:href="#v" transform="matrix(1,0,0,1,773.9993760969041,193) translate(21.549999999999997 22.19999999999999)"/><use xlink:href="#w" transform="matrix(1,0,0,1,773.9993760969041,193) translate(23.525 43.79999999999999)"/><use xlink:href="#x" transform="matrix(1,0,0,1,773.9993760969041,193) translate(14.524999999999999 65.39999999999999)"/><use xlink:href="#y" transform="matrix(1,0,0,1,773.9993760969041,193) translate(-0.9500000000000028 87)"/><path d="M1230 420c16.57 0 30 13.43 30 30v300c0 16.57-13.43 30-30 30H370c-16.57 0-30-13.43-30-30V450c0-16.57 13.43-30 30-30z" stroke="#000" stroke-width="2" fill="#e5e5e5"/><path d="M450 480c0 22.1-17.9 40-40 40s-40-17.9-40-40 17.9-40 40-40 40 17.9 40 40z" stroke="#000" stroke-width="2" fill="#c7e8ac"/><g><use xlink:href="#a" transform="matrix(1,0,0,1,375,445) translate(3.549999999999997 27.799999999999997)"/><use xlink:href="#s" transform="matrix(1,0,0,1,375,445) translate(55.45 27.799999999999997)"/><use xlink:href="#t" transform="matrix(1,0,0,1,375,445) translate(15 49.4)"/></g><path d="M870 480c0 22.1-17.9 40-40 40s-40-17.9-40-40 17.9-40 40-40 40 17.9 40 40z" stroke="#000" stroke-width="2" fill="#ffbbb1"/><g><use xlink:href="#a" transform="matrix(1,0,0,1,794.9999999999999,445) translate(3.049999999999997 27.799999999999997)"/><use xlink:href="#u" transform="matrix(1,0,0,1,794.9999999999999,445) translate(54.95 27.799999999999997)"/><use xlink:href="#t" transform="matrix(1,0,0,1,794.9999999999999,445) translate(15 49.4)"/></g><path d="M460 668.2c0 6.66-22.4 12.05-50 12.05s-50-5.4-50-12.05v-96.4c0-6.66 22.4-12.05 50-12.05s50 5.4 50 12.05z" stroke="#000" stroke-width="2" fill="#c7e8ac"/><path d="M460 571.8c0 6.66-22.4 12.05-50 12.05s-50-5.4-50-12.05" stroke="#000" stroke-width="2" fill="none"/><g><use xlink:href="#v" transform="matrix(1,0,0,1,365,588.85) translate(21.549999999999997 14.69999999999999)"/><use xlink:href="#w" transform="matrix(1,0,0,1,365,588.85) translate(23.525 36.29999999999999)"/><use xlink:href="#x" transform="matrix(1,0,0,1,365,588.85) translate(14.524999999999999 57.89999999999999)"/><use xlink:href="#y" transform="matrix(1,0,0,1,365,588.85) translate(-0.9500000000000028 79.5)"/></g><path d="M340 720h240v60H340z" stroke="#000" stroke-opacity="0" stroke-width="2" fill="#fff" fill-opacity="0"/><g><use xlink:href="#z" transform="matrix(1,0,0,1,345,725) translate(16.19999999999999 28.6)"/><use xlink:href="#A" transform="matrix(1,0,0,1,345,725) translate(107.05 28.6)"/><use xlink:href="#C" transform="matrix(1,0,0,1,345,725) translate(177.9 28.6)"/></g><path d="M880 668.2c0 6.66-22.4 12.05-50 12.05s-50-5.4-50-12.05v-96.4c0-6.66 22.4-12.05 50-12.05s50 5.4 50 12.05z" stroke="#000" stroke-width="2" fill="#ffbbb1"/><path d="M880 571.8c0 6.66-22.4 12.05-50 12.05s-50-5.4-50-12.05" stroke="#000" stroke-width="2" fill="none"/><g><use xlink:href="#v" transform="matrix(1,0,0,1,784.9999999999999,588.85) translate(21.549999999999997 14.69999999999999)"/><use xlink:href="#w" transform="matrix(1,0,0,1,784.9999999999999,588.85) translate(23.525 36.29999999999999)"/><use xlink:href="#x" transform="matrix(1,0,0,1,784.9999999999999,588.85) translate(14.524999999999999 57.89999999999999)"/><use xlink:href="#y" transform="matrix(1,0,0,1,784.9999999999999,588.85) translate(-0.9500000000000028 79.5)"/></g><path d="M1380 930.5h108l32 30v50h-140z" stroke="#000" stroke-width="2" fill="#ffbbb1"/><path d="M1370 940.5h108l32 30v50h-140z" stroke="#000" stroke-width="2" fill="#ffbbb1"/><path d="M1360 950.5h108l32 30v50h-140z" stroke="#000" stroke-width="2" fill="#ffbbb1"/><g><use xlink:href="#a" transform="matrix(1,0,0,1,1360,950.5) translate(38.05 43.6)"/><use xlink:href="#D" transform="matrix(1,0,0,1,1360,950.5) translate(89.95 43.6)"/></g><path d="M1230 820c16.57 0 30 13.43 30 30v300c0 16.57-13.43 30-30 30H370c-16.57 0-30-13.43-30-30V850c0-16.57 13.43-30 30-30z" stroke="#000" stroke-width="2" fill="#e5e5e5"/><path d="M450 880c0 22.1-17.9 40-40 40s-40-17.9-40-40 17.9-40 40-40 40 17.9 40 40z" stroke="#000" stroke-width="2" fill="#c7e8ac"/><g><use xlink:href="#a" transform="matrix(1,0,0,1,375,845) translate(3.549999999999997 27.799999999999997)"/><use xlink:href="#s" transform="matrix(1,0,0,1,375,845) translate(55.45 27.799999999999997)"/><use xlink:href="#t" transform="matrix(1,0,0,1,375,845) translate(15 49.4)"/></g><path d="M870 880c0 22.1-17.9 40-40 40s-40-17.9-40-40 17.9-40 40-40 40 17.9 40 40z" stroke="#000" stroke-width="2" fill="#ffbbb1"/><g><use xlink:href="#a" transform="matrix(1,0,0,1,794.9999999999999,845) translate(3.049999999999997 27.799999999999997)"/><use xlink:href="#u" transform="matrix(1,0,0,1,794.9999999999999,845) translate(54.95 27.799999999999997)"/><use xlink:href="#t" transform="matrix(1,0,0,1,794.9999999999999,845) translate(15 49.4)"/></g><path d="M460 1068.2c0 6.66-22.4 12.05-50 12.05s-50-5.4-50-12.05v-96.4c0-6.66 22.4-12.05 50-12.05s50 5.4 50 12.05z" stroke="#000" stroke-width="2" fill="#c7e8ac"/><path d="M460 971.8c0 6.66-22.4 12.05-50 12.05s-50-5.4-50-12.05" stroke="#000" stroke-width="2" fill="none"/><g><use xlink:href="#v" transform="matrix(1,0,0,1,365,988.8499999999999) translate(21.549999999999997 14.69999999999999)"/><use xlink:href="#w" transform="matrix(1,0,0,1,365,988.8499999999999) translate(23.525 36.29999999999999)"/><use xlink:href="#x" transform="matrix(1,0,0,1,365,988.8499999999999) translate(14.524999999999999 57.89999999999999)"/><use xlink:href="#y" transform="matrix(1,0,0,1,365,988.8499999999999) translate(-0.9500000000000028 79.5)"/></g><path d="M340 1120h240v60H340z" stroke="#000" stroke-opacity="0" stroke-width="2" fill="#fff" fill-opacity="0"/><g><use xlink:href="#z" transform="matrix(1,0,0,1,345,1125) translate(16.19999999999999 28.6)"/><use xlink:href="#A" transform="matrix(1,0,0,1,345,1125) translate(107.05 28.6)"/><use xlink:href="#E" transform="matrix(1,0,0,1,345,1125) translate(177.9 28.6)"/></g><path d="M880 1068.45c0 6.66-22.4 12.05-50 12.05s-50-5.4-50-12.05v-96.4c0-6.66 22.4-12.05 50-12.05s50 5.4 50 12.05z" stroke="#000" stroke-width="2" fill="#ffbbb1"/><path d="M880 972.05c0 6.66-22.4 12.05-50 12.05s-50-5.4-50-12.05" stroke="#000" stroke-width="2" fill="none"/><g><use xlink:href="#v" transform="matrix(1,0,0,1,784.9999999999999,989.1) translate(21.549999999999997 14.69999999999999)"/><use xlink:href="#w" transform="matrix(1,0,0,1,784.9999999999999,989.1) translate(23.525 36.29999999999999)"/><use xlink:href="#x" transform="matrix(1,0,0,1,784.9999999999999,989.1) translate(14.524999999999999 57.89999999999999)"/><use xlink:href="#y" transform="matrix(1,0,0,1,784.9999999999999,989.1) translate(-0.9500000000000028 79.5)"/></g><path d="M20 20h240v118H20z" stroke="#000" stroke-opacity="0" stroke-width="2" fill="#fff" fill-opacity="0"/><g><use xlink:href="#F" transform="matrix(1,0,0,1,25,24.999999999999993) translate(0 14.899999999999993)"/><use xlink:href="#G" transform="matrix(1,0,0,1,25,24.999999999999993) translate(16 14.899999999999993)"/><use xlink:href="#H" transform="matrix(1,0,0,1,25,24.999999999999993) translate(63.95 14.899999999999993)"/><use xlink:href="#I" transform="matrix(1,0,0,1,25,24.999999999999993) translate(111.9 14.899999999999993)"/><use xlink:href="#J" transform="matrix(1,0,0,1,25,24.999999999999993) translate(177.8 14.899999999999993)"/><use xlink:href="#K" transform="matrix(1,0,0,1,25,24.999999999999993) translate(0 36.49999999999999)"/><use xlink:href="#L" transform="matrix(1,0,0,1,25,24.999999999999993) translate(66.85 36.49999999999999)"/><use xlink:href="#M" transform="matrix(1,0,0,1,25,24.999999999999993) translate(91.85 36.49999999999999)"/><use xlink:href="#H" transform="matrix(1,0,0,1,25,24.999999999999993) translate(121.85 36.49999999999999)"/><use xlink:href="#N" transform="matrix(1,0,0,1,25,24.999999999999993) translate(169.8 36.49999999999999)"/><use xlink:href="#O" transform="matrix(1,0,0,1,25,24.999999999999993) translate(185.8 36.49999999999999)"/><use xlink:href="#P" transform="matrix(1,0,0,1,25,24.999999999999993) translate(0 58.099999999999994)"/><use xlink:href="#Q" transform="matrix(1,0,0,1,25,24.999999999999993) translate(53.95 58.099999999999994)"/><use xlink:href="#R" transform="matrix(1,0,0,1,25,24.999999999999993) translate(62.900000000000006 58.099999999999994)"/><use xlink:href="#S" transform="matrix(1,0,0,1,25,24.999999999999993) translate(86.9 58.099999999999994)"/><use xlink:href="#T" transform="matrix(1,0,0,1,25,24.999999999999993) translate(154.85000000000002 58.099999999999994)"/><use xlink:href="#U" transform="matrix(1,0,0,1,25,24.999999999999993) translate(203.85000000000002 58.099999999999994)"/><use xlink:href="#M" transform="matrix(1,0,0,1,25,24.999999999999993) translate(0 79.70000000000002)"/><use xlink:href="#V" transform="matrix(1,0,0,1,25,24.999999999999993) translate(30 79.70000000000002)"/><use xlink:href="#W" transform="matrix(1,0,0,1,25,24.999999999999993) translate(95.80000000000001 79.70000000000002)"/><use xlink:href="#X" transform="matrix(1,0,0,1,25,24.999999999999993) translate(164.75 79.70000000000002)"/><use xlink:href="#Y" transform="matrix(1,0,0,1,25,24.999999999999993) translate(184.75 79.70000000000002)"/><use xlink:href="#Z" transform="matrix(1,0,0,1,25,24.999999999999993) translate(0 101.30000000000001)"/></g><defs><path d="M212-179c-10-28-35-45-73-45-59 0-87 40-87 99 0 60 29 101 89 101 43 0 62-24 78-52l27 14C228-24 195 4 139 4 59 4 22-46 18-125c-6-104 99-153 187-111 19 9 31 26 39 46" id="aa"/><path d="M106-169C34-169 62-67 57 0H25v-261h32l-1 103c12-21 28-36 61-36 89 0 53 116 60 194h-32v-121c2-32-8-49-39-48" id="ab"/><path d="M141-36C126-15 110 5 73 4 37 3 15-17 15-53c-1-64 63-63 125-63 3-35-9-54-41-54-24 1-41 7-42 31l-33-3c5-37 33-52 76-52 45 0 72 20 72 64v82c-1 20 7 32 28 27v20c-31 9-61-2-59-35zM48-53c0 20 12 33 32 33 41-3 63-29 60-74-43 2-92-5-92 41" id="ac"/><path d="M24-231v-30h32v30H24zM24 0v-190h32V0H24" id="ad"/><path d="M117-194c89-4 53 116 60 194h-32v-121c0-31-8-49-39-48C34-167 62-67 57 0H25l-1-190h30c1 10-1 24 2 32 11-22 29-35 61-36" id="ae"/><g id="a"><use transform="matrix(0.05,0,0,0.05,0,0)" xlink:href="#aa"/><use transform="matrix(0.05,0,0,0.05,12.950000000000001,0)" xlink:href="#ab"/><use transform="matrix(0.05,0,0,0.05,22.950000000000003,0)" xlink:href="#ac"/><use transform="matrix(0.05,0,0,0.05,32.95,0)" xlink:href="#ad"/><use transform="matrix(0.05,0,0,0.05,36.900000000000006,0)" xlink:href="#ae"/></g><path d="M205 0l-28-72H64L36 0H1l101-248h38L239 0h-34zm-38-99l-47-123c-12 45-31 82-46 123h93" id="af"/><use transform="matrix(0.05,0,0,0.05,0,0)" xlink:href="#af" id="b"/><path d="M160-131c35 5 61 23 61 61C221 17 115-2 30 0v-248c76 3 177-17 177 60 0 33-19 50-47 57zm-97-11c50-1 110 9 110-42 0-47-63-36-110-37v79zm0 115c55-2 124 14 124-45 0-56-70-42-124-44v89" id="ag"/><path d="M24 0v-261h32V0H24" id="ah"/><path d="M100-194c62-1 85 37 85 99 1 63-27 99-86 99S16-35 15-95c0-66 28-99 85-99zM99-20c44 1 53-31 53-75 0-43-8-75-51-75s-53 32-53 75 10 74 51 75" id="ai"/><path d="M96-169c-40 0-48 33-48 73s9 75 48 75c24 0 41-14 43-38l32 2c-6 37-31 61-74 61-59 0-76-41-82-99-10-93 101-131 147-64 4 7 5 14 7 22l-32 3c-4-21-16-35-41-35" id="aj"/><path d="M143 0L79-87 56-68V0H24v-261h32v163l83-92h37l-77 82L181 0h-38" id="ak"/><g id="c"><use transform="matrix(0.05,0,0,0.05,0,0)" xlink:href="#ag"/><use transform="matrix(0.05,0,0,0.05,12,0)" xlink:href="#ah"/><use transform="matrix(0.05,0,0,0.05,15.949999999999998,0)" xlink:href="#ai"/><use transform="matrix(0.05,0,0,0.05,25.950000000000003,0)" xlink:href="#aj"/><use transform="matrix(0.05,0,0,0.05,34.95,0)" xlink:href="#ak"/></g><use transform="matrix(0.05,0,0,0.05,0,0)" xlink:href="#ad" id="d"/><path d="M16-82v-28h88v28H16" id="al"/><use transform="matrix(0.05,0,0,0.05,0,0)" xlink:href="#al" id="f"/><path d="M59-47c-2 24 18 29 38 22v24C64 9 27 4 27-40v-127H5v-23h24l9-43h21v43h35v23H59v120" id="am"/><path d="M141 0L90-78 38 0H4l68-98-65-92h35l48 74 47-74h35l-64 92 68 98h-35" id="an"/><path d="M27 0v-27h64v-190l-56 39v-29l58-41h29v221h61V0H27" id="ao"/><g id="g"><use transform="matrix(0.05,0,0,0.05,0,0)" xlink:href="#am"/><use transform="matrix(0.05,0,0,0.05,5,0)" xlink:href="#an"/><use transform="matrix(0.05,0,0,0.05,14,0)" xlink:href="#ao"/></g><use transform="matrix(0.05,0,0,0.05,0,0)" xlink:href="#al" id="h"/><path d="M210-169c-67 3-38 105-44 169h-31v-121c0-29-5-50-35-48C34-165 62-65 56 0H25l-1-190h30c1 10-1 24 2 32 10-44 99-50 107 0 11-21 27-35 58-36 85-2 47 119 55 194h-31v-121c0-29-5-49-35-48" id="ap"/><path d="M84 4C-5 8 30-112 23-190h32v120c0 31 7 50 39 49 72-2 45-101 50-169h31l1 190h-30c-1-10 1-25-2-33-11 22-28 36-60 37" id="aq"/><path d="M135-143c-3-34-86-38-87 0 15 53 115 12 119 90S17 21 10-45l28-5c4 36 97 45 98 0-10-56-113-15-118-90-4-57 82-63 122-42 12 7 21 19 24 35" id="ar"/><path d="M177-190C167-65 218 103 67 71c-23-6-38-20-44-43l32-5c15 47 100 32 89-28v-30C133-14 115 1 83 1 29 1 15-40 15-95c0-56 16-97 71-98 29-1 48 16 59 35 1-10 0-23 2-32h30zM94-22c36 0 50-32 50-73 0-42-14-75-50-75-39 0-46 34-46 75s6 73 46 73" id="as"/><path d="M33-154v-36h34v36H33zM33 0v-36h34V0H33" id="at"/><g id="i"><use transform="matrix(0.05,0,0,0.05,0,0)" xlink:href="#ap"/><use transform="matrix(0.05,0,0,0.05,14.950000000000001,0)" xlink:href="#aq"/><use transform="matrix(0.05,0,0,0.05,24.950000000000003,0)" xlink:href="#ah"/><use transform="matrix(0.05,0,0,0.05,28.900000000000002,0)" xlink:href="#am"/><use transform="matrix(0.05,0,0,0.05,33.900000000000006,0)" xlink:href="#ad"/><use transform="matrix(0.05,0,0,0.05,37.85000000000001,0)" xlink:href="#ar"/><use transform="matrix(0.05,0,0,0.05,46.85000000000001,0)" xlink:href="#ad"/><use transform="matrix(0.05,0,0,0.05,50.80000000000001,0)" xlink:href="#as"/><use transform="matrix(0.05,0,0,0.05,60.80000000000001,0)" xlink:href="#at"/></g><path d="M108 0H70L1-190h34L89-25l56-165h34" id="au"/><g id="j"><use transform="matrix(0.05,0,0,0.05,0,0)" xlink:href="#au"/><use transform="matrix(0.05,0,0,0.05,9,0)" xlink:href="#ac"/><use transform="matrix(0.05,0,0,0.05,19,0)" xlink:href="#ah"/><use transform="matrix(0.05,0,0,0.05,22.95,0)" xlink:href="#ao"/></g><path d="M115-194c55 1 70 41 70 98S169 2 115 4C84 4 66-9 55-30l1 105H24l-1-265h31l2 30c10-21 28-34 59-34zm-8 174c40 0 45-34 45-75s-6-73-45-74c-42 0-51 32-51 76 0 43 10 73 51 73" id="av"/><path d="M-5 72V49h209v23H-5" id="aw"/><path d="M114-163C36-179 61-72 57 0H25l-1-190h30c1 12-1 29 2 39 6-27 23-49 58-41v29" id="ax"/><path d="M100-194c63 0 86 42 84 106H49c0 40 14 67 53 68 26 1 43-12 49-29l28 8c-11 28-37 45-77 45C44 4 14-33 15-96c1-61 26-98 85-98zm52 81c6-60-76-77-97-28-3 7-6 17-6 28h103" id="ay"/><g id="k"><use transform="matrix(0.05,0,0,0.05,0,0)" xlink:href="#ai"/><use transform="matrix(0.05,0,0,0.05,10,0)" xlink:href="#av"/><use transform="matrix(0.05,0,0,0.05,20,0)" xlink:href="#aw"/><use transform="matrix(0.05,0,0,0.05,30,0)" xlink:href="#ax"/><use transform="matrix(0.05,0,0,0.05,35.95,0)" xlink:href="#ay"/><use transform="matrix(0.05,0,0,0.05,45.95,0)" xlink:href="#am"/><use transform="matrix(0.05,0,0,0.05,50.95,0)" xlink:href="#at"/></g><path d="M85-194c31 0 48 13 60 33l-1-100h32l1 261h-30c-2-10 0-23-3-31C134-8 116 4 85 4 32 4 16-35 15-94c0-66 23-100 70-100zm9 24c-40 0-46 34-46 75 0 40 6 74 45 74 42 0 51-32 51-76 0-42-9-74-50-73" id="az"/><g id="l"><use transform="matrix(0.05,0,0,0.05,0,0)" xlink:href="#ac"/><use transform="matrix(0.05,0,0,0.05,10,0)" xlink:href="#az"/><use transform="matrix(0.05,0,0,0.05,20,0)" xlink:href="#az"/><use transform="matrix(0.05,0,0,0.05,30,0)" xlink:href="#ao"/></g><path d="M101-251c82-7 93 87 43 132L82-64C71-53 59-42 53-27h129V0H18c2-99 128-94 128-182 0-28-16-43-45-43s-46 15-49 41l-32-3c6-41 34-60 81-64" id="aA"/><g id="m"><use transform="matrix(0.05,0,0,0.05,0,0)" xlink:href="#am"/><use transform="matrix(0.05,0,0,0.05,5,0)" xlink:href="#an"/><use transform="matrix(0.05,0,0,0.05,14,0)" xlink:href="#aA"/></g><g id="n"><use transform="matrix(0.05,0,0,0.05,0,0)" xlink:href="#al"/><use transform="matrix(0.05,0,0,0.05,5.95,0)" xlink:href="#ap"/><use transform="matrix(0.05,0,0,0.05,20.900000000000002,0)" xlink:href="#aq"/><use transform="matrix(0.05,0,0,0.05,30.900000000000002,0)" xlink:href="#ah"/><use transform="matrix(0.05,0,0,0.05,34.85,0)" xlink:href="#am"/><use transform="matrix(0.05,0,0,0.05,39.85,0)" xlink:href="#ad"/><use transform="matrix(0.05,0,0,0.05,43.800000000000004,0)" xlink:href="#ar"/><use transform="matrix(0.05,0,0,0.05,52.800000000000004,0)" xlink:href="#ad"/><use transform="matrix(0.05,0,0,0.05,56.75,0)" xlink:href="#as"/><use transform="matrix(0.05,0,0,0.05,66.75,0)" xlink:href="#at"/></g><g id="o"><use transform="matrix(0.05,0,0,0.05,0,0)" xlink:href="#au"/><use transform="matrix(0.05,0,0,0.05,9,0)" xlink:href="#ac"/><use transform="matrix(0.05,0,0,0.05,19,0)" xlink:href="#ah"/></g><use transform="matrix(0.05,0,0,0.05,0,0)" xlink:href="#aA" id="p"/><g id="q"><use transform="matrix(0.05,0,0,0.05,0,0)" xlink:href="#ac"/><use transform="matrix(0.05,0,0,0.05,10,0)" xlink:href="#az"/><use transform="matrix(0.05,0,0,0.05,20,0)" xlink:href="#az"/><use transform="matrix(0.05,0,0,0.05,30,0)" xlink:href="#aA"/></g><path d="M33 0v-38h34V0H33" id="aB"/><g id="r"><use transform="matrix(0.05,0,0,0.05,0,0)" xlink:href="#aB"/><use transform="matrix(0.05,0,0,0.05,5,0)" xlink:href="#aB"/><use transform="matrix(0.05,0,0,0.05,10,0)" xlink:href="#aB"/></g><use transform="matrix(0.05,0,0,0.05,0,0)" xlink:href="#af" id="s"/><g id="t"><use transform="matrix(0.05,0,0,0.05,0,0)" xlink:href="#ae"/><use transform="matrix(0.05,0,0,0.05,10,0)" xlink:href="#ai"/><use transform="matrix(0.05,0,0,0.05,20,0)" xlink:href="#az"/><use transform="matrix(0.05,0,0,0.05,30,0)" xlink:href="#ay"/></g><use transform="matrix(0.05,0,0,0.05,0,0)" xlink:href="#ag" id="u"/><g id="v"><use transform="matrix(0.05,0,0,0.05,0,0)" xlink:href="#aa"/><use transform="matrix(0.05,0,0,0.05,12.950000000000001,0)" xlink:href="#ax"/><use transform="matrix(0.05,0,0,0.05,18.900000000000002,0)" xlink:href="#ai"/><use transform="matrix(0.05,0,0,0.05,28.900000000000002,0)" xlink:href="#ar"/><use transform="matrix(0.05,0,0,0.05,37.900000000000006,0)" xlink:href="#ar"/></g><g id="w"><use transform="matrix(0.05,0,0,0.05,0,0)" xlink:href="#aj"/><use transform="matrix(0.05,0,0,0.05,9,0)" xlink:href="#ab"/><use transform="matrix(0.05,0,0,0.05,19,0)" xlink:href="#ac"/><use transform="matrix(0.05,0,0,0.05,29,0)" xlink:href="#ad"/><use transform="matrix(0.05,0,0,0.05,32.95,0)" xlink:href="#ae"/></g><g id="x"><use transform="matrix(0.05,0,0,0.05,0,0)" xlink:href="#ar"/><use transform="matrix(0.05,0,0,0.05,9,0)" xlink:href="#ay"/><use transform="matrix(0.05,0,0,0.05,19,0)" xlink:href="#ar"/><use transform="matrix(0.05,0,0,0.05,28,0)" xlink:href="#ar"/><use transform="matrix(0.05,0,0,0.05,37,0)" xlink:href="#ad"/><use transform="matrix(0.05,0,0,0.05,40.95,0)" xlink:href="#ai"/><use transform="matrix(0.05,0,0,0.05,50.95,0)" xlink:href="#ae"/></g><g id="y"><use transform="matrix(0.05,0,0,0.05,0,0)" xlink:href="#av"/><use transform="matrix(0.05,0,0,0.05,10,0)" xlink:href="#ay"/><use transform="matrix(0.05,0,0,0.05,20,0)" xlink:href="#ax"/><use transform="matrix(0.05,0,0,0.05,25.950000000000003,0)" xlink:href="#ar"/><use transform="matrix(0.05,0,0,0.05,34.95,0)" xlink:href="#ad"/><use transform="matrix(0.05,0,0,0.05,38.900000000000006,0)" xlink:href="#ar"/><use transform="matrix(0.05,0,0,0.05,47.900000000000006,0)" xlink:href="#am"/><use transform="matrix(0.05,0,0,0.05,52.900000000000006,0)" xlink:href="#ay"/><use transform="matrix(0.05,0,0,0.05,62.900000000000006,0)" xlink:href="#ae"/><use transform="matrix(0.05,0,0,0.05,72.9,0)" xlink:href="#aj"/><use transform="matrix(0.05,0,0,0.05,81.9,0)" xlink:href="#ay"/></g><path d="M63-220v92h138v28H63V0H30v-248h175v28H63" id="aC"/><g id="z"><use transform="matrix(0.05,0,0,0.05,0,0)" xlink:href="#aC"/><use transform="matrix(0.05,0,0,0.05,10.950000000000001,0)" xlink:href="#ay"/><use transform="matrix(0.05,0,0,0.05,20.950000000000003,0)" xlink:href="#az"/><use transform="matrix(0.05,0,0,0.05,30.950000000000003,0)" xlink:href="#ay"/><use transform="matrix(0.05,0,0,0.05,40.95,0)" xlink:href="#ax"/><use transform="matrix(0.05,0,0,0.05,46.900000000000006,0)" xlink:href="#ac"/><use transform="matrix(0.05,0,0,0.05,56.900000000000006,0)" xlink:href="#am"/><use transform="matrix(0.05,0,0,0.05,61.900000000000006,0)" xlink:href="#ad"/><use transform="matrix(0.05,0,0,0.05,65.85000000000001,0)" xlink:href="#ai"/><use transform="matrix(0.05,0,0,0.05,75.85000000000001,0)" xlink:href="#ae"/></g><path d="M240 0l2-218c-23 76-54 145-80 218h-23L58-218 59 0H30v-248h44l77 211c21-75 51-140 76-211h43V0h-30" id="aD"/><path d="M115-194c53 0 69 39 70 98 0 66-23 100-70 100C84 3 66-7 56-30L54 0H23l1-261h32v101c10-23 28-34 59-34zm-8 174c40 0 45-34 45-75 0-40-5-75-45-74-42 0-51 32-51 76 0 43 10 73 51 73" id="aE"/><g id="A"><use transform="matrix(0.05,0,0,0.05,0,0)" xlink:href="#aD"/><use transform="matrix(0.05,0,0,0.05,14.950000000000001,0)" xlink:href="#ay"/><use transform="matrix(0.05,0,0,0.05,24.950000000000003,0)" xlink:href="#ap"/><use transform="matrix(0.05,0,0,0.05,39.900000000000006,0)" xlink:href="#aE"/><use transform="matrix(0.05,0,0,0.05,49.900000000000006,0)" xlink:href="#ay"/><use transform="matrix(0.05,0,0,0.05,59.900000000000006,0)" xlink:href="#ax"/></g><g id="B"><use transform="matrix(0.05,0,0,0.05,0,0)" xlink:href="#aC"/><use transform="matrix(0.05,0,0,0.05,10.950000000000001,0)" xlink:href="#aD"/><use transform="matrix(0.05,0,0,0.05,25.900000000000002,0)" xlink:href="#ao"/></g><g id="C"><use transform="matrix(0.05,0,0,0.05,0,0)" xlink:href="#aC"/><use transform="matrix(0.05,0,0,0.05,10.950000000000001,0)" xlink:href="#aD"/><use transform="matrix(0.05,0,0,0.05,25.900000000000002,0)" xlink:href="#aA"/></g><use transform="matrix(0.05,0,0,0.05,0,0)" xlink:href="#ag" id="D"/><path d="M126-127c33 6 58 20 58 59 0 88-139 92-164 29-3-8-5-16-6-25l32-3c6 27 21 44 54 44 32 0 52-15 52-46 0-38-36-46-79-43v-28c39 1 72-4 72-42 0-27-17-43-46-43-28 0-47 15-49 41l-32-3c6-42 35-63 81-64 48-1 79 21 79 65 0 36-21 52-52 59" id="aF"/><g id="E"><use transform="matrix(0.05,0,0,0.05,0,0)" xlink:href="#aC"/><use transform="matrix(0.05,0,0,0.05,10.950000000000001,0)" xlink:href="#aD"/><use transform="matrix(0.05,0,0,0.05,25.900000000000002,0)" xlink:href="#aF"/></g><use transform="matrix(0.05,0,0,0.05,0,0)" xlink:href="#af" id="F"/><g id="G"><use transform="matrix(0.05,0,0,0.05,0,0)" xlink:href="#aj"/><use transform="matrix(0.05,0,0,0.05,9,0)" xlink:href="#ax"/><use transform="matrix(0.05,0,0,0.05,14.949999999999998,0)" xlink:href="#ai"/><use transform="matrix(0.05,0,0,0.05,24.95,0)" xlink:href="#ar"/><use transform="matrix(0.05,0,0,0.05,33.95,0)" xlink:href="#ar"/></g><g id="H"><use transform="matrix(0.05,0,0,0.05,0,0)" xlink:href="#aj"/><use transform="matrix(0.05,0,0,0.05,9,0)" xlink:href="#ab"/><use transform="matrix(0.05,0,0,0.05,19,0)" xlink:href="#ac"/><use transform="matrix(0.05,0,0,0.05,29,0)" xlink:href="#ad"/><use transform="matrix(0.05,0,0,0.05,32.95,0)" xlink:href="#ae"/></g><path d="M101-234c-31-9-42 10-38 44h38v23H63V0H32v-167H5v-23h27c-7-52 17-82 69-68v24" id="aG"/><g id="I"><use transform="matrix(0.05,0,0,0.05,0,0)" xlink:href="#am"/><use transform="matrix(0.05,0,0,0.05,5,0)" xlink:href="#ax"/><use transform="matrix(0.05,0,0,0.05,10.95,0)" xlink:href="#ac"/><use transform="matrix(0.05,0,0,0.05,20.95,0)" xlink:href="#ae"/><use transform="matrix(0.05,0,0,0.05,30.950000000000003,0)" xlink:href="#ar"/><use transform="matrix(0.05,0,0,0.05,39.95,0)" xlink:href="#aG"/><use transform="matrix(0.05,0,0,0.05,44.95,0)" xlink:href="#ay"/><use transform="matrix(0.05,0,0,0.05,54.95,0)" xlink:href="#ax"/></g><g id="J"><use transform="matrix(0.05,0,0,0.05,0,0)" xlink:href="#ad"/><use transform="matrix(0.05,0,0,0.05,3.95,0)" xlink:href="#ar"/></g><g id="K"><use transform="matrix(0.05,0,0,0.05,0,0)" xlink:href="#ad"/><use transform="matrix(0.05,0,0,0.05,3.95,0)" xlink:href="#ae"/><use transform="matrix(0.05,0,0,0.05,13.949999999999998,0)" xlink:href="#ad"/><use transform="matrix(0.05,0,0,0.05,17.9,0)" xlink:href="#am"/><use transform="matrix(0.05,0,0,0.05,22.9,0)" xlink:href="#ad"/><use transform="matrix(0.05,0,0,0.05,26.849999999999994,0)" xlink:href="#ac"/><use transform="matrix(0.05,0,0,0.05,36.849999999999994,0)" xlink:href="#am"/><use transform="matrix(0.05,0,0,0.05,41.849999999999994,0)" xlink:href="#ay"/><use transform="matrix(0.05,0,0,0.05,51.849999999999994,0)" xlink:href="#az"/></g><g id="L"><use transform="matrix(0.05,0,0,0.05,0,0)" xlink:href="#ai"/><use transform="matrix(0.05,0,0,0.05,10,0)" xlink:href="#ae"/></g><g id="M"><use transform="matrix(0.05,0,0,0.05,0,0)" xlink:href="#am"/><use transform="matrix(0.05,0,0,0.05,5,0)" xlink:href="#ab"/><use transform="matrix(0.05,0,0,0.05,15,0)" xlink:href="#ay"/></g><use transform="matrix(0.05,0,0,0.05,0,0)" xlink:href="#af" id="N"/><g id="O"><use transform="matrix(0.05,0,0,0.05,0,0)" xlink:href="#ac"/><use transform="matrix(0.05,0,0,0.05,10,0)" xlink:href="#am"/></g><g id="P"><use transform="matrix(0.05,0,0,0.05,0,0)" xlink:href="#ab"/><use transform="matrix(0.05,0,0,0.05,10,0)" xlink:href="#ay"/><use transform="matrix(0.05,0,0,0.05,20,0)" xlink:href="#ad"/><use transform="matrix(0.05,0,0,0.05,23.95,0)" xlink:href="#as"/><use transform="matrix(0.05,0,0,0.05,33.95,0)" xlink:href="#ab"/><use transform="matrix(0.05,0,0,0.05,43.95,0)" xlink:href="#am"/></g><use transform="matrix(0.05,0,0,0.05,0,0)" xlink:href="#ad" id="Q"/><path d="M179-190L93 31C79 59 56 82 12 73V49c39 6 53-20 64-50L1-190h34L92-34l54-156h33" id="aH"/><g id="R"><use transform="matrix(0.05,0,0,0.05,0,0)" xlink:href="#aE"/><use transform="matrix(0.05,0,0,0.05,10,0)" xlink:href="#aH"/></g><g id="S"><use transform="matrix(0.05,0,0,0.05,0,0)" xlink:href="#ar"/><use transform="matrix(0.05,0,0,0.05,9,0)" xlink:href="#ay"/><use transform="matrix(0.05,0,0,0.05,19,0)" xlink:href="#ae"/><use transform="matrix(0.05,0,0,0.05,29,0)" xlink:href="#az"/><use transform="matrix(0.05,0,0,0.05,39,0)" xlink:href="#ad"/><use transform="matrix(0.05,0,0,0.05,42.95,0)" xlink:href="#ae"/><use transform="matrix(0.05,0,0,0.05,52.95,0)" xlink:href="#as"/></g><g id="T"><use transform="matrix(0.05,0,0,0.05,0,0)" xlink:href="#aG"/><use transform="matrix(0.05,0,0,0.05,5,0)" xlink:href="#aq"/><use transform="matrix(0.05,0,0,0.05,15,0)" xlink:href="#ae"/><use transform="matrix(0.05,0,0,0.05,25,0)" xlink:href="#az"/><use transform="matrix(0.05,0,0,0.05,35,0)" xlink:href="#ar"/></g><g id="U"><use transform="matrix(0.05,0,0,0.05,0,0)" xlink:href="#am"/><use transform="matrix(0.05,0,0,0.05,5,0)" xlink:href="#ai"/></g><g id="V"><use transform="matrix(0.05,0,0,0.05,0,0)" xlink:href="#ap"/><use transform="matrix(0.05,0,0,0.05,14.950000000000001,0)" xlink:href="#aq"/><use transform="matrix(0.05,0,0,0.05,24.950000000000003,0)" xlink:href="#ah"/><use transform="matrix(0.05,0,0,0.05,28.900000000000002,0)" xlink:href="#am"/><use transform="matrix(0.05,0,0,0.05,33.900000000000006,0)" xlink:href="#ad"/><use transform="matrix(0.05,0,0,0.05,37.85000000000001,0)" xlink:href="#ar"/><use transform="matrix(0.05,0,0,0.05,46.85000000000001,0)" xlink:href="#ad"/><use transform="matrix(0.05,0,0,0.05,50.80000000000001,0)" xlink:href="#as"/></g><g id="W"><use transform="matrix(0.05,0,0,0.05,0,0)" xlink:href="#ac"/><use transform="matrix(0.05,0,0,0.05,10,0)" xlink:href="#az"/><use transform="matrix(0.05,0,0,0.05,20,0)" xlink:href="#az"/><use transform="matrix(0.05,0,0,0.05,30,0)" xlink:href="#ax"/><use transform="matrix(0.05,0,0,0.05,35.95,0)" xlink:href="#ay"/><use transform="matrix(0.05,0,0,0.05,45.95,0)" xlink:href="#ar"/><use transform="matrix(0.05,0,0,0.05,54.95,0)" xlink:href="#ar"/></g><g id="X"><use transform="matrix(0.05,0,0,0.05,0,0)" xlink:href="#ai"/><use transform="matrix(0.05,0,0,0.05,10,0)" xlink:href="#aG"/></g><g id="Y"><use transform="matrix(0.05,0,0,0.05,0,0)" xlink:href="#am"/><use transform="matrix(0.05,0,0,0.05,5,0)" xlink:href="#ab"/><use transform="matrix(0.05,0,0,0.05,15,0)" xlink:href="#ay"/></g><g id="Z"><use transform="matrix(0.05,0,0,0.05,0,0)" xlink:href="#aG"/><use transform="matrix(0.05,0,0,0.05,5,0)" xlink:href="#ay"/><use transform="matrix(0.05,0,0,0.05,15,0)" xlink:href="#az"/><use transform="matrix(0.05,0,0,0.05,25,0)" xlink:href="#ay"/><use transform="matrix(0.05,0,0,0.05,35,0)" xlink:href="#ax"/><use transform="matrix(0.05,0,0,0.05,40.95,0)" xlink:href="#ac"/><use transform="matrix(0.05,0,0,0.05,50.95,0)" xlink:href="#am"/><use transform="matrix(0.05,0,0,0.05,55.95,0)" xlink:href="#ad"/><use transform="matrix(0.05,0,0,0.05,59.900000000000006,0)" xlink:href="#ai"/><use transform="matrix(0.05,0,0,0.05,69.9,0)" xlink:href="#ae"/></g></defs></g></svg>