<svg xmlns="http://www.w3.org/2000/svg" xmlns:xlink="http://www.w3.org/1999/xlink" xmlns:lucid="lucid" width="1582" height="1200"><g transform="translate(0 0)" lucid:page-tab-id="Cu6cqYT7j5Qr"><path d="M40 1079.5h140l40 30v50H40z" stroke="#000" stroke-width="2" fill="#c7e8ac"/><path d="M30 1089.5h140l40 30v50H30z" stroke="#000" stroke-width="2" fill="#c7e8ac"/><path d="M20 1099.5h140l40 30v50H20z" stroke="#000" stroke-width="2" fill="#c7e8ac"/><use xlink:href="#a" transform="matrix(1,0,0,1,20,1099.5) translate(58.05 43.6)"/><use xlink:href="#b" transform="matrix(1,0,0,1,20,1099.5) translate(109.95 43.6)"/><path d="M20 590h160l40 30v70H20z" stroke="#000" stroke-width="2" fill="#c7e8ac"/><use xlink:href="#c" transform="matrix(1,0,0,1,20,590) translate(46.055 42.525)"/><use xlink:href="#d" transform="matrix(1,0,0,1,20,590) translate(95.005 42.525)"/><use xlink:href="#e" transform="matrix(1,0,0,1,20,590) translate(103.955 42.525)"/><use xlink:href="#f" transform="matrix(1,0,0,1,20,590) translate(119.455 42.525)"/><use xlink:href="#g" transform="matrix(1,0,0,1,20,590) translate(134.45499999999998 42.525)"/><use xlink:href="#h" transform="matrix(1,0,0,1,20,590) translate(54.379999999999995 64.125)"/><path d="M120 1078.5v-19.26" stroke="#000" stroke-width="2" fill="none"/><path d="M121 1079.5h-2v-1h2zM124.64 1058.5h-9.28l4.64-14.26z"/><path d="M126 1059.5h-12l6-18.5zm-9.26-2h6.52l-3.26-10.03z"/><path d="M120 799V709.24" fill="none"/><path d="M120 799v-3m0-3.98v-6m0-3.98v-5.98m0-4v-5.97m0-4v-6m0-3.98v-5.98m0-4v-5.97m0-4v-5.98m0-4v-5.98m0-4v-2.98" stroke="#000" stroke-width="2" fill="none"/><path d="M121 800h-2v-1h2zM124.64 708.5h-9.28l4.64-14.26z"/><path d="M126 709.5h-12l6-18.5zm-9.26-2h6.52L120 697.47z"/><path d="M20 400h160l40 30v70H20z" stroke="#000" stroke-width="2" fill="#c7e8ac"/><use xlink:href="#c" transform="matrix(1,0,0,1,20,400) translate(73.555 55.025)"/><use xlink:href="#i" transform="matrix(1,0,0,1,20,400) translate(122.505 55.025)"/><path d="M120 589v-69.76" fill="none"/><path d="M120 589v-3m0-3.98v-5.98m0-3.98v-5.98m0-4v-5.97m0-3.98v-5.98m0-3.98v-5.98m0-4v-5.97m0-3.97v-3" stroke="#000" stroke-width="2" fill="none"/><path d="M121 590h-2v-1h2zM124.64 518.5h-9.28l4.64-14.26z"/><path d="M126 519.5h-12l6-18.5zm-9.26-2h6.52L120 507.47z"/><path d="M1233 20c16.57 0 30 13.43 30 30v300c0 16.57-13.43 30-30 30H373c-16.57 0-30-13.43-30-30V50c0-16.57 13.43-30 30-30z" stroke="#000" stroke-width="2" fill="#e5e5e5"/><path d="M453 80c0 22.1-17.9 40-40 40s-40-17.9-40-40 17.9-40 40-40 40 17.9 40 40z" stroke="#000" stroke-width="2" fill="#c7e8ac"/><use xlink:href="#a" transform="matrix(1,0,0,1,378.0000000000042,45) translate(3.549999999999997 27.799999999999997)"/><use xlink:href="#j" transform="matrix(1,0,0,1,378.0000000000042,45) translate(55.45 27.799999999999997)"/><use xlink:href="#k" transform="matrix(1,0,0,1,378.0000000000042,45) translate(15 49.4)"/><path d="M862 80c0 22.1-17.9 40-40 40s-40-17.9-40-40 17.9-40 40-40 40 17.9 40 40z" stroke="#000" stroke-width="2" fill="#ffbbb1"/><use xlink:href="#a" transform="matrix(1,0,0,1,786.9993760969081,45) translate(3.049999999999997 27.799999999999997)"/><use xlink:href="#l" transform="matrix(1,0,0,1,786.9993760969081,45) translate(54.95 27.799999999999997)"/><use xlink:href="#k" transform="matrix(1,0,0,1,786.9993760969081,45) translate(15 49.4)"/><path d="M463 268.2c0 6.66-22.4 12.05-50 12.05s-50-5.4-50-12.05v-96.4c0-6.66 22.4-12.05 50-12.05s50 5.4 50 12.05z" stroke="#000" stroke-width="2" fill="#c7e8ac"/><path d="M463 171.8c0 6.66-22.4 12.05-50 12.05s-50-5.4-50-12.05" stroke="#000" stroke-width="2" fill="none"/><use xlink:href="#m" transform="matrix(1,0,0,1,368.0000000000042,188.85) translate(21.549999999999997 14.69999999999999)"/><use xlink:href="#n" transform="matrix(1,0,0,1,368.0000000000042,188.85) translate(23.525 36.29999999999999)"/><use xlink:href="#o" transform="matrix(1,0,0,1,368.0000000000042,188.85) translate(14.524999999999999 57.89999999999999)"/><use xlink:href="#p" transform="matrix(1,0,0,1,368.0000000000042,188.85) translate(-0.9500000000000028 79.5)"/><path d="M872 286c0 7.73-22.4 14-50 14s-50-6.27-50-14V174c0-7.73 22.4-14 50-14s50 6.27 50 14z" stroke="#000" stroke-width="2" fill="#ffbbb1"/><path d="M872 174c0 7.73-22.4 14-50 14s-50-6.27-50-14" stroke="#000" stroke-width="2" fill="none"/><use xlink:href="#m" transform="matrix(1,0,0,1,776.9993760969081,193) translate(21.549999999999997 22.19999999999999)"/><use xlink:href="#n" transform="matrix(1,0,0,1,776.9993760969081,193) translate(23.525 43.79999999999999)"/><use xlink:href="#o" transform="matrix(1,0,0,1,776.9993760969081,193) translate(14.524999999999999 65.39999999999999)"/><use xlink:href="#p" transform="matrix(1,0,0,1,776.9993760969081,193) translate(-0.9500000000000028 87)"/><path d="M1233 420c16.57 0 30 13.43 30 30v300c0 16.57-13.43 30-30 30H373c-16.57 0-30-13.43-30-30V450c0-16.57 13.43-30 30-30z" stroke="#000" stroke-width="2" fill="#e5e5e5"/><path d="M453 480c0 22.1-17.9 40-40 40s-40-17.9-40-40 17.9-40 40-40 40 17.9 40 40z" stroke="#000" stroke-width="2" fill="#c7e8ac"/><use xlink:href="#a" transform="matrix(1,0,0,1,378.0000000000042,445) translate(3.549999999999997 27.799999999999997)"/><use xlink:href="#j" transform="matrix(1,0,0,1,378.0000000000042,445) translate(55.45 27.799999999999997)"/><use xlink:href="#k" transform="matrix(1,0,0,1,378.0000000000042,445) translate(15 49.4)"/><path d="M873 480c0 22.1-17.9 40-40 40s-40-17.9-40-40 17.9-40 40-40 40 17.9 40 40z" stroke="#000" stroke-width="2" fill="#ffbbb1"/><use xlink:href="#a" transform="matrix(1,0,0,1,798.0000000000042,445) translate(3.049999999999997 27.799999999999997)"/><use xlink:href="#l" transform="matrix(1,0,0,1,798.0000000000042,445) translate(54.95 27.799999999999997)"/><use xlink:href="#k" transform="matrix(1,0,0,1,798.0000000000042,445) translate(15 49.4)"/><path d="M463 668.2c0 6.66-22.4 12.05-50 12.05s-50-5.4-50-12.05v-96.4c0-6.66 22.4-12.05 50-12.05s50 5.4 50 12.05z" stroke="#000" stroke-width="2" fill="#c7e8ac"/><path d="M463 571.8c0 6.66-22.4 12.05-50 12.05s-50-5.4-50-12.05" stroke="#000" stroke-width="2" fill="none"/><use xlink:href="#m" transform="matrix(1,0,0,1,368.0000000000042,588.85) translate(21.549999999999997 14.69999999999999)"/><use xlink:href="#n" transform="matrix(1,0,0,1,368.0000000000042,588.85) translate(23.525 36.29999999999999)"/><use xlink:href="#o" transform="matrix(1,0,0,1,368.0000000000042,588.85) translate(14.524999999999999 57.89999999999999)"/><use xlink:href="#p" transform="matrix(1,0,0,1,368.0000000000042,588.85) translate(-0.9500000000000028 79.5)"/><path d="M883 728.45c0 6.66-22.4 12.05-50 12.05s-50-5.4-50-12.05v-96.4c0-6.66 22.4-12.05 50-12.05s50 5.4 50 12.05z" stroke="#000" stroke-width="2" fill="#ffbbb1"/><path d="M883 632.05c0 6.66-22.4 12.05-50 12.05s-50-5.4-50-12.05" stroke="#000" stroke-width="2" fill="none"/><use xlink:href="#m" transform="matrix(1,0,0,1,788.0000000000042,649.1) translate(21.549999999999997 14.69999999999999)"/><use xlink:href="#n" transform="matrix(1,0,0,1,788.0000000000042,649.1) translate(23.525 36.29999999999999)"/><use xlink:href="#o" transform="matrix(1,0,0,1,788.0000000000042,649.1) translate(14.524999999999999 57.89999999999999)"/><use xlink:href="#p" transform="matrix(1,0,0,1,788.0000000000042,649.1) translate(-0.9500000000000028 79.5)"/><path d="M1382 1069.75h108l32 30v50h-140z" stroke="#000" stroke-width="2" fill="#ffbbb1"/><path d="M1372 1079.75h108l32 30v50h-140z" stroke="#000" stroke-width="2" fill="#ffbbb1"/><path d="M1362 1089.75h108l32 30v50h-140z" stroke="#000" stroke-width="2" fill="#ffbbb1"/><use xlink:href="#a" transform="matrix(1,0,0,1,1362.000000000004,1089.75) translate(38.05 43.6)"/><use xlink:href="#q" transform="matrix(1,0,0,1,1362.000000000004,1089.75) translate(89.95 43.6)"/><path d="M1442 1068.75v-109" stroke="#000" stroke-width="2" fill="none"/><path d="M1443 1069.75h-2v-1h2zM1446.64 959h-9.28l4.64-14.26z"/><path d="M1448 960h-12l6-18.5zm-9.26-2h6.52l-3.26-10.03z"/><path d="M1233 820c16.57 0 30 13.43 30 30v300c0 16.57-13.43 30-30 30H373c-16.57 0-30-13.43-30-30V850c0-16.57 13.43-30 30-30z" stroke="#000" stroke-width="2" fill="#e5e5e5"/><path d="M453 880c0 22.1-17.9 40-40 40s-40-17.9-40-40 17.9-40 40-40 40 17.9 40 40z" stroke="#000" stroke-width="2" fill="#c7e8ac"/><use xlink:href="#a" transform="matrix(1,0,0,1,378.0000000000042,845) translate(3.549999999999997 27.799999999999997)"/><use xlink:href="#j" transform="matrix(1,0,0,1,378.0000000000042,845) translate(55.45 27.799999999999997)"/><use xlink:href="#k" transform="matrix(1,0,0,1,378.0000000000042,845) translate(15 49.4)"/><path d="M873 880c0 22.1-17.9 40-40 40s-40-17.9-40-40 17.9-40 40-40 40 17.9 40 40z" stroke="#000" stroke-width="2" fill="#ffbbb1"/><use xlink:href="#a" transform="matrix(1,0,0,1,798.0000000000042,845) translate(3.049999999999997 27.799999999999997)"/><use xlink:href="#l" transform="matrix(1,0,0,1,798.0000000000042,845) translate(54.95 27.799999999999997)"/><use xlink:href="#k" transform="matrix(1,0,0,1,798.0000000000042,845) translate(15 49.4)"/><path d="M463 1068.2c0 6.66-22.4 12.05-50 12.05s-50-5.4-50-12.05v-96.4c0-6.66 22.4-12.05 50-12.05s50 5.4 50 12.05z" stroke="#000" stroke-width="2" fill="#c7e8ac"/><path d="M463 971.8c0 6.66-22.4 12.05-50 12.05s-50-5.4-50-12.05" stroke="#000" stroke-width="2" fill="none"/><use xlink:href="#m" transform="matrix(1,0,0,1,368.0000000000042,988.8499999999999) translate(21.549999999999997 14.69999999999999)"/><use xlink:href="#n" transform="matrix(1,0,0,1,368.0000000000042,988.8499999999999) translate(23.525 36.29999999999999)"/><use xlink:href="#o" transform="matrix(1,0,0,1,368.0000000000042,988.8499999999999) translate(14.524999999999999 57.89999999999999)"/><use xlink:href="#p" transform="matrix(1,0,0,1,368.0000000000042,988.8499999999999) translate(-0.9500000000000028 79.5)"/><path d="M883 1068.45c0 6.66-22.4 12.05-50 12.05s-50-5.4-50-12.05v-96.4c0-6.66 22.4-12.05 50-12.05s50 5.4 50 12.05z" stroke="#000" stroke-width="2" fill="#ffbbb1"/><path d="M883 972.05c0 6.66-22.4 12.05-50 12.05s-50-5.4-50-12.05" stroke="#000" stroke-width="2" fill="none"/><use xlink:href="#m" transform="matrix(1,0,0,1,788.0000000000042,989.1) translate(21.549999999999997 14.69999999999999)"/><use xlink:href="#n" transform="matrix(1,0,0,1,788.0000000000042,989.1) translate(23.525 36.29999999999999)"/><use xlink:href="#o" transform="matrix(1,0,0,1,788.0000000000042,989.1) translate(14.524999999999999 57.89999999999999)"/><use xlink:href="#p" transform="matrix(1,0,0,1,788.0000000000042,989.1) translate(-0.9500000000000028 79.5)"/><path d="M833 521v79.76" stroke="#000" stroke-width="2" fill="none"/><path d="M833 520l1-.04V521h-2v-1.06zM833 615.76l-4.64-14.26h9.28z"/><path d="M833 619l-6-18.5h12zm-3.26-16.5l3.26 10.03 3.26-10.03z"/><use xlink:href="#r" transform="matrix(1,0,0,1,748.1500000000043,533.0666666666666) translate(0 14.4)"/><use xlink:href="#s" transform="matrix(1,0,0,1,748.1500000000043,533.0666666666666) translate(44.95 14.4)"/><use xlink:href="#t" transform="matrix(1,0,0,1,748.1500000000043,533.0666666666666) translate(0 36)"/><use xlink:href="#u" transform="matrix(1,0,0,1,748.1500000000043,533.0666666666666) translate(25.95 36)"/><use xlink:href="#v" transform="matrix(1,0,0,1,748.1500000000043,533.0666666666666) translate(72.9 36)"/><path d="M20 20h240v334H20z" stroke="#000" stroke-opacity="0" stroke-width="2" fill="#fff" fill-opacity="0"/><use xlink:href="#w" transform="matrix(1,0,0,1,25,25) translate(0 14.4)"/><use xlink:href="#x" transform="matrix(1,0,0,1,25,25) translate(37.9 14.4)"/><use xlink:href="#y" transform="matrix(1,0,0,1,25,25) translate(95.85 14.4)"/><use xlink:href="#z" transform="matrix(1,0,0,1,25,25) translate(138.85 14.4)"/><use xlink:href="#A" transform="matrix(1,0,0,1,25,25) translate(191.75 14.4)"/><use xlink:href="#B" transform="matrix(1,0,0,1,25,25) translate(0 36)"/><use xlink:href="#C" transform="matrix(1,0,0,1,25,25) translate(54 36)"/><use xlink:href="#D" transform="matrix(1,0,0,1,25,25) translate(74 36)"/><use xlink:href="#E" transform="matrix(1,0,0,1,25,25) translate(116 36)"/><use xlink:href="#F" transform="matrix(1,0,0,1,25,25) translate(138.95 36)"/><use xlink:href="#G" transform="matrix(1,0,0,1,25,25) translate(154.95 36)"/><use xlink:href="#l" transform="matrix(1,0,0,1,25,25) translate(189.95 36)"/><use xlink:href="#H" transform="matrix(1,0,0,1,25,25) translate(0 57.6)"/><use xlink:href="#I" transform="matrix(1,0,0,1,25,25) translate(54 57.6)"/><use xlink:href="#C" transform="matrix(1,0,0,1,25,25) translate(79 57.6)"/><use xlink:href="#J" transform="matrix(1,0,0,1,25,25) translate(99 57.6)"/><use xlink:href="#G" transform="matrix(1,0,0,1,25,25) translate(107.95 57.6)"/><use xlink:href="#K" transform="matrix(1,0,0,1,25,25) translate(142.95 57.6)"/><use xlink:href="#L" transform="matrix(1,0,0,1,25,25) translate(0 79.20000000000002)"/><use xlink:href="#M" transform="matrix(1,0,0,1,25,25) translate(0 100.80000000000001)"/><use xlink:href="#w" transform="matrix(1,0,0,1,25,25) translate(0 122.4)"/><use xlink:href="#N" transform="matrix(1,0,0,1,25,25) translate(37.9 122.4)"/><use xlink:href="#O" transform="matrix(1,0,0,1,25,25) translate(96.9 122.4)"/><use xlink:href="#P" transform="matrix(1,0,0,1,25,25) translate(121.9 122.4)"/><use xlink:href="#Q" transform="matrix(1,0,0,1,25,25) translate(136.9 122.4)"/><use xlink:href="#R" transform="matrix(1,0,0,1,25,25) translate(191.8 122.4)"/><use xlink:href="#S" transform="matrix(1,0,0,1,25,25) translate(0 144)"/><use xlink:href="#T" transform="matrix(1,0,0,1,25,25) translate(13.95 144)"/><use xlink:href="#U" transform="matrix(1,0,0,1,25,25) translate(47.95 144)"/><use xlink:href="#V" transform="matrix(1,0,0,1,25,25) translate(114.85000000000001 144)"/><use xlink:href="#W" transform="matrix(1,0,0,1,25,25) translate(190.8 144)"/><use xlink:href="#X" transform="matrix(1,0,0,1,25,25) translate(0 165.6)"/><use xlink:href="#Y" transform="matrix(1,0,0,1,25,25) translate(40 165.6)"/><use xlink:href="#M" transform="matrix(1,0,0,1,25,25) translate(0 187.2)"/><use xlink:href="#Z" transform="matrix(1,0,0,1,25,25) translate(0 208.79999999999998)"/><use xlink:href="#aa" transform="matrix(1,0,0,1,25,25) translate(49.85 208.79999999999998)"/><use xlink:href="#ab" transform="matrix(1,0,0,1,25,25) translate(115.80000000000001 208.79999999999998)"/><use xlink:href="#ac" transform="matrix(1,0,0,1,25,25) translate(163.75 208.79999999999998)"/><use xlink:href="#ad" transform="matrix(1,0,0,1,25,25) translate(185.75 208.79999999999998)"/><use xlink:href="#ae" transform="matrix(1,0,0,1,25,25) translate(0 230.39999999999998)"/><use xlink:href="#af" transform="matrix(1,0,0,1,25,25) translate(61.95 230.39999999999998)"/><use xlink:href="#ag" transform="matrix(1,0,0,1,25,25) translate(91.95 230.39999999999998)"/><use xlink:href="#d" transform="matrix(1,0,0,1,25,25) translate(138.9 230.39999999999998)"/><use xlink:href="#ah" transform="matrix(1,0,0,1,25,25) translate(147.85 230.39999999999998)"/><use xlink:href="#ai" transform="matrix(1,0,0,1,25,25) translate(0 251.99999999999997)"/><use xlink:href="#P" transform="matrix(1,0,0,1,25,25) translate(55.85 251.99999999999997)"/><use xlink:href="#aj" transform="matrix(1,0,0,1,25,25) translate(70.85 251.99999999999997)"/><use xlink:href="#n" transform="matrix(1,0,0,1,25,25) translate(118.8 251.99999999999997)"/><use xlink:href="#ak" transform="matrix(1,0,0,1,25,25) translate(0 273.59999999999997)"/><use xlink:href="#G" transform="matrix(1,0,0,1,25,25) translate(69.9 273.59999999999997)"/><use xlink:href="#al" transform="matrix(1,0,0,1,25,25) translate(104.9 273.59999999999997)"/><use xlink:href="#am" transform="matrix(1,0,0,1,25,25) translate(158.85000000000002 273.59999999999997)"/><use xlink:href="#an" transform="matrix(1,0,0,1,25,25) translate(177.8 273.59999999999997)"/><use xlink:href="#ao" transform="matrix(1,0,0,1,25,25) translate(0 295.2)"/><use xlink:href="#af" transform="matrix(1,0,0,1,25,25) translate(79 295.2)"/><use xlink:href="#ap" transform="matrix(1,0,0,1,25,25) translate(109 295.2)"/><use xlink:href="#aq" transform="matrix(1,0,0,1,25,25) translate(0 316.8)"/><path d="M1322 21.2h240v420.4h-240z" stroke="#000" stroke-opacity="0" stroke-width="2" fill="#fff" fill-opacity="0"/><g><use xlink:href="#Z" transform="matrix(1,0,0,1,1327.000000000004,26.199999999999932) translate(0 14.4)"/><use xlink:href="#aa" transform="matrix(1,0,0,1,1327.000000000004,26.199999999999932) translate(49.85 14.4)"/><use xlink:href="#ar" transform="matrix(1,0,0,1,1327.000000000004,26.199999999999932) translate(115.80000000000001 14.4)"/><use xlink:href="#ab" transform="matrix(1,0,0,1,1327.000000000004,26.199999999999932) translate(140.8 14.4)"/><use xlink:href="#as" transform="matrix(1,0,0,1,1327.000000000004,26.199999999999932) translate(188.75 14.4)"/><use xlink:href="#at" transform="matrix(1,0,0,1,1327.000000000004,26.199999999999932) translate(210.75 14.4)"/><use xlink:href="#au" transform="matrix(1,0,0,1,1327.000000000004,26.199999999999932) translate(0 36)"/><use xlink:href="#av" transform="matrix(1,0,0,1,1327.000000000004,26.199999999999932) translate(53.95 36)"/><use xlink:href="#aw" transform="matrix(1,0,0,1,1327.000000000004,26.199999999999932) translate(67.9 36)"/><use xlink:href="#ae" transform="matrix(1,0,0,1,1327.000000000004,26.199999999999932) translate(105.80000000000001 36)"/><use xlink:href="#ax" transform="matrix(1,0,0,1,1327.000000000004,26.199999999999932) translate(167.75 36)"/><use xlink:href="#ay" transform="matrix(1,0,0,1,1327.000000000004,26.199999999999932) translate(0 57.6)"/><use xlink:href="#az" transform="matrix(1,0,0,1,1327.000000000004,26.199999999999932) translate(92.9 57.6)"/><use xlink:href="#aA" transform="matrix(1,0,0,1,1327.000000000004,26.199999999999932) translate(155.8 57.6)"/><use xlink:href="#aB" transform="matrix(1,0,0,1,1327.000000000004,26.199999999999932) translate(0 79.20000000000002)"/><use xlink:href="#aC" transform="matrix(1,0,0,1,1327.000000000004,26.199999999999932) translate(97.30000000000001 79.20000000000002)"/><use xlink:href="#A" transform="matrix(1,0,0,1,1327.000000000004,26.199999999999932) translate(164.15000000000003 79.20000000000002)"/><use xlink:href="#aD" transform="matrix(1,0,0,1,1327.000000000004,26.199999999999932) translate(0 100.80000000000001)"/><use xlink:href="#aE" transform="matrix(1,0,0,1,1327.000000000004,26.199999999999932) translate(86.9 100.80000000000001)"/><use xlink:href="#aF" transform="matrix(1,0,0,1,1327.000000000004,26.199999999999932) translate(111.9 100.80000000000001)"/><use xlink:href="#aG" transform="matrix(1,0,0,1,1327.000000000004,26.199999999999932) translate(193.8 100.80000000000001)"/><use xlink:href="#F" transform="matrix(1,0,0,1,1327.000000000004,26.199999999999932) translate(0 122.4)"/><use xlink:href="#ab" transform="matrix(1,0,0,1,1327.000000000004,26.199999999999932) translate(16 122.4)"/><use xlink:href="#ag" transform="matrix(1,0,0,1,1327.000000000004,26.199999999999932) translate(63.95 122.4)"/><use xlink:href="#aH" transform="matrix(1,0,0,1,1327.000000000004,26.199999999999932) translate(110.9 122.4)"/><use xlink:href="#M" transform="matrix(1,0,0,1,1327.000000000004,26.199999999999932) translate(0 144)"/><use xlink:href="#w" transform="matrix(1,0,0,1,1327.000000000004,26.199999999999932) translate(0 165.6)"/><use xlink:href="#aI" transform="matrix(1,0,0,1,1327.000000000004,26.199999999999932) translate(37.9 165.6)"/><use xlink:href="#aJ" transform="matrix(1,0,0,1,1327.000000000004,26.199999999999932) translate(104.80000000000001 165.6)"/><use xlink:href="#aK" transform="matrix(1,0,0,1,1327.000000000004,26.199999999999932) translate(0 187.2)"/><use xlink:href="#aL" transform="matrix(1,0,0,1,1327.000000000004,26.199999999999932) translate(118.85000000000001 187.2)"/><use xlink:href="#aM" transform="matrix(1,0,0,1,1327.000000000004,26.199999999999932) translate(175.75 187.2)"/><use xlink:href="#aN" transform="matrix(1,0,0,1,1327.000000000004,26.199999999999932) translate(0 208.79999999999998)"/><use xlink:href="#M" transform="matrix(1,0,0,1,1327.000000000004,26.199999999999932) translate(0 230.39999999999998)"/><use xlink:href="#aO" transform="matrix(1,0,0,1,1327.000000000004,26.199999999999932) translate(0 251.99999999999997)"/><use xlink:href="#af" transform="matrix(1,0,0,1,1327.000000000004,26.199999999999932) translate(87.9 251.99999999999997)"/><use xlink:href="#aP" transform="matrix(1,0,0,1,1327.000000000004,26.199999999999932) translate(117.9 251.99999999999997)"/><use xlink:href="#aQ" transform="matrix(1,0,0,1,1327.000000000004,26.199999999999932) translate(0 273.59999999999997)"/><use xlink:href="#ag" transform="matrix(1,0,0,1,1327.000000000004,26.199999999999932) translate(50 273.59999999999997)"/><use xlink:href="#d" transform="matrix(1,0,0,1,1327.000000000004,26.199999999999932) translate(96.95 273.59999999999997)"/><use xlink:href="#az" transform="matrix(1,0,0,1,1327.000000000004,26.199999999999932) translate(105.9 273.59999999999997)"/><use xlink:href="#aA" transform="matrix(1,0,0,1,1327.000000000004,26.199999999999932) translate(168.8 273.59999999999997)"/><use xlink:href="#aR" transform="matrix(1,0,0,1,1327.000000000004,26.199999999999932) translate(0 295.2)"/><use xlink:href="#F" transform="matrix(1,0,0,1,1327.000000000004,26.199999999999932) translate(45 295.2)"/><use xlink:href="#aS" transform="matrix(1,0,0,1,1327.000000000004,26.199999999999932) translate(61 295.2)"/><use xlink:href="#aT" transform="matrix(1,0,0,1,1327.000000000004,26.199999999999932) translate(78.95 295.2)"/><use xlink:href="#aU" transform="matrix(1,0,0,1,1327.000000000004,26.199999999999932) translate(152.9 295.2)"/><use xlink:href="#aJ" transform="matrix(1,0,0,1,1327.000000000004,26.199999999999932) translate(189.8 295.2)"/><use xlink:href="#aV" transform="matrix(1,0,0,1,1327.000000000004,26.199999999999932) translate(0 316.8)"/><use xlink:href="#az" transform="matrix(1,0,0,1,1327.000000000004,26.199999999999932) translate(93.8 316.8)"/><use xlink:href="#aA" transform="matrix(1,0,0,1,1327.000000000004,26.199999999999932) translate(156.7 316.8)"/><use xlink:href="#ag" transform="matrix(1,0,0,1,1327.000000000004,26.199999999999932) translate(0 338.40000000000003)"/><use xlink:href="#aW" transform="matrix(1,0,0,1,1327.000000000004,26.199999999999932) translate(46.95 338.40000000000003)"/><use xlink:href="#e" transform="matrix(1,0,0,1,1327.000000000004,26.199999999999932) translate(55.900000000000006 338.40000000000003)"/><use xlink:href="#aX" transform="matrix(1,0,0,1,1327.000000000004,26.199999999999932) translate(71.4 338.40000000000003)"/><use xlink:href="#aY" transform="matrix(1,0,0,1,1327.000000000004,26.199999999999932) translate(167.65 338.40000000000003)"/><use xlink:href="#W" transform="matrix(1,0,0,1,1327.000000000004,26.199999999999932) translate(193.15 338.40000000000003)"/><use xlink:href="#aR" transform="matrix(1,0,0,1,1327.000000000004,26.199999999999932) translate(0 360.00000000000006)"/><use xlink:href="#as" transform="matrix(1,0,0,1,1327.000000000004,26.199999999999932) translate(45 360.00000000000006)"/><use xlink:href="#G" transform="matrix(1,0,0,1,1327.000000000004,26.199999999999932) translate(67 360.00000000000006)"/><use xlink:href="#af" transform="matrix(1,0,0,1,1327.000000000004,26.199999999999932) translate(102 360.00000000000006)"/><use xlink:href="#aj" transform="matrix(1,0,0,1,1327.000000000004,26.199999999999932) translate(132 360.00000000000006)"/><use xlink:href="#n" transform="matrix(1,0,0,1,1327.000000000004,26.199999999999932) translate(179.95 360.00000000000006)"/><use xlink:href="#aZ" transform="matrix(1,0,0,1,1327.000000000004,26.199999999999932) translate(0 381.6000000000001)"/><use xlink:href="#ba" transform="matrix(1,0,0,1,1327.000000000004,26.199999999999932) translate(65.9 381.6000000000001)"/><use xlink:href="#aS" transform="matrix(1,0,0,1,1327.000000000004,26.199999999999932) translate(118.9 381.6000000000001)"/><use xlink:href="#bb" transform="matrix(1,0,0,1,1327.000000000004,26.199999999999932) translate(136.85 381.6000000000001)"/><use xlink:href="#bc" transform="matrix(1,0,0,1,1327.000000000004,26.199999999999932) translate(0 403.2000000000001)"/></g><path d="M1362 600h128l32 23.85v55.65h-160z" stroke="#000" stroke-width="2" fill="#ffbbb1"/><g><use xlink:href="#c" transform="matrix(1,0,0,1,1362.000000000004,600) translate(23.055 31.9)"/><use xlink:href="#aW" transform="matrix(1,0,0,1,1362.000000000004,600) translate(72.005 31.9)"/><use xlink:href="#e" transform="matrix(1,0,0,1,1362.000000000004,600) translate(80.955 31.9)"/><use xlink:href="#f" transform="matrix(1,0,0,1,1362.000000000004,600) translate(96.455 31.9)"/><use xlink:href="#g" transform="matrix(1,0,0,1,1362.000000000004,600) translate(111.455 31.9)"/><use xlink:href="#bd" transform="matrix(1,0,0,1,1362.000000000004,600) translate(34.379999999999995 53.5)"/></g><path d="M1442 739.5v-40.76" fill="none"/><path d="M1442 739.5v-3.06m0-4.07v-6.12m0-4.08v-6.1m0-4.1v-6.1m0-4.08v-3.06" stroke="#000" stroke-width="2" fill="none"/><path d="M1443 740.5h-2v-1h2zM1446.64 698h-9.28l4.64-14.26z"/><path d="M1448 699h-12l6-18.5zm-9.26-2h6.52l-3.26-10.03z"/><path d="M454 480h319.76" stroke="#000" stroke-width="2" fill="none"/><path d="M454 481h-1.06l.06-1-.04-1H454zM788.76 480l-14.26 4.64v-9.28z"/><path d="M792 480l-18.5 6v-12zm-16.5 3.26l10.03-3.26-10.03-3.26z"/><path d="M543 521.83h128l32 32v128H543z" stroke="#d9be60" stroke-width="2" fill="#ffdf71"/><path d="M671 521.83v32h32" fill="#d9be60"/><g><use xlink:href="#be" transform="matrix(1,0,0,1,548.0000000000042,526.8333333333334) translate(48.55 57)"/><use xlink:href="#bf" transform="matrix(1,0,0,1,548.0000000000042,526.8333333333334) translate(97.5 57)"/><use xlink:href="#bg" transform="matrix(1,0,0,1,548.0000000000042,526.8333333333334) translate(59.025 78.60000000000001)"/><use xlink:href="#bh" transform="matrix(1,0,0,1,548.0000000000042,526.8333333333334) translate(69.975 78.60000000000001)"/><use xlink:href="#bi" transform="matrix(1,0,0,1,548.0000000000042,526.8333333333334) translate(59.025 100.20000000000002)"/><use xlink:href="#bj" transform="matrix(1,0,0,1,548.0000000000042,526.8333333333334) translate(69.975 100.20000000000002)"/></g><path d="M623 520.83V480" stroke="#000" stroke-width="2" fill="none"/><path d="M624 521.83h-2v-1h2z"/><path d="M221 640h75.5V480h57.26" stroke="#000" stroke-width="2" fill="none"/><path d="M221 641h-1v-2h1zM368.76 480l-14.26 4.64v-9.28z"/><path d="M372 480l-18.5 6v-12zm-16.5 3.26l10.03-3.26-10.03-3.26z"/><path d="M883 680.3h32.1l7.9 7.9v31.6h-40z" stroke="#d9be60" stroke-width="2" fill="#ffdf71"/><path d="M915.1 680.3v7.9h7.9" fill="#d9be60"/><g><use xlink:href="#bk" transform="matrix(1,0,0,1,888.0000000000042,685.3125) translate(3.0250000000000004 18.6)"/><use xlink:href="#bl" transform="matrix(1,0,0,1,888.0000000000042,685.3125) translate(11.975 18.6)"/></g><path d="M893 609.75h32.1l7.9 7.9v31.6h-40z" stroke="#d9be60" stroke-width="2" fill="#ffdf71"/><path d="M925.1 609.75v7.9h7.9" fill="#d9be60"/><g><use xlink:href="#bk" transform="matrix(1,0,0,1,898.0000000000042,614.75) translate(3.0250000000000004 18.6)"/><use xlink:href="#bl" transform="matrix(1,0,0,1,898.0000000000042,614.75) translate(11.975 18.6)"/></g><path d="M943 629.5c0 16.36-13.43 29.63-30 29.63s-30-13.27-30-29.63 13.43-29.63 30-29.63 30 13.27 30 29.63zm-51.22-20.95l42.44 41.9m-42.44 0l42.44-41.9" fill-opacity="0"/><path d="M942.2 635.98l-.8 3.1-.98 2.2m-1.7 3.33l-2.02 3.06-1.33 1.43m-2.63 2.64l-3.4 2.6-1.18.63m-3.3 1.75l-4.7 1.55-.66.1m-3.7.58l-.62.1-2.18.08-2.8-.24m-3.7-.56l-3.43-.88-1.88-.83m-3.37-1.63l-3.5-2.32-1.04-.96m-2.73-2.57l-2.92-3.8-.4-.73m-1.74-3.3l-.15-.3-1.53-4.6-.06-.42m-.58-3.7l-.1-.7-.08-2.1.23-2.8m.58-3.68l.8-3.1.98-2.2m1.7-3.33l2.02-3.06 1.33-1.43m2.63-2.64l3.4-2.6 1.18-.63m3.3-1.75l4.7-1.55.66-.1m3.7-.58l.62-.1 2.18-.08 2.8.24m3.7.56l3.43.88 1.88.83m3.37 1.63l3.5 2.32 1.04.96m2.73 2.57l2.92 3.8.4.73m1.74 3.3l.15.3 1.53 4.6.06.42m.58 3.7l.1.7.08 2.1-.23 2.8m-51-23.75l2.14 2.1m2.83 2.8l4.25 4.18m2.83 2.8l4.25 4.18m2.83 2.8l4.24 4.2m2.83 2.8l4.24 4.18m2.82 2.8l4.25 4.18m2.82 2.8l2.12 2.1m-42.44 0l2.13-2.1m2.83-2.8l4.25-4.2m2.83-2.78l4.25-4.2m2.83-2.78l4.24-4.2m2.83-2.8l4.24-4.18m2.82-2.8l4.25-4.18m2.82-2.8l2.12-2.1" stroke="#c92d39" stroke-width="2" fill="none"/><path d="M1361 638.75l-.02 2-3-.06.04-2zm-6.97-.13l-.03 2-6-.1.05-2zm-9.97-.18l-.03 2-6-.1.05-2zm-9.97-.2l-.05 2-5.98-.1.04-2zm-9.98-.17l-.04 2-5.98-.1.04-2zm-9.97-.2l-.04 2-5.97-.1.04-2zm-9.97-.17l-.04 2-5.98-.1.04-2zm-9.97-.18l-.03 2-5.98-.1.03-2zm-9.96-.2l-.04 2-5.98-.1.04-2zm-9.97-.17l-.04 2-5.98-.1.04-2zm-9.97-.2l-.04 2-5.98-.1.04-2zm-9.97-.17l-.04 2-6-.1.05-2zm-9.97-.18l-.04 2-5.98-.1.04-2zm-9.97-.2l-.05 2-5.98-.1.03-2zm-9.98-.17l-.04 2-5.98-.1.03-2zm-9.97-.2l-.04 2-5.97-.1.03-2zm-115.42-3.1v2l-.27-.02.06-2zm-4.2-.13l-.05 2-5.98-.17.05-2zm-9.96-.28l-.06 2-5.97-.18.06-2zm-9.97-.3l-.06 2-5.98-.16.06-2zm-9.97-.27l-.06 2-5.98-.17.05-2zm-9.97-.3l-.06 2-5.98-.16.06-2zm-9.97-.27l-.06 2-5.98-.17.05-2zm-9.97-.3l-.06 2-5.98-.16.04-2zm-9.97-.27l-.06 2-5.98-.16.06-2zm-9.97-.27l-.07 2-5.98-.17.06-2zm-9.98-.3l-.06 2-5.98-.16.06-2zm-9.97-.27l-.05 2-6-.17.07-2zm-9.97-.3l-.05 2-5.98-.16.05-2zm-9.96-.27l-.06 2-5.98-.18.06-2zm-9.97-.3l-.06 2-3-.08.06-2zM1362 638.77v2l-1.02-.02.03-2zM961.36 634.63l-14.12-5.04 14.4-4.23z"/><path d="M962.32 636.04L944 629.5l18.67-5.48zm-11.85-6.36l9.93 3.55.2-6.52z"/><g><use xlink:href="#bm" transform="matrix(1,0,0,1,1099.0279396174167,603.0442652464008) translate(0 14.4)"/><use xlink:href="#bn" transform="matrix(1,0,0,1,1099.0279396174167,603.0442652464008) translate(44.900000000000006 14.4)"/><use xlink:href="#t" transform="matrix(1,0,0,1,1099.0279396174167,603.0442652464008) translate(0 36)"/><use xlink:href="#u" transform="matrix(1,0,0,1,1099.0279396174167,603.0442652464008) translate(25.95 36)"/><use xlink:href="#bo" transform="matrix(1,0,0,1,1099.0279396174167,603.0442652464008) translate(72.9 36)"/><use xlink:href="#bp" transform="matrix(1,0,0,1,1099.0279396174167,603.0442652464008) translate(0 57.6)"/><use xlink:href="#bq" transform="matrix(1,0,0,1,1099.0279396174167,603.0442652464008) translate(24 57.6)"/></g><path d="M1083 420h240v60h-240z" stroke="#000" stroke-opacity="0" stroke-width="2" fill="#fff" fill-opacity="0"/><g><use xlink:href="#br" transform="matrix(1,0,0,1,1088.000000000004,425) translate(73.59259259259258 30.333333333333336)"/></g><path d="M20 800h160l40 72v168H20z" stroke="#000" stroke-width="2" fill="#c7e8ac"/><g><use xlink:href="#c" transform="matrix(1,0,0,1,20,800) translate(5.01 19.41)"/><use xlink:href="#bs" transform="matrix(1,0,0,1,20,800) translate(53.96 19.41)"/><use xlink:href="#bt" transform="matrix(1,0,0,1,20,800) translate(5.01 41.01)"/><use xlink:href="#bu" transform="matrix(1,0,0,1,20,800) translate(5.01 62.61)"/><use xlink:href="#bv" transform="matrix(1,0,0,1,20,800) translate(15.959999999999999 62.61)"/><use xlink:href="#bw" transform="matrix(1,0,0,1,20,800) translate(36.01 84.21000000000001)"/><use xlink:href="#bx" transform="matrix(1,0,0,1,20,800) translate(46.959999999999994 84.21000000000001)"/><use xlink:href="#by" transform="matrix(1,0,0,1,20,800) translate(117.76 84.21000000000001)"/><use xlink:href="#bw" transform="matrix(1,0,0,1,20,800) translate(36.01 105.81)"/><use xlink:href="#bz" transform="matrix(1,0,0,1,20,800) translate(46.959999999999994 105.81)"/><use xlink:href="#bA" transform="matrix(1,0,0,1,20,800) translate(107.91 105.81)"/><use xlink:href="#bu" transform="matrix(1,0,0,1,20,800) translate(5.01 127.41)"/><use xlink:href="#bB" transform="matrix(1,0,0,1,20,800) translate(15.959999999999999 127.41)"/><use xlink:href="#bC" transform="matrix(1,0,0,1,20,800) translate(36.01 149.01)"/><use xlink:href="#bD" transform="matrix(1,0,0,1,20,800) translate(112.75999999999999 149.01)"/><use xlink:href="#bw" transform="matrix(1,0,0,1,20,800) translate(36.01 170.60999999999999)"/><use xlink:href="#bz" transform="matrix(1,0,0,1,20,800) translate(46.959999999999994 170.60999999999999)"/><use xlink:href="#bE" transform="matrix(1,0,0,1,20,800) translate(107.91 170.60999999999999)"/><use xlink:href="#bF" transform="matrix(1,0,0,1,20,800) translate(5.01 192.20999999999998)"/></g><path d="M1362 740.5h128l32 60v140h-160z" stroke="#000" stroke-width="2" fill="#ffbbb1"/><g><use xlink:href="#c" transform="matrix(1,0,0,1,1362.000000000004,740.5) translate(5.01 58.15)"/><use xlink:href="#bG" transform="matrix(1,0,0,1,1362.000000000004,740.5) translate(53.96 58.15)"/><use xlink:href="#bu" transform="matrix(1,0,0,1,1362.000000000004,740.5) translate(5.01 79.75)"/><use xlink:href="#bH" transform="matrix(1,0,0,1,1362.000000000004,740.5) translate(15.959999999999999 79.75)"/><use xlink:href="#bw" transform="matrix(1,0,0,1,1362.000000000004,740.5) translate(36.01 101.35)"/><use xlink:href="#bI" transform="matrix(1,0,0,1,1362.000000000004,740.5) translate(46.959999999999994 101.35)"/><use xlink:href="#bs" transform="matrix(1,0,0,1,1362.000000000004,740.5) translate(133.86 101.35)"/><use xlink:href="#bw" transform="matrix(1,0,0,1,1362.000000000004,740.5) translate(36.01 122.94999999999999)"/><use xlink:href="#bJ" transform="matrix(1,0,0,1,1362.000000000004,740.5) translate(46.959999999999994 122.94999999999999)"/><use xlink:href="#by" transform="matrix(1,0,0,1,1362.000000000004,740.5) translate(93.96 122.94999999999999)"/><use xlink:href="#bw" transform="matrix(1,0,0,1,1362.000000000004,740.5) translate(36.01 144.54999999999998)"/><use xlink:href="#bK" transform="matrix(1,0,0,1,1362.000000000004,740.5) translate(46.959999999999994 144.54999999999998)"/><use xlink:href="#bL" transform="matrix(1,0,0,1,1362.000000000004,740.5) translate(93.96 144.54999999999998)"/></g><path d="M1362 460h128l32 23.85v55.65h-160z" stroke="#000" stroke-width="2" fill="#ffbbb1"/><g><use xlink:href="#c" transform="matrix(1,0,0,1,1362.000000000004,460) translate(48.055 44.4)"/><use xlink:href="#bM" transform="matrix(1,0,0,1,1362.000000000004,460) translate(97.005 44.4)"/></g><path d="M1442 599v-40.26" fill="none"/><path d="M1442 599v-3.02m0-4.03v-6.04m0-4v-6.05m0-4.03v-6.04m0-4.02v-3.02" stroke="#000" stroke-width="2" fill="none"/><path d="M1443 600h-2v-1h2zM1446.64 558h-9.28l4.64-14.26z"/><path d="M1448 559h-12l6-18.5zm-9.26-2h6.52l-3.26-10.03zM1361 797.67l-.03 2-3.02-.07.04-2zm-7.05-.15l-.04 2-6.05-.12.04-2zm-10.1-.2l-.03 2-6.06-.13.04-2zm-10.7-.22h.6l-.03 2h-.66l-5.42-.34.12-2zm-9.42-.6l-.12 2-6.04-.37.13-2zm-14.35-.88l4.28.26-.13 2-4.3-.27-1.78-.18.2-1.98zm-5.74-.6l-.2 1.98-6.03-.63.22-2zm-15.05-1.58l5 .52-.2 2-5.06-.54-1-.14.3-1.98zm-4.97-.73l-.3 2-5.98-.9.3-1.97zm-13.7-2l3.72.54-.3 1.98-3.76-.56-2.26-.43.37-1.96zm-6.18-1.2l-.38 1.98-5.95-1.14.38-1.96zm-11-2.08l1.08.2-.37 1.97-1.12-.23-4.83-1.13.46-1.95zm-8.72-2.05l-.45 1.95-5.9-1.38.46-1.95zm-9.76-2.4l-.54 1.94-5.83-1.62.54-1.93zm-13.7-3.8l3.98 1.1-.54 1.92-4-1.12-1.84-.6.62-1.9zm-5.63-1.84l-.62 1.9-5.76-1.88.62-1.9zm-10.76-3.5l1.16.37-.62 1.9-1.2-.38-4.53-1.7.7-1.87zm-8.28-3.1l-.7 1.88-5.67-2.1.7-1.87zm-10.24-3.8l.78.3-.7 1.86-.82-.32-4.8-2.04.78-1.84zm-8.48-3.6l-.78 1.84-5.58-2.37.78-1.84zm-9.3-3.95l-.78 1.85-5.57-2.37.78-1.84zm-11.5-4.88l2.2.94-.77 1.84-2.22-.94-3.34-1.46.8-1.83zm-7.04-3.07l-.8 1.84-5.55-2.42.8-1.84zm-9.25-4.03l-.8 1.83-5.56-2.42.8-1.82zm-9.26-4.04l-.8 1.84-5.56-2.43.8-1.83zm-136.6-40.3v2l-4.8-.5.22-2zm-8.6-.9l-.2 1.98-6.03-.63.22-1.98zm-10.08-1.05l-.13 2-6.04-.38.1-2zm-10.08-.62l-.12 2-6.05-.38.14-2zm-13.54-.85l3.47.22-.12 2-3.42-.22-2.58-.05.04-2zm-6.66-.13l-.04 2-3.03-.07.05-2zM1362 797.7v2l-1.03-.03.04-2zM941.4 705.05l-14.16-4.92 14.35-4.35z"/><path d="M942.38 706.45l-18.38-6.4 18.62-5.62zm-11.9-6.26l9.95 3.46.13-6.52z"/><g><use xlink:href="#bN" transform="matrix(1,0,0,1,994.2344102967309,684.3895445064321) translate(0 14.4)"/><use xlink:href="#bO" transform="matrix(1,0,0,1,994.2344102967309,684.3895445064321) translate(47.95 14.4)"/><use xlink:href="#bP" transform="matrix(1,0,0,1,994.2344102967309,684.3895445064321) translate(0 36)"/><use xlink:href="#bQ" transform="matrix(1,0,0,1,994.2344102967309,684.3895445064321) translate(47.95 36)"/><use xlink:href="#bR" transform="matrix(1,0,0,1,994.2344102967309,684.3895445064321) translate(0 57.6)"/><use xlink:href="#am" transform="matrix(1,0,0,1,994.2344102967309,684.3895445064321) translate(53 57.6)"/><use xlink:href="#F" transform="matrix(1,0,0,1,994.2344102967309,684.3895445064321) translate(71.95 57.6)"/><use xlink:href="#bS" transform="matrix(1,0,0,1,994.2344102967309,684.3895445064321) translate(87.95 57.6)"/></g><defs><path d="M212-179c-10-28-35-45-73-45-59 0-87 40-87 99 0 60 29 101 89 101 43 0 62-24 78-52l27 14C228-24 195 4 139 4 59 4 22-46 18-125c-6-104 99-153 187-111 19 9 31 26 39 46" id="bT"/><path d="M106-169C34-169 62-67 57 0H25v-261h32l-1 103c12-21 28-36 61-36 89 0 53 116 60 194h-32v-121c2-32-8-49-39-48" id="bU"/><path d="M141-36C126-15 110 5 73 4 37 3 15-17 15-53c-1-64 63-63 125-63 3-35-9-54-41-54-24 1-41 7-42 31l-33-3c5-37 33-52 76-52 45 0 72 20 72 64v82c-1 20 7 32 28 27v20c-31 9-61-2-59-35zM48-53c0 20 12 33 32 33 41-3 63-29 60-74-43 2-92-5-92 41" id="bV"/><path d="M24-231v-30h32v30H24zM24 0v-190h32V0H24" id="bW"/><path d="M117-194c89-4 53 116 60 194h-32v-121c0-31-8-49-39-48C34-167 62-67 57 0H25l-1-190h30c1 10-1 24 2 32 11-22 29-35 61-36" id="bX"/><g id="a"><use transform="matrix(0.05,0,0,0.05,0,0)" xlink:href="#bT"/><use transform="matrix(0.05,0,0,0.05,12.950000000000001,0)" xlink:href="#bU"/><use transform="matrix(0.05,0,0,0.05,22.950000000000003,0)" xlink:href="#bV"/><use transform="matrix(0.05,0,0,0.05,32.95,0)" xlink:href="#bW"/><use transform="matrix(0.05,0,0,0.05,36.900000000000006,0)" xlink:href="#bX"/></g><path d="M205 0l-28-72H64L36 0H1l101-248h38L239 0h-34zm-38-99l-47-123c-12 45-31 82-46 123h93" id="bY"/><use transform="matrix(0.05,0,0,0.05,0,0)" xlink:href="#bY" id="b"/><path d="M160-131c35 5 61 23 61 61C221 17 115-2 30 0v-248c76 3 177-17 177 60 0 33-19 50-47 57zm-97-11c50-1 110 9 110-42 0-47-63-36-110-37v79zm0 115c55-2 124 14 124-45 0-56-70-42-124-44v89" id="bZ"/><path d="M24 0v-261h32V0H24" id="ca"/><path d="M100-194c62-1 85 37 85 99 1 63-27 99-86 99S16-35 15-95c0-66 28-99 85-99zM99-20c44 1 53-31 53-75 0-43-8-75-51-75s-53 32-53 75 10 74 51 75" id="cb"/><path d="M96-169c-40 0-48 33-48 73s9 75 48 75c24 0 41-14 43-38l32 2c-6 37-31 61-74 61-59 0-76-41-82-99-10-93 101-131 147-64 4 7 5 14 7 22l-32 3c-4-21-16-35-41-35" id="cc"/><path d="M143 0L79-87 56-68V0H24v-261h32v163l83-92h37l-77 82L181 0h-38" id="cd"/><g id="c"><use transform="matrix(0.05,0,0,0.05,0,0)" xlink:href="#bZ"/><use transform="matrix(0.05,0,0,0.05,12,0)" xlink:href="#ca"/><use transform="matrix(0.05,0,0,0.05,15.949999999999998,0)" xlink:href="#cb"/><use transform="matrix(0.05,0,0,0.05,25.950000000000003,0)" xlink:href="#cc"/><use transform="matrix(0.05,0,0,0.05,34.95,0)" xlink:href="#cd"/></g><use transform="matrix(0.05,0,0,0.05,0,0)" xlink:href="#bW" id="d"/><path d="M118-107v75H92v-75H18v-26h74v-75h26v75h74v26h-74" id="ce"/><use transform="matrix(0.05,0,0,0.05,0,0)" xlink:href="#ce" id="e"/><path d="M27 0v-27h64v-190l-56 39v-29l58-41h29v221h61V0H27" id="cf"/><use transform="matrix(0.05,0,0,0.05,0,0)" xlink:href="#cf" id="f"/><use transform="matrix(0.05,0,0,0.05,0,0)" xlink:href="#ce" id="g"/><path d="M210-169c-67 3-38 105-44 169h-31v-121c0-29-5-50-35-48C34-165 62-65 56 0H25l-1-190h30c1 10-1 24 2 32 10-44 99-50 107 0 11-21 27-35 58-36 85-2 47 119 55 194h-31v-121c0-29-5-49-35-48" id="cg"/><path d="M141 0L90-78 38 0H4l68-98-65-92h35l48 74 47-74h35l-64 92 68 98h-35" id="ch"/><path d="M233-177c-1 41-23 64-60 70L243 0h-38l-65-103H63V0H30v-248c88 3 205-21 203 71zM63-129c60-2 137 13 137-47 0-61-80-42-137-45v92" id="ci"/><path d="M100-194c63 0 86 42 84 106H49c0 40 14 67 53 68 26 1 43-12 49-29l28 8c-11 28-37 45-77 45C44 4 14-33 15-96c1-61 26-98 85-98zm52 81c6-60-76-77-97-28-3 7-6 17-6 28h103" id="cj"/><path d="M114-163C36-179 61-72 57 0H25l-1-190h30c1 12-1 29 2 39 6-27 23-49 58-41v29" id="ck"/><path d="M177-190C167-65 218 103 67 71c-23-6-38-20-44-43l32-5c15 47 100 32 89-28v-30C133-14 115 1 83 1 29 1 15-40 15-95c0-56 16-97 71-98 29-1 48 16 59 35 1-10 0-23 2-32h30zM94-22c36 0 50-32 50-73 0-42-14-75-50-75-39 0-46 34-46 75s6 73 46 73" id="cl"/><g id="h"><use transform="matrix(0.05,0,0,0.05,0,0)" xlink:href="#cg"/><use transform="matrix(0.05,0,0,0.05,14.950000000000001,0)" xlink:href="#bV"/><use transform="matrix(0.05,0,0,0.05,24.950000000000003,0)" xlink:href="#ch"/><use transform="matrix(0.05,0,0,0.05,33.95,0)" xlink:href="#ci"/><use transform="matrix(0.05,0,0,0.05,46.900000000000006,0)" xlink:href="#cj"/><use transform="matrix(0.05,0,0,0.05,56.900000000000006,0)" xlink:href="#cb"/><use transform="matrix(0.05,0,0,0.05,66.9,0)" xlink:href="#ck"/><use transform="matrix(0.05,0,0,0.05,72.85000000000001,0)" xlink:href="#cl"/><use transform="matrix(0.034999999999999996,0,0,0.034999999999999996,82.85000000000001,2.5199999999999996)" xlink:href="#bY"/></g><use transform="matrix(0.05,0,0,0.05,0,0)" xlink:href="#ca" id="i"/><use transform="matrix(0.05,0,0,0.05,0,0)" xlink:href="#bY" id="j"/><path d="M85-194c31 0 48 13 60 33l-1-100h32l1 261h-30c-2-10 0-23-3-31C134-8 116 4 85 4 32 4 16-35 15-94c0-66 23-100 70-100zm9 24c-40 0-46 34-46 75 0 40 6 74 45 74 42 0 51-32 51-76 0-42-9-74-50-73" id="cm"/><g id="k"><use transform="matrix(0.05,0,0,0.05,0,0)" xlink:href="#bX"/><use transform="matrix(0.05,0,0,0.05,10,0)" xlink:href="#cb"/><use transform="matrix(0.05,0,0,0.05,20,0)" xlink:href="#cm"/><use transform="matrix(0.05,0,0,0.05,30,0)" xlink:href="#cj"/></g><use transform="matrix(0.05,0,0,0.05,0,0)" xlink:href="#bZ" id="l"/><path d="M135-143c-3-34-86-38-87 0 15 53 115 12 119 90S17 21 10-45l28-5c4 36 97 45 98 0-10-56-113-15-118-90-4-57 82-63 122-42 12 7 21 19 24 35" id="cn"/><g id="m"><use transform="matrix(0.05,0,0,0.05,0,0)" xlink:href="#bT"/><use transform="matrix(0.05,0,0,0.05,12.950000000000001,0)" xlink:href="#ck"/><use transform="matrix(0.05,0,0,0.05,18.900000000000002,0)" xlink:href="#cb"/><use transform="matrix(0.05,0,0,0.05,28.900000000000002,0)" xlink:href="#cn"/><use transform="matrix(0.05,0,0,0.05,37.900000000000006,0)" xlink:href="#cn"/></g><g id="n"><use transform="matrix(0.05,0,0,0.05,0,0)" xlink:href="#cc"/><use transform="matrix(0.05,0,0,0.05,9,0)" xlink:href="#bU"/><use transform="matrix(0.05,0,0,0.05,19,0)" xlink:href="#bV"/><use transform="matrix(0.05,0,0,0.05,29,0)" xlink:href="#bW"/><use transform="matrix(0.05,0,0,0.05,32.95,0)" xlink:href="#bX"/></g><g id="o"><use transform="matrix(0.05,0,0,0.05,0,0)" xlink:href="#cn"/><use transform="matrix(0.05,0,0,0.05,9,0)" xlink:href="#cj"/><use transform="matrix(0.05,0,0,0.05,19,0)" xlink:href="#cn"/><use transform="matrix(0.05,0,0,0.05,28,0)" xlink:href="#cn"/><use transform="matrix(0.05,0,0,0.05,37,0)" xlink:href="#bW"/><use transform="matrix(0.05,0,0,0.05,40.95,0)" xlink:href="#cb"/><use transform="matrix(0.05,0,0,0.05,50.95,0)" xlink:href="#bX"/></g><path d="M115-194c55 1 70 41 70 98S169 2 115 4C84 4 66-9 55-30l1 105H24l-1-265h31l2 30c10-21 28-34 59-34zm-8 174c40 0 45-34 45-75s-6-73-45-74c-42 0-51 32-51 76 0 43 10 73 51 73" id="co"/><path d="M59-47c-2 24 18 29 38 22v24C64 9 27 4 27-40v-127H5v-23h24l9-43h21v43h35v23H59v120" id="cp"/><g id="p"><use transform="matrix(0.05,0,0,0.05,0,0)" xlink:href="#co"/><use transform="matrix(0.05,0,0,0.05,10,0)" xlink:href="#cj"/><use transform="matrix(0.05,0,0,0.05,20,0)" xlink:href="#ck"/><use transform="matrix(0.05,0,0,0.05,25.950000000000003,0)" xlink:href="#cn"/><use transform="matrix(0.05,0,0,0.05,34.95,0)" xlink:href="#bW"/><use transform="matrix(0.05,0,0,0.05,38.900000000000006,0)" xlink:href="#cn"/><use transform="matrix(0.05,0,0,0.05,47.900000000000006,0)" xlink:href="#cp"/><use transform="matrix(0.05,0,0,0.05,52.900000000000006,0)" xlink:href="#cj"/><use transform="matrix(0.05,0,0,0.05,62.900000000000006,0)" xlink:href="#bX"/><use transform="matrix(0.05,0,0,0.05,72.9,0)" xlink:href="#cc"/><use transform="matrix(0.05,0,0,0.05,81.9,0)" xlink:href="#cj"/></g><use transform="matrix(0.05,0,0,0.05,0,0)" xlink:href="#bZ" id="q"/><g id="r"><use transform="matrix(0.05,0,0,0.05,0,0)" xlink:href="#cn"/><use transform="matrix(0.05,0,0,0.05,9,0)" xlink:href="#cp"/><use transform="matrix(0.05,0,0,0.05,14,0)" xlink:href="#cb"/><use transform="matrix(0.05,0,0,0.05,24,0)" xlink:href="#ck"/><use transform="matrix(0.05,0,0,0.05,29.950000000000003,0)" xlink:href="#cj"/></g><path d="M101-234c-31-9-42 10-38 44h38v23H63V0H32v-167H5v-23h27c-7-52 17-82 69-68v24" id="cq"/><g id="s"><use transform="matrix(0.05,0,0,0.05,0,0)" xlink:href="#bW"/><use transform="matrix(0.05,0,0,0.05,3.95,0)" xlink:href="#bX"/><use transform="matrix(0.05,0,0,0.05,13.949999999999998,0)" xlink:href="#cq"/><use transform="matrix(0.05,0,0,0.05,18.95,0)" xlink:href="#cb"/></g><g id="t"><use transform="matrix(0.05,0,0,0.05,0,0)" xlink:href="#cq"/><use transform="matrix(0.05,0,0,0.05,5,0)" xlink:href="#cb"/><use transform="matrix(0.05,0,0,0.05,15,0)" xlink:href="#ck"/></g><path d="M115-194c53 0 69 39 70 98 0 66-23 100-70 100C84 3 66-7 56-30L54 0H23l1-261h32v101c10-23 28-34 59-34zm-8 174c40 0 45-34 45-75 0-40-5-75-45-74-42 0-51 32-51 76 0 43 10 73 51 73" id="cr"/><g id="u"><use transform="matrix(0.05,0,0,0.05,0,0)" xlink:href="#cr"/><use transform="matrix(0.05,0,0,0.05,10,0)" xlink:href="#ca"/><use transform="matrix(0.05,0,0,0.05,13.949999999999998,0)" xlink:href="#cb"/><use transform="matrix(0.05,0,0,0.05,23.95,0)" xlink:href="#cc"/><use transform="matrix(0.05,0,0,0.05,32.95,0)" xlink:href="#cd"/></g><use transform="matrix(0.05,0,0,0.05,0,0)" xlink:href="#bW" id="v"/><path d="M63-220v92h138v28H63V0H30v-248h175v28H63" id="cs"/><path d="M240 0l2-218c-23 76-54 145-80 218h-23L58-218 59 0H30v-248h44l77 211c21-75 51-140 76-211h43V0h-30" id="ct"/><path d="M101-251c82-7 93 87 43 132L82-64C71-53 59-42 53-27h129V0H18c2-99 128-94 128-182 0-28-16-43-45-43s-46 15-49 41l-32-3c6-41 34-60 81-64" id="cu"/><g id="w"><use transform="matrix(0.05,0,0,0.05,0,0)" xlink:href="#cs"/><use transform="matrix(0.05,0,0,0.05,10.950000000000001,0)" xlink:href="#ct"/><use transform="matrix(0.034999999999999996,0,0,0.034999999999999996,25.900000000000002,2.5199999999999996)" xlink:href="#cu"/></g><g id="x"><use transform="matrix(0.05,0,0,0.05,0,0)" xlink:href="#cc"/><use transform="matrix(0.05,0,0,0.05,9,0)" xlink:href="#cb"/><use transform="matrix(0.05,0,0,0.05,19,0)" xlink:href="#cg"/><use transform="matrix(0.05,0,0,0.05,33.95,0)" xlink:href="#cj"/><use transform="matrix(0.05,0,0,0.05,43.95,0)" xlink:href="#cn"/></g><g id="y"><use transform="matrix(0.05,0,0,0.05,0,0)" xlink:href="#cr"/><use transform="matrix(0.05,0,0,0.05,10,0)" xlink:href="#bV"/><use transform="matrix(0.05,0,0,0.05,20,0)" xlink:href="#cc"/><use transform="matrix(0.05,0,0,0.05,29,0)" xlink:href="#cd"/></g><g id="z"><use transform="matrix(0.05,0,0,0.05,0,0)" xlink:href="#cb"/><use transform="matrix(0.05,0,0,0.05,10,0)" xlink:href="#bX"/><use transform="matrix(0.05,0,0,0.05,20,0)" xlink:href="#ca"/><use transform="matrix(0.05,0,0,0.05,23.95,0)" xlink:href="#bW"/><use transform="matrix(0.05,0,0,0.05,27.899999999999995,0)" xlink:href="#bX"/><use transform="matrix(0.05,0,0,0.05,37.9,0)" xlink:href="#cj"/></g><g id="A"><use transform="matrix(0.05,0,0,0.05,0,0)" xlink:href="#bV"/><use transform="matrix(0.05,0,0,0.05,10,0)" xlink:href="#bX"/><use transform="matrix(0.05,0,0,0.05,20,0)" xlink:href="#cm"/></g><g id="B"><use transform="matrix(0.05,0,0,0.05,0,0)" xlink:href="#bX"/><use transform="matrix(0.05,0,0,0.05,10,0)" xlink:href="#cj"/><use transform="matrix(0.05,0,0,0.05,20,0)" xlink:href="#cj"/><use transform="matrix(0.05,0,0,0.05,30,0)" xlink:href="#cm"/><use transform="matrix(0.05,0,0,0.05,40,0)" xlink:href="#cn"/></g><g id="C"><use transform="matrix(0.05,0,0,0.05,0,0)" xlink:href="#cp"/><use transform="matrix(0.05,0,0,0.05,5,0)" xlink:href="#cb"/></g><path d="M179-190L93 31C79 59 56 82 12 73V49c39 6 53-20 64-50L1-190h34L92-34l54-156h33" id="cv"/><g id="D"><use transform="matrix(0.05,0,0,0.05,0,0)" xlink:href="#cn"/><use transform="matrix(0.05,0,0,0.05,9,0)" xlink:href="#cv"/><use transform="matrix(0.05,0,0,0.05,18,0)" xlink:href="#bX"/><use transform="matrix(0.05,0,0,0.05,28,0)" xlink:href="#cc"/></g><g id="E"><use transform="matrix(0.05,0,0,0.05,0,0)" xlink:href="#bW"/><use transform="matrix(0.05,0,0,0.05,3.95,0)" xlink:href="#cp"/><use transform="matrix(0.05,0,0,0.05,8.95,0)" xlink:href="#cn"/></g><use transform="matrix(0.05,0,0,0.05,0,0)" xlink:href="#bY" id="F"/><g id="G"><use transform="matrix(0.05,0,0,0.05,0,0)" xlink:href="#bV"/><use transform="matrix(0.05,0,0,0.05,10,0)" xlink:href="#bX"/><use transform="matrix(0.05,0,0,0.05,20,0)" xlink:href="#cm"/></g><g id="H"><use transform="matrix(0.05,0,0,0.05,0,0)" xlink:href="#bX"/><use transform="matrix(0.05,0,0,0.05,10,0)" xlink:href="#cb"/><use transform="matrix(0.05,0,0,0.05,20,0)" xlink:href="#cm"/><use transform="matrix(0.05,0,0,0.05,30,0)" xlink:href="#cj"/><use transform="matrix(0.05,0,0,0.05,40,0)" xlink:href="#cn"/></g><path d="M84 4C-5 8 30-112 23-190h32v120c0 31 7 50 39 49 72-2 45-101 50-169h31l1 190h-30c-1-10 1-25-2-33-11 22-28 36-60 37" id="cw"/><g id="I"><use transform="matrix(0.05,0,0,0.05,0,0)" xlink:href="#cw"/><use transform="matrix(0.05,0,0,0.05,10,0)" xlink:href="#co"/></g><use transform="matrix(0.05,0,0,0.05,0,0)" xlink:href="#ca" id="J"/><use transform="matrix(0.05,0,0,0.05,0,0)" xlink:href="#cg" id="K"/><path d="M108 0H70L1-190h34L89-25l56-165h34" id="cx"/><path d="M33 0v-38h34V0H33" id="cy"/><g id="L"><use transform="matrix(0.05,0,0,0.05,0,0)" xlink:href="#ck"/><use transform="matrix(0.05,0,0,0.05,5.95,0)" xlink:href="#cj"/><use transform="matrix(0.05,0,0,0.05,15.949999999999998,0)" xlink:href="#cn"/><use transform="matrix(0.05,0,0,0.05,24.95,0)" xlink:href="#co"/><use transform="matrix(0.05,0,0,0.05,34.95,0)" xlink:href="#cj"/><use transform="matrix(0.05,0,0,0.05,44.95,0)" xlink:href="#cc"/><use transform="matrix(0.05,0,0,0.05,53.95,0)" xlink:href="#cp"/><use transform="matrix(0.05,0,0,0.05,58.95,0)" xlink:href="#bW"/><use transform="matrix(0.05,0,0,0.05,62.900000000000006,0)" xlink:href="#cx"/><use transform="matrix(0.05,0,0,0.05,71.9,0)" xlink:href="#cj"/><use transform="matrix(0.05,0,0,0.05,81.9,0)" xlink:href="#ca"/><use transform="matrix(0.05,0,0,0.05,85.85000000000001,0)" xlink:href="#cv"/><use transform="matrix(0.05,0,0,0.05,93.50000000000001,0)" xlink:href="#cy"/></g><g id="N"><use transform="matrix(0.05,0,0,0.05,0,0)" xlink:href="#cc"/><use transform="matrix(0.05,0,0,0.05,9,0)" xlink:href="#bV"/><use transform="matrix(0.05,0,0,0.05,19,0)" xlink:href="#bX"/><use transform="matrix(0.05,0,0,0.05,29,0)" xlink:href="#bX"/><use transform="matrix(0.05,0,0,0.05,39,0)" xlink:href="#cb"/><use transform="matrix(0.05,0,0,0.05,49,0)" xlink:href="#cp"/></g><g id="O"><use transform="matrix(0.05,0,0,0.05,0,0)" xlink:href="#cr"/><use transform="matrix(0.05,0,0,0.05,10,0)" xlink:href="#cj"/></g><use transform="matrix(0.05,0,0,0.05,0,0)" xlink:href="#bV" id="P"/><g id="Q"><use transform="matrix(0.05,0,0,0.05,0,0)" xlink:href="#ca"/><use transform="matrix(0.05,0,0,0.05,3.95,0)" xlink:href="#cj"/><use transform="matrix(0.05,0,0,0.05,13.949999999999998,0)" xlink:href="#bV"/><use transform="matrix(0.05,0,0,0.05,23.95,0)" xlink:href="#cm"/><use transform="matrix(0.05,0,0,0.05,33.95,0)" xlink:href="#cj"/><use transform="matrix(0.05,0,0,0.05,43.95,0)" xlink:href="#ck"/></g><g id="R"><use transform="matrix(0.05,0,0,0.05,0,0)" xlink:href="#cw"/><use transform="matrix(0.05,0,0,0.05,10,0)" xlink:href="#bX"/><use transform="matrix(0.05,0,0,0.05,20,0)" xlink:href="#cp"/><use transform="matrix(0.05,0,0,0.05,25,0)" xlink:href="#bW"/><use transform="matrix(0.05,0,0,0.05,28.950000000000003,0)" xlink:href="#ca"/></g><g id="S"><use transform="matrix(0.05,0,0,0.05,0,0)" xlink:href="#bW"/><use transform="matrix(0.05,0,0,0.05,3.95,0)" xlink:href="#cp"/></g><g id="T"><use transform="matrix(0.05,0,0,0.05,0,0)" xlink:href="#bU"/><use transform="matrix(0.05,0,0,0.05,10,0)" xlink:href="#bV"/><use transform="matrix(0.05,0,0,0.05,20,0)" xlink:href="#cn"/></g><g id="U"><use transform="matrix(0.05,0,0,0.05,0,0)" xlink:href="#cq"/><use transform="matrix(0.05,0,0,0.05,5,0)" xlink:href="#bW"/><use transform="matrix(0.05,0,0,0.05,8.95,0)" xlink:href="#bX"/><use transform="matrix(0.05,0,0,0.05,18.95,0)" xlink:href="#bW"/><use transform="matrix(0.05,0,0,0.05,22.9,0)" xlink:href="#cn"/><use transform="matrix(0.05,0,0,0.05,31.899999999999995,0)" xlink:href="#bU"/><use transform="matrix(0.05,0,0,0.05,41.9,0)" xlink:href="#cj"/><use transform="matrix(0.05,0,0,0.05,51.900000000000006,0)" xlink:href="#cm"/></g><g id="V"><use transform="matrix(0.05,0,0,0.05,0,0)" xlink:href="#cn"/><use transform="matrix(0.05,0,0,0.05,9,0)" xlink:href="#cv"/><use transform="matrix(0.05,0,0,0.05,18,0)" xlink:href="#bX"/><use transform="matrix(0.05,0,0,0.05,28,0)" xlink:href="#cc"/><use transform="matrix(0.05,0,0,0.05,37,0)" xlink:href="#bU"/><use transform="matrix(0.05,0,0,0.05,47,0)" xlink:href="#bW"/><use transform="matrix(0.05,0,0,0.05,50.95,0)" xlink:href="#bX"/><use transform="matrix(0.05,0,0,0.05,60.95,0)" xlink:href="#cl"/></g><g id="W"><use transform="matrix(0.05,0,0,0.05,0,0)" xlink:href="#cb"/><use transform="matrix(0.05,0,0,0.05,10,0)" xlink:href="#bX"/></g><g id="X"><use transform="matrix(0.05,0,0,0.05,0,0)" xlink:href="#cr"/><use transform="matrix(0.05,0,0,0.05,10,0)" xlink:href="#cb"/><use transform="matrix(0.05,0,0,0.05,20,0)" xlink:href="#cp"/><use transform="matrix(0.05,0,0,0.05,25,0)" xlink:href="#bU"/></g><g id="Y"><use transform="matrix(0.05,0,0,0.05,0,0)" xlink:href="#cc"/><use transform="matrix(0.05,0,0,0.05,9,0)" xlink:href="#bU"/><use transform="matrix(0.05,0,0,0.05,19,0)" xlink:href="#bV"/><use transform="matrix(0.05,0,0,0.05,29,0)" xlink:href="#bW"/><use transform="matrix(0.05,0,0,0.05,32.95,0)" xlink:href="#bX"/><use transform="matrix(0.05,0,0,0.05,42.95,0)" xlink:href="#cn"/><use transform="matrix(0.05,0,0,0.05,51.95,0)" xlink:href="#cy"/></g><path d="M266 0h-40l-56-210L115 0H75L2-248h35L96-30l15-64 43-154h32l59 218 59-218h35" id="cz"/><g id="Z"><use transform="matrix(0.05,0,0,0.05,0,0)" xlink:href="#cz"/><use transform="matrix(0.05,0,0,0.05,16.95,0)" xlink:href="#bU"/><use transform="matrix(0.05,0,0,0.05,26.950000000000003,0)" xlink:href="#bW"/><use transform="matrix(0.05,0,0,0.05,30.899999999999995,0)" xlink:href="#ca"/><use transform="matrix(0.05,0,0,0.05,34.85,0)" xlink:href="#cj"/></g><g id="aa"><use transform="matrix(0.05,0,0,0.05,0,0)" xlink:href="#cn"/><use transform="matrix(0.05,0,0,0.05,9,0)" xlink:href="#cv"/><use transform="matrix(0.05,0,0,0.05,18,0)" xlink:href="#bX"/><use transform="matrix(0.05,0,0,0.05,28,0)" xlink:href="#cc"/><use transform="matrix(0.05,0,0,0.05,37,0)" xlink:href="#bW"/><use transform="matrix(0.05,0,0,0.05,40.95,0)" xlink:href="#bX"/><use transform="matrix(0.05,0,0,0.05,50.95,0)" xlink:href="#cl"/></g><g id="ab"><use transform="matrix(0.05,0,0,0.05,0,0)" xlink:href="#cc"/><use transform="matrix(0.05,0,0,0.05,9,0)" xlink:href="#bU"/><use transform="matrix(0.05,0,0,0.05,19,0)" xlink:href="#bV"/><use transform="matrix(0.05,0,0,0.05,29,0)" xlink:href="#bW"/><use transform="matrix(0.05,0,0,0.05,32.95,0)" xlink:href="#bX"/></g><path d="M68-38c1 34 0 65-14 84H32c9-13 17-26 17-46H33v-38h35" id="cA"/><g id="ac"><use transform="matrix(0.05,0,0,0.05,0,0)" xlink:href="#bY"/><use transform="matrix(0.05,0,0,0.05,12,0)" xlink:href="#cA"/></g><g id="ad"><use transform="matrix(0.05,0,0,0.05,0,0)" xlink:href="#cs"/><use transform="matrix(0.05,0,0,0.05,10.950000000000001,0)" xlink:href="#ct"/><use transform="matrix(0.034999999999999996,0,0,0.034999999999999996,25.900000000000002,2.5199999999999996)" xlink:href="#cu"/></g><g id="ae"><use transform="matrix(0.05,0,0,0.05,0,0)" xlink:href="#bX"/><use transform="matrix(0.05,0,0,0.05,10,0)" xlink:href="#cb"/><use transform="matrix(0.05,0,0,0.05,20,0)" xlink:href="#cp"/><use transform="matrix(0.05,0,0,0.05,25,0)" xlink:href="#bW"/><use transform="matrix(0.05,0,0,0.05,28.950000000000003,0)" xlink:href="#cc"/><use transform="matrix(0.05,0,0,0.05,37.95,0)" xlink:href="#cj"/><use transform="matrix(0.05,0,0,0.05,47.95,0)" xlink:href="#cn"/></g><g id="af"><use transform="matrix(0.05,0,0,0.05,0,0)" xlink:href="#cp"/><use transform="matrix(0.05,0,0,0.05,5,0)" xlink:href="#bU"/><use transform="matrix(0.05,0,0,0.05,15,0)" xlink:href="#cj"/></g><g id="ag"><use transform="matrix(0.05,0,0,0.05,0,0)" xlink:href="#cr"/><use transform="matrix(0.05,0,0,0.05,10,0)" xlink:href="#ca"/><use transform="matrix(0.05,0,0,0.05,13.949999999999998,0)" xlink:href="#cb"/><use transform="matrix(0.05,0,0,0.05,23.95,0)" xlink:href="#cc"/><use transform="matrix(0.05,0,0,0.05,32.95,0)" xlink:href="#cd"/></g><g id="ah"><use transform="matrix(0.05,0,0,0.05,0,0)" xlink:href="#cn"/><use transform="matrix(0.05,0,0,0.05,9,0)" xlink:href="#bU"/><use transform="matrix(0.05,0,0,0.05,19,0)" xlink:href="#cb"/><use transform="matrix(0.05,0,0,0.05,29,0)" xlink:href="#cw"/><use transform="matrix(0.05,0,0,0.05,39,0)" xlink:href="#ca"/><use transform="matrix(0.05,0,0,0.05,42.95,0)" xlink:href="#cm"/></g><g id="ai"><use transform="matrix(0.05,0,0,0.05,0,0)" xlink:href="#cp"/><use transform="matrix(0.05,0,0,0.05,5,0)" xlink:href="#ck"/><use transform="matrix(0.05,0,0,0.05,10.95,0)" xlink:href="#bW"/><use transform="matrix(0.05,0,0,0.05,14.899999999999999,0)" xlink:href="#cl"/><use transform="matrix(0.05,0,0,0.05,24.9,0)" xlink:href="#cl"/><use transform="matrix(0.05,0,0,0.05,34.9,0)" xlink:href="#cj"/><use transform="matrix(0.05,0,0,0.05,44.9,0)" xlink:href="#ck"/></g><g id="aj"><use transform="matrix(0.05,0,0,0.05,0,0)" xlink:href="#cc"/><use transform="matrix(0.05,0,0,0.05,9,0)" xlink:href="#ck"/><use transform="matrix(0.05,0,0,0.05,14.949999999999998,0)" xlink:href="#cb"/><use transform="matrix(0.05,0,0,0.05,24.95,0)" xlink:href="#cn"/><use transform="matrix(0.05,0,0,0.05,33.95,0)" xlink:href="#cn"/></g><g id="ak"><use transform="matrix(0.05,0,0,0.05,0,0)" xlink:href="#cp"/><use transform="matrix(0.05,0,0,0.05,5,0)" xlink:href="#ck"/><use transform="matrix(0.05,0,0,0.05,10.95,0)" xlink:href="#bV"/><use transform="matrix(0.05,0,0,0.05,20.95,0)" xlink:href="#bX"/><use transform="matrix(0.05,0,0,0.05,30.950000000000003,0)" xlink:href="#cn"/><use transform="matrix(0.05,0,0,0.05,39.95,0)" xlink:href="#cq"/><use transform="matrix(0.05,0,0,0.05,44.95,0)" xlink:href="#cj"/><use transform="matrix(0.05,0,0,0.05,54.95,0)" xlink:href="#ck"/><use transform="matrix(0.05,0,0,0.05,59.900000000000006,0)" xlink:href="#cA"/></g><g id="al"><use transform="matrix(0.05,0,0,0.05,0,0)" xlink:href="#cn"/><use transform="matrix(0.05,0,0,0.05,9,0)" xlink:href="#cp"/><use transform="matrix(0.05,0,0,0.05,14,0)" xlink:href="#cb"/><use transform="matrix(0.05,0,0,0.05,24,0)" xlink:href="#ck"/><use transform="matrix(0.05,0,0,0.05,29.950000000000003,0)" xlink:href="#cj"/><use transform="matrix(0.05,0,0,0.05,39.95,0)" xlink:href="#cn"/></g><g id="am"><use transform="matrix(0.05,0,0,0.05,0,0)" xlink:href="#bW"/><use transform="matrix(0.05,0,0,0.05,3.95,0)" xlink:href="#bX"/></g><g id="an"><use transform="matrix(0.05,0,0,0.05,0,0)" xlink:href="#bW"/><use transform="matrix(0.05,0,0,0.05,3.95,0)" xlink:href="#cp"/><use transform="matrix(0.05,0,0,0.05,8.95,0)" xlink:href="#cn"/></g><g id="ao"><use transform="matrix(0.05,0,0,0.05,0,0)" xlink:href="#cm"/><use transform="matrix(0.05,0,0,0.05,10,0)" xlink:href="#bV"/><use transform="matrix(0.05,0,0,0.05,20,0)" xlink:href="#cp"/><use transform="matrix(0.05,0,0,0.05,25,0)" xlink:href="#bV"/><use transform="matrix(0.05,0,0,0.05,35,0)" xlink:href="#cr"/><use transform="matrix(0.05,0,0,0.05,45,0)" xlink:href="#bV"/><use transform="matrix(0.05,0,0,0.05,55,0)" xlink:href="#cn"/><use transform="matrix(0.05,0,0,0.05,64,0)" xlink:href="#cj"/></g><g id="ap"><use transform="matrix(0.05,0,0,0.05,0,0)" xlink:href="#cc"/><use transform="matrix(0.05,0,0,0.05,9,0)" xlink:href="#cb"/><use transform="matrix(0.05,0,0,0.05,19,0)" xlink:href="#ck"/><use transform="matrix(0.05,0,0,0.05,24.95,0)" xlink:href="#ck"/><use transform="matrix(0.05,0,0,0.05,30.899999999999995,0)" xlink:href="#cj"/><use transform="matrix(0.05,0,0,0.05,40.9,0)" xlink:href="#cn"/><use transform="matrix(0.05,0,0,0.05,49.9,0)" xlink:href="#co"/><use transform="matrix(0.05,0,0,0.05,59.900000000000006,0)" xlink:href="#cb"/><use transform="matrix(0.05,0,0,0.05,69.9,0)" xlink:href="#bX"/><use transform="matrix(0.05,0,0,0.05,79.9,0)" xlink:href="#cm"/><use transform="matrix(0.05,0,0,0.05,89.9,0)" xlink:href="#bW"/><use transform="matrix(0.05,0,0,0.05,93.85000000000001,0)" xlink:href="#bX"/><use transform="matrix(0.05,0,0,0.05,103.85000000000001,0)" xlink:href="#cl"/></g><g id="aq"><use transform="matrix(0.05,0,0,0.05,0,0)" xlink:href="#bW"/><use transform="matrix(0.05,0,0,0.05,3.95,0)" xlink:href="#bX"/><use transform="matrix(0.05,0,0,0.05,13.949999999999998,0)" xlink:href="#cq"/><use transform="matrix(0.05,0,0,0.05,18.95,0)" xlink:href="#cb"/><use transform="matrix(0.05,0,0,0.05,28.950000000000003,0)" xlink:href="#ck"/><use transform="matrix(0.05,0,0,0.05,34.9,0)" xlink:href="#cg"/><use transform="matrix(0.05,0,0,0.05,49.85,0)" xlink:href="#bV"/><use transform="matrix(0.05,0,0,0.05,59.85,0)" xlink:href="#cp"/><use transform="matrix(0.05,0,0,0.05,64.85,0)" xlink:href="#bW"/><use transform="matrix(0.05,0,0,0.05,68.8,0)" xlink:href="#cb"/><use transform="matrix(0.05,0,0,0.05,78.8,0)" xlink:href="#bX"/><use transform="matrix(0.05,0,0,0.05,88.8,0)" xlink:href="#cy"/></g><g id="ar"><use transform="matrix(0.05,0,0,0.05,0,0)" xlink:href="#cb"/><use transform="matrix(0.05,0,0,0.05,10,0)" xlink:href="#bX"/></g><g id="as"><use transform="matrix(0.05,0,0,0.05,0,0)" xlink:href="#bZ"/><use transform="matrix(0.05,0,0,0.05,12,0)" xlink:href="#cA"/></g><g id="at"><use transform="matrix(0.05,0,0,0.05,0,0)" xlink:href="#bV"/><use transform="matrix(0.05,0,0,0.05,10,0)" xlink:href="#cp"/></g><g id="au"><use transform="matrix(0.05,0,0,0.05,0,0)" xlink:href="#bU"/><use transform="matrix(0.05,0,0,0.05,10,0)" xlink:href="#cj"/><use transform="matrix(0.05,0,0,0.05,20,0)" xlink:href="#bW"/><use transform="matrix(0.05,0,0,0.05,23.95,0)" xlink:href="#cl"/><use transform="matrix(0.05,0,0,0.05,33.95,0)" xlink:href="#bU"/><use transform="matrix(0.05,0,0,0.05,43.95,0)" xlink:href="#cp"/></g><path d="M24-231v-30h32v30H24zM-9 49c24 4 33-6 33-30v-209h32V24c2 40-23 58-65 49V49" id="cB"/><g id="av"><use transform="matrix(0.05,0,0,0.05,0,0)" xlink:href="#cB"/><use transform="matrix(0.05,0,0,0.05,3.95,0)" xlink:href="#cA"/></g><g id="aw"><use transform="matrix(0.05,0,0,0.05,0,0)" xlink:href="#cs"/><use transform="matrix(0.05,0,0,0.05,10.950000000000001,0)" xlink:href="#ct"/><use transform="matrix(0.034999999999999996,0,0,0.034999999999999996,25.900000000000002,2.5199999999999996)" xlink:href="#cu"/></g><use transform="matrix(0.05,0,0,0.05,0,0)" xlink:href="#bV" id="ax"/><g id="ay"><use transform="matrix(0.05,0,0,0.05,0,0)" xlink:href="#cp"/><use transform="matrix(0.05,0,0,0.05,5,0)" xlink:href="#ck"/><use transform="matrix(0.05,0,0,0.05,10.95,0)" xlink:href="#bV"/><use transform="matrix(0.05,0,0,0.05,20.95,0)" xlink:href="#bX"/><use transform="matrix(0.05,0,0,0.05,30.950000000000003,0)" xlink:href="#cn"/><use transform="matrix(0.05,0,0,0.05,39.95,0)" xlink:href="#bV"/><use transform="matrix(0.05,0,0,0.05,49.95,0)" xlink:href="#cc"/><use transform="matrix(0.05,0,0,0.05,58.95,0)" xlink:href="#cp"/><use transform="matrix(0.05,0,0,0.05,63.95,0)" xlink:href="#bW"/><use transform="matrix(0.05,0,0,0.05,67.9,0)" xlink:href="#cb"/><use transform="matrix(0.05,0,0,0.05,77.9,0)" xlink:href="#bX"/></g><g id="az"><use transform="matrix(0.05,0,0,0.05,0,0)" xlink:href="#cc"/><use transform="matrix(0.05,0,0,0.05,9,0)" xlink:href="#cb"/><use transform="matrix(0.05,0,0,0.05,19,0)" xlink:href="#cg"/><use transform="matrix(0.05,0,0,0.05,33.95,0)" xlink:href="#bW"/><use transform="matrix(0.05,0,0,0.05,37.900000000000006,0)" xlink:href="#bX"/><use transform="matrix(0.05,0,0,0.05,47.900000000000006,0)" xlink:href="#cl"/></g><g id="aA"><use transform="matrix(0.05,0,0,0.05,0,0)" xlink:href="#cq"/><use transform="matrix(0.05,0,0,0.05,5,0)" xlink:href="#ck"/><use transform="matrix(0.05,0,0,0.05,10.95,0)" xlink:href="#cb"/><use transform="matrix(0.05,0,0,0.05,20.95,0)" xlink:href="#cg"/></g><path d="M47-170H22l-4-78h33" id="cC"/><g id="aB"><use transform="matrix(0.05,0,0,0.05,0,0)" xlink:href="#cq"/><use transform="matrix(0.05,0,0,0.05,5,0)" xlink:href="#cj"/><use transform="matrix(0.05,0,0,0.05,15,0)" xlink:href="#cm"/><use transform="matrix(0.05,0,0,0.05,25,0)" xlink:href="#cj"/><use transform="matrix(0.05,0,0,0.05,35,0)" xlink:href="#ck"/><use transform="matrix(0.05,0,0,0.05,40.95,0)" xlink:href="#bV"/><use transform="matrix(0.05,0,0,0.05,50.95,0)" xlink:href="#cp"/><use transform="matrix(0.05,0,0,0.05,55.95,0)" xlink:href="#bW"/><use transform="matrix(0.05,0,0,0.05,59.900000000000006,0)" xlink:href="#cb"/><use transform="matrix(0.05,0,0,0.05,69.9,0)" xlink:href="#bX"/><use transform="matrix(0.05,0,0,0.05,79.9,0)" xlink:href="#cC"/><use transform="matrix(0.05,0,0,0.05,83.30000000000001,0)" xlink:href="#cn"/></g><g id="aC"><use transform="matrix(0.05,0,0,0.05,0,0)" xlink:href="#cg"/><use transform="matrix(0.05,0,0,0.05,14.950000000000001,0)" xlink:href="#cw"/><use transform="matrix(0.05,0,0,0.05,24.950000000000003,0)" xlink:href="#cp"/><use transform="matrix(0.05,0,0,0.05,29.950000000000003,0)" xlink:href="#bW"/><use transform="matrix(0.05,0,0,0.05,33.900000000000006,0)" xlink:href="#cn"/><use transform="matrix(0.05,0,0,0.05,42.900000000000006,0)" xlink:href="#bW"/><use transform="matrix(0.05,0,0,0.05,46.85000000000001,0)" xlink:href="#cl"/><use transform="matrix(0.05,0,0,0.05,56.85,0)" xlink:href="#cA"/></g><g id="aD"><use transform="matrix(0.05,0,0,0.05,0,0)" xlink:href="#cc"/><use transform="matrix(0.05,0,0,0.05,9,0)" xlink:href="#cb"/><use transform="matrix(0.05,0,0,0.05,19,0)" xlink:href="#bX"/><use transform="matrix(0.05,0,0,0.05,29,0)" xlink:href="#cp"/><use transform="matrix(0.05,0,0,0.05,34,0)" xlink:href="#bV"/><use transform="matrix(0.05,0,0,0.05,44,0)" xlink:href="#bW"/><use transform="matrix(0.05,0,0,0.05,47.95,0)" xlink:href="#bX"/><use transform="matrix(0.05,0,0,0.05,57.95,0)" xlink:href="#bW"/><use transform="matrix(0.05,0,0,0.05,61.900000000000006,0)" xlink:href="#bX"/><use transform="matrix(0.05,0,0,0.05,71.9,0)" xlink:href="#cl"/></g><g id="aE"><use transform="matrix(0.05,0,0,0.05,0,0)" xlink:href="#bV"/><use transform="matrix(0.05,0,0,0.05,10,0)" xlink:href="#bX"/></g><path d="M-5 72V49h209v23H-5" id="cD"/><g id="aF"><use transform="matrix(0.05,0,0,0.05,0,0)" xlink:href="#cb"/><use transform="matrix(0.05,0,0,0.05,10,0)" xlink:href="#co"/><use transform="matrix(0.05,0,0,0.05,20,0)" xlink:href="#cD"/><use transform="matrix(0.05,0,0,0.05,30,0)" xlink:href="#ck"/><use transform="matrix(0.05,0,0,0.05,35.95,0)" xlink:href="#cj"/><use transform="matrix(0.05,0,0,0.05,45.95,0)" xlink:href="#cp"/><use transform="matrix(0.05,0,0,0.05,50.95,0)" xlink:href="#cw"/><use transform="matrix(0.05,0,0,0.05,60.95,0)" xlink:href="#ck"/><use transform="matrix(0.05,0,0,0.05,66.9,0)" xlink:href="#bX"/></g><g id="aG"><use transform="matrix(0.05,0,0,0.05,0,0)" xlink:href="#cq"/><use transform="matrix(0.05,0,0,0.05,5,0)" xlink:href="#cb"/><use transform="matrix(0.05,0,0,0.05,15,0)" xlink:href="#ck"/></g><g id="aH"><use transform="matrix(0.05,0,0,0.05,0,0)" xlink:href="#bW"/><use transform="matrix(0.05,0,0,0.05,3.95,0)" xlink:href="#cy"/></g><g id="aI"><use transform="matrix(0.05,0,0,0.05,0,0)" xlink:href="#co"/><use transform="matrix(0.05,0,0,0.05,10,0)" xlink:href="#cj"/><use transform="matrix(0.05,0,0,0.05,20,0)" xlink:href="#ck"/><use transform="matrix(0.05,0,0,0.05,25.950000000000003,0)" xlink:href="#cn"/><use transform="matrix(0.05,0,0,0.05,34.95,0)" xlink:href="#bW"/><use transform="matrix(0.05,0,0,0.05,38.900000000000006,0)" xlink:href="#cn"/><use transform="matrix(0.05,0,0,0.05,47.900000000000006,0)" xlink:href="#cp"/><use transform="matrix(0.05,0,0,0.05,52.900000000000006,0)" xlink:href="#cn"/></g><g id="aJ"><use transform="matrix(0.05,0,0,0.05,0,0)" xlink:href="#cp"/><use transform="matrix(0.05,0,0,0.05,5,0)" xlink:href="#bU"/><use transform="matrix(0.05,0,0,0.05,15,0)" xlink:href="#cj"/></g><g id="aK"><use transform="matrix(0.05,0,0,0.05,0,0)" xlink:href="#cc"/><use transform="matrix(0.05,0,0,0.05,9,0)" xlink:href="#cb"/><use transform="matrix(0.05,0,0,0.05,19,0)" xlink:href="#ck"/><use transform="matrix(0.05,0,0,0.05,24.95,0)" xlink:href="#ck"/><use transform="matrix(0.05,0,0,0.05,30.899999999999995,0)" xlink:href="#cj"/><use transform="matrix(0.05,0,0,0.05,40.9,0)" xlink:href="#cn"/><use transform="matrix(0.05,0,0,0.05,49.9,0)" xlink:href="#co"/><use transform="matrix(0.05,0,0,0.05,59.900000000000006,0)" xlink:href="#cb"/><use transform="matrix(0.05,0,0,0.05,69.9,0)" xlink:href="#bX"/><use transform="matrix(0.05,0,0,0.05,79.9,0)" xlink:href="#cm"/><use transform="matrix(0.05,0,0,0.05,89.9,0)" xlink:href="#bW"/><use transform="matrix(0.05,0,0,0.05,93.85000000000001,0)" xlink:href="#bX"/><use transform="matrix(0.05,0,0,0.05,103.85000000000001,0)" xlink:href="#cl"/></g><g id="aL"><use transform="matrix(0.05,0,0,0.05,0,0)" xlink:href="#cm"/><use transform="matrix(0.05,0,0,0.05,10,0)" xlink:href="#cj"/><use transform="matrix(0.05,0,0,0.05,20,0)" xlink:href="#cp"/><use transform="matrix(0.05,0,0,0.05,25,0)" xlink:href="#bV"/><use transform="matrix(0.05,0,0,0.05,35,0)" xlink:href="#bW"/><use transform="matrix(0.05,0,0,0.05,38.95,0)" xlink:href="#ca"/><use transform="matrix(0.05,0,0,0.05,42.900000000000006,0)" xlink:href="#cn"/></g><g id="aM"><use transform="matrix(0.05,0,0,0.05,0,0)" xlink:href="#bW"/><use transform="matrix(0.05,0,0,0.05,3.95,0)" xlink:href="#bX"/></g><g id="aN"><use transform="matrix(0.05,0,0,0.05,0,0)" xlink:href="#cn"/><use transform="matrix(0.05,0,0,0.05,9,0)" xlink:href="#cp"/><use transform="matrix(0.05,0,0,0.05,14,0)" xlink:href="#cb"/><use transform="matrix(0.05,0,0,0.05,24,0)" xlink:href="#ck"/><use transform="matrix(0.05,0,0,0.05,29.950000000000003,0)" xlink:href="#cj"/><use transform="matrix(0.05,0,0,0.05,39.95,0)" xlink:href="#cy"/></g><path d="M30 0v-248h187v28H63v79h144v27H63v87h162V0H30" id="cE"/><g id="aO"><use transform="matrix(0.05,0,0,0.05,0,0)" xlink:href="#cE"/><use transform="matrix(0.05,0,0,0.05,12,0)" xlink:href="#cx"/><use transform="matrix(0.05,0,0,0.05,21,0)" xlink:href="#cj"/><use transform="matrix(0.05,0,0,0.05,31,0)" xlink:href="#bX"/><use transform="matrix(0.05,0,0,0.05,41,0)" xlink:href="#cp"/><use transform="matrix(0.05,0,0,0.05,46,0)" xlink:href="#cw"/><use transform="matrix(0.05,0,0,0.05,56,0)" xlink:href="#bV"/><use transform="matrix(0.05,0,0,0.05,66,0)" xlink:href="#ca"/><use transform="matrix(0.05,0,0,0.05,69.95,0)" xlink:href="#ca"/><use transform="matrix(0.05,0,0,0.05,73.9,0)" xlink:href="#cv"/></g><g id="aP"><use transform="matrix(0.05,0,0,0.05,0,0)" xlink:href="#bW"/><use transform="matrix(0.05,0,0,0.05,3.95,0)" xlink:href="#bX"/><use transform="matrix(0.05,0,0,0.05,13.949999999999998,0)" xlink:href="#cq"/><use transform="matrix(0.05,0,0,0.05,18.95,0)" xlink:href="#cb"/><use transform="matrix(0.05,0,0,0.05,28.950000000000003,0)" xlink:href="#ck"/><use transform="matrix(0.05,0,0,0.05,34.9,0)" xlink:href="#cg"/><use transform="matrix(0.05,0,0,0.05,49.85,0)" xlink:href="#bV"/><use transform="matrix(0.05,0,0,0.05,59.85,0)" xlink:href="#cp"/><use transform="matrix(0.05,0,0,0.05,64.85,0)" xlink:href="#bW"/><use transform="matrix(0.05,0,0,0.05,68.8,0)" xlink:href="#cb"/><use transform="matrix(0.05,0,0,0.05,78.8,0)" xlink:href="#bX"/></g><g id="aQ"><use transform="matrix(0.05,0,0,0.05,0,0)" xlink:href="#bV"/><use transform="matrix(0.05,0,0,0.05,10,0)" xlink:href="#cr"/><use transform="matrix(0.05,0,0,0.05,20,0)" xlink:href="#cb"/><use transform="matrix(0.05,0,0,0.05,30,0)" xlink:href="#cw"/><use transform="matrix(0.05,0,0,0.05,40,0)" xlink:href="#cp"/></g><g id="aR"><use transform="matrix(0.05,0,0,0.05,0,0)" xlink:href="#bX"/><use transform="matrix(0.05,0,0,0.05,10,0)" xlink:href="#cb"/><use transform="matrix(0.05,0,0,0.05,20,0)" xlink:href="#cm"/><use transform="matrix(0.05,0,0,0.05,30,0)" xlink:href="#cj"/></g><g id="aS"><use transform="matrix(0.05,0,0,0.05,0,0)" xlink:href="#bW"/><use transform="matrix(0.05,0,0,0.05,3.95,0)" xlink:href="#cn"/></g><g id="aT"><use transform="matrix(0.05,0,0,0.05,0,0)" xlink:href="#cg"/><use transform="matrix(0.05,0,0,0.05,14.950000000000001,0)" xlink:href="#bV"/><use transform="matrix(0.05,0,0,0.05,24.950000000000003,0)" xlink:href="#cp"/><use transform="matrix(0.05,0,0,0.05,29.950000000000003,0)" xlink:href="#cc"/><use transform="matrix(0.05,0,0,0.05,38.95,0)" xlink:href="#bU"/><use transform="matrix(0.05,0,0,0.05,48.95,0)" xlink:href="#cj"/><use transform="matrix(0.05,0,0,0.05,58.95,0)" xlink:href="#cm"/></g><path d="M206 0h-36l-40-164L89 0H53L-1-190h32L70-26l43-164h34l41 164 42-164h31" id="cF"/><g id="aU"><use transform="matrix(0.05,0,0,0.05,0,0)" xlink:href="#cF"/><use transform="matrix(0.05,0,0,0.05,12.950000000000001,0)" xlink:href="#bW"/><use transform="matrix(0.05,0,0,0.05,16.900000000000002,0)" xlink:href="#cp"/><use transform="matrix(0.05,0,0,0.05,21.900000000000002,0)" xlink:href="#bU"/></g><g id="aV"><use transform="matrix(0.05,0,0,0.05,0,0)" xlink:href="#bW"/><use transform="matrix(0.05,0,0,0.05,3.95,0)" xlink:href="#bX"/><use transform="matrix(0.05,0,0,0.05,13.949999999999998,0)" xlink:href="#cq"/><use transform="matrix(0.05,0,0,0.05,18.95,0)" xlink:href="#cb"/><use transform="matrix(0.05,0,0,0.05,28.950000000000003,0)" xlink:href="#ck"/><use transform="matrix(0.05,0,0,0.05,34.9,0)" xlink:href="#cg"/><use transform="matrix(0.05,0,0,0.05,49.85,0)" xlink:href="#bV"/><use transform="matrix(0.05,0,0,0.05,59.85,0)" xlink:href="#cp"/><use transform="matrix(0.05,0,0,0.05,64.85,0)" xlink:href="#bW"/><use transform="matrix(0.05,0,0,0.05,68.8,0)" xlink:href="#cb"/><use transform="matrix(0.05,0,0,0.05,78.8,0)" xlink:href="#bX"/></g><use transform="matrix(0.05,0,0,0.05,0,0)" xlink:href="#cB" id="aW"/><g id="aX"><use transform="matrix(0.05,0,0,0.05,0,0)" xlink:href="#cg"/><use transform="matrix(0.05,0,0,0.05,14.950000000000001,0)" xlink:href="#bV"/><use transform="matrix(0.05,0,0,0.05,24.950000000000003,0)" xlink:href="#ch"/><use transform="matrix(0.05,0,0,0.05,33.95,0)" xlink:href="#ci"/><use transform="matrix(0.05,0,0,0.05,46.900000000000006,0)" xlink:href="#cj"/><use transform="matrix(0.05,0,0,0.05,56.900000000000006,0)" xlink:href="#cb"/><use transform="matrix(0.05,0,0,0.05,66.9,0)" xlink:href="#ck"/><use transform="matrix(0.05,0,0,0.05,72.85000000000001,0)" xlink:href="#cl"/><use transform="matrix(0.034999999999999996,0,0,0.034999999999999996,82.85000000000001,2.5199999999999996)" xlink:href="#bZ"/></g><g id="aY"><use transform="matrix(0.05,0,0,0.05,0,0)" xlink:href="#ce"/><use transform="matrix(0.05,0,0,0.05,10.5,0)" xlink:href="#cf"/></g><g id="aZ"><use transform="matrix(0.05,0,0,0.05,0,0)" xlink:href="#cp"/><use transform="matrix(0.05,0,0,0.05,5,0)" xlink:href="#ck"/><use transform="matrix(0.05,0,0,0.05,10.95,0)" xlink:href="#bV"/><use transform="matrix(0.05,0,0,0.05,20.95,0)" xlink:href="#bX"/><use transform="matrix(0.05,0,0,0.05,30.950000000000003,0)" xlink:href="#cn"/><use transform="matrix(0.05,0,0,0.05,39.95,0)" xlink:href="#cq"/><use transform="matrix(0.05,0,0,0.05,44.95,0)" xlink:href="#cj"/><use transform="matrix(0.05,0,0,0.05,54.95,0)" xlink:href="#ck"/></g><g id="ba"><use transform="matrix(0.05,0,0,0.05,0,0)" xlink:href="#cn"/><use transform="matrix(0.05,0,0,0.05,9,0)" xlink:href="#cp"/><use transform="matrix(0.05,0,0,0.05,14,0)" xlink:href="#bV"/><use transform="matrix(0.05,0,0,0.05,24,0)" xlink:href="#cp"/><use transform="matrix(0.05,0,0,0.05,29,0)" xlink:href="#cw"/><use transform="matrix(0.05,0,0,0.05,39,0)" xlink:href="#cn"/></g><g id="bb"><use transform="matrix(0.05,0,0,0.05,0,0)" xlink:href="#cg"/><use transform="matrix(0.05,0,0,0.05,14.950000000000001,0)" xlink:href="#bV"/><use transform="matrix(0.05,0,0,0.05,24.950000000000003,0)" xlink:href="#ck"/><use transform="matrix(0.05,0,0,0.05,30.900000000000002,0)" xlink:href="#cd"/><use transform="matrix(0.05,0,0,0.05,39.900000000000006,0)" xlink:href="#cj"/><use transform="matrix(0.05,0,0,0.05,49.900000000000006,0)" xlink:href="#cm"/></g><g id="bc"><use transform="matrix(0.05,0,0,0.05,0,0)" xlink:href="#cc"/><use transform="matrix(0.05,0,0,0.05,9,0)" xlink:href="#cb"/><use transform="matrix(0.05,0,0,0.05,19,0)" xlink:href="#cg"/><use transform="matrix(0.05,0,0,0.05,33.95,0)" xlink:href="#co"/><use transform="matrix(0.05,0,0,0.05,43.95,0)" xlink:href="#ca"/><use transform="matrix(0.05,0,0,0.05,47.900000000000006,0)" xlink:href="#cj"/><use transform="matrix(0.05,0,0,0.05,57.900000000000006,0)" xlink:href="#cp"/><use transform="matrix(0.05,0,0,0.05,62.900000000000006,0)" xlink:href="#cj"/></g><g id="bd"><use transform="matrix(0.05,0,0,0.05,0,0)" xlink:href="#cg"/><use transform="matrix(0.05,0,0,0.05,14.950000000000001,0)" xlink:href="#bV"/><use transform="matrix(0.05,0,0,0.05,24.950000000000003,0)" xlink:href="#ch"/><use transform="matrix(0.05,0,0,0.05,33.95,0)" xlink:href="#ci"/><use transform="matrix(0.05,0,0,0.05,46.900000000000006,0)" xlink:href="#cj"/><use transform="matrix(0.05,0,0,0.05,56.900000000000006,0)" xlink:href="#cb"/><use transform="matrix(0.05,0,0,0.05,66.9,0)" xlink:href="#ck"/><use transform="matrix(0.05,0,0,0.05,72.85000000000001,0)" xlink:href="#cl"/><use transform="matrix(0.034999999999999996,0,0,0.034999999999999996,82.85000000000001,2.5199999999999996)" xlink:href="#bZ"/></g><g id="be"><use transform="matrix(0.05,0,0,0.05,0,0)" xlink:href="#bZ"/><use transform="matrix(0.05,0,0,0.05,12,0)" xlink:href="#ca"/><use transform="matrix(0.05,0,0,0.05,15.949999999999998,0)" xlink:href="#cb"/><use transform="matrix(0.05,0,0,0.05,25.950000000000003,0)" xlink:href="#cc"/><use transform="matrix(0.05,0,0,0.05,34.95,0)" xlink:href="#cd"/></g><use transform="matrix(0.05,0,0,0.05,0,0)" xlink:href="#bW" id="bf"/><path d="M16-82v-28h88v28H16" id="cG"/><use transform="matrix(0.05,0,0,0.05,0,0)" xlink:href="#cG" id="bg"/><g id="bh"><use transform="matrix(0.05,0,0,0.05,0,0)" xlink:href="#cp"/><use transform="matrix(0.05,0,0,0.05,5,0)" xlink:href="#ch"/><use transform="matrix(0.034999999999999996,0,0,0.034999999999999996,14,2.5199999999999996)" xlink:href="#cf"/></g><use transform="matrix(0.05,0,0,0.05,0,0)" xlink:href="#cG" id="bi"/><g id="bj"><use transform="matrix(0.05,0,0,0.05,0,0)" xlink:href="#cp"/><use transform="matrix(0.05,0,0,0.05,5,0)" xlink:href="#ch"/><use transform="matrix(0.034999999999999996,0,0,0.034999999999999996,14,2.5199999999999996)" xlink:href="#cu"/></g><use transform="matrix(0.05,0,0,0.05,0,0)" xlink:href="#bW" id="bk"/><g id="bl"><use transform="matrix(0.05,0,0,0.05,0,0)" xlink:href="#cy"/><use transform="matrix(0.05,0,0,0.05,5,0)" xlink:href="#cy"/><use transform="matrix(0.05,0,0,0.05,10,0)" xlink:href="#cy"/></g><g id="bm"><use transform="matrix(0.05,0,0,0.05,0,0)" xlink:href="#ct"/><use transform="matrix(0.05,0,0,0.05,14.950000000000001,0)" xlink:href="#bV"/><use transform="matrix(0.05,0,0,0.05,24.950000000000003,0)" xlink:href="#ck"/><use transform="matrix(0.05,0,0,0.05,30.900000000000002,0)" xlink:href="#cd"/></g><g id="bn"><use transform="matrix(0.05,0,0,0.05,0,0)" xlink:href="#cp"/><use transform="matrix(0.05,0,0,0.05,5,0)" xlink:href="#ck"/><use transform="matrix(0.05,0,0,0.05,10.95,0)" xlink:href="#bV"/><use transform="matrix(0.05,0,0,0.05,20.95,0)" xlink:href="#bX"/><use transform="matrix(0.05,0,0,0.05,30.950000000000003,0)" xlink:href="#cn"/><use transform="matrix(0.05,0,0,0.05,39.95,0)" xlink:href="#cq"/><use transform="matrix(0.05,0,0,0.05,44.95,0)" xlink:href="#cj"/><use transform="matrix(0.05,0,0,0.05,54.95,0)" xlink:href="#ck"/></g><use transform="matrix(0.05,0,0,0.05,0,0)" xlink:href="#bW" id="bo"/><g id="bp"><use transform="matrix(0.05,0,0,0.05,0,0)" xlink:href="#bV"/><use transform="matrix(0.05,0,0,0.05,10,0)" xlink:href="#cn"/></g><g id="bq"><use transform="matrix(0.05,0,0,0.05,0,0)" xlink:href="#cc"/><use transform="matrix(0.05,0,0,0.05,9,0)" xlink:href="#cb"/><use transform="matrix(0.05,0,0,0.05,19,0)" xlink:href="#cg"/><use transform="matrix(0.05,0,0,0.05,33.95,0)" xlink:href="#co"/><use transform="matrix(0.05,0,0,0.05,43.95,0)" xlink:href="#ca"/><use transform="matrix(0.05,0,0,0.05,47.900000000000006,0)" xlink:href="#cj"/><use transform="matrix(0.05,0,0,0.05,57.900000000000006,0)" xlink:href="#cp"/><use transform="matrix(0.05,0,0,0.05,62.900000000000006,0)" xlink:href="#cj"/><use transform="matrix(0.05,0,0,0.05,72.9,0)" xlink:href="#cm"/></g><path fill="#19967d" d="M18-101c0-91 52-150 145-150 68 0 111 34 111 101C274-54 221 4 128 4 59 4 18-33 18-101zm202-32c4-46-15-77-59-77-65 0-88 46-91 108-2 41 22 65 60 65 60 0 84-40 90-96" id="cH"/><path fill="#19967d" d="M151-194c95 0 34 128 28 194h-49l25-134c0-29-45-25-59-9C67-111 69-48 56 0H6l36-190h47l-4 32c15-20 33-36 66-36" id="cI"/><path fill="#19967d" d="M6 0l51-261h49L55 0H6" id="cJ"/><path fill="#19967d" d="M50-224l7-37h49l-7 37H50zM6 0l37-190h49L55 0H6" id="cK"/><path fill="#19967d" d="M114-194c63-2 87 48 72 110H63c-3 28 1 55 31 54 21-1 32-13 37-29l44 13C160-14 137 4 91 4 41 4 11-22 11-73c0-71 33-119 103-121zm30 77c14-47-50-61-67-22-3 6-6 13-8 22h75" id="cL"/><g id="br"><use transform="matrix(0.07407407407407408,0,0,0.07407407407407408,0,0)" xlink:href="#cH"/><use transform="matrix(0.07407407407407408,0,0,0.07407407407407408,20.740740740740744,0)" xlink:href="#cI"/><use transform="matrix(0.07407407407407408,0,0,0.07407407407407408,36.96296296296297,0)" xlink:href="#cJ"/><use transform="matrix(0.07407407407407408,0,0,0.07407407407407408,44.37037037037039,0)" xlink:href="#cK"/><use transform="matrix(0.07407407407407408,0,0,0.07407407407407408,51.777777777777786,0)" xlink:href="#cI"/><use transform="matrix(0.07407407407407408,0,0,0.07407407407407408,68.00000000000001,0)" xlink:href="#cL"/></g><use transform="matrix(0.05,0,0,0.05,0,0)" xlink:href="#bW" id="bs"/><use transform="matrix(0.05,0,0,0.05,0,0)" xlink:href="#cG" id="bu"/><g id="bv"><use transform="matrix(0.05,0,0,0.05,0,0)" xlink:href="#cp"/><use transform="matrix(0.05,0,0,0.05,5,0)" xlink:href="#ch"/><use transform="matrix(0.034999999999999996,0,0,0.034999999999999996,14,2.5199999999999996)" xlink:href="#cf"/></g><use transform="matrix(0.05,0,0,0.05,0,0)" xlink:href="#cG" id="bw"/><path d="M33-154v-36h34v36H33zM33 0v-36h34V0H33" id="cM"/><g id="bx"><use transform="matrix(0.05,0,0,0.05,0,0)" xlink:href="#cg"/><use transform="matrix(0.05,0,0,0.05,14.950000000000001,0)" xlink:href="#cw"/><use transform="matrix(0.05,0,0,0.05,24.950000000000003,0)" xlink:href="#ca"/><use transform="matrix(0.05,0,0,0.05,28.900000000000002,0)" xlink:href="#cp"/><use transform="matrix(0.05,0,0,0.05,33.900000000000006,0)" xlink:href="#bW"/><use transform="matrix(0.05,0,0,0.05,37.85000000000001,0)" xlink:href="#cn"/><use transform="matrix(0.05,0,0,0.05,46.85000000000001,0)" xlink:href="#bW"/><use transform="matrix(0.05,0,0,0.05,50.80000000000001,0)" xlink:href="#cl"/><use transform="matrix(0.05,0,0,0.05,60.80000000000001,0)" xlink:href="#cM"/></g><g id="by"><use transform="matrix(0.05,0,0,0.05,0,0)" xlink:href="#cx"/><use transform="matrix(0.05,0,0,0.05,9,0)" xlink:href="#bV"/><use transform="matrix(0.05,0,0,0.05,19,0)" xlink:href="#ca"/><use transform="matrix(0.034999999999999996,0,0,0.034999999999999996,22.95,2.5199999999999996)" xlink:href="#cf"/></g><g id="bz"><use transform="matrix(0.05,0,0,0.05,0,0)" xlink:href="#cb"/><use transform="matrix(0.05,0,0,0.05,10,0)" xlink:href="#co"/><use transform="matrix(0.05,0,0,0.05,20,0)" xlink:href="#cD"/><use transform="matrix(0.05,0,0,0.05,30,0)" xlink:href="#ck"/><use transform="matrix(0.05,0,0,0.05,35.95,0)" xlink:href="#cj"/><use transform="matrix(0.05,0,0,0.05,45.95,0)" xlink:href="#cp"/><use transform="matrix(0.05,0,0,0.05,50.95,0)" xlink:href="#cM"/></g><g id="bA"><use transform="matrix(0.05,0,0,0.05,0,0)" xlink:href="#bV"/><use transform="matrix(0.05,0,0,0.05,10,0)" xlink:href="#cm"/><use transform="matrix(0.05,0,0,0.05,20,0)" xlink:href="#cm"/><use transform="matrix(0.034999999999999996,0,0,0.034999999999999996,30,2.5199999999999996)" xlink:href="#cf"/></g><g id="bB"><use transform="matrix(0.05,0,0,0.05,0,0)" xlink:href="#cp"/><use transform="matrix(0.05,0,0,0.05,5,0)" xlink:href="#ch"/><use transform="matrix(0.034999999999999996,0,0,0.034999999999999996,14,2.5199999999999996)" xlink:href="#cu"/></g><g id="bC"><use transform="matrix(0.05,0,0,0.05,0,0)" xlink:href="#cG"/><use transform="matrix(0.05,0,0,0.05,5.95,0)" xlink:href="#cg"/><use transform="matrix(0.05,0,0,0.05,20.900000000000002,0)" xlink:href="#cw"/><use transform="matrix(0.05,0,0,0.05,30.900000000000002,0)" xlink:href="#ca"/><use transform="matrix(0.05,0,0,0.05,34.85,0)" xlink:href="#cp"/><use transform="matrix(0.05,0,0,0.05,39.85,0)" xlink:href="#bW"/><use transform="matrix(0.05,0,0,0.05,43.800000000000004,0)" xlink:href="#cn"/><use transform="matrix(0.05,0,0,0.05,52.800000000000004,0)" xlink:href="#bW"/><use transform="matrix(0.05,0,0,0.05,56.75,0)" xlink:href="#cl"/><use transform="matrix(0.05,0,0,0.05,66.75,0)" xlink:href="#cM"/></g><g id="bD"><use transform="matrix(0.05,0,0,0.05,0,0)" xlink:href="#cx"/><use transform="matrix(0.05,0,0,0.05,9,0)" xlink:href="#bV"/><use transform="matrix(0.05,0,0,0.05,19,0)" xlink:href="#ca"/><use transform="matrix(0.034999999999999996,0,0,0.034999999999999996,22.95,2.5199999999999996)" xlink:href="#cu"/></g><g id="bE"><use transform="matrix(0.05,0,0,0.05,0,0)" xlink:href="#bV"/><use transform="matrix(0.05,0,0,0.05,10,0)" xlink:href="#cm"/><use transform="matrix(0.05,0,0,0.05,20,0)" xlink:href="#cm"/><use transform="matrix(0.034999999999999996,0,0,0.034999999999999996,30,2.5199999999999996)" xlink:href="#cu"/></g><g id="bF"><use transform="matrix(0.05,0,0,0.05,0,0)" xlink:href="#cy"/><use transform="matrix(0.05,0,0,0.05,5,0)" xlink:href="#cy"/><use transform="matrix(0.05,0,0,0.05,10,0)" xlink:href="#cy"/></g><use transform="matrix(0.05,0,0,0.05,0,0)" xlink:href="#cB" id="bG"/><g id="bH"><use transform="matrix(0.05,0,0,0.05,0,0)" xlink:href="#cp"/><use transform="matrix(0.05,0,0,0.05,5,0)" xlink:href="#ch"/></g><g id="bI"><use transform="matrix(0.05,0,0,0.05,0,0)" xlink:href="#cb"/><use transform="matrix(0.05,0,0,0.05,10,0)" xlink:href="#co"/><use transform="matrix(0.05,0,0,0.05,20,0)" xlink:href="#cD"/><use transform="matrix(0.05,0,0,0.05,30,0)" xlink:href="#ck"/><use transform="matrix(0.05,0,0,0.05,35.95,0)" xlink:href="#cj"/><use transform="matrix(0.05,0,0,0.05,45.95,0)" xlink:href="#cp"/><use transform="matrix(0.05,0,0,0.05,50.95,0)" xlink:href="#cw"/><use transform="matrix(0.05,0,0,0.05,60.95,0)" xlink:href="#ck"/><use transform="matrix(0.05,0,0,0.05,66.9,0)" xlink:href="#bX"/><use transform="matrix(0.05,0,0,0.05,76.9,0)" xlink:href="#cM"/></g><g id="bJ"><use transform="matrix(0.05,0,0,0.05,0,0)" xlink:href="#bV"/><use transform="matrix(0.05,0,0,0.05,10,0)" xlink:href="#cm"/><use transform="matrix(0.05,0,0,0.05,20,0)" xlink:href="#cm"/><use transform="matrix(0.034999999999999996,0,0,0.034999999999999996,30,2.5199999999999996)" xlink:href="#cf"/><use transform="matrix(0.05,0,0,0.05,37,0)" xlink:href="#cM"/></g><g id="bK"><use transform="matrix(0.05,0,0,0.05,0,0)" xlink:href="#bV"/><use transform="matrix(0.05,0,0,0.05,10,0)" xlink:href="#cm"/><use transform="matrix(0.05,0,0,0.05,20,0)" xlink:href="#cm"/><use transform="matrix(0.034999999999999996,0,0,0.034999999999999996,30,2.5199999999999996)" xlink:href="#cu"/><use transform="matrix(0.05,0,0,0.05,37,0)" xlink:href="#cM"/></g><g id="bL"><use transform="matrix(0.05,0,0,0.05,0,0)" xlink:href="#cx"/><use transform="matrix(0.05,0,0,0.05,9,0)" xlink:href="#bV"/><use transform="matrix(0.05,0,0,0.05,19,0)" xlink:href="#ca"/><use transform="matrix(0.034999999999999996,0,0,0.034999999999999996,22.95,2.5199999999999996)" xlink:href="#cu"/></g><use transform="matrix(0.05,0,0,0.05,0,0)" xlink:href="#cg" id="bM"/><path d="M185-189c-5-48-123-54-124 2 14 75 158 14 163 119 3 78-121 87-175 55-17-10-28-26-33-46l33-7c5 56 141 63 141-1 0-78-155-14-162-118-5-82 145-84 179-34 5 7 8 16 11 25" id="cN"/><g id="bN"><use transform="matrix(0.05,0,0,0.05,0,0)" xlink:href="#cN"/><use transform="matrix(0.05,0,0,0.05,12,0)" xlink:href="#cp"/><use transform="matrix(0.05,0,0,0.05,17,0)" xlink:href="#cb"/><use transform="matrix(0.05,0,0,0.05,27,0)" xlink:href="#ck"/><use transform="matrix(0.05,0,0,0.05,32.95,0)" xlink:href="#cj"/></g><g id="bO"><use transform="matrix(0.05,0,0,0.05,0,0)" xlink:href="#cc"/><use transform="matrix(0.05,0,0,0.05,9,0)" xlink:href="#ck"/><use transform="matrix(0.05,0,0,0.05,14.949999999999998,0)" xlink:href="#cb"/><use transform="matrix(0.05,0,0,0.05,24.95,0)" xlink:href="#cn"/><use transform="matrix(0.05,0,0,0.05,33.95,0)" xlink:href="#cn"/></g><g id="bP"><use transform="matrix(0.05,0,0,0.05,0,0)" xlink:href="#cc"/><use transform="matrix(0.05,0,0,0.05,9,0)" xlink:href="#bU"/><use transform="matrix(0.05,0,0,0.05,19,0)" xlink:href="#bV"/><use transform="matrix(0.05,0,0,0.05,29,0)" xlink:href="#bW"/><use transform="matrix(0.05,0,0,0.05,32.95,0)" xlink:href="#bX"/></g><g id="bQ"><use transform="matrix(0.05,0,0,0.05,0,0)" xlink:href="#cn"/><use transform="matrix(0.05,0,0,0.05,9,0)" xlink:href="#cj"/><use transform="matrix(0.05,0,0,0.05,19,0)" xlink:href="#cn"/><use transform="matrix(0.05,0,0,0.05,28,0)" xlink:href="#cn"/><use transform="matrix(0.05,0,0,0.05,37,0)" xlink:href="#bW"/><use transform="matrix(0.05,0,0,0.05,40.95,0)" xlink:href="#cb"/><use transform="matrix(0.05,0,0,0.05,50.95,0)" xlink:href="#bX"/></g><g id="bR"><use transform="matrix(0.05,0,0,0.05,0,0)" xlink:href="#cn"/><use transform="matrix(0.05,0,0,0.05,9,0)" xlink:href="#cp"/><use transform="matrix(0.05,0,0,0.05,14,0)" xlink:href="#bV"/><use transform="matrix(0.05,0,0,0.05,24,0)" xlink:href="#cp"/><use transform="matrix(0.05,0,0,0.05,29,0)" xlink:href="#cj"/><use transform="matrix(0.05,0,0,0.05,39,0)" xlink:href="#cn"/></g><g id="bS"><use transform="matrix(0.05,0,0,0.05,0,0)" xlink:href="#cn"/><use transform="matrix(0.05,0,0,0.05,9,0)" xlink:href="#cp"/><use transform="matrix(0.05,0,0,0.05,14,0)" xlink:href="#cb"/><use transform="matrix(0.05,0,0,0.05,24,0)" xlink:href="#ck"/><use transform="matrix(0.05,0,0,0.05,29.950000000000003,0)" xlink:href="#cj"/></g></defs></g></svg>