<svg xmlns="http://www.w3.org/2000/svg" xmlns:xlink="http://www.w3.org/1999/xlink" xmlns:lucid="lucid" width="1582" height="1200"><g transform="translate(0 0)" lucid:page-tab-id="Cu6cqYT7j5Qr"><path d="M40 1079.5h140l40 30v50H40z" stroke="#000" stroke-width="2" fill="#c7e8ac"/><path d="M30 1089.5h140l40 30v50H30z" stroke="#000" stroke-width="2" fill="#c7e8ac"/><path d="M20 1099.5h140l40 30v50H20z" stroke="#000" stroke-width="2" fill="#c7e8ac"/><use xlink:href="#a" transform="matrix(1,0,0,1,20,1099.5) translate(58.05 43.6)"/><use xlink:href="#b" transform="matrix(1,0,0,1,20,1099.5) translate(109.95 43.6)"/><path d="M20 590h160l40 30v70H20z" stroke="#000" stroke-width="2" fill="#c7e8ac"/><use xlink:href="#c" transform="matrix(1,0,0,1,20,590) translate(6.630000000000004 55.025)"/><use xlink:href="#d" transform="matrix(1,0,0,1,20,590) translate(55.580000000000005 55.025)"/><use xlink:href="#e" transform="matrix(1,0,0,1,20,590) translate(64.53 55.025)"/><use xlink:href="#f" transform="matrix(1,0,0,1,20,590) translate(80.03 55.025)"/><use xlink:href="#e" transform="matrix(1,0,0,1,20,590) translate(95.03 55.025)"/><use xlink:href="#g" transform="matrix(1,0,0,1,20,590) translate(110.53 55.025)"/><path d="M120 1078.5v-19.26" stroke="#000" stroke-width="2" fill="none"/><path d="M121 1079.5h-2v-1h2zM124.64 1058.5h-9.28l4.64-14.26z"/><path d="M126 1059.5h-12l6-18.5zm-9.26-2h6.52l-3.26-10.03z"/><path d="M120 799V709.24" fill="none"/><path d="M120 799v-3m0-3.98v-6m0-3.98v-5.98m0-4v-5.97m0-4v-6m0-3.98v-5.98m0-4v-5.97m0-4v-5.98m0-4v-5.98m0-4v-2.98" stroke="#000" stroke-width="2" fill="none"/><path d="M121 800h-2v-1h2zM124.64 708.5h-9.28l4.64-14.26z"/><path d="M126 709.5h-12l6-18.5zm-9.26-2h6.52L120 697.47z"/><path d="M20 400h160l40 30v70H20z" stroke="#000" stroke-width="2" fill="#c7e8ac"/><use xlink:href="#c" transform="matrix(1,0,0,1,20,400) translate(73.555 55.025)"/><use xlink:href="#h" transform="matrix(1,0,0,1,20,400) translate(122.505 55.025)"/><path d="M120 589v-69.76" fill="none"/><path d="M120 589v-3m0-3.98v-5.98m0-3.98v-5.98m0-4v-5.97m0-3.98v-5.98m0-3.98v-5.98m0-4v-5.97m0-3.97v-3" stroke="#000" stroke-width="2" fill="none"/><path d="M121 590h-2v-1h2zM124.64 518.5h-9.28l4.64-14.26z"/><path d="M126 519.5h-12l6-18.5zm-9.26-2h6.52L120 507.47z"/><path d="M1233 20c16.57 0 30 13.43 30 30v300c0 16.57-13.43 30-30 30H373c-16.57 0-30-13.43-30-30V50c0-16.57 13.43-30 30-30z" stroke="#000" stroke-width="2" fill="#e5e5e5"/><path d="M453 80c0 22.1-17.9 40-40 40s-40-17.9-40-40 17.9-40 40-40 40 17.9 40 40z" stroke="#000" stroke-width="2" fill="#c7e8ac"/><use xlink:href="#a" transform="matrix(1,0,0,1,378.0000000000042,45) translate(3.549999999999997 27.799999999999997)"/><use xlink:href="#i" transform="matrix(1,0,0,1,378.0000000000042,45) translate(55.45 27.799999999999997)"/><use xlink:href="#j" transform="matrix(1,0,0,1,378.0000000000042,45) translate(15 49.4)"/><path d="M862 80c0 22.1-17.9 40-40 40s-40-17.9-40-40 17.9-40 40-40 40 17.9 40 40z" stroke="#000" stroke-width="2" fill="#ffbbb1"/><use xlink:href="#a" transform="matrix(1,0,0,1,786.9993760969081,45) translate(3.049999999999997 27.799999999999997)"/><use xlink:href="#k" transform="matrix(1,0,0,1,786.9993760969081,45) translate(54.95 27.799999999999997)"/><use xlink:href="#j" transform="matrix(1,0,0,1,786.9993760969081,45) translate(15 49.4)"/><path d="M463 268.2c0 6.66-22.4 12.05-50 12.05s-50-5.4-50-12.05v-96.4c0-6.66 22.4-12.05 50-12.05s50 5.4 50 12.05z" stroke="#000" stroke-width="2" fill="#c7e8ac"/><path d="M463 171.8c0 6.66-22.4 12.05-50 12.05s-50-5.4-50-12.05" stroke="#000" stroke-width="2" fill="none"/><use xlink:href="#l" transform="matrix(1,0,0,1,368.0000000000042,188.85) translate(21.549999999999997 14.69999999999999)"/><use xlink:href="#m" transform="matrix(1,0,0,1,368.0000000000042,188.85) translate(23.525 36.29999999999999)"/><use xlink:href="#n" transform="matrix(1,0,0,1,368.0000000000042,188.85) translate(14.524999999999999 57.89999999999999)"/><use xlink:href="#o" transform="matrix(1,0,0,1,368.0000000000042,188.85) translate(-0.9500000000000028 79.5)"/><path d="M872 286c0 7.73-22.4 14-50 14s-50-6.27-50-14V174c0-7.73 22.4-14 50-14s50 6.27 50 14z" stroke="#000" stroke-width="2" fill="#ffbbb1"/><path d="M872 174c0 7.73-22.4 14-50 14s-50-6.27-50-14" stroke="#000" stroke-width="2" fill="none"/><use xlink:href="#l" transform="matrix(1,0,0,1,776.9993760969081,193) translate(21.549999999999997 22.19999999999999)"/><use xlink:href="#m" transform="matrix(1,0,0,1,776.9993760969081,193) translate(23.525 43.79999999999999)"/><use xlink:href="#n" transform="matrix(1,0,0,1,776.9993760969081,193) translate(14.524999999999999 65.39999999999999)"/><use xlink:href="#o" transform="matrix(1,0,0,1,776.9993760969081,193) translate(-0.9500000000000028 87)"/><path d="M1233 420c16.57 0 30 13.43 30 30v300c0 16.57-13.43 30-30 30H373c-16.57 0-30-13.43-30-30V450c0-16.57 13.43-30 30-30z" stroke="#000" stroke-width="2" fill="#e5e5e5"/><path d="M453 480c0 22.1-17.9 40-40 40s-40-17.9-40-40 17.9-40 40-40 40 17.9 40 40z" stroke="#000" stroke-width="2" fill="#c7e8ac"/><use xlink:href="#a" transform="matrix(1,0,0,1,378.0000000000042,445) translate(3.549999999999997 27.799999999999997)"/><use xlink:href="#i" transform="matrix(1,0,0,1,378.0000000000042,445) translate(55.45 27.799999999999997)"/><use xlink:href="#j" transform="matrix(1,0,0,1,378.0000000000042,445) translate(15 49.4)"/><path d="M873 480c0 22.1-17.9 40-40 40s-40-17.9-40-40 17.9-40 40-40 40 17.9 40 40z" stroke="#000" stroke-width="2" fill="#ffbbb1"/><use xlink:href="#a" transform="matrix(1,0,0,1,798.0000000000042,445) translate(3.049999999999997 27.799999999999997)"/><use xlink:href="#k" transform="matrix(1,0,0,1,798.0000000000042,445) translate(54.95 27.799999999999997)"/><use xlink:href="#j" transform="matrix(1,0,0,1,798.0000000000042,445) translate(15 49.4)"/><path d="M463 668.2c0 6.66-22.4 12.05-50 12.05s-50-5.4-50-12.05v-96.4c0-6.66 22.4-12.05 50-12.05s50 5.4 50 12.05z" stroke="#000" stroke-width="2" fill="#c7e8ac"/><path d="M463 571.8c0 6.66-22.4 12.05-50 12.05s-50-5.4-50-12.05" stroke="#000" stroke-width="2" fill="none"/><use xlink:href="#l" transform="matrix(1,0,0,1,368.0000000000042,588.85) translate(21.549999999999997 14.69999999999999)"/><use xlink:href="#m" transform="matrix(1,0,0,1,368.0000000000042,588.85) translate(23.525 36.29999999999999)"/><use xlink:href="#n" transform="matrix(1,0,0,1,368.0000000000042,588.85) translate(14.524999999999999 57.89999999999999)"/><use xlink:href="#o" transform="matrix(1,0,0,1,368.0000000000042,588.85) translate(-0.9500000000000028 79.5)"/><path d="M883 728.45c0 6.66-22.4 12.05-50 12.05s-50-5.4-50-12.05v-96.4c0-6.66 22.4-12.05 50-12.05s50 5.4 50 12.05z" stroke="#000" stroke-width="2" fill="#ffbbb1"/><path d="M883 632.05c0 6.66-22.4 12.05-50 12.05s-50-5.4-50-12.05" stroke="#000" stroke-width="2" fill="none"/><use xlink:href="#l" transform="matrix(1,0,0,1,788.0000000000042,649.1) translate(21.549999999999997 14.69999999999999)"/><use xlink:href="#m" transform="matrix(1,0,0,1,788.0000000000042,649.1) translate(23.525 36.29999999999999)"/><use xlink:href="#n" transform="matrix(1,0,0,1,788.0000000000042,649.1) translate(14.524999999999999 57.89999999999999)"/><use xlink:href="#o" transform="matrix(1,0,0,1,788.0000000000042,649.1) translate(-0.9500000000000028 79.5)"/><path d="M1382 1069.75h108l32 30v50h-140z" stroke="#000" stroke-width="2" fill="#ffbbb1"/><path d="M1372 1079.75h108l32 30v50h-140z" stroke="#000" stroke-width="2" fill="#ffbbb1"/><path d="M1362 1089.75h108l32 30v50h-140z" stroke="#000" stroke-width="2" fill="#ffbbb1"/><use xlink:href="#a" transform="matrix(1,0,0,1,1362.000000000004,1089.75) translate(38.05 43.6)"/><use xlink:href="#p" transform="matrix(1,0,0,1,1362.000000000004,1089.75) translate(89.95 43.6)"/><path d="M1442 1068.75v-109" stroke="#000" stroke-width="2" fill="none"/><path d="M1443 1069.75h-2v-1h2zM1446.64 959h-9.28l4.64-14.26z"/><path d="M1448 960h-12l6-18.5zm-9.26-2h6.52l-3.26-10.03z"/><path d="M1233 820c16.57 0 30 13.43 30 30v300c0 16.57-13.43 30-30 30H373c-16.57 0-30-13.43-30-30V850c0-16.57 13.43-30 30-30z" stroke="#000" stroke-width="2" fill="#e5e5e5"/><path d="M453 880c0 22.1-17.9 40-40 40s-40-17.9-40-40 17.9-40 40-40 40 17.9 40 40z" stroke="#000" stroke-width="2" fill="#c7e8ac"/><use xlink:href="#a" transform="matrix(1,0,0,1,378.0000000000042,845) translate(3.549999999999997 27.799999999999997)"/><use xlink:href="#i" transform="matrix(1,0,0,1,378.0000000000042,845) translate(55.45 27.799999999999997)"/><use xlink:href="#j" transform="matrix(1,0,0,1,378.0000000000042,845) translate(15 49.4)"/><path d="M873 880c0 22.1-17.9 40-40 40s-40-17.9-40-40 17.9-40 40-40 40 17.9 40 40z" stroke="#000" stroke-width="2" fill="#ffbbb1"/><use xlink:href="#a" transform="matrix(1,0,0,1,798.0000000000042,845) translate(3.049999999999997 27.799999999999997)"/><use xlink:href="#k" transform="matrix(1,0,0,1,798.0000000000042,845) translate(54.95 27.799999999999997)"/><use xlink:href="#j" transform="matrix(1,0,0,1,798.0000000000042,845) translate(15 49.4)"/><path d="M463 1068.2c0 6.66-22.4 12.05-50 12.05s-50-5.4-50-12.05v-96.4c0-6.66 22.4-12.05 50-12.05s50 5.4 50 12.05z" stroke="#000" stroke-width="2" fill="#c7e8ac"/><path d="M463 971.8c0 6.66-22.4 12.05-50 12.05s-50-5.4-50-12.05" stroke="#000" stroke-width="2" fill="none"/><use xlink:href="#l" transform="matrix(1,0,0,1,368.0000000000042,988.8499999999999) translate(21.549999999999997 14.69999999999999)"/><use xlink:href="#m" transform="matrix(1,0,0,1,368.0000000000042,988.8499999999999) translate(23.525 36.29999999999999)"/><use xlink:href="#n" transform="matrix(1,0,0,1,368.0000000000042,988.8499999999999) translate(14.524999999999999 57.89999999999999)"/><use xlink:href="#o" transform="matrix(1,0,0,1,368.0000000000042,988.8499999999999) translate(-0.9500000000000028 79.5)"/><path d="M883 1068.45c0 6.66-22.4 12.05-50 12.05s-50-5.4-50-12.05v-96.4c0-6.66 22.4-12.05 50-12.05s50 5.4 50 12.05z" stroke="#000" stroke-width="2" fill="#ffbbb1"/><path d="M883 972.05c0 6.66-22.4 12.05-50 12.05s-50-5.4-50-12.05" stroke="#000" stroke-width="2" fill="none"/><use xlink:href="#l" transform="matrix(1,0,0,1,788.0000000000042,989.1) translate(21.549999999999997 14.69999999999999)"/><use xlink:href="#m" transform="matrix(1,0,0,1,788.0000000000042,989.1) translate(23.525 36.29999999999999)"/><use xlink:href="#n" transform="matrix(1,0,0,1,788.0000000000042,989.1) translate(14.524999999999999 57.89999999999999)"/><use xlink:href="#o" transform="matrix(1,0,0,1,788.0000000000042,989.1) translate(-0.9500000000000028 79.5)"/><path d="M833 521v79.76" stroke="#000" stroke-width="2" fill="none"/><path d="M833 520l1-.04V521h-2v-1.06zM833 615.76l-4.64-14.26h9.28z"/><path d="M833 619l-6-18.5h12zm-3.26-16.5l3.26 10.03 3.26-10.03z"/><use xlink:href="#q" transform="matrix(1,0,0,1,748.1500000000043,533.0666666666666) translate(0 14.4)"/><use xlink:href="#r" transform="matrix(1,0,0,1,748.1500000000043,533.0666666666666) translate(44.95 14.4)"/><use xlink:href="#s" transform="matrix(1,0,0,1,748.1500000000043,533.0666666666666) translate(0 36)"/><use xlink:href="#t" transform="matrix(1,0,0,1,748.1500000000043,533.0666666666666) translate(25.95 36)"/><use xlink:href="#u" transform="matrix(1,0,0,1,748.1500000000043,533.0666666666666) translate(72.9 36)"/><path d="M1359.6 758.74l1.46.1-.12 2-1.5-.1-1.5-.16.22-2zm-10.05-2.4l1.5.56 1.48.48 1.43.4.3.08-.45 1.94-.34-.08-1.5-.42-1.56-.5-1.58-.6-.88-.37.77-1.84zm-9.12-4.88l2.17 1.38 1.94 1.12.62.33-.93 1.76-.66-.35-2-1.15-2.25-1.43-.36-.25 1.14-1.64zm-5.6-4.1l2.04 1.55-1.2 1.6-2.08-1.57-2.7-2.23 1.3-1.54zm-5.66-4.8l-1.33 1.5-4.5-4.02 1.32-1.5zm-7.5-6.7l-1.34 1.5-4.5-4.02 1.33-1.5zm-7.52-6.7l-1.33 1.5-4.5-4 1.33-1.5zm-7.5-6.7l-1.34 1.5-4.5-4 1.34-1.5zm-8.34-7.4l.84.72-1.34 1.5-.76-.7-3.93-2.98 1.22-1.6zm-7.23-5.48l-1.15 1.64-4.95-3.45 1.14-1.64zm-11.3-7.5l2.92 1.85-1.08 1.7-2.9-1.84-2.22-1.3 1-1.74zm-5.96-3.45l.22.12-1 1.73-.18-.1-5.13-2.7.94-1.76zm-12.3-6.12l3.48 1.65-.85 1.8-3.43-1.6-2.03-.86.78-1.86zm-6.47-2.7l.7.28-.77 1.85-.66-.28-4.95-1.84.7-1.87zm-229.1-4.68l-4.43.1-1.64-.05.05-2 1.6.04 4.4-.08zm-10.04-2.05l-.06 2-6.04-.15.05-2zm20.1 1.84l-6.03.13-.05-2 6.04-.12zm10.06-.2l-6.04.12-.04-2 6.04-.12zm-40.23-1.88l-.05 2-6.03-.15.05-2zm50.33 1.64l-.67.04-5.42.12-.04-2 5.36-.1.63-.05zm-65.17-2l4.77.12-.05 2-4.8-.12-1.24-.04.06-2zm-5.28-.17l-.06 2-6.03-.2.06-2zm80.48 1.5l-6.02.4-.13-2 6.02-.4zm-90.53-1.82l-.07 2-6.03-.2.06-2zm-10.06-.3l-.05 2-6.03-.2.06-2zm110.64 1.46l-6.02.4-.14-2 6.03-.4zm-120.68-1.8l-.07 2-6.04-.18.06-2zm-10.06-.3l-.06 2-6.04-.2.07-2zm140.78 1.45l-6.03.38-.13-2 6.03-.4zm-150.84-1.77l-.06 2-6.03-.2.06-2zm-10.05-.32l-.07 2-6.04-.18.06-2zm170.92 1.43l-6.03.4-.14-2 6.03-.4zm-181-1.73l-.05 2-6.03-.2.06-2zm-10.04-.3l-.07 1.98-3-.1.06-2zm201.08 1.37l-6.03.4-.13-2 6.02-.4zm10.03-.66l-6.03.4-.13-2 6.02-.4zM901.38 685.3l-14.14-4.97 14.37-4.3z"/><path d="M902.35 686.7L884 680.26l18.64-5.56zm-11.88-6.3l9.95 3.5.16-6.5z"/><use xlink:href="#v" transform="matrix(1,0,0,1,1118.4874217907018,644.4456938250014) translate(0 14.4)"/><use xlink:href="#w" transform="matrix(1,0,0,1,1118.4874217907018,644.4456938250014) translate(47.95 14.4)"/><use xlink:href="#x" transform="matrix(1,0,0,1,1118.4874217907018,644.4456938250014) translate(0 36)"/><use xlink:href="#y" transform="matrix(1,0,0,1,1118.4874217907018,644.4456938250014) translate(47.95 36)"/><use xlink:href="#z" transform="matrix(1,0,0,1,1118.4874217907018,644.4456938250014) translate(0 57.6)"/><use xlink:href="#A" transform="matrix(1,0,0,1,1118.4874217907018,644.4456938250014) translate(53 57.6)"/><use xlink:href="#B" transform="matrix(1,0,0,1,1118.4874217907018,644.4456938250014) translate(71.95 57.6)"/><use xlink:href="#C" transform="matrix(1,0,0,1,1118.4874217907018,644.4456938250014) translate(87.95 57.6)"/><path d="M20 20h240v334H20z" stroke="#000" stroke-opacity="0" stroke-width="2" fill="#fff" fill-opacity="0"/><g><use xlink:href="#D" transform="matrix(1,0,0,1,25,25) translate(0 14.4)"/><use xlink:href="#E" transform="matrix(1,0,0,1,25,25) translate(37.9 14.4)"/><use xlink:href="#F" transform="matrix(1,0,0,1,25,25) translate(95.85 14.4)"/><use xlink:href="#G" transform="matrix(1,0,0,1,25,25) translate(138.85 14.4)"/><use xlink:href="#H" transform="matrix(1,0,0,1,25,25) translate(191.75 14.4)"/><use xlink:href="#I" transform="matrix(1,0,0,1,25,25) translate(0 36)"/><use xlink:href="#J" transform="matrix(1,0,0,1,25,25) translate(54 36)"/><use xlink:href="#K" transform="matrix(1,0,0,1,25,25) translate(74 36)"/><use xlink:href="#L" transform="matrix(1,0,0,1,25,25) translate(116 36)"/><use xlink:href="#B" transform="matrix(1,0,0,1,25,25) translate(138.95 36)"/><use xlink:href="#M" transform="matrix(1,0,0,1,25,25) translate(154.95 36)"/><use xlink:href="#k" transform="matrix(1,0,0,1,25,25) translate(189.95 36)"/><use xlink:href="#N" transform="matrix(1,0,0,1,25,25) translate(0 57.6)"/><use xlink:href="#O" transform="matrix(1,0,0,1,25,25) translate(54 57.6)"/><use xlink:href="#J" transform="matrix(1,0,0,1,25,25) translate(79 57.6)"/><use xlink:href="#P" transform="matrix(1,0,0,1,25,25) translate(99 57.6)"/><use xlink:href="#M" transform="matrix(1,0,0,1,25,25) translate(107.95 57.6)"/><use xlink:href="#Q" transform="matrix(1,0,0,1,25,25) translate(142.95 57.6)"/><use xlink:href="#R" transform="matrix(1,0,0,1,25,25) translate(0 79.20000000000002)"/><use xlink:href="#S" transform="matrix(1,0,0,1,25,25) translate(0 100.80000000000001)"/><use xlink:href="#D" transform="matrix(1,0,0,1,25,25) translate(0 122.4)"/><use xlink:href="#T" transform="matrix(1,0,0,1,25,25) translate(37.9 122.4)"/><use xlink:href="#U" transform="matrix(1,0,0,1,25,25) translate(96.9 122.4)"/><use xlink:href="#V" transform="matrix(1,0,0,1,25,25) translate(121.9 122.4)"/><use xlink:href="#W" transform="matrix(1,0,0,1,25,25) translate(136.9 122.4)"/><use xlink:href="#X" transform="matrix(1,0,0,1,25,25) translate(191.8 122.4)"/><use xlink:href="#Y" transform="matrix(1,0,0,1,25,25) translate(0 144)"/><use xlink:href="#Z" transform="matrix(1,0,0,1,25,25) translate(13.95 144)"/><use xlink:href="#aa" transform="matrix(1,0,0,1,25,25) translate(47.95 144)"/><use xlink:href="#ab" transform="matrix(1,0,0,1,25,25) translate(114.85000000000001 144)"/><use xlink:href="#ac" transform="matrix(1,0,0,1,25,25) translate(190.8 144)"/><use xlink:href="#ad" transform="matrix(1,0,0,1,25,25) translate(0 165.6)"/><use xlink:href="#ae" transform="matrix(1,0,0,1,25,25) translate(40 165.6)"/><use xlink:href="#S" transform="matrix(1,0,0,1,25,25) translate(0 187.2)"/><use xlink:href="#af" transform="matrix(1,0,0,1,25,25) translate(0 208.79999999999998)"/><use xlink:href="#ag" transform="matrix(1,0,0,1,25,25) translate(49.85 208.79999999999998)"/><use xlink:href="#ah" transform="matrix(1,0,0,1,25,25) translate(115.80000000000001 208.79999999999998)"/><use xlink:href="#ai" transform="matrix(1,0,0,1,25,25) translate(163.75 208.79999999999998)"/><use xlink:href="#aj" transform="matrix(1,0,0,1,25,25) translate(185.75 208.79999999999998)"/><use xlink:href="#ak" transform="matrix(1,0,0,1,25,25) translate(0 230.39999999999998)"/><use xlink:href="#al" transform="matrix(1,0,0,1,25,25) translate(61.95 230.39999999999998)"/><use xlink:href="#am" transform="matrix(1,0,0,1,25,25) translate(91.95 230.39999999999998)"/><use xlink:href="#d" transform="matrix(1,0,0,1,25,25) translate(138.9 230.39999999999998)"/><use xlink:href="#an" transform="matrix(1,0,0,1,25,25) translate(147.85 230.39999999999998)"/><use xlink:href="#ao" transform="matrix(1,0,0,1,25,25) translate(0 251.99999999999997)"/><use xlink:href="#V" transform="matrix(1,0,0,1,25,25) translate(55.85 251.99999999999997)"/><use xlink:href="#ap" transform="matrix(1,0,0,1,25,25) translate(70.85 251.99999999999997)"/><use xlink:href="#m" transform="matrix(1,0,0,1,25,25) translate(118.8 251.99999999999997)"/><use xlink:href="#aq" transform="matrix(1,0,0,1,25,25) translate(0 273.59999999999997)"/><use xlink:href="#M" transform="matrix(1,0,0,1,25,25) translate(69.9 273.59999999999997)"/><use xlink:href="#ar" transform="matrix(1,0,0,1,25,25) translate(104.9 273.59999999999997)"/><use xlink:href="#A" transform="matrix(1,0,0,1,25,25) translate(158.85000000000002 273.59999999999997)"/><use xlink:href="#as" transform="matrix(1,0,0,1,25,25) translate(177.8 273.59999999999997)"/><use xlink:href="#at" transform="matrix(1,0,0,1,25,25) translate(0 295.2)"/><use xlink:href="#al" transform="matrix(1,0,0,1,25,25) translate(79 295.2)"/><use xlink:href="#au" transform="matrix(1,0,0,1,25,25) translate(109 295.2)"/><use xlink:href="#av" transform="matrix(1,0,0,1,25,25) translate(0 316.8)"/></g><path d="M1322 20h240v398.8h-240z" stroke="#000" stroke-opacity="0" stroke-width="2" fill="#fff" fill-opacity="0"/><g><use xlink:href="#af" transform="matrix(1,0,0,1,1327.000000000004,25) translate(0 14.4)"/><use xlink:href="#ag" transform="matrix(1,0,0,1,1327.000000000004,25) translate(49.85 14.4)"/><use xlink:href="#aw" transform="matrix(1,0,0,1,1327.000000000004,25) translate(115.80000000000001 14.4)"/><use xlink:href="#ah" transform="matrix(1,0,0,1,1327.000000000004,25) translate(140.8 14.4)"/><use xlink:href="#ax" transform="matrix(1,0,0,1,1327.000000000004,25) translate(188.75 14.4)"/><use xlink:href="#ay" transform="matrix(1,0,0,1,1327.000000000004,25) translate(210.75 14.4)"/><use xlink:href="#az" transform="matrix(1,0,0,1,1327.000000000004,25) translate(0 36)"/><use xlink:href="#aA" transform="matrix(1,0,0,1,1327.000000000004,25) translate(53.95 36)"/><use xlink:href="#aB" transform="matrix(1,0,0,1,1327.000000000004,25) translate(67.9 36)"/><use xlink:href="#ak" transform="matrix(1,0,0,1,1327.000000000004,25) translate(105.80000000000001 36)"/><use xlink:href="#aC" transform="matrix(1,0,0,1,1327.000000000004,25) translate(167.75 36)"/><use xlink:href="#aD" transform="matrix(1,0,0,1,1327.000000000004,25) translate(0 57.6)"/><use xlink:href="#aE" transform="matrix(1,0,0,1,1327.000000000004,25) translate(92.9 57.6)"/><use xlink:href="#aF" transform="matrix(1,0,0,1,1327.000000000004,25) translate(155.8 57.6)"/><use xlink:href="#aG" transform="matrix(1,0,0,1,1327.000000000004,25) translate(0 79.20000000000002)"/><use xlink:href="#aH" transform="matrix(1,0,0,1,1327.000000000004,25) translate(97.30000000000001 79.20000000000002)"/><use xlink:href="#H" transform="matrix(1,0,0,1,1327.000000000004,25) translate(164.15000000000003 79.20000000000002)"/><use xlink:href="#aI" transform="matrix(1,0,0,1,1327.000000000004,25) translate(0 100.80000000000001)"/><use xlink:href="#aJ" transform="matrix(1,0,0,1,1327.000000000004,25) translate(86.9 100.80000000000001)"/><use xlink:href="#aK" transform="matrix(1,0,0,1,1327.000000000004,25) translate(111.9 100.80000000000001)"/><use xlink:href="#aL" transform="matrix(1,0,0,1,1327.000000000004,25) translate(193.8 100.80000000000001)"/><use xlink:href="#B" transform="matrix(1,0,0,1,1327.000000000004,25) translate(0 122.4)"/><use xlink:href="#ah" transform="matrix(1,0,0,1,1327.000000000004,25) translate(16 122.4)"/><use xlink:href="#am" transform="matrix(1,0,0,1,1327.000000000004,25) translate(63.95 122.4)"/><use xlink:href="#aM" transform="matrix(1,0,0,1,1327.000000000004,25) translate(110.9 122.4)"/><use xlink:href="#S" transform="matrix(1,0,0,1,1327.000000000004,25) translate(0 144)"/><use xlink:href="#D" transform="matrix(1,0,0,1,1327.000000000004,25) translate(0 165.6)"/><use xlink:href="#aN" transform="matrix(1,0,0,1,1327.000000000004,25) translate(37.9 165.6)"/><use xlink:href="#aO" transform="matrix(1,0,0,1,1327.000000000004,25) translate(104.80000000000001 165.6)"/><use xlink:href="#aP" transform="matrix(1,0,0,1,1327.000000000004,25) translate(0 187.2)"/><use xlink:href="#aQ" transform="matrix(1,0,0,1,1327.000000000004,25) translate(118.85000000000001 187.2)"/><use xlink:href="#aR" transform="matrix(1,0,0,1,1327.000000000004,25) translate(175.75 187.2)"/><use xlink:href="#aS" transform="matrix(1,0,0,1,1327.000000000004,25) translate(0 208.79999999999998)"/><use xlink:href="#S" transform="matrix(1,0,0,1,1327.000000000004,25) translate(0 230.39999999999998)"/><use xlink:href="#aT" transform="matrix(1,0,0,1,1327.000000000004,25) translate(0 251.99999999999997)"/><use xlink:href="#al" transform="matrix(1,0,0,1,1327.000000000004,25) translate(87.9 251.99999999999997)"/><use xlink:href="#aU" transform="matrix(1,0,0,1,1327.000000000004,25) translate(117.9 251.99999999999997)"/><use xlink:href="#aV" transform="matrix(1,0,0,1,1327.000000000004,25) translate(0 273.59999999999997)"/><use xlink:href="#am" transform="matrix(1,0,0,1,1327.000000000004,25) translate(50 273.59999999999997)"/><use xlink:href="#d" transform="matrix(1,0,0,1,1327.000000000004,25) translate(96.95 273.59999999999997)"/><use xlink:href="#aE" transform="matrix(1,0,0,1,1327.000000000004,25) translate(105.9 273.59999999999997)"/><use xlink:href="#aF" transform="matrix(1,0,0,1,1327.000000000004,25) translate(168.8 273.59999999999997)"/><use xlink:href="#aW" transform="matrix(1,0,0,1,1327.000000000004,25) translate(0 295.2)"/><use xlink:href="#B" transform="matrix(1,0,0,1,1327.000000000004,25) translate(45 295.2)"/><use xlink:href="#aX" transform="matrix(1,0,0,1,1327.000000000004,25) translate(61 295.2)"/><use xlink:href="#aY" transform="matrix(1,0,0,1,1327.000000000004,25) translate(78.95 295.2)"/><use xlink:href="#aZ" transform="matrix(1,0,0,1,1327.000000000004,25) translate(152.9 295.2)"/><use xlink:href="#aO" transform="matrix(1,0,0,1,1327.000000000004,25) translate(189.8 295.2)"/><use xlink:href="#ba" transform="matrix(1,0,0,1,1327.000000000004,25) translate(0 316.8)"/><use xlink:href="#aE" transform="matrix(1,0,0,1,1327.000000000004,25) translate(93.8 316.8)"/><use xlink:href="#aF" transform="matrix(1,0,0,1,1327.000000000004,25) translate(156.7 316.8)"/><use xlink:href="#am" transform="matrix(1,0,0,1,1327.000000000004,25) translate(0 338.40000000000003)"/><use xlink:href="#bb" transform="matrix(1,0,0,1,1327.000000000004,25) translate(46.95 338.40000000000003)"/><use xlink:href="#aw" transform="matrix(1,0,0,1,1327.000000000004,25) translate(55.900000000000006 338.40000000000003)"/><use xlink:href="#aW" transform="matrix(1,0,0,1,1327.000000000004,25) translate(80.9 338.40000000000003)"/><use xlink:href="#ax" transform="matrix(1,0,0,1,1327.000000000004,25) translate(125.9 338.40000000000003)"/><use xlink:href="#M" transform="matrix(1,0,0,1,1327.000000000004,25) translate(147.9 338.40000000000003)"/><use xlink:href="#aO" transform="matrix(1,0,0,1,1327.000000000004,25) translate(182.9 338.40000000000003)"/><use xlink:href="#ap" transform="matrix(1,0,0,1,1327.000000000004,25) translate(0 360.00000000000006)"/><use xlink:href="#ah" transform="matrix(1,0,0,1,1327.000000000004,25) translate(47.95 360.00000000000006)"/><use xlink:href="#bc" transform="matrix(1,0,0,1,1327.000000000004,25) translate(95.9 360.00000000000006)"/><use xlink:href="#bd" transform="matrix(1,0,0,1,1327.000000000004,25) translate(161.8 360.00000000000006)"/><use xlink:href="#be" transform="matrix(1,0,0,1,1327.000000000004,25) translate(214.8 360.00000000000006)"/><use xlink:href="#bf" transform="matrix(1,0,0,1,1327.000000000004,25) translate(0 381.6000000000001)"/><use xlink:href="#bg" transform="matrix(1,0,0,1,1327.000000000004,25) translate(64.9 381.6000000000001)"/></g><path d="M1362 559.75h128l32 23.85v55.65h-160z" stroke="#000" stroke-width="2" fill="#ffbbb1"/><g><use xlink:href="#c" transform="matrix(1,0,0,1,1362.000000000004,559.75) translate(48.055 44.4)"/><use xlink:href="#bh" transform="matrix(1,0,0,1,1362.000000000004,559.75) translate(97.005 44.4)"/></g><path d="M1442 739.5v-81" fill="none"/><path d="M1442 739.5v-3.04m0-4.05v-6.07m0-4.05v-6.07m0-4.04v-6.08m0-4.05v-6.08m0-4.05v-6.07m0-4.05v-6.08m0-4.05v-6.08m0-4.05v-3.03" stroke="#000" stroke-width="2" fill="none"/><path d="M1443 740.5h-2v-1h2zM1446.64 657.75h-9.28l4.64-14.26z"/><path d="M1448 658.75h-12l6-18.5zm-9.26-2h6.52l-3.26-10.03z"/><path d="M454 480h319.76" stroke="#000" stroke-width="2" fill="none"/><path d="M454 481h-1.06l.06-1-.04-1H454zM788.76 480l-14.26 4.64v-9.28z"/><path d="M792 480l-18.5 6v-12zm-16.5 3.26l10.03-3.26-10.03-3.26z"/><path d="M543 521.83h128l32 32v128H543z" stroke="#d9be60" stroke-width="2" fill="#ffdf71"/><path d="M671 521.83v32h32" fill="#d9be60"/><g><use xlink:href="#bi" transform="matrix(1,0,0,1,548.0000000000042,526.8333333333334) translate(48.55 57)"/><use xlink:href="#bj" transform="matrix(1,0,0,1,548.0000000000042,526.8333333333334) translate(97.5 57)"/><use xlink:href="#bk" transform="matrix(1,0,0,1,548.0000000000042,526.8333333333334) translate(59.025 78.60000000000001)"/><use xlink:href="#bl" transform="matrix(1,0,0,1,548.0000000000042,526.8333333333334) translate(69.975 78.60000000000001)"/><use xlink:href="#bm" transform="matrix(1,0,0,1,548.0000000000042,526.8333333333334) translate(59.025 100.20000000000002)"/><use xlink:href="#bn" transform="matrix(1,0,0,1,548.0000000000042,526.8333333333334) translate(69.975 100.20000000000002)"/></g><path d="M623 520.83V480" stroke="#000" stroke-width="2" fill="none"/><path d="M624 521.83h-2v-1h2z"/><path d="M221 640h75.5V480h57.26" stroke="#000" stroke-width="2" fill="none"/><path d="M221 641h-1v-2h1zM368.76 480l-14.26 4.64v-9.28z"/><path d="M372 480l-18.5 6v-12zm-16.5 3.26l10.03-3.26-10.03-3.26z"/><path d="M783 582.08h32.1l7.9 7.9v31.6h-40z" stroke="#d9be60" stroke-width="2" fill="#ffdf71"/><path d="M815.1 582.08v7.9h7.9" fill="#d9be60"/><g><use xlink:href="#bo" transform="matrix(1,0,0,1,788.0000000000039,587.0833333333334) translate(3.0250000000000004 18.6)"/><use xlink:href="#bp" transform="matrix(1,0,0,1,788.0000000000039,587.0833333333334) translate(11.975 18.6)"/></g><path d="M1143 529.88h32.1l7.9 7.9v31.6h-40z" stroke="#d9be60" stroke-width="2" fill="#ffdf71"/><path d="M1175.1 529.88v7.9h7.9" fill="#d9be60"/><g><use xlink:href="#bo" transform="matrix(1,0,0,1,1148.000000000004,534.875) translate(3.0250000000000004 18.6)"/><use xlink:href="#bp" transform="matrix(1,0,0,1,1148.000000000004,534.875) translate(11.975 18.6)"/></g><path d="M1193 549.63c0 16.36-13.43 29.62-30 29.62s-30-13.26-30-29.63c0-16.36 13.43-29.62 30-29.62s30 13.26 30 29.63zm-51.22-20.96l42.44 41.9m-42.44 0l42.44-41.9" fill-opacity="0"/><path d="M1192.2 556.1l-.8 3.1-.98 2.22m-1.7 3.32l-2.02 3.05-1.33 1.42m-2.63 2.65l-3.4 2.6-1.18.63m-3.3 1.74l-4.7 1.56-.66.1m-3.7.58l-.62.1-2.18.07-2.8-.23m-3.7-.55l-3.43-.88-1.88-.85m-3.37-1.63l-3.5-2.3-1.04-.97m-2.73-2.57l-2.92-3.8-.4-.73m-1.74-3.3l-.15-.3-1.53-4.6-.06-.43m-.58-3.7l-.1-.7-.08-2.1.23-2.8m.58-3.68l.8-3.1.98-2.2m1.7-3.33l2.02-3.04 1.33-1.43m2.63-2.65l3.4-2.6 1.18-.63m3.3-1.74l4.7-1.55.66-.1m3.7-.58l.62-.1 2.18-.07 2.8.23m3.7.55l3.43.88 1.88.84m3.37 1.63l3.5 2.3 1.04.97m2.73 2.57l2.92 3.8.4.73m1.74 3.3l.15.3 1.53 4.6.06.43m.58 3.7l.1.7.08 2.1-.23 2.8m-51-23.76l2.14 2.1m2.83 2.8l4.25 4.18m2.83 2.8l4.25 4.2m2.83 2.78l4.24 4.2m2.83 2.78l4.24 4.2m2.82 2.8l4.25 4.2m2.82 2.78l2.12 2.1m-42.44 0l2.13-2.1m2.83-2.8l4.25-4.18m2.83-2.8l4.25-4.2m2.83-2.78l4.24-4.2m2.83-2.78l4.24-4.2m2.82-2.8l4.25-4.18m2.82-2.8l2.12-2.1" stroke="#c92d39" stroke-width="2" fill="none"/><path d="M887.05 681.2l-3.03.05-.04-2 3.02-.06zm10.1-.47l-6.03.37-.13-2 6.03-.37zm10.1-1.17l-3.16.47-2.9.3-.2-2 2.84-.3 3.1-.45zm9.98-1.85l-1.6.38-4.37.84-.37-1.97 4.32-.83 1.55-.36zm9.8-2.6l-.8.26-5.04 1.4-.55-1.9 5-1.4.77-.26zm9.6-3.38l-.37.15-4.96 1.85-.43.14-.6-1.9.38-.13 4.87-1.82.32-.12zm9.23-4.12l-4.7 2.22-.83.34-.77-1.84.78-.33 4.66-2.2zm8.9-4.86l-3.86 2.23-1.43.75-.93-1.77 1.4-.73 3.83-2.22zm8.55-5.5l-2.34 1.63-2.72 1.73-1.08-1.7 2.7-1.7 2.3-1.6zm8.16-6l-4.82 3.66-1.2-1.6 4.8-3.65zm7.8-6.5l-.87.8-3.8 3.12-1.27-1.54 3.75-3.1.85-.76zm7.5-6.8l-.78.74-3.72 3.36-1.34-1.48 3.7-3.33.72-.72zm7.17-7.07l-4.3 4.24-1.4-1.42 4.3-4.24zm7.12-7.16l-4 4.1-.25.24-1.4-1.42.24-.24 3.4-3.47h1.2zm86.52-66.37l-2.22.72-.18.06h-3.7l-.26-.65 3.5-1.3 2.25-.72zm9.6-2.73l-1.7.4-4.1 1.14-.53-1.93 4.13-1.14 1.75-.4zm9.8-2l-.64.1-5.27 1-.37-1.97 5.3-1 .67-.1zm6.94-.95l-1.74.18-1.2.18-.3-1.97 1.25-.18 1.8-.2z"/><path d="M884.05 681.25l-1.05.05v-2l.96-.05zM1128.77 549.8l-13.98 5.44-.54-9.25z"/><path d="M1132 549.63l-18.13 7.04-.68-12zm-16.3 4.18l9.84-3.8-10.2-2.7z"/><g><use xlink:href="#bq" transform="matrix(1,0,0,1,978.810423182033,558.113845907111) translate(0 14.4)"/><use xlink:href="#br" transform="matrix(1,0,0,1,978.810423182033,558.113845907111) translate(44.900000000000006 14.4)"/><use xlink:href="#s" transform="matrix(1,0,0,1,978.810423182033,558.113845907111) translate(0 36)"/><use xlink:href="#t" transform="matrix(1,0,0,1,978.810423182033,558.113845907111) translate(25.95 36)"/><use xlink:href="#bs" transform="matrix(1,0,0,1,978.810423182033,558.113845907111) translate(72.9 36)"/><use xlink:href="#bt" transform="matrix(1,0,0,1,978.810423182033,558.113845907111) translate(0 57.6)"/><use xlink:href="#bu" transform="matrix(1,0,0,1,978.810423182033,558.113845907111) translate(24 57.6)"/></g><path d="M1083 420h240v60h-240z" stroke="#000" stroke-opacity="0" stroke-width="2" fill="#fff" fill-opacity="0"/><g><use xlink:href="#bv" transform="matrix(1,0,0,1,1088.000000000004,425) translate(73.59259259259258 30.333333333333336)"/></g><path d="M20 800h160l40 72v168H20z" stroke="#000" stroke-width="2" fill="#c7e8ac"/><g><use xlink:href="#c" transform="matrix(1,0,0,1,20,800) translate(5.01 19.41)"/><use xlink:href="#bw" transform="matrix(1,0,0,1,20,800) translate(53.96 19.41)"/><use xlink:href="#bx" transform="matrix(1,0,0,1,20,800) translate(5.01 41.01)"/><use xlink:href="#by" transform="matrix(1,0,0,1,20,800) translate(5.01 62.61)"/><use xlink:href="#bz" transform="matrix(1,0,0,1,20,800) translate(15.959999999999999 62.61)"/><use xlink:href="#bA" transform="matrix(1,0,0,1,20,800) translate(36.01 84.21000000000001)"/><use xlink:href="#bB" transform="matrix(1,0,0,1,20,800) translate(46.959999999999994 84.21000000000001)"/><use xlink:href="#bC" transform="matrix(1,0,0,1,20,800) translate(117.76 84.21000000000001)"/><use xlink:href="#bA" transform="matrix(1,0,0,1,20,800) translate(36.01 105.81)"/><use xlink:href="#bD" transform="matrix(1,0,0,1,20,800) translate(46.959999999999994 105.81)"/><use xlink:href="#bE" transform="matrix(1,0,0,1,20,800) translate(107.91 105.81)"/><use xlink:href="#by" transform="matrix(1,0,0,1,20,800) translate(5.01 127.41)"/><use xlink:href="#bF" transform="matrix(1,0,0,1,20,800) translate(15.959999999999999 127.41)"/><use xlink:href="#bG" transform="matrix(1,0,0,1,20,800) translate(36.01 149.01)"/><use xlink:href="#bH" transform="matrix(1,0,0,1,20,800) translate(112.75999999999999 149.01)"/><use xlink:href="#bA" transform="matrix(1,0,0,1,20,800) translate(36.01 170.60999999999999)"/><use xlink:href="#bD" transform="matrix(1,0,0,1,20,800) translate(46.959999999999994 170.60999999999999)"/><use xlink:href="#bI" transform="matrix(1,0,0,1,20,800) translate(107.91 170.60999999999999)"/><use xlink:href="#bJ" transform="matrix(1,0,0,1,20,800) translate(5.01 192.20999999999998)"/></g><path d="M1362 740.5h128l32 60v140h-160z" stroke="#000" stroke-width="2" fill="#ffbbb1"/><g><use xlink:href="#c" transform="matrix(1,0,0,1,1362.000000000004,740.5) translate(5.01 58.15)"/><use xlink:href="#bK" transform="matrix(1,0,0,1,1362.000000000004,740.5) translate(53.96 58.15)"/><use xlink:href="#by" transform="matrix(1,0,0,1,1362.000000000004,740.5) translate(5.01 79.75)"/><use xlink:href="#bL" transform="matrix(1,0,0,1,1362.000000000004,740.5) translate(15.959999999999999 79.75)"/><use xlink:href="#bA" transform="matrix(1,0,0,1,1362.000000000004,740.5) translate(36.01 101.35)"/><use xlink:href="#bM" transform="matrix(1,0,0,1,1362.000000000004,740.5) translate(46.959999999999994 101.35)"/><use xlink:href="#bw" transform="matrix(1,0,0,1,1362.000000000004,740.5) translate(133.86 101.35)"/><use xlink:href="#bA" transform="matrix(1,0,0,1,1362.000000000004,740.5) translate(36.01 122.94999999999999)"/><use xlink:href="#bN" transform="matrix(1,0,0,1,1362.000000000004,740.5) translate(46.959999999999994 122.94999999999999)"/><use xlink:href="#bC" transform="matrix(1,0,0,1,1362.000000000004,740.5) translate(93.96 122.94999999999999)"/><use xlink:href="#bA" transform="matrix(1,0,0,1,1362.000000000004,740.5) translate(36.01 144.54999999999998)"/><use xlink:href="#bO" transform="matrix(1,0,0,1,1362.000000000004,740.5) translate(46.959999999999994 144.54999999999998)"/><use xlink:href="#bP" transform="matrix(1,0,0,1,1362.000000000004,740.5) translate(93.96 144.54999999999998)"/></g><defs><path d="M212-179c-10-28-35-45-73-45-59 0-87 40-87 99 0 60 29 101 89 101 43 0 62-24 78-52l27 14C228-24 195 4 139 4 59 4 22-46 18-125c-6-104 99-153 187-111 19 9 31 26 39 46" id="bQ"/><path d="M106-169C34-169 62-67 57 0H25v-261h32l-1 103c12-21 28-36 61-36 89 0 53 116 60 194h-32v-121c2-32-8-49-39-48" id="bR"/><path d="M141-36C126-15 110 5 73 4 37 3 15-17 15-53c-1-64 63-63 125-63 3-35-9-54-41-54-24 1-41 7-42 31l-33-3c5-37 33-52 76-52 45 0 72 20 72 64v82c-1 20 7 32 28 27v20c-31 9-61-2-59-35zM48-53c0 20 12 33 32 33 41-3 63-29 60-74-43 2-92-5-92 41" id="bS"/><path d="M24-231v-30h32v30H24zM24 0v-190h32V0H24" id="bT"/><path d="M117-194c89-4 53 116 60 194h-32v-121c0-31-8-49-39-48C34-167 62-67 57 0H25l-1-190h30c1 10-1 24 2 32 11-22 29-35 61-36" id="bU"/><g id="a"><use transform="matrix(0.05,0,0,0.05,0,0)" xlink:href="#bQ"/><use transform="matrix(0.05,0,0,0.05,12.950000000000001,0)" xlink:href="#bR"/><use transform="matrix(0.05,0,0,0.05,22.950000000000003,0)" xlink:href="#bS"/><use transform="matrix(0.05,0,0,0.05,32.95,0)" xlink:href="#bT"/><use transform="matrix(0.05,0,0,0.05,36.900000000000006,0)" xlink:href="#bU"/></g><path d="M205 0l-28-72H64L36 0H1l101-248h38L239 0h-34zm-38-99l-47-123c-12 45-31 82-46 123h93" id="bV"/><use transform="matrix(0.05,0,0,0.05,0,0)" xlink:href="#bV" id="b"/><path d="M160-131c35 5 61 23 61 61C221 17 115-2 30 0v-248c76 3 177-17 177 60 0 33-19 50-47 57zm-97-11c50-1 110 9 110-42 0-47-63-36-110-37v79zm0 115c55-2 124 14 124-45 0-56-70-42-124-44v89" id="bW"/><path d="M24 0v-261h32V0H24" id="bX"/><path d="M100-194c62-1 85 37 85 99 1 63-27 99-86 99S16-35 15-95c0-66 28-99 85-99zM99-20c44 1 53-31 53-75 0-43-8-75-51-75s-53 32-53 75 10 74 51 75" id="bY"/><path d="M96-169c-40 0-48 33-48 73s9 75 48 75c24 0 41-14 43-38l32 2c-6 37-31 61-74 61-59 0-76-41-82-99-10-93 101-131 147-64 4 7 5 14 7 22l-32 3c-4-21-16-35-41-35" id="bZ"/><path d="M143 0L79-87 56-68V0H24v-261h32v163l83-92h37l-77 82L181 0h-38" id="ca"/><g id="c"><use transform="matrix(0.05,0,0,0.05,0,0)" xlink:href="#bW"/><use transform="matrix(0.05,0,0,0.05,12,0)" xlink:href="#bX"/><use transform="matrix(0.05,0,0,0.05,15.949999999999998,0)" xlink:href="#bY"/><use transform="matrix(0.05,0,0,0.05,25.950000000000003,0)" xlink:href="#bZ"/><use transform="matrix(0.05,0,0,0.05,34.95,0)" xlink:href="#ca"/></g><use transform="matrix(0.05,0,0,0.05,0,0)" xlink:href="#bT" id="d"/><path d="M118-107v75H92v-75H18v-26h74v-75h26v75h74v26h-74" id="cb"/><use transform="matrix(0.05,0,0,0.05,0,0)" xlink:href="#cb" id="e"/><path d="M27 0v-27h64v-190l-56 39v-29l58-41h29v221h61V0H27" id="cc"/><use transform="matrix(0.05,0,0,0.05,0,0)" xlink:href="#cc" id="f"/><path d="M210-169c-67 3-38 105-44 169h-31v-121c0-29-5-50-35-48C34-165 62-65 56 0H25l-1-190h30c1 10-1 24 2 32 10-44 99-50 107 0 11-21 27-35 58-36 85-2 47 119 55 194h-31v-121c0-29-5-49-35-48" id="cd"/><path d="M141 0L90-78 38 0H4l68-98-65-92h35l48 74 47-74h35l-64 92 68 98h-35" id="ce"/><path d="M233-177c-1 41-23 64-60 70L243 0h-38l-65-103H63V0H30v-248c88 3 205-21 203 71zM63-129c60-2 137 13 137-47 0-61-80-42-137-45v92" id="cf"/><path d="M100-194c63 0 86 42 84 106H49c0 40 14 67 53 68 26 1 43-12 49-29l28 8c-11 28-37 45-77 45C44 4 14-33 15-96c1-61 26-98 85-98zm52 81c6-60-76-77-97-28-3 7-6 17-6 28h103" id="cg"/><path d="M114-163C36-179 61-72 57 0H25l-1-190h30c1 12-1 29 2 39 6-27 23-49 58-41v29" id="ch"/><path d="M177-190C167-65 218 103 67 71c-23-6-38-20-44-43l32-5c15 47 100 32 89-28v-30C133-14 115 1 83 1 29 1 15-40 15-95c0-56 16-97 71-98 29-1 48 16 59 35 1-10 0-23 2-32h30zM94-22c36 0 50-32 50-73 0-42-14-75-50-75-39 0-46 34-46 75s6 73 46 73" id="ci"/><g id="g"><use transform="matrix(0.05,0,0,0.05,0,0)" xlink:href="#cd"/><use transform="matrix(0.05,0,0,0.05,14.950000000000001,0)" xlink:href="#bS"/><use transform="matrix(0.05,0,0,0.05,24.950000000000003,0)" xlink:href="#ce"/><use transform="matrix(0.05,0,0,0.05,33.95,0)" xlink:href="#cf"/><use transform="matrix(0.05,0,0,0.05,46.900000000000006,0)" xlink:href="#cg"/><use transform="matrix(0.05,0,0,0.05,56.900000000000006,0)" xlink:href="#bY"/><use transform="matrix(0.05,0,0,0.05,66.9,0)" xlink:href="#ch"/><use transform="matrix(0.05,0,0,0.05,72.85000000000001,0)" xlink:href="#ci"/></g><use transform="matrix(0.05,0,0,0.05,0,0)" xlink:href="#bX" id="h"/><use transform="matrix(0.05,0,0,0.05,0,0)" xlink:href="#bV" id="i"/><path d="M85-194c31 0 48 13 60 33l-1-100h32l1 261h-30c-2-10 0-23-3-31C134-8 116 4 85 4 32 4 16-35 15-94c0-66 23-100 70-100zm9 24c-40 0-46 34-46 75 0 40 6 74 45 74 42 0 51-32 51-76 0-42-9-74-50-73" id="cj"/><g id="j"><use transform="matrix(0.05,0,0,0.05,0,0)" xlink:href="#bU"/><use transform="matrix(0.05,0,0,0.05,10,0)" xlink:href="#bY"/><use transform="matrix(0.05,0,0,0.05,20,0)" xlink:href="#cj"/><use transform="matrix(0.05,0,0,0.05,30,0)" xlink:href="#cg"/></g><use transform="matrix(0.05,0,0,0.05,0,0)" xlink:href="#bW" id="k"/><path d="M135-143c-3-34-86-38-87 0 15 53 115 12 119 90S17 21 10-45l28-5c4 36 97 45 98 0-10-56-113-15-118-90-4-57 82-63 122-42 12 7 21 19 24 35" id="ck"/><g id="l"><use transform="matrix(0.05,0,0,0.05,0,0)" xlink:href="#bQ"/><use transform="matrix(0.05,0,0,0.05,12.950000000000001,0)" xlink:href="#ch"/><use transform="matrix(0.05,0,0,0.05,18.900000000000002,0)" xlink:href="#bY"/><use transform="matrix(0.05,0,0,0.05,28.900000000000002,0)" xlink:href="#ck"/><use transform="matrix(0.05,0,0,0.05,37.900000000000006,0)" xlink:href="#ck"/></g><g id="m"><use transform="matrix(0.05,0,0,0.05,0,0)" xlink:href="#bZ"/><use transform="matrix(0.05,0,0,0.05,9,0)" xlink:href="#bR"/><use transform="matrix(0.05,0,0,0.05,19,0)" xlink:href="#bS"/><use transform="matrix(0.05,0,0,0.05,29,0)" xlink:href="#bT"/><use transform="matrix(0.05,0,0,0.05,32.95,0)" xlink:href="#bU"/></g><g id="n"><use transform="matrix(0.05,0,0,0.05,0,0)" xlink:href="#ck"/><use transform="matrix(0.05,0,0,0.05,9,0)" xlink:href="#cg"/><use transform="matrix(0.05,0,0,0.05,19,0)" xlink:href="#ck"/><use transform="matrix(0.05,0,0,0.05,28,0)" xlink:href="#ck"/><use transform="matrix(0.05,0,0,0.05,37,0)" xlink:href="#bT"/><use transform="matrix(0.05,0,0,0.05,40.95,0)" xlink:href="#bY"/><use transform="matrix(0.05,0,0,0.05,50.95,0)" xlink:href="#bU"/></g><path d="M115-194c55 1 70 41 70 98S169 2 115 4C84 4 66-9 55-30l1 105H24l-1-265h31l2 30c10-21 28-34 59-34zm-8 174c40 0 45-34 45-75s-6-73-45-74c-42 0-51 32-51 76 0 43 10 73 51 73" id="cl"/><path d="M59-47c-2 24 18 29 38 22v24C64 9 27 4 27-40v-127H5v-23h24l9-43h21v43h35v23H59v120" id="cm"/><g id="o"><use transform="matrix(0.05,0,0,0.05,0,0)" xlink:href="#cl"/><use transform="matrix(0.05,0,0,0.05,10,0)" xlink:href="#cg"/><use transform="matrix(0.05,0,0,0.05,20,0)" xlink:href="#ch"/><use transform="matrix(0.05,0,0,0.05,25.950000000000003,0)" xlink:href="#ck"/><use transform="matrix(0.05,0,0,0.05,34.95,0)" xlink:href="#bT"/><use transform="matrix(0.05,0,0,0.05,38.900000000000006,0)" xlink:href="#ck"/><use transform="matrix(0.05,0,0,0.05,47.900000000000006,0)" xlink:href="#cm"/><use transform="matrix(0.05,0,0,0.05,52.900000000000006,0)" xlink:href="#cg"/><use transform="matrix(0.05,0,0,0.05,62.900000000000006,0)" xlink:href="#bU"/><use transform="matrix(0.05,0,0,0.05,72.9,0)" xlink:href="#bZ"/><use transform="matrix(0.05,0,0,0.05,81.9,0)" xlink:href="#cg"/></g><use transform="matrix(0.05,0,0,0.05,0,0)" xlink:href="#bW" id="p"/><g id="q"><use transform="matrix(0.05,0,0,0.05,0,0)" xlink:href="#ck"/><use transform="matrix(0.05,0,0,0.05,9,0)" xlink:href="#cm"/><use transform="matrix(0.05,0,0,0.05,14,0)" xlink:href="#bY"/><use transform="matrix(0.05,0,0,0.05,24,0)" xlink:href="#ch"/><use transform="matrix(0.05,0,0,0.05,29.950000000000003,0)" xlink:href="#cg"/></g><path d="M101-234c-31-9-42 10-38 44h38v23H63V0H32v-167H5v-23h27c-7-52 17-82 69-68v24" id="cn"/><g id="r"><use transform="matrix(0.05,0,0,0.05,0,0)" xlink:href="#bT"/><use transform="matrix(0.05,0,0,0.05,3.95,0)" xlink:href="#bU"/><use transform="matrix(0.05,0,0,0.05,13.949999999999998,0)" xlink:href="#cn"/><use transform="matrix(0.05,0,0,0.05,18.95,0)" xlink:href="#bY"/></g><g id="s"><use transform="matrix(0.05,0,0,0.05,0,0)" xlink:href="#cn"/><use transform="matrix(0.05,0,0,0.05,5,0)" xlink:href="#bY"/><use transform="matrix(0.05,0,0,0.05,15,0)" xlink:href="#ch"/></g><path d="M115-194c53 0 69 39 70 98 0 66-23 100-70 100C84 3 66-7 56-30L54 0H23l1-261h32v101c10-23 28-34 59-34zm-8 174c40 0 45-34 45-75 0-40-5-75-45-74-42 0-51 32-51 76 0 43 10 73 51 73" id="co"/><g id="t"><use transform="matrix(0.05,0,0,0.05,0,0)" xlink:href="#co"/><use transform="matrix(0.05,0,0,0.05,10,0)" xlink:href="#bX"/><use transform="matrix(0.05,0,0,0.05,13.949999999999998,0)" xlink:href="#bY"/><use transform="matrix(0.05,0,0,0.05,23.95,0)" xlink:href="#bZ"/><use transform="matrix(0.05,0,0,0.05,32.95,0)" xlink:href="#ca"/></g><use transform="matrix(0.05,0,0,0.05,0,0)" xlink:href="#bT" id="u"/><path d="M185-189c-5-48-123-54-124 2 14 75 158 14 163 119 3 78-121 87-175 55-17-10-28-26-33-46l33-7c5 56 141 63 141-1 0-78-155-14-162-118-5-82 145-84 179-34 5 7 8 16 11 25" id="cp"/><g id="v"><use transform="matrix(0.05,0,0,0.05,0,0)" xlink:href="#cp"/><use transform="matrix(0.05,0,0,0.05,12,0)" xlink:href="#cm"/><use transform="matrix(0.05,0,0,0.05,17,0)" xlink:href="#bY"/><use transform="matrix(0.05,0,0,0.05,27,0)" xlink:href="#ch"/><use transform="matrix(0.05,0,0,0.05,32.95,0)" xlink:href="#cg"/></g><g id="w"><use transform="matrix(0.05,0,0,0.05,0,0)" xlink:href="#bZ"/><use transform="matrix(0.05,0,0,0.05,9,0)" xlink:href="#ch"/><use transform="matrix(0.05,0,0,0.05,14.949999999999998,0)" xlink:href="#bY"/><use transform="matrix(0.05,0,0,0.05,24.95,0)" xlink:href="#ck"/><use transform="matrix(0.05,0,0,0.05,33.95,0)" xlink:href="#ck"/></g><g id="x"><use transform="matrix(0.05,0,0,0.05,0,0)" xlink:href="#bZ"/><use transform="matrix(0.05,0,0,0.05,9,0)" xlink:href="#bR"/><use transform="matrix(0.05,0,0,0.05,19,0)" xlink:href="#bS"/><use transform="matrix(0.05,0,0,0.05,29,0)" xlink:href="#bT"/><use transform="matrix(0.05,0,0,0.05,32.95,0)" xlink:href="#bU"/></g><g id="y"><use transform="matrix(0.05,0,0,0.05,0,0)" xlink:href="#ck"/><use transform="matrix(0.05,0,0,0.05,9,0)" xlink:href="#cg"/><use transform="matrix(0.05,0,0,0.05,19,0)" xlink:href="#ck"/><use transform="matrix(0.05,0,0,0.05,28,0)" xlink:href="#ck"/><use transform="matrix(0.05,0,0,0.05,37,0)" xlink:href="#bT"/><use transform="matrix(0.05,0,0,0.05,40.95,0)" xlink:href="#bY"/><use transform="matrix(0.05,0,0,0.05,50.95,0)" xlink:href="#bU"/></g><g id="z"><use transform="matrix(0.05,0,0,0.05,0,0)" xlink:href="#ck"/><use transform="matrix(0.05,0,0,0.05,9,0)" xlink:href="#cm"/><use transform="matrix(0.05,0,0,0.05,14,0)" xlink:href="#bS"/><use transform="matrix(0.05,0,0,0.05,24,0)" xlink:href="#cm"/><use transform="matrix(0.05,0,0,0.05,29,0)" xlink:href="#cg"/><use transform="matrix(0.05,0,0,0.05,39,0)" xlink:href="#ck"/></g><g id="A"><use transform="matrix(0.05,0,0,0.05,0,0)" xlink:href="#bT"/><use transform="matrix(0.05,0,0,0.05,3.95,0)" xlink:href="#bU"/></g><use transform="matrix(0.05,0,0,0.05,0,0)" xlink:href="#bV" id="B"/><g id="C"><use transform="matrix(0.05,0,0,0.05,0,0)" xlink:href="#ck"/><use transform="matrix(0.05,0,0,0.05,9,0)" xlink:href="#cm"/><use transform="matrix(0.05,0,0,0.05,14,0)" xlink:href="#bY"/><use transform="matrix(0.05,0,0,0.05,24,0)" xlink:href="#ch"/><use transform="matrix(0.05,0,0,0.05,29.950000000000003,0)" xlink:href="#cg"/></g><path d="M63-220v92h138v28H63V0H30v-248h175v28H63" id="cq"/><path d="M240 0l2-218c-23 76-54 145-80 218h-23L58-218 59 0H30v-248h44l77 211c21-75 51-140 76-211h43V0h-30" id="cr"/><path d="M101-251c82-7 93 87 43 132L82-64C71-53 59-42 53-27h129V0H18c2-99 128-94 128-182 0-28-16-43-45-43s-46 15-49 41l-32-3c6-41 34-60 81-64" id="cs"/><g id="D"><use transform="matrix(0.05,0,0,0.05,0,0)" xlink:href="#cq"/><use transform="matrix(0.05,0,0,0.05,10.950000000000001,0)" xlink:href="#cr"/><use transform="matrix(0.034999999999999996,0,0,0.034999999999999996,25.900000000000002,2.5199999999999996)" xlink:href="#cs"/></g><g id="E"><use transform="matrix(0.05,0,0,0.05,0,0)" xlink:href="#bZ"/><use transform="matrix(0.05,0,0,0.05,9,0)" xlink:href="#bY"/><use transform="matrix(0.05,0,0,0.05,19,0)" xlink:href="#cd"/><use transform="matrix(0.05,0,0,0.05,33.95,0)" xlink:href="#cg"/><use transform="matrix(0.05,0,0,0.05,43.95,0)" xlink:href="#ck"/></g><g id="F"><use transform="matrix(0.05,0,0,0.05,0,0)" xlink:href="#co"/><use transform="matrix(0.05,0,0,0.05,10,0)" xlink:href="#bS"/><use transform="matrix(0.05,0,0,0.05,20,0)" xlink:href="#bZ"/><use transform="matrix(0.05,0,0,0.05,29,0)" xlink:href="#ca"/></g><g id="G"><use transform="matrix(0.05,0,0,0.05,0,0)" xlink:href="#bY"/><use transform="matrix(0.05,0,0,0.05,10,0)" xlink:href="#bU"/><use transform="matrix(0.05,0,0,0.05,20,0)" xlink:href="#bX"/><use transform="matrix(0.05,0,0,0.05,23.95,0)" xlink:href="#bT"/><use transform="matrix(0.05,0,0,0.05,27.899999999999995,0)" xlink:href="#bU"/><use transform="matrix(0.05,0,0,0.05,37.9,0)" xlink:href="#cg"/></g><g id="H"><use transform="matrix(0.05,0,0,0.05,0,0)" xlink:href="#bS"/><use transform="matrix(0.05,0,0,0.05,10,0)" xlink:href="#bU"/><use transform="matrix(0.05,0,0,0.05,20,0)" xlink:href="#cj"/></g><g id="I"><use transform="matrix(0.05,0,0,0.05,0,0)" xlink:href="#bU"/><use transform="matrix(0.05,0,0,0.05,10,0)" xlink:href="#cg"/><use transform="matrix(0.05,0,0,0.05,20,0)" xlink:href="#cg"/><use transform="matrix(0.05,0,0,0.05,30,0)" xlink:href="#cj"/><use transform="matrix(0.05,0,0,0.05,40,0)" xlink:href="#ck"/></g><g id="J"><use transform="matrix(0.05,0,0,0.05,0,0)" xlink:href="#cm"/><use transform="matrix(0.05,0,0,0.05,5,0)" xlink:href="#bY"/></g><path d="M179-190L93 31C79 59 56 82 12 73V49c39 6 53-20 64-50L1-190h34L92-34l54-156h33" id="ct"/><g id="K"><use transform="matrix(0.05,0,0,0.05,0,0)" xlink:href="#ck"/><use transform="matrix(0.05,0,0,0.05,9,0)" xlink:href="#ct"/><use transform="matrix(0.05,0,0,0.05,18,0)" xlink:href="#bU"/><use transform="matrix(0.05,0,0,0.05,28,0)" xlink:href="#bZ"/></g><g id="L"><use transform="matrix(0.05,0,0,0.05,0,0)" xlink:href="#bT"/><use transform="matrix(0.05,0,0,0.05,3.95,0)" xlink:href="#cm"/><use transform="matrix(0.05,0,0,0.05,8.95,0)" xlink:href="#ck"/></g><g id="M"><use transform="matrix(0.05,0,0,0.05,0,0)" xlink:href="#bS"/><use transform="matrix(0.05,0,0,0.05,10,0)" xlink:href="#bU"/><use transform="matrix(0.05,0,0,0.05,20,0)" xlink:href="#cj"/></g><g id="N"><use transform="matrix(0.05,0,0,0.05,0,0)" xlink:href="#bU"/><use transform="matrix(0.05,0,0,0.05,10,0)" xlink:href="#bY"/><use transform="matrix(0.05,0,0,0.05,20,0)" xlink:href="#cj"/><use transform="matrix(0.05,0,0,0.05,30,0)" xlink:href="#cg"/><use transform="matrix(0.05,0,0,0.05,40,0)" xlink:href="#ck"/></g><path d="M84 4C-5 8 30-112 23-190h32v120c0 31 7 50 39 49 72-2 45-101 50-169h31l1 190h-30c-1-10 1-25-2-33-11 22-28 36-60 37" id="cu"/><g id="O"><use transform="matrix(0.05,0,0,0.05,0,0)" xlink:href="#cu"/><use transform="matrix(0.05,0,0,0.05,10,0)" xlink:href="#cl"/></g><use transform="matrix(0.05,0,0,0.05,0,0)" xlink:href="#bX" id="P"/><use transform="matrix(0.05,0,0,0.05,0,0)" xlink:href="#cd" id="Q"/><path d="M108 0H70L1-190h34L89-25l56-165h34" id="cv"/><path d="M33 0v-38h34V0H33" id="cw"/><g id="R"><use transform="matrix(0.05,0,0,0.05,0,0)" xlink:href="#ch"/><use transform="matrix(0.05,0,0,0.05,5.95,0)" xlink:href="#cg"/><use transform="matrix(0.05,0,0,0.05,15.949999999999998,0)" xlink:href="#ck"/><use transform="matrix(0.05,0,0,0.05,24.95,0)" xlink:href="#cl"/><use transform="matrix(0.05,0,0,0.05,34.95,0)" xlink:href="#cg"/><use transform="matrix(0.05,0,0,0.05,44.95,0)" xlink:href="#bZ"/><use transform="matrix(0.05,0,0,0.05,53.95,0)" xlink:href="#cm"/><use transform="matrix(0.05,0,0,0.05,58.95,0)" xlink:href="#bT"/><use transform="matrix(0.05,0,0,0.05,62.900000000000006,0)" xlink:href="#cv"/><use transform="matrix(0.05,0,0,0.05,71.9,0)" xlink:href="#cg"/><use transform="matrix(0.05,0,0,0.05,81.9,0)" xlink:href="#bX"/><use transform="matrix(0.05,0,0,0.05,85.85000000000001,0)" xlink:href="#ct"/><use transform="matrix(0.05,0,0,0.05,93.50000000000001,0)" xlink:href="#cw"/></g><g id="T"><use transform="matrix(0.05,0,0,0.05,0,0)" xlink:href="#bZ"/><use transform="matrix(0.05,0,0,0.05,9,0)" xlink:href="#bS"/><use transform="matrix(0.05,0,0,0.05,19,0)" xlink:href="#bU"/><use transform="matrix(0.05,0,0,0.05,29,0)" xlink:href="#bU"/><use transform="matrix(0.05,0,0,0.05,39,0)" xlink:href="#bY"/><use transform="matrix(0.05,0,0,0.05,49,0)" xlink:href="#cm"/></g><g id="U"><use transform="matrix(0.05,0,0,0.05,0,0)" xlink:href="#co"/><use transform="matrix(0.05,0,0,0.05,10,0)" xlink:href="#cg"/></g><use transform="matrix(0.05,0,0,0.05,0,0)" xlink:href="#bS" id="V"/><g id="W"><use transform="matrix(0.05,0,0,0.05,0,0)" xlink:href="#bX"/><use transform="matrix(0.05,0,0,0.05,3.95,0)" xlink:href="#cg"/><use transform="matrix(0.05,0,0,0.05,13.949999999999998,0)" xlink:href="#bS"/><use transform="matrix(0.05,0,0,0.05,23.95,0)" xlink:href="#cj"/><use transform="matrix(0.05,0,0,0.05,33.95,0)" xlink:href="#cg"/><use transform="matrix(0.05,0,0,0.05,43.95,0)" xlink:href="#ch"/></g><g id="X"><use transform="matrix(0.05,0,0,0.05,0,0)" xlink:href="#cu"/><use transform="matrix(0.05,0,0,0.05,10,0)" xlink:href="#bU"/><use transform="matrix(0.05,0,0,0.05,20,0)" xlink:href="#cm"/><use transform="matrix(0.05,0,0,0.05,25,0)" xlink:href="#bT"/><use transform="matrix(0.05,0,0,0.05,28.950000000000003,0)" xlink:href="#bX"/></g><g id="Y"><use transform="matrix(0.05,0,0,0.05,0,0)" xlink:href="#bT"/><use transform="matrix(0.05,0,0,0.05,3.95,0)" xlink:href="#cm"/></g><g id="Z"><use transform="matrix(0.05,0,0,0.05,0,0)" xlink:href="#bR"/><use transform="matrix(0.05,0,0,0.05,10,0)" xlink:href="#bS"/><use transform="matrix(0.05,0,0,0.05,20,0)" xlink:href="#ck"/></g><g id="aa"><use transform="matrix(0.05,0,0,0.05,0,0)" xlink:href="#cn"/><use transform="matrix(0.05,0,0,0.05,5,0)" xlink:href="#bT"/><use transform="matrix(0.05,0,0,0.05,8.95,0)" xlink:href="#bU"/><use transform="matrix(0.05,0,0,0.05,18.95,0)" xlink:href="#bT"/><use transform="matrix(0.05,0,0,0.05,22.9,0)" xlink:href="#ck"/><use transform="matrix(0.05,0,0,0.05,31.899999999999995,0)" xlink:href="#bR"/><use transform="matrix(0.05,0,0,0.05,41.9,0)" xlink:href="#cg"/><use transform="matrix(0.05,0,0,0.05,51.900000000000006,0)" xlink:href="#cj"/></g><g id="ab"><use transform="matrix(0.05,0,0,0.05,0,0)" xlink:href="#ck"/><use transform="matrix(0.05,0,0,0.05,9,0)" xlink:href="#ct"/><use transform="matrix(0.05,0,0,0.05,18,0)" xlink:href="#bU"/><use transform="matrix(0.05,0,0,0.05,28,0)" xlink:href="#bZ"/><use transform="matrix(0.05,0,0,0.05,37,0)" xlink:href="#bR"/><use transform="matrix(0.05,0,0,0.05,47,0)" xlink:href="#bT"/><use transform="matrix(0.05,0,0,0.05,50.95,0)" xlink:href="#bU"/><use transform="matrix(0.05,0,0,0.05,60.95,0)" xlink:href="#ci"/></g><g id="ac"><use transform="matrix(0.05,0,0,0.05,0,0)" xlink:href="#bY"/><use transform="matrix(0.05,0,0,0.05,10,0)" xlink:href="#bU"/></g><g id="ad"><use transform="matrix(0.05,0,0,0.05,0,0)" xlink:href="#co"/><use transform="matrix(0.05,0,0,0.05,10,0)" xlink:href="#bY"/><use transform="matrix(0.05,0,0,0.05,20,0)" xlink:href="#cm"/><use transform="matrix(0.05,0,0,0.05,25,0)" xlink:href="#bR"/></g><g id="ae"><use transform="matrix(0.05,0,0,0.05,0,0)" xlink:href="#bZ"/><use transform="matrix(0.05,0,0,0.05,9,0)" xlink:href="#bR"/><use transform="matrix(0.05,0,0,0.05,19,0)" xlink:href="#bS"/><use transform="matrix(0.05,0,0,0.05,29,0)" xlink:href="#bT"/><use transform="matrix(0.05,0,0,0.05,32.95,0)" xlink:href="#bU"/><use transform="matrix(0.05,0,0,0.05,42.95,0)" xlink:href="#ck"/><use transform="matrix(0.05,0,0,0.05,51.95,0)" xlink:href="#cw"/></g><path d="M266 0h-40l-56-210L115 0H75L2-248h35L96-30l15-64 43-154h32l59 218 59-218h35" id="cx"/><g id="af"><use transform="matrix(0.05,0,0,0.05,0,0)" xlink:href="#cx"/><use transform="matrix(0.05,0,0,0.05,16.95,0)" xlink:href="#bR"/><use transform="matrix(0.05,0,0,0.05,26.950000000000003,0)" xlink:href="#bT"/><use transform="matrix(0.05,0,0,0.05,30.899999999999995,0)" xlink:href="#bX"/><use transform="matrix(0.05,0,0,0.05,34.85,0)" xlink:href="#cg"/></g><g id="ag"><use transform="matrix(0.05,0,0,0.05,0,0)" xlink:href="#ck"/><use transform="matrix(0.05,0,0,0.05,9,0)" xlink:href="#ct"/><use transform="matrix(0.05,0,0,0.05,18,0)" xlink:href="#bU"/><use transform="matrix(0.05,0,0,0.05,28,0)" xlink:href="#bZ"/><use transform="matrix(0.05,0,0,0.05,37,0)" xlink:href="#bT"/><use transform="matrix(0.05,0,0,0.05,40.95,0)" xlink:href="#bU"/><use transform="matrix(0.05,0,0,0.05,50.95,0)" xlink:href="#ci"/></g><g id="ah"><use transform="matrix(0.05,0,0,0.05,0,0)" xlink:href="#bZ"/><use transform="matrix(0.05,0,0,0.05,9,0)" xlink:href="#bR"/><use transform="matrix(0.05,0,0,0.05,19,0)" xlink:href="#bS"/><use transform="matrix(0.05,0,0,0.05,29,0)" xlink:href="#bT"/><use transform="matrix(0.05,0,0,0.05,32.95,0)" xlink:href="#bU"/></g><path d="M68-38c1 34 0 65-14 84H32c9-13 17-26 17-46H33v-38h35" id="cy"/><g id="ai"><use transform="matrix(0.05,0,0,0.05,0,0)" xlink:href="#bV"/><use transform="matrix(0.05,0,0,0.05,12,0)" xlink:href="#cy"/></g><g id="aj"><use transform="matrix(0.05,0,0,0.05,0,0)" xlink:href="#cq"/><use transform="matrix(0.05,0,0,0.05,10.950000000000001,0)" xlink:href="#cr"/><use transform="matrix(0.034999999999999996,0,0,0.034999999999999996,25.900000000000002,2.5199999999999996)" xlink:href="#cs"/></g><g id="ak"><use transform="matrix(0.05,0,0,0.05,0,0)" xlink:href="#bU"/><use transform="matrix(0.05,0,0,0.05,10,0)" xlink:href="#bY"/><use transform="matrix(0.05,0,0,0.05,20,0)" xlink:href="#cm"/><use transform="matrix(0.05,0,0,0.05,25,0)" xlink:href="#bT"/><use transform="matrix(0.05,0,0,0.05,28.950000000000003,0)" xlink:href="#bZ"/><use transform="matrix(0.05,0,0,0.05,37.95,0)" xlink:href="#cg"/><use transform="matrix(0.05,0,0,0.05,47.95,0)" xlink:href="#ck"/></g><g id="al"><use transform="matrix(0.05,0,0,0.05,0,0)" xlink:href="#cm"/><use transform="matrix(0.05,0,0,0.05,5,0)" xlink:href="#bR"/><use transform="matrix(0.05,0,0,0.05,15,0)" xlink:href="#cg"/></g><g id="am"><use transform="matrix(0.05,0,0,0.05,0,0)" xlink:href="#co"/><use transform="matrix(0.05,0,0,0.05,10,0)" xlink:href="#bX"/><use transform="matrix(0.05,0,0,0.05,13.949999999999998,0)" xlink:href="#bY"/><use transform="matrix(0.05,0,0,0.05,23.95,0)" xlink:href="#bZ"/><use transform="matrix(0.05,0,0,0.05,32.95,0)" xlink:href="#ca"/></g><g id="an"><use transform="matrix(0.05,0,0,0.05,0,0)" xlink:href="#ck"/><use transform="matrix(0.05,0,0,0.05,9,0)" xlink:href="#bR"/><use transform="matrix(0.05,0,0,0.05,19,0)" xlink:href="#bY"/><use transform="matrix(0.05,0,0,0.05,29,0)" xlink:href="#cu"/><use transform="matrix(0.05,0,0,0.05,39,0)" xlink:href="#bX"/><use transform="matrix(0.05,0,0,0.05,42.95,0)" xlink:href="#cj"/></g><g id="ao"><use transform="matrix(0.05,0,0,0.05,0,0)" xlink:href="#cm"/><use transform="matrix(0.05,0,0,0.05,5,0)" xlink:href="#ch"/><use transform="matrix(0.05,0,0,0.05,10.95,0)" xlink:href="#bT"/><use transform="matrix(0.05,0,0,0.05,14.899999999999999,0)" xlink:href="#ci"/><use transform="matrix(0.05,0,0,0.05,24.9,0)" xlink:href="#ci"/><use transform="matrix(0.05,0,0,0.05,34.9,0)" xlink:href="#cg"/><use transform="matrix(0.05,0,0,0.05,44.9,0)" xlink:href="#ch"/></g><g id="ap"><use transform="matrix(0.05,0,0,0.05,0,0)" xlink:href="#bZ"/><use transform="matrix(0.05,0,0,0.05,9,0)" xlink:href="#ch"/><use transform="matrix(0.05,0,0,0.05,14.949999999999998,0)" xlink:href="#bY"/><use transform="matrix(0.05,0,0,0.05,24.95,0)" xlink:href="#ck"/><use transform="matrix(0.05,0,0,0.05,33.95,0)" xlink:href="#ck"/></g><g id="aq"><use transform="matrix(0.05,0,0,0.05,0,0)" xlink:href="#cm"/><use transform="matrix(0.05,0,0,0.05,5,0)" xlink:href="#ch"/><use transform="matrix(0.05,0,0,0.05,10.95,0)" xlink:href="#bS"/><use transform="matrix(0.05,0,0,0.05,20.95,0)" xlink:href="#bU"/><use transform="matrix(0.05,0,0,0.05,30.950000000000003,0)" xlink:href="#ck"/><use transform="matrix(0.05,0,0,0.05,39.95,0)" xlink:href="#cn"/><use transform="matrix(0.05,0,0,0.05,44.95,0)" xlink:href="#cg"/><use transform="matrix(0.05,0,0,0.05,54.95,0)" xlink:href="#ch"/><use transform="matrix(0.05,0,0,0.05,59.900000000000006,0)" xlink:href="#cy"/></g><g id="ar"><use transform="matrix(0.05,0,0,0.05,0,0)" xlink:href="#ck"/><use transform="matrix(0.05,0,0,0.05,9,0)" xlink:href="#cm"/><use transform="matrix(0.05,0,0,0.05,14,0)" xlink:href="#bY"/><use transform="matrix(0.05,0,0,0.05,24,0)" xlink:href="#ch"/><use transform="matrix(0.05,0,0,0.05,29.950000000000003,0)" xlink:href="#cg"/><use transform="matrix(0.05,0,0,0.05,39.95,0)" xlink:href="#ck"/></g><g id="as"><use transform="matrix(0.05,0,0,0.05,0,0)" xlink:href="#bT"/><use transform="matrix(0.05,0,0,0.05,3.95,0)" xlink:href="#cm"/><use transform="matrix(0.05,0,0,0.05,8.95,0)" xlink:href="#ck"/></g><g id="at"><use transform="matrix(0.05,0,0,0.05,0,0)" xlink:href="#cj"/><use transform="matrix(0.05,0,0,0.05,10,0)" xlink:href="#bS"/><use transform="matrix(0.05,0,0,0.05,20,0)" xlink:href="#cm"/><use transform="matrix(0.05,0,0,0.05,25,0)" xlink:href="#bS"/><use transform="matrix(0.05,0,0,0.05,35,0)" xlink:href="#co"/><use transform="matrix(0.05,0,0,0.05,45,0)" xlink:href="#bS"/><use transform="matrix(0.05,0,0,0.05,55,0)" xlink:href="#ck"/><use transform="matrix(0.05,0,0,0.05,64,0)" xlink:href="#cg"/></g><g id="au"><use transform="matrix(0.05,0,0,0.05,0,0)" xlink:href="#bZ"/><use transform="matrix(0.05,0,0,0.05,9,0)" xlink:href="#bY"/><use transform="matrix(0.05,0,0,0.05,19,0)" xlink:href="#ch"/><use transform="matrix(0.05,0,0,0.05,24.95,0)" xlink:href="#ch"/><use transform="matrix(0.05,0,0,0.05,30.899999999999995,0)" xlink:href="#cg"/><use transform="matrix(0.05,0,0,0.05,40.9,0)" xlink:href="#ck"/><use transform="matrix(0.05,0,0,0.05,49.9,0)" xlink:href="#cl"/><use transform="matrix(0.05,0,0,0.05,59.900000000000006,0)" xlink:href="#bY"/><use transform="matrix(0.05,0,0,0.05,69.9,0)" xlink:href="#bU"/><use transform="matrix(0.05,0,0,0.05,79.9,0)" xlink:href="#cj"/><use transform="matrix(0.05,0,0,0.05,89.9,0)" xlink:href="#bT"/><use transform="matrix(0.05,0,0,0.05,93.85000000000001,0)" xlink:href="#bU"/><use transform="matrix(0.05,0,0,0.05,103.85000000000001,0)" xlink:href="#ci"/></g><g id="av"><use transform="matrix(0.05,0,0,0.05,0,0)" xlink:href="#bT"/><use transform="matrix(0.05,0,0,0.05,3.95,0)" xlink:href="#bU"/><use transform="matrix(0.05,0,0,0.05,13.949999999999998,0)" xlink:href="#cn"/><use transform="matrix(0.05,0,0,0.05,18.95,0)" xlink:href="#bY"/><use transform="matrix(0.05,0,0,0.05,28.950000000000003,0)" xlink:href="#ch"/><use transform="matrix(0.05,0,0,0.05,34.9,0)" xlink:href="#cd"/><use transform="matrix(0.05,0,0,0.05,49.85,0)" xlink:href="#bS"/><use transform="matrix(0.05,0,0,0.05,59.85,0)" xlink:href="#cm"/><use transform="matrix(0.05,0,0,0.05,64.85,0)" xlink:href="#bT"/><use transform="matrix(0.05,0,0,0.05,68.8,0)" xlink:href="#bY"/><use transform="matrix(0.05,0,0,0.05,78.8,0)" xlink:href="#bU"/><use transform="matrix(0.05,0,0,0.05,88.8,0)" xlink:href="#cw"/></g><g id="aw"><use transform="matrix(0.05,0,0,0.05,0,0)" xlink:href="#bY"/><use transform="matrix(0.05,0,0,0.05,10,0)" xlink:href="#bU"/></g><g id="ax"><use transform="matrix(0.05,0,0,0.05,0,0)" xlink:href="#bW"/><use transform="matrix(0.05,0,0,0.05,12,0)" xlink:href="#cy"/></g><g id="ay"><use transform="matrix(0.05,0,0,0.05,0,0)" xlink:href="#bS"/><use transform="matrix(0.05,0,0,0.05,10,0)" xlink:href="#cm"/></g><g id="az"><use transform="matrix(0.05,0,0,0.05,0,0)" xlink:href="#bR"/><use transform="matrix(0.05,0,0,0.05,10,0)" xlink:href="#cg"/><use transform="matrix(0.05,0,0,0.05,20,0)" xlink:href="#bT"/><use transform="matrix(0.05,0,0,0.05,23.95,0)" xlink:href="#ci"/><use transform="matrix(0.05,0,0,0.05,33.95,0)" xlink:href="#bR"/><use transform="matrix(0.05,0,0,0.05,43.95,0)" xlink:href="#cm"/></g><path d="M24-231v-30h32v30H24zM-9 49c24 4 33-6 33-30v-209h32V24c2 40-23 58-65 49V49" id="cz"/><g id="aA"><use transform="matrix(0.05,0,0,0.05,0,0)" xlink:href="#cz"/><use transform="matrix(0.05,0,0,0.05,3.95,0)" xlink:href="#cy"/></g><g id="aB"><use transform="matrix(0.05,0,0,0.05,0,0)" xlink:href="#cq"/><use transform="matrix(0.05,0,0,0.05,10.950000000000001,0)" xlink:href="#cr"/><use transform="matrix(0.034999999999999996,0,0,0.034999999999999996,25.900000000000002,2.5199999999999996)" xlink:href="#cs"/></g><use transform="matrix(0.05,0,0,0.05,0,0)" xlink:href="#bS" id="aC"/><g id="aD"><use transform="matrix(0.05,0,0,0.05,0,0)" xlink:href="#cm"/><use transform="matrix(0.05,0,0,0.05,5,0)" xlink:href="#ch"/><use transform="matrix(0.05,0,0,0.05,10.95,0)" xlink:href="#bS"/><use transform="matrix(0.05,0,0,0.05,20.95,0)" xlink:href="#bU"/><use transform="matrix(0.05,0,0,0.05,30.950000000000003,0)" xlink:href="#ck"/><use transform="matrix(0.05,0,0,0.05,39.95,0)" xlink:href="#bS"/><use transform="matrix(0.05,0,0,0.05,49.95,0)" xlink:href="#bZ"/><use transform="matrix(0.05,0,0,0.05,58.95,0)" xlink:href="#cm"/><use transform="matrix(0.05,0,0,0.05,63.95,0)" xlink:href="#bT"/><use transform="matrix(0.05,0,0,0.05,67.9,0)" xlink:href="#bY"/><use transform="matrix(0.05,0,0,0.05,77.9,0)" xlink:href="#bU"/></g><g id="aE"><use transform="matrix(0.05,0,0,0.05,0,0)" xlink:href="#bZ"/><use transform="matrix(0.05,0,0,0.05,9,0)" xlink:href="#bY"/><use transform="matrix(0.05,0,0,0.05,19,0)" xlink:href="#cd"/><use transform="matrix(0.05,0,0,0.05,33.95,0)" xlink:href="#bT"/><use transform="matrix(0.05,0,0,0.05,37.900000000000006,0)" xlink:href="#bU"/><use transform="matrix(0.05,0,0,0.05,47.900000000000006,0)" xlink:href="#ci"/></g><g id="aF"><use transform="matrix(0.05,0,0,0.05,0,0)" xlink:href="#cn"/><use transform="matrix(0.05,0,0,0.05,5,0)" xlink:href="#ch"/><use transform="matrix(0.05,0,0,0.05,10.95,0)" xlink:href="#bY"/><use transform="matrix(0.05,0,0,0.05,20.95,0)" xlink:href="#cd"/></g><path d="M47-170H22l-4-78h33" id="cA"/><g id="aG"><use transform="matrix(0.05,0,0,0.05,0,0)" xlink:href="#cn"/><use transform="matrix(0.05,0,0,0.05,5,0)" xlink:href="#cg"/><use transform="matrix(0.05,0,0,0.05,15,0)" xlink:href="#cj"/><use transform="matrix(0.05,0,0,0.05,25,0)" xlink:href="#cg"/><use transform="matrix(0.05,0,0,0.05,35,0)" xlink:href="#ch"/><use transform="matrix(0.05,0,0,0.05,40.95,0)" xlink:href="#bS"/><use transform="matrix(0.05,0,0,0.05,50.95,0)" xlink:href="#cm"/><use transform="matrix(0.05,0,0,0.05,55.95,0)" xlink:href="#bT"/><use transform="matrix(0.05,0,0,0.05,59.900000000000006,0)" xlink:href="#bY"/><use transform="matrix(0.05,0,0,0.05,69.9,0)" xlink:href="#bU"/><use transform="matrix(0.05,0,0,0.05,79.9,0)" xlink:href="#cA"/><use transform="matrix(0.05,0,0,0.05,83.30000000000001,0)" xlink:href="#ck"/></g><g id="aH"><use transform="matrix(0.05,0,0,0.05,0,0)" xlink:href="#cd"/><use transform="matrix(0.05,0,0,0.05,14.950000000000001,0)" xlink:href="#cu"/><use transform="matrix(0.05,0,0,0.05,24.950000000000003,0)" xlink:href="#cm"/><use transform="matrix(0.05,0,0,0.05,29.950000000000003,0)" xlink:href="#bT"/><use transform="matrix(0.05,0,0,0.05,33.900000000000006,0)" xlink:href="#ck"/><use transform="matrix(0.05,0,0,0.05,42.900000000000006,0)" xlink:href="#bT"/><use transform="matrix(0.05,0,0,0.05,46.85000000000001,0)" xlink:href="#ci"/><use transform="matrix(0.05,0,0,0.05,56.85,0)" xlink:href="#cy"/></g><g id="aI"><use transform="matrix(0.05,0,0,0.05,0,0)" xlink:href="#bZ"/><use transform="matrix(0.05,0,0,0.05,9,0)" xlink:href="#bY"/><use transform="matrix(0.05,0,0,0.05,19,0)" xlink:href="#bU"/><use transform="matrix(0.05,0,0,0.05,29,0)" xlink:href="#cm"/><use transform="matrix(0.05,0,0,0.05,34,0)" xlink:href="#bS"/><use transform="matrix(0.05,0,0,0.05,44,0)" xlink:href="#bT"/><use transform="matrix(0.05,0,0,0.05,47.95,0)" xlink:href="#bU"/><use transform="matrix(0.05,0,0,0.05,57.95,0)" xlink:href="#bT"/><use transform="matrix(0.05,0,0,0.05,61.900000000000006,0)" xlink:href="#bU"/><use transform="matrix(0.05,0,0,0.05,71.9,0)" xlink:href="#ci"/></g><g id="aJ"><use transform="matrix(0.05,0,0,0.05,0,0)" xlink:href="#bS"/><use transform="matrix(0.05,0,0,0.05,10,0)" xlink:href="#bU"/></g><path d="M-5 72V49h209v23H-5" id="cB"/><g id="aK"><use transform="matrix(0.05,0,0,0.05,0,0)" xlink:href="#bY"/><use transform="matrix(0.05,0,0,0.05,10,0)" xlink:href="#cl"/><use transform="matrix(0.05,0,0,0.05,20,0)" xlink:href="#cB"/><use transform="matrix(0.05,0,0,0.05,30,0)" xlink:href="#ch"/><use transform="matrix(0.05,0,0,0.05,35.95,0)" xlink:href="#cg"/><use transform="matrix(0.05,0,0,0.05,45.95,0)" xlink:href="#cm"/><use transform="matrix(0.05,0,0,0.05,50.95,0)" xlink:href="#cu"/><use transform="matrix(0.05,0,0,0.05,60.95,0)" xlink:href="#ch"/><use transform="matrix(0.05,0,0,0.05,66.9,0)" xlink:href="#bU"/></g><g id="aL"><use transform="matrix(0.05,0,0,0.05,0,0)" xlink:href="#cn"/><use transform="matrix(0.05,0,0,0.05,5,0)" xlink:href="#bY"/><use transform="matrix(0.05,0,0,0.05,15,0)" xlink:href="#ch"/></g><g id="aM"><use transform="matrix(0.05,0,0,0.05,0,0)" xlink:href="#bT"/><use transform="matrix(0.05,0,0,0.05,3.95,0)" xlink:href="#cw"/></g><g id="aN"><use transform="matrix(0.05,0,0,0.05,0,0)" xlink:href="#cl"/><use transform="matrix(0.05,0,0,0.05,10,0)" xlink:href="#cg"/><use transform="matrix(0.05,0,0,0.05,20,0)" xlink:href="#ch"/><use transform="matrix(0.05,0,0,0.05,25.950000000000003,0)" xlink:href="#ck"/><use transform="matrix(0.05,0,0,0.05,34.95,0)" xlink:href="#bT"/><use transform="matrix(0.05,0,0,0.05,38.900000000000006,0)" xlink:href="#ck"/><use transform="matrix(0.05,0,0,0.05,47.900000000000006,0)" xlink:href="#cm"/><use transform="matrix(0.05,0,0,0.05,52.900000000000006,0)" xlink:href="#ck"/></g><g id="aO"><use transform="matrix(0.05,0,0,0.05,0,0)" xlink:href="#cm"/><use transform="matrix(0.05,0,0,0.05,5,0)" xlink:href="#bR"/><use transform="matrix(0.05,0,0,0.05,15,0)" xlink:href="#cg"/></g><g id="aP"><use transform="matrix(0.05,0,0,0.05,0,0)" xlink:href="#bZ"/><use transform="matrix(0.05,0,0,0.05,9,0)" xlink:href="#bY"/><use transform="matrix(0.05,0,0,0.05,19,0)" xlink:href="#ch"/><use transform="matrix(0.05,0,0,0.05,24.95,0)" xlink:href="#ch"/><use transform="matrix(0.05,0,0,0.05,30.899999999999995,0)" xlink:href="#cg"/><use transform="matrix(0.05,0,0,0.05,40.9,0)" xlink:href="#ck"/><use transform="matrix(0.05,0,0,0.05,49.9,0)" xlink:href="#cl"/><use transform="matrix(0.05,0,0,0.05,59.900000000000006,0)" xlink:href="#bY"/><use transform="matrix(0.05,0,0,0.05,69.9,0)" xlink:href="#bU"/><use transform="matrix(0.05,0,0,0.05,79.9,0)" xlink:href="#cj"/><use transform="matrix(0.05,0,0,0.05,89.9,0)" xlink:href="#bT"/><use transform="matrix(0.05,0,0,0.05,93.85000000000001,0)" xlink:href="#bU"/><use transform="matrix(0.05,0,0,0.05,103.85000000000001,0)" xlink:href="#ci"/></g><g id="aQ"><use transform="matrix(0.05,0,0,0.05,0,0)" xlink:href="#cj"/><use transform="matrix(0.05,0,0,0.05,10,0)" xlink:href="#cg"/><use transform="matrix(0.05,0,0,0.05,20,0)" xlink:href="#cm"/><use transform="matrix(0.05,0,0,0.05,25,0)" xlink:href="#bS"/><use transform="matrix(0.05,0,0,0.05,35,0)" xlink:href="#bT"/><use transform="matrix(0.05,0,0,0.05,38.95,0)" xlink:href="#bX"/><use transform="matrix(0.05,0,0,0.05,42.900000000000006,0)" xlink:href="#ck"/></g><g id="aR"><use transform="matrix(0.05,0,0,0.05,0,0)" xlink:href="#bT"/><use transform="matrix(0.05,0,0,0.05,3.95,0)" xlink:href="#bU"/></g><g id="aS"><use transform="matrix(0.05,0,0,0.05,0,0)" xlink:href="#ck"/><use transform="matrix(0.05,0,0,0.05,9,0)" xlink:href="#cm"/><use transform="matrix(0.05,0,0,0.05,14,0)" xlink:href="#bY"/><use transform="matrix(0.05,0,0,0.05,24,0)" xlink:href="#ch"/><use transform="matrix(0.05,0,0,0.05,29.950000000000003,0)" xlink:href="#cg"/><use transform="matrix(0.05,0,0,0.05,39.95,0)" xlink:href="#cw"/></g><path d="M30 0v-248h187v28H63v79h144v27H63v87h162V0H30" id="cC"/><g id="aT"><use transform="matrix(0.05,0,0,0.05,0,0)" xlink:href="#cC"/><use transform="matrix(0.05,0,0,0.05,12,0)" xlink:href="#cv"/><use transform="matrix(0.05,0,0,0.05,21,0)" xlink:href="#cg"/><use transform="matrix(0.05,0,0,0.05,31,0)" xlink:href="#bU"/><use transform="matrix(0.05,0,0,0.05,41,0)" xlink:href="#cm"/><use transform="matrix(0.05,0,0,0.05,46,0)" xlink:href="#cu"/><use transform="matrix(0.05,0,0,0.05,56,0)" xlink:href="#bS"/><use transform="matrix(0.05,0,0,0.05,66,0)" xlink:href="#bX"/><use transform="matrix(0.05,0,0,0.05,69.95,0)" xlink:href="#bX"/><use transform="matrix(0.05,0,0,0.05,73.9,0)" xlink:href="#ct"/></g><g id="aU"><use transform="matrix(0.05,0,0,0.05,0,0)" xlink:href="#bT"/><use transform="matrix(0.05,0,0,0.05,3.95,0)" xlink:href="#bU"/><use transform="matrix(0.05,0,0,0.05,13.949999999999998,0)" xlink:href="#cn"/><use transform="matrix(0.05,0,0,0.05,18.95,0)" xlink:href="#bY"/><use transform="matrix(0.05,0,0,0.05,28.950000000000003,0)" xlink:href="#ch"/><use transform="matrix(0.05,0,0,0.05,34.9,0)" xlink:href="#cd"/><use transform="matrix(0.05,0,0,0.05,49.85,0)" xlink:href="#bS"/><use transform="matrix(0.05,0,0,0.05,59.85,0)" xlink:href="#cm"/><use transform="matrix(0.05,0,0,0.05,64.85,0)" xlink:href="#bT"/><use transform="matrix(0.05,0,0,0.05,68.8,0)" xlink:href="#bY"/><use transform="matrix(0.05,0,0,0.05,78.8,0)" xlink:href="#bU"/></g><g id="aV"><use transform="matrix(0.05,0,0,0.05,0,0)" xlink:href="#bS"/><use transform="matrix(0.05,0,0,0.05,10,0)" xlink:href="#co"/><use transform="matrix(0.05,0,0,0.05,20,0)" xlink:href="#bY"/><use transform="matrix(0.05,0,0,0.05,30,0)" xlink:href="#cu"/><use transform="matrix(0.05,0,0,0.05,40,0)" xlink:href="#cm"/></g><g id="aW"><use transform="matrix(0.05,0,0,0.05,0,0)" xlink:href="#bU"/><use transform="matrix(0.05,0,0,0.05,10,0)" xlink:href="#bY"/><use transform="matrix(0.05,0,0,0.05,20,0)" xlink:href="#cj"/><use transform="matrix(0.05,0,0,0.05,30,0)" xlink:href="#cg"/></g><g id="aX"><use transform="matrix(0.05,0,0,0.05,0,0)" xlink:href="#bT"/><use transform="matrix(0.05,0,0,0.05,3.95,0)" xlink:href="#ck"/></g><g id="aY"><use transform="matrix(0.05,0,0,0.05,0,0)" xlink:href="#cd"/><use transform="matrix(0.05,0,0,0.05,14.950000000000001,0)" xlink:href="#bS"/><use transform="matrix(0.05,0,0,0.05,24.950000000000003,0)" xlink:href="#cm"/><use transform="matrix(0.05,0,0,0.05,29.950000000000003,0)" xlink:href="#bZ"/><use transform="matrix(0.05,0,0,0.05,38.95,0)" xlink:href="#bR"/><use transform="matrix(0.05,0,0,0.05,48.95,0)" xlink:href="#cg"/><use transform="matrix(0.05,0,0,0.05,58.95,0)" xlink:href="#cj"/></g><path d="M206 0h-36l-40-164L89 0H53L-1-190h32L70-26l43-164h34l41 164 42-164h31" id="cD"/><g id="aZ"><use transform="matrix(0.05,0,0,0.05,0,0)" xlink:href="#cD"/><use transform="matrix(0.05,0,0,0.05,12.950000000000001,0)" xlink:href="#bT"/><use transform="matrix(0.05,0,0,0.05,16.900000000000002,0)" xlink:href="#cm"/><use transform="matrix(0.05,0,0,0.05,21.900000000000002,0)" xlink:href="#bR"/></g><g id="ba"><use transform="matrix(0.05,0,0,0.05,0,0)" xlink:href="#bT"/><use transform="matrix(0.05,0,0,0.05,3.95,0)" xlink:href="#bU"/><use transform="matrix(0.05,0,0,0.05,13.949999999999998,0)" xlink:href="#cn"/><use transform="matrix(0.05,0,0,0.05,18.95,0)" xlink:href="#bY"/><use transform="matrix(0.05,0,0,0.05,28.950000000000003,0)" xlink:href="#ch"/><use transform="matrix(0.05,0,0,0.05,34.9,0)" xlink:href="#cd"/><use transform="matrix(0.05,0,0,0.05,49.85,0)" xlink:href="#bS"/><use transform="matrix(0.05,0,0,0.05,59.85,0)" xlink:href="#cm"/><use transform="matrix(0.05,0,0,0.05,64.85,0)" xlink:href="#bT"/><use transform="matrix(0.05,0,0,0.05,68.8,0)" xlink:href="#bY"/><use transform="matrix(0.05,0,0,0.05,78.8,0)" xlink:href="#bU"/></g><use transform="matrix(0.05,0,0,0.05,0,0)" xlink:href="#cz" id="bb"/><g id="bc"><use transform="matrix(0.05,0,0,0.05,0,0)" xlink:href="#cm"/><use transform="matrix(0.05,0,0,0.05,5,0)" xlink:href="#ch"/><use transform="matrix(0.05,0,0,0.05,10.95,0)" xlink:href="#bS"/><use transform="matrix(0.05,0,0,0.05,20.95,0)" xlink:href="#bU"/><use transform="matrix(0.05,0,0,0.05,30.950000000000003,0)" xlink:href="#ck"/><use transform="matrix(0.05,0,0,0.05,39.95,0)" xlink:href="#cn"/><use transform="matrix(0.05,0,0,0.05,44.95,0)" xlink:href="#cg"/><use transform="matrix(0.05,0,0,0.05,54.95,0)" xlink:href="#ch"/></g><g id="bd"><use transform="matrix(0.05,0,0,0.05,0,0)" xlink:href="#ck"/><use transform="matrix(0.05,0,0,0.05,9,0)" xlink:href="#cm"/><use transform="matrix(0.05,0,0,0.05,14,0)" xlink:href="#bS"/><use transform="matrix(0.05,0,0,0.05,24,0)" xlink:href="#cm"/><use transform="matrix(0.05,0,0,0.05,29,0)" xlink:href="#cu"/><use transform="matrix(0.05,0,0,0.05,39,0)" xlink:href="#ck"/></g><g id="be"><use transform="matrix(0.05,0,0,0.05,0,0)" xlink:href="#bT"/><use transform="matrix(0.05,0,0,0.05,3.95,0)" xlink:href="#ck"/></g><g id="bf"><use transform="matrix(0.05,0,0,0.05,0,0)" xlink:href="#cd"/><use transform="matrix(0.05,0,0,0.05,14.950000000000001,0)" xlink:href="#bS"/><use transform="matrix(0.05,0,0,0.05,24.950000000000003,0)" xlink:href="#ch"/><use transform="matrix(0.05,0,0,0.05,30.900000000000002,0)" xlink:href="#ca"/><use transform="matrix(0.05,0,0,0.05,39.900000000000006,0)" xlink:href="#cg"/><use transform="matrix(0.05,0,0,0.05,49.900000000000006,0)" xlink:href="#cj"/></g><g id="bg"><use transform="matrix(0.05,0,0,0.05,0,0)" xlink:href="#bZ"/><use transform="matrix(0.05,0,0,0.05,9,0)" xlink:href="#bY"/><use transform="matrix(0.05,0,0,0.05,19,0)" xlink:href="#cd"/><use transform="matrix(0.05,0,0,0.05,33.95,0)" xlink:href="#cl"/><use transform="matrix(0.05,0,0,0.05,43.95,0)" xlink:href="#bX"/><use transform="matrix(0.05,0,0,0.05,47.900000000000006,0)" xlink:href="#cg"/><use transform="matrix(0.05,0,0,0.05,57.900000000000006,0)" xlink:href="#cm"/><use transform="matrix(0.05,0,0,0.05,62.900000000000006,0)" xlink:href="#cg"/></g><use transform="matrix(0.05,0,0,0.05,0,0)" xlink:href="#cd" id="bh"/><g id="bi"><use transform="matrix(0.05,0,0,0.05,0,0)" xlink:href="#bW"/><use transform="matrix(0.05,0,0,0.05,12,0)" xlink:href="#bX"/><use transform="matrix(0.05,0,0,0.05,15.949999999999998,0)" xlink:href="#bY"/><use transform="matrix(0.05,0,0,0.05,25.950000000000003,0)" xlink:href="#bZ"/><use transform="matrix(0.05,0,0,0.05,34.95,0)" xlink:href="#ca"/></g><use transform="matrix(0.05,0,0,0.05,0,0)" xlink:href="#bT" id="bj"/><path d="M16-82v-28h88v28H16" id="cE"/><use transform="matrix(0.05,0,0,0.05,0,0)" xlink:href="#cE" id="bk"/><g id="bl"><use transform="matrix(0.05,0,0,0.05,0,0)" xlink:href="#cm"/><use transform="matrix(0.05,0,0,0.05,5,0)" xlink:href="#ce"/><use transform="matrix(0.034999999999999996,0,0,0.034999999999999996,14,2.5199999999999996)" xlink:href="#cc"/></g><use transform="matrix(0.05,0,0,0.05,0,0)" xlink:href="#cE" id="bm"/><g id="bn"><use transform="matrix(0.05,0,0,0.05,0,0)" xlink:href="#cm"/><use transform="matrix(0.05,0,0,0.05,5,0)" xlink:href="#ce"/><use transform="matrix(0.034999999999999996,0,0,0.034999999999999996,14,2.5199999999999996)" xlink:href="#cs"/></g><use transform="matrix(0.05,0,0,0.05,0,0)" xlink:href="#bT" id="bo"/><g id="bp"><use transform="matrix(0.05,0,0,0.05,0,0)" xlink:href="#cw"/><use transform="matrix(0.05,0,0,0.05,5,0)" xlink:href="#cw"/><use transform="matrix(0.05,0,0,0.05,10,0)" xlink:href="#cw"/></g><g id="bq"><use transform="matrix(0.05,0,0,0.05,0,0)" xlink:href="#cr"/><use transform="matrix(0.05,0,0,0.05,14.950000000000001,0)" xlink:href="#bS"/><use transform="matrix(0.05,0,0,0.05,24.950000000000003,0)" xlink:href="#ch"/><use transform="matrix(0.05,0,0,0.05,30.900000000000002,0)" xlink:href="#ca"/></g><g id="br"><use transform="matrix(0.05,0,0,0.05,0,0)" xlink:href="#cm"/><use transform="matrix(0.05,0,0,0.05,5,0)" xlink:href="#ch"/><use transform="matrix(0.05,0,0,0.05,10.95,0)" xlink:href="#bS"/><use transform="matrix(0.05,0,0,0.05,20.95,0)" xlink:href="#bU"/><use transform="matrix(0.05,0,0,0.05,30.950000000000003,0)" xlink:href="#ck"/><use transform="matrix(0.05,0,0,0.05,39.95,0)" xlink:href="#cn"/><use transform="matrix(0.05,0,0,0.05,44.95,0)" xlink:href="#cg"/><use transform="matrix(0.05,0,0,0.05,54.95,0)" xlink:href="#ch"/></g><use transform="matrix(0.05,0,0,0.05,0,0)" xlink:href="#bT" id="bs"/><g id="bt"><use transform="matrix(0.05,0,0,0.05,0,0)" xlink:href="#bS"/><use transform="matrix(0.05,0,0,0.05,10,0)" xlink:href="#ck"/></g><g id="bu"><use transform="matrix(0.05,0,0,0.05,0,0)" xlink:href="#bZ"/><use transform="matrix(0.05,0,0,0.05,9,0)" xlink:href="#bY"/><use transform="matrix(0.05,0,0,0.05,19,0)" xlink:href="#cd"/><use transform="matrix(0.05,0,0,0.05,33.95,0)" xlink:href="#cl"/><use transform="matrix(0.05,0,0,0.05,43.95,0)" xlink:href="#bX"/><use transform="matrix(0.05,0,0,0.05,47.900000000000006,0)" xlink:href="#cg"/><use transform="matrix(0.05,0,0,0.05,57.900000000000006,0)" xlink:href="#cm"/><use transform="matrix(0.05,0,0,0.05,62.900000000000006,0)" xlink:href="#cg"/><use transform="matrix(0.05,0,0,0.05,72.9,0)" xlink:href="#cj"/></g><path fill="#19967d" d="M18-101c0-91 52-150 145-150 68 0 111 34 111 101C274-54 221 4 128 4 59 4 18-33 18-101zm202-32c4-46-15-77-59-77-65 0-88 46-91 108-2 41 22 65 60 65 60 0 84-40 90-96" id="cF"/><path fill="#19967d" d="M151-194c95 0 34 128 28 194h-49l25-134c0-29-45-25-59-9C67-111 69-48 56 0H6l36-190h47l-4 32c15-20 33-36 66-36" id="cG"/><path fill="#19967d" d="M6 0l51-261h49L55 0H6" id="cH"/><path fill="#19967d" d="M50-224l7-37h49l-7 37H50zM6 0l37-190h49L55 0H6" id="cI"/><path fill="#19967d" d="M114-194c63-2 87 48 72 110H63c-3 28 1 55 31 54 21-1 32-13 37-29l44 13C160-14 137 4 91 4 41 4 11-22 11-73c0-71 33-119 103-121zm30 77c14-47-50-61-67-22-3 6-6 13-8 22h75" id="cJ"/><g id="bv"><use transform="matrix(0.07407407407407408,0,0,0.07407407407407408,0,0)" xlink:href="#cF"/><use transform="matrix(0.07407407407407408,0,0,0.07407407407407408,20.740740740740744,0)" xlink:href="#cG"/><use transform="matrix(0.07407407407407408,0,0,0.07407407407407408,36.96296296296297,0)" xlink:href="#cH"/><use transform="matrix(0.07407407407407408,0,0,0.07407407407407408,44.37037037037039,0)" xlink:href="#cI"/><use transform="matrix(0.07407407407407408,0,0,0.07407407407407408,51.777777777777786,0)" xlink:href="#cG"/><use transform="matrix(0.07407407407407408,0,0,0.07407407407407408,68.00000000000001,0)" xlink:href="#cJ"/></g><use transform="matrix(0.05,0,0,0.05,0,0)" xlink:href="#bT" id="bw"/><use transform="matrix(0.05,0,0,0.05,0,0)" xlink:href="#cE" id="by"/><g id="bz"><use transform="matrix(0.05,0,0,0.05,0,0)" xlink:href="#cm"/><use transform="matrix(0.05,0,0,0.05,5,0)" xlink:href="#ce"/><use transform="matrix(0.034999999999999996,0,0,0.034999999999999996,14,2.5199999999999996)" xlink:href="#cc"/></g><use transform="matrix(0.05,0,0,0.05,0,0)" xlink:href="#cE" id="bA"/><path d="M33-154v-36h34v36H33zM33 0v-36h34V0H33" id="cK"/><g id="bB"><use transform="matrix(0.05,0,0,0.05,0,0)" xlink:href="#cd"/><use transform="matrix(0.05,0,0,0.05,14.950000000000001,0)" xlink:href="#cu"/><use transform="matrix(0.05,0,0,0.05,24.950000000000003,0)" xlink:href="#bX"/><use transform="matrix(0.05,0,0,0.05,28.900000000000002,0)" xlink:href="#cm"/><use transform="matrix(0.05,0,0,0.05,33.900000000000006,0)" xlink:href="#bT"/><use transform="matrix(0.05,0,0,0.05,37.85000000000001,0)" xlink:href="#ck"/><use transform="matrix(0.05,0,0,0.05,46.85000000000001,0)" xlink:href="#bT"/><use transform="matrix(0.05,0,0,0.05,50.80000000000001,0)" xlink:href="#ci"/><use transform="matrix(0.05,0,0,0.05,60.80000000000001,0)" xlink:href="#cK"/></g><g id="bC"><use transform="matrix(0.05,0,0,0.05,0,0)" xlink:href="#cv"/><use transform="matrix(0.05,0,0,0.05,9,0)" xlink:href="#bS"/><use transform="matrix(0.05,0,0,0.05,19,0)" xlink:href="#bX"/><use transform="matrix(0.034999999999999996,0,0,0.034999999999999996,22.95,2.5199999999999996)" xlink:href="#cc"/></g><g id="bD"><use transform="matrix(0.05,0,0,0.05,0,0)" xlink:href="#bY"/><use transform="matrix(0.05,0,0,0.05,10,0)" xlink:href="#cl"/><use transform="matrix(0.05,0,0,0.05,20,0)" xlink:href="#cB"/><use transform="matrix(0.05,0,0,0.05,30,0)" xlink:href="#ch"/><use transform="matrix(0.05,0,0,0.05,35.95,0)" xlink:href="#cg"/><use transform="matrix(0.05,0,0,0.05,45.95,0)" xlink:href="#cm"/><use transform="matrix(0.05,0,0,0.05,50.95,0)" xlink:href="#cK"/></g><g id="bE"><use transform="matrix(0.05,0,0,0.05,0,0)" xlink:href="#bS"/><use transform="matrix(0.05,0,0,0.05,10,0)" xlink:href="#cj"/><use transform="matrix(0.05,0,0,0.05,20,0)" xlink:href="#cj"/><use transform="matrix(0.034999999999999996,0,0,0.034999999999999996,30,2.5199999999999996)" xlink:href="#cc"/></g><g id="bF"><use transform="matrix(0.05,0,0,0.05,0,0)" xlink:href="#cm"/><use transform="matrix(0.05,0,0,0.05,5,0)" xlink:href="#ce"/><use transform="matrix(0.034999999999999996,0,0,0.034999999999999996,14,2.5199999999999996)" xlink:href="#cs"/></g><g id="bG"><use transform="matrix(0.05,0,0,0.05,0,0)" xlink:href="#cE"/><use transform="matrix(0.05,0,0,0.05,5.95,0)" xlink:href="#cd"/><use transform="matrix(0.05,0,0,0.05,20.900000000000002,0)" xlink:href="#cu"/><use transform="matrix(0.05,0,0,0.05,30.900000000000002,0)" xlink:href="#bX"/><use transform="matrix(0.05,0,0,0.05,34.85,0)" xlink:href="#cm"/><use transform="matrix(0.05,0,0,0.05,39.85,0)" xlink:href="#bT"/><use transform="matrix(0.05,0,0,0.05,43.800000000000004,0)" xlink:href="#ck"/><use transform="matrix(0.05,0,0,0.05,52.800000000000004,0)" xlink:href="#bT"/><use transform="matrix(0.05,0,0,0.05,56.75,0)" xlink:href="#ci"/><use transform="matrix(0.05,0,0,0.05,66.75,0)" xlink:href="#cK"/></g><g id="bH"><use transform="matrix(0.05,0,0,0.05,0,0)" xlink:href="#cv"/><use transform="matrix(0.05,0,0,0.05,9,0)" xlink:href="#bS"/><use transform="matrix(0.05,0,0,0.05,19,0)" xlink:href="#bX"/><use transform="matrix(0.034999999999999996,0,0,0.034999999999999996,22.95,2.5199999999999996)" xlink:href="#cs"/></g><g id="bI"><use transform="matrix(0.05,0,0,0.05,0,0)" xlink:href="#bS"/><use transform="matrix(0.05,0,0,0.05,10,0)" xlink:href="#cj"/><use transform="matrix(0.05,0,0,0.05,20,0)" xlink:href="#cj"/><use transform="matrix(0.034999999999999996,0,0,0.034999999999999996,30,2.5199999999999996)" xlink:href="#cs"/></g><g id="bJ"><use transform="matrix(0.05,0,0,0.05,0,0)" xlink:href="#cw"/><use transform="matrix(0.05,0,0,0.05,5,0)" xlink:href="#cw"/><use transform="matrix(0.05,0,0,0.05,10,0)" xlink:href="#cw"/></g><use transform="matrix(0.05,0,0,0.05,0,0)" xlink:href="#cz" id="bK"/><g id="bL"><use transform="matrix(0.05,0,0,0.05,0,0)" xlink:href="#cm"/><use transform="matrix(0.05,0,0,0.05,5,0)" xlink:href="#ce"/></g><g id="bM"><use transform="matrix(0.05,0,0,0.05,0,0)" xlink:href="#bY"/><use transform="matrix(0.05,0,0,0.05,10,0)" xlink:href="#cl"/><use transform="matrix(0.05,0,0,0.05,20,0)" xlink:href="#cB"/><use transform="matrix(0.05,0,0,0.05,30,0)" xlink:href="#ch"/><use transform="matrix(0.05,0,0,0.05,35.95,0)" xlink:href="#cg"/><use transform="matrix(0.05,0,0,0.05,45.95,0)" xlink:href="#cm"/><use transform="matrix(0.05,0,0,0.05,50.95,0)" xlink:href="#cu"/><use transform="matrix(0.05,0,0,0.05,60.95,0)" xlink:href="#ch"/><use transform="matrix(0.05,0,0,0.05,66.9,0)" xlink:href="#bU"/><use transform="matrix(0.05,0,0,0.05,76.9,0)" xlink:href="#cK"/></g><g id="bN"><use transform="matrix(0.05,0,0,0.05,0,0)" xlink:href="#bS"/><use transform="matrix(0.05,0,0,0.05,10,0)" xlink:href="#cj"/><use transform="matrix(0.05,0,0,0.05,20,0)" xlink:href="#cj"/><use transform="matrix(0.034999999999999996,0,0,0.034999999999999996,30,2.5199999999999996)" xlink:href="#cc"/><use transform="matrix(0.05,0,0,0.05,37,0)" xlink:href="#cK"/></g><g id="bO"><use transform="matrix(0.05,0,0,0.05,0,0)" xlink:href="#bS"/><use transform="matrix(0.05,0,0,0.05,10,0)" xlink:href="#cj"/><use transform="matrix(0.05,0,0,0.05,20,0)" xlink:href="#cj"/><use transform="matrix(0.034999999999999996,0,0,0.034999999999999996,30,2.5199999999999996)" xlink:href="#cs"/><use transform="matrix(0.05,0,0,0.05,37,0)" xlink:href="#cK"/></g><g id="bP"><use transform="matrix(0.05,0,0,0.05,0,0)" xlink:href="#cv"/><use transform="matrix(0.05,0,0,0.05,9,0)" xlink:href="#bS"/><use transform="matrix(0.05,0,0,0.05,19,0)" xlink:href="#bX"/><use transform="matrix(0.034999999999999996,0,0,0.034999999999999996,22.95,2.5199999999999996)" xlink:href="#cs"/></g></defs></g></svg>