<svg xmlns="http://www.w3.org/2000/svg" xmlns:xlink="http://www.w3.org/1999/xlink" xmlns:lucid="lucid" width="1578.5" height="1200"><g transform="translate(0 0)" lucid:page-tab-id="1V5cPv9Ktxcg"><path d="M40 1049.5h140l40 30v50H40z" stroke="#000" stroke-width="2" fill="#c7e8ac"/><path d="M30 1059.5h140l40 30v50H30z" stroke="#000" stroke-width="2" fill="#c7e8ac"/><path d="M20 1069.5h140l40 30v50H20z" stroke="#000" stroke-width="2" fill="#c7e8ac"/><use xlink:href="#a" transform="matrix(1,0,0,1,20,1069.5) translate(58.05 43.6)"/><use xlink:href="#b" transform="matrix(1,0,0,1,20,1069.5) translate(109.95 43.6)"/><path d="M20 620h160l40 30v70H20z" stroke="#000" stroke-width="2" fill="#c7e8ac"/><use xlink:href="#c" transform="matrix(1,0,0,1,20,620) translate(71.03 55.025)"/><use xlink:href="#d" transform="matrix(1,0,0,1,20,620) translate(119.97999999999999 55.025)"/><path d="M120 1048.5v-19.76" stroke="#000" stroke-width="2" fill="none"/><path d="M121 1049.5h-2v-1h2z"/><path d="M120 1013.74l4.64 14.26h-9.28z" stroke="#000" stroke-width="2"/><path d="M120 768.5v-29.25" fill="none"/><path d="M120 768.5v-2.93m0-3.9v-5.85m0-3.9v-5.85m0-3.9v-2.93" stroke="#000" stroke-width="2" fill="none"/><path d="M124.64 738.5h-9.28l4.64-14.26z"/><path d="M126 739.5h-12l6-18.5zm-9.26-2h6.52L120 727.47z"/><path d="M20 300h160l40 30v70H20z" stroke="#19967d" stroke-width="2" fill="#c7e8ac"/><use xlink:href="#c" transform="matrix(1,0,0,1,20,300) translate(46.055 42.525)"/><use xlink:href="#e" transform="matrix(1,0,0,1,20,300) translate(95.005 42.525)"/><use xlink:href="#f" transform="matrix(1,0,0,1,20,300) translate(103.955 42.525)"/><use xlink:href="#g" transform="matrix(1,0,0,1,20,300) translate(119.455 42.525)"/><use xlink:href="#h" transform="matrix(1,0,0,1,20,300) translate(134.45499999999998 42.525)"/><use xlink:href="#i" transform="matrix(1,0,0,1,20,300) translate(54.379999999999995 64.125)"/><path d="M20 470h160l40 30v70H20z" stroke="#000" stroke-width="2" fill="#c7e8ac"/><use xlink:href="#c" transform="matrix(1,0,0,1,20,470) translate(17.68 55.025)"/><use xlink:href="#e" transform="matrix(1,0,0,1,20,470) translate(66.63 55.025)"/><use xlink:href="#f" transform="matrix(1,0,0,1,20,470) translate(75.58 55.025)"/><use xlink:href="#i" transform="matrix(1,0,0,1,20,470) translate(91.08 55.025)"/><path d="M120 619v-29.76" fill="none"/><path d="M120 619v-2.98m0-3.96v-5.96m0-3.97v-5.95m0-3.97v-2.96" stroke="#000" stroke-width="2" fill="none"/><path d="M121 620h-2v-1h2zM124.64 588.5h-9.28l4.64-14.26z"/><path d="M126 589.5h-12l6-18.5zm-9.26-2h6.52L120 577.47z"/><path d="M120 469v-49.76" stroke="#000" stroke-width="2" fill="none"/><path d="M121 470h-2v-1h2zM124.64 418.5h-9.28l4.64-14.26z"/><path d="M126 419.5h-12l6-18.5zm-9.26-2h6.52L120 407.47z"/><path d="M1228.5 20c16.57 0 30 13.43 30 30v300c0 16.57-13.43 30-30 30h-860c-16.57 0-30-13.43-30-30V50c0-16.57 13.43-30 30-30z" stroke="#000" stroke-width="2" fill="#e5e5e5"/><path d="M448.5 80c0 22.1-17.9 40-40 40s-40-17.9-40-40 17.9-40 40-40 40 17.9 40 40z" stroke="#000" stroke-width="2" fill="#c7e8ac"/><use xlink:href="#a" transform="matrix(1,0,0,1,373.5,45.00000000000003) translate(3.549999999999997 27.799999999999997)"/><use xlink:href="#j" transform="matrix(1,0,0,1,373.5,45.00000000000003) translate(55.45 27.799999999999997)"/><use xlink:href="#k" transform="matrix(1,0,0,1,373.5,45.00000000000003) translate(15 49.4)"/><path d="M857.5 80c0 22.1-17.9 40-40 40s-40-17.9-40-40 17.9-40 40-40 40 17.9 40 40z" stroke="#000" stroke-width="2" fill="#ffbbb1"/><use xlink:href="#a" transform="matrix(1,0,0,1,782.4993760969041,45.00000000000003) translate(3.049999999999997 27.799999999999997)"/><use xlink:href="#l" transform="matrix(1,0,0,1,782.4993760969041,45.00000000000003) translate(54.95 27.799999999999997)"/><use xlink:href="#k" transform="matrix(1,0,0,1,782.4993760969041,45.00000000000003) translate(15 49.4)"/><path d="M458.5 268.2c0 6.66-22.4 12.05-50 12.05s-50-5.4-50-12.05v-96.4c0-6.66 22.4-12.05 50-12.05s50 5.4 50 12.05z" stroke="#000" stroke-width="2" fill="#c7e8ac"/><path d="M458.5 171.8c0 6.66-22.4 12.05-50 12.05s-50-5.4-50-12.05" stroke="#000" stroke-width="2" fill="none"/><use xlink:href="#m" transform="matrix(1,0,0,1,363.5,188.85) translate(21.549999999999997 14.69999999999999)"/><use xlink:href="#n" transform="matrix(1,0,0,1,363.5,188.85) translate(23.525 36.29999999999999)"/><use xlink:href="#o" transform="matrix(1,0,0,1,363.5,188.85) translate(14.524999999999999 57.89999999999999)"/><use xlink:href="#p" transform="matrix(1,0,0,1,363.5,188.85) translate(-0.9500000000000028 79.5)"/><path d="M867.5 286c0 7.73-22.4 14-50 14s-50-6.27-50-14V174c0-7.73 22.4-14 50-14s50 6.27 50 14z" stroke="#000" stroke-width="2" fill="#ffbbb1"/><path d="M867.5 174c0 7.73-22.4 14-50 14s-50-6.27-50-14" stroke="#000" stroke-width="2" fill="none"/><use xlink:href="#m" transform="matrix(1,0,0,1,772.4993760969041,193) translate(21.549999999999997 22.19999999999999)"/><use xlink:href="#n" transform="matrix(1,0,0,1,772.4993760969041,193) translate(23.525 43.79999999999999)"/><use xlink:href="#o" transform="matrix(1,0,0,1,772.4993760969041,193) translate(14.524999999999999 65.39999999999999)"/><use xlink:href="#p" transform="matrix(1,0,0,1,772.4993760969041,193) translate(-0.9500000000000028 87)"/><path d="M1228.5 420c16.57 0 30 13.43 30 30v300c0 16.57-13.43 30-30 30h-860c-16.57 0-30-13.43-30-30V450c0-16.57 13.43-30 30-30z" stroke="#19967d" stroke-width="2" fill="#fff"/><path d="M448.5 480c0 22.1-17.9 40-40 40s-40-17.9-40-40 17.9-40 40-40 40 17.9 40 40z" stroke="#000" stroke-width="2" fill="#c7e8ac"/><use xlink:href="#a" transform="matrix(1,0,0,1,373.5,445) translate(3.549999999999997 27.799999999999997)"/><use xlink:href="#j" transform="matrix(1,0,0,1,373.5,445) translate(55.45 27.799999999999997)"/><use xlink:href="#k" transform="matrix(1,0,0,1,373.5,445) translate(15 49.4)"/><path d="M868.5 480c0 22.1-17.9 40-40 40s-40-17.9-40-40 17.9-40 40-40 40 17.9 40 40z" stroke="#000" stroke-width="2" fill="#ffbbb1"/><use xlink:href="#a" transform="matrix(1,0,0,1,793.5,445) translate(3.049999999999997 27.799999999999997)"/><use xlink:href="#l" transform="matrix(1,0,0,1,793.5,445) translate(54.95 27.799999999999997)"/><use xlink:href="#k" transform="matrix(1,0,0,1,793.5,445) translate(15 49.4)"/><path d="M458.5 668.2c0 6.66-22.4 12.05-50 12.05s-50-5.4-50-12.05v-96.4c0-6.66 22.4-12.05 50-12.05s50 5.4 50 12.05z" stroke="#000" stroke-width="2" fill="#c7e8ac"/><path d="M458.5 571.8c0 6.66-22.4 12.05-50 12.05s-50-5.4-50-12.05" stroke="#000" stroke-width="2" fill="none"/><use xlink:href="#m" transform="matrix(1,0,0,1,363.5,588.85) translate(21.549999999999997 14.69999999999999)"/><use xlink:href="#n" transform="matrix(1,0,0,1,363.5,588.85) translate(23.525 36.29999999999999)"/><use xlink:href="#o" transform="matrix(1,0,0,1,363.5,588.85) translate(14.524999999999999 57.89999999999999)"/><use xlink:href="#p" transform="matrix(1,0,0,1,363.5,588.85) translate(-0.9500000000000028 79.5)"/><path d="M878.5 668.45c0 6.66-22.4 12.05-50 12.05s-50-5.4-50-12.05v-96.4c0-6.66 22.4-12.05 50-12.05s50 5.4 50 12.05z" stroke="#000" stroke-width="2" fill="#ffbbb1"/><path d="M878.5 572.05c0 6.66-22.4 12.05-50 12.05s-50-5.4-50-12.05" stroke="#000" stroke-width="2" fill="none"/><use xlink:href="#m" transform="matrix(1,0,0,1,783.5,589.1) translate(21.549999999999997 14.69999999999999)"/><use xlink:href="#n" transform="matrix(1,0,0,1,783.5,589.1) translate(23.525 36.29999999999999)"/><use xlink:href="#o" transform="matrix(1,0,0,1,783.5,589.1) translate(14.524999999999999 57.89999999999999)"/><use xlink:href="#p" transform="matrix(1,0,0,1,783.5,589.1) translate(-0.9500000000000028 79.5)"/><path d="M1378.5 930.5h108l32 30v50h-140z" stroke="#000" stroke-width="2" fill="#ffbbb1"/><path d="M1368.5 940.5h108l32 30v50h-140z" stroke="#000" stroke-width="2" fill="#ffbbb1"/><path d="M1358.5 950.5h108l32 30v50h-140z" stroke="#000" stroke-width="2" fill="#ffbbb1"/><use xlink:href="#a" transform="matrix(1,0,0,1,1358.5,950.5) translate(38.05 43.6)"/><use xlink:href="#q" transform="matrix(1,0,0,1,1358.5,950.5) translate(89.95 43.6)"/><path d="M221 350h73.25V80h55" stroke="#000" stroke-width="2" fill="none"/><path d="M221 351h-1v-2h1zM364.26 80L350 84.64v-9.28z"/><path d="M367.5 80L349 86V74zM351 83.26L361.03 80 351 76.74z"/><path d="M1228.5 820c16.57 0 30 13.43 30 30v300c0 16.57-13.43 30-30 30h-860c-16.57 0-30-13.43-30-30V850c0-16.57 13.43-30 30-30z" stroke="#000" stroke-width="2" fill="#e5e5e5"/><path d="M448.5 880c0 22.1-17.9 40-40 40s-40-17.9-40-40 17.9-40 40-40 40 17.9 40 40z" stroke="#000" stroke-width="2" fill="#c7e8ac"/><use xlink:href="#a" transform="matrix(1,0,0,1,373.5,845) translate(3.549999999999997 27.799999999999997)"/><use xlink:href="#j" transform="matrix(1,0,0,1,373.5,845) translate(55.45 27.799999999999997)"/><use xlink:href="#k" transform="matrix(1,0,0,1,373.5,845) translate(15 49.4)"/><path d="M868.5 880c0 22.1-17.9 40-40 40s-40-17.9-40-40 17.9-40 40-40 40 17.9 40 40z" stroke="#000" stroke-width="2" fill="#ffbbb1"/><use xlink:href="#a" transform="matrix(1,0,0,1,793.5,845) translate(3.049999999999997 27.799999999999997)"/><use xlink:href="#l" transform="matrix(1,0,0,1,793.5,845) translate(54.95 27.799999999999997)"/><use xlink:href="#k" transform="matrix(1,0,0,1,793.5,845) translate(15 49.4)"/><path d="M458.5 1068.2c0 6.66-22.4 12.05-50 12.05s-50-5.4-50-12.05v-96.4c0-6.66 22.4-12.05 50-12.05s50 5.4 50 12.05z" stroke="#000" stroke-width="2" fill="#c7e8ac"/><path d="M458.5 971.8c0 6.66-22.4 12.05-50 12.05s-50-5.4-50-12.05" stroke="#000" stroke-width="2" fill="none"/><use xlink:href="#m" transform="matrix(1,0,0,1,363.5,988.8499999999999) translate(21.549999999999997 14.69999999999999)"/><use xlink:href="#n" transform="matrix(1,0,0,1,363.5,988.8499999999999) translate(23.525 36.29999999999999)"/><use xlink:href="#o" transform="matrix(1,0,0,1,363.5,988.8499999999999) translate(14.524999999999999 57.89999999999999)"/><use xlink:href="#p" transform="matrix(1,0,0,1,363.5,988.8499999999999) translate(-0.9500000000000028 79.5)"/><path d="M878.5 1068.45c0 6.66-22.4 12.05-50 12.05s-50-5.4-50-12.05v-96.4c0-6.66 22.4-12.05 50-12.05s50 5.4 50 12.05z" stroke="#000" stroke-width="2" fill="#ffbbb1"/><path d="M878.5 972.05c0 6.66-22.4 12.05-50 12.05s-50-5.4-50-12.05" stroke="#000" stroke-width="2" fill="none"/><use xlink:href="#m" transform="matrix(1,0,0,1,783.5,989.1) translate(21.549999999999997 14.69999999999999)"/><use xlink:href="#n" transform="matrix(1,0,0,1,783.5,989.1) translate(23.525 36.29999999999999)"/><use xlink:href="#o" transform="matrix(1,0,0,1,783.5,989.1) translate(14.524999999999999 57.89999999999999)"/><use xlink:href="#p" transform="matrix(1,0,0,1,783.5,989.1) translate(-0.9500000000000028 79.5)"/><path d="M221 350h73.25v530h55" stroke="#000" stroke-width="2" fill="none"/><path d="M221 351h-1v-2h1zM364.26 880L350 884.64v-9.28z"/><path d="M367.5 880l-18.5 6v-12zm-16.5 3.26l10.03-3.26-10.03-3.26z"/><path d="M449.5 80h308.76" stroke="#000" stroke-width="2" fill="none"/><path d="M449.5 81h-1.06l.06-1-.04-1h1.04zM773.26 80L759 84.64v-9.28z"/><path d="M776.5 80L758 86V74zM760 83.26L770.03 80 760 76.74z"/><path d="M449.5 880h319.76" stroke="#000" stroke-width="2" fill="none"/><path d="M449.5 881h-1.06l.06-1-.04-1h1.04zM784.26 880L770 884.64v-9.28z"/><path d="M787.5 880l-18.5 6v-12zm-16.5 3.26l10.03-3.26-10.03-3.26z"/><path d="M817.5 121v19.76" stroke="#000" stroke-width="2" fill="none"/><path d="M817.5 120l1-.04V121h-2v-1.06zM817.5 155.76l-4.64-14.26h9.27z"/><path d="M817.5 159l-6-18.5h12zm-3.26-16.5l3.26 10.03 3.26-10.03z"/><path d="M828.5 921v19.76" stroke="#000" stroke-width="2" fill="none"/><path d="M828.5 920l1-.04V921h-2v-1.06zM828.5 955.76l-4.64-14.26h9.28z"/><path d="M828.5 959l-6-18.5h12zm-3.26-16.5l3.26 10.03 3.26-10.03z"/><path d="M20 20h240v226H20z" stroke="#000" stroke-opacity="0" stroke-width="2" fill="#fff" fill-opacity="0"/><use xlink:href="#r" transform="matrix(1,0,0,1,25,25.000000000000014) translate(0 14.4)"/><use xlink:href="#s" transform="matrix(1,0,0,1,25,25.000000000000014) translate(16 14.4)"/><use xlink:href="#t" transform="matrix(1,0,0,1,25,25.000000000000014) translate(93.85000000000001 14.4)"/><use xlink:href="#u" transform="matrix(1,0,0,1,25,25.000000000000014) translate(148.75 14.4)"/><use xlink:href="#v" transform="matrix(1,0,0,1,25,25.000000000000014) translate(0 36)"/><use xlink:href="#w" transform="matrix(1,0,0,1,25,25.000000000000014) translate(62.95 36)"/><use xlink:href="#x" transform="matrix(1,0,0,1,25,25.000000000000014) translate(86.95 36)"/><use xlink:href="#y" transform="matrix(1,0,0,1,25,25.000000000000014) translate(101.95 36)"/><use xlink:href="#z" transform="matrix(1,0,0,1,25,25.000000000000014) translate(150.85000000000002 36)"/><use xlink:href="#A" transform="matrix(1,0,0,1,25,25.000000000000014) translate(170.85000000000002 36)"/><use xlink:href="#B" transform="matrix(1,0,0,1,25,25.000000000000014) translate(217.8 36)"/><use xlink:href="#f" transform="matrix(1,0,0,1,25,25.000000000000014) translate(0 57.6)"/><use xlink:href="#g" transform="matrix(1,0,0,1,25,25.000000000000014) translate(15.5 57.6)"/><use xlink:href="#f" transform="matrix(1,0,0,1,25,25.000000000000014) translate(30.5 57.6)"/><use xlink:href="#C" transform="matrix(1,0,0,1,25,25.000000000000014) translate(46 57.6)"/><use xlink:href="#D" transform="matrix(1,0,0,1,25,25.000000000000014) translate(147.25 57.6)"/><use xlink:href="#E" transform="matrix(1,0,0,1,25,25.000000000000014) translate(177.25 57.6)"/><use xlink:href="#F" transform="matrix(1,0,0,1,25,25.000000000000014) translate(191.2 57.6)"/><use xlink:href="#G" transform="matrix(1,0,0,1,25,25.000000000000014) translate(0 79.20000000000002)"/><use xlink:href="#H" transform="matrix(1,0,0,1,25,25.000000000000014) translate(108.9 79.20000000000002)"/><use xlink:href="#I" transform="matrix(1,0,0,1,25,25.000000000000014) translate(0 100.80000000000001)"/><use xlink:href="#J" transform="matrix(1,0,0,1,25,25.000000000000014) translate(0 122.4)"/><use xlink:href="#K" transform="matrix(1,0,0,1,25,25.000000000000014) translate(24.9 122.4)"/><use xlink:href="#L" transform="matrix(1,0,0,1,25,25.000000000000014) translate(77.8 122.4)"/><use xlink:href="#M" transform="matrix(1,0,0,1,25,25.000000000000014) translate(131.8 122.4)"/><use xlink:href="#N" transform="matrix(1,0,0,1,25,25.000000000000014) translate(0 144)"/><use xlink:href="#w" transform="matrix(1,0,0,1,25,25.000000000000014) translate(60.95 144)"/><use xlink:href="#O" transform="matrix(1,0,0,1,25,25.000000000000014) translate(84.95 144)"/><use xlink:href="#P" transform="matrix(1,0,0,1,25,25.000000000000014) translate(137.9 144)"/><use xlink:href="#Q" transform="matrix(1,0,0,1,25,25.000000000000014) translate(0 165.6)"/><use xlink:href="#R" transform="matrix(1,0,0,1,25,25.000000000000014) translate(35 165.6)"/><use xlink:href="#S" transform="matrix(1,0,0,1,25,25.000000000000014) translate(142.9 165.6)"/><use xlink:href="#T" transform="matrix(1,0,0,1,25,25.000000000000014) translate(0 187.2)"/><use xlink:href="#U" transform="matrix(1,0,0,1,25,25.000000000000014) translate(57.95 187.2)"/><use xlink:href="#V" transform="matrix(1,0,0,1,25,25.000000000000014) translate(159.85000000000002 187.2)"/><use xlink:href="#n" transform="matrix(1,0,0,1,25,25.000000000000014) translate(185.8 187.2)"/><use xlink:href="#W" transform="matrix(1,0,0,1,25,25.000000000000014) translate(0 208.79999999999998)"/><path d="M1318.5 20h240v160h-240z" stroke="#000" stroke-opacity="0" stroke-width="2" fill="#fff" fill-opacity="0"/><use xlink:href="#X" transform="matrix(1,0,0,1,1323.5,25.00000000000003) translate(0 14.4)"/><use xlink:href="#T" transform="matrix(1,0,0,1,1323.5,25.00000000000003) translate(68.80000000000001 14.4)"/><use xlink:href="#Y" transform="matrix(1,0,0,1,1323.5,25.00000000000003) translate(126.75000000000001 14.4)"/><use xlink:href="#Z" transform="matrix(1,0,0,1,1323.5,25.00000000000003) translate(0 36)"/><use xlink:href="#aa" transform="matrix(1,0,0,1,1323.5,25.00000000000003) translate(30.95 36)"/><use xlink:href="#ab" transform="matrix(1,0,0,1,1323.5,25.00000000000003) translate(69.9 36)"/><use xlink:href="#ac" transform="matrix(1,0,0,1,1323.5,25.00000000000003) translate(147.8 36)"/><use xlink:href="#ad" transform="matrix(1,0,0,1,1323.5,25.00000000000003) translate(166.75 36)"/><use xlink:href="#K" transform="matrix(1,0,0,1,1323.5,25.00000000000003) translate(0 57.6)"/><use xlink:href="#ae" transform="matrix(1,0,0,1,1323.5,25.00000000000003) translate(52.9 57.6)"/><use xlink:href="#L" transform="matrix(1,0,0,1,1323.5,25.00000000000003) translate(69.9 57.6)"/><use xlink:href="#af" transform="matrix(1,0,0,1,1323.5,25.00000000000003) translate(123.9 57.6)"/><use xlink:href="#I" transform="matrix(1,0,0,1,1323.5,25.00000000000003) translate(0 79.20000000000002)"/><use xlink:href="#ag" transform="matrix(1,0,0,1,1323.5,25.00000000000003) translate(0 100.80000000000001)"/><use xlink:href="#ah" transform="matrix(1,0,0,1,1323.5,25.00000000000003) translate(83.9 100.80000000000001)"/><use xlink:href="#ai" transform="matrix(1,0,0,1,1323.5,25.00000000000003) translate(121.80000000000001 100.80000000000001)"/><use xlink:href="#aj" transform="matrix(1,0,0,1,1323.5,25.00000000000003) translate(139.75 100.80000000000001)"/><use xlink:href="#ak" transform="matrix(1,0,0,1,1323.5,25.00000000000003) translate(0 122.4)"/><path d="M1140 420h101.5v60H1140z" stroke="#000" stroke-opacity="0" stroke-width="2" fill="#fff" fill-opacity="0"/><use xlink:href="#al" transform="matrix(1,0,0,1,1145,425) translate(4.148148148148138 30.333333333333336)"/><path d="M340 320h240v60H340z" stroke="#000" stroke-opacity="0" stroke-width="2" fill="#fff" fill-opacity="0"/><use xlink:href="#am" transform="matrix(1,0,0,1,345,325) translate(17.69999999999999 28.6)"/><use xlink:href="#an" transform="matrix(1,0,0,1,345,325) translate(108.55 28.6)"/><use xlink:href="#ao" transform="matrix(1,0,0,1,345,325) translate(179.4 28.6)"/><path d="M340 720h240v60H340z" stroke="#000" stroke-opacity="0" stroke-width="2" fill="#fff" fill-opacity="0"/><use xlink:href="#am" transform="matrix(1,0,0,1,345,725) translate(17.69999999999999 28.6)"/><use xlink:href="#an" transform="matrix(1,0,0,1,345,725) translate(108.55 28.6)"/><use xlink:href="#ap" transform="matrix(1,0,0,1,345,725) translate(179.4 28.6)"/><path d="M340 1120h240v60H340z" stroke="#000" stroke-opacity="0" stroke-width="2" fill="#fff" fill-opacity="0"/><use xlink:href="#am" transform="matrix(1,0,0,1,345,1125) translate(17.69999999999999 28.6)"/><use xlink:href="#an" transform="matrix(1,0,0,1,345,1125) translate(108.55 28.6)"/><use xlink:href="#aq" transform="matrix(1,0,0,1,345,1125) translate(179.4 28.6)"/><path d="M20 769.5h160l40 72v168H20z" stroke="#000" stroke-width="2" fill="#c7e8ac"/><use xlink:href="#c" transform="matrix(1,0,0,1,20,769.5) translate(5.01 19.41)"/><use xlink:href="#ar" transform="matrix(1,0,0,1,20,769.5) translate(53.96 19.41)"/><use xlink:href="#I" transform="matrix(1,0,0,1,20,769.5) translate(5.01 41.01)"/><use xlink:href="#as" transform="matrix(1,0,0,1,20,769.5) translate(5.01 62.61)"/><use xlink:href="#at" transform="matrix(1,0,0,1,20,769.5) translate(15.959999999999999 62.61)"/><use xlink:href="#au" transform="matrix(1,0,0,1,20,769.5) translate(36.01 84.21000000000001)"/><use xlink:href="#av" transform="matrix(1,0,0,1,20,769.5) translate(46.959999999999994 84.21000000000001)"/><use xlink:href="#aw" transform="matrix(1,0,0,1,20,769.5) translate(117.76 84.21000000000001)"/><use xlink:href="#au" transform="matrix(1,0,0,1,20,769.5) translate(36.01 105.81)"/><use xlink:href="#ax" transform="matrix(1,0,0,1,20,769.5) translate(46.959999999999994 105.81)"/><use xlink:href="#ay" transform="matrix(1,0,0,1,20,769.5) translate(107.91 105.81)"/><use xlink:href="#as" transform="matrix(1,0,0,1,20,769.5) translate(5.01 127.41)"/><use xlink:href="#az" transform="matrix(1,0,0,1,20,769.5) translate(15.959999999999999 127.41)"/><use xlink:href="#aA" transform="matrix(1,0,0,1,20,769.5) translate(36.01 149.01)"/><use xlink:href="#aB" transform="matrix(1,0,0,1,20,769.5) translate(112.75999999999999 149.01)"/><use xlink:href="#au" transform="matrix(1,0,0,1,20,769.5) translate(36.01 170.60999999999999)"/><use xlink:href="#ax" transform="matrix(1,0,0,1,20,769.5) translate(46.959999999999994 170.60999999999999)"/><use xlink:href="#aC" transform="matrix(1,0,0,1,20,769.5) translate(107.91 170.60999999999999)"/><use xlink:href="#aD" transform="matrix(1,0,0,1,20,769.5) translate(5.01 192.20999999999998)"/><path d="M734.5 720h170v60h-170z" stroke="#19967d" stroke-width="2" fill="#fff" fill-opacity="0"/><g><use xlink:href="#aE" transform="matrix(1,0,0,1,739.4996880484521,725) translate(15.574999999999989 17.799999999999997)"/><use xlink:href="#aF" transform="matrix(1,0,0,1,739.4996880484521,725) translate(76.52499999999999 17.799999999999997)"/><use xlink:href="#aG" transform="matrix(1,0,0,1,739.4996880484521,725) translate(102.475 17.799999999999997)"/><use xlink:href="#aH" transform="matrix(1,0,0,1,739.4996880484521,725) translate(16.89999999999999 39.4)"/></g><path d="M453 80h308.76" stroke="#000" stroke-width="2" fill="none"/><path d="M776.76 80l-14.26 4.64v-9.28z" stroke="#000" stroke-width="2"/><path d="M821 121v19.76" stroke="#000" stroke-width="2" fill="none"/><path d="M821 155.76l-4.64-14.26h9.27z" stroke="#000" stroke-width="2"/><path d="M623 128.2V80" stroke="#000" stroke-width="2" fill="none"/><path d="M624 129.2h-2v-1h2z"/><path d="M543 129.2h149.84L703 139.36V180H543z" stroke="#d9be60" stroke-width="2" fill="#ffdf71"/><path d="M692.84 129.2v10.16H703" fill="#d9be60"/><g><use xlink:href="#aI" transform="matrix(1,0,0,1,548.0000000000042,134.19999999999993) translate(48.55 14.4)"/><use xlink:href="#aJ" transform="matrix(1,0,0,1,548.0000000000042,134.19999999999993) translate(97.5 14.4)"/><use xlink:href="#aK" transform="matrix(1,0,0,1,548.0000000000042,134.19999999999993) translate(59.025 36)"/><use xlink:href="#aL" transform="matrix(1,0,0,1,548.0000000000042,134.19999999999993) translate(69.975 36)"/></g><path d="M543 204.6h149.84L703 214.76v40.64H543z" stroke="#d9be60" stroke-width="2" fill="#ffdf71"/><path d="M692.84 204.6v10.16H703" fill="#d9be60"/><g><use xlink:href="#aI" transform="matrix(1,0,0,1,548.0000000000042,209.59999999999997) translate(48.55 14.4)"/><use xlink:href="#aJ" transform="matrix(1,0,0,1,548.0000000000042,209.59999999999997) translate(97.5 14.4)"/><use xlink:href="#aK" transform="matrix(1,0,0,1,548.0000000000042,209.59999999999997) translate(59.025 36)"/><use xlink:href="#aM" transform="matrix(1,0,0,1,548.0000000000042,209.59999999999997) translate(69.975 36)"/></g><path d="M623 203.6V181" stroke="#000" stroke-width="2" fill="none"/><path d="M624 204.6h-2v-1h2zM624 181h-2v-1h2z"/><path d="M600 928.42v-48.2" stroke="#000" stroke-width="2" fill="none"/><path d="M601 929.42h-2v-1h2z"/><path d="M520 929.42h149.84L680 939.58v40.64H520z" stroke="#d9be60" stroke-width="2" fill="#ffdf71"/><path d="M669.84 929.42v10.16H680" fill="#d9be60"/><g><use xlink:href="#aI" transform="matrix(1,0,0,1,525,934.4249999999997) translate(48.55 14.4)"/><use xlink:href="#aJ" transform="matrix(1,0,0,1,525,934.4249999999997) translate(97.5 14.4)"/><use xlink:href="#aK" transform="matrix(1,0,0,1,525,934.4249999999997) translate(59.025 36)"/><use xlink:href="#aL" transform="matrix(1,0,0,1,525,934.4249999999997) translate(69.975 36)"/></g><path d="M520 1004.82h149.84l10.16 10.16v40.64H520z" stroke="#d9be60" stroke-width="2" fill="#ffdf71"/><path d="M669.84 1004.82v10.16H680" fill="#d9be60"/><g><use xlink:href="#aI" transform="matrix(1,0,0,1,525,1009.8249999999998) translate(48.55 14.4)"/><use xlink:href="#aJ" transform="matrix(1,0,0,1,525,1009.8249999999998) translate(97.5 14.4)"/><use xlink:href="#aK" transform="matrix(1,0,0,1,525,1009.8249999999998) translate(59.025 36)"/><use xlink:href="#aM" transform="matrix(1,0,0,1,525,1009.8249999999998) translate(69.975 36)"/></g><path d="M600 1003.82v-22.6" stroke="#000" stroke-width="2" fill="none"/><path d="M601 1004.83h-2v-1h2zM601 981.23h-2v-1h2z"/><path d="M861 188.86h52.05l5.95 5.95v23.8h-58z" stroke="#d9be60" stroke-width="2" fill="#ffdf71"/><path d="M913.05 188.86v5.95H919" fill="#d9be60"/><g><use xlink:href="#aN" transform="matrix(1,0,0,1,865.9987521938083,193.86249999999998) translate(9.05 14.4)"/></g><path d="M861 221.4h52.05l5.95 5.94v23.8h-58z" stroke="#d9be60" stroke-width="2" fill="#ffdf71"/><path d="M913.05 221.4v5.94H919" fill="#d9be60"/><g><use xlink:href="#aO" transform="matrix(1,0,0,1,865.9987521938083,226.38750000000002) translate(9.05 14.4)"/></g><path d="M861 988.86h52.05l5.95 5.95v23.8h-58z" stroke="#d9be60" stroke-width="2" fill="#ffdf71"/><path d="M913.05 988.86v5.95H919" fill="#d9be60"/><g><use xlink:href="#aN" transform="matrix(1,0,0,1,865.9987521938083,993.8624999999998) translate(9.05 14.4)"/></g><path d="M861 1021.4h52.05l5.95 5.94v23.8h-58z" stroke="#d9be60" stroke-width="2" fill="#ffdf71"/><path d="M913.05 1021.4v5.94H919" fill="#d9be60"/><g><use xlink:href="#aO" transform="matrix(1,0,0,1,865.9987521938083,1026.3874999999998) translate(9.05 14.4)"/></g><path d="M960 30h220v182.8H960z" fill="#c1e4f7"/><path d="M982 30h-22v182.8h22" stroke="#000" stroke-width="2" fill="none"/><g><use xlink:href="#aP" transform="matrix(1,0,0,1,978.75,35) translate(0 25.300000000000004)"/><use xlink:href="#aQ" transform="matrix(1,0,0,1,978.75,35) translate(59.95 25.300000000000004)"/><use xlink:href="#aR" transform="matrix(1,0,0,1,978.75,35) translate(0 46.900000000000006)"/><use xlink:href="#aS" transform="matrix(1,0,0,1,978.75,35) translate(15.5 46.900000000000006)"/><use xlink:href="#aT" transform="matrix(1,0,0,1,978.75,35) translate(53.4 46.900000000000006)"/><use xlink:href="#I" transform="matrix(1,0,0,1,978.75,35) translate(0 68.50000000000001)"/><use xlink:href="#as" transform="matrix(1,0,0,1,978.75,35) translate(0 90.10000000000002)"/><use xlink:href="#aU" transform="matrix(1,0,0,1,978.75,35) translate(10.95 90.10000000000002)"/><use xlink:href="#au" transform="matrix(1,0,0,1,978.75,35) translate(36.01 111.70000000000002)"/><use xlink:href="#aV" transform="matrix(1,0,0,1,978.75,35) translate(46.959999999999994 111.70000000000002)"/><use xlink:href="#aw" transform="matrix(1,0,0,1,978.75,35) translate(93.96 111.70000000000002)"/><use xlink:href="#aW" transform="matrix(1,0,0,1,978.75,35) translate(36.01 133.3)"/><use xlink:href="#av" transform="matrix(1,0,0,1,978.75,35) translate(46.959999999999994 133.3)"/><use xlink:href="#aX" transform="matrix(1,0,0,1,978.75,35) translate(117.76 133.3)"/><use xlink:href="#aW" transform="matrix(1,0,0,1,978.75,35) translate(36.01 154.9)"/><use xlink:href="#aY" transform="matrix(1,0,0,1,978.75,35) translate(46.959999999999994 154.9)"/><use xlink:href="#aZ" transform="matrix(1,0,0,1,978.75,35) translate(133.86 154.9)"/></g><path d="M960 200h220v167.75H960z" fill="#c1e4f7"/><path d="M982 200h-22v167.75h22" stroke="#000" stroke-width="2" fill="none"/><g><use xlink:href="#aP" transform="matrix(1,0,0,1,978.75,205.00000000000003) translate(0 17.800000000000004)"/><use xlink:href="#ba" transform="matrix(1,0,0,1,978.75,205.00000000000003) translate(59.95 17.800000000000004)"/><use xlink:href="#aR" transform="matrix(1,0,0,1,978.75,205.00000000000003) translate(0 39.400000000000006)"/><use xlink:href="#aS" transform="matrix(1,0,0,1,978.75,205.00000000000003) translate(15.5 39.400000000000006)"/><use xlink:href="#aT" transform="matrix(1,0,0,1,978.75,205.00000000000003) translate(53.4 39.400000000000006)"/><use xlink:href="#I" transform="matrix(1,0,0,1,978.75,205.00000000000003) translate(0 61.00000000000001)"/><use xlink:href="#as" transform="matrix(1,0,0,1,978.75,205.00000000000003) translate(0 82.60000000000002)"/><use xlink:href="#bb" transform="matrix(1,0,0,1,978.75,205.00000000000003) translate(10.95 82.60000000000002)"/><use xlink:href="#au" transform="matrix(1,0,0,1,978.75,205.00000000000003) translate(36.01 104.20000000000002)"/><use xlink:href="#bc" transform="matrix(1,0,0,1,978.75,205.00000000000003) translate(46.959999999999994 104.20000000000002)"/><use xlink:href="#aB" transform="matrix(1,0,0,1,978.75,205.00000000000003) translate(93.96 104.20000000000002)"/><use xlink:href="#aW" transform="matrix(1,0,0,1,978.75,205.00000000000003) translate(36.01 125.80000000000001)"/><use xlink:href="#av" transform="matrix(1,0,0,1,978.75,205.00000000000003) translate(46.959999999999994 125.80000000000001)"/><use xlink:href="#bd" transform="matrix(1,0,0,1,978.75,205.00000000000003) translate(117.76 125.80000000000001)"/><use xlink:href="#aW" transform="matrix(1,0,0,1,978.75,205.00000000000003) translate(36.01 147.4)"/><use xlink:href="#aY" transform="matrix(1,0,0,1,978.75,205.00000000000003) translate(46.959999999999994 147.4)"/><use xlink:href="#be" transform="matrix(1,0,0,1,978.75,205.00000000000003) translate(133.86 147.4)"/></g><path d="M920 203.74l.42-.02.4-.03.4-.07.4-.1.4-.1.4-.14.42-.18.42-.2.44-.26.45-.3.48-.35.5-.42.56-.52.58-.64.66-.8.73-1 .83-1.3.97-1.75 1.16-2.44 1.47-3.6 2.02-6.05 4.36-16.6 6.4-25.22 2.02-6.04.57-1.4" stroke="#000" stroke-width="2" fill="none"/><path d="M920.7 204.46l-1.7 1.62v-2.77l.3-.28zM950.74 137.5l-6.9-6.2 13-7.5z"/><path d="M951.1 139.18l-8.94-8.05L959 121.4zm-5.56-7.7l4.85 4.37 4.27-9.64z"/><path d="M920 236.26l1.46.1 1.36.22 1.3.4 1.3.55 1.33.77 1.42 1.05 1.57 1.47 1.85 2.2 2.44 3.74 11.4 22.1" stroke="#000" stroke-width="2" fill="none"/><path d="M920.53 235.42l-1.06 1.7-.47-.3v-2.37zM956.45 277.46l-14.1-5.12 5.7-7.3z"/><path d="M959 279.45l-18.3-6.64 7.4-9.47zm-15.02-7.58l9.92 3.6-5.9-8.74z"/><path d="M960 969.2h220v50.8H960z" fill="#c1e4f7"/><path d="M982 969.2h-22v50.8h22" stroke="#000" stroke-width="2" fill="none"/><g><use xlink:href="#aP" transform="matrix(1,0,0,1,978.75,974.1999999999998) translate(0 14.4)"/><use xlink:href="#aQ" transform="matrix(1,0,0,1,978.75,974.1999999999998) translate(59.95 14.4)"/><use xlink:href="#aR" transform="matrix(1,0,0,1,978.75,974.1999999999998) translate(0 36)"/><use xlink:href="#bf" transform="matrix(1,0,0,1,978.75,974.1999999999998) translate(15.5 36)"/><use xlink:href="#bg" transform="matrix(1,0,0,1,978.75,974.1999999999998) translate(53.4 36)"/></g><path d="M960 1020h220v50.8H960z" fill="#c1e4f7"/><path d="M982 1020h-22v50.8h22" stroke="#000" stroke-width="2" fill="none"/><g><use xlink:href="#aP" transform="matrix(1,0,0,1,978.75,1024.9999999999998) translate(0 14.4)"/><use xlink:href="#ba" transform="matrix(1,0,0,1,978.75,1024.9999999999998) translate(59.95 14.4)"/><use xlink:href="#aR" transform="matrix(1,0,0,1,978.75,1024.9999999999998) translate(0 36)"/><use xlink:href="#bf" transform="matrix(1,0,0,1,978.75,1024.9999999999998) translate(15.5 36)"/><use xlink:href="#bg" transform="matrix(1,0,0,1,978.75,1024.9999999999998) translate(53.4 36)"/></g><path d="M920 1003.74l6.38-.38 4.62-.9 4.45-1.48 5.94-2.42" stroke="#000" stroke-width="2" fill="none"/><path d="M920.17 1004.72l-1.17.2v-2.03l.83-.15zM955.84 995.3l-12.9 7.66-2.03-9.04z"/><path d="M959 994.6l-16.73 9.92-2.64-11.73zm-15.38 6.8l9.07-5.38-10.52-.98z"/><path d="M920 1036.26l6.38.38 4.62.9 4.45 1.48 5.94 2.42" stroke="#000" stroke-width="2" fill="none"/><path d="M920.17 1035.28l-.34 1.97-.83-.14v-2.02zM955.84 1044.7l-14.93 1.38 2.04-9.04z"/><path d="M959 1045.4l-19.37 1.8 2.64-11.72zm-16.82-.44l10.5-.98-9.06-5.38z"/><path d="M959 121.4l-5.6.2-5.42.6-5.26.96-5.07 1.3-4.88 1.66-4.67 1.96-4.44 2.26-4.2 2.55-3.96 2.8-3.7 3.03-3.43 3.26-3.15 3.46-2.87 3.66-2.6 3.85-2.28 4-2 4.17-1.7 4.33-1.37 4.37" fill="none"/><path d="M959 121.4l-2.95.1m-3.93.24l-4.14.45-1.7.3m-3.88.74l-4.75 1.23-.94.32m-3.72 1.25l-.2.07-4.68 1.96-.55.28m-3.5 1.8l-.4.18-4.2 2.55-.45.3m-3.22 2.28l-.28.2-3.7 3.05-.55.53m-2.86 2.7l-.03.03-3.15 3.46-.73.93m-2.4 3.1l-2.34 3.47-.86 1.5m-1.9 3.46l-1.54 3.2-.85 2.2m-1.32 3.7l-.88 2.8" stroke="#000" stroke-width="2" fill="none"/><path d="M960 122.3l-.9.1-.2-2 1.1-.1zM896.9 171.12l-6.47 13.53-2.72-14.75z"/><path d="M898.4 170.3l-8.4 17.56-3.52-19.13zm-7.55 11.15l4.56-9.52-6.46-.86z"/><path d="M959 283.87l-22.94-.63-10.34-1.1-6.97-1.26-5.13-1.33-3.96-1.33-3.17-1.33-2.6-1.33-2.17-1.3-1.84-1.3-1.6-1.3-1.37-1.32-1.2-1.3" fill="none"/><path d="M959 283.87l-2.86-.07m-3.8-.1l-5.73-.17m-3.8-.1l-5.73-.16m-3.8-.33l-5.7-.6m-3.76-.55l-5.05-.92-.56-.15m-3.7-.95l-.88-.23-3.96-1.33-.6-.25m-3.48-1.54l-1.68-.86-2.17-1.3-1.06-.76m-2.95-2.4l-.8-.75-1.18-1.3" stroke="#000" stroke-width="2" fill="none"/><path d="M960 282.9v2l-1.03-.03.06-2zM900 267.22l-8.77 2.98-.2-15z"/><path d="M901.64 267.73l-11.4 3.86-.24-19.46zm-9.42 1.08l6.17-2.08-6.32-8.45z"/><path d="M959 994.6l-1.5-.05-1.38-.15-1.3-.24-1.23-.32-1.22-.4-1.18-.5-1.2-.6-1.2-.74-1.26-.9-1.37-1.13-1.56-1.5-1.95-2.16-9.54-12-1.32-1.27-1.14-.94-1.02-.73-.97-.6-.92-.46-.9-.37-.9-.3-.9-.24-.95-.18-1-.1-1.03-.04-1.13.04-1.24.13-1.38.26-1.6.42-1.85.63-2.23.95-2.8 1.42-3.62 2.2-2.15 1.54" fill="none"/><path d="M959 994.6l-1.5-.05-1.36-.15m-3.7-.95l-.06-.02-1.18-.5-1.2-.6-1.2-.73-1.26-.9-.08-.06m-2.85-2.55v-.02l-1.95-2.17-1.75-2.2m-2.38-2.98l-3.57-4.5m-2.46-2.9l-.72-.7-1.14-.93-1.02-.73-.97-.6-.8-.4m-3.64-1.13l-.12-.02-1-.1-1.03-.04-1.13.04-1.24.13-1.17.22m-3.66 1.1l-2.22.93-2.8 1.42-.16.1m-3.27 2l-.2.1-2.15 1.54" stroke="#000" stroke-width="2" fill="none"/><path d="M960 993.94v2.16l-1.4-.58.8-1.84zM906.44 980.3l-13.95 5.5 8.04-12.66z"/><path d="M908.1 980.7l-18.1 7.16 10.43-16.42zm-13.1 3.04l9.8-3.88-4.16-5.02z"/><path d="M959 1045.4l-1.3.05-1.2.13-1.13.2-1.06.27-1 .35-.97.4-.97.5-.96.58-.97.7-1.02.83-1.06 1.03-1.18 1.3-1.37 1.76-1.85 2.74-7 11.65-1.2 1.52-1 1.1-.88.85-.82.67-.77.55-.75.45-.75.37-.74.32-.75.25-.8.2-.8.14-.86.1-.92.03-1-.04-1.14-.12-1.27-.23-1.47-.38-1.75-.6-2.15-.9-2.72-1.4-3.6-2.2-5.1-3.64-1-.8" fill="none"/><path d="M959 1045.4l-1.3.05-1.2.13-.54.1m-3.86 1.25l-.74.37-.96.58-.97.7-1.02.83-1.06 1.03-.12.13m-2.58 3.15l-1.7 2.54-1.57 2.63m-2.1 3.5l-3.15 5.23m-2.6 3.14l-.65.63-.82.67-.77.55-.75.45-.75.37-.74.32-.64.2m-4.02.5h-.47l-1.12-.13-1.27-.23-1.47-.38-1.6-.56m-3.7-1.68l-1.32-.67-3.6-2.2-.34-.24m-3.32-2.36l-1.45-1.04-1-.8" stroke="#000" stroke-width="2" fill="none"/><path d="M960 1046.02l-.55.27-.9-1.8 1.45-.72zM906.22 1060.2l-6.1 6.96-7.7-12.9z"/><path d="M907.88 1059.8l-7.93 9.05-9.95-16.7zm-7.62 5.66l4.3-4.9-9.7-4.16z"/><path d="M1198.2 284.88l1.9.2 5.53.8 5.07.98 4.7 1.1 4.37 1.22 4.1 1.33 3.83 1.43 3.62 1.53 3.44 1.6 3.27 1.72 3.13 1.8 3 1.9 2.88 2 2.78 2.13 2.7 2.24 2.62 2.36 2.56 2.5 2.5 2.66 2.43 2.83 2.4 3.02 2.36 3.24 2.3 3.5 2.3 3.8 2.27 4.12 2.25 4.52 2.2 4.98 2.2 5.53 2.15 6.2 2.12 7.02 2.05 8.04 1.98 9.35 1.87 11.1 1.7 13.45 1.4 16.98.92 22.7-.06 34.34-8.45 179.06-.3 50.6 3.82 178.33L1289 910l-1.52 16.68-1.75 13.06-1.88 10.65-1.97 8.93-2.03 7.66-2.07 6.65-2.1 5.88-2.1 5.23-2.15 4.7-2.16 4.27-2.18 3.9-2.2 3.57-2.24 3.3-2.26 3.05-2.3 2.85-2.34 2.67-2.38 2.5-2.45 2.35-2.5 2.22-2.58 2.1-2.67 2-2.76 1.88-2.87 1.8-3 1.68-3.12 1.6-3.3 1.53-3.48 1.43-3.7 1.33-3.9 1.23-4.22 1.14-4.53 1.02-4.9.9-5.2.7" fill="none"/><path d="M1198.2 284.88l1.9.2 1.08.16m3.95.58l.5.07 5.07.96.32.07m3.9.9l.48.13 4.37 1.22.9.3m3.8 1.25l3.23 1.2 2.34 1m3.64 1.64l1.08.5 3.27 1.7.96.57m3.42 2.05l1.73 1.1 2.9 2 .33.25m3.16 2.45l1.98 1.64 2.54 2.3m2.85 2.8l2.3 2.42 1.73 2m2.5 3.1l.6.76 2.36 3.24.56.86m2.18 3.35l1.87 3.08 1.16 2.1m1.86 3.53l1.5 3.02 1.06 2.4m1.58 3.66l1.76 4.45.4 1.16m1.3 3.77l.45 1.27 1.34 4.45m1.1 3.84l1.5 5.8m.87 3.9l1.24 5.86m.7 3.93l1 5.9m.57 3.95l.75 5.95m.5 3.96l.17 1.4.37 4.57m.33 3.98l.5 5.98m.26 4l.24 5.98m.17 4l.24 5.98m.17 4l.05 1.18v4.8m0 4l-.02 6m0 3.98l-.02 6m0 4l-.02 5.57-.02.4m-.2 4l-.27 6m-.2 3.98l-.27 6m-.2 3.98l-.27 5.98m-.2 4l-.27 6m-.2 3.98l-.27 6m-.2 3.98l-.28 5.98m-.2 4l-.28 5.98m-.18 4l-.3 5.98m-.17 4l-.3 5.97m-.2 4l-.27 5.98m-.2 4l-.27 5.98m-.2 4l-.27 5.97m-.2 4l-.28 5.98m-.2 4l-.27 5.98m-.2 4l-.27 5.97m-.2 4l-.27 5.98m-.18 4l-.28 6m-.2 3.98l-.23 5.05v.93m-.02 4l-.04 6m-.02 4l-.04 5.98m-.03 4l-.04 6m0 3.98l-.05 6m-.02 4l-.04 5.7v.28m.08 4l.13 6m.1 3.98l.12 6m.1 4l.12 5.98m.08 4l.13 6m.1 3.98l.12 6m.08 3.98l.13 6m.1 4l.12 5.98m.08 4l.13 6m.1 3.98l.13 6m.08 4l.14 5.98m.1 4l.1 5.98m.1 4l.13 6m.08 3.98l.13 6m.1 4l.12 5.98m.08 4l.13 6m.1 3.98l.13 6m.08 4l.14 5.98m.1 4l.08 4.3-.08 1.68m-.2 4l-.3 5.98m-.18 4l-.3 5.97m-.3 3.98l-.55 5.96m-.35 3.98l-.37 4.06-.25 1.9m-.53 3.96l-.8 5.94m-.64 3.94l-1.05 5.9m-.76 3.92l-1.3 5.86m-.96 3.87l-1.33 5.02-.24.75m-1.17 3.82l-.65 2.08-1.28 3.6m-1.4 3.73l-1.53 3.78-.8 1.74m-1.68 3.63l-1.83 3.6-.96 1.7m-2 3.46l-1.4 2.3-1.85 2.72m-2.35 3.23l-.3.4-2.3 2.85-1.2 1.38m-2.7 2.94l-.82.85-2.45 2.35-1.06.95m-3.05 2.58l-.97.8-2.67 1.98-1.16.8m-3.35 2.18l-1.12.7-3 1.7-1.1.56m-3.57 1.76l-1.75.8-3.48 1.44-.3.1m-3.75 1.35l-3.56 1.13-2.18.6m-3.88.96l-2.68.6-3.2.57m-3.94.63l-2.96.4" stroke="#000" stroke-width="2" fill="none"/><path d="M1197.22 289.47l-13.98-5.42 14.5-3.84z"/><path d="M1198.15 290.9l-18.15-7.02 18.8-5zm-11.68-6.67l9.83 3.8.36-6.5zM1197.74 1045.18l-14.5-3.82 13.97-5.44z"/><path d="M1198.8 1046.5l-18.8-4.96 18.13-7.05zm-12.34-5.33l10.2 2.7-.37-6.52z"/><path d="M1198.2 122.27l4.93.5 6.36.95 5.84 1.12 5.4 1.27 5.06 1.4 4.7 1.54 4.45 1.65 4.2 1.75 3.96 1.87 3.8 1.98 3.62 2.1 3.47 2.2 3.34 2.32 3.23 2.46 3.14 2.6 3.05 2.73 2.98 2.92 2.9 3.1 2.85 3.3 2.8 3.54 2.76 3.8 2.72 4.1 2.7 4.43 2.65 4.84 2.65 5.3 2.6 5.9 2.6 6.53 2.55 7.35 2.52 8.35 2.46 9.62 2.4 11.24 2.25 13.44 2.08 16.52 1.77 21.2 1.2 29.4-.13 49.35L1308 564l5.67 263.3-1.5 24.34-1.92 18.38-2.16 14.67-2.3 12.1-2.42 10.28-2.46 8.86-2.52 7.75-2.55 6.85-2.58 6.14-2.6 5.52-2.63 5.04-2.66 4.6-2.68 4.24-2.72 3.9-2.77 3.65-2.8 3.4-2.86 3.18-2.93 3-2.98 2.8-3.08 2.67-3.18 2.5-3.28 2.4-3.4 2.26-3.55 2.14-3.7 2.04-3.88 1.92-4.08 1.82-4.32 1.7-4.6 1.6-4.88 1.48-5.25 1.35-5.66 1.2-6.13 1.05-6.7.84-1.72.13" fill="none"/><path d="M1198.2 122.27l3 .3m3.95.5l4.34.65 1.56.3m3.92.75l.36.07 5.4 1.27.07.02m3.85 1.07l1.15.3 4.56 1.5m3.74 1.38l.85.3 4.2 1.77.48.23m3.6 1.7l3.67 1.92 1.6.93m3.42 2.05l2.07 1.32 2.9 2m3.2 2.4l.47.38 3.14 2.6.98.87m2.93 2.7l2.13 2.07 2.07 2.2m2.64 3l1.04 1.2 2.73 3.45m2.36 3.22l.48.65 2.72 4.1.13.22m2.06 3.4l.5.82 2.4 4.4m1.8 3.57l1.1 2.18 1.43 3.25m1.57 3.66l2.18 5.5.02.07m1.3 3.77l1.23 3.52.66 2.16m1.15 3.82l.72 2.37.87 3.4m.98 3.87l.6 2.35.74 3.47m.83 3.9l.82 3.87.34 2m.67 3.95l1 5.9m.56 3.94l.75 5.94m.5 3.96l.53 4.26.15 1.68m.33 3.98l.5 5.97m.32 3.97l.47 5.6v.37m.17 4l.25 5.97m.15 4l.24 5.97m.15 4l.2 5.1v.88m0 4l-.02 5.97m0 4l-.02 5.98m0 4l-.02 5.98m0 4l-.02 5.98m0 4l-.02 4.57-.04 1.4m-.13 4l-.18 5.98m-.13 4l-.18 5.98m-.13 4l-.18 5.98m-.13 4l-.18 5.97m-.14 4l-.18 5.97m-.12 4l-.18 5.97m-.12 3.98l-.18 6m-.12 3.98l-.18 5.98m-.13 4l-.18 5.97m-.12 4l-.18 5.98m-.12 4l-.18 5.98m-.12 3.98l-.18 6m-.13 3.98l-.18 5.98m-.12 4l-.18 5.97m-.12 4l-.18 5.97m-.12 4l-.18 5.98m-.13 4l-.18 5.97m-.12 3.98l-.18 5.98m-.12 4l-.18 5.97m-.12 4L1308 564l.04 1.8m.08 4l.13 5.98m.1 4l.12 5.98m.08 3.98l.13 6m.1 3.98l.12 5.98m.08 4l.13 5.98m.1 4l.13 5.97m.08 4l.14 5.98m.1 4l.12 5.97m.08 4l.13 5.98m.1 4l.12 5.97m.07 4l.13 5.98m.1 4l.12 5.97m.08 4l.13 5.97m.1 4l.12 5.98m.08 4l.13 5.97m.1 4l.1 5.98m.1 4l.13 5.97m.08 4l.12 5.98m.1 4l.12 5.97m.1 4l.1 5.98m.1 4l.13 5.97m.08 4l.13 5.98m.1 4l.12 5.97m.08 4l.13 5.97m.08 3.98l.13 6m.1 3.98l.12 5.98m-.06 4l-.37 5.96m-.26 4l-.37 5.96m-.25 4l-.16 2.58-.35 3.37m-.4 3.98l-.62 5.95m-.42 3.97l-.1 1.12-.72 4.8m-.58 3.96l-.87 5.9v.02m-.76 3.92l-1.1 5.88m-.83 3.9l-1.35 5.84m-.95 3.87l-1.6 5.78m-1.16 3.82l-1.84 5.7m-1.38 3.74l-1.27 3.4-.9 2.17m-1.55 3.7l-.13.3-2.4 5.12m-1.84 3.54l-1 1.9-1.9 3.33m-2.1 3.4l-1.33 2.1-2 2.86m-2.36 3.2l-1.13 1.5-2.62 3.18m-2.66 2.97l-.38.43-2.93 3-.9.84m-2.93 2.7l-2.23 1.93-2.38 1.88m-3.2 2.38l-.88.64-3.4 2.26-.7.42m-3.43 2.04l-3.12 1.72-2.17 1.07m-3.6 1.7l-2.2.98-3.34 1.32m-3.75 1.36l-1.8.63-3.9 1.16m-3.86 1.04l-2.38.6-3.45.74m-3.9.76l-4.44.75-1.48.18m-3.96.5l-1.27.16-1.72.13" stroke="#000" stroke-width="2" fill="none"/><path d="M1197.27 126.86l-14.03-5.3 14.47-3.96z"/><path d="M1198.2 128.3l-18.2-6.9 18.77-5.12zm-11.73-6.6l9.86 3.74.3-6.5zM1197.7 1007.8l-14.47-3.96 14.03-5.3z"/><path d="M1198.76 1009.13L1180 1004l18.2-6.88zm-12.3-5.44l10.18 2.77-.3-6.5z"/><defs><path d="M212-179c-10-28-35-45-73-45-59 0-87 40-87 99 0 60 29 101 89 101 43 0 62-24 78-52l27 14C228-24 195 4 139 4 59 4 22-46 18-125c-6-104 99-153 187-111 19 9 31 26 39 46" id="bh"/><path d="M106-169C34-169 62-67 57 0H25v-261h32l-1 103c12-21 28-36 61-36 89 0 53 116 60 194h-32v-121c2-32-8-49-39-48" id="bi"/><path d="M141-36C126-15 110 5 73 4 37 3 15-17 15-53c-1-64 63-63 125-63 3-35-9-54-41-54-24 1-41 7-42 31l-33-3c5-37 33-52 76-52 45 0 72 20 72 64v82c-1 20 7 32 28 27v20c-31 9-61-2-59-35zM48-53c0 20 12 33 32 33 41-3 63-29 60-74-43 2-92-5-92 41" id="bj"/><path d="M24-231v-30h32v30H24zM24 0v-190h32V0H24" id="bk"/><path d="M117-194c89-4 53 116 60 194h-32v-121c0-31-8-49-39-48C34-167 62-67 57 0H25l-1-190h30c1 10-1 24 2 32 11-22 29-35 61-36" id="bl"/><g id="a"><use transform="matrix(0.05,0,0,0.05,0,0)" xlink:href="#bh"/><use transform="matrix(0.05,0,0,0.05,12.950000000000001,0)" xlink:href="#bi"/><use transform="matrix(0.05,0,0,0.05,22.950000000000003,0)" xlink:href="#bj"/><use transform="matrix(0.05,0,0,0.05,32.95,0)" xlink:href="#bk"/><use transform="matrix(0.05,0,0,0.05,36.900000000000006,0)" xlink:href="#bl"/></g><path d="M205 0l-28-72H64L36 0H1l101-248h38L239 0h-34zm-38-99l-47-123c-12 45-31 82-46 123h93" id="bm"/><use transform="matrix(0.05,0,0,0.05,0,0)" xlink:href="#bm" id="b"/><path d="M160-131c35 5 61 23 61 61C221 17 115-2 30 0v-248c76 3 177-17 177 60 0 33-19 50-47 57zm-97-11c50-1 110 9 110-42 0-47-63-36-110-37v79zm0 115c55-2 124 14 124-45 0-56-70-42-124-44v89" id="bn"/><path d="M24 0v-261h32V0H24" id="bo"/><path d="M100-194c62-1 85 37 85 99 1 63-27 99-86 99S16-35 15-95c0-66 28-99 85-99zM99-20c44 1 53-31 53-75 0-43-8-75-51-75s-53 32-53 75 10 74 51 75" id="bp"/><path d="M96-169c-40 0-48 33-48 73s9 75 48 75c24 0 41-14 43-38l32 2c-6 37-31 61-74 61-59 0-76-41-82-99-10-93 101-131 147-64 4 7 5 14 7 22l-32 3c-4-21-16-35-41-35" id="bq"/><path d="M143 0L79-87 56-68V0H24v-261h32v163l83-92h37l-77 82L181 0h-38" id="br"/><g id="c"><use transform="matrix(0.05,0,0,0.05,0,0)" xlink:href="#bn"/><use transform="matrix(0.05,0,0,0.05,12,0)" xlink:href="#bo"/><use transform="matrix(0.05,0,0,0.05,15.949999999999998,0)" xlink:href="#bp"/><use transform="matrix(0.05,0,0,0.05,25.950000000000003,0)" xlink:href="#bq"/><use transform="matrix(0.05,0,0,0.05,34.95,0)" xlink:href="#br"/></g><use transform="matrix(0.05,0,0,0.05,0,0)" xlink:href="#br" id="d"/><use transform="matrix(0.05,0,0,0.05,0,0)" xlink:href="#bk" id="e"/><path d="M118-107v75H92v-75H18v-26h74v-75h26v75h74v26h-74" id="bs"/><use transform="matrix(0.05,0,0,0.05,0,0)" xlink:href="#bs" id="f"/><path d="M27 0v-27h64v-190l-56 39v-29l58-41h29v221h61V0H27" id="bt"/><use transform="matrix(0.05,0,0,0.05,0,0)" xlink:href="#bt" id="g"/><use transform="matrix(0.05,0,0,0.05,0,0)" xlink:href="#bs" id="h"/><path d="M210-169c-67 3-38 105-44 169h-31v-121c0-29-5-50-35-48C34-165 62-65 56 0H25l-1-190h30c1 10-1 24 2 32 10-44 99-50 107 0 11-21 27-35 58-36 85-2 47 119 55 194h-31v-121c0-29-5-49-35-48" id="bu"/><path d="M141 0L90-78 38 0H4l68-98-65-92h35l48 74 47-74h35l-64 92 68 98h-35" id="bv"/><path d="M233-177c-1 41-23 64-60 70L243 0h-38l-65-103H63V0H30v-248c88 3 205-21 203 71zM63-129c60-2 137 13 137-47 0-61-80-42-137-45v92" id="bw"/><path d="M100-194c63 0 86 42 84 106H49c0 40 14 67 53 68 26 1 43-12 49-29l28 8c-11 28-37 45-77 45C44 4 14-33 15-96c1-61 26-98 85-98zm52 81c6-60-76-77-97-28-3 7-6 17-6 28h103" id="bx"/><path d="M114-163C36-179 61-72 57 0H25l-1-190h30c1 12-1 29 2 39 6-27 23-49 58-41v29" id="by"/><path d="M177-190C167-65 218 103 67 71c-23-6-38-20-44-43l32-5c15 47 100 32 89-28v-30C133-14 115 1 83 1 29 1 15-40 15-95c0-56 16-97 71-98 29-1 48 16 59 35 1-10 0-23 2-32h30zM94-22c36 0 50-32 50-73 0-42-14-75-50-75-39 0-46 34-46 75s6 73 46 73" id="bz"/><g id="i"><use transform="matrix(0.05,0,0,0.05,0,0)" xlink:href="#bu"/><use transform="matrix(0.05,0,0,0.05,14.950000000000001,0)" xlink:href="#bj"/><use transform="matrix(0.05,0,0,0.05,24.950000000000003,0)" xlink:href="#bv"/><use transform="matrix(0.05,0,0,0.05,33.95,0)" xlink:href="#bw"/><use transform="matrix(0.05,0,0,0.05,46.900000000000006,0)" xlink:href="#bx"/><use transform="matrix(0.05,0,0,0.05,56.900000000000006,0)" xlink:href="#bp"/><use transform="matrix(0.05,0,0,0.05,66.9,0)" xlink:href="#by"/><use transform="matrix(0.05,0,0,0.05,72.85000000000001,0)" xlink:href="#bz"/><use transform="matrix(0.034999999999999996,0,0,0.034999999999999996,82.85000000000001,2.5199999999999996)" xlink:href="#bm"/></g><use transform="matrix(0.05,0,0,0.05,0,0)" xlink:href="#bm" id="j"/><path d="M85-194c31 0 48 13 60 33l-1-100h32l1 261h-30c-2-10 0-23-3-31C134-8 116 4 85 4 32 4 16-35 15-94c0-66 23-100 70-100zm9 24c-40 0-46 34-46 75 0 40 6 74 45 74 42 0 51-32 51-76 0-42-9-74-50-73" id="bA"/><g id="k"><use transform="matrix(0.05,0,0,0.05,0,0)" xlink:href="#bl"/><use transform="matrix(0.05,0,0,0.05,10,0)" xlink:href="#bp"/><use transform="matrix(0.05,0,0,0.05,20,0)" xlink:href="#bA"/><use transform="matrix(0.05,0,0,0.05,30,0)" xlink:href="#bx"/></g><use transform="matrix(0.05,0,0,0.05,0,0)" xlink:href="#bn" id="l"/><path d="M135-143c-3-34-86-38-87 0 15 53 115 12 119 90S17 21 10-45l28-5c4 36 97 45 98 0-10-56-113-15-118-90-4-57 82-63 122-42 12 7 21 19 24 35" id="bB"/><g id="m"><use transform="matrix(0.05,0,0,0.05,0,0)" xlink:href="#bh"/><use transform="matrix(0.05,0,0,0.05,12.950000000000001,0)" xlink:href="#by"/><use transform="matrix(0.05,0,0,0.05,18.900000000000002,0)" xlink:href="#bp"/><use transform="matrix(0.05,0,0,0.05,28.900000000000002,0)" xlink:href="#bB"/><use transform="matrix(0.05,0,0,0.05,37.900000000000006,0)" xlink:href="#bB"/></g><g id="n"><use transform="matrix(0.05,0,0,0.05,0,0)" xlink:href="#bq"/><use transform="matrix(0.05,0,0,0.05,9,0)" xlink:href="#bi"/><use transform="matrix(0.05,0,0,0.05,19,0)" xlink:href="#bj"/><use transform="matrix(0.05,0,0,0.05,29,0)" xlink:href="#bk"/><use transform="matrix(0.05,0,0,0.05,32.95,0)" xlink:href="#bl"/></g><g id="o"><use transform="matrix(0.05,0,0,0.05,0,0)" xlink:href="#bB"/><use transform="matrix(0.05,0,0,0.05,9,0)" xlink:href="#bx"/><use transform="matrix(0.05,0,0,0.05,19,0)" xlink:href="#bB"/><use transform="matrix(0.05,0,0,0.05,28,0)" xlink:href="#bB"/><use transform="matrix(0.05,0,0,0.05,37,0)" xlink:href="#bk"/><use transform="matrix(0.05,0,0,0.05,40.95,0)" xlink:href="#bp"/><use transform="matrix(0.05,0,0,0.05,50.95,0)" xlink:href="#bl"/></g><path d="M115-194c55 1 70 41 70 98S169 2 115 4C84 4 66-9 55-30l1 105H24l-1-265h31l2 30c10-21 28-34 59-34zm-8 174c40 0 45-34 45-75s-6-73-45-74c-42 0-51 32-51 76 0 43 10 73 51 73" id="bC"/><path d="M59-47c-2 24 18 29 38 22v24C64 9 27 4 27-40v-127H5v-23h24l9-43h21v43h35v23H59v120" id="bD"/><g id="p"><use transform="matrix(0.05,0,0,0.05,0,0)" xlink:href="#bC"/><use transform="matrix(0.05,0,0,0.05,10,0)" xlink:href="#bx"/><use transform="matrix(0.05,0,0,0.05,20,0)" xlink:href="#by"/><use transform="matrix(0.05,0,0,0.05,25.950000000000003,0)" xlink:href="#bB"/><use transform="matrix(0.05,0,0,0.05,34.95,0)" xlink:href="#bk"/><use transform="matrix(0.05,0,0,0.05,38.900000000000006,0)" xlink:href="#bB"/><use transform="matrix(0.05,0,0,0.05,47.900000000000006,0)" xlink:href="#bD"/><use transform="matrix(0.05,0,0,0.05,52.900000000000006,0)" xlink:href="#bx"/><use transform="matrix(0.05,0,0,0.05,62.900000000000006,0)" xlink:href="#bl"/><use transform="matrix(0.05,0,0,0.05,72.9,0)" xlink:href="#bq"/><use transform="matrix(0.05,0,0,0.05,81.9,0)" xlink:href="#bx"/></g><use transform="matrix(0.05,0,0,0.05,0,0)" xlink:href="#bn" id="q"/><use transform="matrix(0.05,0,0,0.05,0,0)" xlink:href="#bm" id="r"/><path d="M101-234c-31-9-42 10-38 44h38v23H63V0H32v-167H5v-23h27c-7-52 17-82 69-68v24" id="bE"/><g id="s"><use transform="matrix(0.05,0,0,0.05,0,0)" xlink:href="#bC"/><use transform="matrix(0.05,0,0,0.05,10,0)" xlink:href="#by"/><use transform="matrix(0.05,0,0,0.05,15.949999999999998,0)" xlink:href="#bx"/><use transform="matrix(0.05,0,0,0.05,25.950000000000003,0)" xlink:href="#bE"/><use transform="matrix(0.05,0,0,0.05,30.950000000000003,0)" xlink:href="#bx"/><use transform="matrix(0.05,0,0,0.05,40.95,0)" xlink:href="#by"/><use transform="matrix(0.05,0,0,0.05,46.900000000000006,0)" xlink:href="#by"/><use transform="matrix(0.05,0,0,0.05,52.85,0)" xlink:href="#bx"/><use transform="matrix(0.05,0,0,0.05,62.85,0)" xlink:href="#bA"/></g><g id="t"><use transform="matrix(0.05,0,0,0.05,0,0)" xlink:href="#bo"/><use transform="matrix(0.05,0,0,0.05,3.95,0)" xlink:href="#bx"/><use transform="matrix(0.05,0,0,0.05,13.949999999999998,0)" xlink:href="#bj"/><use transform="matrix(0.05,0,0,0.05,23.95,0)" xlink:href="#bA"/><use transform="matrix(0.05,0,0,0.05,33.95,0)" xlink:href="#bx"/><use transform="matrix(0.05,0,0,0.05,43.95,0)" xlink:href="#by"/></g><path d="M206 0h-36l-40-164L89 0H53L-1-190h32L70-26l43-164h34l41 164 42-164h31" id="bF"/><g id="u"><use transform="matrix(0.05,0,0,0.05,0,0)" xlink:href="#bF"/><use transform="matrix(0.05,0,0,0.05,12.950000000000001,0)" xlink:href="#bj"/><use transform="matrix(0.05,0,0,0.05,22.950000000000003,0)" xlink:href="#bB"/></g><g id="v"><use transform="matrix(0.05,0,0,0.05,0,0)" xlink:href="#bx"/><use transform="matrix(0.05,0,0,0.05,10,0)" xlink:href="#bo"/><use transform="matrix(0.05,0,0,0.05,13.949999999999998,0)" xlink:href="#bx"/><use transform="matrix(0.05,0,0,0.05,23.95,0)" xlink:href="#bq"/><use transform="matrix(0.05,0,0,0.05,32.95,0)" xlink:href="#bD"/><use transform="matrix(0.05,0,0,0.05,37.95,0)" xlink:href="#bx"/><use transform="matrix(0.05,0,0,0.05,47.95,0)" xlink:href="#bA"/></g><g id="w"><use transform="matrix(0.05,0,0,0.05,0,0)" xlink:href="#bj"/><use transform="matrix(0.05,0,0,0.05,10,0)" xlink:href="#bB"/></g><use transform="matrix(0.05,0,0,0.05,0,0)" xlink:href="#bj" id="x"/><path d="M84 4C-5 8 30-112 23-190h32v120c0 31 7 50 39 49 72-2 45-101 50-169h31l1 190h-30c-1-10 1-25-2-33-11 22-28 36-60 37" id="bG"/><g id="y"><use transform="matrix(0.05,0,0,0.05,0,0)" xlink:href="#by"/><use transform="matrix(0.05,0,0,0.05,5.95,0)" xlink:href="#bx"/><use transform="matrix(0.05,0,0,0.05,15.949999999999998,0)" xlink:href="#bB"/><use transform="matrix(0.05,0,0,0.05,24.95,0)" xlink:href="#bG"/><use transform="matrix(0.05,0,0,0.05,34.95,0)" xlink:href="#bo"/><use transform="matrix(0.05,0,0,0.05,38.900000000000006,0)" xlink:href="#bD"/></g><g id="z"><use transform="matrix(0.05,0,0,0.05,0,0)" xlink:href="#bp"/><use transform="matrix(0.05,0,0,0.05,10,0)" xlink:href="#bE"/></g><path d="M115-194c53 0 69 39 70 98 0 66-23 100-70 100C84 3 66-7 56-30L54 0H23l1-261h32v101c10-23 28-34 59-34zm-8 174c40 0 45-34 45-75 0-40-5-75-45-74-42 0-51 32-51 76 0 43 10 73 51 73" id="bH"/><g id="A"><use transform="matrix(0.05,0,0,0.05,0,0)" xlink:href="#bH"/><use transform="matrix(0.05,0,0,0.05,10,0)" xlink:href="#bo"/><use transform="matrix(0.05,0,0,0.05,13.949999999999998,0)" xlink:href="#bp"/><use transform="matrix(0.05,0,0,0.05,23.95,0)" xlink:href="#bq"/><use transform="matrix(0.05,0,0,0.05,32.95,0)" xlink:href="#br"/></g><use transform="matrix(0.05,0,0,0.05,0,0)" xlink:href="#bk" id="B"/><path d="M240 0l2-218c-23 76-54 145-80 218h-23L58-218 59 0H30v-248h44l77 211c21-75 51-140 76-211h43V0h-30" id="bI"/><path d="M68-38c1 34 0 65-14 84H32c9-13 17-26 17-46H33v-38h35" id="bJ"/><g id="C"><use transform="matrix(0.05,0,0,0.05,0,0)" xlink:href="#bI"/><use transform="matrix(0.05,0,0,0.05,14.950000000000001,0)" xlink:href="#bj"/><use transform="matrix(0.05,0,0,0.05,24.950000000000003,0)" xlink:href="#bv"/><use transform="matrix(0.05,0,0,0.05,33.95,0)" xlink:href="#bw"/><use transform="matrix(0.05,0,0,0.05,46.900000000000006,0)" xlink:href="#bx"/><use transform="matrix(0.05,0,0,0.05,56.900000000000006,0)" xlink:href="#bp"/><use transform="matrix(0.05,0,0,0.05,66.9,0)" xlink:href="#by"/><use transform="matrix(0.05,0,0,0.05,72.85000000000001,0)" xlink:href="#bz"/><use transform="matrix(0.034999999999999996,0,0,0.034999999999999996,82.85000000000001,2.5199999999999996)" xlink:href="#bm"/><use transform="matrix(0.05,0,0,0.05,91.25,0)" xlink:href="#bJ"/></g><g id="D"><use transform="matrix(0.05,0,0,0.05,0,0)" xlink:href="#bH"/><use transform="matrix(0.05,0,0,0.05,10,0)" xlink:href="#bG"/><use transform="matrix(0.05,0,0,0.05,20,0)" xlink:href="#bD"/></g><g id="E"><use transform="matrix(0.05,0,0,0.05,0,0)" xlink:href="#bk"/><use transform="matrix(0.05,0,0,0.05,3.95,0)" xlink:href="#bD"/></g><g id="F"><use transform="matrix(0.05,0,0,0.05,0,0)" xlink:href="#bk"/><use transform="matrix(0.05,0,0,0.05,3.95,0)" xlink:href="#bB"/></g><path d="M179-190L93 31C79 59 56 82 12 73V49c39 6 53-20 64-50L1-190h34L92-34l54-156h33" id="bK"/><g id="G"><use transform="matrix(0.05,0,0,0.05,0,0)" xlink:href="#bG"/><use transform="matrix(0.05,0,0,0.05,10,0)" xlink:href="#bl"/><use transform="matrix(0.05,0,0,0.05,20,0)" xlink:href="#bE"/><use transform="matrix(0.05,0,0,0.05,25,0)" xlink:href="#bp"/><use transform="matrix(0.05,0,0,0.05,35,0)" xlink:href="#by"/><use transform="matrix(0.05,0,0,0.05,40.95,0)" xlink:href="#bD"/><use transform="matrix(0.05,0,0,0.05,45.95,0)" xlink:href="#bG"/><use transform="matrix(0.05,0,0,0.05,55.95,0)" xlink:href="#bl"/><use transform="matrix(0.05,0,0,0.05,65.95,0)" xlink:href="#bj"/><use transform="matrix(0.05,0,0,0.05,75.95,0)" xlink:href="#bD"/><use transform="matrix(0.05,0,0,0.05,80.95,0)" xlink:href="#bx"/><use transform="matrix(0.05,0,0,0.05,90.95,0)" xlink:href="#bo"/><use transform="matrix(0.05,0,0,0.05,94.9,0)" xlink:href="#bK"/></g><path d="M33 0v-38h34V0H33" id="bL"/><g id="H"><use transform="matrix(0.05,0,0,0.05,0,0)" xlink:href="#bp"/><use transform="matrix(0.05,0,0,0.05,10,0)" xlink:href="#bE"/><use transform="matrix(0.05,0,0,0.05,14.65,0)" xlink:href="#bE"/><use transform="matrix(0.05,0,0,0.05,19.65,0)" xlink:href="#bo"/><use transform="matrix(0.05,0,0,0.05,23.599999999999998,0)" xlink:href="#bk"/><use transform="matrix(0.05,0,0,0.05,27.549999999999997,0)" xlink:href="#bl"/><use transform="matrix(0.05,0,0,0.05,37.55,0)" xlink:href="#bx"/><use transform="matrix(0.05,0,0,0.05,47.55,0)" xlink:href="#bL"/></g><g id="J"><use transform="matrix(0.05,0,0,0.05,0,0)" xlink:href="#bm"/><use transform="matrix(0.05,0,0,0.05,12,0)" xlink:href="#bo"/><use transform="matrix(0.05,0,0,0.05,15.949999999999998,0)" xlink:href="#bo"/></g><g id="K"><use transform="matrix(0.05,0,0,0.05,0,0)" xlink:href="#bp"/><use transform="matrix(0.05,0,0,0.05,10,0)" xlink:href="#bl"/><use transform="matrix(0.05,0,0,0.05,20,0)" xlink:href="#bo"/><use transform="matrix(0.05,0,0,0.05,23.95,0)" xlink:href="#bk"/><use transform="matrix(0.05,0,0,0.05,27.899999999999995,0)" xlink:href="#bl"/><use transform="matrix(0.05,0,0,0.05,37.9,0)" xlink:href="#bx"/></g><g id="L"><use transform="matrix(0.05,0,0,0.05,0,0)" xlink:href="#bl"/><use transform="matrix(0.05,0,0,0.05,10,0)" xlink:href="#bp"/><use transform="matrix(0.05,0,0,0.05,20,0)" xlink:href="#bA"/><use transform="matrix(0.05,0,0,0.05,30,0)" xlink:href="#bx"/><use transform="matrix(0.05,0,0,0.05,40,0)" xlink:href="#bB"/></g><g id="M"><use transform="matrix(0.05,0,0,0.05,0,0)" xlink:href="#bC"/><use transform="matrix(0.05,0,0,0.05,10,0)" xlink:href="#by"/><use transform="matrix(0.05,0,0,0.05,15.949999999999998,0)" xlink:href="#bp"/><use transform="matrix(0.05,0,0,0.05,25.950000000000003,0)" xlink:href="#bq"/><use transform="matrix(0.05,0,0,0.05,34.95,0)" xlink:href="#bx"/><use transform="matrix(0.05,0,0,0.05,44.95,0)" xlink:href="#bx"/><use transform="matrix(0.05,0,0,0.05,54.95,0)" xlink:href="#bA"/></g><g id="N"><use transform="matrix(0.05,0,0,0.05,0,0)" xlink:href="#bx"/><use transform="matrix(0.05,0,0,0.05,10,0)" xlink:href="#bv"/><use transform="matrix(0.05,0,0,0.05,19,0)" xlink:href="#bj"/><use transform="matrix(0.05,0,0,0.05,29,0)" xlink:href="#bq"/><use transform="matrix(0.05,0,0,0.05,38,0)" xlink:href="#bD"/><use transform="matrix(0.05,0,0,0.05,43,0)" xlink:href="#bo"/><use transform="matrix(0.05,0,0,0.05,46.95,0)" xlink:href="#bK"/></g><g id="O"><use transform="matrix(0.05,0,0,0.05,0,0)" xlink:href="#bG"/><use transform="matrix(0.05,0,0,0.05,10,0)" xlink:href="#bB"/><use transform="matrix(0.05,0,0,0.05,19,0)" xlink:href="#bG"/><use transform="matrix(0.05,0,0,0.05,29,0)" xlink:href="#bj"/><use transform="matrix(0.05,0,0,0.05,39,0)" xlink:href="#bo"/><use transform="matrix(0.05,0,0,0.05,42.95,0)" xlink:href="#bJ"/></g><g id="P"><use transform="matrix(0.05,0,0,0.05,0,0)" xlink:href="#bq"/><use transform="matrix(0.05,0,0,0.05,9,0)" xlink:href="#by"/><use transform="matrix(0.05,0,0,0.05,14.949999999999998,0)" xlink:href="#bx"/><use transform="matrix(0.05,0,0,0.05,24.95,0)" xlink:href="#bj"/><use transform="matrix(0.05,0,0,0.05,34.95,0)" xlink:href="#bD"/><use transform="matrix(0.05,0,0,0.05,39.95,0)" xlink:href="#bk"/><use transform="matrix(0.05,0,0,0.05,43.900000000000006,0)" xlink:href="#bl"/><use transform="matrix(0.05,0,0,0.05,53.900000000000006,0)" xlink:href="#bz"/></g><g id="Q"><use transform="matrix(0.05,0,0,0.05,0,0)" xlink:href="#bj"/><use transform="matrix(0.05,0,0,0.05,10,0)" xlink:href="#bl"/><use transform="matrix(0.05,0,0,0.05,20,0)" xlink:href="#bA"/></g><g id="R"><use transform="matrix(0.05,0,0,0.05,0,0)" xlink:href="#bH"/><use transform="matrix(0.05,0,0,0.05,10,0)" xlink:href="#by"/><use transform="matrix(0.05,0,0,0.05,15.949999999999998,0)" xlink:href="#bp"/><use transform="matrix(0.05,0,0,0.05,25.950000000000003,0)" xlink:href="#bj"/><use transform="matrix(0.05,0,0,0.05,35.95,0)" xlink:href="#bA"/><use transform="matrix(0.05,0,0,0.05,45.95,0)" xlink:href="#bq"/><use transform="matrix(0.05,0,0,0.05,54.95,0)" xlink:href="#bj"/><use transform="matrix(0.05,0,0,0.05,64.95,0)" xlink:href="#bB"/><use transform="matrix(0.05,0,0,0.05,73.95,0)" xlink:href="#bD"/><use transform="matrix(0.05,0,0,0.05,78.95,0)" xlink:href="#bk"/><use transform="matrix(0.05,0,0,0.05,82.9,0)" xlink:href="#bl"/><use transform="matrix(0.05,0,0,0.05,92.9,0)" xlink:href="#bz"/></g><g id="S"><use transform="matrix(0.05,0,0,0.05,0,0)" xlink:href="#bC"/><use transform="matrix(0.05,0,0,0.05,10,0)" xlink:href="#bj"/><use transform="matrix(0.05,0,0,0.05,20,0)" xlink:href="#by"/><use transform="matrix(0.05,0,0,0.05,25.950000000000003,0)" xlink:href="#bD"/><use transform="matrix(0.05,0,0,0.05,30.950000000000003,0)" xlink:href="#bk"/><use transform="matrix(0.05,0,0,0.05,34.9,0)" xlink:href="#bj"/><use transform="matrix(0.05,0,0,0.05,44.9,0)" xlink:href="#bo"/><use transform="matrix(0.05,0,0,0.05,48.85,0)" xlink:href="#bo"/><use transform="matrix(0.05,0,0,0.05,52.800000000000004,0)" xlink:href="#bK"/></g><g id="T"><use transform="matrix(0.05,0,0,0.05,0,0)" xlink:href="#bB"/><use transform="matrix(0.05,0,0,0.05,9,0)" xlink:href="#bk"/><use transform="matrix(0.05,0,0,0.05,12.949999999999998,0)" xlink:href="#bz"/><use transform="matrix(0.05,0,0,0.05,22.95,0)" xlink:href="#bl"/><use transform="matrix(0.05,0,0,0.05,32.95,0)" xlink:href="#bx"/><use transform="matrix(0.05,0,0,0.05,42.95,0)" xlink:href="#bA"/></g><g id="U"><use transform="matrix(0.05,0,0,0.05,0,0)" xlink:href="#bD"/><use transform="matrix(0.05,0,0,0.05,5,0)" xlink:href="#by"/><use transform="matrix(0.05,0,0,0.05,10.95,0)" xlink:href="#bj"/><use transform="matrix(0.05,0,0,0.05,20.95,0)" xlink:href="#bl"/><use transform="matrix(0.05,0,0,0.05,30.950000000000003,0)" xlink:href="#bB"/><use transform="matrix(0.05,0,0,0.05,39.95,0)" xlink:href="#bj"/><use transform="matrix(0.05,0,0,0.05,49.95,0)" xlink:href="#bq"/><use transform="matrix(0.05,0,0,0.05,58.95,0)" xlink:href="#bD"/><use transform="matrix(0.05,0,0,0.05,63.95,0)" xlink:href="#bk"/><use transform="matrix(0.05,0,0,0.05,67.9,0)" xlink:href="#bp"/><use transform="matrix(0.05,0,0,0.05,77.9,0)" xlink:href="#bl"/><use transform="matrix(0.05,0,0,0.05,87.9,0)" xlink:href="#bB"/></g><g id="V"><use transform="matrix(0.05,0,0,0.05,0,0)" xlink:href="#bE"/><use transform="matrix(0.05,0,0,0.05,5,0)" xlink:href="#bp"/><use transform="matrix(0.05,0,0,0.05,15,0)" xlink:href="#by"/></g><g id="W"><use transform="matrix(0.05,0,0,0.05,0,0)" xlink:href="#bn"/><use transform="matrix(0.05,0,0,0.05,12,0)" xlink:href="#bL"/></g><path d="M30-248c87 1 191-15 191 75 0 78-77 80-158 76V0H30v-248zm33 125c57 0 124 11 124-50 0-59-68-47-124-48v98" id="bM"/><g id="X"><use transform="matrix(0.05,0,0,0.05,0,0)" xlink:href="#bM"/><use transform="matrix(0.05,0,0,0.05,12,0)" xlink:href="#bj"/><use transform="matrix(0.05,0,0,0.05,22,0)" xlink:href="#by"/><use transform="matrix(0.05,0,0,0.05,27.950000000000003,0)" xlink:href="#bD"/><use transform="matrix(0.05,0,0,0.05,32.95,0)" xlink:href="#bk"/><use transform="matrix(0.05,0,0,0.05,36.900000000000006,0)" xlink:href="#bj"/><use transform="matrix(0.05,0,0,0.05,46.900000000000006,0)" xlink:href="#bo"/><use transform="matrix(0.05,0,0,0.05,50.85000000000001,0)" xlink:href="#bo"/><use transform="matrix(0.05,0,0,0.05,54.80000000000001,0)" xlink:href="#bK"/></g><g id="Y"><use transform="matrix(0.05,0,0,0.05,0,0)" xlink:href="#bD"/><use transform="matrix(0.05,0,0,0.05,5,0)" xlink:href="#by"/><use transform="matrix(0.05,0,0,0.05,10.95,0)" xlink:href="#bj"/><use transform="matrix(0.05,0,0,0.05,20.95,0)" xlink:href="#bl"/><use transform="matrix(0.05,0,0,0.05,30.950000000000003,0)" xlink:href="#bB"/><use transform="matrix(0.05,0,0,0.05,39.95,0)" xlink:href="#bj"/><use transform="matrix(0.05,0,0,0.05,49.95,0)" xlink:href="#bq"/><use transform="matrix(0.05,0,0,0.05,58.95,0)" xlink:href="#bD"/><use transform="matrix(0.05,0,0,0.05,63.95,0)" xlink:href="#bk"/><use transform="matrix(0.05,0,0,0.05,67.9,0)" xlink:href="#bp"/><use transform="matrix(0.05,0,0,0.05,77.9,0)" xlink:href="#bl"/><use transform="matrix(0.05,0,0,0.05,87.9,0)" xlink:href="#bB"/></g><g id="Z"><use transform="matrix(0.05,0,0,0.05,0,0)" xlink:href="#bj"/><use transform="matrix(0.05,0,0,0.05,10,0)" xlink:href="#by"/><use transform="matrix(0.05,0,0,0.05,15.949999999999998,0)" xlink:href="#bx"/></g><g id="aa"><use transform="matrix(0.05,0,0,0.05,0,0)" xlink:href="#bi"/><use transform="matrix(0.05,0,0,0.05,10,0)" xlink:href="#bx"/><use transform="matrix(0.05,0,0,0.05,20,0)" xlink:href="#bo"/><use transform="matrix(0.05,0,0,0.05,23.95,0)" xlink:href="#bA"/></g><g id="ab"><use transform="matrix(0.05,0,0,0.05,0,0)" xlink:href="#bC"/><use transform="matrix(0.05,0,0,0.05,10,0)" xlink:href="#bx"/><use transform="matrix(0.05,0,0,0.05,20,0)" xlink:href="#by"/><use transform="matrix(0.05,0,0,0.05,25.950000000000003,0)" xlink:href="#bB"/><use transform="matrix(0.05,0,0,0.05,34.95,0)" xlink:href="#bk"/><use transform="matrix(0.05,0,0,0.05,38.900000000000006,0)" xlink:href="#bB"/><use transform="matrix(0.05,0,0,0.05,47.900000000000006,0)" xlink:href="#bD"/><use transform="matrix(0.05,0,0,0.05,52.900000000000006,0)" xlink:href="#bx"/><use transform="matrix(0.05,0,0,0.05,62.900000000000006,0)" xlink:href="#bA"/></g><g id="ac"><use transform="matrix(0.05,0,0,0.05,0,0)" xlink:href="#bk"/><use transform="matrix(0.05,0,0,0.05,3.95,0)" xlink:href="#bl"/></g><g id="ad"><use transform="matrix(0.05,0,0,0.05,0,0)" xlink:href="#bj"/><use transform="matrix(0.05,0,0,0.05,10,0)" xlink:href="#bo"/><use transform="matrix(0.05,0,0,0.05,13.949999999999998,0)" xlink:href="#bo"/></g><use transform="matrix(0.05,0,0,0.05,0,0)" xlink:href="#bn" id="ae"/><g id="af"><use transform="matrix(0.05,0,0,0.05,0,0)" xlink:href="#bA"/><use transform="matrix(0.05,0,0,0.05,10,0)" xlink:href="#bj"/><use transform="matrix(0.05,0,0,0.05,20,0)" xlink:href="#bD"/><use transform="matrix(0.05,0,0,0.05,25,0)" xlink:href="#bj"/><use transform="matrix(0.05,0,0,0.05,35,0)" xlink:href="#bH"/><use transform="matrix(0.05,0,0,0.05,45,0)" xlink:href="#bj"/><use transform="matrix(0.05,0,0,0.05,55,0)" xlink:href="#bB"/><use transform="matrix(0.05,0,0,0.05,64,0)" xlink:href="#bx"/><use transform="matrix(0.05,0,0,0.05,74,0)" xlink:href="#bB"/><use transform="matrix(0.05,0,0,0.05,83,0)" xlink:href="#bL"/></g><path d="M140-251c81 0 123 46 123 126C263-46 219 4 140 4 59 4 17-45 17-125s42-126 123-126zm0 227c63 0 89-41 89-101s-29-99-89-99c-61 0-89 39-89 99S79-25 140-24" id="bN"/><path d="M108 0H70L1-190h34L89-25l56-165h34" id="bO"/><g id="ag"><use transform="matrix(0.05,0,0,0.05,0,0)" xlink:href="#bN"/><use transform="matrix(0.05,0,0,0.05,14,0)" xlink:href="#bH"/><use transform="matrix(0.05,0,0,0.05,24,0)" xlink:href="#bO"/><use transform="matrix(0.05,0,0,0.05,33,0)" xlink:href="#bk"/><use transform="matrix(0.05,0,0,0.05,36.95,0)" xlink:href="#bp"/><use transform="matrix(0.05,0,0,0.05,46.95,0)" xlink:href="#bG"/><use transform="matrix(0.05,0,0,0.05,56.95,0)" xlink:href="#bB"/><use transform="matrix(0.05,0,0,0.05,65.95,0)" xlink:href="#bo"/><use transform="matrix(0.05,0,0,0.05,69.9,0)" xlink:href="#bK"/></g><path d="M63-220v92h138v28H63V0H30v-248h175v28H63" id="bP"/><path d="M101-251c82-7 93 87 43 132L82-64C71-53 59-42 53-27h129V0H18c2-99 128-94 128-182 0-28-16-43-45-43s-46 15-49 41l-32-3c6-41 34-60 81-64" id="bQ"/><g id="ah"><use transform="matrix(0.05,0,0,0.05,0,0)" xlink:href="#bP"/><use transform="matrix(0.05,0,0,0.05,10.950000000000001,0)" xlink:href="#bI"/><use transform="matrix(0.034999999999999996,0,0,0.034999999999999996,25.900000000000002,2.5199999999999996)" xlink:href="#bQ"/></g><g id="ai"><use transform="matrix(0.05,0,0,0.05,0,0)" xlink:href="#bk"/><use transform="matrix(0.05,0,0,0.05,3.95,0)" xlink:href="#bB"/></g><g id="aj"><use transform="matrix(0.05,0,0,0.05,0,0)" xlink:href="#bl"/><use transform="matrix(0.05,0,0,0.05,10,0)" xlink:href="#bp"/><use transform="matrix(0.05,0,0,0.05,20,0)" xlink:href="#bD"/></g><g id="ak"><use transform="matrix(0.05,0,0,0.05,0,0)" xlink:href="#bG"/><use transform="matrix(0.05,0,0,0.05,10,0)" xlink:href="#bC"/><use transform="matrix(0.05,0,0,0.05,20,0)" xlink:href="#bA"/><use transform="matrix(0.05,0,0,0.05,30,0)" xlink:href="#bj"/><use transform="matrix(0.05,0,0,0.05,40,0)" xlink:href="#bD"/><use transform="matrix(0.05,0,0,0.05,45,0)" xlink:href="#bx"/><use transform="matrix(0.05,0,0,0.05,55,0)" xlink:href="#bA"/><use transform="matrix(0.05,0,0,0.05,65,0)" xlink:href="#bL"/></g><path fill="#c92d39" d="M18-101c0-91 52-150 145-150 68 0 111 34 111 101C274-54 221 4 128 4 59 4 18-33 18-101zm202-32c4-46-15-77-59-77-65 0-88 46-91 108-2 41 22 65 60 65 60 0 84-40 90-96" id="bR"/><path fill="#c92d39" d="M93-157L62 0H13l31-157H16l6-33h28c2-54 40-81 100-68l-6 32c-29-8-44 9-45 36h38l-7 33H93" id="bS"/><path fill="#c92d39" d="M6 0l51-261h49L55 0H6" id="bT"/><path fill="#c92d39" d="M50-224l7-37h49l-7 37H50zM6 0l37-190h49L55 0H6" id="bU"/><path fill="#c92d39" d="M151-194c95 0 34 128 28 194h-49l25-134c0-29-45-25-59-9C67-111 69-48 56 0H6l36-190h47l-4 32c15-20 33-36 66-36" id="bV"/><path fill="#c92d39" d="M114-194c63-2 87 48 72 110H63c-3 28 1 55 31 54 21-1 32-13 37-29l44 13C160-14 137 4 91 4 41 4 11-22 11-73c0-71 33-119 103-121zm30 77c14-47-50-61-67-22-3 6-6 13-8 22h75" id="bW"/><g id="al"><use transform="matrix(0.07407407407407408,0,0,0.07407407407407408,0,0)" xlink:href="#bR"/><use transform="matrix(0.07407407407407408,0,0,0.07407407407407408,20.740740740740744,0)" xlink:href="#bS"/><use transform="matrix(0.07407407407407408,0,0,0.07407407407407408,29.03703703703704,0)" xlink:href="#bS"/><use transform="matrix(0.07407407407407408,0,0,0.07407407407407408,37.85185185185186,0)" xlink:href="#bT"/><use transform="matrix(0.07407407407407408,0,0,0.07407407407407408,45.25925925925927,0)" xlink:href="#bU"/><use transform="matrix(0.07407407407407408,0,0,0.07407407407407408,52.66666666666667,0)" xlink:href="#bV"/><use transform="matrix(0.07407407407407408,0,0,0.07407407407407408,68.8888888888889,0)" xlink:href="#bW"/></g><g id="am"><use transform="matrix(0.05,0,0,0.05,0,0)" xlink:href="#bP"/><use transform="matrix(0.05,0,0,0.05,10.950000000000001,0)" xlink:href="#bx"/><use transform="matrix(0.05,0,0,0.05,20.950000000000003,0)" xlink:href="#bA"/><use transform="matrix(0.05,0,0,0.05,30.950000000000003,0)" xlink:href="#bx"/><use transform="matrix(0.05,0,0,0.05,40.95,0)" xlink:href="#by"/><use transform="matrix(0.05,0,0,0.05,46.900000000000006,0)" xlink:href="#bj"/><use transform="matrix(0.05,0,0,0.05,56.900000000000006,0)" xlink:href="#bD"/><use transform="matrix(0.05,0,0,0.05,61.900000000000006,0)" xlink:href="#bk"/><use transform="matrix(0.05,0,0,0.05,65.85000000000001,0)" xlink:href="#bp"/><use transform="matrix(0.05,0,0,0.05,75.85000000000001,0)" xlink:href="#bl"/></g><g id="an"><use transform="matrix(0.05,0,0,0.05,0,0)" xlink:href="#bI"/><use transform="matrix(0.05,0,0,0.05,14.950000000000001,0)" xlink:href="#bx"/><use transform="matrix(0.05,0,0,0.05,24.950000000000003,0)" xlink:href="#bu"/><use transform="matrix(0.05,0,0,0.05,39.900000000000006,0)" xlink:href="#bH"/><use transform="matrix(0.05,0,0,0.05,49.900000000000006,0)" xlink:href="#bx"/><use transform="matrix(0.05,0,0,0.05,59.900000000000006,0)" xlink:href="#by"/></g><g id="ao"><use transform="matrix(0.05,0,0,0.05,0,0)" xlink:href="#bP"/><use transform="matrix(0.05,0,0,0.05,10.950000000000001,0)" xlink:href="#bI"/><use transform="matrix(0.034999999999999996,0,0,0.034999999999999996,25.900000000000002,2.5199999999999996)" xlink:href="#bt"/></g><g id="ap"><use transform="matrix(0.05,0,0,0.05,0,0)" xlink:href="#bP"/><use transform="matrix(0.05,0,0,0.05,10.950000000000001,0)" xlink:href="#bI"/><use transform="matrix(0.034999999999999996,0,0,0.034999999999999996,25.900000000000002,2.5199999999999996)" xlink:href="#bQ"/></g><path d="M126-127c33 6 58 20 58 59 0 88-139 92-164 29-3-8-5-16-6-25l32-3c6 27 21 44 54 44 32 0 52-15 52-46 0-38-36-46-79-43v-28c39 1 72-4 72-42 0-27-17-43-46-43-28 0-47 15-49 41l-32-3c6-42 35-63 81-64 48-1 79 21 79 65 0 36-21 52-52 59" id="bX"/><g id="aq"><use transform="matrix(0.05,0,0,0.05,0,0)" xlink:href="#bP"/><use transform="matrix(0.05,0,0,0.05,10.950000000000001,0)" xlink:href="#bI"/><use transform="matrix(0.034999999999999996,0,0,0.034999999999999996,25.900000000000002,2.5199999999999996)" xlink:href="#bX"/></g><use transform="matrix(0.05,0,0,0.05,0,0)" xlink:href="#bk" id="ar"/><path d="M16-82v-28h88v28H16" id="bY"/><use transform="matrix(0.05,0,0,0.05,0,0)" xlink:href="#bY" id="as"/><g id="at"><use transform="matrix(0.05,0,0,0.05,0,0)" xlink:href="#bD"/><use transform="matrix(0.05,0,0,0.05,5,0)" xlink:href="#bv"/><use transform="matrix(0.034999999999999996,0,0,0.034999999999999996,14,2.5199999999999996)" xlink:href="#bt"/></g><use transform="matrix(0.05,0,0,0.05,0,0)" xlink:href="#bY" id="au"/><path d="M33-154v-36h34v36H33zM33 0v-36h34V0H33" id="bZ"/><g id="av"><use transform="matrix(0.05,0,0,0.05,0,0)" xlink:href="#bu"/><use transform="matrix(0.05,0,0,0.05,14.950000000000001,0)" xlink:href="#bG"/><use transform="matrix(0.05,0,0,0.05,24.950000000000003,0)" xlink:href="#bo"/><use transform="matrix(0.05,0,0,0.05,28.900000000000002,0)" xlink:href="#bD"/><use transform="matrix(0.05,0,0,0.05,33.900000000000006,0)" xlink:href="#bk"/><use transform="matrix(0.05,0,0,0.05,37.85000000000001,0)" xlink:href="#bB"/><use transform="matrix(0.05,0,0,0.05,46.85000000000001,0)" xlink:href="#bk"/><use transform="matrix(0.05,0,0,0.05,50.80000000000001,0)" xlink:href="#bz"/><use transform="matrix(0.05,0,0,0.05,60.80000000000001,0)" xlink:href="#bZ"/></g><g id="aw"><use transform="matrix(0.05,0,0,0.05,0,0)" xlink:href="#bO"/><use transform="matrix(0.05,0,0,0.05,9,0)" xlink:href="#bj"/><use transform="matrix(0.05,0,0,0.05,19,0)" xlink:href="#bo"/><use transform="matrix(0.034999999999999996,0,0,0.034999999999999996,22.95,2.5199999999999996)" xlink:href="#bt"/></g><path d="M-5 72V49h209v23H-5" id="ca"/><g id="ax"><use transform="matrix(0.05,0,0,0.05,0,0)" xlink:href="#bp"/><use transform="matrix(0.05,0,0,0.05,10,0)" xlink:href="#bC"/><use transform="matrix(0.05,0,0,0.05,20,0)" xlink:href="#ca"/><use transform="matrix(0.05,0,0,0.05,30,0)" xlink:href="#by"/><use transform="matrix(0.05,0,0,0.05,35.95,0)" xlink:href="#bx"/><use transform="matrix(0.05,0,0,0.05,45.95,0)" xlink:href="#bD"/><use transform="matrix(0.05,0,0,0.05,50.95,0)" xlink:href="#bZ"/></g><g id="ay"><use transform="matrix(0.05,0,0,0.05,0,0)" xlink:href="#bj"/><use transform="matrix(0.05,0,0,0.05,10,0)" xlink:href="#bA"/><use transform="matrix(0.05,0,0,0.05,20,0)" xlink:href="#bA"/><use transform="matrix(0.034999999999999996,0,0,0.034999999999999996,30,2.5199999999999996)" xlink:href="#bt"/></g><g id="az"><use transform="matrix(0.05,0,0,0.05,0,0)" xlink:href="#bD"/><use transform="matrix(0.05,0,0,0.05,5,0)" xlink:href="#bv"/><use transform="matrix(0.034999999999999996,0,0,0.034999999999999996,14,2.5199999999999996)" xlink:href="#bQ"/></g><g id="aA"><use transform="matrix(0.05,0,0,0.05,0,0)" xlink:href="#bY"/><use transform="matrix(0.05,0,0,0.05,5.95,0)" xlink:href="#bu"/><use transform="matrix(0.05,0,0,0.05,20.900000000000002,0)" xlink:href="#bG"/><use transform="matrix(0.05,0,0,0.05,30.900000000000002,0)" xlink:href="#bo"/><use transform="matrix(0.05,0,0,0.05,34.85,0)" xlink:href="#bD"/><use transform="matrix(0.05,0,0,0.05,39.85,0)" xlink:href="#bk"/><use transform="matrix(0.05,0,0,0.05,43.800000000000004,0)" xlink:href="#bB"/><use transform="matrix(0.05,0,0,0.05,52.800000000000004,0)" xlink:href="#bk"/><use transform="matrix(0.05,0,0,0.05,56.75,0)" xlink:href="#bz"/><use transform="matrix(0.05,0,0,0.05,66.75,0)" xlink:href="#bZ"/></g><g id="aB"><use transform="matrix(0.05,0,0,0.05,0,0)" xlink:href="#bO"/><use transform="matrix(0.05,0,0,0.05,9,0)" xlink:href="#bj"/><use transform="matrix(0.05,0,0,0.05,19,0)" xlink:href="#bo"/><use transform="matrix(0.034999999999999996,0,0,0.034999999999999996,22.95,2.5199999999999996)" xlink:href="#bQ"/></g><g id="aC"><use transform="matrix(0.05,0,0,0.05,0,0)" xlink:href="#bj"/><use transform="matrix(0.05,0,0,0.05,10,0)" xlink:href="#bA"/><use transform="matrix(0.05,0,0,0.05,20,0)" xlink:href="#bA"/><use transform="matrix(0.034999999999999996,0,0,0.034999999999999996,30,2.5199999999999996)" xlink:href="#bQ"/></g><g id="aD"><use transform="matrix(0.05,0,0,0.05,0,0)" xlink:href="#bL"/><use transform="matrix(0.05,0,0,0.05,5,0)" xlink:href="#bL"/><use transform="matrix(0.05,0,0,0.05,10,0)" xlink:href="#bL"/></g><path fill="#19967d" d="M30 0v-248h33v221h125V0H30" id="cb"/><path fill="#19967d" d="M100-194c63 0 86 42 84 106H49c0 40 14 67 53 68 26 1 43-12 49-29l28 8c-11 28-37 45-77 45C44 4 14-33 15-96c1-61 26-98 85-98zm52 81c6-60-76-77-97-28-3 7-6 17-6 28h103" id="cc"/><path fill="#19967d" d="M141-36C126-15 110 5 73 4 37 3 15-17 15-53c-1-64 63-63 125-63 3-35-9-54-41-54-24 1-41 7-42 31l-33-3c5-37 33-52 76-52 45 0 72 20 72 64v82c-1 20 7 32 28 27v20c-31 9-61-2-59-35zM48-53c0 20 12 33 32 33 41-3 63-29 60-74-43 2-92-5-92 41" id="cd"/><path fill="#19967d" d="M85-194c31 0 48 13 60 33l-1-100h32l1 261h-30c-2-10 0-23-3-31C134-8 116 4 85 4 32 4 16-35 15-94c0-66 23-100 70-100zm9 24c-40 0-46 34-46 75 0 40 6 74 45 74 42 0 51-32 51-76 0-42-9-74-50-73" id="ce"/><path fill="#19967d" d="M114-163C36-179 61-72 57 0H25l-1-190h30c1 12-1 29 2 39 6-27 23-49 58-41v29" id="cf"/><g id="aE"><use transform="matrix(0.05,0,0,0.05,0,0)" xlink:href="#cb"/><use transform="matrix(0.05,0,0,0.05,10,0)" xlink:href="#cc"/><use transform="matrix(0.05,0,0,0.05,20,0)" xlink:href="#cd"/><use transform="matrix(0.05,0,0,0.05,30,0)" xlink:href="#ce"/><use transform="matrix(0.05,0,0,0.05,40,0)" xlink:href="#cc"/><use transform="matrix(0.05,0,0,0.05,50,0)" xlink:href="#cf"/></g><path fill="#19967d" d="M101-234c-31-9-42 10-38 44h38v23H63V0H32v-167H5v-23h27c-7-52 17-82 69-68v24" id="cg"/><path fill="#19967d" d="M100-194c62-1 85 37 85 99 1 63-27 99-86 99S16-35 15-95c0-66 28-99 85-99zM99-20c44 1 53-31 53-75 0-43-8-75-51-75s-53 32-53 75 10 74 51 75" id="ch"/><g id="aF"><use transform="matrix(0.05,0,0,0.05,0,0)" xlink:href="#cg"/><use transform="matrix(0.05,0,0,0.05,5,0)" xlink:href="#ch"/><use transform="matrix(0.05,0,0,0.05,15,0)" xlink:href="#cf"/></g><path fill="#19967d" d="M115-194c53 0 69 39 70 98 0 66-23 100-70 100C84 3 66-7 56-30L54 0H23l1-261h32v101c10-23 28-34 59-34zm-8 174c40 0 45-34 45-75 0-40-5-75-45-74-42 0-51 32-51 76 0 43 10 73 51 73" id="ci"/><path fill="#19967d" d="M24 0v-261h32V0H24" id="cj"/><path fill="#19967d" d="M96-169c-40 0-48 33-48 73s9 75 48 75c24 0 41-14 43-38l32 2c-6 37-31 61-74 61-59 0-76-41-82-99-10-93 101-131 147-64 4 7 5 14 7 22l-32 3c-4-21-16-35-41-35" id="ck"/><path fill="#19967d" d="M143 0L79-87 56-68V0H24v-261h32v163l83-92h37l-77 82L181 0h-38" id="cl"/><g id="aG"><use transform="matrix(0.05,0,0,0.05,0,0)" xlink:href="#ci"/><use transform="matrix(0.05,0,0,0.05,10,0)" xlink:href="#cj"/><use transform="matrix(0.05,0,0,0.05,13.949999999999998,0)" xlink:href="#ch"/><use transform="matrix(0.05,0,0,0.05,23.95,0)" xlink:href="#ck"/><use transform="matrix(0.05,0,0,0.05,32.95,0)" xlink:href="#cl"/></g><path fill="#19967d" d="M24-231v-30h32v30H24zM24 0v-190h32V0H24" id="cm"/><path fill="#19967d" d="M118-107v75H92v-75H18v-26h74v-75h26v75h74v26h-74" id="cn"/><path fill="#19967d" d="M27 0v-27h64v-190l-56 39v-29l58-41h29v221h61V0H27" id="co"/><path fill="#19967d" d="M210-169c-67 3-38 105-44 169h-31v-121c0-29-5-50-35-48C34-165 62-65 56 0H25l-1-190h30c1 10-1 24 2 32 10-44 99-50 107 0 11-21 27-35 58-36 85-2 47 119 55 194h-31v-121c0-29-5-49-35-48" id="cp"/><path fill="#19967d" d="M141 0L90-78 38 0H4l68-98-65-92h35l48 74 47-74h35l-64 92 68 98h-35" id="cq"/><path fill="#19967d" d="M233-177c-1 41-23 64-60 70L243 0h-38l-65-103H63V0H30v-248c88 3 205-21 203 71zM63-129c60-2 137 13 137-47 0-61-80-42-137-45v92" id="cr"/><path fill="#19967d" d="M177-190C167-65 218 103 67 71c-23-6-38-20-44-43l32-5c15 47 100 32 89-28v-30C133-14 115 1 83 1 29 1 15-40 15-95c0-56 16-97 71-98 29-1 48 16 59 35 1-10 0-23 2-32h30zM94-22c36 0 50-32 50-73 0-42-14-75-50-75-39 0-46 34-46 75s6 73 46 73" id="cs"/><path fill="#19967d" d="M205 0l-28-72H64L36 0H1l101-248h38L239 0h-34zm-38-99l-47-123c-12 45-31 82-46 123h93" id="ct"/><g id="aH"><use transform="matrix(0.05,0,0,0.05,0,0)" xlink:href="#cm"/><use transform="matrix(0.05,0,0,0.05,3.95,0)" xlink:href="#cn"/><use transform="matrix(0.05,0,0,0.05,14.449999999999998,0)" xlink:href="#co"/><use transform="matrix(0.05,0,0,0.05,24.45,0)" xlink:href="#cn"/><use transform="matrix(0.05,0,0,0.05,34.95,0)" xlink:href="#cp"/><use transform="matrix(0.05,0,0,0.05,49.900000000000006,0)" xlink:href="#cd"/><use transform="matrix(0.05,0,0,0.05,59.900000000000006,0)" xlink:href="#cq"/><use transform="matrix(0.05,0,0,0.05,68.9,0)" xlink:href="#cr"/><use transform="matrix(0.05,0,0,0.05,81.85000000000001,0)" xlink:href="#cc"/><use transform="matrix(0.05,0,0,0.05,91.85000000000001,0)" xlink:href="#ch"/><use transform="matrix(0.05,0,0,0.05,101.85000000000001,0)" xlink:href="#cf"/><use transform="matrix(0.05,0,0,0.05,107.80000000000001,0)" xlink:href="#cs"/><use transform="matrix(0.034999999999999996,0,0,0.034999999999999996,117.80000000000001,2.5199999999999996)" xlink:href="#ct"/></g><g id="aI"><use transform="matrix(0.05,0,0,0.05,0,0)" xlink:href="#bn"/><use transform="matrix(0.05,0,0,0.05,12,0)" xlink:href="#bo"/><use transform="matrix(0.05,0,0,0.05,15.949999999999998,0)" xlink:href="#bp"/><use transform="matrix(0.05,0,0,0.05,25.950000000000003,0)" xlink:href="#bq"/><use transform="matrix(0.05,0,0,0.05,34.95,0)" xlink:href="#br"/></g><use transform="matrix(0.05,0,0,0.05,0,0)" xlink:href="#bk" id="aJ"/><use transform="matrix(0.05,0,0,0.05,0,0)" xlink:href="#bY" id="aK"/><g id="aL"><use transform="matrix(0.05,0,0,0.05,0,0)" xlink:href="#bD"/><use transform="matrix(0.05,0,0,0.05,5,0)" xlink:href="#bv"/><use transform="matrix(0.034999999999999996,0,0,0.034999999999999996,14,2.5199999999999996)" xlink:href="#bt"/></g><g id="aM"><use transform="matrix(0.05,0,0,0.05,0,0)" xlink:href="#bD"/><use transform="matrix(0.05,0,0,0.05,5,0)" xlink:href="#bv"/><use transform="matrix(0.034999999999999996,0,0,0.034999999999999996,14,2.5199999999999996)" xlink:href="#bQ"/></g><g id="aN"><use transform="matrix(0.05,0,0,0.05,0,0)" xlink:href="#bk"/><use transform="matrix(0.05,0,0,0.05,3.95,0)" xlink:href="#bY"/><use transform="matrix(0.05,0,0,0.05,9.9,0)" xlink:href="#bD"/><use transform="matrix(0.05,0,0,0.05,14.9,0)" xlink:href="#bv"/><use transform="matrix(0.034999999999999996,0,0,0.034999999999999996,23.9,2.5199999999999996)" xlink:href="#bt"/></g><g id="aO"><use transform="matrix(0.05,0,0,0.05,0,0)" xlink:href="#bk"/><use transform="matrix(0.05,0,0,0.05,3.95,0)" xlink:href="#bY"/><use transform="matrix(0.05,0,0,0.05,9.9,0)" xlink:href="#bD"/><use transform="matrix(0.05,0,0,0.05,14.9,0)" xlink:href="#bv"/><use transform="matrix(0.034999999999999996,0,0,0.034999999999999996,23.9,2.5199999999999996)" xlink:href="#bQ"/></g><path d="M24-248c93 1 206-16 204 79-1 75-69 88-152 82V0H24v-248zm52 121c47 0 100 7 100-41 0-47-54-39-100-39v80" id="cu"/><path d="M133-34C117-15 103 5 69 4 32 3 11-16 11-54c-1-60 55-63 116-61 1-26-3-47-28-47-18 1-26 9-28 27l-52-2c7-38 36-58 82-57s74 22 75 68l1 82c-1 14 12 18 25 15v27c-30 8-71 5-69-32zm-48 3c29 0 43-24 42-57-32 0-66-3-65 30 0 17 8 27 23 27" id="cv"/><path d="M135-150c-39-12-60 13-60 57V0H25l-1-190h47c2 13-1 29 3 40 6-28 27-53 61-41v41" id="cw"/><path d="M115-3C79 11 28 4 28-45v-112H4v-33h27l15-45h31v45h36v33H77v99c-1 23 16 31 38 25v30" id="cx"/><path d="M25-224v-37h50v37H25zM25 0v-190h50V0H25" id="cy"/><path d="M25 0v-261h50V0H25" id="cz"/><g id="aP"><use transform="matrix(0.05,0,0,0.05,0,0)" xlink:href="#cu"/><use transform="matrix(0.05,0,0,0.05,12,0)" xlink:href="#cv"/><use transform="matrix(0.05,0,0,0.05,22,0)" xlink:href="#cw"/><use transform="matrix(0.05,0,0,0.05,29,0)" xlink:href="#cx"/><use transform="matrix(0.05,0,0,0.05,34.95,0)" xlink:href="#cy"/><use transform="matrix(0.05,0,0,0.05,39.95,0)" xlink:href="#cv"/><use transform="matrix(0.05,0,0,0.05,49.95,0)" xlink:href="#cz"/></g><path d="M135-194c87-1 58 113 63 194h-50c-7-57 23-157-34-157-59 0-34 97-39 157H25l-1-190h47c2 12-1 28 3 38 12-26 28-41 61-42" id="cA"/><path d="M137-138c1-29-70-34-71-4 15 46 118 7 119 86 1 83-164 76-172 9l43-7c4 19 20 25 44 25 33 8 57-30 24-41C81-84 22-81 20-136c-2-80 154-74 161-7" id="cB"/><path d="M190-63c-7 42-38 67-86 67-59 0-84-38-90-98-12-110 154-137 174-36l-49 2c-2-19-15-32-35-32-30 0-35 28-38 64-6 74 65 87 74 30" id="cC"/><path d="M110-194c64 0 96 36 96 99 0 64-35 99-97 99-61 0-95-36-95-99 0-62 34-99 96-99zm-1 164c35 0 45-28 45-65 0-40-10-65-43-65-34 0-45 26-45 65 0 36 10 65 43 65" id="cD"/><path d="M23 0v-37h61v-169l-59 37v-38l62-41h46v211h57V0H23" id="cE"/><g id="aQ"><use transform="matrix(0.05,0,0,0.05,0,0)" xlink:href="#cx"/><use transform="matrix(0.05,0,0,0.05,5.95,0)" xlink:href="#cw"/><use transform="matrix(0.05,0,0,0.05,12.949999999999998,0)" xlink:href="#cv"/><use transform="matrix(0.05,0,0,0.05,22.95,0)" xlink:href="#cA"/><use transform="matrix(0.05,0,0,0.05,33.9,0)" xlink:href="#cB"/><use transform="matrix(0.05,0,0,0.05,43.9,0)" xlink:href="#cv"/><use transform="matrix(0.05,0,0,0.05,53.900000000000006,0)" xlink:href="#cC"/><use transform="matrix(0.05,0,0,0.05,63.900000000000006,0)" xlink:href="#cx"/><use transform="matrix(0.05,0,0,0.05,69.85,0)" xlink:href="#cy"/><use transform="matrix(0.05,0,0,0.05,74.85,0)" xlink:href="#cD"/><use transform="matrix(0.05,0,0,0.05,85.8,0)" xlink:href="#cA"/><use transform="matrix(0.034999999999999996,0,0,0.034999999999999996,96.75,2.5199999999999996)" xlink:href="#cE"/></g><use transform="matrix(0.05,0,0,0.05,0,0)" xlink:href="#bs" id="aR"/><g id="aS"><use transform="matrix(0.05,0,0,0.05,0,0)" xlink:href="#bP"/><use transform="matrix(0.05,0,0,0.05,10.950000000000001,0)" xlink:href="#bI"/><use transform="matrix(0.034999999999999996,0,0,0.034999999999999996,25.900000000000002,2.5199999999999996)" xlink:href="#bt"/></g><g id="aT"><use transform="matrix(0.05,0,0,0.05,0,0)" xlink:href="#bB"/><use transform="matrix(0.05,0,0,0.05,9,0)" xlink:href="#bk"/><use transform="matrix(0.05,0,0,0.05,12.949999999999998,0)" xlink:href="#bz"/><use transform="matrix(0.05,0,0,0.05,22.95,0)" xlink:href="#bl"/><use transform="matrix(0.05,0,0,0.05,32.95,0)" xlink:href="#bj"/><use transform="matrix(0.05,0,0,0.05,42.95,0)" xlink:href="#bD"/><use transform="matrix(0.05,0,0,0.05,47.95,0)" xlink:href="#bG"/><use transform="matrix(0.05,0,0,0.05,57.95,0)" xlink:href="#by"/><use transform="matrix(0.05,0,0,0.05,63.900000000000006,0)" xlink:href="#bx"/></g><path d="M47-170H22l-4-78h33" id="cF"/><g id="aU"><use transform="matrix(0.05,0,0,0.05,0,0)" xlink:href="#bD"/><use transform="matrix(0.05,0,0,0.05,5,0)" xlink:href="#bv"/><use transform="matrix(0.034999999999999996,0,0,0.034999999999999996,14,2.5199999999999996)" xlink:href="#bt"/><use transform="matrix(0.05,0,0,0.05,21,0)" xlink:href="#cF"/></g><g id="aV"><use transform="matrix(0.05,0,0,0.05,0,0)" xlink:href="#bj"/><use transform="matrix(0.05,0,0,0.05,10,0)" xlink:href="#bA"/><use transform="matrix(0.05,0,0,0.05,20,0)" xlink:href="#bA"/><use transform="matrix(0.034999999999999996,0,0,0.034999999999999996,30,2.5199999999999996)" xlink:href="#bt"/><use transform="matrix(0.05,0,0,0.05,37,0)" xlink:href="#bZ"/></g><use transform="matrix(0.05,0,0,0.05,0,0)" xlink:href="#bY" id="aW"/><g id="aX"><use transform="matrix(0.05,0,0,0.05,0,0)" xlink:href="#bq"/><use transform="matrix(0.05,0,0,0.05,9,0)" xlink:href="#bi"/><use transform="matrix(0.05,0,0,0.05,19,0)" xlink:href="#bj"/><use transform="matrix(0.05,0,0,0.05,29,0)" xlink:href="#bl"/><use transform="matrix(0.05,0,0,0.05,39,0)" xlink:href="#bz"/><use transform="matrix(0.05,0,0,0.05,49,0)" xlink:href="#bx"/><use transform="matrix(0.034999999999999996,0,0,0.034999999999999996,58.99999999999999,2.5199999999999996)" xlink:href="#bt"/></g><g id="aY"><use transform="matrix(0.05,0,0,0.05,0,0)" xlink:href="#bp"/><use transform="matrix(0.05,0,0,0.05,10,0)" xlink:href="#bC"/><use transform="matrix(0.05,0,0,0.05,20,0)" xlink:href="#ca"/><use transform="matrix(0.05,0,0,0.05,30,0)" xlink:href="#by"/><use transform="matrix(0.05,0,0,0.05,35.95,0)" xlink:href="#bx"/><use transform="matrix(0.05,0,0,0.05,45.95,0)" xlink:href="#bD"/><use transform="matrix(0.05,0,0,0.05,50.95,0)" xlink:href="#bG"/><use transform="matrix(0.05,0,0,0.05,60.95,0)" xlink:href="#by"/><use transform="matrix(0.05,0,0,0.05,66.9,0)" xlink:href="#bl"/><use transform="matrix(0.05,0,0,0.05,76.9,0)" xlink:href="#bZ"/></g><g id="aZ"><use transform="matrix(0.05,0,0,0.05,0,0)" xlink:href="#bk"/><use transform="matrix(0.05,0,0,0.05,3.95,0)" xlink:href="#bA"/><use transform="matrix(0.034999999999999996,0,0,0.034999999999999996,13.95,2.5199999999999996)" xlink:href="#bt"/></g><path d="M182-182c0 78-84 86-111 141h115V0H12c-6-101 99-100 120-180 1-22-12-31-33-32-23 0-32 14-35 34l-49-3c5-45 32-70 84-70 51 0 83 22 83 69" id="cG"/><g id="ba"><use transform="matrix(0.05,0,0,0.05,0,0)" xlink:href="#cx"/><use transform="matrix(0.05,0,0,0.05,5.95,0)" xlink:href="#cw"/><use transform="matrix(0.05,0,0,0.05,12.949999999999998,0)" xlink:href="#cv"/><use transform="matrix(0.05,0,0,0.05,22.95,0)" xlink:href="#cA"/><use transform="matrix(0.05,0,0,0.05,33.9,0)" xlink:href="#cB"/><use transform="matrix(0.05,0,0,0.05,43.9,0)" xlink:href="#cv"/><use transform="matrix(0.05,0,0,0.05,53.900000000000006,0)" xlink:href="#cC"/><use transform="matrix(0.05,0,0,0.05,63.900000000000006,0)" xlink:href="#cx"/><use transform="matrix(0.05,0,0,0.05,69.85,0)" xlink:href="#cy"/><use transform="matrix(0.05,0,0,0.05,74.85,0)" xlink:href="#cD"/><use transform="matrix(0.05,0,0,0.05,85.8,0)" xlink:href="#cA"/><use transform="matrix(0.034999999999999996,0,0,0.034999999999999996,96.75,2.5199999999999996)" xlink:href="#cG"/></g><g id="bb"><use transform="matrix(0.05,0,0,0.05,0,0)" xlink:href="#bD"/><use transform="matrix(0.05,0,0,0.05,5,0)" xlink:href="#bv"/><use transform="matrix(0.034999999999999996,0,0,0.034999999999999996,14,2.5199999999999996)" xlink:href="#bQ"/><use transform="matrix(0.05,0,0,0.05,21,0)" xlink:href="#cF"/></g><g id="bc"><use transform="matrix(0.05,0,0,0.05,0,0)" xlink:href="#bj"/><use transform="matrix(0.05,0,0,0.05,10,0)" xlink:href="#bA"/><use transform="matrix(0.05,0,0,0.05,20,0)" xlink:href="#bA"/><use transform="matrix(0.034999999999999996,0,0,0.034999999999999996,30,2.5199999999999996)" xlink:href="#bQ"/><use transform="matrix(0.05,0,0,0.05,37,0)" xlink:href="#bZ"/></g><g id="bd"><use transform="matrix(0.05,0,0,0.05,0,0)" xlink:href="#bq"/><use transform="matrix(0.05,0,0,0.05,9,0)" xlink:href="#bi"/><use transform="matrix(0.05,0,0,0.05,19,0)" xlink:href="#bj"/><use transform="matrix(0.05,0,0,0.05,29,0)" xlink:href="#bl"/><use transform="matrix(0.05,0,0,0.05,39,0)" xlink:href="#bz"/><use transform="matrix(0.05,0,0,0.05,49,0)" xlink:href="#bx"/><use transform="matrix(0.034567901234567905,0,0,0.034567901234567905,58.99999999999999,2.488888888888889)" xlink:href="#bQ"/></g><g id="be"><use transform="matrix(0.05,0,0,0.05,0,0)" xlink:href="#bk"/><use transform="matrix(0.05,0,0,0.05,3.95,0)" xlink:href="#bA"/><use transform="matrix(0.034999999999999996,0,0,0.034999999999999996,13.95,2.5199999999999996)" xlink:href="#bQ"/></g><g id="bf"><use transform="matrix(0.05,0,0,0.05,0,0)" xlink:href="#bP"/><use transform="matrix(0.05,0,0,0.05,10.950000000000001,0)" xlink:href="#bI"/><use transform="matrix(0.034999999999999996,0,0,0.034999999999999996,25.900000000000002,2.5199999999999996)" xlink:href="#bX"/></g><g id="bg"><use transform="matrix(0.05,0,0,0.05,0,0)" xlink:href="#bB"/><use transform="matrix(0.05,0,0,0.05,9,0)" xlink:href="#bk"/><use transform="matrix(0.05,0,0,0.05,12.949999999999998,0)" xlink:href="#bz"/><use transform="matrix(0.05,0,0,0.05,22.95,0)" xlink:href="#bl"/><use transform="matrix(0.05,0,0,0.05,32.95,0)" xlink:href="#bj"/><use transform="matrix(0.05,0,0,0.05,42.95,0)" xlink:href="#bD"/><use transform="matrix(0.05,0,0,0.05,47.95,0)" xlink:href="#bG"/><use transform="matrix(0.05,0,0,0.05,57.95,0)" xlink:href="#by"/><use transform="matrix(0.05,0,0,0.05,63.900000000000006,0)" xlink:href="#bx"/></g></defs></g></svg>