<svg xmlns="http://www.w3.org/2000/svg" xmlns:xlink="http://www.w3.org/1999/xlink" xmlns:lucid="lucid" width="1578.5" height="1200"><g transform="translate(0 0)" lucid:page-tab-id="1V5cPv9Ktxcg"><path d="M40 1000h140l40 30v50H40z" stroke="#000" stroke-width="2" fill="#c7e8ac"/><path d="M30 1010h140l40 30v50H30z" stroke="#000" stroke-width="2" fill="#c7e8ac"/><path d="M20 1020h140l40 30v50H20z" stroke="#000" stroke-width="2" fill="#c7e8ac"/><use xlink:href="#a" transform="matrix(1,0,0,1,20,1020) translate(58.05 43.6)"/><use xlink:href="#b" transform="matrix(1,0,0,1,20,1020) translate(109.95 43.6)"/><path d="M20 720h160l40 72v168H20z" stroke="#000" stroke-width="2" fill="#c7e8ac"/><use xlink:href="#c" transform="matrix(1,0,0,1,20,720) translate(5.01 19.41)"/><use xlink:href="#d" transform="matrix(1,0,0,1,20,720) translate(53.96 19.41)"/><use xlink:href="#e" transform="matrix(1,0,0,1,20,720) translate(5.01 41.01)"/><use xlink:href="#f" transform="matrix(1,0,0,1,20,720) translate(5.01 62.61)"/><use xlink:href="#g" transform="matrix(1,0,0,1,20,720) translate(15.959999999999999 62.61)"/><use xlink:href="#h" transform="matrix(1,0,0,1,20,720) translate(36.01 84.21000000000001)"/><use xlink:href="#i" transform="matrix(1,0,0,1,20,720) translate(46.959999999999994 84.21000000000001)"/><use xlink:href="#j" transform="matrix(1,0,0,1,20,720) translate(117.76 84.21000000000001)"/><use xlink:href="#h" transform="matrix(1,0,0,1,20,720) translate(36.01 105.81)"/><use xlink:href="#k" transform="matrix(1,0,0,1,20,720) translate(46.959999999999994 105.81)"/><use xlink:href="#l" transform="matrix(1,0,0,1,20,720) translate(107.91 105.81)"/><use xlink:href="#f" transform="matrix(1,0,0,1,20,720) translate(5.01 127.41)"/><use xlink:href="#m" transform="matrix(1,0,0,1,20,720) translate(15.959999999999999 127.41)"/><use xlink:href="#n" transform="matrix(1,0,0,1,20,720) translate(36.01 149.01)"/><use xlink:href="#o" transform="matrix(1,0,0,1,20,720) translate(112.75999999999999 149.01)"/><use xlink:href="#p" transform="matrix(1,0,0,1,20,720) translate(140.70999999999998 149.01)"/><use xlink:href="#h" transform="matrix(1,0,0,1,20,720) translate(36.01 170.60999999999999)"/><use xlink:href="#k" transform="matrix(1,0,0,1,20,720) translate(46.959999999999994 170.60999999999999)"/><use xlink:href="#q" transform="matrix(1,0,0,1,20,720) translate(107.91 170.60999999999999)"/><use xlink:href="#r" transform="matrix(1,0,0,1,20,720) translate(5.01 192.20999999999998)"/><path d="M20 570.5h160l40 30v70H20z" stroke="#000" stroke-width="2" fill="#c7e8ac"/><use xlink:href="#c" transform="matrix(1,0,0,1,20,570.5) translate(71.03 55.025)"/><use xlink:href="#s" transform="matrix(1,0,0,1,20,570.5) translate(119.97999999999999 55.025)"/><path d="M120 999v-19.76" stroke="#000" stroke-width="2" fill="none"/><path d="M121 1000h-2v-1h2zM124.64 978.5h-9.28l4.64-14.26z"/><path d="M126 979.5h-12l6-18.5zm-9.26-2h6.52L120 967.47z"/><path d="M120 719v-29.25" fill="none"/><path d="M120 719v-2.93m0-3.9v-5.85m0-3.9v-5.85m0-3.9v-2.93" stroke="#000" stroke-width="2" fill="none"/><path d="M121 720h-2v-1h2zM124.64 689h-9.28l4.64-14.26z"/><path d="M126 690h-12l6-18.5zm-9.26-2h6.52L120 677.97z"/><path d="M20 250.5h160l40 30v70H20z" stroke="#19967d" stroke-width="2" fill="#c7e8ac"/><use xlink:href="#c" transform="matrix(1,0,0,1,20,250.5) translate(6.630000000000004 55.025)"/><use xlink:href="#t" transform="matrix(1,0,0,1,20,250.5) translate(55.580000000000005 55.025)"/><use xlink:href="#u" transform="matrix(1,0,0,1,20,250.5) translate(64.53 55.025)"/><use xlink:href="#v" transform="matrix(1,0,0,1,20,250.5) translate(80.03 55.025)"/><use xlink:href="#u" transform="matrix(1,0,0,1,20,250.5) translate(95.03 55.025)"/><use xlink:href="#w" transform="matrix(1,0,0,1,20,250.5) translate(110.53 55.025)"/><path d="M20 420.5h160l40 30v70H20z" stroke="#000" stroke-width="2" fill="#c7e8ac"/><use xlink:href="#c" transform="matrix(1,0,0,1,20,420.5) translate(21.880000000000003 55.025)"/><use xlink:href="#t" transform="matrix(1,0,0,1,20,420.5) translate(70.83000000000001 55.025)"/><use xlink:href="#u" transform="matrix(1,0,0,1,20,420.5) translate(79.78 55.025)"/><use xlink:href="#w" transform="matrix(1,0,0,1,20,420.5) translate(95.28 55.025)"/><path d="M120 569.5v-29.76" fill="none"/><path d="M120 569.5v-2.98m0-3.96v-5.96m0-3.97v-5.95m0-3.97v-2.96" stroke="#000" stroke-width="2" fill="none"/><path d="M121 570.5h-2v-1h2zM124.64 539h-9.28l4.64-14.26z"/><path d="M126 540h-12l6-18.5zm-9.26-2h6.52L120 527.97z"/><path d="M120 419.5v-49.76" stroke="#000" stroke-width="2" fill="none"/><path d="M121 420.5h-2v-1h2zM124.64 369h-9.28l4.64-14.26z"/><path d="M126 370h-12l6-18.5zm-9.26-2h6.52L120 357.97z"/><path d="M1228.5 20c16.57 0 30 13.43 30 30v300c0 16.57-13.43 30-30 30h-860c-16.57 0-30-13.43-30-30V50c0-16.57 13.43-30 30-30z" stroke="#000" stroke-width="2" fill="#e5e5e5"/><path d="M448.5 80c0 22.1-17.9 40-40 40s-40-17.9-40-40 17.9-40 40-40 40 17.9 40 40z" stroke="#000" stroke-width="2" fill="#c7e8ac"/><use xlink:href="#a" transform="matrix(1,0,0,1,373.5,45.00000000000003) translate(3.549999999999997 27.799999999999997)"/><use xlink:href="#x" transform="matrix(1,0,0,1,373.5,45.00000000000003) translate(55.45 27.799999999999997)"/><use xlink:href="#y" transform="matrix(1,0,0,1,373.5,45.00000000000003) translate(15 49.4)"/><path d="M857.5 80c0 22.1-17.9 40-40 40s-40-17.9-40-40 17.9-40 40-40 40 17.9 40 40z" stroke="#000" stroke-width="2" fill="#ffbbb1"/><use xlink:href="#a" transform="matrix(1,0,0,1,782.4993760969041,45.00000000000003) translate(3.049999999999997 27.799999999999997)"/><use xlink:href="#z" transform="matrix(1,0,0,1,782.4993760969041,45.00000000000003) translate(54.95 27.799999999999997)"/><use xlink:href="#y" transform="matrix(1,0,0,1,782.4993760969041,45.00000000000003) translate(15 49.4)"/><path d="M458.5 268.2c0 6.66-22.4 12.05-50 12.05s-50-5.4-50-12.05v-96.4c0-6.66 22.4-12.05 50-12.05s50 5.4 50 12.05z" stroke="#000" stroke-width="2" fill="#c7e8ac"/><path d="M458.5 171.8c0 6.66-22.4 12.05-50 12.05s-50-5.4-50-12.05" stroke="#000" stroke-width="2" fill="none"/><use xlink:href="#A" transform="matrix(1,0,0,1,363.5,188.85) translate(21.549999999999997 14.69999999999999)"/><use xlink:href="#B" transform="matrix(1,0,0,1,363.5,188.85) translate(23.525 36.29999999999999)"/><use xlink:href="#C" transform="matrix(1,0,0,1,363.5,188.85) translate(14.524999999999999 57.89999999999999)"/><use xlink:href="#D" transform="matrix(1,0,0,1,363.5,188.85) translate(-0.9500000000000028 79.5)"/><path d="M338.5 320h240v60h-240z" stroke="#000" stroke-opacity="0" stroke-width="2" fill="#fff" fill-opacity="0"/><use xlink:href="#E" transform="matrix(1,0,0,1,343.5,325) translate(16.19999999999999 28.6)"/><use xlink:href="#F" transform="matrix(1,0,0,1,343.5,325) translate(107.05 28.6)"/><use xlink:href="#G" transform="matrix(1,0,0,1,343.5,325) translate(177.9 28.6)"/><path d="M867.5 286c0 7.73-22.4 14-50 14s-50-6.27-50-14V174c0-7.73 22.4-14 50-14s50 6.27 50 14z" stroke="#000" stroke-width="2" fill="#ffbbb1"/><path d="M867.5 174c0 7.73-22.4 14-50 14s-50-6.27-50-14" stroke="#000" stroke-width="2" fill="none"/><use xlink:href="#A" transform="matrix(1,0,0,1,772.4993760969041,193) translate(21.549999999999997 22.19999999999999)"/><use xlink:href="#B" transform="matrix(1,0,0,1,772.4993760969041,193) translate(23.525 43.79999999999999)"/><use xlink:href="#C" transform="matrix(1,0,0,1,772.4993760969041,193) translate(14.524999999999999 65.39999999999999)"/><use xlink:href="#D" transform="matrix(1,0,0,1,772.4993760969041,193) translate(-0.9500000000000028 87)"/><path d="M1228.5 420c16.57 0 30 13.43 30 30v300c0 16.57-13.43 30-30 30h-860c-16.57 0-30-13.43-30-30V450c0-16.57 13.43-30 30-30z" stroke="#19967d" stroke-width="2" fill="#fff"/><path d="M448.5 480c0 22.1-17.9 40-40 40s-40-17.9-40-40 17.9-40 40-40 40 17.9 40 40z" stroke="#000" stroke-width="2" fill="#c7e8ac"/><use xlink:href="#a" transform="matrix(1,0,0,1,373.5,445) translate(3.549999999999997 27.799999999999997)"/><use xlink:href="#x" transform="matrix(1,0,0,1,373.5,445) translate(55.45 27.799999999999997)"/><use xlink:href="#y" transform="matrix(1,0,0,1,373.5,445) translate(15 49.4)"/><path d="M868.5 480c0 22.1-17.9 40-40 40s-40-17.9-40-40 17.9-40 40-40 40 17.9 40 40z" stroke="#000" stroke-width="2" fill="#ffbbb1"/><use xlink:href="#a" transform="matrix(1,0,0,1,793.5,445) translate(3.049999999999997 27.799999999999997)"/><use xlink:href="#z" transform="matrix(1,0,0,1,793.5,445) translate(54.95 27.799999999999997)"/><use xlink:href="#y" transform="matrix(1,0,0,1,793.5,445) translate(15 49.4)"/><path d="M458.5 668.2c0 6.66-22.4 12.05-50 12.05s-50-5.4-50-12.05v-96.4c0-6.66 22.4-12.05 50-12.05s50 5.4 50 12.05z" stroke="#000" stroke-width="2" fill="#c7e8ac"/><path d="M458.5 571.8c0 6.66-22.4 12.05-50 12.05s-50-5.4-50-12.05" stroke="#000" stroke-width="2" fill="none"/><use xlink:href="#A" transform="matrix(1,0,0,1,363.5,588.85) translate(21.549999999999997 14.69999999999999)"/><use xlink:href="#B" transform="matrix(1,0,0,1,363.5,588.85) translate(23.525 36.29999999999999)"/><use xlink:href="#C" transform="matrix(1,0,0,1,363.5,588.85) translate(14.524999999999999 57.89999999999999)"/><use xlink:href="#D" transform="matrix(1,0,0,1,363.5,588.85) translate(-0.9500000000000028 79.5)"/><path d="M338.5 720h240v60h-240z" stroke="#000" stroke-opacity="0" stroke-width="2" fill="#fff" fill-opacity="0"/><use xlink:href="#E" transform="matrix(1,0,0,1,343.5,725) translate(16.19999999999999 28.6)"/><use xlink:href="#F" transform="matrix(1,0,0,1,343.5,725) translate(107.05 28.6)"/><use xlink:href="#H" transform="matrix(1,0,0,1,343.5,725) translate(177.9 28.6)"/><path d="M878.5 668.45c0 6.66-22.4 12.05-50 12.05s-50-5.4-50-12.05v-96.4c0-6.66 22.4-12.05 50-12.05s50 5.4 50 12.05z" stroke="#000" stroke-width="2" fill="#ffbbb1"/><path d="M878.5 572.05c0 6.66-22.4 12.05-50 12.05s-50-5.4-50-12.05" stroke="#000" stroke-width="2" fill="none"/><use xlink:href="#A" transform="matrix(1,0,0,1,783.5,589.1) translate(21.549999999999997 14.69999999999999)"/><use xlink:href="#B" transform="matrix(1,0,0,1,783.5,589.1) translate(23.525 36.29999999999999)"/><use xlink:href="#C" transform="matrix(1,0,0,1,783.5,589.1) translate(14.524999999999999 57.89999999999999)"/><use xlink:href="#D" transform="matrix(1,0,0,1,783.5,589.1) translate(-0.9500000000000028 79.5)"/><path d="M1378.5 930.5h108l32 30v50h-140z" stroke="#000" stroke-width="2" fill="#ffbbb1"/><path d="M1368.5 940.5h108l32 30v50h-140z" stroke="#000" stroke-width="2" fill="#ffbbb1"/><path d="M1358.5 950.5h108l32 30v50h-140z" stroke="#000" stroke-width="2" fill="#ffbbb1"/><use xlink:href="#a" transform="matrix(1,0,0,1,1358.5,950.5) translate(38.05 43.6)"/><use xlink:href="#I" transform="matrix(1,0,0,1,1358.5,950.5) translate(89.95 43.6)"/><path d="M221 300.5h73.25V80h55" stroke="#000" stroke-width="2" fill="none"/><path d="M221 301.5h-1v-2h1zM364.26 80L350 84.64v-9.28z"/><path d="M367.5 80L349 86V74zM351 83.26L361.03 80 351 76.74z"/><path d="M1228.5 820c16.57 0 30 13.43 30 30v300c0 16.57-13.43 30-30 30h-860c-16.57 0-30-13.43-30-30V850c0-16.57 13.43-30 30-30z" stroke="#000" stroke-width="2" fill="#e5e5e5"/><path d="M448.5 880c0 22.1-17.9 40-40 40s-40-17.9-40-40 17.9-40 40-40 40 17.9 40 40z" stroke="#000" stroke-width="2" fill="#c7e8ac"/><use xlink:href="#a" transform="matrix(1,0,0,1,373.5,845) translate(3.549999999999997 27.799999999999997)"/><use xlink:href="#x" transform="matrix(1,0,0,1,373.5,845) translate(55.45 27.799999999999997)"/><use xlink:href="#y" transform="matrix(1,0,0,1,373.5,845) translate(15 49.4)"/><path d="M868.5 880c0 22.1-17.9 40-40 40s-40-17.9-40-40 17.9-40 40-40 40 17.9 40 40z" stroke="#000" stroke-width="2" fill="#ffbbb1"/><use xlink:href="#a" transform="matrix(1,0,0,1,793.5,845) translate(3.049999999999997 27.799999999999997)"/><use xlink:href="#z" transform="matrix(1,0,0,1,793.5,845) translate(54.95 27.799999999999997)"/><use xlink:href="#y" transform="matrix(1,0,0,1,793.5,845) translate(15 49.4)"/><path d="M458.5 1068.2c0 6.66-22.4 12.05-50 12.05s-50-5.4-50-12.05v-96.4c0-6.66 22.4-12.05 50-12.05s50 5.4 50 12.05z" stroke="#000" stroke-width="2" fill="#c7e8ac"/><path d="M458.5 971.8c0 6.66-22.4 12.05-50 12.05s-50-5.4-50-12.05" stroke="#000" stroke-width="2" fill="none"/><use xlink:href="#A" transform="matrix(1,0,0,1,363.5,988.8499999999999) translate(21.549999999999997 14.69999999999999)"/><use xlink:href="#B" transform="matrix(1,0,0,1,363.5,988.8499999999999) translate(23.525 36.29999999999999)"/><use xlink:href="#C" transform="matrix(1,0,0,1,363.5,988.8499999999999) translate(14.524999999999999 57.89999999999999)"/><use xlink:href="#D" transform="matrix(1,0,0,1,363.5,988.8499999999999) translate(-0.9500000000000028 79.5)"/><path d="M338.5 1120h240v60h-240z" stroke="#000" stroke-opacity="0" stroke-width="2" fill="#fff" fill-opacity="0"/><use xlink:href="#E" transform="matrix(1,0,0,1,343.5,1125) translate(16.19999999999999 28.6)"/><use xlink:href="#F" transform="matrix(1,0,0,1,343.5,1125) translate(107.05 28.6)"/><use xlink:href="#J" transform="matrix(1,0,0,1,343.5,1125) translate(177.9 28.6)"/><path d="M878.5 1068.45c0 6.66-22.4 12.05-50 12.05s-50-5.4-50-12.05v-96.4c0-6.66 22.4-12.05 50-12.05s50 5.4 50 12.05z" stroke="#000" stroke-width="2" fill="#ffbbb1"/><path d="M878.5 972.05c0 6.66-22.4 12.05-50 12.05s-50-5.4-50-12.05" stroke="#000" stroke-width="2" fill="none"/><g><use xlink:href="#A" transform="matrix(1,0,0,1,783.5,989.1) translate(21.549999999999997 14.69999999999999)"/><use xlink:href="#B" transform="matrix(1,0,0,1,783.5,989.1) translate(23.525 36.29999999999999)"/><use xlink:href="#C" transform="matrix(1,0,0,1,783.5,989.1) translate(14.524999999999999 57.89999999999999)"/><use xlink:href="#D" transform="matrix(1,0,0,1,783.5,989.1) translate(-0.9500000000000028 79.5)"/></g><path d="M221 300.5h73.25V880h55" stroke="#000" stroke-width="2" fill="none"/><path d="M221 301.5h-1v-2h1zM364.26 880L350 884.64v-9.28z"/><path d="M367.5 880l-18.5 6v-12zm-16.5 3.26l10.03-3.26-10.03-3.26z"/><path d="M449.5 80h308.76" stroke="#000" stroke-width="2" fill="none"/><path d="M449.5 81h-1.06l.06-1-.04-1h1.04zM773.26 80L759 84.64v-9.28z"/><path d="M776.5 80L758 86V74zM760 83.26L770.03 80 760 76.74z"/><path d="M449.5 880h319.76" stroke="#000" stroke-width="2" fill="none"/><path d="M449.5 881h-1.06l.06-1-.04-1h1.04zM784.26 880L770 884.64v-9.28z"/><path d="M787.5 880l-18.5 6v-12zm-16.5 3.26l10.03-3.26-10.03-3.26z"/><path d="M817.5 121v19.76" stroke="#000" stroke-width="2" fill="none"/><path d="M817.5 120l1-.04V121h-2v-1.06zM817.5 155.76l-4.64-14.26h9.27z"/><path d="M817.5 159l-6-18.5h12zm-3.26-16.5l3.26 10.03 3.26-10.03z"/><path d="M828.5 521v19.76" stroke="#000" stroke-width="2" fill="none"/><path d="M828.5 520l1-.04V521h-2v-1.06zM828.5 555.76l-4.64-14.26h9.28z"/><path d="M828.5 559l-6-18.5h12zm-3.26-16.5l3.26 10.03 3.26-10.03z"/><path d="M828.5 921v19.76" stroke="#000" stroke-width="2" fill="none"/><path d="M828.5 920l1-.04V921h-2v-1.06zM828.5 955.76l-4.64-14.26h9.28z"/><path d="M828.5 959l-6-18.5h12zm-3.26-16.5l3.26 10.03 3.26-10.03z"/><path d="M538.5 130h128l32 32v128h-160z" stroke="#d9be60" stroke-width="2" fill="#ffdf71"/><path d="M666.5 130v32h32" fill="#d9be60"/><g><use xlink:href="#K" transform="matrix(1,0,0,1,543.5,135) translate(48.55 57)"/><use xlink:href="#L" transform="matrix(1,0,0,1,543.5,135) translate(97.5 57)"/><use xlink:href="#M" transform="matrix(1,0,0,1,543.5,135) translate(57.525 78.60000000000001)"/><use xlink:href="#N" transform="matrix(1,0,0,1,543.5,135) translate(68.475 78.60000000000001)"/><use xlink:href="#O" transform="matrix(1,0,0,1,543.5,135) translate(57.525 100.20000000000002)"/><use xlink:href="#P" transform="matrix(1,0,0,1,543.5,135) translate(68.475 100.20000000000002)"/></g><path d="M847.5 120.25h32.1l7.9 7.9v31.6h-40z" stroke="#d9be60" stroke-width="2" fill="#ffdf71"/><path d="M879.6 120.25v7.9h7.9" fill="#d9be60"/><g><use xlink:href="#Q" transform="matrix(1,0,0,1,852.4993760969043,125.25) translate(3.0250000000000004 18.6)"/><use xlink:href="#R" transform="matrix(1,0,0,1,852.4993760969043,125.25) translate(11.975 18.6)"/></g><path d="M732.5 720h170v60h-170z" stroke="#19967d" stroke-width="2" fill="#fff" fill-opacity="0"/><g><use xlink:href="#S" transform="matrix(1,0,0,1,737.4993760969041,725) translate(15.574999999999989 17.799999999999997)"/><use xlink:href="#T" transform="matrix(1,0,0,1,737.4993760969041,725) translate(76.52499999999999 17.799999999999997)"/><use xlink:href="#U" transform="matrix(1,0,0,1,737.4993760969041,725) translate(102.475 17.799999999999997)"/><use xlink:href="#V" transform="matrix(1,0,0,1,737.4993760969041,725) translate(21.099999999999994 39.4)"/></g><path d="M898.02 878.58l-2.03.37-6.36.9-1.84.17-.2-2 1.8-.17 6.27-.87 1.98-.37zm12.07-2.67l-2 .55-.5-1.93 1.96-.54zm11.77-3.73l-1.93.7-.68-1.88 1.92-.7zm65.83-54l-2.52 3.73-2.97 4.02h-2.47l3.8-5.17 2.5-3.7zm6.54-10.5l-.58 1.05-.47.76-1.7-1.05.43-.72.57-1zm5.84-10.85l-.92 1.83-1.8-.9.93-1.83zm12.18-28.3l-1.2 3.4-4.4 10.9-2.15 4.73-1.8-.83 2.1-4.68 4.4-10.84 1.18-3.35zm4.03-11.65l-.6 1.96-1.93-.6.6-1.95zm3.62-11.74l-.6 1.96-1.92-.6.6-1.96zm7.32-29.9l-2.83 12.93-1.85 7.04-1.94-.5 1.86-7 2.83-12.9zm2.44-12.08l-.36 2.02-1.97-.35.36-2.02zm2.12-12.1l-.35 2.02-1.97-.35.35-2.02zm4.35-30.44l-2.7 20.3-1.98-.26 2.7-20.3zm1.4-12.23l-.2 2.04-2-.17.2-2.04zm1.1-12.24l-.2 2.04-1.98-.18.18-2.05zm2.35-30.65l-.47 9.78-.96 10.68-2-.18.96-10.64.47-9.74zm.58-12.27l-.1 2.05-2-.1.1-2.04zm.6-12.26l-.1 2.04-2-.1.1-2.04zm.96-30.74l-.06 11.72-.42 8.8-2-.1.42-8.76.06-11.67zm.05-12.28l-.02 2.05h-2v-2.06zm.05-12.28v2.04h-2v-2.05zm.15-30.7l-.1 20.46h-2l.1-20.48zm.05-12.3v2.05l-2-.02v-2.05zm.05-10.26l-2 .04-.04-2.05 2-.03zm-.36-20.42l.14 8.14-2 .03-.14-8.1-.48-12.34 2-.08zm-.9-22.57l-2 .07-.07-2.05 2-.08zm-.48-12.3l-2 .1-.08-2.05 2-.08zm-.5-12.26l-2 .08-.8-20.46 2-.08zm-1.25-30.73l-2 .18-.15-2.04 2-.17zm-1-12.23l-2 .16-.17-2.04 2-.17zm-1.02-12.24l-2 .16-1.68-20.4 2-.18zM1035.1 319l-2 .26-.24-2.03 1.98-.25zm-1.53-12.17l-2 .24-.2-1.7h2.02zm-9.12-54.6l-1.95.43-.43-2 1.96-.42zm-6.74-27.94l4.1 15.9-1.95.5-4.06-15.87-1.18-3.87 1.92-.58zm-4.12-13.72l-1.9.58-.6-1.96 1.9-.58zm-3.97-11.67l-1.88.67-.67-1.94 1.9-.65zm-10.48-25.68l4.58 10.3 1.54 3.87-1.86.73-1.52-3.85-4.55-10.2-2.24-4.56 1.8-.9zm-7.03-13.7l-1.77.97-.98-1.8 1.75-.97zm-6.42-10.9l.17.27-1.7 1.03-.16-.25-.96-1.43 1.67-1.1zm-17.5-23.24l4.35 5.05 4.36 5.5 1.98 2.75-1.6 1.18-1.98-2.7-4.3-5.46-4.32-5-2.37-2.5 1.47-1.38zm-9.74-9.83l-1.34 1.5-1.52-1.38 1.34-1.5zM949 107.6l-1.22 1.58-1.63-1.24 1.2-1.6zm-26.8-16.03l5 2.36 4.86 2.54 4.76 2.75 2.03 1.3-1.07 1.68-2-1.27-4.68-2.7-4.8-2.5-4.92-2.33-1.55-.65.78-1.84zm-11.22-4.38l-.6 1.9-1.96-.64.62-1.9zm-11.86-3.5l-.46 1.96-2-.47.47-1.96zm-17.85-3.3l5.74.83-.3 1.98-5.68-.83-4.4-.46.2-1.98zM875.75 85.5l-14-5.34 14.47-3.9z"/><path d="M876.68 86.93L858.5 80l18.78-5.08zm-11.7-6.6l9.84 3.75.33-6.5zM887.23 883.7l-14.5-3.87 14-5.4z"/><path d="M888.3 885l-18.8-5 18.15-7zm-12.34-5.35l10.2 2.72-.36-6.5z"/><g><use xlink:href="#W" transform="matrix(1,0,0,1,957.4218438280554,262.16695501237155) translate(0 14.4)"/><use xlink:href="#X" transform="matrix(1,0,0,1,957.4218438280554,262.16695501237155) translate(55.85000000000001 14.4)"/><use xlink:href="#Y" transform="matrix(1,0,0,1,957.4218438280554,262.16695501237155) translate(0 36)"/><use xlink:href="#Z" transform="matrix(1,0,0,1,957.4218438280554,262.16695501237155) translate(15.5 36)"/><use xlink:href="#aa" transform="matrix(1,0,0,1,957.4218438280554,262.16695501237155) translate(56.400000000000006 36)"/></g><g><use xlink:href="#W" transform="matrix(1,0,0,1,889.168145844082,825.9233064306043) translate(0 14.4)"/><use xlink:href="#X" transform="matrix(1,0,0,1,889.168145844082,825.9233064306043) translate(55.85000000000001 14.4)"/><use xlink:href="#Y" transform="matrix(1,0,0,1,889.168145844082,825.9233064306043) translate(0 36)"/><use xlink:href="#ab" transform="matrix(1,0,0,1,889.168145844082,825.9233064306043) translate(15.5 36)"/><use xlink:href="#aa" transform="matrix(1,0,0,1,889.168145844082,825.9233064306043) translate(56.400000000000006 36)"/></g><path d="M618.5 129V80" stroke="#000" stroke-width="2" fill="none"/><path d="M619.5 130h-2v-1h2z"/><path d="M538.5 920.25h128l32 32v128h-160z" stroke="#d9be60" stroke-width="2" fill="#ffdf71"/><path d="M666.5 920.25v32h32" fill="#d9be60"/><g><use xlink:href="#K" transform="matrix(1,0,0,1,543.5,925.25) translate(48.55 57)"/><use xlink:href="#L" transform="matrix(1,0,0,1,543.5,925.25) translate(97.5 57)"/><use xlink:href="#M" transform="matrix(1,0,0,1,543.5,925.25) translate(57.525 78.60000000000001)"/><use xlink:href="#N" transform="matrix(1,0,0,1,543.5,925.25) translate(68.475 78.60000000000001)"/><use xlink:href="#O" transform="matrix(1,0,0,1,543.5,925.25) translate(57.525 100.20000000000002)"/><use xlink:href="#P" transform="matrix(1,0,0,1,543.5,925.25) translate(68.475 100.20000000000002)"/></g><path d="M618.5 919.25v-39.5" stroke="#000" stroke-width="2" fill="none"/><path d="M619.5 920.25h-2v-1h2z"/><path d="M20 20h240v226H20z" stroke="#000" stroke-opacity="0" stroke-width="2" fill="#fff" fill-opacity="0"/><g><use xlink:href="#ac" transform="matrix(1,0,0,1,25,25.000000000000014) translate(0 14.4)"/><use xlink:href="#ad" transform="matrix(1,0,0,1,25,25.000000000000014) translate(16 14.4)"/><use xlink:href="#ae" transform="matrix(1,0,0,1,25,25.000000000000014) translate(93.85000000000001 14.4)"/><use xlink:href="#af" transform="matrix(1,0,0,1,25,25.000000000000014) translate(148.75 14.4)"/><use xlink:href="#ag" transform="matrix(1,0,0,1,25,25.000000000000014) translate(0 36)"/><use xlink:href="#ah" transform="matrix(1,0,0,1,25,25.000000000000014) translate(62.95 36)"/><use xlink:href="#ai" transform="matrix(1,0,0,1,25,25.000000000000014) translate(86.95 36)"/><use xlink:href="#aj" transform="matrix(1,0,0,1,25,25.000000000000014) translate(101.95 36)"/><use xlink:href="#ak" transform="matrix(1,0,0,1,25,25.000000000000014) translate(150.85000000000002 36)"/><use xlink:href="#al" transform="matrix(1,0,0,1,25,25.000000000000014) translate(170.85000000000002 36)"/><use xlink:href="#am" transform="matrix(1,0,0,1,25,25.000000000000014) translate(217.8 36)"/><use xlink:href="#u" transform="matrix(1,0,0,1,25,25.000000000000014) translate(0 57.6)"/><use xlink:href="#v" transform="matrix(1,0,0,1,25,25.000000000000014) translate(15.5 57.6)"/><use xlink:href="#u" transform="matrix(1,0,0,1,25,25.000000000000014) translate(30.5 57.6)"/><use xlink:href="#an" transform="matrix(1,0,0,1,25,25.000000000000014) translate(46 57.6)"/><use xlink:href="#ao" transform="matrix(1,0,0,1,25,25.000000000000014) translate(138.85000000000002 57.6)"/><use xlink:href="#ap" transform="matrix(1,0,0,1,25,25.000000000000014) translate(168.85000000000002 57.6)"/><use xlink:href="#aq" transform="matrix(1,0,0,1,25,25.000000000000014) translate(182.8 57.6)"/><use xlink:href="#ar" transform="matrix(1,0,0,1,25,25.000000000000014) translate(0 79.20000000000002)"/><use xlink:href="#as" transform="matrix(1,0,0,1,25,25.000000000000014) translate(108.9 79.20000000000002)"/><use xlink:href="#e" transform="matrix(1,0,0,1,25,25.000000000000014) translate(0 100.80000000000001)"/><use xlink:href="#at" transform="matrix(1,0,0,1,25,25.000000000000014) translate(0 122.4)"/><use xlink:href="#au" transform="matrix(1,0,0,1,25,25.000000000000014) translate(24.9 122.4)"/><use xlink:href="#av" transform="matrix(1,0,0,1,25,25.000000000000014) translate(77.8 122.4)"/><use xlink:href="#aw" transform="matrix(1,0,0,1,25,25.000000000000014) translate(131.8 122.4)"/><use xlink:href="#ax" transform="matrix(1,0,0,1,25,25.000000000000014) translate(0 144)"/><use xlink:href="#ah" transform="matrix(1,0,0,1,25,25.000000000000014) translate(60.95 144)"/><use xlink:href="#ay" transform="matrix(1,0,0,1,25,25.000000000000014) translate(84.95 144)"/><use xlink:href="#az" transform="matrix(1,0,0,1,25,25.000000000000014) translate(137.9 144)"/><use xlink:href="#aA" transform="matrix(1,0,0,1,25,25.000000000000014) translate(0 165.6)"/><use xlink:href="#aB" transform="matrix(1,0,0,1,25,25.000000000000014) translate(35 165.6)"/><use xlink:href="#aC" transform="matrix(1,0,0,1,25,25.000000000000014) translate(142.9 165.6)"/><use xlink:href="#aD" transform="matrix(1,0,0,1,25,25.000000000000014) translate(0 187.2)"/><use xlink:href="#aE" transform="matrix(1,0,0,1,25,25.000000000000014) translate(57.95 187.2)"/><use xlink:href="#aF" transform="matrix(1,0,0,1,25,25.000000000000014) translate(159.85000000000002 187.2)"/><use xlink:href="#B" transform="matrix(1,0,0,1,25,25.000000000000014) translate(185.8 187.2)"/><use xlink:href="#aG" transform="matrix(1,0,0,1,25,25.000000000000014) translate(0 208.79999999999998)"/></g><path d="M1078.5 40h160v193.44c-26.72-32.3-43.36-32.3-53.44-32.3-16 0-37.28 32.3-53.28 32.3-9.92 0-26.72 0-53.28-32.3z" stroke="#000" stroke-width="2" fill="#c1e4f7"/><g><use xlink:href="#aH" transform="matrix(1,0,0,1,1083.5,44.999999999999986) translate(0 14.4)"/><use xlink:href="#X" transform="matrix(1,0,0,1,1083.5,44.999999999999986) translate(60.85000000000001 14.4)"/><use xlink:href="#Y" transform="matrix(1,0,0,1,1083.5,44.999999999999986) translate(0 36)"/><use xlink:href="#Z" transform="matrix(1,0,0,1,1083.5,44.999999999999986) translate(15.5 36)"/><use xlink:href="#aI" transform="matrix(1,0,0,1,1083.5,44.999999999999986) translate(56.400000000000006 36)"/><use xlink:href="#e" transform="matrix(1,0,0,1,1083.5,44.999999999999986) translate(0 57.6)"/><use xlink:href="#f" transform="matrix(1,0,0,1,1083.5,44.999999999999986) translate(0 79.20000000000002)"/><use xlink:href="#aJ" transform="matrix(1,0,0,1,1083.5,44.999999999999986) translate(10.95 79.20000000000002)"/><use xlink:href="#h" transform="matrix(1,0,0,1,1083.5,44.999999999999986) translate(36.01 100.80000000000001)"/><use xlink:href="#aK" transform="matrix(1,0,0,1,1083.5,44.999999999999986) translate(46.959999999999994 100.80000000000001)"/><use xlink:href="#d" transform="matrix(1,0,0,1,1083.5,44.999999999999986) translate(133.86 100.80000000000001)"/><use xlink:href="#h" transform="matrix(1,0,0,1,1083.5,44.999999999999986) translate(36.01 122.4)"/><use xlink:href="#aL" transform="matrix(1,0,0,1,1083.5,44.999999999999986) translate(46.959999999999994 122.4)"/><use xlink:href="#j" transform="matrix(1,0,0,1,1083.5,44.999999999999986) translate(96.96 122.4)"/><use xlink:href="#h" transform="matrix(1,0,0,1,1083.5,44.999999999999986) translate(36.01 144)"/><use xlink:href="#aM" transform="matrix(1,0,0,1,1083.5,44.999999999999986) translate(46.959999999999994 144)"/><use xlink:href="#aN" transform="matrix(1,0,0,1,1083.5,44.999999999999986) translate(96.96 144)"/></g><path d="M1038.5 883.78h160v193.44c-26.72-32.3-43.36-32.3-53.44-32.3-16 0-37.28 32.3-53.28 32.3-9.92 0-26.72 0-53.28-32.3z" stroke="#000" stroke-width="2" fill="#c1e4f7"/><g><use xlink:href="#aH" transform="matrix(1,0,0,1,1043.5,888.78) translate(0 14.4)"/><use xlink:href="#X" transform="matrix(1,0,0,1,1043.5,888.78) translate(60.85000000000001 14.4)"/><use xlink:href="#Y" transform="matrix(1,0,0,1,1043.5,888.78) translate(0 36)"/><use xlink:href="#ab" transform="matrix(1,0,0,1,1043.5,888.78) translate(15.5 36)"/><use xlink:href="#aI" transform="matrix(1,0,0,1,1043.5,888.78) translate(56.400000000000006 36)"/><use xlink:href="#e" transform="matrix(1,0,0,1,1043.5,888.78) translate(0 57.6)"/><use xlink:href="#f" transform="matrix(1,0,0,1,1043.5,888.78) translate(0 79.20000000000002)"/><use xlink:href="#aJ" transform="matrix(1,0,0,1,1043.5,888.78) translate(10.95 79.20000000000002)"/><use xlink:href="#h" transform="matrix(1,0,0,1,1043.5,888.78) translate(36.01 100.80000000000001)"/><use xlink:href="#aK" transform="matrix(1,0,0,1,1043.5,888.78) translate(46.959999999999994 100.80000000000001)"/><use xlink:href="#d" transform="matrix(1,0,0,1,1043.5,888.78) translate(133.86 100.80000000000001)"/><use xlink:href="#h" transform="matrix(1,0,0,1,1043.5,888.78) translate(36.01 122.4)"/><use xlink:href="#aL" transform="matrix(1,0,0,1,1043.5,888.78) translate(46.959999999999994 122.4)"/><use xlink:href="#j" transform="matrix(1,0,0,1,1043.5,888.78) translate(96.96 122.4)"/><use xlink:href="#h" transform="matrix(1,0,0,1,1043.5,888.78) translate(36.01 144)"/><use xlink:href="#aM" transform="matrix(1,0,0,1,1043.5,888.78) translate(46.959999999999994 144)"/><use xlink:href="#aN" transform="matrix(1,0,0,1,1043.5,888.78) translate(96.96 144)"/></g><path d="M1318.5 20h240v160h-240z" stroke="#000" stroke-opacity="0" stroke-width="2" fill="#fff" fill-opacity="0"/><g><use xlink:href="#aO" transform="matrix(1,0,0,1,1323.5,25.00000000000003) translate(0 14.4)"/><use xlink:href="#aD" transform="matrix(1,0,0,1,1323.5,25.00000000000003) translate(68.80000000000001 14.4)"/><use xlink:href="#aP" transform="matrix(1,0,0,1,1323.5,25.00000000000003) translate(126.75000000000001 14.4)"/><use xlink:href="#aQ" transform="matrix(1,0,0,1,1323.5,25.00000000000003) translate(0 36)"/><use xlink:href="#aR" transform="matrix(1,0,0,1,1323.5,25.00000000000003) translate(30.95 36)"/><use xlink:href="#aS" transform="matrix(1,0,0,1,1323.5,25.00000000000003) translate(69.9 36)"/><use xlink:href="#aT" transform="matrix(1,0,0,1,1323.5,25.00000000000003) translate(147.8 36)"/><use xlink:href="#aU" transform="matrix(1,0,0,1,1323.5,25.00000000000003) translate(166.75 36)"/><use xlink:href="#au" transform="matrix(1,0,0,1,1323.5,25.00000000000003) translate(0 57.6)"/><use xlink:href="#aV" transform="matrix(1,0,0,1,1323.5,25.00000000000003) translate(52.9 57.6)"/><use xlink:href="#av" transform="matrix(1,0,0,1,1323.5,25.00000000000003) translate(69.9 57.6)"/><use xlink:href="#aW" transform="matrix(1,0,0,1,1323.5,25.00000000000003) translate(123.9 57.6)"/><use xlink:href="#e" transform="matrix(1,0,0,1,1323.5,25.00000000000003) translate(0 79.20000000000002)"/><use xlink:href="#aX" transform="matrix(1,0,0,1,1323.5,25.00000000000003) translate(0 100.80000000000001)"/><use xlink:href="#aY" transform="matrix(1,0,0,1,1323.5,25.00000000000003) translate(83.9 100.80000000000001)"/><use xlink:href="#aZ" transform="matrix(1,0,0,1,1323.5,25.00000000000003) translate(124.80000000000001 100.80000000000001)"/><use xlink:href="#ba" transform="matrix(1,0,0,1,1323.5,25.00000000000003) translate(142.75 100.80000000000001)"/><use xlink:href="#bb" transform="matrix(1,0,0,1,1323.5,25.00000000000003) translate(0 122.4)"/></g><path d="M848.5 920.25h32.1l7.9 7.9v31.6h-40z" stroke="#d9be60" stroke-width="2" fill="#ffdf71"/><path d="M880.6 920.25v7.9h7.9" fill="#d9be60"/><g><use xlink:href="#Q" transform="matrix(1,0,0,1,853.5,925.25) translate(3.0250000000000004 18.6)"/><use xlink:href="#R" transform="matrix(1,0,0,1,853.5,925.25) translate(11.975 18.6)"/></g><path d="M1078.5 420h240v60h-240z" stroke="#000" stroke-opacity="0" stroke-width="2" fill="#fff" fill-opacity="0"/><g><use xlink:href="#bc" transform="matrix(1,0,0,1,1083.5,425) translate(73.14814814814814 30.333333333333336)"/></g><defs><path d="M212-179c-10-28-35-45-73-45-59 0-87 40-87 99 0 60 29 101 89 101 43 0 62-24 78-52l27 14C228-24 195 4 139 4 59 4 22-46 18-125c-6-104 99-153 187-111 19 9 31 26 39 46" id="bd"/><path d="M106-169C34-169 62-67 57 0H25v-261h32l-1 103c12-21 28-36 61-36 89 0 53 116 60 194h-32v-121c2-32-8-49-39-48" id="be"/><path d="M141-36C126-15 110 5 73 4 37 3 15-17 15-53c-1-64 63-63 125-63 3-35-9-54-41-54-24 1-41 7-42 31l-33-3c5-37 33-52 76-52 45 0 72 20 72 64v82c-1 20 7 32 28 27v20c-31 9-61-2-59-35zM48-53c0 20 12 33 32 33 41-3 63-29 60-74-43 2-92-5-92 41" id="bf"/><path d="M24-231v-30h32v30H24zM24 0v-190h32V0H24" id="bg"/><path d="M117-194c89-4 53 116 60 194h-32v-121c0-31-8-49-39-48C34-167 62-67 57 0H25l-1-190h30c1 10-1 24 2 32 11-22 29-35 61-36" id="bh"/><g id="a"><use transform="matrix(0.05,0,0,0.05,0,0)" xlink:href="#bd"/><use transform="matrix(0.05,0,0,0.05,12.950000000000001,0)" xlink:href="#be"/><use transform="matrix(0.05,0,0,0.05,22.950000000000003,0)" xlink:href="#bf"/><use transform="matrix(0.05,0,0,0.05,32.95,0)" xlink:href="#bg"/><use transform="matrix(0.05,0,0,0.05,36.900000000000006,0)" xlink:href="#bh"/></g><path d="M205 0l-28-72H64L36 0H1l101-248h38L239 0h-34zm-38-99l-47-123c-12 45-31 82-46 123h93" id="bi"/><use transform="matrix(0.05,0,0,0.05,0,0)" xlink:href="#bi" id="b"/><path d="M160-131c35 5 61 23 61 61C221 17 115-2 30 0v-248c76 3 177-17 177 60 0 33-19 50-47 57zm-97-11c50-1 110 9 110-42 0-47-63-36-110-37v79zm0 115c55-2 124 14 124-45 0-56-70-42-124-44v89" id="bj"/><path d="M24 0v-261h32V0H24" id="bk"/><path d="M100-194c62-1 85 37 85 99 1 63-27 99-86 99S16-35 15-95c0-66 28-99 85-99zM99-20c44 1 53-31 53-75 0-43-8-75-51-75s-53 32-53 75 10 74 51 75" id="bl"/><path d="M96-169c-40 0-48 33-48 73s9 75 48 75c24 0 41-14 43-38l32 2c-6 37-31 61-74 61-59 0-76-41-82-99-10-93 101-131 147-64 4 7 5 14 7 22l-32 3c-4-21-16-35-41-35" id="bm"/><path d="M143 0L79-87 56-68V0H24v-261h32v163l83-92h37l-77 82L181 0h-38" id="bn"/><g id="c"><use transform="matrix(0.05,0,0,0.05,0,0)" xlink:href="#bj"/><use transform="matrix(0.05,0,0,0.05,12,0)" xlink:href="#bk"/><use transform="matrix(0.05,0,0,0.05,15.949999999999998,0)" xlink:href="#bl"/><use transform="matrix(0.05,0,0,0.05,25.950000000000003,0)" xlink:href="#bm"/><use transform="matrix(0.05,0,0,0.05,34.95,0)" xlink:href="#bn"/></g><use transform="matrix(0.05,0,0,0.05,0,0)" xlink:href="#bg" id="d"/><path d="M16-82v-28h88v28H16" id="bo"/><use transform="matrix(0.05,0,0,0.05,0,0)" xlink:href="#bo" id="f"/><path d="M59-47c-2 24 18 29 38 22v24C64 9 27 4 27-40v-127H5v-23h24l9-43h21v43h35v23H59v120" id="bp"/><path d="M141 0L90-78 38 0H4l68-98-65-92h35l48 74 47-74h35l-64 92 68 98h-35" id="bq"/><path d="M27 0v-27h64v-190l-56 39v-29l58-41h29v221h61V0H27" id="br"/><g id="g"><use transform="matrix(0.05,0,0,0.05,0,0)" xlink:href="#bp"/><use transform="matrix(0.05,0,0,0.05,5,0)" xlink:href="#bq"/><use transform="matrix(0.05,0,0,0.05,14,0)" xlink:href="#br"/></g><use transform="matrix(0.05,0,0,0.05,0,0)" xlink:href="#bo" id="h"/><path d="M210-169c-67 3-38 105-44 169h-31v-121c0-29-5-50-35-48C34-165 62-65 56 0H25l-1-190h30c1 10-1 24 2 32 10-44 99-50 107 0 11-21 27-35 58-36 85-2 47 119 55 194h-31v-121c0-29-5-49-35-48" id="bs"/><path d="M84 4C-5 8 30-112 23-190h32v120c0 31 7 50 39 49 72-2 45-101 50-169h31l1 190h-30c-1-10 1-25-2-33-11 22-28 36-60 37" id="bt"/><path d="M135-143c-3-34-86-38-87 0 15 53 115 12 119 90S17 21 10-45l28-5c4 36 97 45 98 0-10-56-113-15-118-90-4-57 82-63 122-42 12 7 21 19 24 35" id="bu"/><path d="M177-190C167-65 218 103 67 71c-23-6-38-20-44-43l32-5c15 47 100 32 89-28v-30C133-14 115 1 83 1 29 1 15-40 15-95c0-56 16-97 71-98 29-1 48 16 59 35 1-10 0-23 2-32h30zM94-22c36 0 50-32 50-73 0-42-14-75-50-75-39 0-46 34-46 75s6 73 46 73" id="bv"/><path d="M33-154v-36h34v36H33zM33 0v-36h34V0H33" id="bw"/><g id="i"><use transform="matrix(0.05,0,0,0.05,0,0)" xlink:href="#bs"/><use transform="matrix(0.05,0,0,0.05,14.950000000000001,0)" xlink:href="#bt"/><use transform="matrix(0.05,0,0,0.05,24.950000000000003,0)" xlink:href="#bk"/><use transform="matrix(0.05,0,0,0.05,28.900000000000002,0)" xlink:href="#bp"/><use transform="matrix(0.05,0,0,0.05,33.900000000000006,0)" xlink:href="#bg"/><use transform="matrix(0.05,0,0,0.05,37.85000000000001,0)" xlink:href="#bu"/><use transform="matrix(0.05,0,0,0.05,46.85000000000001,0)" xlink:href="#bg"/><use transform="matrix(0.05,0,0,0.05,50.80000000000001,0)" xlink:href="#bv"/><use transform="matrix(0.05,0,0,0.05,60.80000000000001,0)" xlink:href="#bw"/></g><path d="M108 0H70L1-190h34L89-25l56-165h34" id="bx"/><g id="j"><use transform="matrix(0.05,0,0,0.05,0,0)" xlink:href="#bx"/><use transform="matrix(0.05,0,0,0.05,9,0)" xlink:href="#bf"/><use transform="matrix(0.05,0,0,0.05,19,0)" xlink:href="#bk"/><use transform="matrix(0.05,0,0,0.05,22.95,0)" xlink:href="#br"/></g><path d="M115-194c55 1 70 41 70 98S169 2 115 4C84 4 66-9 55-30l1 105H24l-1-265h31l2 30c10-21 28-34 59-34zm-8 174c40 0 45-34 45-75s-6-73-45-74c-42 0-51 32-51 76 0 43 10 73 51 73" id="by"/><path d="M-5 72V49h209v23H-5" id="bz"/><path d="M114-163C36-179 61-72 57 0H25l-1-190h30c1 12-1 29 2 39 6-27 23-49 58-41v29" id="bA"/><path d="M100-194c63 0 86 42 84 106H49c0 40 14 67 53 68 26 1 43-12 49-29l28 8c-11 28-37 45-77 45C44 4 14-33 15-96c1-61 26-98 85-98zm52 81c6-60-76-77-97-28-3 7-6 17-6 28h103" id="bB"/><g id="k"><use transform="matrix(0.05,0,0,0.05,0,0)" xlink:href="#bl"/><use transform="matrix(0.05,0,0,0.05,10,0)" xlink:href="#by"/><use transform="matrix(0.05,0,0,0.05,20,0)" xlink:href="#bz"/><use transform="matrix(0.05,0,0,0.05,30,0)" xlink:href="#bA"/><use transform="matrix(0.05,0,0,0.05,35.95,0)" xlink:href="#bB"/><use transform="matrix(0.05,0,0,0.05,45.95,0)" xlink:href="#bp"/><use transform="matrix(0.05,0,0,0.05,50.95,0)" xlink:href="#bw"/></g><path d="M85-194c31 0 48 13 60 33l-1-100h32l1 261h-30c-2-10 0-23-3-31C134-8 116 4 85 4 32 4 16-35 15-94c0-66 23-100 70-100zm9 24c-40 0-46 34-46 75 0 40 6 74 45 74 42 0 51-32 51-76 0-42-9-74-50-73" id="bC"/><g id="l"><use transform="matrix(0.05,0,0,0.05,0,0)" xlink:href="#bf"/><use transform="matrix(0.05,0,0,0.05,10,0)" xlink:href="#bC"/><use transform="matrix(0.05,0,0,0.05,20,0)" xlink:href="#bC"/><use transform="matrix(0.05,0,0,0.05,30,0)" xlink:href="#br"/></g><path d="M101-251c82-7 93 87 43 132L82-64C71-53 59-42 53-27h129V0H18c2-99 128-94 128-182 0-28-16-43-45-43s-46 15-49 41l-32-3c6-41 34-60 81-64" id="bD"/><g id="m"><use transform="matrix(0.05,0,0,0.05,0,0)" xlink:href="#bp"/><use transform="matrix(0.05,0,0,0.05,5,0)" xlink:href="#bq"/><use transform="matrix(0.05,0,0,0.05,14,0)" xlink:href="#bD"/></g><g id="n"><use transform="matrix(0.05,0,0,0.05,0,0)" xlink:href="#bo"/><use transform="matrix(0.05,0,0,0.05,5.95,0)" xlink:href="#bs"/><use transform="matrix(0.05,0,0,0.05,20.900000000000002,0)" xlink:href="#bt"/><use transform="matrix(0.05,0,0,0.05,30.900000000000002,0)" xlink:href="#bk"/><use transform="matrix(0.05,0,0,0.05,34.85,0)" xlink:href="#bp"/><use transform="matrix(0.05,0,0,0.05,39.85,0)" xlink:href="#bg"/><use transform="matrix(0.05,0,0,0.05,43.800000000000004,0)" xlink:href="#bu"/><use transform="matrix(0.05,0,0,0.05,52.800000000000004,0)" xlink:href="#bg"/><use transform="matrix(0.05,0,0,0.05,56.75,0)" xlink:href="#bv"/><use transform="matrix(0.05,0,0,0.05,66.75,0)" xlink:href="#bw"/></g><g id="o"><use transform="matrix(0.05,0,0,0.05,0,0)" xlink:href="#bx"/><use transform="matrix(0.05,0,0,0.05,9,0)" xlink:href="#bf"/><use transform="matrix(0.05,0,0,0.05,19,0)" xlink:href="#bk"/></g><use transform="matrix(0.05,0,0,0.05,0,0)" xlink:href="#bD" id="p"/><g id="q"><use transform="matrix(0.05,0,0,0.05,0,0)" xlink:href="#bf"/><use transform="matrix(0.05,0,0,0.05,10,0)" xlink:href="#bC"/><use transform="matrix(0.05,0,0,0.05,20,0)" xlink:href="#bC"/><use transform="matrix(0.05,0,0,0.05,30,0)" xlink:href="#bD"/></g><path d="M33 0v-38h34V0H33" id="bE"/><g id="r"><use transform="matrix(0.05,0,0,0.05,0,0)" xlink:href="#bE"/><use transform="matrix(0.05,0,0,0.05,5,0)" xlink:href="#bE"/><use transform="matrix(0.05,0,0,0.05,10,0)" xlink:href="#bE"/></g><use transform="matrix(0.05,0,0,0.05,0,0)" xlink:href="#bn" id="s"/><use transform="matrix(0.05,0,0,0.05,0,0)" xlink:href="#bg" id="t"/><path d="M118-107v75H92v-75H18v-26h74v-75h26v75h74v26h-74" id="bF"/><use transform="matrix(0.05,0,0,0.05,0,0)" xlink:href="#bF" id="u"/><use transform="matrix(0.05,0,0,0.05,0,0)" xlink:href="#br" id="v"/><path d="M233-177c-1 41-23 64-60 70L243 0h-38l-65-103H63V0H30v-248c88 3 205-21 203 71zM63-129c60-2 137 13 137-47 0-61-80-42-137-45v92" id="bG"/><g id="w"><use transform="matrix(0.05,0,0,0.05,0,0)" xlink:href="#bs"/><use transform="matrix(0.05,0,0,0.05,14.950000000000001,0)" xlink:href="#bf"/><use transform="matrix(0.05,0,0,0.05,24.950000000000003,0)" xlink:href="#bq"/><use transform="matrix(0.05,0,0,0.05,33.95,0)" xlink:href="#bG"/><use transform="matrix(0.05,0,0,0.05,46.900000000000006,0)" xlink:href="#bB"/><use transform="matrix(0.05,0,0,0.05,56.900000000000006,0)" xlink:href="#bl"/><use transform="matrix(0.05,0,0,0.05,66.9,0)" xlink:href="#bA"/><use transform="matrix(0.05,0,0,0.05,72.85000000000001,0)" xlink:href="#bv"/></g><use transform="matrix(0.05,0,0,0.05,0,0)" xlink:href="#bi" id="x"/><g id="y"><use transform="matrix(0.05,0,0,0.05,0,0)" xlink:href="#bh"/><use transform="matrix(0.05,0,0,0.05,10,0)" xlink:href="#bl"/><use transform="matrix(0.05,0,0,0.05,20,0)" xlink:href="#bC"/><use transform="matrix(0.05,0,0,0.05,30,0)" xlink:href="#bB"/></g><use transform="matrix(0.05,0,0,0.05,0,0)" xlink:href="#bj" id="z"/><g id="A"><use transform="matrix(0.05,0,0,0.05,0,0)" xlink:href="#bd"/><use transform="matrix(0.05,0,0,0.05,12.950000000000001,0)" xlink:href="#bA"/><use transform="matrix(0.05,0,0,0.05,18.900000000000002,0)" xlink:href="#bl"/><use transform="matrix(0.05,0,0,0.05,28.900000000000002,0)" xlink:href="#bu"/><use transform="matrix(0.05,0,0,0.05,37.900000000000006,0)" xlink:href="#bu"/></g><g id="B"><use transform="matrix(0.05,0,0,0.05,0,0)" xlink:href="#bm"/><use transform="matrix(0.05,0,0,0.05,9,0)" xlink:href="#be"/><use transform="matrix(0.05,0,0,0.05,19,0)" xlink:href="#bf"/><use transform="matrix(0.05,0,0,0.05,29,0)" xlink:href="#bg"/><use transform="matrix(0.05,0,0,0.05,32.95,0)" xlink:href="#bh"/></g><g id="C"><use transform="matrix(0.05,0,0,0.05,0,0)" xlink:href="#bu"/><use transform="matrix(0.05,0,0,0.05,9,0)" xlink:href="#bB"/><use transform="matrix(0.05,0,0,0.05,19,0)" xlink:href="#bu"/><use transform="matrix(0.05,0,0,0.05,28,0)" xlink:href="#bu"/><use transform="matrix(0.05,0,0,0.05,37,0)" xlink:href="#bg"/><use transform="matrix(0.05,0,0,0.05,40.95,0)" xlink:href="#bl"/><use transform="matrix(0.05,0,0,0.05,50.95,0)" xlink:href="#bh"/></g><g id="D"><use transform="matrix(0.05,0,0,0.05,0,0)" xlink:href="#by"/><use transform="matrix(0.05,0,0,0.05,10,0)" xlink:href="#bB"/><use transform="matrix(0.05,0,0,0.05,20,0)" xlink:href="#bA"/><use transform="matrix(0.05,0,0,0.05,25.950000000000003,0)" xlink:href="#bu"/><use transform="matrix(0.05,0,0,0.05,34.95,0)" xlink:href="#bg"/><use transform="matrix(0.05,0,0,0.05,38.900000000000006,0)" xlink:href="#bu"/><use transform="matrix(0.05,0,0,0.05,47.900000000000006,0)" xlink:href="#bp"/><use transform="matrix(0.05,0,0,0.05,52.900000000000006,0)" xlink:href="#bB"/><use transform="matrix(0.05,0,0,0.05,62.900000000000006,0)" xlink:href="#bh"/><use transform="matrix(0.05,0,0,0.05,72.9,0)" xlink:href="#bm"/><use transform="matrix(0.05,0,0,0.05,81.9,0)" xlink:href="#bB"/></g><path d="M63-220v92h138v28H63V0H30v-248h175v28H63" id="bH"/><g id="E"><use transform="matrix(0.05,0,0,0.05,0,0)" xlink:href="#bH"/><use transform="matrix(0.05,0,0,0.05,10.950000000000001,0)" xlink:href="#bB"/><use transform="matrix(0.05,0,0,0.05,20.950000000000003,0)" xlink:href="#bC"/><use transform="matrix(0.05,0,0,0.05,30.950000000000003,0)" xlink:href="#bB"/><use transform="matrix(0.05,0,0,0.05,40.95,0)" xlink:href="#bA"/><use transform="matrix(0.05,0,0,0.05,46.900000000000006,0)" xlink:href="#bf"/><use transform="matrix(0.05,0,0,0.05,56.900000000000006,0)" xlink:href="#bp"/><use transform="matrix(0.05,0,0,0.05,61.900000000000006,0)" xlink:href="#bg"/><use transform="matrix(0.05,0,0,0.05,65.85000000000001,0)" xlink:href="#bl"/><use transform="matrix(0.05,0,0,0.05,75.85000000000001,0)" xlink:href="#bh"/></g><path d="M240 0l2-218c-23 76-54 145-80 218h-23L58-218 59 0H30v-248h44l77 211c21-75 51-140 76-211h43V0h-30" id="bI"/><path d="M115-194c53 0 69 39 70 98 0 66-23 100-70 100C84 3 66-7 56-30L54 0H23l1-261h32v101c10-23 28-34 59-34zm-8 174c40 0 45-34 45-75 0-40-5-75-45-74-42 0-51 32-51 76 0 43 10 73 51 73" id="bJ"/><g id="F"><use transform="matrix(0.05,0,0,0.05,0,0)" xlink:href="#bI"/><use transform="matrix(0.05,0,0,0.05,14.950000000000001,0)" xlink:href="#bB"/><use transform="matrix(0.05,0,0,0.05,24.950000000000003,0)" xlink:href="#bs"/><use transform="matrix(0.05,0,0,0.05,39.900000000000006,0)" xlink:href="#bJ"/><use transform="matrix(0.05,0,0,0.05,49.900000000000006,0)" xlink:href="#bB"/><use transform="matrix(0.05,0,0,0.05,59.900000000000006,0)" xlink:href="#bA"/></g><g id="G"><use transform="matrix(0.05,0,0,0.05,0,0)" xlink:href="#bH"/><use transform="matrix(0.05,0,0,0.05,10.950000000000001,0)" xlink:href="#bI"/><use transform="matrix(0.05,0,0,0.05,25.900000000000002,0)" xlink:href="#br"/></g><g id="H"><use transform="matrix(0.05,0,0,0.05,0,0)" xlink:href="#bH"/><use transform="matrix(0.05,0,0,0.05,10.950000000000001,0)" xlink:href="#bI"/><use transform="matrix(0.05,0,0,0.05,25.900000000000002,0)" xlink:href="#bD"/></g><use transform="matrix(0.05,0,0,0.05,0,0)" xlink:href="#bj" id="I"/><path d="M126-127c33 6 58 20 58 59 0 88-139 92-164 29-3-8-5-16-6-25l32-3c6 27 21 44 54 44 32 0 52-15 52-46 0-38-36-46-79-43v-28c39 1 72-4 72-42 0-27-17-43-46-43-28 0-47 15-49 41l-32-3c6-42 35-63 81-64 48-1 79 21 79 65 0 36-21 52-52 59" id="bK"/><g id="J"><use transform="matrix(0.05,0,0,0.05,0,0)" xlink:href="#bH"/><use transform="matrix(0.05,0,0,0.05,10.950000000000001,0)" xlink:href="#bI"/><use transform="matrix(0.05,0,0,0.05,25.900000000000002,0)" xlink:href="#bK"/></g><g id="K"><use transform="matrix(0.05,0,0,0.05,0,0)" xlink:href="#bj"/><use transform="matrix(0.05,0,0,0.05,12,0)" xlink:href="#bk"/><use transform="matrix(0.05,0,0,0.05,15.949999999999998,0)" xlink:href="#bl"/><use transform="matrix(0.05,0,0,0.05,25.950000000000003,0)" xlink:href="#bm"/><use transform="matrix(0.05,0,0,0.05,34.95,0)" xlink:href="#bn"/></g><use transform="matrix(0.05,0,0,0.05,0,0)" xlink:href="#bg" id="L"/><use transform="matrix(0.05,0,0,0.05,0,0)" xlink:href="#bo" id="M"/><g id="N"><use transform="matrix(0.05,0,0,0.05,0,0)" xlink:href="#bp"/><use transform="matrix(0.05,0,0,0.05,5,0)" xlink:href="#bq"/><use transform="matrix(0.05,0,0,0.05,14,0)" xlink:href="#br"/></g><use transform="matrix(0.05,0,0,0.05,0,0)" xlink:href="#bo" id="O"/><g id="P"><use transform="matrix(0.05,0,0,0.05,0,0)" xlink:href="#bp"/><use transform="matrix(0.05,0,0,0.05,5,0)" xlink:href="#bq"/><use transform="matrix(0.05,0,0,0.05,14,0)" xlink:href="#bD"/></g><use transform="matrix(0.05,0,0,0.05,0,0)" xlink:href="#bg" id="Q"/><g id="R"><use transform="matrix(0.05,0,0,0.05,0,0)" xlink:href="#bE"/><use transform="matrix(0.05,0,0,0.05,5,0)" xlink:href="#bE"/><use transform="matrix(0.05,0,0,0.05,10,0)" xlink:href="#bE"/></g><path fill="#19967d" d="M30 0v-248h33v221h125V0H30" id="bL"/><path fill="#19967d" d="M100-194c63 0 86 42 84 106H49c0 40 14 67 53 68 26 1 43-12 49-29l28 8c-11 28-37 45-77 45C44 4 14-33 15-96c1-61 26-98 85-98zm52 81c6-60-76-77-97-28-3 7-6 17-6 28h103" id="bM"/><path fill="#19967d" d="M141-36C126-15 110 5 73 4 37 3 15-17 15-53c-1-64 63-63 125-63 3-35-9-54-41-54-24 1-41 7-42 31l-33-3c5-37 33-52 76-52 45 0 72 20 72 64v82c-1 20 7 32 28 27v20c-31 9-61-2-59-35zM48-53c0 20 12 33 32 33 41-3 63-29 60-74-43 2-92-5-92 41" id="bN"/><path fill="#19967d" d="M85-194c31 0 48 13 60 33l-1-100h32l1 261h-30c-2-10 0-23-3-31C134-8 116 4 85 4 32 4 16-35 15-94c0-66 23-100 70-100zm9 24c-40 0-46 34-46 75 0 40 6 74 45 74 42 0 51-32 51-76 0-42-9-74-50-73" id="bO"/><path fill="#19967d" d="M114-163C36-179 61-72 57 0H25l-1-190h30c1 12-1 29 2 39 6-27 23-49 58-41v29" id="bP"/><g id="S"><use transform="matrix(0.05,0,0,0.05,0,0)" xlink:href="#bL"/><use transform="matrix(0.05,0,0,0.05,10,0)" xlink:href="#bM"/><use transform="matrix(0.05,0,0,0.05,20,0)" xlink:href="#bN"/><use transform="matrix(0.05,0,0,0.05,30,0)" xlink:href="#bO"/><use transform="matrix(0.05,0,0,0.05,40,0)" xlink:href="#bM"/><use transform="matrix(0.05,0,0,0.05,50,0)" xlink:href="#bP"/></g><path fill="#19967d" d="M101-234c-31-9-42 10-38 44h38v23H63V0H32v-167H5v-23h27c-7-52 17-82 69-68v24" id="bQ"/><path fill="#19967d" d="M100-194c62-1 85 37 85 99 1 63-27 99-86 99S16-35 15-95c0-66 28-99 85-99zM99-20c44 1 53-31 53-75 0-43-8-75-51-75s-53 32-53 75 10 74 51 75" id="bR"/><g id="T"><use transform="matrix(0.05,0,0,0.05,0,0)" xlink:href="#bQ"/><use transform="matrix(0.05,0,0,0.05,5,0)" xlink:href="#bR"/><use transform="matrix(0.05,0,0,0.05,15,0)" xlink:href="#bP"/></g><path fill="#19967d" d="M115-194c53 0 69 39 70 98 0 66-23 100-70 100C84 3 66-7 56-30L54 0H23l1-261h32v101c10-23 28-34 59-34zm-8 174c40 0 45-34 45-75 0-40-5-75-45-74-42 0-51 32-51 76 0 43 10 73 51 73" id="bS"/><path fill="#19967d" d="M24 0v-261h32V0H24" id="bT"/><path fill="#19967d" d="M96-169c-40 0-48 33-48 73s9 75 48 75c24 0 41-14 43-38l32 2c-6 37-31 61-74 61-59 0-76-41-82-99-10-93 101-131 147-64 4 7 5 14 7 22l-32 3c-4-21-16-35-41-35" id="bU"/><path fill="#19967d" d="M143 0L79-87 56-68V0H24v-261h32v163l83-92h37l-77 82L181 0h-38" id="bV"/><g id="U"><use transform="matrix(0.05,0,0,0.05,0,0)" xlink:href="#bS"/><use transform="matrix(0.05,0,0,0.05,10,0)" xlink:href="#bT"/><use transform="matrix(0.05,0,0,0.05,13.949999999999998,0)" xlink:href="#bR"/><use transform="matrix(0.05,0,0,0.05,23.95,0)" xlink:href="#bU"/><use transform="matrix(0.05,0,0,0.05,32.95,0)" xlink:href="#bV"/></g><path fill="#19967d" d="M24-231v-30h32v30H24zM24 0v-190h32V0H24" id="bW"/><path fill="#19967d" d="M118-107v75H92v-75H18v-26h74v-75h26v75h74v26h-74" id="bX"/><path fill="#19967d" d="M27 0v-27h64v-190l-56 39v-29l58-41h29v221h61V0H27" id="bY"/><path fill="#19967d" d="M210-169c-67 3-38 105-44 169h-31v-121c0-29-5-50-35-48C34-165 62-65 56 0H25l-1-190h30c1 10-1 24 2 32 10-44 99-50 107 0 11-21 27-35 58-36 85-2 47 119 55 194h-31v-121c0-29-5-49-35-48" id="bZ"/><path fill="#19967d" d="M141 0L90-78 38 0H4l68-98-65-92h35l48 74 47-74h35l-64 92 68 98h-35" id="ca"/><path fill="#19967d" d="M233-177c-1 41-23 64-60 70L243 0h-38l-65-103H63V0H30v-248c88 3 205-21 203 71zM63-129c60-2 137 13 137-47 0-61-80-42-137-45v92" id="cb"/><path fill="#19967d" d="M177-190C167-65 218 103 67 71c-23-6-38-20-44-43l32-5c15 47 100 32 89-28v-30C133-14 115 1 83 1 29 1 15-40 15-95c0-56 16-97 71-98 29-1 48 16 59 35 1-10 0-23 2-32h30zM94-22c36 0 50-32 50-73 0-42-14-75-50-75-39 0-46 34-46 75s6 73 46 73" id="cc"/><g id="V"><use transform="matrix(0.05,0,0,0.05,0,0)" xlink:href="#bW"/><use transform="matrix(0.05,0,0,0.05,3.95,0)" xlink:href="#bX"/><use transform="matrix(0.05,0,0,0.05,14.449999999999998,0)" xlink:href="#bY"/><use transform="matrix(0.05,0,0,0.05,24.45,0)" xlink:href="#bX"/><use transform="matrix(0.05,0,0,0.05,34.95,0)" xlink:href="#bZ"/><use transform="matrix(0.05,0,0,0.05,49.900000000000006,0)" xlink:href="#bN"/><use transform="matrix(0.05,0,0,0.05,59.900000000000006,0)" xlink:href="#ca"/><use transform="matrix(0.05,0,0,0.05,68.9,0)" xlink:href="#cb"/><use transform="matrix(0.05,0,0,0.05,81.85000000000001,0)" xlink:href="#bM"/><use transform="matrix(0.05,0,0,0.05,91.85000000000001,0)" xlink:href="#bR"/><use transform="matrix(0.05,0,0,0.05,101.85000000000001,0)" xlink:href="#bP"/><use transform="matrix(0.05,0,0,0.05,107.80000000000001,0)" xlink:href="#cc"/></g><path d="M30-248c87 1 191-15 191 75 0 78-77 80-158 76V0H30v-248zm33 125c57 0 124 11 124-50 0-59-68-47-124-48v98" id="cd"/><g id="W"><use transform="matrix(0.05,0,0,0.05,0,0)" xlink:href="#cd"/><use transform="matrix(0.05,0,0,0.05,12,0)" xlink:href="#bf"/><use transform="matrix(0.05,0,0,0.05,22,0)" xlink:href="#bA"/><use transform="matrix(0.05,0,0,0.05,27.950000000000003,0)" xlink:href="#bp"/><use transform="matrix(0.05,0,0,0.05,32.95,0)" xlink:href="#bg"/><use transform="matrix(0.05,0,0,0.05,36.900000000000006,0)" xlink:href="#bf"/><use transform="matrix(0.05,0,0,0.05,46.900000000000006,0)" xlink:href="#bk"/></g><g id="X"><use transform="matrix(0.05,0,0,0.05,0,0)" xlink:href="#bp"/><use transform="matrix(0.05,0,0,0.05,5,0)" xlink:href="#bA"/><use transform="matrix(0.05,0,0,0.05,10.95,0)" xlink:href="#bf"/><use transform="matrix(0.05,0,0,0.05,20.95,0)" xlink:href="#bh"/><use transform="matrix(0.05,0,0,0.05,30.950000000000003,0)" xlink:href="#bu"/><use transform="matrix(0.05,0,0,0.05,39.95,0)" xlink:href="#bf"/><use transform="matrix(0.05,0,0,0.05,49.95,0)" xlink:href="#bm"/><use transform="matrix(0.05,0,0,0.05,58.95,0)" xlink:href="#bp"/><use transform="matrix(0.05,0,0,0.05,63.95,0)" xlink:href="#bg"/><use transform="matrix(0.05,0,0,0.05,67.9,0)" xlink:href="#bl"/><use transform="matrix(0.05,0,0,0.05,77.9,0)" xlink:href="#bh"/></g><use transform="matrix(0.05,0,0,0.05,0,0)" xlink:href="#bF" id="Y"/><g id="Z"><use transform="matrix(0.05,0,0,0.05,0,0)" xlink:href="#bH"/><use transform="matrix(0.05,0,0,0.05,10.950000000000001,0)" xlink:href="#bI"/><use transform="matrix(0.05,0,0,0.05,25.900000000000002,0)" xlink:href="#br"/></g><g id="aa"><use transform="matrix(0.05,0,0,0.05,0,0)" xlink:href="#bu"/><use transform="matrix(0.05,0,0,0.05,9,0)" xlink:href="#bg"/><use transform="matrix(0.05,0,0,0.05,12.949999999999998,0)" xlink:href="#bv"/><use transform="matrix(0.05,0,0,0.05,22.95,0)" xlink:href="#bh"/><use transform="matrix(0.05,0,0,0.05,32.95,0)" xlink:href="#bf"/><use transform="matrix(0.05,0,0,0.05,42.95,0)" xlink:href="#bp"/><use transform="matrix(0.05,0,0,0.05,47.95,0)" xlink:href="#bt"/><use transform="matrix(0.05,0,0,0.05,57.95,0)" xlink:href="#bA"/><use transform="matrix(0.05,0,0,0.05,63.900000000000006,0)" xlink:href="#bB"/></g><g id="ab"><use transform="matrix(0.05,0,0,0.05,0,0)" xlink:href="#bH"/><use transform="matrix(0.05,0,0,0.05,10.950000000000001,0)" xlink:href="#bI"/><use transform="matrix(0.05,0,0,0.05,25.900000000000002,0)" xlink:href="#bK"/></g><use transform="matrix(0.05,0,0,0.05,0,0)" xlink:href="#bi" id="ac"/><path d="M101-234c-31-9-42 10-38 44h38v23H63V0H32v-167H5v-23h27c-7-52 17-82 69-68v24" id="ce"/><g id="ad"><use transform="matrix(0.05,0,0,0.05,0,0)" xlink:href="#by"/><use transform="matrix(0.05,0,0,0.05,10,0)" xlink:href="#bA"/><use transform="matrix(0.05,0,0,0.05,15.949999999999998,0)" xlink:href="#bB"/><use transform="matrix(0.05,0,0,0.05,25.950000000000003,0)" xlink:href="#ce"/><use transform="matrix(0.05,0,0,0.05,30.950000000000003,0)" xlink:href="#bB"/><use transform="matrix(0.05,0,0,0.05,40.95,0)" xlink:href="#bA"/><use transform="matrix(0.05,0,0,0.05,46.900000000000006,0)" xlink:href="#bA"/><use transform="matrix(0.05,0,0,0.05,52.85,0)" xlink:href="#bB"/><use transform="matrix(0.05,0,0,0.05,62.85,0)" xlink:href="#bC"/></g><g id="ae"><use transform="matrix(0.05,0,0,0.05,0,0)" xlink:href="#bk"/><use transform="matrix(0.05,0,0,0.05,3.95,0)" xlink:href="#bB"/><use transform="matrix(0.05,0,0,0.05,13.949999999999998,0)" xlink:href="#bf"/><use transform="matrix(0.05,0,0,0.05,23.95,0)" xlink:href="#bC"/><use transform="matrix(0.05,0,0,0.05,33.95,0)" xlink:href="#bB"/><use transform="matrix(0.05,0,0,0.05,43.95,0)" xlink:href="#bA"/></g><path d="M206 0h-36l-40-164L89 0H53L-1-190h32L70-26l43-164h34l41 164 42-164h31" id="cf"/><g id="af"><use transform="matrix(0.05,0,0,0.05,0,0)" xlink:href="#cf"/><use transform="matrix(0.05,0,0,0.05,12.950000000000001,0)" xlink:href="#bf"/><use transform="matrix(0.05,0,0,0.05,22.950000000000003,0)" xlink:href="#bu"/></g><g id="ag"><use transform="matrix(0.05,0,0,0.05,0,0)" xlink:href="#bB"/><use transform="matrix(0.05,0,0,0.05,10,0)" xlink:href="#bk"/><use transform="matrix(0.05,0,0,0.05,13.949999999999998,0)" xlink:href="#bB"/><use transform="matrix(0.05,0,0,0.05,23.95,0)" xlink:href="#bm"/><use transform="matrix(0.05,0,0,0.05,32.95,0)" xlink:href="#bp"/><use transform="matrix(0.05,0,0,0.05,37.95,0)" xlink:href="#bB"/><use transform="matrix(0.05,0,0,0.05,47.95,0)" xlink:href="#bC"/></g><g id="ah"><use transform="matrix(0.05,0,0,0.05,0,0)" xlink:href="#bf"/><use transform="matrix(0.05,0,0,0.05,10,0)" xlink:href="#bu"/></g><use transform="matrix(0.05,0,0,0.05,0,0)" xlink:href="#bf" id="ai"/><g id="aj"><use transform="matrix(0.05,0,0,0.05,0,0)" xlink:href="#bA"/><use transform="matrix(0.05,0,0,0.05,5.95,0)" xlink:href="#bB"/><use transform="matrix(0.05,0,0,0.05,15.949999999999998,0)" xlink:href="#bu"/><use transform="matrix(0.05,0,0,0.05,24.95,0)" xlink:href="#bt"/><use transform="matrix(0.05,0,0,0.05,34.95,0)" xlink:href="#bk"/><use transform="matrix(0.05,0,0,0.05,38.900000000000006,0)" xlink:href="#bp"/></g><g id="ak"><use transform="matrix(0.05,0,0,0.05,0,0)" xlink:href="#bl"/><use transform="matrix(0.05,0,0,0.05,10,0)" xlink:href="#ce"/></g><g id="al"><use transform="matrix(0.05,0,0,0.05,0,0)" xlink:href="#bJ"/><use transform="matrix(0.05,0,0,0.05,10,0)" xlink:href="#bk"/><use transform="matrix(0.05,0,0,0.05,13.949999999999998,0)" xlink:href="#bl"/><use transform="matrix(0.05,0,0,0.05,23.95,0)" xlink:href="#bm"/><use transform="matrix(0.05,0,0,0.05,32.95,0)" xlink:href="#bn"/></g><use transform="matrix(0.05,0,0,0.05,0,0)" xlink:href="#bg" id="am"/><path d="M68-38c1 34 0 65-14 84H32c9-13 17-26 17-46H33v-38h35" id="cg"/><g id="an"><use transform="matrix(0.05,0,0,0.05,0,0)" xlink:href="#bI"/><use transform="matrix(0.05,0,0,0.05,14.950000000000001,0)" xlink:href="#bf"/><use transform="matrix(0.05,0,0,0.05,24.950000000000003,0)" xlink:href="#bq"/><use transform="matrix(0.05,0,0,0.05,33.95,0)" xlink:href="#bG"/><use transform="matrix(0.05,0,0,0.05,46.900000000000006,0)" xlink:href="#bB"/><use transform="matrix(0.05,0,0,0.05,56.900000000000006,0)" xlink:href="#bl"/><use transform="matrix(0.05,0,0,0.05,66.9,0)" xlink:href="#bA"/><use transform="matrix(0.05,0,0,0.05,72.85000000000001,0)" xlink:href="#bv"/><use transform="matrix(0.05,0,0,0.05,82.85000000000001,0)" xlink:href="#cg"/></g><g id="ao"><use transform="matrix(0.05,0,0,0.05,0,0)" xlink:href="#bJ"/><use transform="matrix(0.05,0,0,0.05,10,0)" xlink:href="#bt"/><use transform="matrix(0.05,0,0,0.05,20,0)" xlink:href="#bp"/></g><g id="ap"><use transform="matrix(0.05,0,0,0.05,0,0)" xlink:href="#bg"/><use transform="matrix(0.05,0,0,0.05,3.95,0)" xlink:href="#bp"/></g><g id="aq"><use transform="matrix(0.05,0,0,0.05,0,0)" xlink:href="#bg"/><use transform="matrix(0.05,0,0,0.05,3.95,0)" xlink:href="#bu"/></g><path d="M179-190L93 31C79 59 56 82 12 73V49c39 6 53-20 64-50L1-190h34L92-34l54-156h33" id="ch"/><g id="ar"><use transform="matrix(0.05,0,0,0.05,0,0)" xlink:href="#bt"/><use transform="matrix(0.05,0,0,0.05,10,0)" xlink:href="#bh"/><use transform="matrix(0.05,0,0,0.05,20,0)" xlink:href="#ce"/><use transform="matrix(0.05,0,0,0.05,25,0)" xlink:href="#bl"/><use transform="matrix(0.05,0,0,0.05,35,0)" xlink:href="#bA"/><use transform="matrix(0.05,0,0,0.05,40.95,0)" xlink:href="#bp"/><use transform="matrix(0.05,0,0,0.05,45.95,0)" xlink:href="#bt"/><use transform="matrix(0.05,0,0,0.05,55.95,0)" xlink:href="#bh"/><use transform="matrix(0.05,0,0,0.05,65.95,0)" xlink:href="#bf"/><use transform="matrix(0.05,0,0,0.05,75.95,0)" xlink:href="#bp"/><use transform="matrix(0.05,0,0,0.05,80.95,0)" xlink:href="#bB"/><use transform="matrix(0.05,0,0,0.05,90.95,0)" xlink:href="#bk"/><use transform="matrix(0.05,0,0,0.05,94.9,0)" xlink:href="#ch"/></g><g id="as"><use transform="matrix(0.05,0,0,0.05,0,0)" xlink:href="#bl"/><use transform="matrix(0.05,0,0,0.05,10,0)" xlink:href="#ce"/><use transform="matrix(0.05,0,0,0.05,14.65,0)" xlink:href="#ce"/><use transform="matrix(0.05,0,0,0.05,19.65,0)" xlink:href="#bk"/><use transform="matrix(0.05,0,0,0.05,23.599999999999998,0)" xlink:href="#bg"/><use transform="matrix(0.05,0,0,0.05,27.549999999999997,0)" xlink:href="#bh"/><use transform="matrix(0.05,0,0,0.05,37.55,0)" xlink:href="#bB"/><use transform="matrix(0.05,0,0,0.05,47.55,0)" xlink:href="#bE"/></g><g id="at"><use transform="matrix(0.05,0,0,0.05,0,0)" xlink:href="#bi"/><use transform="matrix(0.05,0,0,0.05,12,0)" xlink:href="#bk"/><use transform="matrix(0.05,0,0,0.05,15.949999999999998,0)" xlink:href="#bk"/></g><g id="au"><use transform="matrix(0.05,0,0,0.05,0,0)" xlink:href="#bl"/><use transform="matrix(0.05,0,0,0.05,10,0)" xlink:href="#bh"/><use transform="matrix(0.05,0,0,0.05,20,0)" xlink:href="#bk"/><use transform="matrix(0.05,0,0,0.05,23.95,0)" xlink:href="#bg"/><use transform="matrix(0.05,0,0,0.05,27.899999999999995,0)" xlink:href="#bh"/><use transform="matrix(0.05,0,0,0.05,37.9,0)" xlink:href="#bB"/></g><g id="av"><use transform="matrix(0.05,0,0,0.05,0,0)" xlink:href="#bh"/><use transform="matrix(0.05,0,0,0.05,10,0)" xlink:href="#bl"/><use transform="matrix(0.05,0,0,0.05,20,0)" xlink:href="#bC"/><use transform="matrix(0.05,0,0,0.05,30,0)" xlink:href="#bB"/><use transform="matrix(0.05,0,0,0.05,40,0)" xlink:href="#bu"/></g><g id="aw"><use transform="matrix(0.05,0,0,0.05,0,0)" xlink:href="#by"/><use transform="matrix(0.05,0,0,0.05,10,0)" xlink:href="#bA"/><use transform="matrix(0.05,0,0,0.05,15.949999999999998,0)" xlink:href="#bl"/><use transform="matrix(0.05,0,0,0.05,25.950000000000003,0)" xlink:href="#bm"/><use transform="matrix(0.05,0,0,0.05,34.95,0)" xlink:href="#bB"/><use transform="matrix(0.05,0,0,0.05,44.95,0)" xlink:href="#bB"/><use transform="matrix(0.05,0,0,0.05,54.95,0)" xlink:href="#bC"/></g><g id="ax"><use transform="matrix(0.05,0,0,0.05,0,0)" xlink:href="#bB"/><use transform="matrix(0.05,0,0,0.05,10,0)" xlink:href="#bq"/><use transform="matrix(0.05,0,0,0.05,19,0)" xlink:href="#bf"/><use transform="matrix(0.05,0,0,0.05,29,0)" xlink:href="#bm"/><use transform="matrix(0.05,0,0,0.05,38,0)" xlink:href="#bp"/><use transform="matrix(0.05,0,0,0.05,43,0)" xlink:href="#bk"/><use transform="matrix(0.05,0,0,0.05,46.95,0)" xlink:href="#ch"/></g><g id="ay"><use transform="matrix(0.05,0,0,0.05,0,0)" xlink:href="#bt"/><use transform="matrix(0.05,0,0,0.05,10,0)" xlink:href="#bu"/><use transform="matrix(0.05,0,0,0.05,19,0)" xlink:href="#bt"/><use transform="matrix(0.05,0,0,0.05,29,0)" xlink:href="#bf"/><use transform="matrix(0.05,0,0,0.05,39,0)" xlink:href="#bk"/><use transform="matrix(0.05,0,0,0.05,42.95,0)" xlink:href="#cg"/></g><g id="az"><use transform="matrix(0.05,0,0,0.05,0,0)" xlink:href="#bm"/><use transform="matrix(0.05,0,0,0.05,9,0)" xlink:href="#bA"/><use transform="matrix(0.05,0,0,0.05,14.949999999999998,0)" xlink:href="#bB"/><use transform="matrix(0.05,0,0,0.05,24.95,0)" xlink:href="#bf"/><use transform="matrix(0.05,0,0,0.05,34.95,0)" xlink:href="#bp"/><use transform="matrix(0.05,0,0,0.05,39.95,0)" xlink:href="#bg"/><use transform="matrix(0.05,0,0,0.05,43.900000000000006,0)" xlink:href="#bh"/><use transform="matrix(0.05,0,0,0.05,53.900000000000006,0)" xlink:href="#bv"/></g><g id="aA"><use transform="matrix(0.05,0,0,0.05,0,0)" xlink:href="#bf"/><use transform="matrix(0.05,0,0,0.05,10,0)" xlink:href="#bh"/><use transform="matrix(0.05,0,0,0.05,20,0)" xlink:href="#bC"/></g><g id="aB"><use transform="matrix(0.05,0,0,0.05,0,0)" xlink:href="#bJ"/><use transform="matrix(0.05,0,0,0.05,10,0)" xlink:href="#bA"/><use transform="matrix(0.05,0,0,0.05,15.949999999999998,0)" xlink:href="#bl"/><use transform="matrix(0.05,0,0,0.05,25.950000000000003,0)" xlink:href="#bf"/><use transform="matrix(0.05,0,0,0.05,35.95,0)" xlink:href="#bC"/><use transform="matrix(0.05,0,0,0.05,45.95,0)" xlink:href="#bm"/><use transform="matrix(0.05,0,0,0.05,54.95,0)" xlink:href="#bf"/><use transform="matrix(0.05,0,0,0.05,64.95,0)" xlink:href="#bu"/><use transform="matrix(0.05,0,0,0.05,73.95,0)" xlink:href="#bp"/><use transform="matrix(0.05,0,0,0.05,78.95,0)" xlink:href="#bg"/><use transform="matrix(0.05,0,0,0.05,82.9,0)" xlink:href="#bh"/><use transform="matrix(0.05,0,0,0.05,92.9,0)" xlink:href="#bv"/></g><g id="aC"><use transform="matrix(0.05,0,0,0.05,0,0)" xlink:href="#by"/><use transform="matrix(0.05,0,0,0.05,10,0)" xlink:href="#bf"/><use transform="matrix(0.05,0,0,0.05,20,0)" xlink:href="#bA"/><use transform="matrix(0.05,0,0,0.05,25.950000000000003,0)" xlink:href="#bp"/><use transform="matrix(0.05,0,0,0.05,30.950000000000003,0)" xlink:href="#bg"/><use transform="matrix(0.05,0,0,0.05,34.9,0)" xlink:href="#bf"/><use transform="matrix(0.05,0,0,0.05,44.9,0)" xlink:href="#bk"/><use transform="matrix(0.05,0,0,0.05,48.85,0)" xlink:href="#bk"/><use transform="matrix(0.05,0,0,0.05,52.800000000000004,0)" xlink:href="#ch"/></g><g id="aD"><use transform="matrix(0.05,0,0,0.05,0,0)" xlink:href="#bu"/><use transform="matrix(0.05,0,0,0.05,9,0)" xlink:href="#bg"/><use transform="matrix(0.05,0,0,0.05,12.949999999999998,0)" xlink:href="#bv"/><use transform="matrix(0.05,0,0,0.05,22.95,0)" xlink:href="#bh"/><use transform="matrix(0.05,0,0,0.05,32.95,0)" xlink:href="#bB"/><use transform="matrix(0.05,0,0,0.05,42.95,0)" xlink:href="#bC"/></g><g id="aE"><use transform="matrix(0.05,0,0,0.05,0,0)" xlink:href="#bp"/><use transform="matrix(0.05,0,0,0.05,5,0)" xlink:href="#bA"/><use transform="matrix(0.05,0,0,0.05,10.95,0)" xlink:href="#bf"/><use transform="matrix(0.05,0,0,0.05,20.95,0)" xlink:href="#bh"/><use transform="matrix(0.05,0,0,0.05,30.950000000000003,0)" xlink:href="#bu"/><use transform="matrix(0.05,0,0,0.05,39.95,0)" xlink:href="#bf"/><use transform="matrix(0.05,0,0,0.05,49.95,0)" xlink:href="#bm"/><use transform="matrix(0.05,0,0,0.05,58.95,0)" xlink:href="#bp"/><use transform="matrix(0.05,0,0,0.05,63.95,0)" xlink:href="#bg"/><use transform="matrix(0.05,0,0,0.05,67.9,0)" xlink:href="#bl"/><use transform="matrix(0.05,0,0,0.05,77.9,0)" xlink:href="#bh"/><use transform="matrix(0.05,0,0,0.05,87.9,0)" xlink:href="#bu"/></g><g id="aF"><use transform="matrix(0.05,0,0,0.05,0,0)" xlink:href="#ce"/><use transform="matrix(0.05,0,0,0.05,5,0)" xlink:href="#bl"/><use transform="matrix(0.05,0,0,0.05,15,0)" xlink:href="#bA"/></g><g id="aG"><use transform="matrix(0.05,0,0,0.05,0,0)" xlink:href="#bj"/><use transform="matrix(0.05,0,0,0.05,12,0)" xlink:href="#bE"/></g><g id="aH"><use transform="matrix(0.05,0,0,0.05,0,0)" xlink:href="#cd"/><use transform="matrix(0.05,0,0,0.05,12,0)" xlink:href="#bf"/><use transform="matrix(0.05,0,0,0.05,22,0)" xlink:href="#bA"/><use transform="matrix(0.05,0,0,0.05,27.950000000000003,0)" xlink:href="#bp"/><use transform="matrix(0.05,0,0,0.05,32.95,0)" xlink:href="#bg"/><use transform="matrix(0.05,0,0,0.05,36.900000000000006,0)" xlink:href="#bf"/><use transform="matrix(0.05,0,0,0.05,46.900000000000006,0)" xlink:href="#bk"/></g><g id="aI"><use transform="matrix(0.05,0,0,0.05,0,0)" xlink:href="#bu"/><use transform="matrix(0.05,0,0,0.05,9,0)" xlink:href="#bg"/><use transform="matrix(0.05,0,0,0.05,12.949999999999998,0)" xlink:href="#bv"/><use transform="matrix(0.05,0,0,0.05,22.95,0)" xlink:href="#bh"/><use transform="matrix(0.05,0,0,0.05,32.95,0)" xlink:href="#bf"/><use transform="matrix(0.05,0,0,0.05,42.95,0)" xlink:href="#bp"/><use transform="matrix(0.05,0,0,0.05,47.95,0)" xlink:href="#bt"/><use transform="matrix(0.05,0,0,0.05,57.95,0)" xlink:href="#bA"/><use transform="matrix(0.05,0,0,0.05,63.900000000000006,0)" xlink:href="#bB"/></g><g id="aJ"><use transform="matrix(0.05,0,0,0.05,0,0)" xlink:href="#bp"/><use transform="matrix(0.05,0,0,0.05,5,0)" xlink:href="#bq"/></g><g id="aK"><use transform="matrix(0.05,0,0,0.05,0,0)" xlink:href="#bl"/><use transform="matrix(0.05,0,0,0.05,10,0)" xlink:href="#by"/><use transform="matrix(0.05,0,0,0.05,20,0)" xlink:href="#bz"/><use transform="matrix(0.05,0,0,0.05,30,0)" xlink:href="#bA"/><use transform="matrix(0.05,0,0,0.05,35.95,0)" xlink:href="#bB"/><use transform="matrix(0.05,0,0,0.05,45.95,0)" xlink:href="#bp"/><use transform="matrix(0.05,0,0,0.05,50.95,0)" xlink:href="#bt"/><use transform="matrix(0.05,0,0,0.05,60.95,0)" xlink:href="#bA"/><use transform="matrix(0.05,0,0,0.05,66.9,0)" xlink:href="#bh"/><use transform="matrix(0.05,0,0,0.05,76.9,0)" xlink:href="#bw"/></g><g id="aL"><use transform="matrix(0.05,0,0,0.05,0,0)" xlink:href="#bf"/><use transform="matrix(0.05,0,0,0.05,10,0)" xlink:href="#bC"/><use transform="matrix(0.05,0,0,0.05,20,0)" xlink:href="#bC"/><use transform="matrix(0.05,0,0,0.05,30,0)" xlink:href="#br"/><use transform="matrix(0.05,0,0,0.05,40,0)" xlink:href="#bw"/></g><g id="aM"><use transform="matrix(0.05,0,0,0.05,0,0)" xlink:href="#bf"/><use transform="matrix(0.05,0,0,0.05,10,0)" xlink:href="#bC"/><use transform="matrix(0.05,0,0,0.05,20,0)" xlink:href="#bC"/><use transform="matrix(0.05,0,0,0.05,30,0)" xlink:href="#bD"/><use transform="matrix(0.05,0,0,0.05,40,0)" xlink:href="#bw"/></g><g id="aN"><use transform="matrix(0.05,0,0,0.05,0,0)" xlink:href="#bx"/><use transform="matrix(0.05,0,0,0.05,9,0)" xlink:href="#bf"/><use transform="matrix(0.05,0,0,0.05,19,0)" xlink:href="#bk"/><use transform="matrix(0.05,0,0,0.05,22.95,0)" xlink:href="#bD"/></g><g id="aO"><use transform="matrix(0.05,0,0,0.05,0,0)" xlink:href="#cd"/><use transform="matrix(0.05,0,0,0.05,12,0)" xlink:href="#bf"/><use transform="matrix(0.05,0,0,0.05,22,0)" xlink:href="#bA"/><use transform="matrix(0.05,0,0,0.05,27.950000000000003,0)" xlink:href="#bp"/><use transform="matrix(0.05,0,0,0.05,32.95,0)" xlink:href="#bg"/><use transform="matrix(0.05,0,0,0.05,36.900000000000006,0)" xlink:href="#bf"/><use transform="matrix(0.05,0,0,0.05,46.900000000000006,0)" xlink:href="#bk"/><use transform="matrix(0.05,0,0,0.05,50.85000000000001,0)" xlink:href="#bk"/><use transform="matrix(0.05,0,0,0.05,54.80000000000001,0)" xlink:href="#ch"/></g><g id="aP"><use transform="matrix(0.05,0,0,0.05,0,0)" xlink:href="#bp"/><use transform="matrix(0.05,0,0,0.05,5,0)" xlink:href="#bA"/><use transform="matrix(0.05,0,0,0.05,10.95,0)" xlink:href="#bf"/><use transform="matrix(0.05,0,0,0.05,20.95,0)" xlink:href="#bh"/><use transform="matrix(0.05,0,0,0.05,30.950000000000003,0)" xlink:href="#bu"/><use transform="matrix(0.05,0,0,0.05,39.95,0)" xlink:href="#bf"/><use transform="matrix(0.05,0,0,0.05,49.95,0)" xlink:href="#bm"/><use transform="matrix(0.05,0,0,0.05,58.95,0)" xlink:href="#bp"/><use transform="matrix(0.05,0,0,0.05,63.95,0)" xlink:href="#bg"/><use transform="matrix(0.05,0,0,0.05,67.9,0)" xlink:href="#bl"/><use transform="matrix(0.05,0,0,0.05,77.9,0)" xlink:href="#bh"/><use transform="matrix(0.05,0,0,0.05,87.9,0)" xlink:href="#bu"/></g><g id="aQ"><use transform="matrix(0.05,0,0,0.05,0,0)" xlink:href="#bf"/><use transform="matrix(0.05,0,0,0.05,10,0)" xlink:href="#bA"/><use transform="matrix(0.05,0,0,0.05,15.949999999999998,0)" xlink:href="#bB"/></g><g id="aR"><use transform="matrix(0.05,0,0,0.05,0,0)" xlink:href="#be"/><use transform="matrix(0.05,0,0,0.05,10,0)" xlink:href="#bB"/><use transform="matrix(0.05,0,0,0.05,20,0)" xlink:href="#bk"/><use transform="matrix(0.05,0,0,0.05,23.95,0)" xlink:href="#bC"/></g><g id="aS"><use transform="matrix(0.05,0,0,0.05,0,0)" xlink:href="#by"/><use transform="matrix(0.05,0,0,0.05,10,0)" xlink:href="#bB"/><use transform="matrix(0.05,0,0,0.05,20,0)" xlink:href="#bA"/><use transform="matrix(0.05,0,0,0.05,25.950000000000003,0)" xlink:href="#bu"/><use transform="matrix(0.05,0,0,0.05,34.95,0)" xlink:href="#bg"/><use transform="matrix(0.05,0,0,0.05,38.900000000000006,0)" xlink:href="#bu"/><use transform="matrix(0.05,0,0,0.05,47.900000000000006,0)" xlink:href="#bp"/><use transform="matrix(0.05,0,0,0.05,52.900000000000006,0)" xlink:href="#bB"/><use transform="matrix(0.05,0,0,0.05,62.900000000000006,0)" xlink:href="#bC"/></g><g id="aT"><use transform="matrix(0.05,0,0,0.05,0,0)" xlink:href="#bg"/><use transform="matrix(0.05,0,0,0.05,3.95,0)" xlink:href="#bh"/></g><g id="aU"><use transform="matrix(0.05,0,0,0.05,0,0)" xlink:href="#bf"/><use transform="matrix(0.05,0,0,0.05,10,0)" xlink:href="#bk"/><use transform="matrix(0.05,0,0,0.05,13.949999999999998,0)" xlink:href="#bk"/></g><use transform="matrix(0.05,0,0,0.05,0,0)" xlink:href="#bj" id="aV"/><g id="aW"><use transform="matrix(0.05,0,0,0.05,0,0)" xlink:href="#bC"/><use transform="matrix(0.05,0,0,0.05,10,0)" xlink:href="#bf"/><use transform="matrix(0.05,0,0,0.05,20,0)" xlink:href="#bp"/><use transform="matrix(0.05,0,0,0.05,25,0)" xlink:href="#bf"/><use transform="matrix(0.05,0,0,0.05,35,0)" xlink:href="#bJ"/><use transform="matrix(0.05,0,0,0.05,45,0)" xlink:href="#bf"/><use transform="matrix(0.05,0,0,0.05,55,0)" xlink:href="#bu"/><use transform="matrix(0.05,0,0,0.05,64,0)" xlink:href="#bB"/><use transform="matrix(0.05,0,0,0.05,74,0)" xlink:href="#bu"/><use transform="matrix(0.05,0,0,0.05,83,0)" xlink:href="#bE"/></g><path d="M140-251c81 0 123 46 123 126C263-46 219 4 140 4 59 4 17-45 17-125s42-126 123-126zm0 227c63 0 89-41 89-101s-29-99-89-99c-61 0-89 39-89 99S79-25 140-24" id="ci"/><g id="aX"><use transform="matrix(0.05,0,0,0.05,0,0)" xlink:href="#ci"/><use transform="matrix(0.05,0,0,0.05,14,0)" xlink:href="#bJ"/><use transform="matrix(0.05,0,0,0.05,24,0)" xlink:href="#bx"/><use transform="matrix(0.05,0,0,0.05,33,0)" xlink:href="#bg"/><use transform="matrix(0.05,0,0,0.05,36.95,0)" xlink:href="#bl"/><use transform="matrix(0.05,0,0,0.05,46.95,0)" xlink:href="#bt"/><use transform="matrix(0.05,0,0,0.05,56.95,0)" xlink:href="#bu"/><use transform="matrix(0.05,0,0,0.05,65.95,0)" xlink:href="#bk"/><use transform="matrix(0.05,0,0,0.05,69.9,0)" xlink:href="#ch"/></g><g id="aY"><use transform="matrix(0.05,0,0,0.05,0,0)" xlink:href="#bH"/><use transform="matrix(0.05,0,0,0.05,10.950000000000001,0)" xlink:href="#bI"/><use transform="matrix(0.05,0,0,0.05,25.900000000000002,0)" xlink:href="#bD"/></g><g id="aZ"><use transform="matrix(0.05,0,0,0.05,0,0)" xlink:href="#bg"/><use transform="matrix(0.05,0,0,0.05,3.95,0)" xlink:href="#bu"/></g><g id="ba"><use transform="matrix(0.05,0,0,0.05,0,0)" xlink:href="#bh"/><use transform="matrix(0.05,0,0,0.05,10,0)" xlink:href="#bl"/><use transform="matrix(0.05,0,0,0.05,20,0)" xlink:href="#bp"/></g><g id="bb"><use transform="matrix(0.05,0,0,0.05,0,0)" xlink:href="#bt"/><use transform="matrix(0.05,0,0,0.05,10,0)" xlink:href="#by"/><use transform="matrix(0.05,0,0,0.05,20,0)" xlink:href="#bC"/><use transform="matrix(0.05,0,0,0.05,30,0)" xlink:href="#bf"/><use transform="matrix(0.05,0,0,0.05,40,0)" xlink:href="#bp"/><use transform="matrix(0.05,0,0,0.05,45,0)" xlink:href="#bB"/><use transform="matrix(0.05,0,0,0.05,55,0)" xlink:href="#bC"/><use transform="matrix(0.05,0,0,0.05,65,0)" xlink:href="#bE"/></g><path fill="#c92d39" d="M18-101c0-91 52-150 145-150 68 0 111 34 111 101C274-54 221 4 128 4 59 4 18-33 18-101zm202-32c4-46-15-77-59-77-65 0-88 46-91 108-2 41 22 65 60 65 60 0 84-40 90-96" id="cj"/><path fill="#c92d39" d="M93-157L62 0H13l31-157H16l6-33h28c2-54 40-81 100-68l-6 32c-29-8-44 9-45 36h38l-7 33H93" id="ck"/><path fill="#c92d39" d="M6 0l51-261h49L55 0H6" id="cl"/><path fill="#c92d39" d="M50-224l7-37h49l-7 37H50zM6 0l37-190h49L55 0H6" id="cm"/><path fill="#c92d39" d="M151-194c95 0 34 128 28 194h-49l25-134c0-29-45-25-59-9C67-111 69-48 56 0H6l36-190h47l-4 32c15-20 33-36 66-36" id="cn"/><path fill="#c92d39" d="M114-194c63-2 87 48 72 110H63c-3 28 1 55 31 54 21-1 32-13 37-29l44 13C160-14 137 4 91 4 41 4 11-22 11-73c0-71 33-119 103-121zm30 77c14-47-50-61-67-22-3 6-6 13-8 22h75" id="co"/><g id="bc"><use transform="matrix(0.07407407407407408,0,0,0.07407407407407408,0,0)" xlink:href="#cj"/><use transform="matrix(0.07407407407407408,0,0,0.07407407407407408,20.740740740740744,0)" xlink:href="#ck"/><use transform="matrix(0.07407407407407408,0,0,0.07407407407407408,29.03703703703704,0)" xlink:href="#ck"/><use transform="matrix(0.07407407407407408,0,0,0.07407407407407408,37.85185185185186,0)" xlink:href="#cl"/><use transform="matrix(0.07407407407407408,0,0,0.07407407407407408,45.25925925925927,0)" xlink:href="#cm"/><use transform="matrix(0.07407407407407408,0,0,0.07407407407407408,52.66666666666667,0)" xlink:href="#cn"/><use transform="matrix(0.07407407407407408,0,0,0.07407407407407408,68.8888888888889,0)" xlink:href="#co"/></g></defs></g></svg>